<?xml version="1.0" encoding="iso-8859-1"?>
<!-- Generator: Adobe Illustrator 24.0.2, SVG Export Plug-In . SVG Version: 6.00 Build 0)  -->
<svg version="1.1" id="Capa_1" xmlns="http://www.w3.org/2000/svg" xmlns:xlink="http://www.w3.org/1999/xlink" x="0px" y="0px"
	 viewBox="0 0 511.985 511.985" style="enable-background:new 0 0 511.985 511.985;" xml:space="preserve">
<g>
	<g>
		<g>
			<path style="fill:#9A5E5F;" d="M454.311,62.847c-6.421-5.388-16.032-4.374-21.186,2.236l-160.786,206.18
				c-1.069,1.274-2.35,2.352-3.788,3.187l-51.836,30.125c-1.976,1.149-3.65,2.752-4.883,4.678l-49.517,77.365
				c-1.393,2.176-3.176,4.076-5.26,5.603L56.884,465.644c-5.798,4.249-6.079,12.809-0.572,17.429l10.673,8.956
				c21.651,18.167,53.719,16.274,73.081-4.316l57.363-60.998c1.933-2.056,3.431-4.481,4.404-7.13l30.687-83.567
				c1.205-3.28,3.563-6.009,6.634-7.676l41.667-22.617c1.585-0.86,2.994-2.011,4.153-3.393L456.452,83.311
				C461.371,77.028,460.424,67.976,454.311,62.847L454.311,62.847z"/>
			<path style="fill:#845152;" d="M456.456,83.308l-171.48,219.02c-1.16,1.39-2.57,2.54-4.15,3.4l-41.67,22.61
				c-3.07,1.67-5.43,4.4-6.64,7.68l-30.68,83.57c-0.98,2.65-2.47,5.07-4.41,7.13l-57.36,61c-17.2,18.28-44.43,21.82-65.47,9.65
				c15.97,1.62,32.44-3.99,44.21-16.51l57.36-61c1.93-2.06,3.43-4.48,4.41-7.13l30.68-83.57c1.21-3.28,3.57-6.01,6.64-7.67
				l41.66-22.62c1.59-0.86,3-2.01,4.16-3.39l171.47-219.03c3.44-4.38,4.01-10.12,1.96-14.93c5.25-3.18,12.17-2.86,17.17,1.33
				C460.426,67.978,461.366,77.028,456.456,83.308z"/>
			<path style="fill:#845152;" d="M432.196,114.298l-38.58,49.27l-8.74-16.04c-2.12-3.89-5.46-6.86-9.38-8.55l33.78-43.3
				c4.41,3.16,8.79,6.47,13.13,9.92L432.196,114.298z"/>
		</g>
		<path style="fill:#CBC5CB;" d="M407.803,142.88l-8.896-16.315c-3.471-6.366-10.196-10.272-17.445-10.134l-31.464,0.6
			c-2.893,0.055-5.662-1.15-7.582-3.314c-14.511-16.362-84.984-86.243-232.193-88.951c-5.748-0.106-6.39-8.431-0.727-9.429
			C181.192,2.704,322.233-6.188,436.441,84.641l12.675,11.264c3.845,3.417,4.433,9.209,1.353,13.328l-26.045,34.835
			C420.104,149.845,411.256,149.212,407.803,142.88z"/>
		<path style="fill:#B5ADB6;" d="M450.466,109.228l-26.04,34.84c-4.32,5.78-13.17,5.14-16.62-1.19l-8.9-16.31
			c-1.18-2.17-2.74-4.05-4.57-5.58c17.97-6.67,32.48-20.44,40.13-37.91c0.66,0.52,1.32,1.04,1.98,1.56l12.67,11.27
			C452.966,99.318,453.546,105.118,450.466,109.228z"/>
		<path style="fill:#685E67;" d="M450.471,109.236l-12.066,16.13l-12.108-10.768c-86.098-68.47-185.834-86.193-266.193-86.14
			c-15.533-2.063-32.145-3.373-49.878-3.697c-5.75-0.105-6.389-8.432-0.723-9.427C181.199,2.703,322.235-6.19,436.446,84.643
			l12.674,11.26C452.964,99.317,453.551,105.109,450.471,109.236z"/>
		<path style="fill:#554E55;" d="M450.476,109.238l-12.07,16.13l-12.11-10.77c-3.12-2.48-6.26-4.9-9.42-7.23
			c7.47-6.7,13.51-14.97,17.59-24.29c0.66,0.52,1.32,1.04,1.98,1.56l12.67,11.26C452.966,99.318,453.546,105.108,450.476,109.238z"
			/>
	</g>
	<path style="fill:#FEE7C9;" d="M345.765,185.136l8.944,28.668c0.483,1.549,0.185,3.237-0.801,4.526l-50.786,66.413
		c-1.256,1.642-3.393,2.342-5.377,1.761l-26.145-7.659c-3.385-0.992-4.707-5.083-2.541-7.868l67.987-87.421
		C339.524,180.368,344.563,181.282,345.765,185.136z"/>
	<path style="fill:#FFD496;" d="M353.906,218.328l-50.78,66.41c-1.26,1.65-3.4,2.35-5.38,1.77l-18.38-5.38
		c1.33-0.35,2.54-1.13,3.41-2.27l64.39-84.2c0.44-0.57,0.77-1.21,0.98-1.88l6.56,21.03
		C355.196,215.348,354.896,217.038,353.906,218.328z"/>
	<path d="M459.132,57.101c-4.681-3.927-10.603-5.735-16.678-5.094c-6.074,0.642-11.488,3.648-15.243,8.464l-3.947,5.061
		c-11.893-8.253-24.332-15.795-37.193-22.497c-3.67-1.915-8.202-0.489-10.117,3.185c-1.914,3.673-0.488,8.203,3.186,10.117
		c18.546,9.666,36.199,21.119,52.473,34.046l12.521,11.127c0.94,0.835,1.081,2.225,0.328,3.231l-7.174,9.596l-6.008-5.343
		c-0.103-0.091-0.208-0.18-0.315-0.266c-40.193-31.965-86.579-55.554-137.868-70.111c-41.238-11.705-85.8-17.643-132.469-17.658
		c-7.225-0.947-14.542-1.735-21.973-2.325c52.476-6.208,131.797-7.347,208.939,23.281c3.85,1.527,8.21-0.354,9.738-4.203
		c1.528-3.85-0.354-8.21-4.203-9.738c-41.695-16.554-87.826-25.857-137.11-27.65c-35.502-1.293-71.777,1.274-107.824,7.625
		c-6.349,1.119-10.593,6.596-10.091,13.025c0.502,6.422,5.541,11.17,11.982,11.289c61.305,1.128,115.98,14.081,162.51,38.498
		c36.635,19.225,57.107,39.924,64.209,47.931c3.376,3.807,8.261,5.948,13.336,5.837l27.526-0.525l-39.305,50.401
		c-2.822,0.605-5.394,2.177-7.235,4.545l-67.988,87.422c-0.875,1.125-1.522,2.378-1.964,3.691l-48.224,28.027
		c-2.995,1.74-5.565,4.202-7.432,7.12l-49.519,77.365c-0.897,1.403-2.033,2.613-3.376,3.597l-24.646,18.064
		c-3.341,2.449-4.064,7.142-1.615,10.483c1.469,2.005,3.746,3.067,6.055,3.067c1.539,0,3.092-0.472,4.428-1.451l24.646-18.064
		c2.841-2.083,5.244-4.643,7.143-7.61l49.519-77.365c0.586-0.916,1.393-1.689,2.334-2.236l45.703-26.562
		c1.012,0.66,2.113,1.195,3.303,1.543l15.22,4.459l-5.55,7.089c-0.543,0.628-1.188,1.147-1.918,1.543l-41.669,22.618
		c-4.677,2.54-8.262,6.688-10.095,11.682l-30.688,83.568c-0.628,1.71-1.579,3.25-2.827,4.577l-57.363,60.998
		c-16.625,17.677-44.209,19.305-62.796,3.708l-10.674-8.956c-1.161-0.975-1.299-2.211-1.277-2.862
		c0.021-0.651,0.239-1.876,1.463-2.772l47.14-34.552c3.341-2.449,4.064-7.142,1.615-10.483c-2.448-3.342-7.144-4.064-10.482-1.616
		l-47.14,34.552c-4.634,3.396-7.399,8.637-7.588,14.379s2.228,11.152,6.628,14.845l10.673,8.956
		c11.352,9.524,25.229,14.21,39.054,14.21c16.232,0,32.394-6.459,44.312-19.133l57.363-60.999c2.64-2.808,4.651-6.065,5.979-9.682
		l30.688-83.568c0.576-1.568,1.703-2.872,3.172-3.669l41.67-22.619c2.421-1.315,4.547-3.052,6.317-5.162
		c0.055-0.065,0.108-0.131,0.16-0.198l10.114-12.918c3.149-0.479,6.09-2.126,8.088-4.74l50.784-66.411
		c1.625-2.123,2.486-4.688,2.549-7.299l14.23-18.176c2.554-3.261,1.979-7.975-1.282-10.529c-3.261-2.553-7.975-1.979-10.528,1.283
		l-7.34,9.376l-4.568-14.64c-0.198-0.637-0.45-1.246-0.739-1.832l39.943-51.219c0.061,0.104,0.135,0.197,0.193,0.304l7.36,13.499
		l-13.091,16.721c-2.554,3.262-1.979,7.976,1.282,10.529c1.372,1.074,3.001,1.595,4.618,1.595c2.227,0,4.432-0.988,5.91-2.877
		l11.913-15.216c1.562,0.591,3.22,0.968,4.939,1.091c0.422,0.03,0.842,0.045,1.261,0.045c5.473,0,10.604-2.553,13.915-6.981
		l26.046-34.835c4.394-5.876,4.581-13.546,0.935-19.473l4.946-6.317C469.809,78.416,468.393,64.873,459.132,57.101z
		 M330.208,236.977l-18.477-8.654l12.452-16.011l8.988,20.791L330.208,236.977z M311.683,261.201l-15.661-12.68l6.266-8.057
		l18.593,8.708L311.683,261.201z M334.686,198.806l5.344-6.871l7.135,22.868l-3.554,4.648L334.686,198.806z M286.812,260.364
		l15.756,12.757l-4.361,5.703l-20.973-6.144L286.812,260.364z M416.324,140.534c-0.489-0.035-1.391-0.243-1.937-1.245l-8.896-16.315
		c-4.745-8.701-13.771-14.047-23.649-14.047c-0.174,0-0.349,0.002-0.523,0.005l-31.464,0.6c-0.727,0.003-1.369-0.275-1.828-0.792
		c-7.649-8.625-29.633-30.884-68.461-51.26c-9.605-5.04-19.547-9.592-29.789-13.694c65.085,11.951,122.594,37.553,171.69,76.556
		l6.807,6.052l-9.857,13.184C417.734,140.491,416.821,140.569,416.324,140.534z M441.11,78.771c-1.88-1.495-3.785-2.964-5.699-4.421
		l3.629-4.654c1.229-1.577,3.002-2.561,4.99-2.771c1.993-0.207,3.931,0.383,5.461,1.668c3.032,2.544,3.495,6.978,1.056,10.094
		l-3.903,4.986l-5.22-4.638C441.321,78.944,441.216,78.856,441.11,78.771z"/>
</g>
<g>
</g>
<g>
</g>
<g>
</g>
<g>
</g>
<g>
</g>
<g>
</g>
<g>
</g>
<g>
</g>
<g>
</g>
<g>
</g>
<g>
</g>
<g>
</g>
<g>
</g>
<g>
</g>
<g>
</g>
</svg>
