<?xml version="1.0" encoding="iso-8859-1"?>
<!-- Generator: Adobe Illustrator 24.0.2, SVG Export Plug-In . SVG Version: 6.00 Build 0)  -->
<svg version="1.1" id="Capa_1" xmlns="http://www.w3.org/2000/svg" xmlns:xlink="http://www.w3.org/1999/xlink" x="0px" y="0px"
	 viewBox="0 0 511.99 511.99" style="enable-background:new 0 0 511.99 511.99;" xml:space="preserve">
<g>
	<g>
		<g>
			<path style="fill:#FCC16D;" d="M346.97,180.564c-7.315-3.45-16.042-0.319-19.494,6.996L187.791,483.632
				c-3.075,6.518-0.894,14.304,5.114,18.285c0.082,0.055,0.164,0.109,0.247,0.163c7.363,4.877,17.342,2.075,21.111-5.912
				l139.704-296.111C357.417,192.743,354.285,184.015,346.97,180.564z"/>
		</g>
		<path style="fill:#FCA62F;" d="M353.971,200.059l-19.351,41.015c-7.42-5.37-15.152-11.862-23.158-19.565l16.012-33.947
			c3.456-7.313,12.184-10.447,19.497-7C354.283,184.018,357.417,192.747,353.971,200.059z"/>
		<g>
			<g>
				<path style="fill:#845152;" d="M98.099,18.4c1.953-6.558-4.15-12.693-10.609-10.432c-9.911,3.47-20.964,10.67-25.18,25.598
					c-10.228,36.222,13.767,72.108,93.388,80.203c32.749,3.33,55.756,7.521,71.496,11.302c17.74,4.262,35.149-8.383,36.367-26.587
					c1.905-28.465-2.795-65.68-36.024-81.357c-57.241-27.006-85.092,50.531-122.625,24.576C98.296,37.128,95.125,28.385,98.099,18.4
					z"/>
				<path style="fill:#704545;" d="M227.196,125.078c-4.504-1.086-9.596-2.204-15.339-3.326
					c8.674-4.551,14.978-13.327,15.685-24.017c1.907-28.467-2.791-65.681-36.02-81.358c-1.754-0.827-3.486-1.56-5.186-2.201
					c12.061-4.001,25.529-4.438,41.198,2.954c33.23,15.678,37.927,52.891,36.032,81.354
					C262.346,116.686,244.93,129.335,227.196,125.078z"/>
			</g>
			<g>
				<path style="fill:#845152;" d="M434.267,177.003c3.819-5.678,12.436-4.868,14.797,1.555c3.624,9.856,5.095,22.965-3.746,35.711
					c-21.452,30.927-64.406,35.226-121.283-21.078c-23.394-23.158-41.259-38.25-54.185-47.993
					c-14.57-10.982-15.88-32.458-2.605-44.974c20.758-19.57,52.469-39.607,85.697-23.93c57.241,27.006,15.108,97.805,59.006,110.268
					C419.687,188.759,428.452,185.647,434.267,177.003z"/>
				<path style="fill:#704545;" d="M408.488,185.385c-0.674,0.537-1.289,1.201-1.816,1.982c-5.819,8.64-14.586,11.755-22.319,9.558
					c-43.905-12.468-1.767-83.26-59.009-110.265c-11.628-5.487-23.07-6.6-33.917-4.891c17.984-10.535,39.414-15.904,61.518-5.477
					C408.596,102.545,370.314,170.203,408.488,185.385z"/>
				<path style="fill:#704545;" d="M445.315,214.265c-9.177,13.229-22.289,21.596-38.74,22.407
					c4.188-3.329,7.908-7.381,11.14-12.038c8.845-12.751,7.371-25.853,3.749-35.714c-0.283-0.752-0.644-1.435-1.084-2.031
					c5.145-1.015,10.134-4.296,13.883-9.89c3.827-5.672,12.438-4.862,14.801,1.562C452.686,188.412,454.16,201.524,445.315,214.265z
					"/>
			</g>
		</g>
	</g>
	<g>
		<path d="M255.252,140.017c1.171,3.021,3.672,10.688,1.595,16.613c-1.37,3.909,0.689,8.188,4.598,9.559
			c0.821,0.288,1.658,0.424,2.48,0.424c3.097,0,5.996-1.934,7.078-5.021c0.542-1.547,0.915-3.113,1.176-4.675
			c5.037,4.994,11.902,13.75,11.749,24.315c-0.06,4.142,3.249,7.548,7.391,7.607c0.037,0.001,0.074,0.001,0.11,0.001
			c4.091,0,7.438-3.287,7.497-7.392c0.009-0.644-0.002-1.28-0.023-1.912c5.369,4.943,10.908,10.207,16.612,15.793L181.013,480.427
			c-4.638,9.82-1.306,21.749,7.751,27.747c0.06,0.039,0.133,0.087,0.194,0.125l0.096,0.061c3.626,2.393,7.834,3.63,12.092,3.63
			c1.978,0,3.967-0.267,5.914-0.811c6.161-1.72,11.259-6.023,13.989-11.809l27.2-57.66c1.767-3.746,0.163-8.216-3.583-9.983
			c-3.744-1.767-8.215-0.163-9.983,3.583l-27.2,57.659c-0.882,1.87-2.465,3.206-4.456,3.762c-1.981,0.554-4.015,0.233-5.726-0.902
			c-0.061-0.041-0.136-0.089-0.198-0.127l-0.089-0.057c-2.86-1.917-3.908-5.698-2.436-8.815l132.354-280.546
			c3.775,3.438,7.53,6.649,11.259,9.63L249.852,403.17c-1.767,3.747-0.163,8.216,3.583,9.983c1.034,0.488,2.123,0.719,3.195,0.719
			c2.812,0,5.508-1.59,6.788-4.302L350.5,224.979c18.884,12.715,36.934,19.267,53.409,19.267c1.866,0,3.711-0.084,5.535-0.252
			c17.042-1.572,31.578-10.373,42.036-25.451c8.669-12.499,10.268-27.22,4.622-42.573c-2.042-5.556-6.959-9.447-12.831-10.155
			c-6.001-0.723-11.836,1.96-15.229,7.002c-3.665,5.447-9.046,7.95-14.046,6.53c-14.901-4.231-16.737-16.909-18.701-38.953
			c-0.433-4.858-0.88-9.881-1.581-14.964c-0.565-4.104-4.352-6.971-8.454-6.406c-4.104,0.565-6.971,4.351-6.406,8.454
			c0.651,4.726,1.083,9.566,1.5,14.248c1.87,20.997,3.99,44.796,29.545,52.052c11.283,3.202,23.29-1.739,30.589-12.588
			c0.248-0.369,0.58-0.534,0.988-0.482c0.403,0.048,0.483,0.265,0.547,0.439c3.94,10.716,2.975,20.422-2.869,28.848
			c-7.963,11.48-18.423,17.895-31.089,19.063c-15.492,1.43-41.741-4.555-78.755-41.197c-20.331-20.126-38.817-36.495-54.947-48.652
			c-5.218-3.933-8.417-9.929-8.776-16.448c-0.355-6.444,2.125-12.669,6.803-17.079c19.059-17.968,47.952-36.475,77.352-22.604
			c7.976,3.763,14.063,8.567,18.607,14.688c2.469,3.326,7.168,4.02,10.493,1.55c3.326-2.47,4.02-7.167,1.55-10.493
			c-5.969-8.039-14.128-14.536-24.25-19.312c-26.495-12.498-55.598-6.571-84.717,17.08c-0.263-37.513-14.193-63.745-40.688-76.245
			c-34.282-16.172-59.415,1.031-79.608,14.855c-18.261,12.5-29.212,19.144-41.951,10.334c-4.274-2.956-5.766-8.701-3.891-14.994
			c1.734-5.824,0.095-12.034-4.28-16.206c-4.28-4.08-10.405-5.401-15.996-3.445c-15.439,5.405-25.785,16-29.918,30.639
			c-8.047,28.499,3.414,54.172,31.445,70.439c3.583,2.077,8.172,0.86,10.251-2.722c2.079-3.583,0.86-8.172-2.722-10.251
			c-22.268-12.922-30.753-31.384-24.539-53.39c2.787-9.868,9.664-16.785,20.44-20.558c0.174-0.061,0.393-0.137,0.686,0.143
			c0.297,0.283,0.383,0.643,0.256,1.069C87.178,28.792,91,41.201,100.647,47.872c21.848,15.111,41.562,1.613,58.956-10.294
			c19.66-13.459,38.229-26.171,64.734-13.667c29.402,13.872,33.489,47.938,31.74,74.073c-0.429,6.415-3.657,12.286-8.855,16.109
			c-5.26,3.869-11.921,5.213-18.276,3.686c-19.642-4.719-44.03-8.579-72.489-11.472c-11.45-1.164-22.067-2.968-31.555-5.363
			c-4.019-1.012-8.094,1.421-9.107,5.437c-1.014,4.017,1.42,8.094,5.437,9.107c10.194,2.573,21.536,4.504,33.709,5.742
			c11.894,1.209,23.035,2.588,33.385,4.127c-0.342,0.168-0.68,0.32-1.023,0.495c-3.69,1.881-5.156,6.398-3.275,10.088
			c1.325,2.599,3.958,4.095,6.688,4.095c1.146,0,2.31-0.264,3.401-0.82c9.177-4.678,17.67-6.257,23.93-6.662
			c-0.898,0.958-1.779,1.965-2.628,3.026c-2.587,3.234-2.063,7.954,1.171,10.542c1.383,1.106,3.037,1.644,4.68,1.644
			c2.2,0,4.38-0.964,5.861-2.815c5.254-6.568,12.253-10.512,15.957-12.278c2.459-0.695,5.977-2.323,8.263-3.523
			C252.08,132.646,253.579,136.905,255.252,140.017z"/>
		<path d="M333.472,135.129c-2.487,3.313-1.817,8.014,1.496,10.5l15.162,11.381c1.318,0.99,2.903,1.502,4.503,1.502
			c0.914,0,1.833-0.167,2.711-0.507c2.416-0.937,4.176-3.054,4.658-5.599c6.532-34.546-14.467-52.617-15.364-53.37
			c-3.173-2.662-7.929-2.268-10.59,0.907c-2.662,3.173-2.271,7.883,0.903,10.545c0.507,0.441,10.29,9.169,11.227,26.301
			l-4.205-3.156C340.659,131.147,335.958,131.816,333.472,135.129z"/>
		<path d="M211.307,51.214c4.049,0.719,7.937-1.958,8.69-6.013c0.757-4.072-1.93-7.987-6.003-8.744
			c-1.15-0.215-28.451-4.931-50.96,22.078c-1.659,1.99-2.173,4.695-1.36,7.155c0.813,2.459,2.837,4.326,5.354,4.936l18.425,4.465
			c0.594,0.144,1.188,0.213,1.772,0.213c3.382,0,6.451-2.304,7.283-5.735c0.976-4.026-1.497-8.08-5.522-9.056l-5.11-1.238
			C197.638,49.145,210.545,51.086,211.307,51.214z"/>
	</g>
</g>
<g>
</g>
<g>
</g>
<g>
</g>
<g>
</g>
<g>
</g>
<g>
</g>
<g>
</g>
<g>
</g>
<g>
</g>
<g>
</g>
<g>
</g>
<g>
</g>
<g>
</g>
<g>
</g>
<g>
</g>
</svg>
