<?xml version="1.0" encoding="iso-8859-1"?>
<!-- Generator: Adobe Illustrator 24.0.2, SVG Export Plug-In . SVG Version: 6.00 Build 0)  -->
<svg version="1.1" id="Capa_1" xmlns="http://www.w3.org/2000/svg" xmlns:xlink="http://www.w3.org/1999/xlink" x="0px" y="0px"
	 viewBox="0 0 512.06 512.06" style="enable-background:new 0 0 512.06 512.06;" xml:space="preserve">
<g>
	<g>
		<g>
			<path style="fill:#FCB44D;" d="M279.622,288.662c-3.03-1.749-5.474-4.545-6.732-8.101c-4.032-11.389-12.018-20.991-22.489-27.036
				c-10.471-6.045-22.78-8.161-34.659-5.958c-8.265,1.533-16.21-3.925-17.743-12.19c-1.534-8.267,3.925-16.211,12.191-17.744
				c19.002-3.525,38.689-0.142,55.434,9.526s29.518,25.026,35.966,43.244c2.805,7.926-1.345,16.625-9.271,19.43
				C287.949,291.379,283.344,290.811,279.622,288.662z"/>
		</g>
		<path style="fill:#FB9927;" d="M226.99,246.76c-3.747-0.148-7.514,0.126-11.247,0.807c-8.267,1.532-16.214-3.924-17.746-12.191
			c-1.532-8.267,3.924-16.214,12.191-17.746c8.281-1.535,16.683-1.758,24.923-0.727C233.693,227.134,230.977,237.156,226.99,246.76z
			"/>
		<path style="fill:#FB9927;" d="M292.319,289.833c-4.371,1.543-8.979,0.98-12.697-1.167c-3.032-1.751-5.469-4.552-6.734-8.106
			c-1.277-3.573-2.923-6.973-4.924-10.144c6.315-8.26,13.637-15.622,21.797-21.962c5.013,6.621,9.021,14.009,11.832,21.948
			C304.399,278.327,300.244,287.026,292.319,289.833z"/>
		<g>
			<path style="fill:#685E67;" d="M176.727,280.736c9.924-7.863,18.578-17.663,25.336-29.256
				c29.113-49.94,10.817-115.113-39.245-144.016L86.605,63.462c-7.321-4.227-16.682-1.718-20.909,5.602l-44.002,76.214
				C-7.209,195.34,9.532,260.93,59.715,289.623c11.649,6.661,24.044,10.821,36.57,12.668c11.054,1.63,21.738,5.176,31.415,10.763
				l7.618,4.398c5.317,3.07,12.116,1.248,15.186-4.069l4.398-7.618C160.49,296.088,167.969,287.675,176.727,280.736z"/>
			<path style="fill:#554E55;" d="M202.06,251.479c-6.752,11.593-15.411,21.395-25.331,29.261
				c-8.759,6.931-16.244,15.348-21.83,25.024l-4.399,7.62c-3.07,5.317-9.863,7.137-15.18,4.068l-7.62-4.399
				c-4.069-2.349-8.315-4.332-12.691-5.968c2.419-0.841,4.539-2.524,5.919-4.914l6.936-12.014
				c5.587-9.676,13.071-18.093,21.822-25.029c9.929-7.861,18.588-17.662,25.34-29.256c29.114-49.939,10.819-115.109-39.242-144.012
				l27.034,15.608C212.879,136.37,231.173,201.54,202.06,251.479z"/>
			<circle style="fill:#FCC16D;" cx="111.655" cy="198.768" r="73.436"/>
			<path style="fill:#FCA62F;" d="M175.248,235.489c-20.278,35.122-65.19,47.156-100.311,26.878
				c-33.828-19.531-46.244-61.92-28.984-96.395c-5.908,25.221,5.008,52.379,28.614,66.008c28.876,16.672,65.798,6.769,82.464-22.096
				c15.423-26.713,8.119-60.325-15.933-78.396c2.465,1.07,4.893,2.302,7.279,3.679C183.497,155.444,195.532,200.356,175.248,235.489
				z"/>
			
				<ellipse transform="matrix(0.5 -0.866 0.866 0.5 -116.3108 196.0801)" style="fill:#433F43;" cx="111.655" cy="198.768" rx="48.391" ry="15.513"/>
		</g>
		<g>
			<path style="fill:#685E67;" d="M263.671,330.933c1.847-12.526,6.008-24.921,12.668-36.57
				c28.693-50.183,94.282-66.924,144.344-38.021l76.214,44.002c7.321,4.227,9.829,13.588,5.602,20.909l-44.002,76.214
				c-28.903,50.062-94.076,68.358-144.016,39.245c-11.593-6.758-21.393-15.412-29.256-25.336
				c-6.939-8.758-15.352-16.238-25.028-21.825l-7.618-4.398c-5.317-3.07-7.139-9.869-4.069-15.186l4.398-7.618
				C258.495,352.672,262.041,341.988,263.671,330.933z"/>
			<path style="fill:#554E55;" d="M502.5,321.254l-44.004,76.216c-28.903,50.061-94.073,68.355-144.012,39.242
				c-4.49-2.616-8.712-5.511-12.647-8.661c47.433,18.456,103.432-0.821,129.625-46.189l44.004-76.216
				c4.227-7.321,1.711-16.684-5.61-20.91l27.043,15.613C504.219,304.575,506.727,313.932,502.5,321.254z"/>
			<circle style="fill:#FCC16D;" cx="367.194" cy="346.304" r="73.436"/>
			<path style="fill:#FCA62F;" d="M430.787,383.024c-20.278,35.122-65.19,47.156-100.311,26.878
				c-33.828-19.531-46.244-61.92-28.984-96.395c-5.908,25.221,5.008,52.379,28.614,66.008c28.876,16.672,65.798,6.769,82.464-22.096
				c15.423-26.713,8.119-60.325-15.933-78.396c2.465,1.07,4.893,2.302,7.279,3.679C439.036,302.98,451.07,347.891,430.787,383.024z"
				/>
			
				<ellipse transform="matrix(0.5 -0.866 0.866 0.5 -116.3108 491.151)" style="fill:#433F43;" cx="367.194" cy="346.304" rx="48.391" ry="15.513"/>
		</g>
	</g>
	<g>
		<path d="M139.6,150.365c-13.768-7.952-33.967,12.804-47.875,36.896c-13.909,24.093-21.782,51.961-8.016,59.91
			c2.04,1.178,4.221,1.726,6.502,1.726c13.113,0,29.525-18.1,41.373-38.622C145.495,186.182,153.368,158.314,139.6,150.365z
			 M118.594,202.775c-11.4,19.747-22.639,29.062-27.042,30.813c-0.686-4.688,1.763-19.079,13.163-38.826
			s22.639-29.063,27.042-30.813C132.444,168.638,129.996,183.029,118.594,202.775z"/>
		<path d="M401.132,323.743c3.563-16.442-1.293-23.129-5.993-25.842c-13.768-7.951-33.966,12.804-47.875,36.896
			c-6.841,11.849-11.816,23.947-14.009,34.067c-3.563,16.442,1.293,23.129,5.993,25.842c2.04,1.178,4.221,1.726,6.502,1.726
			c13.113-0.001,29.525-18.1,41.373-38.622C393.964,345.961,398.94,333.863,401.132,323.743z M347.091,381.122
			c-0.687-4.688,1.763-19.079,13.163-38.825c11.4-19.747,22.639-29.063,27.042-30.813c0.687,4.688-1.763,19.079-13.163,38.825
			C362.733,370.056,351.495,379.372,347.091,381.122z"/>
		<path d="M81.881,181.579c2.071-3.587,0.843-8.174-2.745-10.246l-5.096-2.942c-3.587-2.073-8.174-0.843-10.245,2.745
			s-0.843,8.174,2.745,10.246l5.096,2.942c1.181,0.682,2.471,1.006,3.743,1.006C77.971,185.33,80.492,183.985,81.881,181.579z"/>
		<path d="M93.32,164.427c1.163,0,2.345-0.271,3.448-0.844c3.677-1.907,5.11-6.434,3.203-10.111l-2.71-5.224
			c-1.907-3.677-6.437-5.112-10.111-3.204c-3.677,1.907-5.11,6.434-3.203,10.111l2.71,5.224
			C87.992,162.952,90.609,164.427,93.32,164.427z"/>
		<path d="M65.911,196.313l-5.879,0.264c-4.138,0.186-7.342,3.691-7.155,7.829c0.181,4.024,3.499,7.164,7.486,7.164
			c0.113,0,0.229-0.002,0.343-0.007l5.879-0.264c4.138-0.186,7.342-3.691,7.155-7.829C73.554,199.331,70.029,196.131,65.911,196.313
			z"/>
		<path d="M143.749,225.958l5.097,2.942c1.182,0.682,2.471,1.006,3.743,1.006c2.592,0,5.113-1.346,6.502-3.751
			c2.071-3.587,0.842-8.174-2.745-10.245l-5.097-2.942c-3.59-2.073-8.176-0.842-10.245,2.745
			C138.932,219.3,140.162,223.887,143.749,225.958z"/>
		<path d="M156.631,200.985c0.113,0,0.229-0.002,0.343-0.007l5.879-0.264c4.138-0.186,7.342-3.691,7.155-7.829
			c-0.186-4.138-3.687-7.341-7.829-7.156l-5.879,0.264c-4.138,0.186-7.342,3.691-7.155,7.829
			C149.326,197.846,152.644,200.985,156.631,200.985z"/>
		<path d="M126.116,233.709c-3.676,1.908-5.109,6.435-3.202,10.111l2.711,5.224c1.335,2.573,3.952,4.047,6.663,4.047
			c1.164,0,2.345-0.271,3.449-0.845c3.676-1.908,5.109-6.435,3.202-10.111l-2.711-5.224
			C134.32,233.234,129.793,231.802,126.116,233.709z"/>
		<path d="M337.632,329.237c2.071-3.587,0.843-8.174-2.745-10.246l-5.096-2.942c-3.586-2.072-8.174-0.842-10.245,2.745
			c-2.071,3.587-0.843,8.174,2.745,10.246l5.096,2.942c1.181,0.682,2.471,1.006,3.743,1.006
			C333.722,332.988,336.243,331.643,337.632,329.237z"/>
		<path d="M342.408,308.037c1.335,2.573,3.952,4.047,6.663,4.047c1.164,0,2.345-0.271,3.448-0.844
			c3.677-1.908,5.11-6.435,3.203-10.111l-2.71-5.223c-1.907-3.677-6.437-5.108-10.111-3.203c-3.677,1.908-5.11,6.435-3.203,10.111
			L342.408,308.037z"/>
		<path d="M321.662,343.971l-5.879,0.264c-4.138,0.186-7.342,3.691-7.155,7.829c0.181,4.024,3.499,7.164,7.486,7.164
			c0.113,0,0.229-0.002,0.343-0.007l5.879-0.264c4.138-0.186,7.342-3.691,7.155-7.829
			C329.305,346.989,325.786,343.787,321.662,343.971z"/>
		<path d="M412.096,363.568L407,360.625c-3.586-2.072-8.174-0.843-10.245,2.745s-0.843,8.174,2.745,10.246l5.096,2.942
			c1.181,0.682,2.471,1.006,3.743,1.006c2.592,0,5.112-1.345,6.502-3.751C416.913,370.226,415.684,365.639,412.096,363.568z"/>
		<path d="M404.897,341.48c0.181,4.024,3.499,7.164,7.486,7.164c0.113,0,0.229-0.002,0.343-0.007l5.879-0.264
			c4.138-0.186,7.342-3.691,7.155-7.829c-0.186-4.138-3.682-7.343-7.829-7.156l-5.879,0.264
			C407.915,333.837,404.71,337.342,404.897,341.48z"/>
		<path d="M391.98,384.57c-1.907-3.677-6.437-5.109-10.111-3.203c-3.677,1.908-5.11,6.435-3.203,10.111l2.71,5.223
			c1.335,2.573,3.952,4.047,6.663,4.047c1.164,0,2.345-0.271,3.448-0.844c3.677-1.908,5.11-6.435,3.203-10.111L391.98,384.57z"/>
		<path d="M81.952,101.448c1.182,0.682,2.471,1.006,3.743,1.006c2.592,0,5.113-1.346,6.502-3.752
			c2.071-3.587,0.842-8.174-2.745-10.245l-4.813-2.779c-3.59-2.072-8.175-0.842-10.245,2.746c-2.071,3.587-0.842,8.174,2.745,10.245
			L81.952,101.448z"/>
		<path d="M471.139,326.146c1.182,0.682,2.472,1.007,3.744,1.007c2.592,0,5.112-1.345,6.502-3.75
			c2.071-3.587,0.843-8.174-2.744-10.246l-4.813-2.779c-3.589-2.073-8.175-0.843-10.246,2.744
			c-2.071,3.587-0.843,8.174,2.744,10.246L471.139,326.146z"/>
		<path d="M41.562,158.3c-22.313,38.649-9.023,88.247,29.625,110.561c12.326,7.116,26.25,10.847,40.408,10.847
			c0.759,0,1.519-0.011,2.278-0.032c4.141-0.117,7.402-3.568,7.285-7.709c-0.117-4.14-3.565-7.397-7.709-7.285
			c-12.149,0.346-24.182-2.702-34.763-8.811c-31.486-18.179-42.313-58.584-24.135-90.071s58.583-42.314,90.071-24.135
			c15.253,8.806,26.163,23.025,30.722,40.037c4.558,17.012,2.219,34.781-6.588,50.034c-5.894,10.209-14.422,18.657-24.663,24.431
			c-3.607,2.034-4.884,6.608-2.85,10.216s6.608,4.885,10.217,2.85c12.578-7.091,23.051-17.464,30.286-29.998
			c10.81-18.723,13.682-40.534,8.086-61.416c-5.595-20.882-18.987-38.335-37.71-49.145C113.473,106.36,63.876,119.651,41.562,158.3z
			"/>
		<path d="M407.662,276.211c-18.722-10.809-40.532-13.681-61.416-8.085c-20.882,5.595-38.336,18.987-49.145,37.71
			c-10.81,18.723-13.682,40.534-8.086,61.416s18.988,38.336,37.711,49.145c12.472,7.201,26.312,10.878,40.337,10.878
			c7.029,0,14.107-0.924,21.079-2.792c20.882-5.596,38.336-18.988,49.145-37.71c10.81-18.723,13.682-40.534,8.086-61.416
			S426.384,287.02,407.662,276.211z M424.296,379.272c-8.806,15.253-23.024,26.163-40.036,30.722
			c-17.016,4.558-34.781,2.219-50.034-6.587c-15.253-8.806-26.164-23.025-30.722-40.037c-4.559-17.012-2.22-34.781,6.587-50.034
			c8.806-15.252,23.024-26.163,40.036-30.721c5.682-1.522,11.445-2.275,17.173-2.275c11.425,0,22.702,2.997,32.861,8.862
			c15.253,8.806,26.164,23.025,30.722,40.037C435.442,346.25,433.103,364.019,424.296,379.272z"/>
		<path d="M511.274,307.697c-1.577-5.884-5.352-10.802-10.627-13.848l-48.041-27.737c-3.59-2.072-8.175-0.843-10.245,2.745
			c-2.071,3.587-0.842,8.174,2.745,10.245l48.041,27.737c1.807,1.042,3.098,2.726,3.638,4.74c0.54,2.014,0.263,4.117-0.78,5.923
			l-44.002,76.214c-13.191,22.849-34.662,39.206-60.457,46.06c-25.211,6.698-51.238,3.309-73.286-9.544
			c-10.513-6.128-19.648-14.04-27.154-23.515c-7.737-9.764-16.874-17.725-27.158-23.662l-7.618-4.398
			c-1.727-0.997-2.32-3.213-1.323-4.941l4.398-7.618c5.938-10.285,9.87-21.749,11.688-34.071
			c1.763-11.959,5.72-23.379,11.759-33.941c25.981-45.437,85.089-61.831,131.76-36.547c3.64,1.974,8.193,0.62,10.167-3.021
			c1.973-3.642,0.62-8.194-3.022-10.167c-38.744-20.992-84.949-17.01-118.972,6.471c-7.778-14.117-19.417-26.078-33.409-34.157
			c-13.977-8.071-30.12-12.163-46.238-11.85c1.018-12.63-0.132-25.534-3.51-38.251c-7.886-29.679-26.729-54.395-53.057-69.596
			L90.355,56.967c-10.889-6.285-24.865-2.542-31.154,8.348L47.199,86.103c-2.071,3.587-0.842,8.174,2.745,10.245
			c3.588,2.071,8.174,0.842,10.245-2.745l12.002-20.788c2.151-3.728,6.937-5.01,10.664-2.858l76.214,44.002
			c22.848,13.191,39.206,34.662,46.06,60.457c6.698,25.211,3.31,51.238-9.544,73.287c-6.128,10.512-14.039,19.647-23.515,27.154
			c-9.764,7.735-17.725,16.873-23.662,27.157l-4.398,7.618c-0.997,1.728-3.214,2.321-4.941,1.324l-7.618-4.398
			c-10.285-5.938-21.749-9.871-34.07-11.688c-11.961-1.764-23.38-5.72-33.941-11.759c-22.156-12.668-38.104-33.514-44.909-58.697
			c-6.962-25.766-3.531-52.539,9.66-75.387l14.3-24.767c2.071-3.587,0.842-8.174-2.745-10.245
			c-3.586-2.072-8.175-0.842-10.245,2.745l-14.3,24.767c-15.201,26.328-19.161,57.154-11.15,86.8
			c7.853,29.062,26.3,53.143,51.944,67.806c12.191,6.971,25.379,11.539,39.198,13.577c10.442,1.54,20.119,4.85,28.759,9.838
			l7.618,4.398c2.925,1.688,6.12,2.491,9.277,2.49c6.438,0,12.71-3.339,16.154-9.304l4.398-7.618
			c4.988-8.64,11.713-16.344,19.986-22.9c4.623-3.663,8.903-7.68,12.861-11.99l65.938,38.069
			c-1.754,5.585-3.072,11.308-3.932,17.145c-1.54,10.443-4.85,20.119-9.838,28.759l-4.398,7.618
			c-5.133,8.89-2.076,20.298,6.813,25.432l7.618,4.398c8.64,4.988,16.345,11.712,22.9,19.987
			c8.673,10.947,19.223,20.084,31.357,27.159c16.977,9.896,35.969,14.951,55.348,14.951c9.753,0,19.604-1.281,29.345-3.869
			c29.679-7.886,54.395-26.729,69.596-53.057l44.002-76.213C512.041,319.728,512.85,313.582,511.274,307.697z M261.874,233.656
			c12.38,7.148,22.542,17.952,28.974,30.683c-4.09,3.75-7.922,7.831-11.449,12.234c-4.79-12.419-13.696-22.874-25.248-29.549
			c-11.563-6.67-25.066-9.155-38.199-7.085c2.048-5.228,3.68-10.585,4.896-16.033C235.096,223.122,249.507,226.514,261.874,233.656z
			 M208.744,254.905c2.749,0.519,5.592,0.553,8.37,0.039c10.118-1.884,20.608-0.081,29.537,5.07
			c8.919,5.154,15.729,13.341,19.166,23.033c0.948,2.697,2.379,5.141,4.207,7.262c-1.485,2.596-3.049,5.573-4.314,8.256
			l-61.985-35.787C205.416,260.339,207.237,257.49,208.744,254.905z"/>
	</g>
</g>
<g>
</g>
<g>
</g>
<g>
</g>
<g>
</g>
<g>
</g>
<g>
</g>
<g>
</g>
<g>
</g>
<g>
</g>
<g>
</g>
<g>
</g>
<g>
</g>
<g>
</g>
<g>
</g>
<g>
</g>
</svg>
