<?xml version="1.0" encoding="iso-8859-1"?>
<!-- Generator: Adobe Illustrator 24.0.2, SVG Export Plug-In . SVG Version: 6.00 Build 0)  -->
<svg version="1.1" id="Capa_1" xmlns="http://www.w3.org/2000/svg" xmlns:xlink="http://www.w3.org/1999/xlink" x="0px" y="0px"
	 viewBox="0 0 511.975 511.975" style="enable-background:new 0 0 511.975 511.975;" xml:space="preserve">
<g>
	<g>
		<path style="fill:#6E4189;" d="M403.967,226.298l-34.675,14.67c-7.985,3.378-6.99,14.998,1.453,16.97l45.933,10.729
			L403.967,226.298z"/>
		<path style="fill:#804EA0;" d="M109.149,308.209l45.223-160.251c1.326-4.698,4.006-8.9,7.707-12.083l93.195-80.148
			c6.285-5.405,14.851-7.317,22.838-5.099l129.811,36.059c8.257,2.294,14.748,8.683,17.172,16.903l32.315,109.589l21.822-5.582
			c6.952-1.778,14.176,1.702,17.118,8.247l5.964,13.266c4.556,10.135,1.825,22.063-6.688,29.205l-36.863,30.928
			c-11.806,9.905-29.69,6.777-37.432-6.549l-67.832-116.748l-41.442,36.999l35.789,105.265H109.149z"/>
		<path style="fill:#6E4189;" d="M495.628,258.318l-14.62,12.262c1.535-5.539,1.184-11.599-1.304-17.128l-6.081-13.506
			c-2.99-6.663-10.345-10.215-17.429-8.398h0c-12.398,3.17-25.082-4.04-28.702-16.314l-26.425-89.595
			c-2.468-8.368-9.071-14.87-17.479-17.208L251.4,71.705c-5.147-1.425-10.536-1.174-15.422,0.612l19.295-16.596
			c6.281-5.398,14.85-7.315,22.837-5.097l129.81,36.062c8.258,2.298,14.75,8.679,17.178,16.907l32.31,109.582l21.824-5.579
			c6.954-1.776,14.178,1.696,17.118,8.248l5.96,13.265C506.867,239.243,504.137,251.174,495.628,258.318z"/>
		<path style="fill:#6E4189;" d="M312.056,202.94l35.791,105.267h-31.417L280.639,202.94l47.684-42.566
			c8.092-7.224,20.884-4.393,25.173,5.571v0L312.056,202.94z"/>
		<path style="fill:#804EA0;" d="M347.845,355.971H109.149L14.95,381.254c-5.99,1.608-9.127,8.219-6.537,13.855
			c17.456,37.98,119.795,67.151,221.687,67.151c101.833,0,204.112-29.137,221.657-67.085c2.616-5.657-0.578-12.304-6.61-13.874
			L347.845,355.971z"/>
		<path style="fill:#6E4189;" d="M451.76,395.172c-4.846,10.486-16.155,20.289-32.139,28.998c2.92-3.281,5.208-6.643,6.793-10.084
			c2.619-5.659-0.572-12.302-6.612-13.877l-66.821-17.397c-4.553-1.185-9.233-1.784-13.937-1.782
			c-39.091,0.016-227.046,0.024-227.046,0.024c-13.114,0-24.603-7.054-30.885-17.56l28.035-7.526h238.7l97.3,25.336
			C451.178,382.87,454.368,389.513,451.76,395.172z"/>
		<path style="fill:#554E55;" d="M355.86,345.111v-26.041c0-5.998-4.862-10.861-10.861-10.861H111.994
			c-5.998,0-10.861,4.862-10.861,10.861v26.041c0,5.998,4.862,10.861,10.861,10.861h233.005
			C350.997,355.971,355.86,351.109,355.86,345.111z"/>
		<rect x="168.866" y="308.209" style="fill:#433F43;" width="41.698" height="47.762"/>
		<path style="fill:#433F43;" d="M355.864,319.074v26.038c0,6-4.866,10.857-10.867,10.857h-29.41c5.99,0,10.857-4.857,10.857-10.857
			v-26.038c0-6-4.866-10.867-10.857-10.867h29.41C350.998,308.207,355.864,313.074,355.864,319.074z"/>
		<g>
			<path style="fill:#FCC16D;" d="M253.079,355.971h-45.958c-5.998,0-10.861-4.862-10.861-10.861v-42.396
				c0-5.998,4.862-10.861,10.861-10.861h45.958c5.998,0,10.861,4.862,10.861,10.861v42.396
				C263.94,351.109,259.078,355.971,253.079,355.971z"/>
			<path style="fill:#FCA62F;" d="M263.943,302.719v42.394c0,6-4.866,10.857-10.867,10.857h-26.821
				c5.99,0,10.857-4.857,10.857-10.857v-42.394c0-6-4.866-10.867-10.857-10.867h26.821
				C259.076,291.852,263.943,296.718,263.943,302.719z"/>
		</g>
	</g>
	<g>
		<path d="M142.536,189.901c0.681,0.192,1.367,0.284,2.041,0.284c3.273,0,6.281-2.16,7.214-5.465l9.799-34.725
			c0.928-3.289,2.788-6.206,5.379-8.434l42.964-36.95c6.142,7.066,19.115,18.854,40.318,23.656c0.558,0.126,1.114,0.187,1.663,0.187
			c3.426,0,6.52-2.363,7.308-5.845c0.915-4.04-1.619-8.056-5.659-8.971c-17.344-3.927-27.673-13.466-32.28-18.788l38.879-33.436
			c4.396-3.781,10.356-5.11,15.94-3.559l53.943,14.984c3.987,1.108,8.125-1.228,9.234-5.219c1.108-3.991-1.228-8.125-5.219-9.234
			L280.119,43.4c-10.419-2.894-21.536-0.412-29.735,6.639l-93.194,80.148c-4.833,4.156-8.304,9.597-10.036,15.732l-9.799,34.725
			C136.229,184.632,138.549,188.776,142.536,189.901z"/>
		<path d="M509.154,226.033l-5.964-13.266c-4.448-9.896-15.305-15.124-25.818-12.438l-14.815,3.79l-30.269-102.651
			c-3.177-10.774-11.535-19.002-22.358-22.009l-41.849-11.625c-3.988-1.109-8.125,1.228-9.234,5.219
			c-1.108,3.991,1.228,8.125,5.219,9.234l41.849,11.624c5.802,1.612,10.282,6.022,11.985,11.798l42.365,139.753
			c1.048,3.143,3.974,5.13,7.114,5.13c0.786,0,1.586-0.125,2.373-0.387c3.93-1.31,6.053-5.557,4.744-9.487l-7.424-22.273
			l14.018-3.586c3.429-0.875,6.969,0.829,8.42,4.056l5.963,13.266c3.166,7.041,1.246,15.423-4.668,20.385l-36.863,30.928
			c-3.928,3.295-9.079,4.677-14.127,3.795c-5.05-0.883-9.424-3.933-12-8.365L366.89,174.066l22.825,1.634
			c0.183,0.013,0.363,0.02,0.543,0.02c3.898,0,7.19-3.016,7.473-6.965c0.295-4.132-2.814-7.721-6.945-8.017l-19.112-1.368
			c6.346-4.973,13.291-9.11,20.777-12.31l13.763-5.882c3.809-1.628,5.577-6.035,3.949-9.844c-1.627-3.809-6.037-5.58-9.844-3.949
			l-13.763,5.882c-12.732,5.441-24.153,13.165-33.944,22.956l-41.876,37.844l-27.938-12.939c-3.76-1.741-8.217-0.105-9.958,3.654
			c-1.741,3.758-0.105,8.217,3.654,9.958l18.117,8.391c-9.949,3.044-27.184,6.221-55.847,6.221c-4.142,0-7.5,3.358-7.5,7.5
			s3.358,7.5,7.5,7.5c38.462,0,58.881-5.595,69.177-10.208l29.431,86.566h-66.048c-1.003-9.183-8.8-16.355-18.245-16.355h-45.958
			c-9.446,0-17.242,7.172-18.245,16.355h-16.154c-4.142,0-7.5,3.358-7.5,7.5s3.358,7.5,7.5,7.5h16.039v29.402
			c0,1.149,0.12,2.27,0.322,3.361h-77.089c-1.853,0-3.361-1.508-3.361-3.361V319.07c0-1.853,1.508-3.361,3.361-3.361h25.333
			c4.142,0,7.5-3.358,7.5-7.5s-3.358-7.5-7.5-7.5h-18.269l10.868-38.513c5.221,2.019,14.061,4.519,27.519,5.609
			c0.206,0.017,0.411,0.025,0.614,0.025c3.868,0,7.149-2.972,7.467-6.895c0.334-4.128-2.741-7.747-6.87-8.081
			c-13.636-1.105-21.358-3.769-24.63-5.185l8.151-28.885c1.125-3.987-1.195-8.13-5.181-9.255c-3.986-1.122-8.13,1.195-9.255,5.181
			l-24.979,88.515c-5.45,3.188-9.129,9.088-9.129,15.845v26.041c0,2.439,0.488,4.764,1.356,6.896L13.006,374.01
			c-5.006,1.344-9.14,4.806-11.343,9.499c-2.195,4.676-2.218,10.045-0.064,14.731c11.856,25.796,52.146,42.448,83.857,51.875
			c42.614,12.667,93.982,19.644,144.644,19.644c50.629,0,101.973-6.969,144.572-19.623c31.696-9.415,71.979-26.047,83.893-51.815
			c2.173-4.702,2.147-10.09-0.072-14.784c-2.231-4.719-6.407-8.18-11.458-9.495l-84.999-22.126c0.845-2.107,1.322-4.4,1.322-6.805
			V319.07c0-6.841-3.768-12.809-9.33-15.968l-33.274-97.871l30.877-27.567l29.21,50.274l-14.479,6.124
			c-6.684,2.831-10.601,9.333-9.979,16.565c0.622,7.23,5.591,12.967,12.658,14.615l38.728,9.043l7.074,12.175
			c4.805,8.269,12.963,13.957,22.384,15.605c9.422,1.647,19.027-0.933,26.354-7.08l36.863-30.928
			C511.478,254.804,515.059,239.166,509.154,226.033z M346.577,363.392l70.026,18.229c-34.149,25.844-110.972,44.581-186.503,44.581
			c-76.051,0-152.811-18.804-186.788-44.794l67.122-18.015L346.577,363.392z M271.44,345.111v-29.402h73.56
			c1.853,0,3.36,1.508,3.36,3.361v26.041c0,1.853-1.507,3.361-3.36,3.361h-73.882C271.32,347.38,271.44,346.26,271.44,345.111z
			 M207.122,299.354h45.958c1.853,0,3.36,1.507,3.36,3.36v42.396c0,1.853-1.507,3.361-3.36,3.361h-45.958
			c-1.853,0-3.36-1.508-3.36-3.361v-8.348h22.494c4.142,0,7.5-3.358,7.5-7.5s-3.358-7.5-7.5-7.5h-22.494v-19.049
			C203.761,300.861,205.269,299.354,207.122,299.354z M444.932,389.948c0.185,0.391,0.433,1.181,0.018,2.079
			c-7.353,15.903-34.524,31.842-74.548,43.731c-40.653,12.076-91.791,19.001-140.301,19.001c-48.541,0-99.703-6.934-140.37-19.022
			c-40.035-11.901-67.19-27.852-74.502-43.761c-0.417-0.907-0.17-1.701,0.014-2.093c0.189-0.402,0.655-1.117,1.653-1.385
			l8.946-2.401c32.482,32.029,117.651,55.105,204.258,55.105c86.21,0,171.644-23.072,204.135-54.991l9.023,2.349
			C444.268,388.822,444.74,389.542,444.932,389.948z M372.452,250.635c-0.282-0.065-1.031-0.24-1.122-1.292
			c-0.091-1.055,0.617-1.355,0.88-1.467l16.228-6.864l8.978,15.453L372.452,250.635z"/>
	</g>
</g>
<g>
</g>
<g>
</g>
<g>
</g>
<g>
</g>
<g>
</g>
<g>
</g>
<g>
</g>
<g>
</g>
<g>
</g>
<g>
</g>
<g>
</g>
<g>
</g>
<g>
</g>
<g>
</g>
<g>
</g>
</svg>
