<?xml version="1.0" encoding="iso-8859-1"?>
<!-- Generator: Adobe Illustrator 24.0.2, SVG Export Plug-In . SVG Version: 6.00 Build 0)  -->
<svg version="1.1" id="Capa_1" xmlns="http://www.w3.org/2000/svg" xmlns:xlink="http://www.w3.org/1999/xlink" x="0px" y="0px"
	 viewBox="0 0 511.946 511.946" style="enable-background:new 0 0 511.946 511.946;" xml:space="preserve">
<g>
	<g>
		<g>
			<g>
				<g>
					<g>
						<path style="fill:#433F43;" d="M147.217,344.439l-6.766,21.857c-1.983,6.407,3.633,12.593,10.201,11.236l37.686-7.786
							c6.568-1.357,9.274-9.262,4.914-14.359l-14.874-17.387c-2.087-2.44-5.335-3.551-8.479-2.902l-16.046,3.315
							C150.709,339.064,148.167,341.372,147.217,344.439z"/>
						<path style="fill:#685E67;" d="M239.208,135.288c16.076,77.813-35.152,197.253-76.438,205.783
							c-41.286,8.529-135.651-80.832-151.727-158.646S34.195,48.733,99.584,35.224S223.132,57.475,239.208,135.288z"/>
						<path style="fill:#554E55;" d="M162.769,341.076c-4.237,0.875-9.047,0.718-14.264-0.354c2.384-2.499,4.748-5.268,7.09-8.267
							c-22.821-18.449-51.088-46.309-67.257-80.958c-19.042-40.802-22.593-81.479-10.266-117.648
							c10.495-30.765,32.369-56.617,62.28-73.972c-22.874-12.233-49.995-15.711-78.501-9.828c-0.666,0.135-1.333,0.281-1.999,0.437
							c11.702-7.069,25.06-12.233,39.729-15.263c65.393-13.503,123.551,22.249,139.626,100.063S204.06,332.539,162.769,341.076z"/>
					</g>
				</g>
			</g>
			<g>
				<g>
					<g>
						<path style="fill:#6E4189;" d="M281.825,366.681l-1.537,22.829c-0.45,6.692,6.443,11.414,12.52,8.577l34.87-16.277
							c6.078-2.837,6.884-11.153,1.465-15.105l-18.486-13.482c-2.594-1.892-6.011-2.223-8.92-0.865l-14.847,6.93
							C283.981,360.646,282.04,363.478,281.825,366.681z"/>
						<path style="fill:#915EB2;" d="M323.038,141.943c33.608,71.999,11.343,200.04-26.858,217.872
							c-38.201,17.832-150.649-47.327-184.257-119.326s-8.343-135.425,52.16-163.668S289.43,69.944,323.038,141.943z"/>
						<path style="fill:#804EA0;" d="M323.041,141.939c-33.608-71.994-98.46-93.358-158.96-65.123
							c-2.165,1.01-4.289,2.072-6.361,3.165c24.102-1.668,47.523,4.584,68.026,18.798c5.46,3.785,8.467,10.179,7.849,16.794
							c-0.73,7.819-0.992,15.875-0.771,24.146c1.105,41.357,19.282,90.606,49.872,135.117c0.012,0.017,0.024,0.035,0.036,0.052
							c2.6,3.781,3.717,8.404,3.045,12.942c-4.416,29.816-13.105,56.254-24.411,72.412c14.159,3.405,26.32,3.54,34.815-0.427
							C334.378,341.982,356.648,213.944,323.041,141.939z"/>
					</g>
				</g>
			</g>
			<g>
				<g>
					<g>
						<path style="fill:#F2671F;" d="M396.172,321.634l11.58,19.734c3.394,5.785-0.661,13.09-7.365,13.269l-38.468,1.028
							c-6.705,0.179-11.144-6.899-8.063-12.857l10.509-20.324c1.475-2.852,4.383-4.676,7.593-4.762l16.379-0.438
							C391.545,317.199,394.547,318.866,396.172,321.634z"/>
						<path style="fill:#FC9744;" d="M258.842,139.024c2.122,79.428,79.276,184.01,121.42,182.884
							c42.143-1.126,113.602-109.679,111.48-189.107S438.666,7.931,371.92,9.714S256.72,59.596,258.842,139.024z"/>
						<path style="fill:#FB8627;" d="M380.261,321.909c-8.87,0.24-19.292-4.206-30.245-12.129
							c42.374-17.897,101.135-114.056,99.209-186.185c-1.53-57.252-28.433-96.856-68.34-113.827
							c62.291,2.353,108.829,47.194,110.86,123.03C493.869,212.226,422.406,320.784,380.261,321.909z"/>
					</g>
				</g>
			</g>
		</g>
	</g>
	<path d="M507.213,495.311c-22.827-9.073-47.642-6.626-71.64-4.26c-26.842,2.645-52.206,5.148-73.767-7.716
		c-1.676-1.458-3.07-2.999-4.216-4.61c53.308-17.098,94.744-21.376,111.801-11.336c3.566,2.1,8.165,0.91,10.268-2.66
		c2.101-3.57,0.91-8.167-2.66-10.268c-27.723-16.316-85.89-2.194-123.663,9.876c0.218-12.927,8.799-27.859,18.259-41.758
		l0.248-0.364c7.925-11.648,25.314-37.233,18.952-59.818l9.791-0.262c5.829-0.156,10.998-3.292,13.827-8.39
		c2.83-5.098,2.757-11.143-0.193-16.171l-9.674-16.488c20.129-12.487,40.097-37.094,54.446-60.44
		c26.205-42.639,41.251-90.506,40.247-128.044c-0.954-35.722-11.627-66.67-30.864-89.501c-2.668-3.167-7.4-3.572-10.568-0.903
		c-3.167,2.669-3.571,7.4-0.902,10.568c17.023,20.204,26.478,47.949,27.341,80.236c0.929,34.749-13.289,79.53-38.033,119.79
		c-22.369,36.397-48.953,61.161-66.149,61.62c-20.695,0.533-55.8-32.81-81.753-77.602c-2.077-3.584-6.666-4.807-10.249-2.729
		c-3.584,2.076-4.807,6.665-2.729,10.249c10.804,18.648,24.281,37.297,38.626,52.364c-7.455,29.73-18.974,50.736-30.948,56.325
		c-31.826,14.848-141.075-44.547-174.29-115.702c-20.387-43.675-19.011-85.423,3.875-117.552c2.403-3.374,1.616-8.057-1.757-10.46
		c-3.377-2.404-8.058-1.616-10.46,1.758c-12.676,17.794-19.67,38.197-20.789,60.642c-1.156,23.182,4.072,47.392,15.539,71.958
		c13.031,27.916,38.835,57.216,71.15,81.434c-5.347,4.732-10.469,7.691-15.024,8.632c-16.846,3.483-48.384-14.557-78.476-44.882
		C49.491,255.3,25.421,214.95,18.388,180.908C3.794,110.266,36.261,55.965,101.102,42.569c32.942-6.805,63.407-0.429,87.085,17.948
		c-9.115,2.126-18.242,5.291-27.276,9.508c-8.538,3.985-16.553,8.723-23.821,14.083c-3.334,2.458-4.043,7.153-1.585,10.487
		c1.471,1.994,3.741,3.049,6.042,3.049c1.546,0,3.105-0.477,4.445-1.464c6.47-4.771,13.624-8.998,21.263-12.563
		c31.499-14.703,64.081-15.07,92.089-1.117c-5.822,17.017-8.549,36.089-7.998,56.725c0.583,21.83,6.697,46.955,17.681,72.659
		c1.217,2.848,3.987,4.555,6.9,4.555c0.982,0,1.982-0.194,2.943-0.605c3.809-1.628,5.577-6.035,3.949-9.844
		c-10.247-23.983-15.946-47.208-16.479-67.166c-0.967-36.185,8.979-66.795,28.762-88.522c18.946-20.808,45.579-32.25,77.02-33.09
		c21.979-0.588,42.574,4.364,59.595,14.317c3.576,2.091,8.169,0.888,10.261-2.688c2.091-3.576,0.887-8.169-2.688-10.26
		C419.85,7.213,396.483,1.541,371.72,2.217c-35.111,0.938-66.261,14.428-87.71,37.986c-7.643,8.394-13.99,17.903-18.999,28.375
		c-17.984-8.745-37.503-12.413-57.443-11.003C179.213,29.694,140.342,19.143,98.067,27.88
		C25.438,42.884-12.486,105.601,3.698,183.943c7.598,36.776,33.18,79.941,68.431,115.467c19.3,19.45,44.359,38.855,66.807,46.415
		l-5.649,18.253c-1.725,5.569-0.414,11.472,3.505,15.789c3.146,3.466,7.473,5.357,12.012,5.357c1.114,0,2.241-0.114,3.366-0.347
		l18.57-3.836c1.747,10.414-2.044,24.971-8.392,38.366c-5.537-1.582-11.327-2.198-17.547-1.424
		c-14.063,1.751-24.647,10.125-28.313,22.4c-2.78,9.313-0.798,18.841,4.933,23.709c3.18,2.701,11.999,8.05,25.169-0.604
		c7.527-4.945,15.509-13.968,22.349-24.976c5.663,3.163,11.44,7.321,17.579,11.74c17.862,12.858,38.59,27.778,68.308,27.778
		c6.683,0,13.825-0.762,21.487-2.464c5.546,8.045,15.212,15.629,31.948,15.629c0.449,0,0.905-0.005,1.364-0.017
		c12.11-0.292,24.497-4.403,33.265-7.488c2.249,4.033,5.412,7.9,9.697,11.495c0.289,0.243,0.596,0.463,0.918,0.659
		c25.949,15.811,55.226,12.926,83.541,10.134c23.238-2.291,45.187-4.454,64.629,3.272c0.908,0.361,1.846,0.532,2.768,0.532
		c2.982,0,5.803-1.792,6.972-4.732C512.944,501.202,511.063,496.841,507.213,495.311z M138.354,450.952
		c-2.376,1.561-5.558,3.122-7.198,1.729c-0.653-0.673-1.633-4.254-0.063-8.714c1.258-3.578,4.953-9.778,15.563-11.1
		c1.104-0.137,2.199-0.204,3.289-0.204c1.599,0,3.185,0.143,4.762,0.411C149.599,440.87,143.863,447.331,138.354,450.952z
		 M380.462,329.406c3.439-0.092,6.944-0.741,10.481-1.863l10.339,17.622c0.252,0.429,0.257,0.866,0.016,1.301
		s-0.615,0.662-1.112,0.675l-38.467,1.028c-0.536,0.016-0.884-0.193-1.147-0.615c-0.264-0.421-0.282-0.858-0.054-1.3l9.368-18.118
		c3.289,0.835,6.524,1.282,9.68,1.282C379.864,329.418,380.165,329.414,380.462,329.406z M299.352,366.61
		c3.17-1.48,6.123-3.485,8.882-5.872l16.49,12.027c0.401,0.293,0.581,0.692,0.533,1.187c-0.048,0.495-0.301,0.853-0.752,1.063
		l-34.868,16.276c-0.452,0.211-0.888,0.175-1.298-0.106c-0.41-0.281-0.601-0.675-0.567-1.171l1.373-20.397
		C292.808,369.039,296.237,368.064,299.352,366.61z M149.135,370.187c-0.483,0.099-0.902-0.035-1.237-0.403
		c-0.334-0.368-0.429-0.795-0.281-1.271l6.045-19.529c1.125,0.086,2.242,0.146,3.339,0.146c2.509,0,4.944-0.231,7.287-0.715
		c3.3-0.682,6.635-1.911,9.993-3.668l13.273,15.515c0.323,0.377,0.405,0.808,0.244,1.278c-0.161,0.471-0.489,0.76-0.977,0.861
		L149.135,370.187z M195.281,438.078c-6.428-4.627-12.714-9.152-19.174-12.762c0.212-0.449,0.421-0.898,0.627-1.351
		c4.736-10.355,11.737-29.357,8.716-45.964l4.405-0.91c5.71-1.179,10.245-5.177,12.134-10.693
		c1.888-5.517,0.752-11.455-3.038-15.886l-12.392-14.485c0.735-0.659,1.471-1.344,2.207-2.051c3.155,2.128,6.353,4.211,9.602,6.231
		c23.272,14.47,52.132,27.559,75.72,29.73l-1.283,19.07c-0.391,5.817,2.247,11.257,7.057,14.553
		c2.784,1.907,5.975,2.876,9.193,2.876c2.343,0,4.701-0.513,6.927-1.552l10.496-4.899c-0.354,8.887-7.11,16.458-17.313,26.786
		c-9.249,9.361-20.374,20.635-18.647,34.694C236.839,467.984,215.787,452.839,195.281,438.078z M292.091,470.93
		c5.658-2.045,11.567-4.564,17.766-7.648c3.708-1.845,5.219-6.347,3.374-10.056c-1.846-3.708-6.345-5.219-10.056-3.374
		c-6.25,3.11-12.139,5.591-17.714,7.53c0.601-5.463,5.573-11.162,14.374-20.07c10.999-11.131,24.534-24.849,21.119-44.086
		l9.897-4.62c5.283-2.466,8.773-7.403,9.336-13.207c0.563-5.803-1.913-11.318-6.624-14.754l-15.381-11.218
		c8.496-12.227,14.34-27.918,18.11-40.895c6.525,5.665,13.121,10.417,19.629,13.954l-8.726,16.876
		c-2.678,5.179-2.428,11.22,0.67,16.159c3.018,4.812,8.151,7.646,13.803,7.646c0.15,0,0.302-0.002,0.453-0.006l12.802-0.342
		c8.239,16.077-8.324,40.438-15.48,50.956l-0.246,0.363c-7.209,10.592-22.807,33.512-20.725,55.201
		C320.616,475.595,302.769,480.349,292.091,470.93z"/>
</g>
<g>
</g>
<g>
</g>
<g>
</g>
<g>
</g>
<g>
</g>
<g>
</g>
<g>
</g>
<g>
</g>
<g>
</g>
<g>
</g>
<g>
</g>
<g>
</g>
<g>
</g>
<g>
</g>
<g>
</g>
</svg>
