<?xml version="1.0" encoding="iso-8859-1"?>
<!-- Generator: Adobe Illustrator 24.0.2, SVG Export Plug-In . SVG Version: 6.00 Build 0)  -->
<svg version="1.1" id="Capa_1" xmlns="http://www.w3.org/2000/svg" xmlns:xlink="http://www.w3.org/1999/xlink" x="0px" y="0px"
	 viewBox="0 0 512.015 512.015" style="enable-background:new 0 0 512.015 512.015;" xml:space="preserve">
<g>
	<g>
		<g>
			<g>
				<g>
					<polygon style="fill:#6E4189;" points="447.951,225.251 219.074,417.301 172.763,362.109 247.454,299.436 426.446,199.623 
											"/>
					<path style="fill:#5B3573;" d="M426.447,199.63l-130.449,72.728c8.415-1.405,16.97-1.585,25.388-0.569
						c6.905,0.834,9.529,9.456,4.202,13.926L198.284,392.534l20.79,24.77l228.88-192.05L426.447,199.63z"/>
					<circle style="fill:#804EA0;" cx="368.7" cy="130.803" r="123.293"/>
					<path style="fill:#6E4189;" d="M463.151,51.553c43.767,52.159,36.963,129.924-15.205,173.698
						c-4.345,3.646-8.867,6.936-13.542,9.879c40.864-44.921,43.237-114.256,3.116-162.07
						c-40.128-47.823-108.822-57.526-160.164-25.093c3.718-4.083,7.743-7.965,12.088-11.611
						C341.612-7.419,419.376-0.615,463.151,51.553z"/>
					<circle style="fill:#FC9744;" cx="368.7" cy="130.803" r="89.837"/>
					<path style="fill:#FB8627;" d="M437.52,73.06c31.887,38.002,26.937,94.675-11.073,126.57
						c-4.794,4.023-9.895,7.461-15.194,10.317c25.864-32.733,26.131-80.183-1.734-113.391
						c-27.865-33.208-74.648-41.194-111.367-21.397c3.732-4.723,8.004-9.149,12.798-13.171
						C348.961,30.092,405.625,35.049,437.52,73.06z"/>
				</g>
				<g>
					<circle style="fill:#804EA0;" cx="368.7" cy="130.803" r="54.593"/>
					<path style="fill:#6E4189;" d="M410.525,95.712c19.383,23.099,16.362,57.531-6.737,76.913
						c-4.812,4.038-10.13,7.108-15.688,9.217c11.58-19.4,10.272-44.77-5.073-63.057c-15.345-18.287-40.109-23.989-61.225-15.954
						c3.042-5.108,6.989-9.812,11.801-13.849C356.701,69.599,391.142,72.613,410.525,95.712z"/>
				</g>
				<circle style="fill:#FB8627;" cx="368.7" cy="130.803" r="18.705"/>
			</g>
			<g>
				<path style="fill:#433F43;" d="M191.915,335.842l-82.209,68.981c-4.958,4.16-5.605,11.552-1.444,16.511l3.917,4.669
					c2.08,2.479,1.757,6.175-0.722,8.255l-20.654,17.331c-2.479,2.08-6.175,1.757-8.255-0.722l-3.917-4.669
					c-4.16-4.958-11.552-5.605-16.511-1.444l-37.921,31.819c-4.958,4.16-5.605,11.552-1.444,16.511l2.556,3.046
					c7.308,8.71,19.813,10.918,29.663,5.239l20.436-11.784c6.442-3.715,14.151-4.543,21.236-2.282l22.105,7.056
					c3.829,1.222,8.018,0.397,11.097-2.187l122.378-102.687l-43.799-52.198C204.265,332.328,196.873,331.682,191.915,335.842z"/>
				<path style="fill:#353435;" d="M252.227,389.479l-43.797-52.195c-4.16-4.958-11.552-5.605-16.511-1.444l-26.465,22.207
					c4.955-4.158,12.352-3.511,16.51,1.444l12.391,14.767c5.558,6.623,4.729,16.49-1.854,22.094l-85.607,72.871
					c-3.08,2.58-7.27,3.4-11.1,2.18l-22.1-7.05c-7.09-2.26-14.8-1.44-21.24,2.28l-20.43,11.78c-3.55,2.04-7.43,3.06-11.3,3.12
					c-1.39,3.8-0.76,8.22,2.03,11.55l2.56,3.05c7.3,8.71,19.81,10.91,29.66,5.24l20.44-11.79c6.44-3.71,14.15-4.54,21.23-2.28
					l22.11,7.06c3.83,1.22,8.01,0.39,11.09-2.19L252.227,389.479z"/>
			</g>
		</g>
	</g>
	<g>
		<path d="M452.773,230.996c26.762-22.457,43.178-53.99,46.223-88.793s-7.646-68.709-30.103-95.471
			c-22.456-26.763-53.99-43.178-88.794-46.223c-34.809-3.043-68.709,7.646-95.471,30.102
			c-24.103,20.225-40.109,48.453-45.072,79.484c-4.912,30.714,1.247,62.185,17.343,88.615c2.154,3.537,6.768,4.659,10.307,2.505
			c3.537-2.155,4.659-6.769,2.504-10.307c-29.456-48.369-18.896-112.342,24.562-148.808c23.692-19.881,53.704-29.347,84.521-26.649
			c30.813,2.696,58.729,17.229,78.611,40.922c19.881,23.693,29.346,53.71,26.649,84.522c-2.695,30.812-17.229,58.729-40.922,78.61
			c-43.333,36.362-107.247,35.832-149.862-0.839c-0.374-0.77-0.887-1.488-1.539-2.118c-2.938-2.838-7.599-2.795-10.485,0.065
			c-0.106,0.096-0.212,0.192-0.317,0.292c-1.512,1.438-2.355,3.441-2.329,5.528c0.025,2.086,0.92,4.068,2.468,5.468
			c11.006,9.956,23.562,17.875,37.074,23.53l-74.337,41.454c-0.414,0.231-0.806,0.5-1.169,0.805l-38.689,32.463
			c-0.922-0.22-1.859-0.396-2.821-0.48c-5.129-0.451-10.098,1.124-14.029,4.423l-21.905,18.38
			c-3.173,2.663-3.587,7.394-0.924,10.566c2.662,3.174,7.393,3.586,10.566,0.925l21.905-18.38c0.862-0.724,1.956-1.069,3.079-0.971
			c1.123,0.098,2.14,0.627,2.864,1.491l38.979,46.453l-116.632,97.866c-1.116,0.936-2.61,1.229-3.996,0.788l-22.105-7.056
			c-9.072-2.895-19.01-1.828-27.262,2.93l-20.437,11.784c-6.711,3.869-15.192,2.371-20.171-3.562l-2.557-3.047
			c-0.725-0.863-1.069-1.957-0.971-3.08c0.098-1.123,0.628-2.14,1.491-2.864l37.921-31.819c1.781-1.497,4.448-1.263,5.943,0.519
			l3.918,4.669c4.735,5.645,13.179,6.382,18.822,1.646l20.654-17.331c5.643-4.735,6.381-13.179,1.646-18.821l-3.917-4.669
			c-0.725-0.863-1.069-1.957-0.972-3.079c0.099-1.123,0.628-2.14,1.492-2.865l4.96-4.162l9.039,10.772
			c1.483,1.768,3.608,2.679,5.749,2.679c1.701,0,3.412-0.576,4.817-1.755c3.173-2.662,3.587-7.393,0.924-10.566l-9.039-10.772
			l16.758-14.062c3.173-2.662,3.587-7.393,0.924-10.566c-2.662-3.174-7.393-3.587-10.566-0.924l-33.209,27.866
			c-3.933,3.3-6.345,7.934-6.792,13.048s1.124,10.097,4.424,14.029l2.862,3.412l-18.141,15.223l-2.863-3.413
			c-6.811-8.117-18.957-9.182-27.077-2.369l-37.921,31.819c-3.933,3.3-6.345,7.934-6.792,13.048s1.124,10.096,4.423,14.028
			l2.557,3.047c6.064,7.227,14.808,11.064,23.698,11.064c5.276,0,10.605-1.352,15.456-4.149l20.437-11.784
			c4.605-2.655,10.148-3.25,15.209-1.634l22.105,7.056c6.311,2.015,13.117,0.675,18.198-3.587l194.045-162.823
			c3.173-2.662,3.587-7.393,0.924-10.566c-2.662-3.173-7.393-3.588-10.566-0.924l-65.922,55.315l-10.153-12.1l72.69-60.994
			c3.173-2.662,3.587-7.393,0.924-10.566c-2.662-3.173-7.393-3.587-10.566-0.924l-72.689,60.993l-16.875-20.11l35.25-29.578
			l85.766-47.827c9.206,2.258,18.695,3.532,28.311,3.75c0.986,0.022,1.971,0.033,2.954,0.033c9.399,0,18.706-1.018,27.775-2.992
			l-50.512,42.384c-3.173,2.662-3.587,7.393-0.924,10.566c1.483,1.768,3.608,2.679,5.749,2.679c1.701,0,3.412-0.576,4.817-1.755
			C355.667,312.477,452.56,231.226,452.773,230.996z"/>
		<path d="M368.779,228.098c22.084,0,44.288-7.458,62.489-22.73c19.917-16.712,32.134-40.18,34.399-66.081
			c2.267-25.901-5.689-51.134-22.402-71.051c-34.498-41.116-96.018-46.499-137.133-11.998
			c-41.114,34.5-46.496,96.017-11.997,137.132C313.362,216.284,340.976,228.098,368.779,228.098z M315.775,67.729
			c15.398-12.921,34.176-19.228,52.859-19.228c23.515,0,46.878,9.996,63.141,29.376c29.183,34.779,24.63,86.816-10.149,116
			c-15.398,12.92-34.176,19.228-52.859,19.228c-23.515-0.001-46.878-9.996-63.141-29.376
			C276.443,148.949,280.995,96.912,315.775,67.729z"/>
		<path d="M368.75,192.869c14.087,0,28.251-4.757,39.861-14.5c12.706-10.661,20.499-25.632,21.945-42.154
			c1.445-16.522-3.63-32.619-14.291-45.324c-22.009-26.227-61.248-29.662-87.479-7.653c-26.228,22.007-29.661,61.25-7.653,87.478
			C333.4,185.333,351.015,192.869,368.75,192.869z M338.43,94.728c8.807-7.39,19.546-10.997,30.232-10.997
			c13.449,0,26.812,5.717,36.113,16.802c8.085,9.636,11.935,21.844,10.838,34.375c-1.097,12.531-7.007,23.885-16.644,31.971
			c-19.891,16.691-49.653,14.087-66.346-5.805C315.934,141.182,318.537,111.419,338.43,94.728z"/>
		<path d="M368.722,156.997c5.944,0,11.922-2.008,16.821-6.119c5.362-4.499,8.652-10.817,9.262-17.791
			c0.61-6.973-1.531-13.766-6.031-19.128v0c-4.498-5.362-10.816-8.651-17.79-9.261c-6.968-0.608-13.766,1.532-19.127,6.031
			c-5.362,4.499-8.652,10.817-9.262,17.791c-0.61,6.973,1.531,13.766,6.031,19.128C353.803,153.816,361.237,156.997,368.722,156.997
			z M357.537,129.826c0.261-2.981,1.668-5.683,3.961-7.607c2.036-1.708,4.555-2.622,7.183-2.622c0.33,0,0.663,0.015,0.996,0.043
			c2.981,0.261,5.683,1.667,7.606,3.96c0,0,0,0,0,0c1.924,2.292,2.84,5.197,2.579,8.179s-1.668,5.683-3.961,7.607
			c-4.732,3.972-11.814,3.351-15.785-1.381C358.193,135.713,357.277,132.808,357.537,129.826z"/>
		<path d="M59.646,399.433c1.483,1.758,3.602,2.663,5.735,2.663c1.708,0,3.426-0.581,4.833-1.768
			c3.166-2.671,3.566-7.403,0.895-10.569l-6.816-8.078c-2.67-3.165-7.402-3.565-10.568-0.895c-3.166,2.671-3.566,7.403-0.895,10.569
			L59.646,399.433z"/>
		<path d="M81.106,382.253c0.589,3.69,3.775,6.319,7.397,6.319c0.393,0,0.791-0.031,1.191-0.095c4.09-0.653,6.877-4.498,6.224-8.588
			l-1.685-10.553c-0.652-4.091-4.495-6.878-8.589-6.224c-4.09,0.653-6.877,4.498-6.224,8.588L81.106,382.253z"/>
		<path d="M35.613,418.781l10.121,3.438c0.8,0.271,1.613,0.4,2.413,0.4c3.124,0,6.04-1.967,7.101-5.09
			c1.332-3.922-0.768-8.182-4.689-9.514l-10.121-3.438c-3.925-1.333-8.182,0.768-9.514,4.689
			C29.591,413.19,31.691,417.449,35.613,418.781z"/>
	</g>
</g>
<g>
</g>
<g>
</g>
<g>
</g>
<g>
</g>
<g>
</g>
<g>
</g>
<g>
</g>
<g>
</g>
<g>
</g>
<g>
</g>
<g>
</g>
<g>
</g>
<g>
</g>
<g>
</g>
<g>
</g>
</svg>
