<?xml version="1.0" encoding="iso-8859-1"?>
<!-- Generator: Adobe Illustrator 24.0.2, SVG Export Plug-In . SVG Version: 6.00 Build 0)  -->
<svg version="1.1" id="Capa_1" xmlns="http://www.w3.org/2000/svg" xmlns:xlink="http://www.w3.org/1999/xlink" x="0px" y="0px"
	 viewBox="0 0 512 512" style="enable-background:new 0 0 512 512;" xml:space="preserve">
<g>
	<g>
		<path style="fill:#F17D7E;" d="M31.535,278.5h448.929c13.274,0,24.035,10.761,24.035,24.035v5.851
			c0,52.351-42.439,94.79-94.79,94.79H102.29c-52.351,0-94.79-42.439-94.79-94.79v-5.851C7.5,289.261,18.261,278.5,31.535,278.5z"/>
		<path style="fill:#FB6672;" d="M480.46,278.498H31.54c-0.26,0-0.53,0-0.79,0.02c0.26,1.08,0.53,2.17,0.81,3.25
			c9.72,37.79,27.49,67.04,52.8,86.96c6.25,4.91,13.72,7.51,21.61,7.52c4.36,0,8.61-0.8,12.59-2.33c3.97-1.53,7.66-3.79,10.9-6.7
			c6.69,2.59,13.96,4.03,21.56,4.03c13.05,0,25.13-4.21,34.99-11.31c9.86,7.1,21.94,11.31,35,11.31c13.05,0,25.13-4.21,34.99-11.31
			c9.86,7.1,21.94,11.31,34.99,11.31c13.06,0,25.14-4.21,35-11.31c9.86,7.1,21.94,11.31,34.99,11.31c7.61,0,14.88-1.44,21.58-4.03
			c6.22,5.6,14.45,9.03,23.47,9.03c7.89,0,15.36-2.6,21.61-7.52c13.694-10.778,25.172-24.296,34.364-40.418
			c3.39-5.946,12.518-2.246,10.838,4.389c-0.021,0.082-0.042,0.162-0.063,0.24c-10.817,40.449-47.72,70.238-91.579,70.238h28.51
			c52.351,0,94.79-42.439,94.79-94.79v-5.85C504.5,289.261,493.737,278.498,480.46,278.498z"/>
		<g>
			<path style="fill:#F2EFF2;" d="M335.989,268.5h49.989c5.523,0,10,4.477,10,10v32.749c0,19.327-15.667,34.994-34.994,34.994h0
				c-19.327,0-34.994-15.667-34.994-34.994V278.5C325.989,272.977,330.466,268.5,335.989,268.5z"/>
			<path style="fill:#E1DDE1;" d="M395.98,278.498v32.75c0,19.33-15.67,35-35,35c-6.37,0-12.34-1.7-17.49-4.68
				c10.46-6.06,17.49-17.37,17.49-30.32v-32.75c0-5.52-4.47-10-10-10h35C391.5,268.498,395.98,272.978,395.98,278.498z"/>
			<path style="fill:#F2EFF2;" d="M266,268.5h49.989c5.523,0,10,4.477,10,10v32.749c0,19.327-15.667,34.994-34.994,34.994h0
				c-19.327,0-34.994-15.667-34.994-34.994V278.5C256,272.977,260.477,268.5,266,268.5z"/>
			<path style="fill:#E1DDE1;" d="M325.99,278.498v32.75c0,19.33-15.67,35-35,35c-6.37,0-12.34-1.7-17.49-4.68
				c10.46-6.06,17.49-17.37,17.49-30.32v-32.75c0-5.52-4.47-10-10-10h35C321.51,268.498,325.99,272.978,325.99,278.498z"/>
			<path style="fill:#F2EFF2;" d="M196.011,268.5H246c5.523,0,10,4.477,10,10v32.749c0,19.327-15.667,34.994-34.994,34.994h0
				c-19.327,0-34.994-15.667-34.994-34.994V278.5C186.011,272.977,190.489,268.5,196.011,268.5z"/>
			<path style="fill:#E1DDE1;" d="M256,278.498v32.75c0,19.33-15.67,35-34.99,35c-6.38,0-12.35-1.71-17.5-4.69
				c10.46-6.05,17.5-17.36,17.5-30.31v-32.75c0-5.52-4.48-10-10-10H246C251.52,268.498,256,272.978,256,278.498z"/>
			<path style="fill:#F2EFF2;" d="M126.023,268.5h49.989c5.523,0,10,4.477,10,10v32.749c0,19.327-15.667,34.994-34.994,34.994h0
				c-19.327,0-34.994-15.667-34.994-34.994V278.5C116.023,272.977,120.5,268.5,126.023,268.5z"/>
			<path style="fill:#E1DDE1;" d="M186.01,278.498v32.75c0,19.33-15.67,35-34.99,35c-6.37,0-12.35-1.71-17.5-4.69
				c10.46-6.05,17.5-17.36,17.5-30.31v-32.75c0-5.52-4.48-10-10-10h34.99C181.53,268.498,186.01,272.978,186.01,278.498z"/>
		</g>
	</g>
	<g>
		<path style="fill:#F59697;" d="M480.465,258.5H31.535C18.261,258.5,7.5,247.739,7.5,234.465v-30.851
			c0-52.351,42.439-94.79,94.79-94.79H409.71c52.351,0,94.79,42.439,94.79,94.79v30.851C504.5,247.739,493.739,258.5,480.465,258.5z
			"/>
		<path style="fill:#F17D7E;" d="M409.71,108.828H381.2c19.98,0,38.514,6.183,53.796,16.74c6.803,4.699,3.458,15.232-4.81,15.191
			c-0.099,0-0.197-0.001-0.296-0.001c-16.01,0-30.54,6.43-41.17,16.82c-8.3-4.35-17.73-6.82-27.74-6.82
			c-13.05,0-25.13,4.2-34.99,11.31c-9.86-7.11-21.94-11.31-35-11.31c-13.05,0-25.13,4.2-34.99,11.31
			c-9.86-7.11-21.94-11.31-34.99-11.31c-13.06,0-25.14,4.2-35,11.31c-9.86-7.11-21.94-11.31-34.99-11.31
			c-10.01,0-19.44,2.47-27.74,6.82c-10.63-10.39-25.16-16.82-41.17-16.82c-15.37,0-29.93,5.89-40.98,16.58
			c-11.06,10.71-17.42,25.07-17.9,40.45c-0.48,15.68-0.1,37.26,3.48,60.22c1.56,0.32,3.18,0.49,4.83,0.49h420.41h28.51
			c13.277,0,24.04-10.763,24.04-24.04v-30.84C504.5,151.266,462.061,108.828,409.71,108.828z"/>
		<g>
			<g>
				<path style="fill:#F2EFF2;" d="M48.222,198.57c-1.305,41.846,4.227,113.239,51.594,150.508
					c6.568,5.168,16.206,0.507,16.206-7.851V199.665c0-18.727-15.181-33.908-33.908-33.908h0
					C63.812,165.757,48.793,180.276,48.222,198.57z"/>
				<path style="fill:#E1DDE1;" d="M116.02,199.668v141.56c0,8.36-9.64,13.02-16.2,7.85c-7.19-5.66-13.42-12.1-18.79-19.11v-130.3
					c0-12.33-6.57-23.11-16.41-29.05c5.11-3.09,11.1-4.86,17.49-4.86C100.84,165.758,116.02,180.938,116.02,199.668z"/>
			</g>
			<g>
				<path style="fill:#F2EFF2;" d="M463.778,198.57c1.305,41.846-4.227,113.239-51.594,150.508
					c-6.568,5.168-16.206,0.507-16.206-7.851V199.665c0-18.727,15.181-33.908,33.908-33.908h0
					C448.188,165.757,463.207,180.276,463.778,198.57z"/>
				<path style="fill:#E1DDE1;" d="M412.18,349.078c-6.56,5.17-16.2,0.51-16.2-7.85v-11.25c30.1-39.16,33.91-95.91,32.8-131.41
					c-0.28-9.15-4.18-17.35-10.3-23.26c-1.84-1.78-3.88-3.36-6.09-4.69c5.1-3.08,11.09-4.86,17.5-4.86c9.15,0,17.48,3.63,23.59,9.55
					c6.12,5.91,10.02,14.11,10.3,23.26C465.08,240.418,459.55,311.808,412.18,349.078z"/>
			</g>
		</g>
		<g>
			<path style="fill:#F2EFF2;" d="M176.011,268.5h-49.989c-5.523,0-10-4.477-10-10v-47.749c0-19.327,15.667-34.994,34.994-34.994h0
				c19.327,0,34.994,15.667,34.994,34.994V258.5C186.011,264.023,181.534,268.5,176.011,268.5z"/>
			<path style="fill:#E1DDE1;" d="M186.011,210.748v47.75c0,5.53-4.47,10-10,10h-31.89c5.52,0,10-4.47,10-10v-47.75
				c0-9.66-3.92-18.41-10.25-24.74c-2.57-2.57-5.53-4.74-8.79-6.41c4.78-2.46,10.2-3.84,15.94-3.84c9.66,0,18.41,3.92,24.74,10.25
				C182.101,192.338,186.011,201.088,186.011,210.748z"/>
			<path style="fill:#F2EFF2;" d="M246,268.5h-49.989c-5.523,0-10-4.477-10-10v-47.749c0-19.327,15.667-34.994,34.994-34.994h0
				c19.327,0,34.994,15.667,34.994,34.994V258.5C256,264.023,251.523,268.5,246,268.5z"/>
			<path style="fill:#E1DDE1;" d="M256,210.748v47.75c0,5.53-4.48,10-10,10h-31.89c5.52,0,10-4.47,10-10v-47.75
				c0-9.66-3.92-18.41-10.25-24.74c-2.57-2.57-5.54-4.74-8.8-6.41c4.78-2.45,10.2-3.84,15.95-3.84c9.66,0,18.41,3.92,24.74,10.25
				C252.08,192.338,256,201.088,256,210.748z"/>
			<path style="fill:#F2EFF2;" d="M315.989,268.5H266c-5.523,0-10-4.477-10-10v-47.749c0-19.327,15.667-34.994,34.994-34.994h0
				c19.327,0,34.994,15.667,34.994,34.994V258.5C325.989,264.023,321.511,268.5,315.989,268.5z"/>
			<path style="fill:#E1DDE1;" d="M325.99,210.748v47.75c0,5.53-4.48,10-10,10H284.1c5.52,0,10-4.47,10-10v-47.75
				c0-9.66-3.92-18.41-10.25-24.74c-2.57-2.57-5.53-4.74-8.8-6.41c4.78-2.46,10.2-3.84,15.94-3.84c9.67,0,18.41,3.92,24.75,10.25
				C322.07,192.338,325.99,201.088,325.99,210.748z"/>
			<path style="fill:#F2EFF2;" d="M385.977,268.5h-49.989c-5.523,0-10-4.477-10-10v-47.749c0-19.327,15.667-34.994,34.994-34.994h0
				c19.327,0,34.994,15.667,34.994,34.994V258.5C395.977,264.023,391.5,268.5,385.977,268.5z"/>
			<g>
				<g>
					<path style="fill:#E1DDE1;" d="M395.98,210.748v47.75c0,5.53-4.48,10-10,10h-31.9c5.53,0,10-4.47,10-10v-47.75
						c0-9.66-3.92-18.41-10.25-24.74c-2.57-2.57-5.53-4.74-8.79-6.41c4.78-2.46,10.2-3.84,15.94-3.84c9.66,0,18.42,3.92,24.75,10.25
						C392.06,192.338,395.98,201.088,395.98,210.748z"/>
				</g>
			</g>
		</g>
		<path d="M480.465,266C497.854,266,512,251.853,512,234.464v-30.851c0-56.403-45.887-102.29-102.29-102.29h-58.195
			c-4.142,0-7.5,3.357-7.5,7.5s3.358,7.5,7.5,7.5h58.195c48.132,0,87.29,39.158,87.29,87.29v30.851
			c0,9.117-7.417,16.535-16.535,16.535h-11.867c2.77-19.709,3.127-38.243,2.677-52.664c-0.702-22.474-18.882-40.078-41.389-40.078
			c-16.573,0-30.895,9.791-37.507,23.888c-7.777-8.528-18.972-13.888-31.395-13.888c-14.501,0-27.322,7.306-34.994,18.425
			c-7.672-11.119-20.494-18.425-34.995-18.425c-14.501,0-27.322,7.306-34.994,18.425c-7.672-11.119-20.493-18.425-34.994-18.425
			c-14.501,0-27.323,7.306-34.995,18.425c-7.672-11.119-20.493-18.425-34.994-18.425c-12.424,0-23.618,5.36-31.395,13.888
			c-6.612-14.098-20.934-23.888-37.508-23.888c-22.508,0-40.688,17.604-41.388,40.079c-0.453,14.539-0.095,33.06,2.635,52.663
			H31.535C22.417,251,15,243.582,15,234.464v-30.851c0-48.132,39.158-87.29,87.29-87.29H316.12c4.142,0,7.5-3.357,7.5-7.5
			s-3.358-7.5-7.5-7.5H102.29C45.887,101.324,0,147.21,0,203.614v30.851C0,251.853,14.146,266,31.535,266h14.369
			c0.336,1.665,0.696,3.332,1.071,5h-15.44C14.146,271,0,285.147,0,302.536v5.851c0,56.403,45.887,102.29,102.29,102.29H409.71
			c56.403,0,102.29-45.887,102.29-102.29v-5.851C512,285.147,497.854,271,480.465,271h-15.506c0.377-1.669,0.736-3.336,1.074-5
			H480.465z M403.477,199.666c0-14.562,11.847-26.408,26.409-26.408c14.354,0,25.949,11.222,26.396,25.546
			c1.206,38.652-3.522,108.806-48.735,144.38c-1.082,0.852-2.133,0.547-2.664,0.289c-0.525-0.255-1.405-0.885-1.405-2.245V199.666z
			 M388.477,311.249c0,15.16-12.334,27.494-27.494,27.494s-27.494-12.334-27.494-27.494V278.5c0-1.379,1.122-2.5,2.5-2.5h49.988
			c1.378,0,2.5,1.121,2.5,2.5V311.249z M360.983,183.257c15.16,0,27.494,12.334,27.494,27.494V258.5c0,1.379-1.122,2.5-2.5,2.5
			h-49.988c-1.378,0-2.5-1.121-2.5-2.5v-47.748C333.489,195.591,345.823,183.257,360.983,183.257z M290.994,183.257
			c15.161,0,27.495,12.334,27.495,27.494V258.5c0,1.379-1.122,2.5-2.5,2.5H266c-1.378,0-2.5-1.121-2.5-2.5v-47.748
			C263.5,195.591,275.834,183.257,290.994,183.257z M123.523,278.5c0-1.379,1.122-2.5,2.5-2.5h49.988c1.378,0,2.5,1.121,2.5,2.5
			v32.749c0,15.16-12.334,27.494-27.494,27.494s-27.494-12.334-27.494-27.494V278.5z M193.511,278.5c0-1.379,1.122-2.5,2.5-2.5H246
			c1.378,0,2.5,1.121,2.5,2.5v32.749c0,15.16-12.334,27.494-27.494,27.494c-15.161,0-27.495-12.334-27.495-27.494V278.5z
			 M221.006,183.257c15.16,0,27.494,12.334,27.494,27.494V258.5c0,1.379-1.122,2.5-2.5,2.5h-49.989c-1.378,0-2.5-1.121-2.5-2.5
			v-47.748C193.511,195.591,205.845,183.257,221.006,183.257z M151.017,183.257c15.16,0,27.494,12.334,27.494,27.494V258.5
			c0,1.379-1.122,2.5-2.5,2.5h-49.988c-1.378,0-2.5-1.121-2.5-2.5v-47.748C123.523,195.591,135.857,183.257,151.017,183.257z
			 M480.465,286c9.118,0,16.535,7.418,16.535,16.536v5.851c0,48.132-39.158,87.29-87.29,87.29H102.29
			c-48.132,0-87.29-39.158-87.29-87.29v-5.851C15,293.417,22.417,286,31.535,286h19.393c0.917,3.009,1.904,6.004,2.977,8.975
			c1.103,3.055,3.983,4.954,7.054,4.954c0.846,0,1.706-0.145,2.547-0.448c3.896-1.407,5.913-5.706,4.506-9.602
			c-11.514-31.877-13.04-67.121-12.292-91.075c0.446-14.324,12.041-25.546,26.396-25.546c14.562,0,26.408,11.847,26.408,26.408
			v141.562c0,1.359-0.88,1.99-1.405,2.245c-0.53,0.258-1.582,0.563-2.664-0.289c-8.097-6.371-15.318-14.213-21.463-23.308
			c-2.318-3.433-6.98-4.334-10.413-2.017c-3.432,2.319-4.335,6.981-2.016,10.413c7.015,10.384,15.297,19.367,24.617,26.7
			c3.171,2.495,6.97,3.773,10.81,3.773c2.602,0,5.224-0.587,7.682-1.781c5.391-2.618,8.963-7.661,9.703-13.482
			c7.437,6.387,17.094,10.26,27.643,10.26c14.501,0,27.322-7.306,34.994-18.425c7.672,11.119,20.494,18.425,34.995,18.425
			c14.51,0,27.339-7.315,35.009-18.445c3.492,5.084,8.079,9.442,13.553,12.645c1.191,0.696,2.494,1.027,3.78,1.027
			c2.577,0,5.085-1.329,6.48-3.714c2.092-3.575,0.889-8.169-2.687-10.261c-8.415-4.923-13.642-14.021-13.642-23.746V278.5
			c0-1.379,1.122-2.5,2.5-2.5h49.989c1.378,0,2.5,1.121,2.5,2.5v32.749c0,9.683-5.192,18.761-13.55,23.693
			c-3.567,2.105-4.753,6.703-2.647,10.271c1.399,2.371,3.899,3.689,6.466,3.689c1.296,0,2.608-0.336,3.805-1.042
			c5.411-3.193,9.948-7.523,13.41-12.566c7.67,11.133,20.5,18.448,35.011,18.448c10.549,0,20.206-3.873,27.643-10.26
			c0.74,5.822,4.313,10.865,9.704,13.483c2.458,1.193,5.079,1.781,7.681,1.781c3.841-0.001,7.64-1.279,10.811-3.774
			c22.685-17.849,36.24-42.966,44.173-68.973H480.465z"/>
	</g>
</g>
<g>
</g>
<g>
</g>
<g>
</g>
<g>
</g>
<g>
</g>
<g>
</g>
<g>
</g>
<g>
</g>
<g>
</g>
<g>
</g>
<g>
</g>
<g>
</g>
<g>
</g>
<g>
</g>
<g>
</g>
</svg>
