<?xml version="1.0" encoding="iso-8859-1"?>
<!-- Generator: Adobe Illustrator 24.0.2, SVG Export Plug-In . SVG Version: 6.00 Build 0)  -->
<svg version="1.1" id="Capa_1" xmlns="http://www.w3.org/2000/svg" xmlns:xlink="http://www.w3.org/1999/xlink" x="0px" y="0px"
	 viewBox="0 0 511.997 511.997" style="enable-background:new 0 0 511.997 511.997;" xml:space="preserve">
<g>
	<g>
		<path style="fill:#E22334;" d="M334.603,196.982L49.805,481.78c-5.409,5.409-14.179,5.409-19.588,0h0
			c-5.409-5.409-5.409-14.179,0-19.588l284.798-284.798L334.603,196.982z"/>
		<path style="fill:#A62D2F;" d="M334.6,196.987l-23.89,23.89c-8.65-3.96-15.63-10.94-19.59-19.59l23.89-23.89L334.6,196.987z"/>
	</g>
	<circle style="fill:#FCC16D;" cx="38.532" cy="473.465" r="31.032"/>
	<path style="fill:#FCA62F;" d="M69.56,473.467c0,17.14-13.89,31.03-31.03,31.03c-13.46,0-24.91-8.56-29.21-20.54
		c3.83,2.84,8.57,4.52,13.7,4.52c12.71,0,23.02-10.31,23.02-23.02c0-10.22-6.66-18.88-15.87-21.88c2.66-0.74,5.46-1.14,8.36-1.14
		C55.67,442.437,69.56,456.327,69.56,473.467z"/>
	<path style="fill:#E22334;" d="M481.242,171.662l-19.588-19.588L423.9,189.829c-15.286,15.286-40.159,15.286-55.445,0l-13.35-13.35
		l91.291-91.291L426.809,65.6l-91.291,91.291l-13.35-13.35c-15.286-15.286-15.286-40.159,0-55.445l37.754-37.755l-19.588-19.588
		L302.58,68.509c-26.087,26.087-26.087,68.534,0,94.621l46.287,46.287c26.087,26.087,68.534,26.087,94.621,0L481.242,171.662z"/>
	<g>
		<path style="fill:#A62D2F;" d="M340.33,30.757l19.59,19.59l-20.67,20.67c-3.25-2.91-6.61-6.09-10.06-9.53
			c-3.45-3.45-6.63-6.8-9.53-10.06L340.33,30.757z"/>
		<path style="fill:#A62D2F;" d="M446.4,85.187l-20.67,20.67c-3.26-2.9-6.62-6.08-10.06-9.53c-3.45-3.44-6.64-6.81-9.53-10.06
			l20.67-20.67L446.4,85.187z"/>
		<path style="fill:#A62D2F;" d="M481.24,171.667l-20.67,20.67c-3.26-2.9-6.61-6.08-10.06-9.53c-3.44-3.45-6.62-6.81-9.53-10.06
			l20.67-20.67L481.24,171.667z"/>
	</g>
	<g>
		<path style="fill:#20B69F;" d="M312.538,184.842v-24.268c0-8.073,6.544-14.617,14.617-14.617h24.268
			c8.073,0,14.617,6.544,14.617,14.617v24.268c0,8.073-6.544,14.617-14.617,14.617h-24.268
			C319.082,199.459,312.538,192.915,312.538,184.842z"/>
		<path style="fill:#17998C;" d="M366.04,160.577v24.27c0,8.07-6.55,14.61-14.62,14.61h-24.27c-0.19,0-0.38,0-0.57-0.02
			c7.8-0.3,14.04-6.72,14.04-14.59v-24.27c0-7.87-6.24-14.3-14.04-14.6c0.19-0.02,0.38-0.02,0.57-0.02h24.27
			C359.49,145.957,366.04,152.507,366.04,160.577z"/>
	</g>
	<g>
		<path style="fill:#FB4A59;" d="M462.649,93.753l6.946-45.614c0.511-3.358-2.38-6.249-5.737-5.737l-45.614,6.946
			c-3.676,0.56-5.499,4.769-3.393,7.833c3.232,4.703,8.889,11.869,18.492,21.473c9.604,9.604,16.77,15.26,21.473,18.492
			C457.88,99.252,462.089,97.429,462.649,93.753z"/>
		<g>
			<path style="fill:#F82F40;" d="M469.6,48.137l-6.95,45.62c-0.56,3.67-4.77,5.5-7.83,3.39c-3.15-2.16-7.38-5.4-12.72-10.17
				l5.91-38.84c0.18-1.18-0.06-2.3-0.6-3.23l16.45-2.51C467.22,41.887,470.11,44.777,469.6,48.137z"/>
		</g>
		<g>
			<path style="fill:#FB4A59;" d="M497.495,180.227l6.946-45.614c0.511-3.358-2.38-6.249-5.737-5.737l-45.614,6.946
				c-3.676,0.56-5.499,4.769-3.393,7.833c3.232,4.703,8.889,11.869,18.492,21.473c9.604,9.604,16.77,15.26,21.473,18.492
				C492.726,185.726,496.935,183.904,497.495,180.227z"/>
			<g>
				<g>
					<g>
						<path style="fill:#F82F40;" d="M504.44,134.617l-6.95,45.61c-0.55,3.68-4.76,5.5-7.83,3.39c-3.14-2.16-7.38-5.4-12.71-10.18
							l5.91-38.82c0.18-1.18-0.06-2.31-0.6-3.24l16.44-2.5C502.06,128.367,504.95,131.257,504.44,134.617z"/>
					</g>
				</g>
			</g>
			<g>
				<path style="fill:#FB4A59;" d="M376.175,58.908l6.946-45.614c0.511-3.358-2.38-6.249-5.737-5.737l-45.614,6.946
					c-3.676,0.56-5.499,4.769-3.393,7.833c3.232,4.703,8.889,11.869,18.492,21.473s16.77,15.26,21.473,18.492
					C371.406,64.406,375.615,62.584,376.175,58.908z"/>
			</g>
			<g>
				<path style="fill:#F82F40;" d="M383.12,13.297l-6.95,45.61c-0.55,3.68-4.76,5.5-7.83,3.39c-3.14-2.16-7.38-5.4-12.71-10.18
					l5.91-38.82c0.18-1.18-0.06-2.31-0.6-3.24l16.44-2.5C380.74,7.047,383.63,9.937,383.12,13.297z"/>
			</g>
		</g>
	</g>
	<path d="M373.539,184.308v-15.653l70.339-70.339c2.313,1.855,4.551,3.542,6.691,5.012c2.134,1.466,4.6,2.214,7.088,2.214
		c1.688,0,3.385-0.344,4.996-1.042c3.985-1.726,6.756-5.32,7.41-9.615c0-0.001,0-0.001,0-0.002l6.947-45.615
		c0.597-3.925-0.723-7.944-3.53-10.751c-2.807-2.808-6.828-4.128-10.752-3.529l-45.616,6.946c-4.295,0.654-7.89,3.425-9.615,7.41
		c-1.727,3.986-1.288,8.503,1.172,12.084c1.47,2.14,3.157,4.378,5.012,6.691l-21.735,21.735c-2.929,2.93-2.929,7.678,0,10.607
		c1.465,1.464,3.385,2.196,5.304,2.196s3.839-0.732,5.304-2.196l21.057-21.057c1.422,1.496,2.885,3.008,4.429,4.552
		c1.544,1.545,3.057,3.008,4.553,4.43l-61.703,61.703c-2.053-3.797-5.185-6.929-8.982-8.982l15.616-15.616
		c2.929-2.93,2.929-7.678,0-10.607c-2.93-2.928-7.678-2.928-10.607,0l-23.574,23.574h-15.653
		c-12.364-12.363-12.579-32.694-0.216-45.058l29.931-29.931c2.312,1.855,4.551,3.542,6.691,5.013c2.134,1.466,4.6,2.214,7.088,2.214
		c1.688,0,3.387-0.345,4.998-1.042c3.985-1.728,6.755-5.322,7.408-9.617l6.946-45.614c0.599-3.924-0.72-7.943-3.527-10.751
		c-2.807-2.809-6.828-4.126-10.753-3.53L330.64,7.088c-4.296,0.654-7.892,3.426-9.617,7.411c-1.727,3.986-1.287,8.504,1.174,12.084
		c1.47,2.139,3.157,4.378,5.011,6.689l-29.931,29.931c-14.034,14.035-21.764,32.722-21.764,52.617
		c0,19.896,7.729,38.581,21.764,52.61l7.762,7.762v0.569L180.887,300.913c-2.929,2.93-2.929,7.678,0,10.607
		c1.464,1.464,3.384,2.196,5.303,2.196s3.839-0.732,5.303-2.196l116.193-116.192c2.052,3.795,5.182,6.926,8.976,8.979
		L69.875,451.095c-2.478-3.462-5.512-6.496-8.974-8.974L166.464,336.55c2.929-2.929,2.928-7.678,0-10.606
		c-2.93-2.928-7.678-2.929-10.607,0.001L46.122,435.688c-2.455-0.493-4.993-0.755-7.59-0.755C17.285,434.933,0,452.219,0,473.466
		c0,21.246,17.285,38.531,38.532,38.531c21.246,0,38.531-17.285,38.531-38.531c0-2.598-0.262-5.135-0.755-7.59l258.917-258.917
		h0.579l7.762,7.762c9.089,9.088,20.432,15.682,32.803,19.069c0.663,0.182,1.329,0.269,1.985,0.269c3.295,0,6.316-2.189,7.229-5.521
		c1.095-3.995-1.258-8.12-5.253-9.214c-8.814-2.414-16.97-6.876-23.78-12.971c4.536-1.081,8.532-3.562,11.509-6.961
		c8.289,6.258,18.2,9.398,28.116,9.398c11.962,0,23.923-4.553,33.029-13.658l29.252-29.253c1.422,1.496,2.885,3.009,4.429,4.554
		c1.544,1.544,3.057,3.007,4.553,4.429l-29.252,29.253c-7.299,7.3-16.43,12.585-26.405,15.284c-3.998,1.081-6.362,5.2-5.28,9.198
		c0.904,3.343,3.93,5.543,7.234,5.543c0.648,0,1.308-0.085,1.964-0.263c12.501-3.382,23.945-10.006,33.095-19.156l29.93-29.93
		c2.312,1.854,4.55,3.541,6.69,5.011c2.134,1.467,4.601,2.216,7.089,2.216c1.688,0,3.385-0.344,4.995-1.042
		c3.985-1.726,6.757-5.321,7.411-9.617c0,0,0,0,0-0.001l6.947-45.615c0.597-3.926-0.724-7.945-3.531-10.752
		s-6.827-4.128-10.75-3.527l-45.615,6.945c-4.295,0.654-7.89,3.424-9.617,7.409c-1.727,3.986-1.289,8.505,1.173,12.087
		c1.47,2.139,3.157,4.377,5.011,6.689l-29.93,29.931C406.234,196.885,385.903,196.673,373.539,184.308z M461.677,50.32
		l-5.834,38.314c-4.125-3.122-9.883-7.971-17.196-15.285c-7.313-7.313-12.162-13.07-15.284-17.195L461.677,50.32z M38.532,496.997
		C25.556,496.997,15,486.441,15,473.466s10.556-23.532,23.532-23.532c12.975,0,23.531,10.557,23.531,23.532
		S51.507,496.997,38.532,496.997z M375.202,15.474l-5.834,38.313c-4.126-3.122-9.883-7.971-17.195-15.284
		c-7.313-7.312-12.16-13.068-15.283-17.195L375.202,15.474z M290.513,115.82c0-15.889,6.169-30.809,17.371-42.01l29.252-29.252
		c1.422,1.496,2.885,3.009,4.429,4.553c1.545,1.544,3.058,3.008,4.554,4.429l-29.253,29.252
		c-16.655,16.655-18.068,42.857-4.261,61.146c-3.4,2.977-5.881,6.975-6.961,11.512C295.866,144.561,290.513,130.613,290.513,115.82z
		 M358.539,184.843c0,3.924-3.192,7.116-7.117,7.116h-24.268c-3.924,0-7.116-3.192-7.116-7.116v-24.268
		c0-3.925,3.192-7.117,7.116-7.117h24.268c3.925,0,7.117,3.192,7.117,7.117V184.843z M490.688,175.107
		c-4.127-3.123-9.884-7.971-17.195-15.283c-7.313-7.313-12.162-13.07-15.284-17.195l38.313-5.834L490.688,175.107z"/>
</g>
<g>
</g>
<g>
</g>
<g>
</g>
<g>
</g>
<g>
</g>
<g>
</g>
<g>
</g>
<g>
</g>
<g>
</g>
<g>
</g>
<g>
</g>
<g>
</g>
<g>
</g>
<g>
</g>
<g>
</g>
</svg>
