<?xml version="1.0" encoding="iso-8859-1"?>
<!-- Generator: Adobe Illustrator 24.0.2, SVG Export Plug-In . SVG Version: 6.00 Build 0)  -->
<svg version="1.1" id="Capa_1" xmlns="http://www.w3.org/2000/svg" xmlns:xlink="http://www.w3.org/1999/xlink" x="0px" y="0px"
	 viewBox="0 0 511.951 511.951" style="enable-background:new 0 0 511.951 511.951;" xml:space="preserve">
<g>
	<g>
		<path style="fill:#FC9744;" d="M484.263,54.226L378.598,180.153l-50.397-42.288L433.866,11.938
			c4.419-5.266,12.269-5.953,17.535-1.534l31.328,26.287C487.995,41.11,488.682,48.96,484.263,54.226z"/>
		<path style="fill:#F98824;" d="M484.26,54.226L378.595,180.156l-21.04-17.657L464.534,35.007c2.801-3.34,3.555-7.714,2.37-11.592
			l15.826,13.273C487.999,41.104,488.677,48.958,484.26,54.226z"/>
		<g>
			<path style="fill:#E1DDE1;" d="M388.04,222.77L176.148,475.294c-29.015,34.578-80.567,39.089-115.146,10.074l-32.161-26.986
				c-4.815-4.04-5.443-11.219-1.403-16.034l257.113-306.415L388.04,222.77z"/>
			
				<rect x="311.395" y="123.419" transform="matrix(0.6428 -0.766 0.766 0.6428 -29.647 318.3474)" style="fill:#CBC5CB;" width="30.316" height="135.093"/>
			<path style="fill:#F2EFF2;" d="M388.04,222.773l-211.903,252.52c-29.012,34.578-80.564,39.09-115.143,10.078l-23.436-19.673
				c-0.709-0.591-1.359-1.212-1.98-1.862c34.45,25.426,83.195,19.988,111.094-13.27l211.893-252.52L388.04,222.773z"/>
			
				<rect x="348.403" y="202.783" transform="matrix(0.6428 -0.766 0.766 0.6428 -40.217 357.7862)" style="fill:#E1DDE1;" width="30.313" height="38.473"/>
			<path style="fill:#CBC5CB;" d="M210.366,434.515c-31.836-32.101-63.783-64.09-95.751-96.06L27.441,442.35
				c-0.187,0.227-0.364,0.453-0.542,0.69c0.463,0.424,0.936,0.837,1.419,1.241l41.543,34.864c8.137,6.827,18.461,10.59,29.071,10.59
				h0.01c13.417,0,26.057-5.891,34.677-16.166c9.911-11.822,12.738-27.259,8.945-41.12l40.804,34.243L210.366,434.515z"/>
			<path style="fill:#E1DDE1;" d="M143.047,454.595c-1.537,6.768-4.66,13.289-9.428,18.974
				c-8.62,10.275-21.259,16.166-34.677,16.166h-0.01c-10.61,0-20.934-3.763-29.071-10.59l-0.936-0.788
				C95.327,483.312,123.452,475.096,143.047,454.595z"/>
			<path style="fill:#E1DDE1;" d="M183.136,407.107l-29.243,34.849l29.465,24.727l27.003-32.174
				C201.294,425.367,192.22,416.232,183.136,407.107z"/>
		</g>
		<path style="fill:#918291;" d="M430.208,210.082l-20.013,23.85c-4.04,4.815-11.219,5.443-16.034,1.403L271.114,132.086
			c-4.815-4.04-5.443-11.219-1.403-16.034l20.013-23.85c4.04-4.815,11.219-5.443,16.034-1.403l123.047,103.249
			C433.62,198.088,434.248,205.267,430.208,210.082z"/>
		<path style="fill:#7A6E79;" d="M430.204,210.084l-20.008,23.85c-4.039,4.817-11.221,5.438-16.038,1.399l-19.259-16.166
			c4.394,1.389,9.379,0.098,12.531-3.655l20.678-24.648c3.152-3.753,3.556-8.906,1.429-12.994l19.269,16.176
			C433.623,198.086,434.253,205.267,430.204,210.084z"/>
		<path style="fill:#F2671F;" d="M431.319,117.323l-19.981,23.812l-16.668-13.986c-6.576-5.518-7.433-15.321-1.916-21.896l0,0
			c5.518-6.576,15.321-7.433,21.896-1.916L431.319,117.323z"/>
		<path style="fill:#F2671F;" d="M467.511,74.19l-19.981,23.812l-16.668-13.986c-6.576-5.518-7.433-15.321-1.916-21.896l0,0
			c5.518-6.576,15.321-7.433,21.896-1.916L467.511,74.19z"/>
	</g>
	<path style="fill:#F82F40;" d="M44.144,425.419L85.69,460.28c8.726,7.322,21.736,6.184,29.058-2.542l0,0
		c7.322-8.726,6.184-21.736-2.542-29.058L99.5,418.018c-8.726-7.322-9.864-20.332-2.542-29.058l0,0
		c7.322-8.726,20.332-9.864,29.058-2.542l74.839,62.797c8.726,7.322,21.736,6.184,29.058-2.542l0,0
		c7.322-8.726,6.184-21.736-2.542-29.058l-103.679-86.997c-6.814-5.718-16.974-4.829-22.692,1.985l-58.84,70.123
		C36.441,409.542,37.33,419.701,44.144,425.419z"/>
	<path d="M494.6,44.485c-0.467-5.306-2.972-10.114-7.053-13.537L456.224,4.656c-8.427-7.069-21.035-5.962-28.104,2.465
		l-86.943,103.607L310.58,85.054c-3.864-3.242-8.765-4.786-13.782-4.347c-5.024,0.439-9.577,2.81-12.818,6.673l-20.012,23.851
		c-3.243,3.862-4.787,8.758-4.348,13.782s2.81,9.577,6.673,12.818l4.036,3.387l-17.658,21.042
		c-2.663,3.173-2.249,7.903,0.924,10.566c1.405,1.18,3.116,1.755,4.817,1.755c2.14,0,4.266-0.911,5.749-2.679l17.659-21.043
		l91.994,77.192L224.786,405.657l-28.943-24.285c-3.174-2.664-7.904-2.249-10.566,0.924c-2.663,3.174-2.249,7.904,0.924,10.566
		l36.348,30.499c2.686,2.254,4.333,5.418,4.639,8.911c0.306,3.492-0.767,6.895-3.021,9.58c-4.652,5.545-12.948,6.271-18.491,1.619
		l-74.839-62.798c-11.878-9.969-29.655-8.413-39.624,3.466c-4.829,5.756-7.128,13.047-6.474,20.531
		c0.655,7.483,4.186,14.265,9.939,19.093l12.706,10.662c5.545,4.652,6.271,12.947,1.619,18.491
		c-4.652,5.544-12.948,6.27-18.492,1.619l-41.546-34.861c-3.636-3.051-4.111-8.491-1.062-12.126l58.84-70.122
		c3.051-3.637,8.49-4.112,12.126-1.062l40.33,33.841c3.174,2.664,7.903,2.248,10.566-0.924c2.663-3.174,2.249-7.904-0.924-10.566
		l-36.054-30.253l107.125-127.671c0.716-0.431,1.372-0.99,1.934-1.673c2.629-3.201,2.151-7.941-1.049-10.57
		c-1.51-1.375-3.518-2.072-5.553-1.94c-2.038,0.137-3.933,1.098-5.245,2.663L120.03,320.332c-8.733-2.569-18.561,0.045-24.776,7.452
		l-58.84,70.122c-6.216,7.408-7.083,17.542-3.036,25.696l-11.686,13.926c-3.242,3.86-4.786,8.753-4.347,13.776
		c0.44,5.028,2.813,9.583,6.679,12.822l32.161,26.991c16.687,13.999,37.037,20.833,57.281,20.833
		c25.485-0.001,50.803-10.833,68.424-31.838l18.558-22.117c11.539,6.421,26.412,3.983,35.208-6.501
		c4.829-5.755,7.128-13.046,6.474-20.53c-0.497-5.68-2.654-10.953-6.179-15.278l149.353-177.993l4.035,3.386
		c3.433,2.88,7.678,4.42,12.105,4.42c0.557,0,1.116-0.024,1.677-0.073c5.024-0.439,9.577-2.81,12.818-6.673l20.012-23.851
		c3.243-3.862,4.787-8.758,4.348-13.782s-2.81-9.577-6.673-12.818l-30.56-25.643l86.941-103.613
		C493.436,54.966,495.067,49.795,494.6,44.485z M170.399,470.471c-12.742,15.189-30.638,24.506-50.389,26.235
		c-19.758,1.732-38.994-4.338-54.184-17.08l-32.164-26.993c-0.796-0.667-1.283-1.604-1.374-2.637
		c-0.09-1.029,0.226-2.03,0.892-2.824l10.42-12.419l37.27,31.273c5.26,4.413,11.674,6.567,18.056,6.566
		c8.032-0.001,16.014-3.415,21.568-10.035c9.969-11.88,8.413-29.655-3.467-39.623l-12.707-10.662
		c-2.685-2.254-4.332-5.418-4.638-8.91c-0.306-3.493,0.768-6.896,3.021-9.581c4.652-5.544,12.947-6.271,18.491-1.618l67.434,56.583
		L170.399,470.471z M410.414,130.569l-10.923-9.165c-3.397-2.851-3.842-7.934-0.991-11.331c1.589-1.893,3.87-2.869,6.167-2.869
		c1.825,0,3.659,0.616,5.163,1.878l10.923,9.166L410.414,130.569z M446.606,87.436l-10.923-9.165
		c-3.396-2.851-3.841-7.934-0.991-11.33c1.589-1.893,3.87-2.869,6.167-2.869c1.825,0,3.659,0.616,5.164,1.878l10.922,9.165
		L446.606,87.436z M478.52,49.401l-11.934,14.223l-10.922-9.164c-9.731-8.168-24.295-6.894-32.462,2.84
		c-8.167,9.732-6.893,24.295,2.84,32.462l10.923,9.165l-6.57,7.83l-10.923-9.165c-9.734-8.168-24.296-6.893-32.462,2.84
		c-8.167,9.733-6.894,24.296,2.84,32.463l10.923,9.165l-9.196,10.959l-5.922-4.969c-3.174-2.665-7.904-2.248-10.566,0.924
		c-2.663,3.174-2.249,7.904,0.924,10.566l47.973,40.254c0.794,0.666,1.281,1.602,1.371,2.634c0.091,1.033-0.227,2.039-0.894,2.833
		l-20.014,23.852c-0.666,0.794-1.602,1.281-2.634,1.371c-1.034,0.084-2.039-0.228-2.833-0.894L275.934,126.34
		c-0.794-0.666-1.281-1.602-1.371-2.634c-0.091-1.033,0.227-2.039,0.894-2.833l20.014-23.852c0.666-0.794,1.602-1.281,2.634-1.371
		c1.031-0.088,2.039,0.228,2.833,0.894l48.024,40.297c3.174,2.664,7.904,2.248,10.566-0.924c2.663-3.174,2.249-7.904-0.924-10.566
		l-5.936-4.981l86.943-103.608c1.755-2.091,4.884-2.367,6.972-0.616l31.323,26.292c1.014,0.851,1.636,2.044,1.752,3.36
		C479.773,47.111,479.37,48.389,478.52,49.401z"/>
</g>
<g>
</g>
<g>
</g>
<g>
</g>
<g>
</g>
<g>
</g>
<g>
</g>
<g>
</g>
<g>
</g>
<g>
</g>
<g>
</g>
<g>
</g>
<g>
</g>
<g>
</g>
<g>
</g>
<g>
</g>
</svg>
