<?xml version="1.0" encoding="iso-8859-1"?>
<!-- Generator: Adobe Illustrator 24.0.2, SVG Export Plug-In . SVG Version: 6.00 Build 0)  -->
<svg version="1.1" id="Capa_1" xmlns="http://www.w3.org/2000/svg" xmlns:xlink="http://www.w3.org/1999/xlink" x="0px" y="0px"
	 viewBox="0 0 512 512" style="enable-background:new 0 0 512 512;" xml:space="preserve">
<g>
	<g>
		<path style="fill:#20B69F;" d="M171.081,384.831l36.609-7.52c-12.336-31.898-24.553-47.569-31.581-54.623
			c-3.109-3.121-8.122-3.24-11.408-0.307l-4.515,4.03c-2.713,2.422-3.536,6.333-2.033,9.645
			C170.776,363.881,171.443,379.238,171.081,384.831z"/>
		<g>
			<g>
				<path style="fill:#FEE7C9;" d="M80.888,450.021H36.475V385.64c0-2.774,2.249-5.022,5.022-5.022h34.368
					c2.774,0,5.022,2.249,5.022,5.022V450.021z"/>
				<path style="fill:#FFD496;" d="M80.892,385.637v64.388H56.935v-64.388c0-2.772-2.25-5.022-5.022-5.022h23.957
					C78.642,380.615,80.892,382.865,80.892,385.637z"/>
				<path style="fill:#17998C;" d="M91.776,477.593H25.587c-9.989,0-18.087-8.098-18.087-18.087v-5.61
					c0-2.774,2.249-5.022,5.022-5.022h92.318c2.774,0,5.022,2.249,5.022,5.022v5.61C109.863,469.495,101.765,477.593,91.776,477.593
					z"/>
				<path style="fill:#138B80;" d="M109.861,453.892v5.615c0,9.985-8.096,18.081-18.081,18.081H58.12
					c9.985,0,18.081-8.096,18.081-18.081v-5.615c0-2.772-2.25-5.022-5.022-5.022h33.66
					C107.611,448.869,109.861,451.12,109.861,453.892z"/>
				<path style="fill:#FCC16D;" d="M76.277,342.109c0,10.133-8.301,18.327-18.473,18.154c-11.49-0.195-19.579-10.887-17.461-22.182
					c1.98-10.555,11.125-18.852,13.825-30.634c0.574-2.507,3.8-3.22,5.421-1.224C65.874,313.962,76.277,328.784,76.277,342.109z"/>
				<path style="fill:#FCA62F;" d="M76.281,342.112c0,10.125-8.307,18.322-18.473,18.151c-4.57-0.08-8.608-1.818-11.672-4.601
					c6.831-2.602,11.672-9.211,11.672-16.956c0-7.383-3.194-15.228-7.122-22.069c1.467-2.873,2.732-5.896,3.486-9.191
					c0.573-2.511,3.797-3.224,5.414-1.225C65.875,313.967,76.281,328.783,76.281,342.112z"/>
			</g>
			<g>
				<g>
					<g>
						
							<ellipse transform="matrix(0.1615 -0.9869 0.9869 0.1615 -98.0914 691.0521)" style="fill:#F2671F;" cx="357.621" cy="403.25" rx="42.259" ry="36.675"/>
						
							<ellipse transform="matrix(0.1615 -0.9869 0.9869 0.1615 -63.6434 748.2492)" style="fill:#E25010;" cx="408.504" cy="411.577" rx="42.259" ry="36.675"/>
					</g>
					
						<ellipse transform="matrix(0.1615 -0.9869 0.9869 0.1615 -79.2125 717.2998)" style="fill:#FB8627;" cx="382.506" cy="405.264" rx="44.291" ry="33.341"/>
					<path style="fill:#FB7722;" d="M415.411,410.643c-3.951,24.145-21.887,41.304-40.056,38.331
						c-4.339-0.71-8.293-2.5-11.759-5.157c13.146-4.487,24.252-18.819,27.259-37.192c3.006-18.366-2.953-35.49-13.983-43.933
						c4.131-1.414,8.451-1.85,12.789-1.14C407.83,364.524,419.36,386.506,415.411,410.643z"/>
				</g>
				<path style="fill:#845152;" d="M277.113,34.738v419.95h-38.68V34.738c0-5.55,4.5-10.05,10.05-10.05h18.59
					C272.613,24.688,277.113,29.188,277.113,34.738z"/>
				<polygon style="fill:#704545;" points="277.113,107.748 277.113,248.338 238.433,240.028 238.433,100.568 				"/>
				<g>
					<path style="fill:#C47A4A;" d="M279.353,425.175c-37.717,0-74.074,5.508-105.626,12.766v34.63h297.82
						c-23.794,0-47.058-6.63-67.509-18.792C381.784,440.544,342.373,425.175,279.353,425.175z"/>
				</g>
				<g>
					<path style="fill:#E89A5E;" d="M471.543,472.568h-76.44c-23.29-11.85-60.42-23.69-115.75-23.69
						c-37.72,0-74.07,5.5-105.63,12.76v-23.7c31.56-7.25,67.91-12.76,105.63-12.76c63.02,0,102.43,15.37,124.68,28.6
						C424.493,465.938,447.753,472.568,471.543,472.568z"/>
				</g>
				<path style="fill:#AC6D6D;" d="M434.202,184.663l-59.126,49.127c-2.285,1.899-5.296,2.683-8.217,2.14l-25.844-4.8
					c-1.478-0.274-2.754-1.199-3.475-2.518l-8.495-15.546c-1.786-3.269-6.392-3.507-8.505-0.439l-10.703,15.536
					c-1.148,1.667-3.188,2.477-5.168,2.052L113.268,189.1c-5.293-1.137-8.72-6.28-7.732-11.603L127.29,60.395
					c0.962-5.18,5.778-8.725,11.01-8.104l34.992,4.151c1.572,0.186,2.963,1.106,3.75,2.48l8.72,15.224
					c1.637,2.858,5.543,3.38,7.873,1.052l8.265-8.26c1.165-1.164,2.828-1.68,4.447-1.379L392.1,100.061
					c2.921,0.543,5.449,2.356,6.9,4.948l37.538,67.079C438.892,176.295,437.91,181.583,434.202,184.663z"/>
				<path style="fill:#9A5E5F;" d="M434.203,184.667l-59.13,49.12c-2.28,1.9-5.29,2.69-8.21,2.14l-25.85-4.8
					c-1.07-0.19-2.03-0.73-2.74-1.51c2.03-0.16,3.98-0.94,5.58-2.27l59.13-49.13c3.7-3.08,4.69-8.37,2.33-12.57l-37.54-67.08
					c-0.86-1.54-2.11-2.81-3.6-3.7l27.93,5.19c2.92,0.55,5.45,2.36,6.9,4.95l37.53,67.08
					C438.893,176.298,437.913,181.588,434.203,184.667z"/>
				<path style="fill:#704545;" d="M175.924,169.719l-67.304-8.822l6.4-34.43l34.9,4.12c2.257,0.266,4.05,2.021,4.365,4.272
					l1.25,8.923l24.428,13.904C186.131,161.197,182.961,170.642,175.924,169.719z"/>
				<g>
					<g>
						<ellipse style="fill:#F2671F;" cx="158.849" cy="423.018" rx="55.791" ry="64.285"/>
						<ellipse style="fill:#E25010;" cx="237.282" cy="423.018" rx="55.791" ry="64.285"/>
					</g>
					<ellipse style="fill:#FB8627;" cx="196.703" cy="419.928" rx="50.718" ry="67.375"/>
					<path style="fill:#FB7722;" d="M247.422,419.919c0,37.217-22.711,67.384-50.717,67.384c-6.688,0-13.065-1.716-18.919-4.853
						c18.634-9.965,31.785-34.209,31.785-62.531c0-28.31-13.152-52.554-31.785-62.519c5.855-3.138,12.232-4.853,18.919-4.853
						C224.711,352.547,247.422,382.713,247.422,419.919z"/>
				</g>
				<g>
					<g>
						
							<ellipse transform="matrix(0.1615 -0.9869 0.9869 0.1615 55.5913 356.2462)" style="fill:#FB8627;" cx="237.437" cy="145.409" rx="38.071" ry="33.041"/>
						
							<ellipse transform="matrix(0.1615 -0.9869 0.9869 0.1615 86.6252 407.7747)" style="fill:#FB7722;" cx="283.277" cy="152.911" rx="38.071" ry="33.041"/>
					</g>
					
						<ellipse transform="matrix(0.1615 -0.9869 0.9869 0.1615 72.5992 379.8925)" style="fill:#FC9744;" cx="259.856" cy="147.224" rx="39.901" ry="30.037"/>
					<path style="fill:#FB8627;" d="M289.5,152.069c-3.56,21.752-19.718,37.21-36.087,34.532c-3.909-0.64-7.472-2.252-10.593-4.646
						c11.844-4.042,21.849-16.954,24.558-33.506c2.708-16.546-2.66-31.973-12.597-39.579c3.722-1.274,7.613-1.667,11.522-1.027
						C282.67,110.521,293.058,130.324,289.5,152.069z"/>
				</g>
			</g>
		</g>
	</g>
	<g>
		<path d="M504.5,465.07h-32.953c-15.442,0-30.82-2.992-45.333-8.733c13.12-6.934,23.116-20.71,25.884-37.626
			c4.432-27.077-11.521-52.306-35.56-56.24c-2.954-0.483-5.948-0.613-8.928-0.424c-4.847-4.165-10.523-6.875-16.734-7.891
			c-6.035-0.989-12.097-0.293-17.865,1.945c-2.382-0.88-4.846-1.546-7.356-1.956c-24.034-3.93-47.2,14.895-51.631,41.972
			c-1.297,7.927-0.87,15.897,1.16,23.312c-4.751-0.484-9.673-0.875-14.766-1.165c-0.949-16.374-6.755-31.261-15.804-42.827V233.578
			l18.479,3.969c4.962,1.068,10.037-0.946,12.919-5.129l8.398-12.19l6.547,11.981c1.81,3.313,4.976,5.608,8.687,6.297l25.844,4.8
			c1.071,0.199,2.145,0.296,3.213,0.296c4.048,0,7.992-1.405,11.166-4.042l59.126-49.128c6.487-5.391,8.206-14.646,4.087-22.006
			l-37.538-67.079c-2.547-4.551-6.948-7.707-12.076-8.66l-38.894-7.224c-4.07-0.754-7.987,1.932-8.744,6.004
			s1.932,7.987,6.004,8.744l38.894,7.224c0.732,0.136,1.361,0.587,1.725,1.237l6.432,11.494l-15.256-3.175
			c-4.054-0.847-8.027,1.759-8.871,5.814c-0.844,4.056,1.759,8.027,5.814,8.871l28.017,5.831l21.401,38.244
			c0.589,1.052,0.343,2.374-0.583,3.144l-59.125,49.127c-0.573,0.476-1.321,0.67-2.055,0.535l-24.676-4.583l-7.926-14.504
			c-2.097-3.838-5.957-6.264-10.324-6.489c-4.377-0.226-8.457,1.79-10.938,5.392l-9.754,14.158l-189.767-40.763
			c-1.333-0.287-2.182-1.561-1.933-2.901l1.786-9.614l60.297,7.903c0.636,0.083,1.267,0.124,1.89,0.124
			c5.957,0,11.216-3.72,13.166-9.528c2.154-6.416-0.45-13.236-6.332-16.584l-21.223-12.079l-0.738-5.271
			c-0.788-5.622-5.275-10.013-10.914-10.679l-26.988-3.186l2.359-12.696l15.573,2.585c0.416,0.069,0.829,0.102,1.238,0.102
			c3.602,0,6.78-2.603,7.39-6.272c0.678-4.086-2.084-7.949-6.17-8.627l-15.29-2.539l5.711-30.742c0.24-1.291,1.45-2.182,2.752-2.026
			l33.742,4.002l8.094,14.132c1.951,3.406,5.302,5.658,9.192,6.177c3.89,0.523,7.714-0.773,10.491-3.548l7.334-7.33l110.849,20.59
			c4.073,0.759,7.988-1.932,8.744-6.004c0.756-4.072-1.932-7.987-6.004-8.744l-35.243-6.546v-37.73
			c0-9.674-7.871-17.545-17.545-17.545h-18.591c-9.674,0-17.545,7.871-17.545,17.545v27.759l-23.218-4.313
			c-4.048-0.751-8.206,0.537-11.119,3.448l-5.953,5.949l-7.095-12.388c-1.958-3.418-5.462-5.736-9.375-6.2l-34.992-4.15
			c-9.121-1.082-17.588,5.147-19.267,14.182L98.162,176.127c-1.743,9.382,4.2,18.301,13.53,20.306l119.242,25.614v56.315
			c0,4.142,3.358,7.5,7.5,7.5s7.5-3.358,7.5-7.5v-53.093l23.681,5.087v130.987c-7.115-4.816-15.128-8.085-23.681-9.417v-38.168
			c0-4.142-3.358-7.5-7.5-7.5s-7.5,3.358-7.5,7.5v37.839c-2.708,0.306-5.391,0.805-8.031,1.499
			c-6.594-4.293-13.901-7.014-21.631-7.79c-7.955-14.558-15.162-23.206-19.85-27.911c-5.912-5.933-15.45-6.201-21.715-0.608
			l-4.515,4.03c-5.19,4.632-6.745,12.002-3.869,18.339c1.895,4.176,3.58,8.229,5.06,12.137c-12.1,0.525-23.68,4.904-33.631,12.744
			c-3.254,2.564-3.813,7.279-1.25,10.533c1.48,1.878,3.677,2.859,5.896,2.859c1.625,0,3.262-0.526,4.637-1.609
			c7.191-5.666,15.461-8.908,24.067-9.48c-10.857,13.609-17.617,32.598-17.617,53.589c0,24.393,9.12,46.093,23.201,59.772
			c-0.941,0.064-1.884,0.108-2.833,0.108c-26.627,0-48.29-25.476-48.29-56.79c0-7.514,1.235-14.818,3.671-21.71
			c1.38-3.906-0.667-8.19-4.572-9.571c-3.904-1.379-8.19,0.667-9.571,4.572c-3.005,8.502-4.529,17.489-4.529,26.709
			c0,6.343,0.737,12.493,2.105,18.355h-9.28v-55.732c0-6.905-5.618-12.522-12.522-12.522H65.304v-6.369
			c4.027-1.168,7.725-3.318,10.803-6.344c4.946-4.863,7.67-11.361,7.67-18.296c0-14.877-9.988-30.298-18.366-40.613
			c-2.58-3.178-6.66-4.576-10.649-3.649c-3.968,0.922-6.997,3.959-7.905,7.925c-1.09,4.758-3.637,9.075-6.333,13.645
			c-3.107,5.266-6.32,10.711-7.553,17.282c-1.456,7.764,0.533,15.679,5.458,21.716c3.136,3.845,7.27,6.628,11.875,8.115v6.588
			h-8.806c-6.905,0-12.522,5.618-12.522,12.522v55.732H12.522C5.618,441.373,0,446.99,0,453.895v5.61
			c0,14.109,11.479,25.587,25.587,25.587h66.188c9.154,0,17.196-4.835,21.719-12.082c11.507,13.43,27.584,21.797,45.359,21.797
			c6.832,0,13.528-1.234,19.942-3.645c5.646,2.353,11.661,3.64,17.908,3.64c6.728,0,13.188-1.493,19.205-4.206
			c6.851,2.785,14.028,4.21,21.376,4.21c14.419,0,27.719-5.509,38.373-14.753c0.105,0.004,228.843,0.016,228.843,0.016
			c4.142,0,7.5-3.358,7.5-7.5S508.642,465.07,504.5,465.07z M245.934,34.737c0-1.403,1.142-2.545,2.545-2.545h18.591
			c1.403,0,2.545,1.142,2.545,2.545v34.944l-23.681-4.399V34.737z M147.168,137.81l0.983,7.013c0.322,2.304,1.696,4.327,3.717,5.478
			l19.85,11.298l-54.279-7.115l3.669-19.75L147.168,137.81z M47.714,339.463c0.747-3.981,3.055-7.894,5.728-12.424
			c1.738-2.946,3.61-6.119,5.193-9.627c6.508,9.374,10.142,18.131,10.142,24.697c0,2.881-1.132,5.58-3.187,7.6
			c-2.053,2.019-4.786,3.103-7.659,3.055c-3.109-0.053-5.907-1.413-7.879-3.83C47.927,346.327,47.074,342.875,47.714,339.463z
			 M43.975,388.118h29.413v53.254H43.975V388.118z M102.363,456.895v2.61c0,5.838-4.75,10.587-10.587,10.587H25.587
			c-5.838,0-10.587-4.75-10.587-10.587v-3.133h87.381C102.369,456.545,102.363,456.719,102.363,456.895z M405.379,445.885
			c8.89-8.211,15.184-20.274,17.436-34.027c1.903-11.631,0.681-23.209-3.43-33.099c12.827,5.185,20.648,20.801,17.911,37.529
			C434.404,433.961,420.403,446.476,405.379,445.885z M388.454,368.959c6.406,1.047,11.996,5.553,15.738,12.688
			c4.112,7.84,5.469,17.709,3.82,27.788c-2.072,12.652-8.707,23.587-17.458,28.971c-8.52-3.806-18.587-7.53-30.329-10.751
			c-3.634-7.642-4.783-17.037-3.221-26.567c1.649-10.081,6.081-19.002,12.477-25.122
			C375.304,370.397,382.038,367.907,388.454,368.959z M328.828,398.539c2.591-15.834,13.836-27.71,26.739-29.635
			c-6.809,7.997-11.502,18.375-13.365,29.76c-1.398,8.529-1.097,17.062,0.792,24.921c-3.557-0.713-7.24-1.373-11.047-1.977
			C328.616,414.731,327.503,406.637,328.828,398.539z M165.18,332.007l4.515-4.03c0.325-0.29,0.809-0.288,1.101,0.005
			c3.355,3.367,8.271,9.188,13.965,18.662c-4.273,1.15-8.369,2.917-12.243,5.203c-2.034-5.988-4.554-12.316-7.536-18.889
			C164.835,332.633,164.917,332.242,165.18,332.007z M153.485,419.928c0-33.015,19.388-59.875,43.218-59.875
			s43.218,26.859,43.218,59.875s-19.387,59.875-43.218,59.875S153.485,452.943,153.485,419.928z M237.284,479.808
			c-1.787,0-3.56-0.128-5.319-0.355c13.94-13.692,22.956-35.275,22.956-59.524c0-21.043-6.794-40.073-17.698-53.688
			c0.02,0,0.04-0.002,0.06-0.002c26.627,0,48.29,25.472,48.29,56.78C285.574,454.332,263.911,479.808,237.284,479.808z
			 M288.532,465.07c5.888-9.207,9.899-20.049,11.387-31.809c50.111,2.903,82.092,16.143,100.286,26.963
			c2.904,1.727,5.862,3.338,8.86,4.846H288.532z"/>
		<path d="M290.637,107.938c-2.617-0.427-5.272-0.551-7.916-0.406c-4.418-3.728-9.572-6.165-15.209-7.087
			c-5.498-0.901-10.965-0.223-16.108,1.733c-2.142-0.781-4.356-1.374-6.607-1.741c-10.887-1.784-21.848,1.367-30.865,8.867
			c-8.708,7.243-14.569,17.741-16.503,29.559c-1.934,11.818,0.275,23.636,6.22,33.278c6.155,9.982,15.541,16.46,26.428,18.242
			c1.955,0.32,3.925,0.48,5.897,0.48c1.923,0,3.848-0.152,5.761-0.457c0.067-0.011,0.131-0.029,0.198-0.042
			c3.177,1.802,6.619,3.042,10.268,3.638c1.666,0.272,3.331,0.407,4.993,0.407c2.254,0,4.497-0.255,6.71-0.744
			c3.747,2.105,7.78,3.525,12.015,4.218c1.966,0.322,3.925,0.478,5.866,0.478c19.844,0,37.805-16.315,41.501-38.904
			C327.344,134.66,312.698,111.548,290.637,107.938z M216.417,164.266c-4.049-6.566-5.536-14.729-4.185-22.982
			c1.351-8.253,5.361-15.516,11.292-20.449c3.168-2.635,6.676-4.417,10.304-5.279c-5.424,6.892-9.393,15.688-11.016,25.605
			c-1.904,11.634-0.37,23.213,4.301,32.781C222.851,172.017,219.156,168.708,216.417,164.266z M254.624,179.199
			c-5.537-0.906-10.381-4.829-13.642-11.045c-3.63-6.922-4.826-15.647-3.366-24.57c2.645-16.161,13.761-28.534,25.024-28.534
			c0.816,0,1.634,0.065,2.449,0.198c5.537,0.906,10.382,4.829,13.643,11.046c3.63,6.922,4.826,15.647,3.366,24.569c0,0,0,0,0,0
			c-1.46,8.922-5.375,16.812-11.022,22.215C266.003,177.932,260.159,180.104,254.624,179.199z M308.483,157.035
			c-2.483,15.167-13.939,26.207-26.478,26.321c7.677-7.607,12.96-18.246,14.895-30.07c1.629-9.956,0.743-19.872-2.472-28.522
			C304.696,129.922,310.774,143.035,308.483,157.035z"/>
		<path d="M343.498,156.371l7.538,1.4c0.463,0.086,0.924,0.127,1.378,0.127c3.544,0,6.695-2.522,7.366-6.132
			c0.756-4.073-1.932-7.987-6.004-8.744l-7.538-1.4c-4.075-0.756-7.987,1.933-8.744,6.004
			C336.737,151.7,339.425,155.614,343.498,156.371z"/>
		<path d="M337.787,180.58l38.047,7.067c0.463,0.086,0.923,0.127,1.378,0.127c3.543,0,6.695-2.522,7.366-6.132
			c0.756-4.072-1.932-7.987-6.004-8.744l-38.047-7.067c-4.067-0.754-7.987,1.932-8.744,6.004
			C331.026,175.908,333.715,179.823,337.787,180.58z"/>
		<path d="M118.663,284.179c0.112,0,0.226-0.002,0.338-0.007c4.138-0.184,7.344-3.688,7.16-7.825l-0.013-0.297
			c-0.184-4.138-3.7-7.349-7.825-7.16c-4.138,0.184-7.344,3.688-7.16,7.825l0.013,0.297
			C111.354,281.036,114.673,284.179,118.663,284.179z"/>
		<path d="M111.092,309.046c0.179,4.025,3.498,7.167,7.487,7.167c0.112,0,0.226-0.002,0.338-0.007
			c4.138-0.184,7.344-3.688,7.16-7.825l-0.013-0.297c-0.184-4.138-3.706-7.338-7.825-7.16c-4.138,0.184-7.344,3.688-7.16,7.825
			L111.092,309.046z"/>
		<path d="M134.171,300.09l0.278-0.013c4.138-0.196,7.333-3.709,7.136-7.847c-0.197-4.137-3.709-7.318-7.847-7.136l-0.278,0.013
			c-4.138,0.196-7.333,3.709-7.136,7.847c0.191,4.017,3.507,7.145,7.486,7.145C133.929,300.098,134.05,300.095,134.171,300.09z"/>
		<path d="M103.141,300.01c0.12,0,0.24-0.003,0.361-0.008l0.278-0.013c4.138-0.196,7.333-3.709,7.136-7.847
			c-0.196-4.137-3.705-7.331-7.847-7.136l-0.278,0.013c-4.138,0.196-7.333,3.709-7.136,7.847
			C95.846,296.882,99.162,300.01,103.141,300.01z"/>
		<path d="M68.725,242.73c0.108,0,0.217-0.002,0.326-0.007c4.139-0.177,7.35-3.675,7.173-7.813l-0.013-0.297
			c-0.177-4.138-3.673-7.353-7.813-7.173c-4.139,0.177-7.35,3.675-7.173,7.813l0.013,0.297
			C61.409,239.58,64.73,242.73,68.725,242.73z"/>
		<path d="M68.641,274.765c0.108,0,0.217-0.002,0.326-0.007c4.139-0.177,7.35-3.675,7.173-7.813l-0.013-0.297
			c-0.177-4.138-3.663-7.347-7.813-7.173c-4.139,0.177-7.35,3.675-7.173,7.813l0.013,0.297
			C61.325,271.614,64.646,274.765,68.641,274.765z"/>
		<path d="M83.871,258.649c0.12,0,0.24-0.003,0.361-0.008l0.278-0.013c4.137-0.196,7.333-3.709,7.137-7.847
			s-3.719-7.338-7.847-7.137l-0.278,0.013c-4.137,0.196-7.333,3.709-7.137,7.847C76.576,255.521,79.892,258.649,83.871,258.649z"/>
		<path d="M53.202,258.562c0.12,0,0.24-0.003,0.361-0.008l0.278-0.013c4.138-0.196,7.333-3.709,7.136-7.847
			c-0.197-4.138-3.703-7.32-7.847-7.136l-0.278,0.013c-4.138,0.196-7.333,3.709-7.136,7.847
			C45.907,255.434,49.223,258.562,53.202,258.562z"/>
	</g>
</g>
<g>
</g>
<g>
</g>
<g>
</g>
<g>
</g>
<g>
</g>
<g>
</g>
<g>
</g>
<g>
</g>
<g>
</g>
<g>
</g>
<g>
</g>
<g>
</g>
<g>
</g>
<g>
</g>
<g>
</g>
</svg>
