<?xml version="1.0" encoding="iso-8859-1"?>
<!-- Generator: Adobe Illustrator 24.0.2, SVG Export Plug-In . SVG Version: 6.00 Build 0)  -->
<svg version="1.1" id="Capa_1" xmlns="http://www.w3.org/2000/svg" xmlns:xlink="http://www.w3.org/1999/xlink" x="0px" y="0px"
	 viewBox="0 0 512 512" style="enable-background:new 0 0 512 512;" xml:space="preserve">
<g>
	<path style="fill:#FCB44D;" d="M337.197,7.5H174.804c-4.525,0-8.809,2.043-11.657,5.56l-76.637,94.638
		c-2.864,3.536-3.967,8.182-3,12.628l80.997,372.362c1.5,6.894,7.602,11.812,14.657,11.812h153.674
		c7.056,0,13.158-4.917,14.657-11.812l80.997-372.362c0.967-4.447-0.136-9.092-3-12.628L348.854,13.06
		C346.006,9.543,341.722,7.5,337.197,7.5z"/>
	<path style="fill:#FB9927;" d="M428.49,120.33l-81,372.36c-1.5,6.89-7.6,11.81-14.65,11.81H293.7c7.05,0,13.15-4.92,14.65-11.81
		l81-372.36c0.97-4.45-0.14-9.1-3-12.63l-76.64-94.64c-2.85-3.52-7.13-5.56-11.65-5.56h39.14c4.52,0,8.81,2.04,11.65,5.56
		l76.64,94.64C428.35,111.23,429.46,115.88,428.49,120.33z"/>
	<polygon style="fill:#9A5E5F;" points="191.251,474.5 114.354,120.983 181.958,37.5 330.042,37.5 397.647,120.983 320.749,474.5 	
		"/>
	<polygon style="fill:#845152;" points="397.65,120.98 320.75,474.5 284.91,474.5 361.81,120.98 294.2,37.5 330.04,37.5 	"/>
	<path style="fill:#FCC16D;" d="M286.838,111.955h-17.375V94.58c0-2.761-2.239-5-5-5h-16.925c-2.761,0-5,2.239-5,5v17.375h-17.375
		c-2.761,0-5,2.239-5,5v16.925c0,2.761,2.239,5,5,5h17.375v52.569c0,2.761,2.239,5,5,5h16.925c2.761,0,5-2.239,5-5V138.88h17.375
		c2.761,0,5-2.239,5-5v-16.925C291.838,114.193,289.599,111.955,286.838,111.955z"/>
	<g>
		<path d="M431.32,102.978l-25.632-31.651c-2.605-3.22-7.328-3.718-10.548-1.108c-3.22,2.606-3.716,7.329-1.108,10.548
			l25.631,31.651c1.44,1.778,1.987,4.079,1.5,6.315l-80.996,372.361c-0.745,3.423-3.827,5.906-7.329,5.906H179.163
			c-3.502,0-6.584-2.483-7.328-5.905L90.837,118.731c-0.486-2.235,0.061-4.536,1.5-6.314l76.639-94.638
			c1.431-1.767,3.555-2.779,5.828-2.779h162.394c2.273,0,4.396,1.013,5.828,2.78l28.598,35.313c2.604,3.22,7.328,3.717,10.548,1.108
			c3.22-2.606,3.716-7.329,1.108-10.548L354.683,8.342C350.392,3.04,344.018,0,337.197,0H174.804c-6.821,0-13.195,3.04-17.485,8.341
			L80.68,102.978c-4.318,5.333-5.959,12.238-4.5,18.942l80.998,372.363C159.411,504.549,168.657,512,179.163,512h153.674
			c10.506,0,19.752-7.451,21.985-17.718l80.997-372.361C437.28,115.216,435.639,108.311,431.32,102.978z"/>
		<path d="M183.922,476.094c0.75,3.447,3.801,5.906,7.329,5.906h129.498c3.527,0,6.579-2.459,7.328-5.906l76.898-353.517
			c0.483-2.223-0.068-4.546-1.501-6.313L335.87,32.78c-1.424-1.759-3.565-2.78-5.828-2.78h-47.041c-4.143,0-7.5,3.357-7.5,7.5
			s3.357,7.5,7.5,7.5h43.464l63.088,77.906L314.705,467H241.1V366.132c0-4.143-3.357-7.5-7.5-7.5s-7.5,3.357-7.5,7.5V467h-28.805
			l-22.265-102.354c-0.88-4.048-4.871-6.613-8.922-5.735c-4.048,0.881-6.615,4.876-5.734,8.923L183.922,476.094z"/>
		<path d="M247.606,30h-65.647c-2.263,0-4.404,1.021-5.828,2.78l-67.604,83.483c-1.433,1.768-1.984,4.091-1.501,6.313
			l45.845,210.754c0.763,3.511,3.869,5.908,7.321,5.908c0.527,0,1.063-0.057,1.601-0.173c4.048-0.881,6.615-4.876,5.735-8.923
			l-45.079-207.237L185.535,45h0.269v23.594c0,4.143,3.357,7.5,7.5,7.5s7.5-3.357,7.5-7.5V45h46.802c4.143,0,7.5-3.357,7.5-7.5
			S251.748,30,247.606,30z"/>
		<path d="M264.462,82.079h-16.924c-6.893,0-12.5,5.607-12.5,12.5v9.876h-9.876c-6.893,0-12.5,5.607-12.5,12.5v16.925
			c0,6.893,5.607,12.5,12.5,12.5h9.876v45.069c0,6.893,5.607,12.5,12.5,12.5h16.924c6.893,0,12.5-5.607,12.5-12.5V146.38h9.876
			c6.893,0,12.5-5.607,12.5-12.5v-16.925c0-6.893-5.607-12.5-12.5-12.5h-9.876v-9.876C276.962,87.687,271.355,82.079,264.462,82.079
			z M284.338,119.455v11.925h-14.876c-4.143,0-7.5,3.357-7.5,7.5v50.069h-11.924V138.88c0-4.143-3.357-7.5-7.5-7.5h-14.876v-11.925
			h14.876c4.143,0,7.5-3.357,7.5-7.5V97.079h11.924v14.876c0,4.143,3.357,7.5,7.5,7.5H284.338z"/>
		<path d="M193.304,183.472c-4.143,0-7.5,3.357-7.5,7.5v97.246c0,4.143,3.357,7.5,7.5,7.5s7.5-3.357,7.5-7.5v-97.246
			C200.804,186.829,197.447,183.472,193.304,183.472z"/>
		<path d="M226.1,263.952v45.286c0,4.143,3.357,7.5,7.5,7.5s7.5-3.357,7.5-7.5v-45.286c0-4.143-3.357-7.5-7.5-7.5
			S226.1,259.81,226.1,263.952z"/>
		<path d="M322.938,253.773c0,4.143,3.357,7.5,7.5,7.5s7.5-3.357,7.5-7.5v-82.253c0-4.143-3.357-7.5-7.5-7.5s-7.5,3.357-7.5,7.5
			V253.773z"/>
		<path d="M304.454,314.848c0-4.143-3.357-7.5-7.5-7.5s-7.5,3.357-7.5,7.5v36.43c0,4.143,3.357,7.5,7.5,7.5s7.5-3.357,7.5-7.5
			V314.848z"/>
		<path d="M296.954,377.12c-4.143,0-7.5,3.357-7.5,7.5v11.366c0,4.143,3.357,7.5,7.5,7.5s7.5-3.357,7.5-7.5V384.62
			C304.454,380.478,301.097,377.12,296.954,377.12z"/>
		<path d="M330.438,130.456c4.143,0,7.5-3.357,7.5-7.5V89.579c0-4.143-3.357-7.5-7.5-7.5s-7.5,3.357-7.5,7.5v33.377
			C322.938,127.099,326.295,130.456,330.438,130.456z"/>
		<path d="M154.636,122.956v48.564c0,4.143,3.357,7.5,7.5,7.5s7.5-3.357,7.5-7.5v-48.564c0-4.143-3.357-7.5-7.5-7.5
			S154.636,118.813,154.636,122.956z"/>
	</g>
</g>
<g>
</g>
<g>
</g>
<g>
</g>
<g>
</g>
<g>
</g>
<g>
</g>
<g>
</g>
<g>
</g>
<g>
</g>
<g>
</g>
<g>
</g>
<g>
</g>
<g>
</g>
<g>
</g>
<g>
</g>
</svg>
