<?xml version="1.0" encoding="iso-8859-1"?>
<!-- Generator: Adobe Illustrator 24.0.2, SVG Export Plug-In . SVG Version: 6.00 Build 0)  -->
<svg version="1.1" id="Capa_1" xmlns="http://www.w3.org/2000/svg" xmlns:xlink="http://www.w3.org/1999/xlink" x="0px" y="0px"
	 viewBox="0 0 512.001 512.001" style="enable-background:new 0 0 512.001 512.001;" xml:space="preserve">
<g>
	<g>
		<g>
			<path style="fill:#FB8627;" d="M30.866,409.077l29.054,76.886c4.216,11.156,14.897,18.538,26.823,18.538h338.515
				c11.926,0,22.607-7.382,26.823-18.538l29.054-76.886H30.866z"/>
			<path style="fill:#FB7722;" d="M481.132,409.081l-29.048,76.881c-4.221,11.159-14.898,18.539-26.824,18.539h-36.536
				c11.926,0,22.612-7.38,26.824-18.539l2.733-7.227c2.931-7.753-2.012-16.181-10.188-17.544c-0.033-0.006-0.066-0.011-0.097-0.017
				c-17.677-3.14-28.038-14.012-34.632-20.94c-6.249-6.553-6.76-6.553-9.23-6.553s-2.982,0-9.22,6.553
				c-7.784,8.157-20.792,21.816-44.851,21.816s-37.068-13.658-44.841-21.816c-6.248-6.553-6.76-6.553-9.23-6.553
				c-2.46,0-2.972,0-9.22,6.553c-7.774,8.157-20.792,21.816-44.851,21.816c-24.049,0-37.068-13.658-44.841-21.816
				c-6.248-6.553-6.76-6.553-9.22-6.553c-2.47,0-2.982,0-9.23,6.553c-7.774,8.157-20.782,21.816-44.841,21.816
				c-24.059,0-37.077-13.658-44.851-21.816c-5.835-6.13-6.672-6.524-8.768-6.544l-9.299-24.61H481.132z"/>
			<path style="fill:#9A5E5F;" d="M11.474,399.526c0,5.275,4.276,9.552,9.552,9.552h18.689c27.034,0,27.034,28.377,54.069,28.377
				c27.035,0,27.035-28.377,54.071-28.377c27.034,0,27.034,28.377,54.068,28.377c27.034,0,27.034-28.377,54.069-28.377
				c27.036,0,27.036,28.377,54.071,28.377c27.035,0,27.035-28.377,54.069-28.377c27.038,0,27.038,28.377,54.077,28.377
				c27.038,0,27.038-28.377,54.077-28.377h18.689c5.275,0,9.552-4.276,9.552-9.552v0c0-44.399-35.992-80.391-80.391-80.391H91.865
				C47.467,319.135,11.474,355.127,11.474,399.526L11.474,399.526z"/>
			<ellipse style="fill:#845152;" cx="264.749" cy="357.854" rx="131.83" ry="22.954"/>
			<path style="fill:#845152;" d="M497.456,377.445c-0.01,0.009-0.021,0.017-0.031,0.026c-3.79-13.332-10.91-25.261-20.447-34.791
				c-14.553-14.544-34.647-23.547-56.846-23.547h-31.675c22.199,0,42.302,9.004,56.846,23.547c1.688,1.688,3.301,3.452,4.834,5.285
				c10.591,12.67,9.769,31.419-1.885,43.12c-7.924,7.955-14.545,17.278-30.048,17.278c-27.031,0-27.031-28.379-54.071-28.379
				c-27.041,0-27.041,28.379-54.071,28.379c-27.031,0-27.031-28.379-54.071-28.379c-27.031,0-27.031,28.379-54.071,28.379
				c-27.031,0-27.031-28.379-54.061-28.379c-27.041,0-27.041,28.379-54.071,28.379c-27.041,0-27.041-28.379-54.071-28.379H21.029
				c-2.499,0-4.782-0.964-6.485-2.539c-1.988,6.982-3.06,14.354-3.07,21.97c-0.007,5.316,4.238,9.666,9.555,9.666h18.686
				c27.031,0,27.031,28.379,54.071,28.379c27.031,0,27.031-28.379,54.071-28.379c27.031,0,27.031,28.379,54.061,28.379
				c27.041,0,27.041-28.379,54.071-28.379c27.041,0,27.041,28.379,54.071,28.379c27.031,0,27.031-28.379,54.071-28.379
				c27.041,0,27.041,28.379,54.071,28.379c27.041,0,27.041-28.379,54.081-28.379h18.686c5.316,0,9.562-4.35,9.555-9.666
				C500.516,391.798,499.444,384.427,497.456,377.445z"/>
		</g>
	</g>
	<g>
		<path style="fill:#1EC186;" d="M217.338,77.433l-8.914-34.098c-0.896-3.429,0.12-7.075,2.662-9.545l24.183-23.504
			c2.122-2.062,5.06-3.06,7.999-2.717l28.029,3.271c6.141,0.717,10.47,6.376,9.554,12.49l-0.048,0.323
			c-1.629,10.874-10.548,19.185-21.509,20.042l-7.105,0.556l9.83,25.915L217.338,77.433z"/>
		<path style="fill:#1EB07C;" d="M280.857,23.332l-0.049,0.325c-1.633,10.873-10.549,19.178-21.51,20.034l-7.105,0.561l9.83,25.909
			l-19.365,3.149l-11.77-31.025c-1.263-3.329,1.027-6.938,4.577-7.214h0c10.962-0.856,19.887-9.171,21.51-20.044l0.049-0.325
			c0.295-1.968,0.049-3.887-0.64-5.609l14.918,1.742C277.442,11.554,281.772,17.212,280.857,23.332z"/>
		<path style="fill:#27E19D;" d="M380.354,122.859l-8.066-2.503c-12.407-3.851-25.799,1.677-31.878,13.158l0,0
			c-3.048,5.758-4.642,12.173-4.642,18.688v34.531l-26.978-7.186l-22.896-32.107l7.746-22.199c0.413-0.214,0.824-0.434,1.225-0.682
			h0c5.128-3.172,6.801-9.669,4.192-14.845l9.732-27.893l14.081,1.622c10.076,1.16,19.759-4.275,24.015-13.481
			c2.908-6.289-0.875-13.639-7.682-14.926l-33.903-6.412c-3.403-0.644-6.893,0.549-9.191,3.14l-22.14,24.966l0,0l-4.111-5.347
			c-2.157-2.806-5.656-4.237-9.162-3.748l-61.192,8.543c-5.392,0.753-9.148,5.741-8.382,11.131l7.672,53.94l-22.931,5.082
			c-4.106,0.91-7.179,4.328-7.649,8.507l-5.633,50.073l51.205,68.992l-12.195,78.423l119.269-0.867l-13.82-68.274l41.179-29.474
			l29.909-43.481c1.632-2.372,2.143-5.34,1.398-8.122l-10.238-38.24l15.335-31.067C386.562,128.881,384.532,124.156,380.354,122.859
			z"/>
		<path style="fill:#1EC186;" d="M384.63,132.803l-15.341,31.065l10.244,38.238c0.738,2.785,0.226,5.757-1.407,8.128l-29.904,43.474
			l-41.181,29.481l13.825,68.27l-119.272,0.866l0.029-0.187l93.56-0.679l-12.494-70.64c-0.795-4.497,1.272-9.017,5.194-11.357
			l34.665-20.675l29.904-38.553c1.633-2.371,2.145-5.343,1.397-8.128l-10.234-38.238l15.331-31.065
			c1.939-3.926-0.089-8.649-4.271-9.948l-2.598-0.807c6.091-3.07,13.304-3.838,20.211-1.693l8.059,2.499
			C384.532,124.154,386.559,128.877,384.63,132.803z"/>
	</g>
	<path style="fill:#845152;" d="M363.953,361.083c-9.647-13.244-35.928-22.753-66.876-22.753s-57.229,9.508-66.876,22.753H363.953z"
		/>
	<path style="fill:#845152;" d="M300.283,361.083c-9.647-10.195-35.928-17.514-66.876-17.514s-57.229,7.319-66.876,17.514H300.283z"
		/>
	<g>
		<path d="M98.011,355.445l-13.789,18.343c-2.489,3.312-1.822,8.013,1.488,10.502c1.351,1.015,2.932,1.505,4.501,1.505
			c2.277,0,4.527-1.033,6.001-2.993l13.789-18.343c2.489-3.312,1.822-8.013-1.488-10.502
			C105.201,351.468,100.499,352.134,98.011,355.445z"/>
		<path d="M421.79,385.794c1.568,0,3.15-0.49,4.501-1.505c3.311-2.489,3.978-7.191,1.488-10.502l-13.79-18.343
			c-2.489-3.311-7.189-3.977-10.502-1.488c-3.311,2.489-3.978,7.191-1.488,10.502l13.79,18.343
			C417.264,384.762,419.513,385.794,421.79,385.794z"/>
		<path d="M308.662,373.551c-4.008,1.047-6.408,5.145-5.362,9.151l3.023,11.578c0.881,3.373,3.922,5.607,7.252,5.607
			c0.627,0,1.265-0.079,1.899-0.245c4.008-1.047,6.408-5.145,5.362-9.151l-3.023-11.578
			C316.766,374.906,312.667,372.503,308.662,373.551z"/>
		<path d="M194.188,378.913l-3.023,11.578c-1.046,4.007,1.354,8.104,5.362,9.151c0.636,0.166,1.272,0.245,1.9,0.245
			c3.33,0,6.371-2.234,7.252-5.607l3.023-11.578c1.046-4.007-1.354-8.104-5.362-9.151
			C199.327,372.503,195.234,374.905,194.188,378.913z"/>
		<path d="M420.135,311.634h-22.903c-4.143,0-7.5,3.357-7.5,7.5s3.357,7.5,7.5,7.5h22.903c40.192,0,72.892,32.699,72.892,72.892
			c0,1.131-0.921,2.052-2.052,2.052h-18.689c-16.732,0-25.458,9.157-32.469,16.515c-6.314,6.628-11.303,11.862-21.608,11.862
			s-15.294-5.234-21.608-11.862c-7.011-7.357-15.736-16.515-32.469-16.515c-16.73,0-25.454,9.157-32.464,16.515
			c-6.314,6.628-11.302,11.862-21.605,11.862s-15.291-5.234-21.605-11.861c-7.01-7.358-15.734-16.516-32.465-16.516
			c-16.73,0-25.455,9.157-32.464,16.516c-6.313,6.627-11.3,11.861-21.604,11.861s-15.291-5.234-21.604-11.862
			c-7.01-7.357-15.733-16.515-32.464-16.515c-16.731,0-25.456,9.157-32.466,16.516c-6.314,6.627-11.301,11.861-21.605,11.861
			c-10.303,0-15.291-5.234-21.604-11.861c-7.01-7.358-15.734-16.516-32.465-16.516H21.026c-1.131,0-2.052-0.921-2.052-2.052
			c0-40.192,32.699-72.892,72.891-72.892h23.529c4.142,0,7.5-3.357,7.5-7.5s-3.358-7.5-7.5-7.5H91.865
			c-48.463,0-87.891,39.428-87.891,87.892c0,9.402,7.649,17.052,17.052,17.052h4.656l27.221,72.037
			c5.286,13.988,18.885,23.387,33.839,23.387h338.515c14.953,0,28.552-9.398,33.838-23.387l27.221-72.037h4.657
			c9.402,0,17.052-7.649,17.052-17.052C508.027,351.062,468.599,311.634,420.135,311.634z M445.065,483.312
			c-3.095,8.188-11.054,13.689-19.807,13.689H86.743c-8.753,0-16.713-5.501-19.808-13.689l-25.189-66.658
			c8.954,0.649,13.69,5.61,19.573,11.786c7.01,7.357,15.734,16.515,32.464,16.515c16.731,0,25.455-9.157,32.465-16.515
			c6.314-6.628,11.301-11.862,21.605-11.862c10.303,0,15.29,5.234,21.604,11.861c7.01,7.358,15.733,16.516,32.464,16.516
			c16.73,0,25.455-9.157,32.464-16.516c6.313-6.627,11.3-11.861,21.604-11.861c10.304,0,15.292,5.234,21.606,11.862
			c7.01,7.357,15.733,16.515,32.465,16.515s25.455-9.157,32.466-16.516c6.313-6.627,11.3-11.861,21.604-11.861
			c10.307,0,15.294,5.234,21.609,11.862c7.011,7.357,15.735,16.515,32.468,16.515s25.457-9.157,32.468-16.515
			c5.885-6.176,10.621-11.137,19.577-11.786L445.065,483.312z"/>
		<path d="M150.789,326.634h47.209l-2.056,13.223c-15.707,3.43-28.186,9.02-34.858,16.072c-2.847,3.009-2.716,7.756,0.293,10.603
			c1.45,1.372,3.303,2.052,5.153,2.052c1.989,0,3.975-0.786,5.449-2.346c7.132-7.537,30.522-15.168,61.428-15.168
			s54.296,7.631,61.429,15.169c2.847,3.008,7.594,3.139,10.603,0.292c3.008-2.847,3.14-7.594,0.292-10.603
			c-3.558-3.76-8.765-7.104-15.231-9.928c2.175-0.101,4.364-0.169,6.578-0.169c31.939,0,53.913,10.195,60.813,19.669
			c1.468,2.016,3.752,3.085,6.068,3.085c1.531,0,3.077-0.468,4.41-1.438c3.348-2.438,4.085-7.13,1.646-10.479
			c-8.042-11.042-24.602-19.328-45.158-23.275l-1.368-6.758h38.347c4.143,0,7.5-3.357,7.5-7.5s-3.357-7.5-7.5-7.5h-41.384
			l-5.096-25.176l37.229-26.647c0.707-0.506,1.321-1.132,1.814-1.848l29.908-43.48c2.88-4.186,3.778-9.402,2.465-14.312
			l-9.509-35.513l23.976-49.819c1.745-3.757,0.114-8.217-3.642-9.962c-3.759-1.746-8.217-0.113-9.962,3.642l-3.588,7.723
			c-0.478-0.207-0.969-0.39-1.473-0.546l-8.065-2.503c-15.839-4.912-32.969,2.155-40.729,16.812
			c-3.607,6.812-5.515,14.488-5.515,22.198v24.771l-14.938-3.979l-19.075-26.749l5.596-16.037c0.792-0.571,1.553-1.18,2.244-1.858
			l0.442,0.689c1.433,2.234,3.851,3.454,6.321,3.454c1.386,0,2.787-0.384,4.04-1.187c3.487-2.235,4.503-6.874,2.268-10.361
			l-7.808-12.252l6.537-18.734l8.119,0.936c13.315,1.526,26.054-5.613,31.681-17.785c1.075-2.325,1.63-4.794,1.679-7.266
			c0.347,0.048,0.693,0.08,1.034,0.08c3.511,0,6.646-2.477,7.351-6.051c0.801-4.064-1.845-8.008-5.908-8.809l-51.154-9.81
			c-5.96-1.126-12.169,0.992-16.195,5.532L274.278,65.08c-2.193-2.177-4.918-3.71-7.864-4.476l-3.71-9.78
			c13.195-2.231,23.501-12.595,25.515-26.048l0.051-0.335c0.205-1.367,0.243-2.728,0.149-4.071l1.5,0.174
			c0.293,0.034,0.584,0.051,0.872,0.051c3.756,0,6.998-2.817,7.44-6.639c0.477-4.115-2.474-7.837-6.588-8.313l-47.505-5.524
			c-5.201-0.607-10.339,1.139-14.094,4.789L205.86,28.411c-4.471,4.345-6.269,10.79-4.692,16.82l5.837,22.328l-8.536,1.192
			c-4.596,0.642-8.664,3.036-11.455,6.743s-3.968,8.278-3.315,12.872l6.694,47.064l-16.151,3.579
			c-7.235,1.604-12.652,7.628-13.479,14.99l-5.633,50.073c-0.212,1.887,0.299,3.784,1.431,5.309l9.805,13.211
			c1.472,1.983,3.735,3.031,6.028,3.03c1.553,0,3.121-0.48,4.464-1.478c3.326-2.469,4.021-7.166,1.553-10.492l-8.044-10.839
			l5.303-47.138c0.112-0.993,0.843-1.806,1.819-2.022l38.838-8.607c0.85-0.185,1.729,0.107,2.291,0.771L251.2,184.21l0.06,0.073
			c0.857,1.019,1.258,2.308,1.124,3.634c-0.135,1.334-0.789,2.524-1.843,3.353c-5.127,4.026-12.528,3.647-17.218-0.881
			l-14.176-13.695c-2.979-2.88-7.727-2.797-10.605,0.183c-2.878,2.979-2.796,7.727,0.183,10.604l14.176,13.696
			c4.208,4.065,9.44,6.548,14.902,7.454l22.167,22.169c3.953,3.952,5.933,9.413,5.432,14.981l-3.517,39.098
			c-0.371,4.126,2.673,7.771,6.798,8.142c0.229,0.021,0.455,0.03,0.681,0.03c3.838,0,7.11-2.932,7.461-6.828l3.517-39.097
			c0.128-1.416,0.156-2.827,0.108-4.229l12.287-6.308c3.686-1.892,5.139-6.412,3.247-10.097c-1.893-3.686-6.416-5.139-10.097-3.247
			l-9.44,4.846c-1.545-2.869-3.506-5.536-5.868-7.899l-14.614-14.615c1.329-0.728,2.621-1.553,3.844-2.514
			c1.398-1.099,2.604-2.368,3.64-3.749l4.7,5.797c1.482,1.828,3.647,2.776,5.831,2.776c1.659,0,3.329-0.548,4.719-1.674
			c3.217-2.609,3.711-7.332,1.103-10.55l-49.746-59.555c-4.172-4.915-10.677-7.105-16.972-5.709l-8,1.773l-6.531-45.92
			c-0.119-0.837,0.229-1.448,0.447-1.738c0.218-0.29,0.709-0.793,1.546-0.91l61.194-8.542c0.833-0.114,1.664,0.226,2.176,0.892
			l28.054,36.489c0.926,1.204,0.867,2.46,0.751,3.101c-0.117,0.642-0.507,1.837-1.799,2.636c-4.688,2.9-10.843,1.857-14.314-2.421
			l-11.235-13.848v-2.376c0-4.143-3.357-7.5-7.5-7.5c-3.752,0-6.852,2.758-7.404,6.356l-10.119,2.002l-14.458-3.317
			c-4.036-0.922-8.061,1.597-8.987,5.634c-0.926,4.037,1.596,8.061,5.633,8.987l12.559,2.881l20.991,42.236
			c1.311,2.637,3.964,4.164,6.722,4.164c1.121,0,2.26-0.253,3.332-0.786c3.709-1.843,5.222-6.345,3.378-10.054l-18.202-36.625
			l3.577-0.708l10.064,12.404c4.469,5.507,10.816,8.727,17.46,9.432l-3.603,10.326c-0.803,2.298-0.438,4.843,0.975,6.825
			l22.896,32.107c1.014,1.421,2.49,2.443,4.176,2.893l20.302,5.408l-1.443,8.008c-0.734,4.077,1.975,7.977,6.051,8.711
			c0.45,0.081,0.897,0.12,1.339,0.12c3.56,0,6.719-2.544,7.372-6.171l2.668-14.808c0.016-0.087,0.021-0.174,0.033-0.261
			c0.016-0.112,0.032-0.223,0.043-0.336c0.018-0.18,0.026-0.359,0.031-0.538c0.002-0.065,0.011-0.129,0.011-0.195v-34.53
			c0-5.272,1.304-10.521,3.771-15.179c4.387-8.286,14.068-12.284,23.027-9.505l7.635,2.369l-13.849,28.056l-5.265,2.059
			c-3.857,1.509-5.762,5.859-4.254,9.717c1.158,2.961,3.989,4.771,6.987,4.771c0.908,0,1.832-0.166,2.729-0.517l0.164-0.064
			l8.07,30.14c0.178,0.663,0.057,1.367-0.333,1.932l-29.164,42.397l-40.109,28.709c-2.403,1.72-3.572,4.69-2.985,7.587l9.437,46.619
			c-3.935-0.305-7.96-0.463-12.051-0.463c-15.263,0-29.927,2.215-42.521,6.383c-6.745-0.747-13.842-1.144-21.15-1.144
			c-7.576,0-14.922,0.428-21.887,1.229l9.679-62.243c0.309-1.984-0.192-4.01-1.389-5.622l-20.076-27.05
			c-2.469-3.327-7.167-4.021-10.492-1.553c-3.326,2.469-4.021,7.166-1.553,10.492l18.206,24.529l-5.564,35.781h-49.542
			c-4.142,0-7.5,3.357-7.5,7.5S146.647,326.634,150.789,326.634z M215.681,41.437c-0.212-0.813,0.03-1.683,0.633-2.27l24.184-23.504
			c0.507-0.491,1.205-0.726,1.902-0.646l28.03,3.271c1.261,0.147,2.005,0.896,2.336,1.328c0.33,0.433,0.857,1.346,0.672,2.59
			l-0.051,0.335c-1.117,7.463-7.153,13.087-14.677,13.676l-4.207,0.329l-5.355-4.17c-3.269-2.542-7.98-1.958-10.525,1.311
			c-2.545,3.268-1.958,7.98,1.31,10.525l5.991,4.665l4.773,12.583l-28.732,4.011L215.681,41.437z M283.693,77.072l18.029-20.331
			c0.543-0.613,1.386-0.895,2.186-0.747l33.874,6.406l0.032,0.006c1.309,0.249,1.944,1.14,2.207,1.649
			c0.263,0.511,0.619,1.547,0.059,2.76c-2.904,6.281-9.468,9.971-16.349,9.178l-10.3-1.187l-1.285-2.261
			c-2.047-3.601-6.627-4.861-10.226-2.815c-3.602,2.046-4.862,6.625-2.815,10.226l1.484,2.611l-3.955,11.335L283.693,77.072z"/>
		<path d="M216.599,241.844c0.109,0,0.22-0.002,0.33-0.007c4.138-0.18,7.348-3.68,7.168-7.817l-0.013-0.293
			c-0.18-4.139-3.676-7.366-7.818-7.169c-4.138,0.18-7.348,3.68-7.168,7.817l0.013,0.293
			C209.286,238.697,212.605,241.844,216.599,241.844z"/>
		<path d="M237.996,254.06c0.11,0,0.22-0.002,0.331-0.007c4.138-0.18,7.347-3.681,7.167-7.819l-0.012-0.292
			c-0.18-4.139-3.686-7.341-7.819-7.167c-4.138,0.18-7.347,3.681-7.167,7.819l0.012,0.292
			C230.684,250.913,234.003,254.06,237.996,254.06z"/>
		<path d="M325.974,230.791c0.11,0,0.221-0.002,0.332-0.007c4.138-0.18,7.347-3.681,7.167-7.819l-0.013-0.292
			c-0.181-4.138-3.678-7.345-7.819-7.167c-4.138,0.18-7.347,3.681-7.167,7.819l0.013,0.292
			C318.663,227.645,321.982,230.791,325.974,230.791z"/>
	</g>
</g>
<g>
</g>
<g>
</g>
<g>
</g>
<g>
</g>
<g>
</g>
<g>
</g>
<g>
</g>
<g>
</g>
<g>
</g>
<g>
</g>
<g>
</g>
<g>
</g>
<g>
</g>
<g>
</g>
<g>
</g>
</svg>
