<?xml version="1.0" encoding="iso-8859-1"?>
<!-- Generator: Adobe Illustrator 24.0.2, SVG Export Plug-In . SVG Version: 6.00 Build 0)  -->
<svg version="1.1" id="Capa_1" xmlns="http://www.w3.org/2000/svg" xmlns:xlink="http://www.w3.org/1999/xlink" x="0px" y="0px"
	 viewBox="0 0 512 512" style="enable-background:new 0 0 512 512;" xml:space="preserve">
<g>
	<g>
		<g>
			<path style="fill:#FB8627;" d="M384.141,109.029c3.387-4.796,1.193-11.498-4.37-13.378c-13.375-4.52-27.227-1.608-34.243,8.327
				s-5.127,23.963,3.605,35.056c3.632,4.614,10.682,4.44,14.069-0.356L384.141,109.029z"/>
			<path style="fill:#F2671F;" d="M264.014,68.631c-3.387,4.796-1.193,11.498,4.37,13.378c13.375,4.52,27.227,1.608,34.243-8.327
				s5.127-23.963-3.605-35.056c-3.632-4.614-10.682-4.44-14.069,0.356L264.014,68.631z"/>
			<path style="fill:#E25010;" d="M302.623,73.68c-6.62,9.39-19.34,12.5-32,9.01c5.13-1.61,9.55-4.63,12.65-9.01
				c6.2-8.78,5.45-20.77-0.86-31.1l2.54-3.6c3.39-4.79,10.44-4.97,14.07-0.35C307.753,49.72,309.643,63.75,302.623,73.68z"/>
		</g>
		<circle style="fill:#FB7722;" cx="324.077" cy="88.83" r="28.352"/>
		<path style="fill:#F2671F;" d="M347.242,105.183c-9.034,12.792-26.734,15.84-39.525,6.806
			c-8.144-5.751-12.337-15.017-11.96-24.288c1.72,2.28,3.826,4.342,6.293,6.084c12.792,9.034,30.478,5.988,39.512-6.803
			c3.277-4.64,4.964-9.924,5.167-15.204C353.945,81.356,354.528,94.867,347.242,105.183z"/>
	</g>
	<g>
		<g>
			<g>
				<g>
					<g>
						<path style="fill:#E25010;" d="M166.923,222.218h-66.165c-30.153,20.268-51.289,67.397-51.289,122.307
							c0,73.409,37.774,132.918,84.372,132.918c46.597,0,84.372-59.51,84.372-132.918
							C218.212,289.615,197.076,242.486,166.923,222.218z"/>
						<path style="fill:#F2671F;" d="M411.242,222.218h-66.165c-30.153,20.268-51.289,67.397-51.289,122.307
							c0,73.409,37.774,132.918,84.372,132.918c46.597,0,84.372-59.51,84.372-132.918
							C462.531,289.615,441.395,242.486,411.242,222.218z"/>
					</g>
					<path style="fill:#F2671F;" d="M130.314,222.218c-23.684,27.774-39.027,72.217-39.027,122.307
						c0,84.156,43.305,152.377,96.724,152.377c53.419,0,96.724-68.222,96.724-152.377c0-50.09-15.343-94.532-39.028-122.307H130.314
						z"/>
					<path style="fill:#F2671F;" d="M266.293,222.218c-23.684,27.774-39.028,72.217-39.028,122.307
						c0,84.156,43.305,152.377,96.724,152.377c53.419,0,96.724-68.222,96.724-152.377c0-50.09-15.343-94.532-39.027-122.307H266.293
						z"/>
					<path style="fill:#E25010;" d="M347.243,222.218c23.685,27.776,39.031,72.218,39.031,122.305
						c0,74.889-34.301,137.181-79.503,149.982c5.593,1.578,11.342,2.403,17.222,2.403c53.412,0,96.725-68.233,96.725-152.384
						c0-50.089-15.347-94.531-39.034-122.305H347.243z"/>
					<g>
						<path style="fill:#FB8627;" d="M197.096,222.218c-19.029,29.345-31.12,73.242-31.12,122.307
							c0,88.352,39.193,159.975,87.541,159.975s87.541-71.623,87.541-159.975c0-49.064-12.091-92.961-31.12-122.307H197.096z"/>
						<path style="fill:#FB7722;" d="M271.026,222.218c19.03,29.344,31.119,73.241,31.119,122.305
							c0,76.132-29.102,139.847-68.089,156.005c6.263,2.594,12.776,3.968,19.457,3.968c48.345,0,87.546-71.615,87.546-159.974
							c0-49.062-12.094-92.959-31.125-122.305H271.026z"/>
					</g>
				</g>
			</g>
		</g>
		<g>
			<g>
				<g>
					<circle style="fill:#FCB44D;" cx="181.021" cy="313.055" r="38.02"/>
					<path style="fill:#FB9927;" d="M219.038,313.054c0,21.001-17.02,38.022-38.014,38.022c-9.507,0-18.205-3.488-24.872-9.257
						c0.346,0.007,0.692,0.015,1.045,0.015c21.001,0,38.022-17.028,38.022-38.022c0-11.494-5.099-21.789-13.15-28.765
						C202.584,275.599,219.038,292.413,219.038,313.054z"/>
					<g>
						<path style="fill:#FCA62F;" d="M162.23,341.495c0.662,2.06,1.501,4.033,2.495,5.916c-3.105-1.479-5.983-3.363-8.551-5.593
							c0.338,0.007,0.677,0.015,1.023,0.015C158.904,341.834,160.581,341.723,162.23,341.495z"/>
					</g>
				</g>
				<g>
					<circle style="fill:#FCB44D;" cx="330.979" cy="313.055" r="38.02"/>
					<path style="fill:#FB9927;" d="M368.998,313.054c0,21.001-17.02,38.022-38.022,38.022c-9.507,0-18.198-3.488-24.865-9.257
						c0.346,0.007,0.692,0.015,1.045,0.015c20.994,0,38.014-17.028,38.014-38.022c0-11.494-5.099-21.789-13.15-28.765
						C352.545,275.599,368.998,292.413,368.998,313.054z"/>
				</g>
			</g>
			<g>
				<path style="fill:#FCB44D;" d="M374.575,380.283c-21.207,42.157-66.33,81.909-118.576,81.909
					c-52.239,0-97.369-39.752-118.576-81.909c-3.429-6.814,3.996-13.945,10.699-10.295c13.569,7.395,30.715,11.384,50.215,13.496
					c0.383,3.73,1.156,9.496,2.643,15.231c0.843,3.249,3.774,5.52,7.13,5.52h11.383c4.064,0,7.359-3.295,7.359-7.359v-11.501
					c9.404,0.316,19.154,0.412,29.147,0.412c43.32,0,82.07-1.729,107.877-15.799C370.579,366.338,378.011,373.469,374.575,380.283z"
					/>
				<path style="fill:#FB9927;" d="M374.576,380.282c-21.207,42.157-66.33,81.908-118.576,81.908c-4.562,0-9.073-0.302-13.518-0.89
					c38.971-11.112,70.01-41.039,82.666-79.333c14.776-2.34,27.889-6.071,38.728-11.98
					C370.581,366.338,378.013,373.468,374.576,380.282z"/>
			</g>
		</g>
	</g>
	<ellipse style="fill:#9A5E5F;" cx="256" cy="222.218" rx="156.183" ry="23.28"/>
	<path style="fill:#845152;" d="M412.18,222.22c0,12.85-69.92,23.28-156.18,23.28S99.82,235.07,99.82,222.22
		c0-3.58,5.43-6.98,15.14-10.01c25.11,7.85,78.82,13.27,141.04,13.27s115.93-5.42,141.04-13.27
		C406.75,215.24,412.18,218.64,412.18,222.22z"/>
	<path style="fill:#E89A5E;" d="M334.86,207.86c0,13.92-5.67,26.51-14.83,35.6c-19.54,1.31-41.21,2.04-64.03,2.04
		c-1.47,0-2.93,0-4.39-0.01c-10.42-9.19-17-22.64-17-37.63c0-27.68,22.44-50.13,50.12-50.13
		C312.42,157.73,334.86,180.18,334.86,207.86z"/>
	<path style="fill:#D68A5A;" d="M334.86,207.86c0,13.92-5.67,26.51-14.83,35.6c-8.8,0.59-18.02,1.06-27.6,1.4
		c-2.13-25.71-23.68-45.92-49.95-45.92c-2.43,0-4.82,0.17-7.16,0.51c3.99-23.68,24.6-41.72,49.41-41.72
		C312.42,157.73,334.86,180.18,334.86,207.86z"/>
	<g>
		<circle style="fill:#27E19D;" cx="319.068" cy="155.869" r="56.359"/>
		<path style="fill:#1EC186;" d="M373.451,170.665c-8.172,30.038-39.141,47.76-69.179,39.587
			c-26.304-7.156-43.166-31.798-41.451-57.986c3.243,17.143,15.931,31.798,33.898,36.686c25.088,6.826,50.963-7.981,57.788-33.069
			c6.277-23.072-5.752-46.812-27.242-55.778c2.201,0.329,4.399,0.782,6.599,1.381C363.902,109.658,381.624,140.627,373.451,170.665z
			"/>
	</g>
	<g>
		<g>
			<path style="fill:#915EB2;" d="M214.322,82.747c-2.185-5.45-9.004-7.25-13.605-3.602c-11.063,8.771-16.146,21.981-11.619,33.27
				s17.329,17.327,31.387,16.025c5.847-0.542,9.532-6.554,7.347-12.003L214.322,82.747z"/>
			<path style="fill:#804EA0;" d="M220.48,128.44c-5.13,0.47-10.09-0.03-14.54-1.41c2.63-4.53,4.14-9.89,4.14-15.64
				c0-11.66-6.23-21.74-15.26-26.49c1.71-2.06,3.69-4,5.9-5.75c4.6-3.65,11.42-1.85,13.6,3.6l13.51,33.69
				C230.02,121.89,226.33,127.9,220.48,128.44z"/>
			<path style="fill:#804EA0;" d="M115.127,161.632c2.185,5.45,9.004,7.25,13.605,3.602c11.063-8.771,16.146-21.981,11.619-33.27
				s-17.329-17.327-31.387-16.025c-5.847,0.542-9.532,6.554-7.347,12.003L115.127,161.632z"/>
			<path style="fill:#6E4189;" d="M128.73,165.23c-4.6,3.65-11.42,1.85-13.6-3.6l-1.19-2.98c7.57-8.42,10.51-19.22,6.72-28.68
				c-2.49-6.24-7.52-10.87-13.89-13.54c0.69-0.25,1.42-0.42,2.19-0.49c14.06-1.3,26.86,4.73,31.39,16.02
				C144.88,143.25,139.79,156.46,128.73,165.23z"/>
		</g>
		<circle style="fill:#915EB2;" cx="164.724" cy="122.19" r="28.352"/>
		<path style="fill:#804EA0;" d="M191.041,111.632c5.828,14.535-1.232,31.049-15.767,36.878c-9.254,3.711-19.31,2.195-26.888-3.16
			c2.848-0.205,5.724-0.852,8.527-1.976c14.535-5.829,21.59-22.33,15.762-36.865c-2.114-5.272-5.633-9.56-9.955-12.6
			C174.682,93.056,186.34,99.909,191.041,111.632z"/>
	</g>
	<g>
		<g>
			<path style="fill:#F82F40;" d="M175.287,187.759c-4.47,3.807-4.006,10.843,0.917,14.043c11.837,7.694,25.978,8.308,35.238,0.422
				c9.26-7.886,10.908-21.944,5.198-34.855c-2.375-5.37-9.248-6.95-13.718-3.143L175.287,187.759z"/>
			<path style="fill:#E22334;" d="M211.44,202.22c-9.12,7.77-22.99,7.3-34.72-0.1c6.3,0.21,12.28-1.6,17-5.62
				c8.18-6.97,10.42-18.75,6.89-30.31l2.31-1.96c4.47-3.81,11.35-2.23,13.72,3.14C222.35,180.28,220.7,194.34,211.44,202.22z"/>
		</g>
		<path style="fill:#FB4A59;" d="M246.85,243.8c-0.69,0.58-1.39,1.13-2.12,1.64c-11.65-0.12-22.95-0.44-33.76-0.92
			c-1.47-1.14-2.84-2.45-4.09-3.92c-10.15-11.92-8.72-29.82,3.21-39.97c11.92-10.15,29.81-8.72,39.96,3.21
			C260.21,215.76,258.77,233.65,246.85,243.8z"/>
		<path style="fill:#F82F40;" d="M246.85,243.8c-0.69,0.58-1.39,1.13-2.12,1.64c-9.35-0.1-18.47-0.32-27.29-0.66
			c11.81-2.69,20.99-12.81,21.94-25.52c0.78-10.36-4.11-19.83-12.05-25.37c8.4-0.33,16.85,3.05,22.72,9.95
			C260.21,215.76,258.77,233.65,246.85,243.8z"/>
	</g>
	<g>
		<path d="M473.153,246.355V117.442C473.153,52.685,420.469,0,355.711,0H156.289C91.531,0,38.847,52.685,38.847,117.442v128.913
			c0,11.194,6.442,21.027,16.21,25.637c-8.562,21.815-13.088,46.813-13.088,72.532c0,36.909,9.191,71.716,25.88,98.007
			c17.36,27.35,40.797,42.411,65.992,42.411c1.277,0,2.559-0.054,3.835-0.133c15.185,12.795,32.37,19.593,50.335,19.593
			c9.521,0,18.921-1.962,27.99-5.786C227.656,507.323,240.385,512,253.52,512c13.952,0,27.329-5.113,39.462-14.713
			c9.993,4.719,20.409,7.116,31.008,7.116c17.965,0,35.15-6.798,50.334-19.592c1.277,0.079,2.559,0.132,3.836,0.132
			c25.195,0,48.632-15.062,65.992-42.411c16.688-26.291,25.88-61.098,25.88-98.007c0-25.719-4.526-50.717-13.087-72.531
			C466.714,267.386,473.153,257.561,473.153,246.355z M109.856,238.442c-16.851,29.21-26.069,66.528-26.069,106.083
			c0,42.107,10.476,81.8,29.498,111.767c2.736,4.31,5.609,8.341,8.596,12.105c-15.424-3.998-29.803-15.685-41.368-33.904
			c-15.183-23.918-23.544-55.869-23.544-89.968c0-46.847,16.271-89.786,41.807-111.388
			C102.594,235.882,107.406,237.578,109.856,238.442z M263.642,187.586c7.217,12.611,18.258,22.17,31.543,27.498l-6.089,22.379
			c-9.286,0.302-18.793,0.476-28.418,0.519c1.951-3.987,3.163-8.342,3.528-12.899c0.766-9.546-2.234-18.818-8.444-26.104
			c-2.881-3.387-6.3-6.149-10.086-8.223c2.762-6.325,6.991-11.835,12.346-16.13C259.402,179.089,261.266,183.434,263.642,187.586z
			 M270.785,74.903c-0.507-0.171-0.723-0.541-0.814-0.821c-0.131-0.402-0.073-0.78,0.169-1.125l20.938-29.649
			c0.244-0.344,0.581-0.524,1.004-0.535c0.286-0.021,0.717,0.071,1.046,0.491c4.952,6.291,7.135,13.619,5.974,19.854
			c-1.561,1.517-3.01,3.19-4.31,5.03c-1.282,1.816-2.368,3.735-3.277,5.722C286.033,77.057,278.344,77.458,270.785,74.903z
			 M327.958,92.647c-0.929-0.102-2.886-0.371-3.813-0.424c-6.922-0.554-13.761,0.035-20.292,1.65
			c-1.439-5.824-0.326-12.093,3.192-17.072c6.631-9.391,19.669-11.635,29.062-5.005c8.1,5.721,10.868,16.202,7.225,25.004
			c-2.423-0.991-4.923-1.85-7.498-2.551C333.211,93.536,330.582,93.018,327.958,92.647z M377.369,102.757
			c0.508,0.171,0.723,0.541,0.814,0.821c0.131,0.402,0.073,0.78-0.169,1.125l-8.472,11.996c-3.71-4.784-8.093-9.026-13.034-12.591
			c0.053-0.113,0.109-0.225,0.161-0.338C362.146,100.601,369.843,100.213,377.369,102.757z M350.958,211.283
			c32.741,3.797,46.078,8.4,51.239,10.935c-4.727,2.318-16.313,6.371-43.414,9.965c-7.197,0.954-14.931,1.798-23.081,2.528
			c3.141-5.966,5.24-12.462,6.142-19.165C344.958,214.358,348.063,212.944,350.958,211.283z M330.979,343.575
			c-16.829,0-30.521-13.691-30.521-30.52c0-16.829,13.691-30.521,30.521-30.521c16.828,0,30.52,13.691,30.52,30.521
			C361.499,329.884,347.808,343.575,330.979,343.575z M322.662,268.31c-21.14,3.922-37.203,22.487-37.203,44.745
			c0,25.1,20.421,45.52,45.521,45.52c0.748,0,1.491-0.021,2.23-0.057c-0.239,4.892-0.61,9.754-1.096,14.557
			c-22.528,4.674-49.594,5.211-76.114,5.211c-11.443,0-20.625-0.13-28.896-0.408c-2.027-0.075-4.004,0.69-5.465,2.104
			c-1.462,1.413-2.287,3.358-2.287,5.392v11.359h-11.137c-1.343-5.204-2.055-10.489-2.417-14.017
			c-0.361-3.521-3.135-6.31-6.653-6.69c-9.047-0.98-17.131-2.34-24.339-4.099c-0.446-4.593-0.781-9.248-1.001-13.925
			c2.36,0.373,4.769,0.571,7.216,0.571c25.1,0,45.52-20.42,45.52-45.52c0-23.902-18.521-43.547-41.964-45.368
			c1.82-5.83,3.847-11.451,6.064-16.798c20.272,1.38,42.448,2.109,65.359,2.109c21.106,0,41.591-0.617,60.537-1.793
			C318.781,256.646,320.829,262.371,322.662,268.31z M316.604,236.16c-3.868,0.245-7.798,0.468-11.789,0.665l4.843-17.798
			c3.157,0.473,6.316,0.714,9.453,0.714c2.232,0,4.453-0.122,6.654-0.354C324.024,225.561,320.894,231.325,316.604,236.16z
			 M213.906,237.132c-3.61-4.24-6.67-11.028-6.225-16.581c0.444-5.554,3.026-10.6,7.271-14.211c4.24-3.609,9.629-5.357,15.182-4.908
			c5.551,0.444,10.595,3.026,14.208,7.273c3.612,4.238,5.357,9.629,4.912,15.179c-0.438,5.46-2.952,10.423-7.07,14.022
			C232.568,237.778,223.105,237.518,213.906,237.132z M210.655,191.1c-1.901,1.095-3.72,2.365-5.426,3.818
			c-1.707,1.453-3.251,3.045-4.635,4.748c-6.088,1.71-13.649,0.174-20.302-4.152c-0.449-0.292-0.566-0.704-0.585-0.998
			c-0.027-0.422,0.121-0.774,0.442-1.048l27.636-23.533c0.32-0.271,0.688-0.365,1.104-0.27c0.287,0.065,0.675,0.247,0.892,0.736
			C212.981,177.638,213.306,185.372,210.655,191.1z M175.027,209.841c5.895,3.275,12.149,5.123,18.264,5.466
			c-0.258,1.328-0.452,2.676-0.562,4.045c-0.468,5.837,0.477,11.569,2.695,16.81c-15.306-0.969-29.58-2.305-42.208-3.979
			c-27.205-3.607-38.777-7.679-43.469-9.992C116.456,218.94,134.84,213.521,175.027,209.841z M125.949,448.253
			c-17.516-27.594-27.162-64.433-27.162-103.729c0-38.526,9.239-74.586,26.068-101.971c5.76,1.272,12.304,2.456,19.601,3.544
			c9.301,1.386,19.549,2.578,30.523,3.563c-2.428,6.281-4.612,12.863-6.532,19.667c-11.385,3.283-21.248,10.931-27.188,21.57
			c-2.019,3.617-0.724,8.186,2.893,10.205c3.616,2.019,8.186,0.724,10.205-2.893c5.397-9.668,15.614-15.674,26.664-15.674
			c16.828,0,30.52,13.691,30.52,30.521c0,16.828-13.691,30.52-30.52,30.52c-11.667,0-22.146-6.501-27.345-16.965
			c-1.843-3.71-6.348-5.221-10.054-3.38c-3.71,1.844-5.223,6.345-3.38,10.054c4.163,8.378,10.598,15.048,18.358,19.431
			c0.129,4.774,0.375,9.547,0.729,14.281c-2.71-1.111-5.254-2.305-7.622-3.595c-5.918-3.223-13.14-2.24-17.974,2.441
			c-4.816,4.663-6.027,11.821-3.013,17.811c10.247,20.37,25.006,38.949,42.682,53.731c0.382,0.319,0.771,0.622,1.154,0.937
			c0.015,0.041,0.025,0.083,0.04,0.124c7.612,19.997,17.483,36.489,28.823,48.757c-5.072,1.458-10.228,2.2-15.411,2.2
			C164.833,489.402,142.793,474.788,125.949,448.253z M198.39,454.406c12.527,6.782,25.604,11.431,38.748,13.674
			c0.427,0.072,0.851,0.107,1.27,0.107c3.588,0,6.761-2.584,7.385-6.24c0.696-4.083-2.049-7.957-6.133-8.654
			c-37.951-6.474-75.452-36.454-95.537-76.381c-0.043-0.085-0.058-0.137-0.063-0.142c0.036-0.102,0.207-0.256,0.291-0.271
			c0.001,0,0.061,0.008,0.184,0.074c12.102,6.596,27.554,11.082,47.102,13.66c0.48,3.177,1.152,6.769,2.086,10.363
			c1.699,6.558,7.616,11.138,14.389,11.138h11.384c8.193,0,14.858-6.665,14.858-14.858v-3.793
			c6.407,0.139,13.464,0.204,21.647,0.204c40.889,0,83.177-1.291,111.463-16.712c0.117-0.064,0.178-0.075,0.177-0.076
			c0.099,0.016,0.279,0.181,0.305,0.239c0,0.001-0.008,0.055-0.068,0.175c-20.047,39.848-57.476,69.815-95.355,76.348
			c-4.082,0.703-6.82,4.583-6.116,8.665c0.703,4.081,4.588,6.82,8.665,6.116c10.64-1.834,21.235-5.251,31.53-10.09
			C291.946,482.729,272.899,497,253.52,497C233.013,497,213.257,481.437,198.39,454.406z M330.177,443.939
			c2.878-2.094,5.716-4.292,8.497-6.621c17.639-14.77,32.37-33.327,42.598-53.658c3.021-5.988,1.814-13.146-3.001-17.812
			c-4.837-4.688-12.063-5.671-17.985-2.445c-3.904,2.128-8.168,3.953-12.73,5.52c0.373-4.573,0.64-9.182,0.802-13.803
			c16.502-6.843,28.142-23.117,28.142-42.065c0-22.623-16.592-41.438-38.245-44.932c-1.792-6.228-3.81-12.266-6.031-18.052
			c12.792-1.058,24.678-2.388,35.32-3.974c7.297-1.087,13.84-2.272,19.6-3.544c16.829,27.385,26.069,63.444,26.069,101.971
			c0,39.296-9.646,76.135-27.162,103.729c-16.844,26.535-38.884,41.149-62.062,41.149c-6.459,0-12.86-1.162-19.118-3.417
			C314.41,475.272,323.201,460.514,330.177,443.939z M402.144,238.442c2.45-0.864,7.261-2.56,11.08-5.305
			c25.536,21.603,41.807,64.541,41.807,111.388c0,34.099-8.361,66.05-23.544,89.968c-11.565,18.219-25.944,29.906-41.368,33.904
			c2.987-3.764,5.86-7.795,8.596-12.105c19.022-29.967,29.498-69.659,29.498-111.767
			C428.213,304.969,418.995,267.651,402.144,238.442z M458.153,246.355c0,5.168-2.898,9.717-7.329,11.948
			c-8.444-16.678-19.233-30.207-31.635-39.598c-2.18-7.176-12.69-14.697-52.308-20.476c2.893-3.27,5.485-6.872,7.708-10.788
			c2.046-3.602,0.784-8.18-2.818-10.225c-3.601-2.046-8.18-0.783-10.225,2.818c-11.014,19.394-33.756,28.842-55.306,22.979
			c-12.593-3.426-23.099-11.551-29.58-22.878c-4.605-8.046-6.774-17.024-6.424-26.064c1.498,5.959,4.266,11.58,8.225,16.518
			c7.242,9.036,17.57,14.711,29.081,15.979c1.34,0.147,2.67,0.22,3.988,0.22c18.19-0.001,33.902-13.732,35.94-32.225
			c0.891-8.084-1.421-16.03-6.508-22.376c-5.086-6.346-12.339-10.331-20.424-11.222c-14.165-1.565-26.971,8.699-28.532,22.871
			c-0.453,4.117,2.517,7.822,6.634,8.276c4.104,0.44,7.822-2.516,8.276-6.634c0.655-5.951,6.037-10.245,11.98-9.604
			c4.102,0.451,7.781,2.474,10.362,5.693c2.58,3.219,3.753,7.251,3.301,11.352c-1.279,11.612-11.78,20.019-23.376,18.737
			c-7.528-0.829-14.283-4.54-19.02-10.45c-4.737-5.909-6.889-13.31-6.06-20.838c1.091-9.908,5.976-18.798,13.754-25.032
			c7.235-5.8,16.162-8.654,25.354-8.143c2.886,0.248,5.788,0.741,8.681,1.529c19.195,5.222,33.193,21.358,35.661,41.108
			c0.514,4.109,4.273,7.014,8.372,6.512c4.11-0.514,7.026-4.263,6.513-8.373c-0.748-5.98-2.313-11.701-4.576-17.055l12.402-17.56
			c2.991-4.236,3.784-9.494,2.178-14.426c-1.609-4.937-5.354-8.721-10.273-10.384c-7.599-2.568-15.297-3.124-22.303-1.743
			c-0.079-1.35-0.225-2.704-0.458-4.057c-1.625-9.438-6.828-17.678-14.651-23.203c-9.284-6.555-20.637-8.056-30.78-5.088
			c-1.053-7.086-4.141-14.215-9.065-20.47c-3.211-4.08-8.02-6.352-13.223-6.208c-5.185,0.135-9.874,2.642-12.865,6.878
			l-20.938,29.649c-2.991,4.235-3.785,9.493-2.179,14.425c1.609,4.937,5.354,8.722,10.274,10.385
			c4.927,1.665,9.886,2.488,14.668,2.488c2.619,0,5.184-0.25,7.663-0.741c0.155,2.802,0.626,5.594,1.442,8.316
			c-15.33,7.934-27.429,21.998-32.308,39.927c-1.73,6.361-2.452,12.835-2.211,19.24c-10.938,6.515-19.316,16.348-24.014,28.13
			c-1.336-0.104-2.664-0.128-3.984-0.086c0.739-7.112-0.505-14.738-3.739-22.051c-2.101-4.75-6.209-8.138-11.271-9.294
			c-5.055-1.15-10.219,0.112-14.168,3.474l-27.636,23.533c-3.948,3.361-6.021,8.258-5.687,13.434
			c0.007,0.101,0.028,0.198,0.037,0.299c-18.523,1.967-34.207,4.526-45.771,7.491c-10.952,2.81-23.326,7.056-26.107,15.367
			c-12.438,9.393-23.257,22.946-31.721,39.661c-4.43-2.232-7.33-6.783-7.33-11.946V117.442C53.847,60.955,99.802,15,156.289,15
			h199.422c56.487,0,102.442,45.955,102.442,102.442V246.355z"/>
		<path d="M221.283,79.964c-1.926-4.814-5.906-8.34-10.919-9.672c-5.02-1.334-10.235-0.247-14.301,2.979
			c-6.269,4.964-10.922,11.139-13.576,17.781c-1.181-0.671-2.401-1.286-3.668-1.828c-8.806-3.764-18.551-3.876-27.438-0.311
			c-8.889,3.564-15.857,10.377-19.622,19.183c-0.542,1.268-0.999,2.556-1.39,3.858c-6.512-2.967-14.145-4.219-22.101-3.482
			c-5.173,0.479-9.691,3.297-12.397,7.729c-2.703,4.427-3.144,9.725-1.212,14.529l13.508,33.686
			c1.926,4.814,5.905,8.34,10.918,9.672c1.407,0.374,2.829,0.558,4.236,0.558c3.616,0,7.139-1.214,10.065-3.536
			c6.264-4.961,10.916-11.137,13.572-17.784c1.182,0.671,2.403,1.288,3.672,1.83c4.529,1.937,9.306,2.906,14.088,2.906
			c4.515,0,9.033-0.864,13.35-2.596c8.889-3.563,15.857-10.376,19.623-19.182c0.542-1.266,0.998-2.554,1.389-3.854
			c5.282,2.406,11.3,3.685,17.633,3.685c1.471,0,2.958-0.068,4.457-0.207c5.176-0.478,9.698-3.294,12.407-7.728
			c2.704-4.426,3.146-9.725,1.215-14.532L221.283,79.964z M134.471,141.483c-0.333,6.296-4.22,12.976-10.401,17.871
			c-0.419,0.334-0.849,0.313-1.131,0.237c-0.405-0.108-0.689-0.359-0.848-0.753l-13.512-33.696
			c-0.156-0.389-0.124-0.767,0.095-1.125c0.153-0.251,0.447-0.561,0.976-0.61c7.856-0.723,15.28,1.414,19.868,5.721
			c0.432,2.156,1.094,4.32,1.931,6.405C132.282,137.614,133.297,139.63,134.471,141.483z M183.898,130.388
			c-2.19,5.121-6.243,9.083-11.414,11.156c-5.167,2.072-10.836,2.009-15.958-0.181c-5.121-2.189-9.083-6.242-11.156-11.413
			c-2.073-5.169-2.009-10.837,0.181-15.958c2.189-5.122,6.242-9.084,11.413-11.157c2.51-1.007,5.138-1.509,7.764-1.509
			c2.781,0,5.561,0.563,8.194,1.689c5.121,2.19,9.084,6.243,11.157,11.413c0,0,0,0,0,0.001
			C186.152,119.599,186.088,125.267,183.898,130.388z M199.895,115.22c-0.432-2.156-1.058-4.289-1.894-6.374v0.001
			c-0.834-2.08-1.853-4.05-3.026-5.903c0.324-6.285,4.217-13.016,10.407-17.918c0.419-0.333,0.847-0.313,1.13-0.236
			c0.405,0.107,0.69,0.358,0.848,0.752l13.512,33.694c0.155,0.389,0.124,0.767-0.095,1.125c-0.153,0.251-0.449,0.562-0.986,0.611
			C211.943,121.691,204.484,119.527,199.895,115.22z"/>
	</g>
</g>
<g>
</g>
<g>
</g>
<g>
</g>
<g>
</g>
<g>
</g>
<g>
</g>
<g>
</g>
<g>
</g>
<g>
</g>
<g>
</g>
<g>
</g>
<g>
</g>
<g>
</g>
<g>
</g>
<g>
</g>
</svg>
