<?xml version="1.0" encoding="iso-8859-1"?>
<!-- Generator: Adobe Illustrator 24.0.2, SVG Export Plug-In . SVG Version: 6.00 Build 0)  -->
<svg version="1.1" id="Capa_1" xmlns="http://www.w3.org/2000/svg" xmlns:xlink="http://www.w3.org/1999/xlink" x="0px" y="0px"
	 viewBox="0 0 512 512" style="enable-background:new 0 0 512 512;" xml:space="preserve">
<g>
	<g>
		<g>
			<g>
				<path style="fill:#A69CA7;" d="M293.952,232.008l25.436-70.222l-21.841-7.911l-25.436,70.222
					c-15.343,0.089-29.709,9.605-35.24,24.874l-16.088,44.415L289,318.095l16.088-44.415
					C310.619,258.411,305.679,241.902,293.952,232.008z"/>
				<path style="fill:#918291;" d="M319.39,161.789l-14.87,41.03c-3.92-0.25-7.76-1.05-11.48-2.4c-3.79-1.37-7.25-3.23-10.36-5.5
					l14.87-41.04L319.39,161.789z"/>
			</g>
			<path style="fill:#9A5E5F;" d="M301.556,176.912L301.556,176.912c-8.835-3.2-13.403-12.957-10.203-21.792l46.174-127.477
				c3.2-8.835,12.957-13.403,21.792-10.203l0,0c8.835,3.2,13.403,12.957,10.203,21.792l-46.174,127.477
				C320.147,175.544,310.391,180.112,301.556,176.912z"/>
			<path style="fill:#845152;" d="M370.54,33.439c0,1.92-0.33,3.88-1.02,5.79l-46.17,127.48c-3.2,8.84-12.96,13.4-21.79,10.2
				c-3.84-1.39-6.87-4.01-8.81-7.26c5.99-0.88,11.31-4.94,13.52-11.04l46.18-127.47c0.69-1.91,1.02-3.87,1.02-5.79
				c0-3.11-0.86-6.13-2.42-8.74c2.69-0.41,5.52-0.16,8.27,0.83C366.24,19.949,370.54,26.479,370.54,33.439z"/>
		</g>
		<g>
			<g>
				<g>
					
						<ellipse transform="matrix(0.7071 -0.7071 0.7071 0.7071 -132.4958 359.0665)" style="fill:#F2EFF2;" cx="367.184" cy="339.47" rx="57.484" ry="57.484"/>
					<path style="fill:#CBC5CB;" d="M424.668,339.466c0,31.749-25.736,57.485-57.485,57.485c-8.995,0-17.51-2.067-25.09-5.752
						c1.683,0.16,3.387,0.232,5.114,0.232c31.742,0,57.485-25.736,57.485-57.485c0-22.747-13.223-42.412-32.402-51.733
						C401.645,284.796,424.668,309.444,424.668,339.466z"/>
				</g>
				<g>
					<g>
						<circle style="fill:#433F43;" cx="363.938" cy="336.575" r="29.183"/>
						<path style="fill:#353435;" d="M393.12,336.575c0,16.12-13.06,29.18-29.18,29.18c-15.9,0-28.82-12.7-29.16-28.52
							c5.16,4.6,11.96,7.39,19.42,7.39c16.11,0,29.18-13.06,29.18-29.18c0-0.22,0-0.44-0.02-0.65
							C389.35,320.135,393.12,327.915,393.12,336.575z"/>
					</g>
				</g>
			</g>
		</g>
		<g>
			<circle style="fill:#FCC16D;" cx="187.536" cy="346.007" r="81.112"/>
			<circle style="fill:#FFD496;" cx="187.536" cy="346.007" r="51.471"/>
			<circle style="fill:#FB9927;" cx="187.536" cy="346.007" r="22.004"/>
		</g>
		<g>
			<g>
				<g>
					<circle style="fill:#F2EFF2;" cx="129.508" cy="303.125" r="57.484"/>
					<path style="fill:#CBC5CB;" d="M182.145,280.022c12.758,29.073-0.466,62.981-29.539,75.74
						c-8.236,3.614-16.865,5.143-25.287,4.815c1.605-0.53,3.195-1.149,4.776-1.842c29.066-12.755,42.297-46.667,29.539-75.74
						c-9.141-20.83-29.152-33.523-50.459-34.352C139.094,239.212,170.081,252.53,182.145,280.022z"/>
				</g>
				<g>
					<g>
						<circle style="fill:#433F43;" cx="132.759" cy="300.351" r="29.183"/>
						<path style="fill:#353435;" d="M144.49,327.075c-9.23,4.05-19.42,2.94-27.34-2.07c1.94-0.4,3.86-1.01,5.75-1.84
							c14.76-6.48,21.48-23.69,15-38.45c-2.43-5.54-6.37-9.94-11.12-12.94c13.24-2.77,27.06,3.98,32.7,16.85
							C165.96,303.385,159.25,320.595,144.49,327.075z"/>
					</g>
				</g>
			</g>
		</g>
		<g>
			<path style="fill:#FFD496;" d="M474.47,451.448c1.435-6.037,2.213-12.328,2.213-18.804c0-44.797-36.315-81.112-81.112-81.112
				c-44.797,0-81.112,36.315-81.112,81.112c0,6.476,0.778,12.767,2.213,18.804H474.47z"/>
			<path style="fill:#FCA62F;" d="M443.476,451.448c2.29-5.827,3.567-12.164,3.567-18.804c0-28.427-23.044-51.471-51.471-51.471
				c-28.427,0-51.47,23.044-51.47,51.471c0,6.64,1.276,12.977,3.567,18.804H443.476z"/>
			<path style="fill:#F98824;" d="M384.162,451.448h22.82c6.348-3.859,10.594-10.832,10.594-18.804
				c0-12.153-9.852-22.004-22.004-22.004c-12.153,0-22.004,9.852-22.004,22.004C373.567,440.616,377.813,447.589,384.162,451.448z"
				/>
		</g>
		<g>
			<path style="fill:#FCC16D;" d="M177.966,451.448c8.17-12.659,12.93-27.724,12.93-43.911c0-44.797-36.315-81.112-81.112-81.112
				c-44.797,0-81.112,36.315-81.112,81.112c0,16.187,4.76,31.252,12.93,43.911H177.966z"/>
			<path style="fill:#FCA62F;" d="M82.926,451.448h53.716c14.762-9.048,24.613-25.328,24.613-43.911
				c0-28.427-23.044-51.471-51.471-51.471s-51.471,23.044-51.471,51.471C58.313,426.12,68.164,442.4,82.926,451.448z"/>
			<circle style="fill:#FB9927;" cx="109.784" cy="407.537" r="22.004"/>
		</g>
		<g>
			<path style="fill:#FCC16D;" d="M221.221,451.448h111.236c15.691-14.791,25.493-35.759,25.493-59.024
				c0-44.797-36.315-81.112-81.111-81.112s-81.112,36.315-81.112,81.112C195.728,415.689,205.531,436.658,221.221,451.448z"/>
			<circle style="fill:#FCA62F;" cx="276.839" cy="392.424" r="51.471"/>
			<circle style="fill:#F98824;" cx="276.839" cy="392.424" r="22.004"/>
		</g>
		<g>
			<path style="fill:#F82F40;" d="M229.437,319.848v19.622c0,9.41,7.628,17.038,17.038,17.038h0c9.41,0,17.038-7.628,17.038-17.038
				v-2.229c0-9.41,7.628-17.038,17.038-17.038h0c9.41,0,17.038,7.628,17.038,17.038v68.175c0,9.41,7.628,17.038,17.038,17.038h0
				c9.41,0,17.038-7.628,17.038-17.038v-85.568c0-22.707-18.408-41.114-41.114-41.114h-19.999
				C247.845,278.733,229.437,297.141,229.437,319.848z"/>
			<path style="fill:#E22334;" d="M331.67,319.849v85.57c0,4.7-1.91,8.96-4.99,12.05c-3.08,3.08-7.34,4.99-12.05,4.99
				c-5.14,0-9.74-2.27-12.86-5.87c2.6-3,4.18-6.9,4.18-11.17v-85.57c0-21.75-16.88-39.55-38.26-41.02c0.94-0.07,1.9-0.1,2.86-0.1h20
				C313.26,278.729,331.67,297.139,331.67,319.849z"/>
		</g>
		<g>
			<path style="fill:#FFD496;" d="M268.281,451.448c0.23-2.489,0.367-5.004,0.367-7.553c0-44.797-36.315-81.112-81.112-81.112
				c-44.797,0-81.112,36.315-81.112,81.112c0,2.549,0.136,5.065,0.367,7.553H268.281z"/>
			<path style="fill:#FCC16D;" d="M238.435,451.448c0.365-2.467,0.571-4.985,0.571-7.553c0-28.427-23.044-51.471-51.471-51.471
				s-51.471,23.044-51.471,51.471c0,2.568,0.206,5.087,0.571,7.553H238.435z"/>
			<path style="fill:#FCA62F;" d="M208.179,451.448c0.864-2.359,1.361-4.895,1.361-7.553c0-12.153-9.852-22.004-22.004-22.004
				c-12.153,0-22.004,9.852-22.004,22.004c0,2.658,0.496,5.195,1.361,7.553H208.179z"/>
		</g>
		<g>
			<path style="fill:#20B69F;" d="M489.972,444.094H22.028c-8.024,0-14.528,6.505-14.528,14.528v3.835
				c0,18.299,14.834,33.133,33.133,33.133h430.735c18.299,0,33.133-14.834,33.133-33.133v-3.835
				C504.5,450.599,497.995,444.094,489.972,444.094z"/>
			<path style="fill:#17998C;" d="M504.498,462.45v-3.833c0-8.012-6.504-14.529-14.529-14.529h-45.387
				c8.026,0,14.529,6.518,14.529,14.529v3.833c0,18.307-14.834,33.141-33.141,33.141h45.401
				C489.665,495.591,504.498,480.757,504.498,462.45z"/>
		</g>
	</g>
	<path d="M489.972,436.595h-5.891c0.059-1.317,0.099-2.635,0.099-3.95c0-29.287-14.285-55.296-36.25-71.438
		c10.942-4.599,18.645-15.426,18.645-28.019c0-4.143-3.357-7.5-7.5-7.5s-7.5,3.357-7.5,7.5c0,8.479-6.899,15.379-15.379,15.379
		h-4.67c0.421-3.006,0.641-6.046,0.641-9.097c0-10.433-2.415-20.418-7.178-29.679c-1.896-3.685-6.418-5.135-10.101-3.239
		c-3.684,1.895-5.134,6.417-3.239,10.101c3.661,7.117,5.518,14.795,5.518,22.817c0,2.385-0.188,4.759-0.521,7.105
		c-5.432-1.33-11.058-2.162-16.828-2.435c0.522-2.48,0.803-5.015,0.803-7.564c0-20.228-16.456-36.684-36.683-36.684
		c-9.961,0-19.06,3.971-25.705,10.487c-0.649-3.272-1.621-6.43-2.892-9.432c8.947-7.406,20.154-11.46,31.843-11.46
		c7.959,0,15.581,1.828,22.655,5.435c3.69,1.883,8.206,0.416,10.088-3.275c1.882-3.69,0.415-8.207-3.275-10.088
		c-9.204-4.692-19.118-7.071-29.468-7.071c-14.522,0-28.469,4.82-39.831,13.65c-4.221-4.892-9.394-8.937-15.235-11.841l0.023-0.065
		c5.809-16.026,1.973-33.982-9.475-46.265l17.434-48.122c4.761-2.888,8.376-7.271,10.3-12.582l46.174-127.476
		c2.23-6.156,1.93-12.813-0.847-18.744c-2.776-5.93-7.696-10.424-13.853-12.654c-6.158-2.229-12.814-1.93-18.744,0.848
		c-5.93,2.776-10.424,7.696-12.654,13.853l-22.558,62.276c-1.41,3.895,0.603,8.195,4.497,9.606s8.195-0.602,9.606-4.497
		l22.558-62.277c0.865-2.39,2.609-4.299,4.911-5.376c2.303-1.078,4.886-1.193,7.274-0.329c2.39,0.865,4.299,2.609,5.377,4.911
		c1.077,2.302,1.194,4.885,0.328,7.274l-46.174,127.477c-0.865,2.39-2.609,4.299-4.911,5.377c-2.301,1.077-4.885,1.194-7.275,0.328
		c-2.39-0.865-4.299-2.609-5.376-4.91c-1.077-2.302-1.194-4.885-0.328-7.275l11.605-32.041c1.41-3.895-0.604-8.194-4.498-9.605
		c-3.895-1.412-8.194,0.604-9.605,4.498l-11.605,32.04c-1.925,5.314-1.96,11.001-0.149,16.272l-17.429,48.109
		c-16.654,2.102-31.098,13.438-36.905,29.475l-6.677,18.433c-11.101-4.874-23.179-7.459-35.606-7.459
		c-2.311,0-4.627,0.1-6.931,0.278v-3.339c0-8.339,6.784-15.123,15.123-15.123c4.143,0,7.5-3.357,7.5-7.5s-3.357-7.5-7.5-7.5
		c-14.93,0-27.351,10.919-29.712,25.19c-17.889-12.115-41.418-15.091-62.62-5.784c-15.894,6.977-28.121,19.724-34.429,35.896
		c-5.705,14.626-5.93,30.463-0.769,45.107h-0.052c-8.12,0-14.726-6.605-14.726-14.726c0-4.143-3.357-7.5-7.5-7.5s-7.5,3.357-7.5,7.5
		c0,12.111,7.285,22.547,17.7,27.175c-21.227,16.203-34.951,41.76-34.951,70.465c0,10.018,1.644,19.755,4.889,29.06h-4.031
		C9.882,436.595,0,446.477,0,458.623v3.834c0,22.405,18.228,40.633,40.633,40.633h92.611c4.143,0,7.5-3.357,7.5-7.5
		s-3.357-7.5-7.5-7.5H40.633C26.499,488.09,15,476.591,15,462.457v-3.834c0-3.875,3.153-7.028,7.028-7.028h467.943
		c3.875,0,7.028,3.153,7.028,7.028v3.834c0,14.134-11.499,25.633-25.633,25.633H168.639c-4.143,0-7.5,3.357-7.5,7.5
		s3.357,7.5,7.5,7.5h302.729c22.405,0,40.633-18.228,40.633-40.633v-3.834C512,446.477,502.118,436.595,489.972,436.595z
		 M469.18,432.644c0,1.316-0.041,2.635-0.112,3.95h-14.676c0.088-1.316,0.148-2.634,0.148-3.95c0-32.516-26.454-58.97-58.97-58.97
		c-11.011,0-21.556,3.006-30.713,8.613c-0.581-5.135-1.593-10.172-3.037-15.065c10.379-5.363,21.958-8.188,33.75-8.188
		C436.158,359.035,469.18,392.057,469.18,432.644z M424.81,436.595c0.173-1.298,0.271-2.615,0.271-3.95
		c0-16.271-13.238-29.51-29.51-29.51c-16.267,0-29.5,13.238-29.5,29.51c0,1.335,0.098,2.651,0.27,3.95h-12.683
		c6.314-10.911,10.165-22.947,11.368-35.563c8.238-7.969,19.05-12.357,30.544-12.357c24.245,0,43.97,19.725,43.97,43.97
		c0,1.316-0.062,2.636-0.179,3.95H424.81z M381.633,436.595c-0.36-1.27-0.563-2.587-0.563-3.95c0-8.001,6.505-14.51,14.5-14.51
		c8.001,0,14.51,6.509,14.51,14.51c0,1.366-0.204,2.683-0.565,3.95H381.633z M315.849,436.595c2.861-2.517,5.494-5.315,7.842-8.383
		c9.056-3.613,15.475-12.466,15.475-22.796v-52.167c7.337,11.625,11.284,25.094,11.284,39.176c0,16.109-5.106,31.352-14.754,44.17
		H315.849z M216.108,436.595c-3.283-12.777-14.992-22.2-28.568-22.2c-13.582,0-25.294,9.423-28.578,22.2h-14.787
		c3.45-20.97,21.494-36.67,43.365-36.67c21.866,0,39.906,15.7,43.354,36.67H216.108z M200.04,436.595h-25.009
		c2.538-4.306,7.233-7.2,12.509-7.2C192.812,429.394,197.503,432.288,200.04,436.595z M187.54,384.925
		c-30.187,0-54.943,22.305-58.517,51.67h-14.708c3.703-37.046,35.414-66.31,73.226-66.31c37.807,0,69.513,29.263,73.216,66.31
		h-14.709C242.474,407.23,217.722,384.925,187.54,384.925z M76.795,436.595c-7.083-8.031-10.985-18.323-10.985-29.06
		c0-24.245,19.725-43.97,43.97-43.97c9.462,0,18.444,2.967,25.921,8.45c-3.569,2.583-6.972,5.442-10.174,8.579
		c-0.422,0.413-0.819,0.845-1.231,1.266c-4.404-2.484-9.415-3.826-14.512-3.826c-16.269,0-29.505,13.235-29.505,29.504
		c0,12.387,7.803,23.343,19.102,27.608c-0.047,0.483-0.097,0.965-0.136,1.449H76.795z M102.215,419.913
		c-4.199-2.581-6.936-7.227-6.936-12.376c0-7.997,6.507-14.504,14.505-14.504c1.606,0,3.163,0.261,4.638,0.758
		C108.922,401.788,104.818,410.602,102.215,419.913z M175.94,348.591c4.967-5.069,8.986-10.847,11.998-17.068
		c7.471,0.207,13.535,6.079,14.05,13.469c-2.175,3.426-4.117,7.001-5.806,10.708c-2.855-0.275-5.739-0.416-8.642-0.416
		c-2.021,0-4.027,0.092-6.025,0.226C179.764,353.099,177.902,350.792,175.94,348.591z M290.09,398.401
		c-2.455,4.999-7.676,8.524-13.25,8.524c-4.958,0-9.34-2.505-11.956-6.313c-0.316-0.563-0.652-1.116-0.98-1.673
		c-0.992-1.961-1.564-4.17-1.564-6.514c0-7.995,6.505-14.5,14.5-14.5c5.574,0,10.795,3.525,13.25,8.524V398.401z M273.333,421.709
		c1.151,0.137,2.32,0.216,3.507,0.216c5.919,0,11.505-1.736,16.212-4.83c2.388,4.394,6.082,7.975,10.553,10.234
		c-7.573,5.843-16.874,9.067-26.765,9.067c-0.344,0-0.69-0.026-1.036-0.034C275.386,431.379,274.559,426.482,273.333,421.709z
		 M269.018,349.154c2.571-0.46,5.192-0.701,7.822-0.701c4.54,0,8.982,0.693,13.25,2.042v15.553
		c-4.022-2.013-8.529-3.123-13.25-3.123c-12.137,0-22.582,7.369-27.104,17.866c-0.065-0.064-0.126-0.133-0.191-0.197
		c-3.521-3.45-7.294-6.551-11.257-9.33c1.458-2.654,3.191-5.141,5.174-7.448c0.989,0.122,1.993,0.192,3.015,0.192
		C256.568,364.008,265.254,357.882,269.018,349.154z M271.703,333.699c1.41-3.509,4.841-5.996,8.849-5.996
		c4.447,0,8.182,3.063,9.233,7.188c-4.224-0.948-8.551-1.438-12.945-1.438C275.123,333.453,273.41,333.551,271.703,333.699z
		 M222.208,343.099c0.82,5.508,3.48,10.42,7.329,14.099c-1.549,2.075-2.946,4.254-4.208,6.517c-4.463-2.107-9.1-3.819-13.863-5.148
		C214.369,352.972,217.981,347.775,222.208,343.099z M221.938,319.848v3.033c-3.19,2.521-6.193,5.247-8.991,8.158
		c-4.259-7.202-11.487-12.442-19.99-14.028c1.032-4.722,1.549-9.559,1.514-14.422c10.834,1.706,20.583,7.38,27.497,16.093
		C221.958,319.07,221.938,319.456,221.938,319.848z M363.938,314.892c11.956,0,21.683,9.728,21.683,21.684
		c0,2.828-0.559,5.627-1.619,8.219c-9.632,1.264-18.989,4.103-27.683,8.402c-3.593-7.263-8.186-14.063-13.747-20.201
		C344.291,322.601,353.267,314.892,363.938,314.892z M324.166,319.848v85.568c0,5.26-4.278,9.538-9.538,9.538
		s-9.538-4.278-9.538-9.538v-68.175c0-13.53-11.008-24.538-24.538-24.538s-24.538,11.008-24.538,24.538v2.229
		c0,5.26-4.278,9.538-9.538,9.538s-9.538-4.278-9.538-9.538v-19.622c0-18.535,15.079-33.614,33.614-33.614h20
		C309.087,286.233,324.166,301.312,324.166,319.848z M243.922,251.528c4.292-11.849,15.638-19.86,28.232-19.934
		c3.141-0.019,5.938-1.992,7.008-4.945l16.097-44.431c1.19,0.672,2.431,1.27,3.742,1.745c1.31,0.475,2.644,0.828,3.988,1.074
		l-16.09,44.414c-1.069,2.953-0.186,6.26,2.214,8.286c9.63,8.128,13.217,21.544,8.926,33.385l-0.237,0.655
		c-2.366-0.355-4.786-0.543-7.249-0.543h-2.205l1.727-4.767c1.41-3.895-0.603-8.195-4.497-9.606
		c-3.899-1.411-8.195,0.604-9.606,4.497l-3.578,9.876h-1.84c-2.877,0-5.692,0.266-8.434,0.747l5.008-13.827
		c1.41-3.895-0.604-8.195-4.498-9.605c-3.887-1.41-8.193,0.603-9.605,4.498l-8.962,24.745c-2.444-2.029-4.98-3.918-7.601-5.659
		L243.922,251.528z M233.452,288.481c-3.174,3.749-5.798,7.977-7.73,12.568c-9.289-7.924-20.816-12.766-33.197-13.798
		c-0.871-3.465-2.037-6.89-3.507-10.241c-0.693-1.58-1.459-3.105-2.26-4.601c0.259-0.003,0.519-0.013,0.778-0.013
		C204.37,272.395,220.443,278.073,233.452,288.481z M82.941,284.964c4.852-12.438,14.257-22.244,26.483-27.611
		c25.232-11.077,54.778,0.445,65.857,25.686c8.29,18.894,4.012,40.852-10.236,55.239c-3.612-2.882-7.433-5.475-11.431-7.751
		c14.166-9.785,19.905-28.578,12.735-44.913c-8.12-18.521-29.804-26.981-48.334-18.855c-8.974,3.938-15.875,11.135-19.434,20.263
		s-3.349,19.097,0.588,28.063c0.647,1.478,1.406,2.881,2.224,4.24c-6.133,0.579-12.086,1.781-17.794,3.549
		C78.375,310.737,78.133,297.29,82.941,284.964z M123.222,319.95c-4.216-2.317-8.383-6.478-10.314-10.889
		c-2.328-5.305-2.452-11.196-0.35-16.592c2.104-5.395,6.183-9.647,11.483-11.975c10.959-4.803,23.771,0.197,28.572,11.146
		c4.805,10.946-0.191,23.762-11.141,28.569c-2.24,0.984-5.637,1.747-8.026,1.937C130.097,321.217,126.684,320.48,123.222,319.95z
		 M36.17,407.535c0-40.589,33.021-73.61,73.61-73.61c21.029,0,40.863,8.976,54.735,24.396c-5.2,1.391-10.251,3.244-15.098,5.557
		c-10.87-9.895-24.819-15.312-39.637-15.312c-32.516,0-58.97,26.454-58.97,58.97c0,10.286,2.674,20.266,7.661,29.06H42.173
		C38.205,427.405,36.17,417.648,36.17,407.535z"/>
</g>
<g>
</g>
<g>
</g>
<g>
</g>
<g>
</g>
<g>
</g>
<g>
</g>
<g>
</g>
<g>
</g>
<g>
</g>
<g>
</g>
<g>
</g>
<g>
</g>
<g>
</g>
<g>
</g>
<g>
</g>
</svg>
