<?xml version="1.0" encoding="iso-8859-1"?>
<!-- Generator: Adobe Illustrator 24.0.2, SVG Export Plug-In . SVG Version: 6.00 Build 0)  -->
<svg version="1.1" id="Capa_1" xmlns="http://www.w3.org/2000/svg" xmlns:xlink="http://www.w3.org/1999/xlink" x="0px" y="0px"
	 viewBox="0 0 512 512" style="enable-background:new 0 0 512 512;" xml:space="preserve">
<g>
	<g>
		<path style="fill:#9A5E5F;" d="M297.282,163.258c0,0,36.563-3.224,66.378-47.841c2.662-3.983,8.782-2.93,9.936,1.72l5.303,21.381
			l18.304-0.302c4.566-0.075,7.249,5.114,4.529,8.782c-10.542,14.217-36.221,42.087-84.819,59.141L297.282,163.258z"/>
		<g>
			<g>
				<path style="fill:#FCA863;" d="M299.679,80.426l5.273-57.756c0.744-8.145-5.669-15.169-13.848-15.169h-69.938
					c-8.179,0-14.591,7.024-13.848,15.169l5.273,57.756H299.679z"/>
				<path style="fill:#FEE7C9;" d="M248.2,18.02c0,16.01-12.98,28.99-29,28.99c-3.45,0-6.75-0.6-9.82-1.71l-2.06-22.63
					c-0.75-8.15,5.67-15.17,13.85-15.17h25.05C247.5,10.76,248.2,14.31,248.2,18.02z"/>
				<path style="fill:#FC9744;" d="M304.945,22.671l-5.27,57.749h-32.246l5.27-57.749c0.737-8.148-5.673-15.171-13.85-15.171h32.26
					C299.286,7.5,305.696,14.522,304.945,22.671z"/>
			</g>
		</g>
		<g>
			<path style="fill:#915EB2;" d="M305.939,141.865V99.671h-99.878v42.194c0,28.418-12.342,55.361-33.647,74.167
				c-46.897,41.397-78.25,111.935-78.25,170.727C94.164,476.138,166.62,504.5,256,504.5s161.836-28.362,161.836-117.742
				c0-58.792-31.354-129.33-78.25-170.727C318.281,197.225,305.939,170.283,305.939,141.865z"/>
			<path style="fill:#804EA0;" d="M417.07,370.44c-27.04,9.44-56.46,6.4-73.26,3.27c0.36-1.97,0.55-3.99,0.55-6.02v-56.61
				c0-9.18-2.59-17.89-7.18-25.32c8.15-8.14,21.22-24.54,23.62-47.82c-3.09-3.71-6.29-7.29-9.59-10.73
				c-2.83,0.93-4.93,3.53-5.11,6.68c-1.15,19.23-11.89,33.31-18.74,40.42c-4.94-4.2-10.76-7.45-17.24-9.42
				c-17.6-5.34-35.79-8.01-53.99-8.01c-18.19,0-36.38,2.67-53.98,8.01c-6.56,1.99-12.44,5.3-17.41,9.57
				c-6.84-7.02-17.67-21.09-18.84-40.57c-0.18-3.15-2.29-5.75-5.11-6.68c-3.3,3.44-6.5,7.02-9.59,10.73
				c2.41,23.44,15.65,39.91,23.79,47.99c-4.52,7.4-7.08,16.04-7.08,25.15v56.61c0,2.02,0.19,4.01,0.54,5.97
				c-16.75,3.15-46.34,6.26-73.52-3.22c-0.49,5.24-0.74,10.43-0.76,15.53c14.24,4.39,28.69,5.89,41.8,5.89
				c15.62,0,29.34-2.13,38.54-4.05c1.01,1.38,2.13,2.69,3.35,3.91l8.18,8.18c4.62,4.61,11.67,5.76,17.51,2.85l4.01-2
				c9.25-4.63,19.95,2.84,18.81,13.12c-0.04,0.35-0.05,0.7-0.05,1.04c0,5.03,4.09,9.23,9.25,9.23h41.13c5.51,0,9.8-4.79,9.19-10.27
				c-0.05-0.51-0.08-1.01-0.08-1.51c0-9.48,10.1-16.01,18.9-11.61l4,2c5.85,2.91,12.9,1.76,17.51-2.85l8.19-8.18
				c1.21-1.21,2.31-2.5,3.32-3.86c9.19,1.9,22.81,4,38.3,4c13.1,0,27.56-1.5,41.8-5.88C417.81,380.88,417.56,375.69,417.07,370.44z
				 M244.63,351.76c-1.51,12.34-14.34,20.91-28.64,19.16c-14.31-1.75-24.67-13.18-23.16-25.52c1.51-12.34,14.34-20.91,28.64-19.15
				C235.78,328,246.15,339.43,244.63,351.76z M296.86,370.82c-14.27,2.01-27.24-6.34-28.97-18.65
				c-1.73-12.31,8.44-23.91,22.71-25.92c14.27-2.01,27.24,6.35,28.97,18.65C321.31,357.21,311.14,368.82,296.86,370.82z"/>
			<path style="fill:#804EA0;" d="M339.59,216.03c-21.31-18.8-33.65-45.75-33.65-74.17V99.67h-99.88v42.19
				c0,25.65-10.05,50.11-27.69,68.45l103.006,6.758c13.971,0.917,27.072,7.283,36.247,17.858
				c36.383,41.934,59.627,101.229,59.627,151.833c0,82.5-61.74,113.02-141.54,117.22c6.64,0.35,13.42,0.52,20.29,0.52
				c89.38,0,161.84-28.36,161.84-117.74C417.84,327.97,386.48,257.43,339.59,216.03z"/>
			<path style="fill:#C49292;" d="M321.319,194.63c-9.918-15.632-15.38-33.871-15.38-52.765V99.671h-99.878v42.194
				c0,15.656-3.753,30.861-10.68,44.509L321.319,194.63z"/>
			<path style="fill:#B88081;" d="M321.32,194.63l-42.3-2.77c-8.83-15-13.67-32.21-13.67-50V99.67h40.59v42.19
				C305.94,160.76,311.4,179,321.32,194.63z"/>
		</g>
		<path style="fill:#E5D8EC;" d="M305.536,115.436h-99.073c-8.976,0-16.253-7.277-16.253-16.253V90.07
			c0-8.976,7.277-16.253,16.253-16.253h99.073c8.976,0,16.253,7.277,16.253,16.253v9.113
			C321.789,108.159,314.512,115.436,305.536,115.436z"/>
		<path style="fill:#CDB4DB;" d="M321.79,90.075v9.111c0,8.969-7.272,16.255-16.255,16.255h-33.262
			c8.983,0,16.255-7.286,16.255-16.255v-9.111c0-8.983-7.273-16.255-16.255-16.255h33.262
			C314.517,73.82,321.79,81.092,321.79,90.075z"/>
	</g>
	<g>
		<path style="fill:#FFF1E2;" d="M334.865,258.483c-6.021-8.119-14.58-14.345-24.75-17.438c-17.595-5.34-35.788-8.014-53.98-8.014
			c-18.193,0-36.385,2.674-53.98,8.014c-20.339,6.173-34.248,24.933-34.248,46.184v56.611c0,9.013,3.577,17.656,9.951,24.034
			l8.185,8.176c4.616,4.616,11.666,5.763,17.508,2.849l4.005-1.998c9.258-4.625,19.955,2.84,18.817,13.123
			c-0.039,0.349-0.057,0.702-0.057,1.038c0,5.035,4.092,9.236,9.253,9.236h41.128c5.515,0,9.807-4.795,9.197-10.274
			c-0.057-0.51-0.083-1.012-0.083-1.505c0-9.489,10.1-16.016,18.899-11.618l4.005,1.998c5.842,2.914,12.892,1.767,17.508-2.849
			l8.185-8.176c6.374-6.378,9.956-15.021,9.956-24.034V287.23C344.363,276.602,340.886,266.598,334.865,258.483z M215.989,347.075
			c-14.307-1.755-24.672-13.183-23.161-25.521c1.516-12.337,14.341-20.913,28.643-19.155c14.307,1.755,24.677,13.18,23.161,25.517
			C243.118,340.253,230.292,348.829,215.989,347.075z M319.575,321.058c1.731,12.308-8.438,23.917-22.712,25.921
			c-14.27,2.004-27.243-6.347-28.974-18.656c-1.727-12.309,8.438-23.913,22.712-25.917
			C304.871,300.399,317.844,308.75,319.575,321.058z"/>
	</g>
	<g>
		<path d="M292.668,354.773c1.723,0,3.475-0.12,5.238-0.368h0c8.684-1.219,16.481-5.331,21.956-11.58
			c5.75-6.563,8.286-14.664,7.14-22.811c-1.146-8.147-5.816-15.234-13.151-19.957c-6.985-4.497-15.614-6.303-24.291-5.078
			c-18.343,2.575-31.396,18-29.097,34.389C262.544,344.175,276.465,354.773,292.668,354.773z M291.646,309.833
			c1.08-0.152,2.154-0.227,3.215-0.227c3.969,0,7.743,1.052,10.869,3.063c3.609,2.324,5.889,5.674,6.417,9.434
			c0.528,3.759-0.739,7.607-3.568,10.837c-3.105,3.544-7.636,5.892-12.759,6.611c0,0,0,0,0,0
			c-10.154,1.417-19.353-4.08-20.504-12.271C274.167,319.086,281.491,311.259,291.646,309.833z"/>
		<path d="M215.077,354.52c1.546,0.189,3.079,0.281,4.592,0.281c16.48,0,30.561-10.932,32.408-25.97
			c1.004-8.166-1.673-16.222-7.537-22.682c-5.583-6.151-13.451-10.127-22.153-11.194c-8.704-1.064-17.297,0.885-24.201,5.502
			c-7.252,4.85-11.798,12.018-12.802,20.186C183.372,337.067,196.691,352.265,215.077,354.52z M200.273,322.469
			c0.463-3.768,2.683-7.156,6.252-9.543c3.192-2.135,7.093-3.257,11.208-3.257c0.933,0,1.877,0.058,2.826,0.175
			c5.135,0.63,9.707,2.898,12.874,6.387c2.885,3.179,4.219,7.004,3.756,10.771c0,0,0,0,0,0.001
			c-1.009,8.212-10.107,13.876-20.287,12.629C206.726,338.383,199.266,330.683,200.273,322.469z"/>
		<path d="M430.177,358.442c-1.255-3.209-4.476-5.055-7.744-4.721c-3.112-18.305-8.692-37.142-16.578-55.727
			c-1.618-3.813-6.02-5.59-9.834-3.975c-3.813,1.618-5.592,6.021-3.975,9.834c7.715,18.18,13.069,36.552,15.91,54.293
			c-21.8,5.416-44.045,3.812-59.172,1.421c2.017-4.927,3.077-10.245,3.077-15.727v-56.611c0-9.18-2.208-18.029-6.429-26.001
			c3.626-4.853,7.285-10.801,10.164-17.772c7.511,9.067,14.542,19.033,20.852,29.633c1.403,2.357,3.895,3.665,6.452,3.665
			c1.304,0,2.626-0.341,3.829-1.057c3.559-2.118,4.727-6.722,2.608-10.28c-8.686-14.592-18.373-27.755-28.925-39.344
			c0.302-2.041,0.526-4.136,0.655-6.289c0.247-4.135-2.905-7.688-7.04-7.934c-2.17-0.148-4.173,0.664-5.628,2.062
			c-1.275-1.187-2.557-2.36-3.853-3.504c-1.884-1.663-3.69-3.395-5.418-5.189c37.903-17.554,59.098-40.899,68.625-53.753
			c2.97-4.007,3.398-9.252,1.116-13.688c-2.286-4.44-6.79-7.103-11.794-7.058l-12.333,0.202l-3.867-15.599
			c-1.266-5.074-5.251-8.781-10.401-9.674c-5.156-0.893-10.155,1.256-13.051,5.603c-14.668,21.952-30.865,33.277-43.575,39.117
			c-0.267-2.816-0.41-5.653-0.41-8.505v-20.287c9.223-3.264,15.85-12.068,15.85-22.396V90.07c0-12.098-9.094-22.106-20.804-23.563
			l3.933-43.15c0.55-5.975-1.454-11.943-5.497-16.376C302.875,2.545,297.107,0,291.1,0h-69.93c-6.007,0-11.774,2.545-15.821,6.981
			c-4.043,4.433-6.047,10.401-5.498,16.369l3.931,43.122C191.942,67.81,182.71,77.88,182.71,90.07v9.112
			c0,10.328,6.627,19.132,15.851,22.396v20.286c0,26.108-11.339,51.092-31.11,68.543c-1.296,1.144-2.577,2.32-3.851,3.509
			c-1.454-1.395-3.456-2.207-5.63-2.067c-4.135,0.246-7.287,3.799-7.04,7.934c0.13,2.17,0.356,4.281,0.661,6.338
			c-31.268,34.454-54.18,81.904-61.988,127.602c-3.28-0.352-6.52,1.498-7.78,4.718c-1.51,3.856,0.393,8.208,4.25,9.718
			c0.497,0.195,0.997,0.373,1.496,0.56c-0.594,6.086-0.904,12.112-0.904,18.039C86.664,468.692,145.219,512,256,512
			s169.336-43.308,169.336-125.241c0-5.903-0.317-11.93-0.907-18.038c0.499-0.187,1-0.365,1.498-0.561
			C429.784,366.65,431.687,362.299,430.177,358.442z M211.485,162.624l88.269-4.204c1.537,9.65,4.405,19.013,8.484,27.836
			l-101.666-6.664C208.675,174.091,210.32,168.417,211.485,162.624z M367.384,123.234l4.236,17.09
			c0.831,3.35,3.837,5.695,7.278,5.695c0.042,0,0.083,0,0.125-0.001l14.18-0.232c-9.977,12.515-29.885,32.441-63.856,47.389
			c-5.77-8.461-10.082-17.808-12.749-27.645C331.052,159.569,350.142,147.53,367.384,123.234z M295.84,17.091
			c1.226,1.343,1.809,3.08,1.641,4.898l-4.041,44.328h-74.611l-1.081-11.854c0.484,0.019,0.966,0.046,1.451,0.046
			c20.126,0,36.5-16.369,36.5-36.49c0-1.011-0.054-2.017-0.137-3.02H291.1C292.927,15,294.61,15.742,295.84,17.091z M216.431,17.091
			C217.66,15.742,219.343,15,221.17,15h19.319c0.14,0.995,0.211,2.004,0.211,3.02c0,11.85-9.645,21.49-21.5,21.49
			c-0.952,0-1.898-0.064-2.831-0.187l-1.581-17.341C214.622,20.172,215.205,18.434,216.431,17.091z M197.71,90.07
			c0-4.826,3.927-8.753,8.753-8.753h99.073c4.826,0,8.753,3.927,8.753,8.753v9.112c0,4.826-3.927,8.753-8.753,8.753h-45.324
			c-4.142,0-7.5,3.357-7.5,7.5s3.358,7.5,7.5,7.5h38.227v18.93c0,0.534,0.014,1.066,0.022,1.599l-85.052,4.051
			c0.101-1.877,0.152-3.761,0.152-5.65v-18.93h11.256c4.142,0,7.5-3.357,7.5-7.5s-3.358-7.5-7.5-7.5h-18.354
			c-4.826,0-8.753-3.927-8.753-8.753V90.07z M177.378,221.654c9.016-7.958,16.516-17.271,22.313-27.481l117.43,7.698
			c4.949,7.215,10.806,13.874,17.501,19.784c3.212,2.836,6.378,5.86,9.491,9.036c-1.894,6.831-4.87,12.755-8.049,17.655
			c-6.538-6.743-14.633-11.698-23.771-14.478c-18.229-5.532-37.123-8.337-56.159-8.337c-19.036,0-37.93,2.805-56.158,8.337
			c-9.399,2.853-17.567,7.961-24.007,14.625c-3.199-4.914-6.195-10.879-8.096-17.791
			C170.969,227.55,174.133,224.518,177.378,221.654z M166.682,261.38c-4.04,7.769-6.275,16.578-6.275,25.849v10.402
			c0,4.143,3.358,7.5,7.5,7.5s7.5-3.357,7.5-7.5v-10.402c0-4.781,0.82-9.39,2.335-13.686c2.029,1.83,3.403,2.868,3.643,3.045
			c1.341,0.991,2.904,1.469,4.453,1.469c2.298,0,4.566-1.052,6.037-3.042c2.462-3.331,1.758-8.026-1.573-10.489
			c-0.066-0.048-2.01-1.517-4.77-4.262c4.881-5.535,11.307-9.768,18.801-12.043c16.814-5.103,34.243-7.69,51.802-7.69
			c17.559,0,34.988,2.588,51.797,7.689c7.269,2.211,13.639,6.303,18.619,11.916c-2.795,2.81-4.778,4.333-4.87,4.402
			c-3.316,2.466-4.014,7.151-1.556,10.477c1.471,1.99,3.739,3.042,6.037,3.042c1.549,0,3.111-0.478,4.453-1.469
			c0.248-0.183,1.696-1.274,3.83-3.214c1.591,4.399,2.418,9.064,2.418,13.854v56.611c0,4.495-1.118,8.82-3.214,12.661
			c-2.265-0.573-3.563-0.965-3.677-1c-3.956-1.237-8.159,0.969-9.394,4.922c-0.956,3.06,0.154,6.265,2.534,8.133l-2.193,2.191
			c-2.338,2.338-5.896,2.918-8.856,1.441l-4-1.996c-6.42-3.207-13.89-2.874-19.984,0.893c-6.116,3.781-9.768,10.299-9.768,17.435
			c0,0.78,0.043,1.564,0.129,2.336c0.071,0.641-0.197,1.092-0.436,1.358c-0.239,0.267-0.66,0.585-1.308,0.585h-41.127
			c-1.083,0-1.753-0.901-1.753-1.736c0-0.066,0.002-0.136,0.011-0.213c0.829-7.489-2.495-14.819-8.676-19.13
			c-6.18-4.31-14.205-4.896-20.943-1.529l-4.005,1.998c-2.959,1.479-6.517,0.897-8.859-1.444l-2.306-2.303
			c2.276-1.882,3.315-5.016,2.383-8.01c-1.23-3.952-5.433-6.156-9.388-4.932c-0.075,0.023-1.294,0.394-3.448,0.943
			c-2.074-3.826-3.178-8.129-3.178-12.601v-10.813c0-4.143-3.358-7.5-7.5-7.5s-7.5,3.357-7.5,7.5v10.813
			c0,5.467,1.055,10.772,3.061,15.687c-15.133,2.414-37.511,4.066-59.438-1.384c6.447-40.433,25.697-82.577,52.362-114.711
			C159.304,250.489,163.014,256.494,166.682,261.38z M410.336,386.759C410.336,459.909,358.41,497,256,497
			s-154.336-37.091-154.336-110.241c0-4.479,0.208-9.023,0.573-13.604c11.576,2.71,23.097,3.7,33.736,3.7
			c14.563,0,27.47-1.849,36.605-3.654l8.162,8.153c6.907,6.906,17.421,8.615,26.159,4.256l4.008-1.999
			c2.668-1.335,4.85-0.154,5.664,0.412c0.815,0.568,2.675,2.211,2.348,5.168c-0.068,0.612-0.103,1.241-0.103,1.871
			c0,9.229,7.516,16.736,16.753,16.736h41.127c4.761,0,9.312-2.035,12.486-5.583c3.174-3.547,4.691-8.294,4.165-13.019
			c-0.024-0.223-0.037-0.444-0.037-0.678c0-2.738,1.856-4.182,2.655-4.676c0.788-0.487,2.891-1.484,5.396-0.231l4.004,1.998
			c8.741,4.362,19.253,2.65,26.157-4.254l8.122-8.112c9.12,1.792,21.934,3.611,36.382,3.611c10.639,0,22.163-0.991,33.742-3.702
			C410.136,377.753,410.336,382.297,410.336,386.759z"/>
		<path d="M278.413,37.763h0.102c4.142,0,7.5-3.357,7.5-7.5s-3.358-7.5-7.5-7.5h-0.102c-4.142,0-7.5,3.357-7.5,7.5
			S274.271,37.763,278.413,37.763z"/>
		<path d="M265.299,56.575h0.102c4.142,0,7.5-3.357,7.5-7.5s-3.358-7.5-7.5-7.5h-0.102c-4.142,0-7.5,3.357-7.5,7.5
			S261.157,56.575,265.299,56.575z"/>
	</g>
</g>
<g>
</g>
<g>
</g>
<g>
</g>
<g>
</g>
<g>
</g>
<g>
</g>
<g>
</g>
<g>
</g>
<g>
</g>
<g>
</g>
<g>
</g>
<g>
</g>
<g>
</g>
<g>
</g>
<g>
</g>
</svg>
