<?xml version="1.0" encoding="iso-8859-1"?>
<!-- Generator: Adobe Illustrator 24.0.2, SVG Export Plug-In . SVG Version: 6.00 Build 0)  -->
<svg version="1.1" id="Capa_1" xmlns="http://www.w3.org/2000/svg" xmlns:xlink="http://www.w3.org/1999/xlink" x="0px" y="0px"
	 viewBox="0 0 512 512" style="enable-background:new 0 0 512 512;" xml:space="preserve">
<g>
	<g>
		<rect x="148.813" y="47.252" style="fill:#B18BC8;" width="214.373" height="45.74"/>
		<rect x="332.903" y="47.252" style="fill:#A176BD;" width="30.284" height="45.74"/>
		<path style="fill:#E5D8EC;" d="M400.729,504.5H111.271c-11.358,0-20.566-9.208-20.566-20.566V141.178
			c0-32.092,26.016-58.108,58.108-58.108h214.373c32.092,0,58.108,26.016,58.108,58.108v342.756
			C421.295,495.292,412.087,504.5,400.729,504.5z"/>
		<path style="fill:#D9C7E4;" d="M421.29,141.18v342.75c0,11.36-9.2,20.57-20.56,20.57h-39.87c11.36,0,20.56-9.21,20.56-20.57
			V141.18c0-32.09-26.01-58.11-58.1-58.11h39.87C395.28,83.07,421.29,109.09,421.29,141.18z"/>
		<path style="fill:#72F4C3;" d="M90.705,205.155v278.778c0,11.358,9.208,20.566,20.566,20.566h289.457
			c11.358,0,20.566-9.208,20.566-20.566V205.155H90.705z"/>
		<path style="fill:#27E19D;" d="M381.42,205.155V483.93c0,11.36-9.2,20.57-20.56,20.57h39.87c11.36,0,20.56-9.21,20.56-20.57
			V205.155H381.42z"/>
		<g>
			<g>
				<circle style="fill:#E9FFF4;" cx="294.776" cy="417.851" r="86.649"/>
				<path style="fill:#C4FAE3;" d="M381.426,417.845c0,47.858-38.794,86.651-86.651,86.651c-13.558,0-26.395-3.116-37.82-8.671
					c2.537,0.241,5.106,0.35,7.708,0.35c47.847,0,86.651-38.794,86.651-86.651c0-34.289-19.933-63.931-48.842-77.981
					C346.722,335.436,381.426,372.59,381.426,417.845z"/>
			</g>
			<g>
				<g>
					<circle style="fill:#127E73;" cx="288.435" cy="412.039" r="45.438"/>
					<path style="fill:#0C6E65;" d="M333.874,412.04c0,25.093-20.348,45.441-45.441,45.441c-20.96,0-38.597-14.192-43.834-33.491
						c7.173,9.491,18.566,15.625,31.38,15.625c21.726,0,39.329-17.604,39.329-39.318c0-13.656-6.954-25.684-17.516-32.736
						C318.403,371.879,333.874,390.161,333.874,412.04z"/>
				</g>
				<circle style="fill:#353435;" cx="288.435" cy="412.039" r="16.602"/>
			</g>
		</g>
		<path style="fill:#B88081;" d="M366.933,51.227H145.067c-5.679,0-10.283-4.604-10.283-10.283V17.783
			c0-5.679,4.604-10.283,10.283-10.283h221.866c5.679,0,10.283,4.604,10.283,10.283v23.161
			C377.216,46.623,372.612,51.227,366.933,51.227z"/>
		<path style="fill:#AC6D6D;" d="M377.22,17.78v23.16c0,5.68-4.61,10.29-10.29,10.29h-29.79c5.68,0,10.28-4.61,10.28-10.29V17.78
			c0-5.68-4.6-10.28-10.28-10.28h29.79C372.61,7.5,377.22,12.1,377.22,17.78z"/>
	</g>
	<g>
		<circle style="fill:#E9FFF4;" cx="183.308" cy="337.481" r="20.816"/>
		<path style="fill:#C4FAE3;" d="M204.12,337.48c0,11.5-9.32,20.82-20.81,20.82c-8.45,0-15.72-5.03-18.98-12.26
			c1.44,0.32,2.94,0.49,4.48,0.49c11.5,0,20.82-9.31,20.82-20.81c0-3.05-0.66-5.96-1.85-8.57
			C197.12,319.19,204.12,327.51,204.12,337.48z"/>
	</g>
	<g>
		<circle style="fill:#E9FFF4;" cx="157.039" cy="477.242" r="27.255"/>
		<path style="fill:#C4FAE3;" d="M184.29,477.24c0,15.05-12.2,27.26-27.25,27.26c-6.73,0-12.89-2.44-17.65-6.51
			c14.28-0.85,25.59-12.7,25.59-27.19c0-8.31-3.72-15.76-9.59-20.75c0.54-0.04,1.09-0.06,1.65-0.06
			C172.09,449.99,184.29,462.19,184.29,477.24z"/>
	</g>
	<circle style="fill:#C4FAE3;" cx="329.307" cy="261.868" r="16.921"/>
	<g>
		<circle style="fill:#E9FFF4;" cx="225.95" cy="205.155" r="30.832"/>
		<path style="fill:#C4FAE3;" d="M256.781,205.157c0,17.03-13.8,30.83-30.83,30.83c-6.2,0-11.96-1.83-16.79-4.97
			c13.69-3.15,23.89-15.41,23.89-30.05c0-10.84-5.59-20.37-14.04-25.86c2.23-0.51,4.55-0.78,6.94-0.78
			C242.981,174.328,256.781,188.127,256.781,205.157z"/>
		<path style="fill:#26D192;" d="M256.782,205.155c0,17.028-13.804,30.832-30.832,30.832s-30.832-13.804-30.832-30.832H256.782z"/>
		<path style="fill:#1EC186;" d="M256.781,205.157c0,17.03-13.8,30.83-30.83,30.83c-6.2,0-11.96-1.83-16.79-4.97
			c12.36-2.84,21.88-13.12,23.61-25.86H256.781z"/>
	</g>
	<g>
		<path d="M370.687,76.012V58.32c8.007-1.729,14.029-8.859,14.029-17.375V17.783C384.716,7.978,376.738,0,366.934,0H145.067
			c-9.806,0-17.783,7.978-17.783,17.783v23.161c0,8.516,6.022,15.647,14.03,17.375v17.692
			c-32.656,3.735-58.108,31.527-58.108,65.166v140.991c0,4.143,3.358,7.5,7.5,7.5s7.5-3.357,7.5-7.5v-69.514h90.155
			c3.497,17.557,19.021,30.831,37.59,30.831s34.093-13.274,37.59-30.831h150.254v271.278c0,7.205-5.861,13.066-13.066,13.066
			h-55.021c25.982-16.777,43.218-45.987,43.218-79.149c0-44.688-31.754-83.505-75.505-92.298c-4.059-0.814-8.014,1.813-8.83,5.875
			c-0.816,4.061,1.813,8.015,5.875,8.83c36.771,7.392,63.46,40.023,63.46,77.593c0,43.644-35.506,79.149-79.149,79.149
			c-43.643,0-79.149-35.506-79.149-79.149c0-37.088,26.282-69.635,62.492-77.389c4.051-0.867,6.631-4.854,5.764-8.904
			c-0.867-4.052-4.857-6.631-8.904-5.764c-20.743,4.442-39.604,15.979-53.108,32.485c-13.699,16.744-21.243,37.9-21.243,59.571
			c0,33.162,17.236,62.372,43.218,79.149h-58.235c3.895-5.615,6.185-12.422,6.185-19.758c0-19.164-15.591-34.755-34.755-34.755
			s-34.755,15.591-34.755,34.755c0,7.336,2.29,14.143,6.185,19.758h-17.197c-7.205,0-13.066-5.861-13.066-13.066V317.564
			c0-4.143-3.358-7.5-7.5-7.5s-7.5,3.357-7.5,7.5v166.369c0,15.476,12.59,28.066,28.066,28.066h289.457
			c15.476,0,28.066-12.591,28.066-28.066V141.178C428.795,107.539,403.342,79.747,370.687,76.012z M157.039,457.487
			c10.893,0,19.755,8.862,19.755,19.755s-8.862,19.755-19.755,19.755s-19.755-8.862-19.755-19.755S146.146,457.487,157.039,457.487z
			 M142.284,17.783c0-1.535,1.249-2.783,2.783-2.783h221.867c1.534,0,2.782,1.248,2.782,2.783v23.161
			c0,1.534-1.248,2.782-2.782,2.782H216.748c-4.142,0-7.5,3.357-7.5,7.5s3.358,7.5,7.5,7.5h138.938V75.57H156.313V58.727h25.04
			c4.142,0,7.5-3.357,7.5-7.5s-3.358-7.5-7.5-7.5h-36.286c-1.535,0-2.783-1.248-2.783-2.782V17.783z M225.95,228.486
			c-10.242,0-18.957-6.635-22.088-15.831h44.176C244.907,221.851,236.192,228.486,225.95,228.486z M203.862,197.655
			c3.131-9.196,11.847-15.832,22.088-15.832s18.957,6.636,22.088,15.832H203.862z M263.541,197.655
			c-3.497-17.557-19.021-30.832-37.591-30.832s-34.093,13.275-37.591,30.832H98.205v-56.478c0-27.905,22.703-50.607,50.608-50.607
			h214.373c27.905,0,50.608,22.702,50.608,50.607v56.478H263.541z"/>
		<path d="M235.497,412.039c0,29.189,23.748,52.938,52.938,52.938c29.189,0,52.938-23.748,52.938-52.938
			c0-29.19-23.748-52.938-52.938-52.938C259.245,359.101,235.497,382.849,235.497,412.039z M326.373,412.039
			c0,20.919-17.019,37.938-37.938,37.938s-37.938-17.019-37.938-37.938s17.02-37.938,37.938-37.938S326.373,391.12,326.373,412.039z
			"/>
		<path d="M264.334,412.039c0,13.29,10.812,24.102,24.102,24.102s24.102-10.812,24.102-24.102s-10.812-24.102-24.102-24.102
			S264.334,398.749,264.334,412.039z M297.537,412.039c0,5.019-4.083,9.102-9.102,9.102s-9.102-4.083-9.102-9.102
			s4.083-9.102,9.102-9.102S297.537,407.021,297.537,412.039z"/>
		<path d="M211.625,337.481c0-15.613-12.703-28.316-28.316-28.316c-15.613,0-28.316,12.703-28.316,28.316
			s12.703,28.316,28.316,28.316C198.922,365.798,211.625,353.095,211.625,337.481z M169.992,337.481
			c0-7.343,5.974-13.316,13.316-13.316c7.343,0,13.316,5.974,13.316,13.316s-5.974,13.316-13.316,13.316
			C175.966,350.798,169.992,344.824,169.992,337.481z"/>
		<path d="M329.307,286.29c13.466,0,24.421-10.956,24.421-24.422s-10.955-24.421-24.421-24.421s-24.421,10.955-24.421,24.421
			S315.841,286.29,329.307,286.29z M329.307,252.447c5.194,0,9.421,4.227,9.421,9.421c0,5.195-4.227,9.422-9.421,9.422
			s-9.421-4.227-9.421-9.422C319.886,256.674,324.112,252.447,329.307,252.447z"/>
		<path d="M258.538,280.548c4.143,0,7.5-3.357,7.5-7.5s-3.357-7.5-7.5-7.5h-0.103c-4.142,0-7.5,3.357-7.5,7.5s3.358,7.5,7.5,7.5
			H258.538z"/>
		<path d="M301.401,290.917c-4.143,0-7.5,3.357-7.5,7.5s3.357,7.5,7.5,7.5h0.104c4.143,0,7.5-3.357,7.5-7.5s-3.357-7.5-7.5-7.5
			H301.401z"/>
		<path d="M164.951,387.937c-4.147-0.037-7.532,3.287-7.57,7.43c-0.039,4.142,3.287,7.531,7.429,7.57l0.104,0.001
			c0.024,0,0.048,0,0.072,0c4.109,0,7.459-3.312,7.498-7.43c0.039-4.142-3.287-7.531-7.429-7.57L164.951,387.937z"/>
		<path d="M148.865,248.5h-0.103c-4.142,0-7.5,3.357-7.5,7.5s3.358,7.5,7.5,7.5h0.103c4.142,0,7.5-3.357,7.5-7.5
			S153.007,248.5,148.865,248.5z"/>
	</g>
</g>
<g>
</g>
<g>
</g>
<g>
</g>
<g>
</g>
<g>
</g>
<g>
</g>
<g>
</g>
<g>
</g>
<g>
</g>
<g>
</g>
<g>
</g>
<g>
</g>
<g>
</g>
<g>
</g>
<g>
</g>
</svg>
