<?xml version="1.0" encoding="iso-8859-1"?>
<!-- Generator: Adobe Illustrator 24.0.2, SVG Export Plug-In . SVG Version: 6.00 Build 0)  -->
<svg version="1.1" id="Capa_1" xmlns="http://www.w3.org/2000/svg" xmlns:xlink="http://www.w3.org/1999/xlink" x="0px" y="0px"
	 viewBox="0 0 511.984 511.984" style="enable-background:new 0 0 511.984 511.984;" xml:space="preserve">
<g>
	<path style="fill:#845152;" d="M138.683,148.324l-45.76,28.348l-36.298-12.494c-5.694-1.96-11.799,1.604-12.891,7.527l-1.347,7.304
		c-0.869,4.713,1.78,9.367,6.276,11.025l45.603,16.827l90.817-20.34L138.683,148.324z"/>
	<path style="fill:#704545;" d="M185.082,186.524l-59.31,13.28l-5.93-2.46c-4.74-1.98-9.05-5.03-12.48-8.83l-12-13.35l43.32-26.84
		L185.082,186.524z"/>
	<path style="fill:#845152;" d="M325.545,102.335h63.534l27.481-47.11c1.549-2.656,4.392-4.289,7.467-4.289h0
		c5.95,0,10.121,5.871,8.162,11.49l-20.691,59.351c-1.53,4.388-5.035,7.801-9.463,9.212l-107.185,34.165v-45.687L325.545,102.335z"
		/>
	<polygon style="fill:#704545;" points="334.622,130.844 346.282,148.764 294.852,165.154 294.852,119.464 325.542,102.334 
		353.522,102.334 	"/>
	<path style="fill:#AC6D6D;" d="M482.975,140.664l-7.741,97.354c-0.453,5.584-4.018,10.439-9.218,12.537l-102.663,41.266
		l-1.014,27.153c-0.561,14.724,6.904,28.788,19.747,36.007c16.565,9.297,27.763,27.035,27.763,47.392
		c0,3.408-0.315,6.746-0.916,9.977c-2.738,14.704,2.206,29.792,13.109,40.035l43.137,40.557H351.121l-244.661-0.01l28.069-48.012
		c-7.081-9.169-11.316-20.672-11.316-33.16c0-18.358,23.253-34.421,42.142-43.955c15.787-7.958,27.754-21.874,33.19-38.705
		l34.401-106.425l-105.43-43.797c-2.029-0.847-3.841-2.137-5.318-3.772l-40.734-45.304c-2.433-2.718-3.782-6.234-3.782-9.878V49.377
		c0-6.264,3.939-11.838,9.839-13.926l10.745-3.801c8.962-3.171,18.555,2.826,19.609,12.281l4.658,41.68l21.214,22.435
		l112.245,32.117l48.505-82.64l-14.547-23.706c-4.767-7.771-1.428-17.964,7.022-21.401l9.415-3.841
		c5.712-2.324,12.271-0.857,16.447,3.683l30.767,33.427c4.599,5.003,5.19,12.498,1.438,18.161l-44.349,66.902l37.336,57.349
		l70.95-2.511c6.421-0.226,11.966-4.59,13.7-10.784l11.513-41.177c2.068-7.396,9.474-11.976,17.018-10.528l9.829,1.901
		C478.434,126.413,483.566,133.17,482.975,140.664z"/>
	<path style="fill:#9A5E5F;" d="M355.041,63.845l-44.349,66.902l37.336,57.349l-22.005,0.842c-4.24,0.162-8.26-1.889-10.616-5.417
		l-30.787-46.098c-2.701-4.044-2.71-9.313-0.023-13.366l39.914-60.211c3.752-5.663,3.161-13.158-1.438-18.161
		c0,0-28.384-32.343-26.099-33.269l9.415-3.841c5.712-2.324,12.271-0.857,16.447,3.683l30.767,33.427
		C358.202,50.687,358.793,58.182,355.041,63.845z"/>
	<path style="fill:#9A5E5F;" d="M482.975,140.664l-7.741,97.354c-0.453,5.584-4.018,10.439-9.218,12.537l-102.663,41.266
		l-1.014,27.153c-0.561,14.724,6.904,28.788,19.747,36.007c16.565,9.297,27.763,27.035,27.763,47.392
		c0,3.408-0.315,6.746-0.916,9.977c-2.738,14.704,2.206,29.792,13.109,40.035l43.137,40.557h-33.594l-43.137-40.557
		c-10.903-10.243-15.846-25.331-13.109-40.035c0.601-3.23,0.916-6.569,0.916-9.977c0-20.357-11.198-38.095-27.763-47.392
		c-12.843-7.219-20.308-21.283-19.747-36.007l0.749-34.667c0.158-7.387,4.708-13.975,11.562-16.723l91.366-36.726
		c5.2-2.098,8.765-6.953,9.218-12.537l7.741-77.657c0.325-4.068-1.044-7.918-3.536-10.814c3.142-5.102,9.208-7.938,15.364-6.756
		l9.829,1.901C478.434,126.413,483.566,133.17,482.975,140.664z"/>
	<path style="fill:#9A5E5F;" d="M354.578,428.186c-3.309,26.493-3.93,48.15-3.457,64.755l-244.661-0.01l28.069-48.012
		c-7.081-9.169-11.316-20.672-11.316-33.16c0-18.358,23.253-34.421,42.142-43.955c15.787-7.958,27.754-21.874,33.19-38.705
		l34.401-106.425l-105.43-43.797c-2.029-0.847-3.841-2.137-5.318-3.772l-40.734-45.304c-2.433-2.718-3.782-6.234-3.782-9.878V49.368
		c0-6.255,3.942-11.831,9.839-13.917l10.745-3.801c8.962-3.171,18.555,2.826,19.609,12.281l4.658,41.68l17.836,39.125
		c1.464,3.211,4.028,5.791,7.229,7.275l107.125,49.658c2.131,0.988,3.995,2.469,5.439,4.321l20.734,26.602
		c1.505,1.931,3.466,3.457,5.707,4.442l27.614,12.14c7.655,3.365,10.994,12.408,7.361,19.94l-15.616,32.385
		c-0.965,2.001-1.466,4.195-1.466,6.417l0.001,30.375c0,12.492,6.338,24.05,16.697,31.032
		C337.805,360.518,360.087,384.072,354.578,428.186z"/>
	<path style="fill:#845152;" d="M354.578,428.186c-3.309,26.493-3.93,48.15-3.457,64.755h-31.575
		c0.177-14.015,1.162-30.629,3.555-49.775c5.515-44.122-16.772-67.67-33.377-78.868c-10.361-6.983-16.703-18.535-16.703-31.033
		v-30.373c0-2.226,0.502-4.412,1.468-6.421l15.62-32.382c3.624-7.534,0.295-16.575-7.367-19.934l-27.616-12.143
		c-2.236-0.985-4.196-2.511-5.702-4.442l-20.731-26.601c-1.448-1.851-3.309-3.339-5.446-4.323l-107.124-49.657
		c-3.201-1.487-5.761-4.067-7.229-7.278L91.057,100.59l-4.658-41.68c-0.601-5.436-4.038-9.73-8.549-11.799
		c0.827-5.309,4.491-9.829,9.671-11.661l10.745-3.801c8.962-3.171,18.555,2.826,19.609,12.281l4.658,41.68l17.836,39.129
		c1.467,3.211,4.028,5.791,7.229,7.268l107.124,49.657c2.137,0.995,3.999,2.472,5.436,4.324l20.741,26.601
		c1.497,1.93,3.467,3.457,5.702,4.442l27.616,12.143c7.652,3.368,10.991,12.409,7.357,19.944l-15.61,32.382
		c-0.965,1.999-1.467,4.196-1.467,6.411v30.383c0,12.488,6.333,24.051,16.693,31.023
		C337.805,360.516,360.083,384.074,354.578,428.186z"/>
	<g>
		<g>
			<path style="fill:#C47A4A;" d="M257.791,441.797c-40.698,0-79.928,5.943-113.974,13.774l-12.777,37.367h334.135
				c-25.675,0-50.777-7.154-72.845-20.278C368.317,458.38,325.792,441.797,257.791,441.797z"/>
		</g>
		<g>
			<path style="fill:#E89A5E;" d="M465.171,492.935h-82.481c-25.131-12.787-65.195-25.562-124.898-25.562
				c-40.701,0-88.704,5.935-122.758,13.768l8.78-25.573c34.054-7.823,73.277-13.768,113.978-13.768
				c68.001,0,110.525,16.585,134.534,30.86C414.402,485.781,439.501,492.935,465.171,492.935z"/>
		</g>
		<g>
			<g>
				<ellipse style="fill:#F2671F;" cx="50.827" cy="458.885" rx="39.574" ry="45.599"/>
				<ellipse style="fill:#E25010;" cx="106.462" cy="458.885" rx="39.574" ry="45.599"/>
			</g>
			<ellipse style="fill:#FB8627;" cx="77.678" cy="456.693" rx="35.976" ry="47.791"/>
			<path style="fill:#FB7722;" d="M113.654,456.686c0,26.399-16.109,47.797-35.975,47.797c-4.744,0-9.267-1.217-13.42-3.443
				c13.217-7.069,22.546-24.266,22.546-44.355c0-20.081-9.329-37.278-22.546-44.346c4.153-2.226,8.676-3.443,13.42-3.443
				C97.544,408.897,113.654,430.295,113.654,456.686z"/>
		</g>
	</g>
	<g>
		<circle style="fill:#FC9744;" cx="154.932" cy="254.081" r="23.557"/>
		<path style="fill:#FB8627;" d="M178.493,254.082c0,13.01-10.548,23.558-23.558,23.558c-9.78,0-18.171-5.968-21.736-14.458
			c2.502,1.054,5.249,1.645,8.135,1.645c11.552,0,20.909-9.356,20.909-20.909c0-5.033-1.773-9.652-4.747-13.256
			C169.304,231.932,178.493,241.938,178.493,254.082z"/>
	</g>
	<g>
		<circle style="fill:#FC9744;" cx="409.115" cy="278.374" r="23.557"/>
		<path style="fill:#FB8627;" d="M432.677,278.375c0,13.01-10.548,23.558-23.558,23.558c-9.78,0-18.171-5.968-21.736-14.458
			c2.502,1.054,5.249,1.645,8.135,1.645c11.552,0,20.909-9.356,20.909-20.909c0-5.033-1.773-9.652-4.747-13.256
			C423.488,256.225,432.677,266.231,432.677,278.375z"/>
	</g>
	<g>
		<circle style="fill:#FC9744;" cx="90.399" cy="318.379" r="23.557"/>
		<path style="fill:#FB8627;" d="M113.96,318.38c0,13.01-10.548,23.558-23.558,23.558c-9.78,0-18.171-5.968-21.736-14.458
			c2.502,1.054,5.249,1.645,8.135,1.645c11.552,0,20.909-9.356,20.909-20.909c0-5.033-1.773-9.652-4.747-13.256
			C104.771,296.23,113.96,306.236,113.96,318.38z"/>
		<g>
			<path d="M227.696,139.867l48.316,13.428c0.65,0.174,1.304,0.258,1.947,0.258c3.311,0,6.341-2.209,7.239-5.56
				c1.072-4.001-1.301-8.114-5.302-9.187l-12.453-3.339l43.521-74.149c1.403-2.39,1.374-5.357-0.075-7.719l-14.547-23.705
				c-1.135-1.851-1.388-4.006-0.711-6.068c0.677-2.061,2.156-3.646,4.174-4.467l9.409-3.838c2.8-1.141,6.056-0.41,8.102,1.815
				l30.764,33.422c2.271,2.469,2.562,6.147,0.709,8.942l-44.349,66.902c-1.652,2.493-1.666,5.729-0.034,8.236l37.337,57.349
				c1.436,2.206,3.921,3.506,6.551,3.403l53.321-1.888v54.535c-13.341,3.321-23.292,15.289-23.544,29.584l-7.219,2.902v-18.856
				c0-4.142-3.357-7.5-7.5-7.5s-7.5,3.358-7.5,7.5l-1.009,56.821c-0.682,17.864,8.349,34.276,23.57,42.833
				c8.016,4.499,14.487,11.191,18.716,19.355c1.334,2.575,3.952,4.052,6.665,4.052c1.162,0,2.341-0.271,3.443-0.842
				c3.679-1.905,5.115-6.431,3.21-10.109c-5.578-10.77-14.117-19.6-24.688-25.534c-10.134-5.697-16.386-17.152-15.927-29.188
				l0.833-22.29l10.856-4.364c5.17,9.985,15.594,16.83,27.593,16.83c17.125,0,31.057-13.933,31.057-31.058
				c0-3.067-0.454-6.029-1.286-8.83l29.937-12.033c7.878-3.179,13.199-10.416,13.888-18.898l7.741-97.359
				c0.894-11.329-6.846-21.485-17.989-23.623l-9.84-1.903c-11.285-2.162-22.56,4.806-25.654,15.875l-11.513,41.176
				c-0.857,3.064-3.566,5.198-6.743,5.31l-2.097,0.074v-0.572c0-4.142-3.357-7.5-7.5-7.5s-7.5,3.358-7.5,7.5v1.103L352,180.45
				l-13.824-21.234l66.135-21.081c6.641-2.117,11.975-7.309,14.268-13.889l20.691-59.351c1.718-4.928,0.939-10.41-2.083-14.664
				c-3.022-4.255-7.942-6.795-13.161-6.795c-5.72,0-11.063,3.069-13.945,8.01l-25.31,43.389h-41.275l17.797-26.847
				c5.673-8.56,4.781-19.819-2.171-27.383L328.356,7.18c-6.263-6.808-16.225-9.039-24.801-5.55l-9.408,3.838
				c-6.07,2.469-10.723,7.455-12.767,13.681c-2.043,6.227-1.25,13.002,2.178,18.59l12.192,19.869l-43.284,73.745l-20.645-5.907
				c-3.982-1.143-8.134,1.165-9.273,5.147C221.409,134.576,223.714,138.727,227.696,139.867z M409.115,294.432
				c-8.854,0-16.058-7.204-16.058-16.058s7.203-16.057,16.058-16.057c8.854,0,16.057,7.203,16.057,16.057
				S417.969,294.432,409.115,294.432z M419.242,193.079c9.731-0.343,18.033-6.877,20.658-16.26l11.513-41.177
				c1.011-3.615,4.693-5.887,8.372-5.185l9.841,1.903c3.639,0.698,6.163,4.015,5.872,7.709l-7.74,97.342
				c-0.226,2.776-1.968,5.147-4.539,6.185l-32.086,12.897c-3.936-3.961-8.93-6.865-14.517-8.256v-55.066L419.242,193.079z
				 M389.078,109.835c2.668,0,5.135-1.417,6.479-3.721l27.48-47.11c0.204-0.35,0.583-0.567,0.988-0.567
				c0.392,0,0.706,0.162,0.933,0.481s0.276,0.669,0.147,1.04l-20.691,59.352c-0.749,2.148-2.49,3.843-4.658,4.534l-70.069,22.334
				l-10.022-15.394l13.887-20.949H389.078z"/>
			<path d="M500.732,485.438h-32.585l-40.97-38.52c-9.054-8.505-13.123-20.875-10.888-33.088c0.746-4.074-1.952-7.982-6.026-8.728
				c-4.077-0.746-7.982,1.953-8.728,6.027c-3.158,17.247,2.588,34.712,15.368,46.72l27.574,25.925
				c-16.859-2.688-33.274-8.616-48.314-17.56c-9.166-5.451-21.144-11.332-36.264-16.545c0.551-6.731,1.255-13.621,2.12-20.552
				c6.146-49.214-20.314-75.014-36.635-86.013c-8.383-5.65-13.388-14.926-13.389-24.813v-30.375c0-1.088,0.25-2.181,0.722-3.16
				l15.616-32.385c2.648-5.492,2.943-11.667,0.832-17.388c-2.111-5.72-6.349-10.222-11.931-12.676l-27.614-12.139
				c-1.1-0.483-2.07-1.239-2.81-2.188l-20.733-26.602c-2.167-2.78-5.002-5.033-8.201-6.516l-107.125-49.658
				c-1.575-0.73-2.839-2.002-3.559-3.581l-2.512-5.511l48.977,14.014c3.979,1.14,8.135-1.164,9.273-5.147
				c1.14-3.982-1.165-8.134-5.147-9.273L147.785,101.4l-18.078-19.118L125.329,43.1c-0.757-6.791-4.512-12.766-10.303-16.396
				c-5.794-3.632-12.815-4.407-19.262-2.125L85.018,28.38c-8.874,3.142-14.836,11.58-14.836,20.997v70.546
				c0,5.493,2.022,10.778,5.705,14.893l25.171,27.994l-3.86,2.391c-1.191-2.566-3.784-4.349-6.799-4.349
				c-3.126,0-5.803,1.914-6.93,4.633l-24.403-8.4c-4.781-1.646-10.027-1.127-14.394,1.422c-4.367,2.549-7.397,6.863-8.314,11.836
				l-1.347,7.305c-1.534,8.324,3.116,16.491,11.056,19.421l36.831,13.59v77.583c-13.513,3.364-23.558,15.597-23.558,30.136
				c0,17.125,13.933,31.058,31.058,31.058s31.057-13.933,31.057-31.058c0-14.539-10.044-26.772-23.557-30.136v-74.509l49.533-11.094
				v21.306c-13.513,3.364-23.558,15.597-23.558,30.136c0,17.125,13.933,31.058,31.058,31.058s31.057-13.933,31.057-31.058
				c0-14.539-10.044-26.772-23.557-30.136v-22.442l61.251,25.445l-32.275,99.846c-4.776,14.787-15.503,27.293-29.433,34.314
				c-16.083,8.117-42.297,24.43-45.848,45.806c-3.121-0.738-6.353-1.131-9.666-1.131c-3.298,0-6.584,0.41-9.803,1.176
				c-5.739-3.557-12.179-5.558-18.981-5.558c-6.596,0-12.849,1.887-18.455,5.244c-2.747-0.561-5.562-0.862-8.4-0.862
				c-25.955,0-47.07,23.821-47.07,53.1s21.116,53.1,47.07,53.1c4.824,0,9.56-0.817,14.109-2.429
				c4.033,1.576,8.313,2.429,12.747,2.429c4.766,0,9.35-0.995,13.645-2.805c4.862,1.862,9.945,2.805,15.139,2.805
				c11.049,0,21.214-4.328,29.253-11.546h365.016c4.143,0,7.5-3.358,7.5-7.5S504.874,485.438,500.732,485.438z M51.26,182.998
				c-1.075-0.397-1.705-1.503-1.497-2.629l1.347-7.304c0.17-0.922,0.778-1.4,1.126-1.603c0.348-0.203,1.062-0.498,1.949-0.192
				l28.714,9.884v13.519L51.26,182.998z M106.456,318.379c0,8.854-7.203,16.058-16.057,16.058s-16.058-7.204-16.058-16.058
				s7.204-16.057,16.058-16.057S106.456,309.525,106.456,318.379z M97.899,182.412l13.349-8.269l5.385,5.989
				c2.209,2.445,4.973,4.405,8.007,5.671l10.273,4.268l-37.014,8.29V182.412z M170.989,254.081c0,8.854-7.203,16.058-16.057,16.058
				s-16.058-7.204-16.058-16.058s7.204-16.057,16.058-16.057S170.989,245.227,170.989,254.081z M18.752,458.884
				c0-18.262,10.873-33.558,25.331-37.247c-6.171,9.548-9.882,21.76-9.882,35.056c0,15.784,5.236,30.034,13.605,40.117
				C31.533,494.998,18.752,478.683,18.752,458.884z M49.202,456.693c0-22.216,12.774-40.291,28.476-40.291
				s28.476,18.075,28.476,40.291s-12.774,40.291-28.476,40.291S49.202,478.909,49.202,456.693z M107.43,496.955
				c8.439-10.092,13.724-24.402,13.724-40.262c0-13.518-3.84-25.911-10.197-35.527c15.563,2.605,27.576,18.522,27.576,37.718
				C138.532,479.506,124.666,496.343,107.43,496.955z M147.198,485.438c3.709-7.212,5.958-15.488,6.284-24.32
				c25.596-5.518,50.749-9.161,74.791-10.797c4.133-0.282,7.255-3.86,6.974-7.992s-3.843-7.247-7.992-6.974
				c-7.186,0.489-14.474,1.169-21.831,2l-2.48-25.587c-0.558-5.759,1.814-11.347,6.346-14.946l12.509-9.934
				c7.184-5.704,12.781-13.221,16.188-21.738l11.713-29.283c1.539-3.846-0.332-8.21-4.178-9.749
				c-3.848-1.541-8.211,0.332-9.749,4.178l-11.713,29.282c-2.439,6.098-6.447,11.479-11.589,15.563l-12.509,9.934
				c-8.532,6.775-12.999,17.295-11.947,28.139l2.524,26.036c-12.638,1.792-25.464,4.073-38.399,6.82
				c-3.042-13.799-10.876-25.483-21.391-32.657c-0.019-0.553-0.035-1.106-0.035-1.656c0-11.315,14.214-25.243,38.019-37.257
				c17.482-8.812,30.951-24.521,36.95-43.096l34.401-106.425c1.202-3.717-0.651-7.734-4.259-9.233l-105.417-43.792
				c-1.007-0.42-1.896-1.053-2.631-1.866L87.053,124.8c-1.206-1.348-1.871-3.08-1.871-4.877V49.377c0-3.076,1.946-5.831,4.84-6.856
				l10.745-3.801c2.105-0.745,4.398-0.492,6.292,0.695c1.889,1.184,3.114,3.133,3.361,5.349l4.658,41.68
				c0.001,0.008,0.004,0.015,0.004,0.022c0.041,0.358,0.114,0.716,0.209,1.072c0.018,0.067,0.037,0.132,0.056,0.199
				c0.099,0.332,0.212,0.662,0.36,0.986l17.836,39.125c2.205,4.837,6.076,8.732,10.899,10.969l107.125,49.657
				c1.044,0.484,1.971,1.22,2.678,2.128l20.733,26.6c2.261,2.902,5.235,5.218,8.604,6.699l27.614,12.139
				c1.823,0.801,3.206,2.271,3.896,4.139c0.69,1.868,0.594,3.885-0.271,5.678l-15.616,32.386c-1.445,2.999-2.21,6.344-2.21,9.674
				v30.375c0.001,14.883,7.479,28.809,20.006,37.25c16.448,11.085,35.027,32.526,30.133,71.716
				c-0.75,6.008-1.385,11.991-1.907,17.873c-12.504-3.445-26.764-6.345-42.913-8.276c3.202-30.271-4.959-46.543-5.323-47.248
				c-1.899-3.681-6.426-5.125-10.104-3.225c-3.682,1.9-5.125,6.424-3.226,10.104c0.068,0.132,6.449,13.411,3.725,38.908
				c-7.653-0.58-15.683-0.946-24.106-1.056c-0.034,0-0.067,0-0.101,0c-4.096,0-7.443,3.293-7.498,7.402
				c-0.054,4.142,3.259,7.543,7.401,7.598c63.683,0.834,103.35,16.649,125.412,29.769c3.861,2.296,7.811,4.395,11.824,6.332H147.198
				z"/>
			<path d="M259.844,306.593l4.759-9.042c1.93-3.665,0.521-8.201-3.144-10.13c-3.665-1.93-8.201-0.521-10.13,3.144l-4.759,9.042
				c-1.929,3.665-0.522,8.201,3.144,10.13c1.114,0.587,2.309,0.865,3.487,0.865C255.896,310.601,258.501,309.143,259.844,306.593z"
				/>
			<path d="M359.773,227.639l23.916-3.569c4.097-0.611,6.922-4.428,6.311-8.525c-0.611-4.097-4.434-6.921-8.525-6.311l-23.916,3.569
				c-4.097,0.611-6.922,4.428-6.311,8.525c0.556,3.722,3.756,6.394,7.408,6.394C359.024,227.722,359.398,227.695,359.773,227.639z"
				/>
		</g>
	</g>
</g>
<g>
</g>
<g>
</g>
<g>
</g>
<g>
</g>
<g>
</g>
<g>
</g>
<g>
</g>
<g>
</g>
<g>
</g>
<g>
</g>
<g>
</g>
<g>
</g>
<g>
</g>
<g>
</g>
<g>
</g>
</svg>
