<?xml version="1.0" encoding="iso-8859-1"?>
<!-- Generator: Adobe Illustrator 24.0.2, SVG Export Plug-In . SVG Version: 6.00 Build 0)  -->
<svg version="1.1" id="Capa_1" xmlns="http://www.w3.org/2000/svg" xmlns:xlink="http://www.w3.org/1999/xlink" x="0px" y="0px"
	 viewBox="0 0 512 512" style="enable-background:new 0 0 512 512;" xml:space="preserve">
<g>
	<g>
		<g>
			<path style="fill:#E5D8EC;" d="M345.064,433.451H166.936c-13.318,0-24.115-10.797-24.115-24.115v-21.001H369.18v21.001
				C369.18,422.654,358.383,433.451,345.064,433.451z"/>
			<path style="fill:#D9C7E4;" d="M369.18,388.332v21c0,13.32-10.8,24.12-24.12,24.12h-34.6c13.32,0,24.11-10.8,24.11-24.12v-21
				H369.18z"/>
			<g>
				<path style="fill:#E5D8EC;" d="M342.526,394.333H169.474C80.018,394.333,7.5,321.815,7.5,232.36v-66.292
					c0-11.094,8.994-20.088,20.088-20.088h456.824c11.094,0,20.088,8.994,20.088,20.088v66.292
					C504.5,321.815,431.982,394.333,342.526,394.333z"/>
				<g>
					<g>
						<circle style="fill:#804EA0;" cx="120.108" cy="232.825" r="33.556"/>
						<path style="fill:#6E4189;" d="M153.665,232.822c0,18.53-15.02,33.56-33.56,33.56c-13.58,0-25.28-8.08-30.56-19.69
							c3.95,1.87,8.36,2.91,13.02,2.91c16.88,0,30.56-13.68,30.56-30.55c0-7.27-2.55-13.96-6.8-19.21
							C141.895,202.762,153.665,216.422,153.665,232.822z"/>
					</g>
				</g>
				<path style="fill:#D9C7E4;" d="M504.5,166.066v66.29c0,89.46-72.52,161.98-161.97,161.98h-42.84
					c89.45,0,161.97-72.52,161.97-161.98v-66.29c0-11.09-8.99-20.09-20.09-20.09h42.84C495.51,145.976,504.5,154.976,504.5,166.066z
					"/>
				<path style="fill:#FB6672;" d="M7.5,232.36c0,89.455,72.518,161.974,161.974,161.974h173.053
					c89.456,0,161.974-72.518,161.974-161.974H7.5z"/>
				<g>
					<g>
						<circle style="fill:#804EA0;" cx="348.54" cy="232.825" r="33.556"/>
						<path style="fill:#6E4189;" d="M382.096,232.822c0,18.53-15.02,33.56-33.56,33.56c-13.58,0-25.28-8.08-30.56-19.69
							c3.95,1.87,8.36,2.91,13.02,2.91c16.88,0,30.56-13.68,30.56-30.55c0-7.27-2.55-13.96-6.8-19.21
							C370.326,202.762,382.096,216.422,382.096,232.822z"/>
					</g>
				</g>
				<g>
					<g>
						<path style="fill:#F8B1B2;" d="M382.096,232.822c0,18.53-15.02,33.56-33.56,33.56c-18.53,0-33.55-15.03-33.55-33.56
							c0-0.15,0-0.31,0.01-0.46h67.09C382.096,232.512,382.096,232.672,382.096,232.822z"/>
						<path style="fill:#F59697;" d="M382.096,232.822c0,18.53-15.02,33.56-33.56,33.56c-13.58,0-25.28-8.08-30.56-19.69
							c3.95,1.87,8.36,2.91,13.02,2.91c12.1,0,22.56-7.03,27.52-17.24h23.57C382.096,232.512,382.096,232.672,382.096,232.822z"/>
					</g>
				</g>
				<g>
					<path style="fill:#F8C6C7;" d="M280.293,320.092l-40.431-4.082c-3.776-0.381-6.527-3.751-6.146-7.526l4.082-40.431
						c0.381-3.776,3.751-6.527,7.526-6.146l40.431,4.082c3.776,0.381,6.527,3.751,6.146,7.526l-4.082,40.431
						C287.438,317.722,284.068,320.473,280.293,320.092z"/>
					<path style="fill:#F8B1B2;" d="M291.904,273.519l-4.081,40.423c-0.381,3.776-3.75,6.536-7.526,6.155l-26.329-2.658
						c3.776,0.381,7.155-2.378,7.536-6.154l4.081-40.423c0.381-3.776-2.379-7.144-6.155-7.526l26.329,2.658
						C289.535,266.376,292.285,269.743,291.904,273.519z"/>
				</g>
				<g>
					<g>
						<path style="fill:#F8B1B2;" d="M153.665,232.822c0,18.53-15.02,33.56-33.56,33.56c-18.53,0-33.55-15.03-33.55-33.56
							c0-0.15,0-0.31,0.01-0.46h67.09C153.665,232.512,153.665,232.672,153.665,232.822z"/>
						<path style="fill:#F59697;" d="M153.665,232.822c0,18.53-15.02,33.56-33.56,33.56c-13.58,0-25.28-8.08-30.56-19.69
							c3.95,1.87,8.36,2.91,13.02,2.91c12.1,0,22.56-7.03,27.52-17.24h23.57C153.665,232.512,153.665,232.672,153.665,232.822z"/>
					</g>
				</g>
				<path style="fill:#FB4A59;" d="M504.5,232.356c0,89.46-72.52,161.98-161.97,161.98h-42.84c89.45,0,161.97-72.52,161.97-161.98
					H504.5z"/>
				<path style="fill:#F59697;" d="M402.14,232.356l-20.15,113.65c-5.04,28.38-29.72,48.33-57.57,48.33c-3.4,0-6.84-0.3-10.3-0.91
					c-31.83-5.65-53.06-36.03-47.41-67.87l0.567-3.208c0.962-5.44,6.154-9.07,11.594-8.105l75.879,13.462l16.91-95.35H402.14z"/>
				<path style="fill:#F17D7E;" d="M380.64,351.853c-7.17,25.23-30.33,42.48-56.22,42.48c-3.4,0-6.84-0.3-10.3-0.91
					c-30.78-5.46-51.65-34.05-47.88-64.73c13.76,23.04,38.95,38.46,67.73,38.46C351.43,367.152,367.57,361.472,380.64,351.853z"/>
				<path style="fill:#B5ADB6;" d="M487.6,101.926c-1.45,8.15-9.24,13.59-17.39,12.15l-29.64-5.26
					c-8.83-1.57-17.29,4.34-18.86,13.17l-19.57,110.37h-30.48l20.51-115.61c4.46-25.12,28.52-41.93,53.64-37.47l29.64,5.26
					C483.6,85.976,489.04,93.766,487.6,101.926z"/>
			</g>
		</g>
		<g>
			<path style="fill:#F8B1B2;" d="M185.804,393.123l-32.915-22.813c-3.074-2.13-3.838-6.349-1.708-9.423l22.813-32.915
				c2.13-3.074,6.349-3.838,9.423-1.708l32.915,22.813c3.074,2.13,3.838,6.349,1.708,9.423l-22.813,32.915
				C193.096,394.488,188.878,395.253,185.804,393.123z"/>
			<path style="fill:#F59697;" d="M218.041,358.504l-22.809,32.909c-2.13,3.074-6.353,3.846-9.426,1.716l-21.435-14.856
				c3.074,2.13,7.304,1.364,9.435-1.71l22.809-32.909c2.13-3.074,1.358-7.296-1.716-9.426l21.435,14.856
				C219.407,351.214,220.171,355.43,218.041,358.504z"/>
		</g>
		<g>
			<path style="fill:#F8C6C7;" d="M128.668,336.301l-31.929,5.788c-2.982,0.54-5.837-1.438-6.377-4.42l-5.788-31.929
				c-0.54-2.982,1.438-5.837,4.42-6.377l31.929-5.788c2.982-0.54,5.837,1.438,6.377,4.42l5.788,31.929
				C133.628,332.905,131.649,335.761,128.668,336.301z"/>
			<path style="fill:#F8B1B2;" d="M127.303,297.996l5.787,31.923c0.541,2.982-1.436,5.843-4.418,6.384l-20.793,3.769
				c2.982-0.54,4.966-3.404,4.426-6.385l-5.787-31.923c-0.541-2.982-3.402-4.958-6.384-4.418l20.793-3.769
				C123.909,293.037,126.762,295.015,127.303,297.996z"/>
		</g>
		<g>
			<g>
				<g>
					<circle style="fill:#17998C;" cx="219.247" cy="232.825" r="41.629"/>
					<path style="fill:#138B80;" d="M260.877,232.822c0,22.988-18.634,41.635-41.635,41.635c-16.847,0-31.362-10.024-37.913-24.428
						c4.9,2.32,10.371,3.61,16.153,3.61c20.941,0,37.913-16.971,37.913-37.9c0-9.019-3.164-17.319-8.436-23.832
						C246.275,195.529,260.877,212.476,260.877,232.822z"/>
				</g>
			</g>
			<g>
				<g>
					<path style="fill:#F8B1B2;" d="M260.877,232.822c0,22.988-18.634,41.635-41.635,41.635c-22.988,0-41.622-18.646-41.622-41.635
						c0-0.186,0-0.385,0.012-0.571h83.232C260.877,232.437,260.877,232.636,260.877,232.822z"/>
					<path style="fill:#F59697;" d="M260.877,232.822c0,22.988-18.634,41.635-41.635,41.635c-16.847,0-31.362-10.024-37.913-24.428
						c4.9,2.32,10.371,3.61,16.153,3.61c15.011,0,27.988-8.721,34.141-21.388h29.241
						C260.877,232.437,260.877,232.636,260.877,232.822z"/>
				</g>
			</g>
		</g>
	</g>
	<g>
		<path d="M484.412,138.48h-58.01l2.692-15.181c0.408-2.299,1.691-4.305,3.615-5.649s4.248-1.856,6.55-1.451l29.22,5.184
			c12.087,2.145,23.634-5.364,26.288-17.093c1.375-6.069,0.239-12.261-3.196-17.434c-3.388-5.1-8.787-8.639-14.813-9.708
			l-29.638-5.258c-14.142-2.507-28.414,0.64-40.187,8.865c-11.773,8.226-19.639,20.543-22.147,34.684l-4.088,23.041h-56.139
			c-4.143,0-7.5,3.357-7.5,7.5s3.357,7.5,7.5,7.5h53.478l-7.884,44.437c-6.415-3.977-13.866-6.147-21.613-6.147
			c-19.913,0-36.555,14.254-40.274,33.093h-40.545c-3.817-23.316-24.095-41.167-48.474-41.167s-44.657,17.851-48.474,41.167h-10.391
			c-3.719-18.839-20.361-33.093-40.274-33.093s-36.555,14.254-40.274,33.093H15v-58.795c0-6.941,5.646-12.588,12.588-12.588h261.575
			c4.143,0,7.5-3.357,7.5-7.5s-3.357-7.5-7.5-7.5H27.588C12.376,138.48,0,150.856,0,166.067v66.292
			c0,38.615,12.657,74.992,36.603,105.197c1.48,1.867,3.67,2.841,5.882,2.841c1.632,0,3.276-0.53,4.654-1.623
			c3.246-2.573,3.791-7.29,1.218-10.536c-20.265-25.563-31.651-55.979-33.174-88.376h64.486
			c3.349,19.295,20.202,34.018,40.44,34.018s37.091-14.723,40.44-34.018h10.082c3.425,23.766,23.917,42.091,48.617,42.091
			c3.323,0,6.568-0.336,9.707-0.967l-2.7,26.746c-0.795,7.883,4.971,14.944,12.855,15.741l20.024,2.022
			c-3.771,23.869,5.835,46.92,23.363,61.339h-74.969l16.677-24.062c4.481-6.467,2.867-15.375-3.6-19.859L187.689,320.1
			c-3.133-2.172-6.922-2.996-10.676-2.313c-3.751,0.68-7.013,2.78-9.184,5.913l-22.813,32.915c-4.481,6.467-2.867,15.375,3.6,19.859
			l14.765,10.233c-33.251-1.323-65.464-13.435-91.302-34.451c-3.213-2.615-7.938-2.127-10.551,1.086
			c-2.613,3.214-2.128,7.938,1.086,10.551c21.154,17.206,46.201,28.965,72.706,34.436v11.007c0,17.433,14.183,31.615,31.615,31.615
			h178.129c17.433,0,31.615-14.183,31.615-31.615v-10.96C453.814,382.529,512,314.112,512,232.359v-66.292
			C512,150.856,499.624,138.48,484.412,138.48z M484.412,153.48c6.941,0,12.588,5.646,12.588,12.588v58.795h-85.915l12.657-71.383
			H484.412z M399.555,118.059c1.809-10.195,7.479-19.077,15.969-25.008c8.489-5.932,18.779-8.202,28.976-6.392l29.637,5.258
			c2.039,0.361,3.793,1.512,4.939,3.237c1.145,1.724,1.521,3.791,1.062,5.822c-0.869,3.838-4.922,6.364-9.038,5.636l-29.22-5.184
			c-6.246-1.107-12.552,0.286-17.761,3.925c-5.208,3.639-8.687,9.082-9.794,15.326l-3.156,17.8h-15.236L399.555,118.059z
			 M408.508,153.48l-12.657,71.383h-15.244l12.664-71.383H408.508z M348.54,206.77c7.07,0,13.753,2.849,18.646,7.869l-1.814,10.223
			h-41.639C327.107,214.379,336.949,206.77,348.54,206.77z M296.195,263.735c-2.428-2.974-5.868-4.823-9.687-5.208l-24.01-2.424
			c2.683-4.964,4.529-10.441,5.365-16.241H308.1c3.349,19.295,20.202,34.018,40.44,34.018c2.796,0,5.572-0.291,8.288-0.849
			l-8.157,45.978l-52.878-9.381l3.57-35.359C299.749,270.449,298.624,266.709,296.195,263.735z M359.792,256.322
			c-3.492,1.673-7.339,2.558-11.252,2.558c-11.928,0-22.003-8.06-25.082-19.018h39.254L359.792,256.322z M219.247,198.695
			c16.077,0,29.584,11.178,33.181,26.167h-66.363C189.663,209.873,203.17,198.695,219.247,198.695z M120.108,206.77
			c11.591,0,21.433,7.609,24.807,18.093H95.302C98.675,214.379,108.518,206.77,120.108,206.77z M120.108,258.88
			c-11.928,0-22.003-8.06-25.082-19.018h50.164C142.112,250.82,132.037,258.88,120.108,258.88z M185.852,239.862h66.791
			c-3.253,15.453-16.989,27.091-33.395,27.091S189.105,255.315,185.852,239.862z M244.649,274.862
			c2.341-1.42,4.547-3.039,6.611-4.817l33.116,3.343L280.983,307l-0.804-0.143c-5.488-0.976-10.834,0.748-14.704,4.201
			l-24.233-2.446L244.649,274.862z M179.743,332.843l31.718,21.982l-21.983,31.718l-31.718-21.982L179.743,332.843z M361.68,409.335
			c0,9.162-7.453,16.615-16.615,16.615H166.936c-9.162,0-16.615-7.453-16.615-16.615v-8.604c6.34,0.725,12.734,1.102,19.153,1.102
			h173.053c6.476,0,12.864-0.378,19.153-1.089V409.335z M368.791,384.589c10.435-9.481,17.933-22.347,20.58-37.271l5.21-29.379
			c0.724-4.078-1.997-7.971-6.075-8.694c-4.079-0.725-7.971,1.997-8.694,6.075l-5.21,29.379
			c-2.381,13.423-9.847,25.116-21.023,32.924c-11.176,7.809-24.729,10.798-38.146,8.416c-27.711-4.917-46.256-31.461-41.34-59.172
			l0.57-3.215c0.24-1.357,1.543-2.265,2.897-2.025l75.875,13.461c1.958,0.347,3.976-0.098,5.605-1.236
			c1.631-1.14,2.742-2.88,3.09-4.838l15.816-89.151h15.245l-7.23,40.775c-0.724,4.079,1.997,7.972,6.075,8.694
			c4.085,0.721,7.972-1.997,8.694-6.075l7.695-43.395h88.39C493.313,312.719,439.101,372.495,368.791,384.589z"/>
		<path d="M88.362,347.364c2.198,1.522,4.751,2.315,7.37,2.315c0.778,0,1.563-0.069,2.344-0.211l31.929-5.788
			c3.413-0.618,6.382-2.529,8.358-5.381c1.976-2.851,2.723-6.3,2.104-9.714l-5.788-31.929c-0.618-3.413-2.529-6.382-5.38-8.358
			c-2.852-1.977-6.3-2.722-9.715-2.104l-31.929,5.788c-3.413,0.618-6.382,2.529-8.358,5.38c-1.977,2.852-2.724,6.303-2.104,9.715
			l5.788,31.929C83.6,342.419,85.511,345.388,88.362,347.364z M120.279,301.314l5.069,27.967l-27.967,5.069l-5.069-27.967
			L120.279,301.314z"/>
		<path d="M425.904,283.39c1.465,1.465,3.384,2.197,5.304,2.197c1.919,0,3.839-0.732,5.303-2.196
			c2.93-2.929,2.93-7.678,0.001-10.606l-5.553-5.554c-2.93-2.929-7.679-2.93-10.606-0.001c-2.93,2.929-2.93,7.678-0.001,10.606
			L425.904,283.39z"/>
		<path d="M51.394,262.076c-2.93-2.928-7.678-2.928-10.607,0c-2.929,2.93-2.929,7.678,0,10.607l5.553,5.553
			c1.465,1.464,3.385,2.196,5.304,2.196s3.839-0.732,5.304-2.196c2.929-2.93,2.929-7.678,0-10.607L51.394,262.076z"/>
		<path d="M187.387,301.276c1.919,0,3.839-0.732,5.304-2.196c2.929-2.93,2.929-7.678,0-10.607l-5.553-5.553
			c-2.93-2.928-7.678-2.928-10.607,0c-2.929,2.93-2.929,7.678,0,10.607l5.553,5.553
			C183.548,300.544,185.468,301.276,187.387,301.276z"/>
		<path d="M430.959,305.266c-2.93-2.928-7.678-2.928-10.607,0c-2.929,2.93-2.929,7.678,0,10.607l5.553,5.553
			c1.465,1.464,3.385,2.196,5.304,2.196s3.839-0.732,5.304-2.196c2.929-2.93,2.929-7.678,0-10.607L430.959,305.266z"/>
		<path d="M478.314,259.301l-5.553-5.554c-2.93-2.929-7.679-2.93-10.606-0.001c-2.93,2.929-2.93,7.678-0.001,10.606l5.553,5.554
			c1.465,1.465,3.384,2.197,5.304,2.197c1.919,0,3.839-0.732,5.303-2.196C481.243,266.979,481.243,262.23,478.314,259.301z"/>
	</g>
</g>
<g>
</g>
<g>
</g>
<g>
</g>
<g>
</g>
<g>
</g>
<g>
</g>
<g>
</g>
<g>
</g>
<g>
</g>
<g>
</g>
<g>
</g>
<g>
</g>
<g>
</g>
<g>
</g>
<g>
</g>
</svg>
