<?xml version="1.0" encoding="iso-8859-1"?>
<!-- Generator: Adobe Illustrator 24.0.2, SVG Export Plug-In . SVG Version: 6.00 Build 0)  -->
<svg version="1.1" id="Capa_1" xmlns="http://www.w3.org/2000/svg" xmlns:xlink="http://www.w3.org/1999/xlink" x="0px" y="0px"
	 viewBox="0 0 512 512" style="enable-background:new 0 0 512 512;" xml:space="preserve">
<g>
	<g>
		<path style="fill:#FB8627;" d="M105.325,17.5c0-5.523,4.477-10,10-10h349.983c5.523,0,10,4.477,10,10v477c0,5.523-4.477,10-10,10
			H115.325c-5.523,0-10-4.477-10-10"/>
		<path style="fill:#F2671F;" d="M475.312,17.5v477c0,5.52-4.48,10-10,10h-40.59c5.52,0,10-4.48,10-10v-477c0-5.52-4.48-10-10-10
			h40.59C470.832,7.5,475.312,11.98,475.312,17.5z"/>
		<g>
			<path style="fill:#FFF1E2;" d="M436.685,474.5h-85.662v-437h85.662c5.523,0,10,4.477,10,10v417
				C446.685,470.023,442.208,474.5,436.685,474.5z"/>
			<path style="fill:#FEE7C9;" d="M424.424,37.5v437h12.261c5.523,0,10-4.477,10-10v-417c0-5.523-4.477-10-10-10H424.424z"/>
		</g>
		<path style="fill:#FCA62F;" d="M396.68,504.5H46.696c-5.523,0-10-4.477-10-10v-477c0-5.523,4.477-10,10-10H396.68
			c5.523,0,10,4.477,10,10v477C406.68,500.023,402.202,504.5,396.68,504.5z"/>
		<path style="fill:#F98824;" d="M406.682,17.5v477c0,5.52-4.48,10-10,10h-40.59c5.52,0,10-4.48,10-10v-477c0-5.52-4.48-10-10-10
			h40.59C402.202,7.5,406.682,11.98,406.682,17.5z"/>
		<path style="fill:#845152;" d="M66.696,464.5v-417c0-5.523,4.477-10,10-10H366.68c5.523,0,10,4.477,10,10v417
			c0,5.523-4.477,10-10,10H76.696C71.173,474.5,66.696,470.023,66.696,464.5z"/>
		<path style="fill:#704545;" d="M340.585,37.5v437h26.095c5.523,0,10-4.477,10-10v-417c0-5.523-4.477-10-10-10H340.585z"/>
		<g>
			<path style="fill:#FFF1E2;" d="M300.415,123.121c-6.021-8.119-14.58-14.345-24.75-17.438c-17.595-5.34-35.788-8.014-53.98-8.014
				s-36.385,2.674-53.98,8.014c-20.339,6.173-34.248,24.933-34.248,46.184v56.611c0,9.013,3.577,17.656,9.951,24.034l8.185,8.176
				c4.616,4.616,11.666,5.763,17.508,2.849l4.005-1.998c9.258-4.625,19.955,2.84,18.817,13.123
				c-0.039,0.349-0.057,0.702-0.057,1.038c0,5.035,4.092,9.236,9.253,9.236h41.128c5.515,0,9.807-4.795,9.197-10.274
				c-0.057-0.51-0.083-1.012-0.083-1.505c0-9.489,10.1-16.016,18.899-11.618l4.005,1.998c5.842,2.914,12.892,1.767,17.508-2.849
				l8.185-8.176c6.374-6.378,9.956-15.021,9.956-24.034v-56.611C309.913,141.239,306.436,131.235,300.415,123.121z M181.539,211.712
				c-14.307-1.755-24.672-13.183-23.161-25.521c1.516-12.337,14.341-20.913,28.643-19.155c14.307,1.755,24.677,13.18,23.161,25.517
				C208.668,204.89,195.842,213.467,181.539,211.712z M285.125,185.695c1.731,12.308-8.438,23.917-22.712,25.921
				c-14.27,2.004-27.243-6.347-28.974-18.656c-1.727-12.309,8.438-23.913,22.712-25.917
				C270.421,165.036,283.394,173.387,285.125,185.695z"/>
		</g>
		<g>
			<path style="fill:#FCC16D;" d="M410.311,291.758h-51.517c-5.523,0-10-4.477-10-10v-51.517c0-5.523,4.477-10,10-10h51.517
				c5.523,0,10,4.477,10,10v51.517C420.311,287.281,415.834,291.758,410.311,291.758z"/>
			<path style="fill:#FCA62F;" d="M420.312,230.24v51.52c0,5.52-4.48,10-10,10h-30.76c5.52,0,10-4.48,10-10v-51.52
				c0-5.52-4.48-10-10-10h30.76C415.832,220.24,420.312,224.72,420.312,230.24z"/>
			<g>
				<path d="M465.308,0H46.692c-9.649,0-17.5,7.851-17.5,17.5v477c0,9.649,7.851,17.5,17.5,17.5h418.616
					c9.649,0,17.5-7.851,17.5-17.5v-477C482.808,7.851,474.957,0,465.308,0z M44.192,494.5v-477c0-1.379,1.122-2.5,2.5-2.5h349.99
					c1.378,0,2.5,1.121,2.5,2.5v107.41c0,4.143,3.358,7.5,7.5,7.5s7.5-3.357,7.5-7.5V45h22.502c1.378,0,2.5,1.121,2.5,2.5v417
					c0,1.379-1.122,2.5-2.5,2.5h-22.502V298.813c7.79-1.769,13.628-8.736,13.628-17.054v-51.518c0-8.318-5.838-15.285-13.628-17.054
					V160.3c0-4.143-3.358-7.5-7.5-7.5s-7.5,3.357-7.5,7.5v52.441h-15V47.5c0-9.649-7.851-17.5-17.5-17.5H76.692
					c-9.649,0-17.5,7.851-17.5,17.5v417c0,9.649,7.851,17.5,17.5,17.5h195.22c4.142,0,7.5-3.357,7.5-7.5s-3.358-7.5-7.5-7.5H76.692
					c-1.378,0-2.5-1.121-2.5-2.5v-417c0-1.379,1.122-2.5,2.5-2.5h289.99c1.378,0,2.5,1.121,2.5,2.5v165.241h-10.388
					c-9.649,0-17.5,7.851-17.5,17.5v51.518c0,9.649,7.851,17.5,17.5,17.5h10.388V464.5c0,1.379-1.122,2.5-2.5,2.5h-59.38
					c-4.142,0-7.5,3.357-7.5,7.5s3.358,7.5,7.5,7.5h59.38c9.649,0,17.5-7.851,17.5-17.5V299.259h15V494.5c0,1.379-1.122,2.5-2.5,2.5
					H46.692C45.314,497,44.192,495.879,44.192,494.5z M358.794,284.259c-1.378,0-2.5-1.121-2.5-2.5v-51.518
					c0-1.379,1.122-2.5,2.5-2.5h51.517c1.378,0,2.5,1.121,2.5,2.5v51.518c0,1.379-1.122,2.5-2.5,2.5H358.794z M467.808,494.5
					c0,1.379-1.122,2.5-2.5,2.5h-51.325c0.118-0.819,0.2-1.649,0.2-2.5V482h22.502c9.649,0,17.5-7.851,17.5-17.5v-417
					c0-9.649-7.851-17.5-17.5-17.5h-22.502V17.5c0-0.851-0.082-1.681-0.2-2.5h51.325c1.378,0,2.5,1.121,2.5,2.5V494.5z"/>
				<path d="M187.937,159.593c-8.702-1.065-17.296,0.885-24.201,5.502c-7.252,4.85-11.798,12.017-12.802,20.185
					c-2.012,16.424,11.307,31.621,29.692,33.878c1.546,0.189,3.079,0.281,4.592,0.281c16.481,0,30.561-10.932,32.408-25.971
					c1.003-8.166-1.673-16.221-7.538-22.682C204.507,164.636,196.639,160.66,187.937,159.593z M202.74,191.64
					c-1.009,8.211-10.103,13.882-20.287,12.629c-10.176-1.249-17.637-8.949-16.63-17.162c0.463-3.768,2.683-7.156,6.252-9.543
					c3.192-2.135,7.094-3.257,11.208-3.257c0.933,0,1.877,0.058,2.826,0.175c5.135,0.63,9.707,2.897,12.874,6.387
					C201.868,184.047,203.202,187.872,202.74,191.64z"/>
				<path d="M317.413,208.478v-56.61c0-12.054-3.795-23.539-10.974-33.213c-7.172-9.673-17.06-16.64-28.596-20.148
					c-12.337-3.745-25.112-6.261-37.969-7.477c-4.119-0.386-7.782,2.637-8.173,6.761c-0.39,4.123,2.637,7.782,6.76,8.173
					c11.861,1.122,23.645,3.442,35.021,6.896c8.434,2.564,15.664,7.658,20.909,14.731c5.248,7.072,8.021,15.467,8.021,24.277v56.61
					c0,7.072-2.756,13.725-7.756,18.729l-8.188,8.179c-2.338,2.338-5.896,2.915-8.856,1.441l-4-1.996
					c-6.42-3.207-13.891-2.874-19.984,0.892c-6.117,3.781-9.769,10.299-9.769,17.435c0,0.777,0.043,1.563,0.129,2.337
					c0.071,0.641-0.197,1.092-0.435,1.357c-0.239,0.267-0.66,0.585-1.308,0.585h-41.127c-1.083,0-1.753-0.9-1.753-1.735
					c0-0.065,0.002-0.135,0.011-0.213c0.829-7.49-2.496-14.821-8.677-19.131c-6.18-4.311-14.207-4.896-20.942-1.528l-4.006,1.998
					c-2.958,1.475-6.517,0.896-8.859-1.444l-8.18-8.172c-5.001-5.005-7.756-11.657-7.756-18.732v-56.61
					c0-18.081,11.625-33.757,28.925-39.008c11.248-3.413,22.894-5.72,34.615-6.854c4.123-0.399,7.141-4.064,6.742-8.188
					c-0.399-4.124-4.065-7.148-8.188-6.742c-12.705,1.23-25.33,3.73-37.524,7.431c-23.667,7.184-39.569,28.627-39.569,53.361v56.61
					c0,11.08,4.314,21.498,12.151,29.34l8.181,8.173c6.906,6.907,17.419,8.62,26.159,4.258l4.01-2
					c2.666-1.331,4.848-0.156,5.663,0.412s2.675,2.211,2.348,5.167c-0.069,0.611-0.104,1.242-0.104,1.873
					c0,9.228,7.516,16.735,16.753,16.735h41.127c4.761,0,9.312-2.035,12.487-5.583c3.173-3.547,4.691-8.293,4.164-13.018
					c-0.024-0.223-0.037-0.451-0.037-0.679c0-2.738,1.857-4.182,2.655-4.675c0.787-0.486,2.887-1.485,5.396-0.231l4.005,1.998
					c8.741,4.361,19.253,2.649,26.156-4.254l8.189-8.181C313.097,229.973,317.413,219.555,317.413,208.478z"/>
				<path d="M258.219,219.411c1.723,0,3.473-0.12,5.236-0.368h0c8.684-1.22,16.481-5.332,21.956-11.581
					c5.75-6.563,8.286-14.664,7.14-22.811c-1.145-8.147-5.816-15.234-13.151-19.957c-6.984-4.496-15.612-6.303-24.291-5.078
					c-18.343,2.576-31.396,18.002-29.096,34.389C228.094,208.812,242.016,219.411,258.219,219.411z M257.196,174.47
					c1.08-0.151,2.154-0.227,3.214-0.227c3.97,0,7.744,1.052,10.87,3.063c3.61,2.324,5.889,5.674,6.417,9.434
					c0.528,3.759-0.739,7.607-3.568,10.837c-3.105,3.544-7.637,5.893-12.759,6.612h0c-10.153,1.425-19.352-4.081-20.504-12.271
					C239.717,183.724,247.042,175.896,257.196,174.47z"/>
				<path d="M369.437,232.716c-4.141,0.083-7.43,3.509-7.347,7.649l0.005,0.266c0.083,4.09,3.424,7.349,7.496,7.349
					c0.051,0,0.103-0.001,0.155-0.002c4.141-0.083,7.43-3.509,7.347-7.649l-0.005-0.266
					C377.004,235.921,373.588,232.605,369.437,232.716z"/>
				<path d="M369.397,260.64c-4.141,0.083-7.43,3.509-7.347,7.649l0.005,0.266c0.083,4.09,3.424,7.349,7.496,7.349
					c0.051,0,0.103-0.001,0.155-0.002c4.141-0.083,7.43-3.509,7.347-7.649l-0.005-0.266
					C376.964,263.845,373.549,260.563,369.397,260.64z"/>
				<path d="M105.333,437.747c-0.104,0-0.207,0-0.311,0.002c0.083-6.994-2.624-13.837-7.719-18.933
					c-2.929-2.928-7.678-2.928-10.606,0c-2.929,2.93-2.929,7.678,0,10.607c2.961,2.961,4.049,7.296,2.839,11.312
					c-1.071,3.551-0.112,7.381,2.502,9.995c2.615,2.615,6.445,3.574,9.996,2.505c4.017-1.209,8.352-0.122,11.313,2.84
					c1.464,1.464,3.384,2.196,5.303,2.196s3.839-0.732,5.303-2.196c2.929-2.93,2.929-7.678,0-10.607
					C118.934,440.448,112.218,437.747,105.333,437.747z"/>
				<path d="M327.142,458.271c1.919,0,3.839-0.732,5.303-2.196c2.962-2.962,7.298-4.05,11.314-2.839
					c3.554,1.071,7.38,0.109,9.995-2.505s3.574-6.444,2.504-9.995c-1.21-4.017-0.123-8.352,2.839-11.313
					c2.929-2.929,2.929-7.678,0-10.606c-2.93-2.93-7.678-2.929-10.607-0.001c-5.096,5.096-7.803,11.938-7.72,18.933
					c-7.028-0.075-13.836,2.625-18.932,7.719c-2.929,2.929-2.929,7.678,0,10.606C323.303,457.539,325.223,458.271,327.142,458.271z"
					/>
				<path d="M340.771,74.251c-0.083,6.994,2.625,13.838,7.72,18.933c1.465,1.464,3.384,2.196,5.303,2.196s3.839-0.732,5.304-2.197
					c2.929-2.929,2.928-7.678,0-10.606c-2.962-2.961-4.05-7.296-2.839-11.313c1.07-3.55,0.11-7.38-2.504-9.994
					s-6.443-3.572-9.995-2.504c-4.016,1.208-8.351,0.123-11.313-2.84c-2.93-2.928-7.678-2.929-10.607,0.001
					c-2.929,2.929-2.928,7.678,0,10.606C326.935,71.627,333.764,74.308,340.771,74.251z"/>
				<path d="M91.999,95.38c1.919,0,3.839-0.732,5.303-2.196c5.095-5.096,7.802-11.938,7.719-18.933
					c6.993,0.072,13.837-2.625,18.932-7.719c2.929-2.93,2.929-7.678,0-10.607c-2.929-2.928-7.678-2.928-10.606,0
					c-2.961,2.962-7.295,4.052-11.314,2.839c-3.552-1.068-7.381-0.109-9.996,2.506c-2.614,2.614-3.573,6.444-2.503,9.994
					c1.21,4.017,0.123,8.352-2.839,11.313c-2.929,2.93-2.929,7.678,0,10.607C88.16,94.647,90.08,95.38,91.999,95.38z"/>
				<path d="M250.546,390.193c4.142,0,7.5-3.357,7.5-7.5s-3.358-7.5-7.5-7.5h-57.723c-4.142,0-7.5,3.357-7.5,7.5s3.358,7.5,7.5,7.5
					H250.546z"/>
				<path d="M276.558,401.902H166.811c-4.142,0-7.5,3.357-7.5,7.5s3.358,7.5,7.5,7.5h109.747c4.142,0,7.5-3.357,7.5-7.5
					S280.7,401.902,276.558,401.902z"/>
			</g>
		</g>
	</g>
</g>
<g>
</g>
<g>
</g>
<g>
</g>
<g>
</g>
<g>
</g>
<g>
</g>
<g>
</g>
<g>
</g>
<g>
</g>
<g>
</g>
<g>
</g>
<g>
</g>
<g>
</g>
<g>
</g>
<g>
</g>
</svg>
