<?xml version="1.0" encoding="iso-8859-1"?>
<!-- Generator: Adobe Illustrator 24.0.2, SVG Export Plug-In . SVG Version: 6.00 Build 0)  -->
<svg version="1.1" id="Capa_1" xmlns="http://www.w3.org/2000/svg" xmlns:xlink="http://www.w3.org/1999/xlink" x="0px" y="0px"
	 viewBox="0 0 511.988 511.988" style="enable-background:new 0 0 511.988 511.988;" xml:space="preserve">
<g>
	<g>
		<path style="fill:#804EA0;" d="M439.475,22.504v466.98c0,8.29-6.71,15-15,15H87.515c-8.29,0-15-6.71-15-15V22.504
			c0-8.29,6.71-15,15-15h336.96C432.765,7.504,439.475,14.214,439.475,22.504z"/>
		<path style="fill:#6E4189;" d="M439.48,22.5v466.989c0,8.28-6.72,15-15,15h-42.039c8.28,0,15-6.72,15-15V22.5
			c0-8.28-6.72-15-15-15h42.039C432.761,7.5,439.48,14.22,439.48,22.5z"/>
		<path style="fill:#554E55;" d="M439.475,229.564v259.92c0,8.29-6.71,15-15,15H87.515c-8.29,0-15-6.71-15-15v-68.49
			C219.825,289.254,367.174,244.434,439.475,229.564z"/>
		<path style="fill:#433F43;" d="M439.485,229.614v259.87c0,8.28-6.72,15-15,15h-42.04c8.28,0,15-6.72,15-15v-249.73
			c15.86-4.41,29.99-7.71,42.03-10.19L439.485,229.614z"/>
		<path style="fill:#F2671F;" d="M248.873,150.632c6.519-6.493,31.75-27.944,87.367-36.157c4.57-0.675,5.863-6.654,1.976-9.15
			l-16.529-10.615l12.235-17.425c2.496-3.554-0.414-8.392-4.721-7.834c-17.408,2.257-52.708,8.884-85.483,27.567l-20.486,50.703
			l21.145,4.253C246.008,152.301,247.695,151.805,248.873,150.632z"/>
		<path style="fill:#E25010;" d="M312.285,72.244c-11.28,16.1-22.89,35.74-31.69,57.86c-18.1,8.195-27.943,16.776-31.692,20.503
			c-1.188,1.182-2.88,1.699-4.523,1.369l-21.145-4.252l20.48-50.71C267.945,83.204,293.545,75.984,312.285,72.244z"/>
		<path style="fill:#F98824;" d="M334.685,7.504c0,0-64.077,57.856-86.414,140.516c-0.684,2.532-3.23,4.086-5.801,3.569
			l-43.185-8.686c-2.964-0.596-4.728-3.659-3.746-6.518c6.424-18.697,31.119-81.995,84.828-128.885L334.685,7.504z"/>
		<path style="fill:#FB7722;" d="M334.685,7.504c0,0-17.84,16.11-37.98,43.47c-30.27,14.86-59.85,33.12-88.49,54.63
			c13.15-27.81,36.12-66.65,72.15-98.1H334.685z"/>
		<g>
			<path style="fill:#FCB44D;" d="M334.685,7.504c-132.67,48.87-223.46,146.72-262.17,195v-76.25
				c22.23-28.31,75.49-82.84,154.09-118.75H334.685z"/>
		</g>
		<g>
			<g>
				<g>
					<path style="fill:#F2671F;" d="M190.326,504.489H87.508c-8.28,0-15-6.72-15-15V322.653
						c36.539-12.88,85.068,20.58,110.147,76.858C199.796,437.96,201.696,477.419,190.326,504.489z"/>
					
						<ellipse transform="matrix(0.9134 -0.4072 0.4072 0.9134 -112.8838 155.6456)" style="fill:#E25010;" cx="309.276" cy="343.064" rx="73.127" ry="115.203"/>
					<path style="fill:#FB7722;" d="M240.195,504.489H123.798c-16.23-15.42-30.819-35.959-41.619-60.189
						c-3.91-8.77-7.13-17.58-9.67-26.319v-91.888c6.58-16.92,17.52-29.889,32.469-36.549c42.289-18.86,100.638,19.87,130.337,86.488
						C256.755,424.121,257.395,473.599,240.195,504.489z"/>
					
						<ellipse transform="matrix(0.9134 -0.4072 0.4072 0.9134 -124.3823 139.842)" style="fill:#FB7722;" cx="266.394" cy="362.18" rx="83.833" ry="132.069"/>
					<path style="fill:#F2671F;" d="M342.967,328.044c29.696,66.617,19.487,135.917-22.796,154.765
						c-4.655,2.075-9.497,3.451-14.482,4.176c31.266-26.084,36.438-87.501,10.01-146.786c-26.428-59.285-75.56-96.483-115.86-90.665
						c3.871-3.223,8.131-5.904,12.786-7.98C254.908,222.706,313.27,261.427,342.967,328.044z"/>
					<path style="fill:#FC9744;" d="M280.274,504.489h-70.058c-25.799-16.34-51.349-47.149-68.908-86.548
						c-31.179-69.938-25.429-140.467,12.84-157.536c38.279-17.06,94.578,25.809,125.757,95.748
						C307.043,417.051,306.203,478.379,280.274,504.489z"/>
					<path style="fill:#FB8627;" d="M280.274,504.489h-20.979c15.75-30.459,12.94-82.688-10.19-134.597
						c-26.869-60.269-72.388-100.428-108.957-99.478c4.04-4.26,8.71-7.65,14-10.01c38.269-17.06,94.588,25.809,125.757,95.748
						C307.043,417.041,306.193,478.379,280.274,504.489z"/>
				</g>
				<g>
					<g>
						<g>
							<circle style="fill:#FCB44D;" cx="139.603" cy="384.166" r="33.38"/>
							<path style="fill:#FB9927;" d="M170.088,370.576c7.507,16.841-0.057,36.573-16.892,44.078
								c-7.624,3.398-15.845,3.711-23.254,1.468c0.28-0.118,0.56-0.235,0.843-0.362c16.841-7.507,24.402-27.246,16.898-44.081
								c-4.109-9.217-11.878-15.649-20.827-18.366C143.505,346.422,162.71,354.024,170.088,370.576z"/>
							<g>
								<path style="fill:#FCA62F;" d="M134.701,413.689c1.268,1.415,2.645,2.697,4.115,3.853c-3.019-0.076-5.999-0.558-8.856-1.428
									c0.274-0.115,0.548-0.23,0.825-0.354C132.155,415.149,133.461,414.461,134.701,413.689z"/>
							</g>
						</g>
						<g>
							<circle style="fill:#FCB44D;" cx="259.853" cy="330.562" r="33.38"/>
							<path style="fill:#FB9927;" d="M290.34,316.97c7.507,16.841-0.057,36.573-16.898,44.081
								c-7.624,3.398-15.839,3.708-23.248,1.465c0.28-0.118,0.56-0.235,0.843-0.362c16.835-7.505,24.397-27.243,16.892-44.078
								c-4.109-9.217-11.878-15.649-20.827-18.366C263.757,292.817,282.962,300.419,290.34,316.97z"/>
						</g>
					</g>
					<g>
						<path style="fill:#FCB44D;" d="M318.843,368.887c-1.936,41.386-23.91,89.392-65.806,108.068
							c-41.89,18.673-92.289,2.929-124.364-23.296c-5.186-4.238-1.781-12.61,4.9-12.08c13.525,1.08,28.699-1.851,45.091-7.128
							c1.641,2.854,4.321,7.202,7.564,11.269c1.837,2.304,5,3.077,7.691,1.878l9.128-4.069c3.259-1.453,4.723-5.272,3.27-8.531
							l-4.111-9.223c7.654-3.108,15.507-6.517,23.52-10.089c34.738-15.485,65.193-30.724,80.858-51.231
							C310.655,359.133,319.163,362.194,318.843,368.887z"/>
						<path style="fill:#FB9927;" d="M318.844,368.886c-1.936,41.386-23.91,89.392-65.806,108.068
							c-3.658,1.631-7.383,3.001-11.158,4.118c27.279-22.841,41.47-57.934,37.931-93.166c11.012-7.158,20.194-14.837,26.773-23.45
							C310.655,359.132,319.164,362.193,318.844,368.886z"/>
					</g>
				</g>
			</g>
		</g>
	</g>
	<g>
		<g>
			<circle style="fill:#F82F40;" cx="373.522" cy="175.532" r="38.165"/>
			<path style="fill:#E22334;" d="M411.687,175.533c0,21.077-17.091,38.168-38.168,38.168c-17.605,0-32.419-11.92-36.818-28.13
				c6.025,7.971,15.594,13.124,26.357,13.124c18.248,0,33.034-14.786,33.034-33.025c0-11.47-5.841-21.573-14.712-27.496
				C398.692,141.801,411.687,157.156,411.687,175.533z"/>
		</g>
	</g>
	<g>
		<path style="fill:#27E19D;" d="M267.321,258.934H139.96c-5.523,0-10-4.477-10-10v-16.473c0-5.523,4.477-10,10-10h127.361
			c5.523,0,10,4.477,10,10v16.473C277.321,254.457,272.844,258.934,267.321,258.934z"/>
		<path style="fill:#1EC186;" d="M277.325,232.464v16.47c0,5.52-4.48,10-10,10h-23.75c5.52,0,10-4.48,10-10v-16.47
			c0-5.53-4.48-10-10-10h23.75C272.845,222.464,277.325,226.934,277.325,232.464z"/>
		<g>
			<path d="M446.975,229.53v-69.07c0-4.143-3.357-7.5-7.5-7.5s-7.5,3.357-7.5,7.5v63.022c-29.255,6.325-59.483,15.103-89.953,26.125
				c-0.811,0.293-1.534,0.717-2.168,1.231c-17.703-15.243-37.391-24.222-56.207-24.628c-2.523-6.568-8.881-11.25-16.326-11.25
				h-47.627c-4.143,0-7.5,3.357-7.5,7.5s3.357,7.5,7.5,7.5h47.627c1.379,0,2.5,1.121,2.5,2.5v16.473c0,1.379-1.121,2.5-2.5,2.5
				H139.96c-1.379,0-2.5-1.121-2.5-2.5v-16.473c0-1.379,1.121-2.5,2.5-2.5h44.338c4.143,0,7.5-3.357,7.5-7.5s-3.357-7.5-7.5-7.5
				H139.96c-9.649,0-17.5,7.851-17.5,17.5v16.473c0,7.728,5.04,14.29,12.002,16.602c-3.21,3.435-6.078,7.38-8.591,11.786
				c-8.429,0.25-16.48,2.038-23.949,5.367c-8.324,3.711-15.685,9.234-21.908,16.32v-93.855
				c26.163-32.343,71.001-81.121,132.663-124.523c-13.375,23.812-21.038,44.024-24.231,53.318c-1.17,3.403-0.814,7.146,0.977,10.269
				c1.792,3.126,4.848,5.327,8.384,6.039c0,0,46.75,9.317,47.572,9.317c3.268,0,6.43-1.278,8.788-3.628
				c6.019-5.995,29.805-26.17,83.17-34.051c5.207-0.77,9.287-4.591,10.396-9.736c1.107-5.143-1.036-10.302-5.463-13.145
				l-9.952-6.392l7.744-11.029c2.847-4.056,3.029-9.416,0.464-13.657c-2.559-4.233-7.389-6.564-12.287-5.923
				c-8.79,1.14-21.029,3.228-34.958,6.991c19.122-28.77,38.386-48.222,44.385-54.004h86.811c4.135,0,7.499,3.364,7.499,7.5v102.565
				c0,4.143,3.357,7.5,7.5,7.5s7.5-3.357,7.5-7.5V22.5c0-12.406-10.093-22.5-22.499-22.5H87.513C75.107,0,65.014,10.094,65.014,22.5
				v395.275c-0.002,0.07,0,0.14,0,0.21v71.505c0,12.406,10.093,22.499,22.499,22.499h336.963c12.406,0,22.499-10.093,22.499-22.499
				V229.601C446.975,229.577,446.975,229.554,446.975,229.53z M280.477,260.435c22.314,15.538,42.401,40.978,55.635,70.666
				c5.233,11.74,9.288,23.812,12.053,35.88c0.796,3.474,3.885,5.827,7.304,5.827c0.555,0,1.118-0.063,1.682-0.191
				c4.037-0.925,6.561-4.947,5.636-8.985c-2.98-13.013-7.346-26.012-12.973-38.638c-15.359-34.45-38.413-62.697-64.993-79.683
				v-4.044c30.5,1.552,65.303,32.247,84.396,75.078c11.957,26.822,16.586,54.87,13.034,78.978
				c-2.484,16.863-8.772,30.181-18.079,38.776c2.393-10.428,3.517-21.886,3.248-34.13c-0.09-4.085-3.429-7.335-7.495-7.335
				c-0.056,0-0.111,0.001-0.168,0.002c-4.141,0.091-7.424,3.521-7.333,7.663c0.815,37.155-12.386,65.439-35.313,75.659
				c-4.584,2.044-9.474,3.312-14.595,3.833c3.884-12.844,5.544-27.908,4.792-44.482c11.797-20.938,18.025-44.708,19.025-66.062
				c0.301-6.283-3.466-11.955-9.372-14.114c-5.931-2.167-12.498-0.251-16.339,4.772c-2.216,2.901-4.793,5.7-7.661,8.414
				c-1.167-3.13-2.398-6.25-3.691-9.349c3.769-3.902,6.753-8.556,8.753-13.774c3.908-10.196,3.612-21.304-0.833-31.277
				c0,0,0,0-0.001,0c-8.53-19.135-30.051-28.494-49.576-22.353c-8.977-10.058-18.333-18.496-27.823-25.131h47.528
				C272.566,266.434,277.267,264.103,280.477,260.435z M212.419,496.988c-2.163-1.431-4.321-2.976-6.473-4.617
				c2.486,0.156,4.979,0.245,7.473,0.245c14.41,0,28.898-2.671,42.672-8.811c14.061-6.268,25.915-15.51,35.662-26.523
				c-1.782,16.758-6.824,30.447-14.783,39.705H212.419z M115.438,374.902c2.475-6.454,7.314-11.559,13.628-14.373
				c3.37-1.503,6.945-2.257,10.528-2.257c3.129,0,6.264,0.575,9.272,1.729c6.455,2.475,11.56,7.314,14.374,13.628
				s3.002,13.346,0.527,19.8c-2.474,6.455-7.314,11.56-13.628,14.374c-6.313,2.815-13.346,3.003-19.801,0.528
				c-6.454-2.475-11.559-7.314-14.373-13.628C113.151,388.39,112.964,381.357,115.438,374.902z M157.206,266.434h29.911
				c15.226,4.642,31.717,16.162,46.891,32.462c-13.934,11.38-19.161,31.108-11.492,48.311c4.446,9.974,12.51,17.618,22.705,21.527
				c4.754,1.822,9.706,2.73,14.648,2.73c5.658,0,11.306-1.19,16.629-3.563c0.064-0.029,0.126-0.061,0.189-0.09
				c1.399,3.485,2.712,6.99,3.934,10.49c-16.184,11.425-37.18,21.278-57.948,30.536c-9.193,4.097-16.594,7.271-23.289,9.989
				c-1.884,0.765-3.376,2.262-4.136,4.146c-0.76,1.886-0.721,3.999,0.106,5.856l3.688,8.273l-7.442,3.317
				c-2.709-3.488-4.977-7.169-6.434-9.705c-1.764-3.068-5.428-4.491-8.802-3.401c-7.043,2.267-13.529,3.968-19.527,5.129
				c-1.663-3.052-3.278-6.167-4.828-9.327c1.425-0.455,2.84-0.989,4.237-1.612c9.974-4.446,17.618-12.51,21.527-22.705
				c3.908-10.196,3.612-21.304-0.833-31.277c-4.446-9.974-12.51-17.618-22.706-21.526c-8.077-3.097-16.724-3.544-24.928-1.39
				C126.006,305.84,136.442,275.689,157.206,266.434z M284.018,339.825c-2.474,6.455-7.314,11.56-13.628,14.374
				c-6.313,2.815-13.346,3.004-19.8,0.527c-6.455-2.474-11.56-7.314-14.374-13.628c-2.815-6.313-3.002-13.346-0.528-19.801
				c2.475-6.454,7.314-11.559,13.628-14.373c3.413-1.522,6.983-2.242,10.499-2.242c9.91,0,19.388,5.722,23.677,15.342h-0.001
				C286.305,326.338,286.493,333.37,284.018,339.825z M175.305,443.332c1.457,2.244,3.167,4.692,5.059,7.064
				c3.969,4.977,10.797,6.643,16.608,4.052l9.127-4.068c3.406-1.518,6.018-4.271,7.353-7.753c1.335-3.482,1.234-7.276-0.284-10.682
				l-0.976-2.188c4.949-2.089,10.369-4.448,16.588-7.219c32.084-14.303,64.803-30.077,82.453-51.863
				c-2.394,37.312-22.058,81.96-61.249,99.43c-11.823,5.271-24.293,7.566-36.757,7.565c-28.848-0.002-57.637-12.3-78.137-28.475
				C146.614,449.788,159.837,447.861,175.305,443.332z M80.154,327.165c6.103-14.725,15.742-25.366,27.876-30.775
				c3.512-1.565,7.21-2.673,11.05-3.347c-5.223,16.463-6.65,36.631-4.143,58.534c-14.812,11.211-20.552,31.556-12.671,49.234
				c6.277,14.081,19.589,22.857,33.963,24.073c1.474,3.167,3.017,6.305,4.611,9.401c-2.313,0.051-4.536-0.01-6.672-0.181
				c-6.288-0.494-12.106,3.098-14.461,8.954c-2.346,5.834-0.649,12.429,4.221,16.409c14.772,12.077,33.76,22.343,54.349,28.125
				c0.069,0.078,0.132,0.16,0.205,0.236c3.125,3.244,6.3,6.3,9.511,9.161h-61.134c-15.177-14.998-28.224-34.201-37.827-55.744
				c-3.555-7.974-6.582-16.163-9.016-24.354v-89.45C80.058,327.346,80.114,327.262,80.154,327.165z M228.232,15h68.529
				C195.106,61.194,121.504,133.24,80.014,181.71v-52.84C94.303,111.082,144.995,53.484,228.232,15z M242.904,60.7
				c19.584-12.056,40.584-23.358,62.957-33.356c-20.82,24.735-50.055,66.069-64.2,116.433l-38.08-7.659
				C208.527,122.307,220.841,92.098,242.904,60.7z M324.467,77.698l-8.918,12.701c-1.174,1.672-1.615,3.75-1.222,5.755
				c0.394,2.004,1.588,3.762,3.307,4.865l11.018,7.075c-31.899,5.514-53.681,15.375-67.461,23.823
				c5.63-15.722,12.654-30.345,20.173-43.576C297.949,82.612,313.205,79.439,324.467,77.698z M87.513,15H195.04
				c-56.086,30.887-94.892,68.479-115.026,90.8V22.5C80.014,18.364,83.378,15,87.513,15z M80.014,489.489v-32.316
				c7.414,14.614,16.333,28.072,26.376,39.815H87.513C83.378,496.988,80.014,493.624,80.014,489.489z M424.476,496.988h-129.25
				c0.364-0.635,0.72-1.279,1.068-1.932c0.319,0.004,0.641,0.019,0.958,0.019c9.168,0,17.891-1.818,25.967-5.418
				c14.319-6.383,25.609-17.96,33.2-33.369c0.95-0.362,1.894-0.741,2.815-1.152c20.269-9.035,33.713-29.502,37.856-57.63
				c3.961-26.888-1.072-57.881-14.173-87.271c-8.263-18.535-19.111-34.865-31.383-48.099c27.245-9.665,54.24-17.481,80.439-23.293
				v250.645C431.975,493.624,428.611,496.988,424.476,496.988z"/>
			<path d="M327.857,175.532c0,25.18,20.485,45.664,45.665,45.664s45.664-20.484,45.664-45.664s-20.484-45.665-45.664-45.665
				S327.857,150.353,327.857,175.532z M404.186,175.532c0,16.908-13.756,30.664-30.664,30.664
				c-16.909,0-30.665-13.756-30.665-30.664c0-16.909,13.756-30.665,30.665-30.665C390.43,144.867,404.186,158.623,404.186,175.532z"
				/>
			<path d="M386.103,54.344h20.296c4.143,0,7.5-3.357,7.5-7.5s-3.357-7.5-7.5-7.5h-20.296c-4.143,0-7.5,3.357-7.5,7.5
				S381.96,54.344,386.103,54.344z"/>
			<path d="M386.103,80.847h20.296c4.143,0,7.5-3.357,7.5-7.5s-3.357-7.5-7.5-7.5h-20.296c-4.143,0-7.5,3.357-7.5,7.5
				S381.96,80.847,386.103,80.847z"/>
			<path d="M129.96,186.001c-4.143,0-7.5,3.357-7.5,7.5s3.357,7.5,7.5,7.5h32.452c4.143,0,7.5-3.357,7.5-7.5s-3.357-7.5-7.5-7.5
				H129.96z"/>
		</g>
	</g>
</g>
<g>
</g>
<g>
</g>
<g>
</g>
<g>
</g>
<g>
</g>
<g>
</g>
<g>
</g>
<g>
</g>
<g>
</g>
<g>
</g>
<g>
</g>
<g>
</g>
<g>
</g>
<g>
</g>
<g>
</g>
</svg>
