<?xml version="1.0" encoding="iso-8859-1"?>
<!-- Generator: Adobe Illustrator 24.0.2, SVG Export Plug-In . SVG Version: 6.00 Build 0)  -->
<svg version="1.1" id="Capa_1" xmlns="http://www.w3.org/2000/svg" xmlns:xlink="http://www.w3.org/1999/xlink" x="0px" y="0px"
	 viewBox="0 0 512 512" style="enable-background:new 0 0 512 512;" xml:space="preserve">
<g>
	<path style="fill:#915EB2;" d="M481.133,255.996L481.133,255.996C380.673,201.963,413.037,98.96,413.037,98.96
		c-120.135,26.457-157.04-69.507-157.04-69.507S219.095,125.417,98.96,98.96c0,0,32.364,103.003-68.096,157.036h0
		C131.324,310.03,98.96,413.033,98.96,413.033c120.135-26.457,157.037,69.507,157.037,69.507s36.905-95.964,157.04-69.507
		C413.037,413.033,380.673,310.03,481.133,255.996z"/>
	<path style="fill:#A176BD;" d="M256,436.141c-2.293-2.697-4.776-5.433-7.461-8.17c-19.941-20.324-55.125-44.551-109.499-44.551
		c-3.396,0-6.836,0.096-10.314,0.287c0.473-9.583,0.245-20.551-1.375-32.333c-3.867-28.144-16.434-64.945-52.147-95.378
		c35.713-30.432,48.28-67.233,52.147-95.377c1.619-11.782,1.848-22.75,1.375-32.333c3.478,0.191,6.918,0.287,10.314,0.287
		c54.366,0,89.549-24.228,109.492-44.551c2.685-2.736,5.168-5.471,7.46-8.168c2.293,2.697,4.777,5.435,7.462,8.171
		c19.939,20.323,55.12,44.548,109.484,44.548c0.006,0,0.012,0,0.019,0c3.396,0,6.835-0.096,10.312-0.287
		c-0.473,9.582-0.245,20.551,1.375,32.333c3.867,28.144,16.434,64.945,52.147,95.377c-35.713,30.433-48.28,67.234-52.147,95.378
		c-1.619,11.782-1.848,22.75-1.375,32.333c-3.478-0.191-6.918-0.287-10.314-0.287c-54.366,0-89.55,24.227-109.494,44.55
		C260.777,430.706,258.293,433.443,256,436.141z"/>
	<path style="fill:#6E4189;" d="M256,400.69c-28.478-24.715-63.496-38.972-102.586-41.763
		c-2.816-33.374-14.53-70.615-42.694-102.932c28.164-32.316,39.877-69.558,42.694-102.931
		c39.085-2.791,74.099-17.047,102.578-41.761c28.479,24.718,63.499,38.973,102.591,41.763c2.816,33.373,14.53,70.612,42.694,102.929
		c-28.164,32.316-39.878,69.558-42.694,102.932C319.494,361.719,284.481,375.974,256,400.69z"/>
	<path style="fill:#804EA0;" d="M256,369.05c-23.807-16.577-51.055-27.635-80.361-32.606c-5.301-29.392-16.566-56.669-33.22-80.447
		c16.654-23.778,27.919-51.056,33.22-80.446c29.299-4.973,56.547-16.03,80.352-32.604c23.807,16.578,51.058,27.636,80.366,32.607
		c5.301,29.391,16.566,56.666,33.22,80.443c-16.654,23.778-27.919,51.056-33.221,80.447C307.057,341.416,279.806,352.475,256,369.05
		z"/>
	<path style="fill:#915EB2;" d="M256,339.379c-18.414-10.814-38.36-18.908-59.397-24.101c-5.381-21.019-13.595-40.925-24.457-59.282
		c10.862-18.357,19.075-38.264,24.457-59.282c21.034-5.192,40.975-13.284,59.387-24.098c18.417,10.816,38.362,18.909,59.403,24.102
		c5.382,21.016,13.595,40.924,24.456,59.278c-10.862,18.357-19.076,38.264-24.457,59.283
		C294.358,320.472,274.414,328.564,256,339.379z"/>
	<path style="fill:#A176BD;" d="M256,310.882c-12.548-6.403-25.668-11.731-39.229-15.934c-4.285-13.472-9.659-26.496-16.073-38.952
		c6.414-12.456,11.789-25.48,16.073-38.952c13.558-4.201,26.674-9.529,39.219-15.931c12.551,6.404,25.672,11.733,39.237,15.936
		c4.285,13.471,9.659,26.494,16.071,38.947c-6.415,12.456-11.789,25.481-16.073,38.953C281.666,299.151,268.546,304.479,256,310.882
		z"/>
	<path d="M504.5,248.5h-21.417c-21.481-11.851-38.116-27.022-49.434-45.135c-2.195-3.512-6.821-4.583-10.335-2.386
		c-3.513,2.195-4.581,6.822-2.386,10.335c8.791,14.068,20.359,26.511,34.529,37.186h-50.708
		c-26.691-31.91-35.677-67.029-38.333-92.31l34.922-34.923c-1.453,14.7-1.388,34.613,4.558,55.873
		c1.115,3.99,5.253,6.319,9.243,5.203c3.989-1.115,6.318-5.254,5.203-9.242c-9.198-32.893-2.514-62.946-0.613-70.224l17.289-17.289
		c2.929-2.93,2.929-7.678,0-10.607c-2.929-2.928-7.678-2.928-10.606,0l-17.097,17.097c-46.189,9.693-84.7,1.89-114.479-23.228
		c-19.772-16.677-29.167-36.007-31.337-40.908V7.5c0-4.143-3.358-7.5-7.5-7.5s-7.5,3.357-7.5,7.5v20.438
		c-2.121,4.835-11.264,23.783-30.839,40.484c-29.837,25.456-68.516,33.401-114.976,23.655L85.587,74.98
		c-2.929-2.928-7.678-2.928-10.606,0c-2.929,2.93-2.929,7.678,0,10.607l17.293,17.292c1.582,5.979,6.443,27.389,2.881,53.314
		c-5.506,40.071-27.794,71.112-66.233,92.306H7.5c-4.142,0-7.5,3.357-7.5,7.5s3.358,7.5,7.5,7.5h21.436
		c38.24,21.089,60.497,51.939,66.14,91.734c3.694,26.055-1.232,47.876-2.811,53.894l-17.283,17.283
		c-2.929,2.93-2.929,7.678,0,10.607c1.464,1.464,3.384,2.196,5.303,2.196s3.839-0.732,5.303-2.196l17.106-17.106
		c46.186-9.686,84.69-1.885,114.464,23.23c19.79,16.692,29.184,36.043,31.342,40.922V504.5c0,4.143,3.358,7.5,7.5,7.5
		s7.5-3.357,7.5-7.5v-20.446c2.179-4.921,11.575-24.241,31.338-40.91c29.776-25.115,68.284-32.917,114.47-23.229l17.105,17.105
		c1.464,1.464,3.384,2.196,5.303,2.196s3.839-0.732,5.303-2.196c2.929-2.93,2.929-7.678,0-10.607l-17.288-17.288
		c-1.585-6.043-6.502-27.853-2.81-53.89c5.643-39.795,27.9-70.646,66.14-91.734H504.5c4.142,0,7.5-3.357,7.5-7.5
		S508.642,248.5,504.5,248.5z M158.909,342.484c-3.852-23.248-12.828-51.741-32.639-78.984h41.55
		c8.773,15.521,15.637,32.178,20.449,49.625L158.909,342.484z M188.267,198.874c-4.812,17.448-11.678,34.105-20.451,49.626h-41.551
		c19.813-27.242,28.791-55.735,32.643-78.985L188.267,198.874z M274.107,263.5h53.032c-6.211,11.987-11.388,24.547-15.475,37.557
		L274.107,263.5z M300.919,311.526c-12.952,3.981-25.467,9.062-37.419,15.196v-52.615L300.919,311.526z M274.107,248.5
		l37.559-37.559c4.088,13.011,9.266,25.572,15.477,37.559H274.107z M263.5,237.893v-52.615c11.952,6.133,24.468,11.215,37.42,15.195
		L263.5,237.893z M313.03,188.363c-17.398-4.656-34.022-11.399-49.53-20.089v-41.496c23.149,16.72,50.038,27.609,79.091,32.023
		L313.03,188.363z M248.5,237.893l-37.425-37.425c12.953-3.982,25.471-9.064,37.425-15.199V237.893z M237.893,248.5h-53.039
		c6.212-11.988,11.39-24.55,15.478-37.561L237.893,248.5z M184.858,263.5h53.035l-37.559,37.559
		C196.247,288.049,191.069,275.488,184.858,263.5z M248.5,274.107v52.615c-11.952-6.134-24.467-11.215-37.419-15.196L248.5,274.107z
		 M263.5,343.726c15.507-8.691,32.131-15.435,49.528-20.091l29.56,29.56c-29.05,4.416-55.937,15.307-79.087,32.029V343.726z
		 M323.729,313.122c4.812-17.446,11.676-34.102,20.448-49.622h41.55c-19.81,27.241-28.786,55.733-32.639,78.981L323.729,313.122z
		 M385.732,248.5h-41.551c-8.772-15.518-15.637-32.175-20.451-49.624l29.359-29.359C356.942,192.766,365.92,221.259,385.732,248.5z
		 M284.598,79.833c17.999,15.357,46.719,31.203,88.604,31.201c5.783,0,11.817-0.304,18.108-0.951l-35.257,35.257
		c-35.283-3.085-66.391-15.685-92.553-37.495V57.169C268.821,64.36,275.762,72.294,284.598,79.833z M227.397,79.833
		c8.84-7.542,15.781-15.479,21.103-22.673v50.656c-8.203,6.828-17.047,12.85-26.344,17.91c-3.638,1.98-4.982,6.535-3.002,10.173
		c1.98,3.639,6.535,4.981,10.173,3.003c6.622-3.604,13.029-7.659,19.173-12.104v41.467c-15.51,8.693-32.136,15.438-49.534,20.095
		l-29.533-29.533c8.854-1.338,17.523-3.271,25.906-5.784c3.968-1.189,6.22-5.371,5.03-9.338c-1.189-3.969-5.368-6.217-9.338-5.031
		c-11.221,3.364-23.017,5.588-35.1,6.652l-35.253-35.253C172.528,115.406,206.915,97.309,227.397,79.833z M110.015,158.236
		c1.923-13.995,1.641-26.752,0.629-36.985l34.936,34.936c-2.655,25.282-11.642,60.402-38.333,92.313H56.512
		C93.775,220.395,106.349,184.912,110.015,158.236z M110.015,353.757c-3.665-26.673-16.237-62.153-53.492-90.257h50.732
		c26.688,31.912,35.672,67.031,38.327,92.312l-34.938,34.938C111.656,380.515,111.938,367.755,110.015,353.757z M227.397,432.16
		c-20.482-17.476-54.865-35.568-106.712-30.239l35.254-35.254c11.474,1.01,22.698,3.068,33.402,6.154
		c0.694,0.2,1.394,0.296,2.081,0.296c3.257,0,6.256-2.139,7.203-5.425c1.147-3.979-1.149-8.137-5.129-9.283
		c-7.803-2.25-15.854-3.997-24.061-5.237l29.536-29.537c17.397,4.657,34.02,11.401,49.527,20.091v41.461
		c-6.648-4.812-13.6-9.159-20.797-12.977c-3.658-1.941-8.199-0.549-10.14,3.109c-1.941,3.659-0.549,8.199,3.11,10.141
		c9.834,5.218,19.175,11.512,27.827,18.716v50.658C243.178,447.639,236.237,439.702,227.397,432.16z M284.598,432.16
		c-8.836,7.539-15.777,15.473-21.098,22.665v-50.669c26.165-21.812,57.271-34.414,92.549-37.5l35.265,35.264
		C339.469,396.59,305.081,414.685,284.598,432.16z M401.982,353.757c-1.923,13.996-1.641,26.755-0.629,36.989l-34.937-34.937
		c2.655-25.28,11.639-60.399,38.327-92.309h50.732C418.218,291.604,405.647,327.083,401.982,353.757z"/>
</g>
<g>
</g>
<g>
</g>
<g>
</g>
<g>
</g>
<g>
</g>
<g>
</g>
<g>
</g>
<g>
</g>
<g>
</g>
<g>
</g>
<g>
</g>
<g>
</g>
<g>
</g>
<g>
</g>
<g>
</g>
</svg>
