<?xml version="1.0" encoding="iso-8859-1"?>
<!-- Generator: Adobe Illustrator 24.0.2, SVG Export Plug-In . SVG Version: 6.00 Build 0)  -->
<svg version="1.1" id="Capa_1" xmlns="http://www.w3.org/2000/svg" xmlns:xlink="http://www.w3.org/1999/xlink" x="0px" y="0px"
	 viewBox="0 0 512 512" style="enable-background:new 0 0 512 512;" xml:space="preserve">
<g>
	<circle style="fill:#FEE7C9;" cx="268.443" cy="428.352" r="31.214"/>
	<g>
		<g>
			<path style="fill:#845152;" d="M343.78,451.412c-8.284,0-15-6.716-15-15v-100.65c0-32.51,26.448-58.959,58.958-58.959
				s58.959,26.449,58.959,58.959v55.813c0,4.43,3.604,8.034,8.033,8.034s8.034-3.604,8.034-8.034c0-8.284,6.716-15,15-15
				s15,6.716,15,15c0,20.972-17.063,38.034-38.034,38.034s-38.033-17.063-38.033-38.034v-55.813
				c0-15.968-12.99-28.959-28.958-28.959s-28.959,12.991-28.959,28.959v100.65C358.78,444.696,352.064,451.412,343.78,451.412z"/>
		</g>
		<g>
			<path style="fill:#704545;" d="M492.766,391.58c0,20.97-17.06,38.03-38.04,38.03c-3.98,0-7.82-0.62-11.43-1.76
				c15.4-4.86,26.6-19.28,26.6-36.27c0-3.7-1.34-7.1-3.56-9.72c2.75-3.23,6.85-5.28,11.43-5.28
				C486.046,376.58,492.766,383.29,492.766,391.58z"/>
		</g>
		<g>
			<g>
				<g>
					<g>
						<g>
							<g>
								<path style="fill:#FEE7C9;" d="M252.166,446.405H135.703V144.094c0-5.101,4.136-9.237,9.237-9.237h97.99
									c5.101,0,9.237,4.136,9.237,9.237V446.405z"/>
								<path style="fill:#FFD496;" d="M171.459,134.85v80.748c0,8.199,6.647,14.846,14.846,14.846
									c8.199,0,14.846-6.647,14.846-14.846v-7.843c0-5.298,2.784-9.936,6.961-12.563v251.22h44.061V144.087
									c0-5.099-4.138-9.237-9.237-9.237H171.459z"/>
							</g>
							<g>
								<path style="fill:#FFF1E2;" d="M135.773,264.677L135.773,264.677c-7.57,0-13.706,6.136-13.706,13.706v98.552
									c0,7.438-5.111,13.811-12.308,15.69c-0.028,0.007-0.056,0.015-0.082,0.022c-13.772,3.817-23.739,16.784-22.947,31.943
									c0.82,15.701,13.44,28.553,29.125,29.635c18.347,1.266,33.624-13.243,33.624-31.32V278.383
									C149.478,270.814,143.342,264.677,135.773,264.677z"/>
							</g>
							<path style="fill:#FCC16D;" d="M226.295,75.626c0,18.636-15.266,33.706-33.975,33.388
								c-21.133-0.359-36.009-20.023-32.113-40.796c3.641-19.412,20.461-34.671,25.426-56.341c1.056-4.611,6.988-5.923,9.97-2.25
								C207.162,23.86,226.295,51.12,226.295,75.626z"/>
							<path style="fill:#FCA62F;" d="M226.303,75.633c0,18.622-15.278,33.697-33.974,33.383
								c-8.406-0.148-15.832-3.344-21.467-8.461c12.562-4.785,21.467-16.941,21.467-31.184c0-13.579-5.875-28.007-13.098-40.588
								c2.697-5.284,5.025-10.844,6.41-16.904c1.053-4.619,6.983-5.93,9.958-2.254C207.164,23.869,226.303,51.118,226.303,75.633z"
								/>
						</g>
						<path style="fill:#FFF1E2;" d="M171.459,142.971v47.23c0,8.199,6.647,14.846,14.846,14.846h0
							c8.199,0,14.846-6.647,14.846-14.846v-7.843c0-8.199,6.647-14.846,14.846-14.846h0c8.199,0,14.846,6.647,14.846,14.846v58.033
							c0,8.199,6.647,14.846,14.846,14.846h0c8.199,0,14.846-6.647,14.846-14.846v-97.42c0-6.403-5.191-11.594-11.594-11.594h-65.89
							C176.65,131.377,171.459,136.568,171.459,142.971z"/>
					</g>
				</g>
			</g>
			<g>
				<g>
					<path style="fill:#FFF1E2;" d="M252.629,350.309L252.629,350.309c-8.734,0-15.814-7.08-15.814-15.814v-26.499
						c0-8.734,7.08-15.814,15.814-15.814h0c8.734,0,15.814,7.08,15.814,15.814v26.499
						C268.443,343.228,261.363,350.309,252.629,350.309z"/>
				</g>
			</g>
		</g>
		<path style="fill:#FB8627;" d="M332.427,504.5H63.812c-12.306,0-23.437-7.305-28.334-18.594l-15.406-35.514
			c-2.865-6.604,1.976-13.98,9.174-13.98h337.747c7.198,0,12.039,7.376,9.174,13.98l-15.406,35.514
			C355.864,497.195,344.733,504.5,332.427,504.5z"/>
		<path style="fill:#F2671F;" d="M86.736,499.124L86.736,499.124c-10.008,0-18.121-8.113-18.121-18.121v-24.067c0-3.866,3.134-7,7-7
			h22.242c3.866,0,7,3.134,7,7v24.067C104.856,491.011,96.743,499.124,86.736,499.124z"/>
		<path style="fill:#F2671F;" d="M376.166,450.39l-15.4,35.52c-4.9,11.29-16.03,18.59-28.34,18.59h-44.32
			c12.31,0,23.44-7.3,28.34-18.59l15.4-35.52c2.87-6.6-1.97-13.98-9.17-13.98h44.32C374.186,436.41,379.036,443.79,376.166,450.39z"
			/>
		<path style="fill:#FEE7C9;" d="M86.736,477.54L86.736,477.54c-10.008,0-18.121-8.113-18.121-18.121v-24.067c0-3.866,3.134-7,7-7
			h22.242c3.866,0,7,3.134,7,7v24.067C104.856,469.427,96.743,477.54,86.736,477.54z"/>
		<path d="M477.76,369.08c-12.407,0-22.5,10.094-22.5,22.5c0,0.282-0.248,0.53-0.53,0.53s-0.53-0.248-0.53-0.53v-55.82
			c0-36.646-29.814-66.46-66.46-66.46c-10.563,0-21.104,2.569-30.482,7.432c-3.678,1.906-5.113,6.433-3.207,10.11
			s6.433,5.115,10.11,3.206c7.358-3.814,15.291-5.748,23.579-5.748c28.375,0,51.46,23.085,51.46,51.46v55.82
			c0,8.563,6.967,15.53,15.53,15.53s15.53-6.967,15.53-15.53c0-4.136,3.364-7.5,7.5-7.5c4.135,0,7.5,3.364,7.5,7.5
			c0,16.834-13.696,30.53-30.53,30.53s-30.53-13.696-30.53-30.53v-55.82c0-20.104-16.356-36.46-36.46-36.46
			c-20.104,0-36.46,16.355-36.46,36.46v93.152h-15V335.76c0-8.327,2.05-16.603,5.929-23.931c1.938-3.661,0.541-8.2-3.12-10.138
			c-3.662-1.938-8.2-0.54-10.138,3.12c-5.019,9.482-7.671,20.184-7.671,30.948v93.152h-14.131c0.003-0.188,0.011-0.375,0.011-0.563
			c0-21.344-17.37-38.709-38.72-38.709c-2.954,0-5.901,0.35-8.77,1.015v-33.936c9.424-2.993,16.273-11.823,16.273-22.225v-26.499
			c0-10.402-6.849-19.232-16.273-22.224v-27.966c5.096-4.099,8.366-10.381,8.366-17.415v-97.42c0-10.528-8.565-19.094-19.094-19.094
			h-49.122v-7.947c8.17-1.383,15.71-5.204,21.749-11.141c7.884-7.751,12.226-18.108,12.226-29.163
			c0-26.857-20.281-55.841-32.37-70.728c-3.218-3.961-8.306-5.703-13.274-4.547c-4.933,1.146-8.699,4.921-9.828,9.851
			c-2.223,9.703-7.378,18.439-12.363,26.889c-5.438,9.217-11.062,18.747-13.124,29.744c-2.335,12.453,0.846,25.138,8.729,34.803
			c5.963,7.31,14.188,12.216,23.256,14.059v8.181h-1.768c-4.078,0-7.854,1.296-10.959,3.483h-27.153
			c-9.23,0-16.74,7.505-16.74,16.729v51.15c0,4.143,3.358,7.5,7.5,7.5s7.5-3.357,7.5-7.5v-51.15c0-0.954,0.78-1.729,1.74-1.729
			h19.049c-0.007,0.205-0.031,0.404-0.031,0.61v47.23c0,12.322,10.024,22.347,22.346,22.347s22.346-10.024,22.346-22.347v-7.843
			c0-4.051,3.295-7.347,7.346-7.347s7.346,3.296,7.346,7.347v58.032c0,11.98,9.477,21.786,21.327,22.321v23.37
			c-8.948,3.26-15.355,11.852-15.355,21.913v26.499c0,10.062,6.407,18.654,15.355,21.914v72.504h-17.8c-4.142,0-7.5,3.357-7.5,7.5
			s3.358,7.5,7.5,7.5h140.122c1.174,0,1.813,0.707,2.09,1.128c0.276,0.422,0.67,1.289,0.203,2.367l-15.405,35.514
			C350.171,491.474,341.75,497,332.427,497H63.812c-9.323,0-17.744-5.526-21.454-14.078l-15.406-35.515
			c-0.467-1.077-0.073-1.945,0.204-2.367c0.277-0.421,0.916-1.128,2.09-1.128h31.869v15.507c0,14.128,11.493,25.621,25.621,25.621
			s25.621-11.493,25.621-25.621v-15.507h79.119c4.142,0,7.5-3.357,7.5-7.5s-3.358-7.5-7.5-7.5h-34.963
			c0.306-1.974,0.467-3.977,0.467-6.002V278.38c0-9.074-5.744-16.813-13.78-19.831V230.64c0-4.143-3.358-7.5-7.5-7.5
			s-7.5,3.357-7.5,7.5v27.961c-7.958,3.057-13.63,10.759-13.63,19.779v98.55c0,3.94-2.753,7.407-6.695,8.432
			c-0.152,0.039-0.302,0.083-0.451,0.132c-0.004,0.002-0.009,0.003-0.013,0.005c-16.219,4.606-27.323,18.786-28.165,35.354h-3.631
			c-5.681,0-10.595,3.292-12.972,8.061H29.246c-5.916,0-11.385,2.952-14.631,7.898c-3.246,4.945-3.778,11.139-1.424,16.565
			l15.406,35.515C34.687,502.929,48.509,512,63.812,512h268.616c15.302,0,29.125-9.07,35.214-23.109l15.405-35.514
			c2.354-5.428,1.822-11.62-1.423-16.566c-3.246-4.945-8.715-7.898-14.631-7.898h-0.712V335.76c0-11.833,9.627-21.46,21.46-21.46
			c11.833,0,21.46,9.627,21.46,21.46v55.82c0,25.105,20.425,45.53,45.53,45.53s45.53-20.425,45.53-45.53
			C500.26,379.174,490.167,369.08,477.76,369.08z M173.188,92.156c-5.084-6.233-7.129-14.455-5.609-22.556
			c1.577-8.409,6.3-16.413,11.3-24.888c4.998-8.471,10.149-17.2,13.134-27.563c10.922,13.921,26.782,37.715,26.782,58.476
			c0,7-2.75,13.558-7.742,18.466c-4.99,4.906-11.589,7.541-18.605,7.424C184.845,101.387,178.005,98.062,173.188,92.156z
			 M111.679,399.879c0.096-0.026,0.191-0.055,0.286-0.085c10.382-2.847,17.605-12.202,17.605-22.864v-98.55
			c0-3.419,2.781-6.2,6.2-6.2c3.424,0,6.21,2.781,6.21,6.2v144.53c0,2.051-0.256,4.062-0.758,6.002h-30.393
			c-2.377-4.769-7.292-8.061-12.972-8.061h-3.563C95.126,410.957,101.898,402.583,111.679,399.879z M76.115,435.852h21.242v23.567
			c0,5.856-4.765,10.621-10.621,10.621s-10.621-4.765-10.621-10.621V435.852z M238.344,240.391v-58.032
			c0-12.322-10.024-22.347-22.346-22.347s-22.346,10.024-22.346,22.347v7.843c0,4.051-3.295,7.347-7.346,7.347
			s-7.346-3.296-7.346-7.347v-47.23c0-2.257,1.836-4.094,4.094-4.094h65.89c2.257,0,4.094,1.837,4.094,4.094v97.42
			c0,4.051-3.295,7.347-7.346,7.347S238.344,244.441,238.344,240.391z M244.315,307.995c0-4.584,3.729-8.313,8.314-8.313
			c4.584,0,8.314,3.729,8.314,8.313v26.499c0,4.585-3.73,8.314-8.314,8.314c-4.584,0-8.314-3.729-8.314-8.314V307.995z
			 M259.671,406.318c2.777-1.108,5.716-1.677,8.77-1.677c13.08,0,23.72,10.636,23.72,23.709c0,0.188-0.018,0.375-0.023,0.563
			h-32.467V406.318z"/>
	</g>
</g>
<g>
</g>
<g>
</g>
<g>
</g>
<g>
</g>
<g>
</g>
<g>
</g>
<g>
</g>
<g>
</g>
<g>
</g>
<g>
</g>
<g>
</g>
<g>
</g>
<g>
</g>
<g>
</g>
<g>
</g>
</svg>
