<?xml version="1.0" encoding="iso-8859-1"?>
<!-- Generator: Adobe Illustrator 24.0.2, SVG Export Plug-In . SVG Version: 6.00 Build 0)  -->
<svg version="1.1" id="Capa_1" xmlns="http://www.w3.org/2000/svg" xmlns:xlink="http://www.w3.org/1999/xlink" x="0px" y="0px"
	 viewBox="0 0 511.997 511.997" style="enable-background:new 0 0 511.997 511.997;" xml:space="preserve">
<g>
	<g>
		<circle style="fill:#B5ADB6;" cx="265.255" cy="151.167" r="119.24"/>
		<path style="fill:#A69CA7;" d="M285.595,33.67c36.698,19.323,62.078,57.234,63.651,101.204H147.128
			c-0.738,5.328-1.112,10.766-1.112,16.296c0,23.336,6.722,45.095,18.312,63.481h158.101
			c-21.867,26.739-55.111,43.809-92.343,43.809c-6.925,0-13.718-0.586-20.32-1.729c16.569,8.734,35.453,13.678,55.49,13.678
			c65.852,0,119.239-53.387,119.239-119.239C384.494,92.243,341.762,43.314,285.595,33.67z"/>
		<path style="fill:#F2EFF2;" d="M402.154,108.433h-94.165V17.609c0-5.583-4.526-10.109-10.109-10.109h-65.249
			c-5.583,0-10.109,4.526-10.109,10.109v90.824h-94.165c-5.583,0-10.109,4.526-10.109,10.109v65.249
			c0,5.583,4.526,10.109,10.109,10.109h94.165v241.964h85.468V193.901h94.165c5.583,0,10.109-4.526,10.109-10.109v-65.249
			C412.264,112.959,407.738,108.433,402.154,108.433z"/>
		<path style="fill:#E1DDE1;" d="M307.987,17.606v90.822h-30.136V17.606c0-5.58-4.529-10.109-10.109-10.109h30.136
			C303.458,7.497,307.987,12.026,307.987,17.606z"/>
		<path style="fill:#E1DDE1;" d="M412.265,118.538v65.256c0,5.58-4.529,10.109-10.109,10.109h-30.136
			c5.58,0,10.109-4.529,10.109-10.109v-65.256c0-5.58-4.529-10.109-10.109-10.109h30.136
			C407.736,108.428,412.265,112.957,412.265,118.538z"/>
		<path style="fill:#E1DDE1;" d="M307.987,193.902v241.966h-30.136V204.012c0-5.583,4.526-10.109,10.109-10.109H307.987z"/>
		<g>
			<path style="fill:#918291;" d="M368.956,437.527v46.43h-207.4v-46.43c0-5.59,4.52-10.11,10.11-10.11h187.18
				C364.436,427.417,368.956,431.937,368.956,437.527z"/>
			<path style="fill:#7A6E79;" d="M368.956,437.527v46.43h-98.92c-12.37-11.98-20.18-29.44-20.18-48.84c0-2.61,0.14-5.18,0.42-7.7
				h108.57C364.436,427.417,368.956,431.937,368.956,437.527z"/>
		</g>
		<g>
			<g>
				<g>
					<g>
						<g>
							<g>
								<g>
									<ellipse style="fill:#F2671F;" cx="309.864" cy="435.121" rx="35.011" ry="40.342"/>
									<ellipse style="fill:#E25010;" cx="359.084" cy="435.121" rx="35.011" ry="40.342"/>
								</g>
								<ellipse style="fill:#FB8627;" cx="333.619" cy="433.182" rx="31.828" ry="42.281"/>
								<path style="fill:#FB7722;" d="M365.447,433.176c0,23.356-14.252,42.287-31.827,42.287c-4.197,0-8.199-1.077-11.873-3.046
									c11.694-6.254,19.947-21.468,19.947-39.241c0-17.766-8.253-32.98-19.947-39.234c3.674-1.969,7.676-3.046,11.873-3.046
									C351.195,390.897,365.447,409.828,365.447,433.176z"/>
							</g>
						</g>
					</g>
				</g>
			</g>
		</g>
		<g>
			<path style="fill:#B5ADB6;" d="M383.563,504.497H146.947c-5.583,0-10.109-4.526-10.109-10.109v-8.815
				c0-5.583,4.526-10.109,10.109-10.109h236.617c5.583,0,10.109,4.526,10.109,10.109v8.815
				C393.673,499.971,389.147,504.497,383.563,504.497z"/>
			<path style="fill:#A69CA7;" d="M393.676,485.577v8.81c0,5.58-4.53,10.11-10.11,10.11h-30.93c5.58,0,10.11-4.53,10.11-10.11v-8.81
				c0-5.59-4.53-10.11-10.11-10.11h30.93C389.146,475.467,393.676,479.987,393.676,485.577z"/>
		</g>
		<g>
			<path style="fill:#FEE7C9;" d="M194.11,476.624h-44.899V411.54c0-2.804,2.273-5.077,5.077-5.077h34.744
				c2.804,0,5.077,2.273,5.077,5.077V476.624z"/>
			<path style="fill:#FFD496;" d="M194.114,411.536v65.091h-24.219v-65.091c0-2.803-2.275-5.077-5.077-5.077h24.219
				C191.839,406.459,194.114,408.734,194.114,411.536z"/>
			<path style="fill:#17998C;" d="M205.117,504.497h-66.912c-10.099,0-18.285-8.187-18.285-18.285v-5.672
				c0-2.804,2.273-5.077,5.077-5.077h93.327c2.804,0,5.077,2.273,5.077,5.077v5.672
				C223.402,496.311,215.215,504.497,205.117,504.497z"/>
			<path style="fill:#138B80;" d="M223.4,480.537v5.676c0,10.094-8.185,18.278-18.278,18.278h-34.028
				c10.094,0,18.278-8.185,18.278-18.278v-5.676c0-2.803-2.275-5.077-5.077-5.077h34.028
				C221.125,475.46,223.4,477.735,223.4,480.537z"/>
			<path style="fill:#FCC16D;" d="M189.448,367.532c0,10.244-8.391,18.528-18.675,18.353c-11.616-0.198-19.793-11.006-17.652-22.425
				c2.001-10.67,11.247-19.058,13.976-30.969c0.581-2.535,3.841-3.255,5.48-1.237C178.932,339.078,189.448,354.062,189.448,367.532z
				"/>
			<path style="fill:#FCA62F;" d="M189.453,367.536c0,10.236-8.398,18.522-18.674,18.35c-4.62-0.081-8.703-1.838-11.8-4.651
				c6.905-2.63,11.8-9.312,11.8-17.141c0-7.464-3.229-15.395-7.2-22.31c1.483-2.904,2.762-5.961,3.524-9.292
				c0.579-2.539,3.839-3.26,5.473-1.239C178.932,339.082,189.453,354.061,189.453,367.536z"/>
		</g>
		<g>
			<path style="fill:#FB8627;" d="M270.289,377.812h-10.069c-5.583,0-10.109-4.526-10.109-10.109V252.606
				c0-5.583,4.526-10.109,10.109-10.109h10.069c5.583,0,10.109,4.526,10.109,10.109v115.096
				C280.399,373.285,275.873,377.812,270.289,377.812z"/>
		</g>
		<g>
			<path d="M402.154,100.933h-20.517c-3.923-9.078-8.905-17.69-14.853-25.637c-2.483-3.316-7.182-3.993-10.499-1.511
				c-3.316,2.482-3.992,7.183-1.511,10.499c3.926,5.245,7.365,10.822,10.304,16.648h-49.59V51.349
				c5.474,2.762,10.733,5.968,15.696,9.603c1.336,0.978,2.887,1.449,4.425,1.449c2.31,0,4.588-1.063,6.058-3.07
				c2.446-3.342,1.721-8.035-1.621-10.482c-7.642-5.595-15.896-10.308-24.558-14.054V17.609C315.489,7.899,307.59,0,297.88,0
				h-65.249c-9.71,0-17.609,7.899-17.609,17.609v17.172c-29.53,12.769-53.39,36.639-66.154,66.151h-20.512
				c-9.71,0-17.609,7.899-17.609,17.609v65.249c0,9.71,7.899,17.609,17.609,17.609h20.511
				c12.764,29.511,36.624,53.382,66.155,66.152v39.206c0,4.143,3.358,7.5,7.5,7.5s7.5-3.357,7.5-7.5V201.4h17.696
				c4.142,0,7.5-3.357,7.5-7.5s-3.358-7.5-7.5-7.5H128.356c-1.439,0-2.609-1.171-2.609-2.609v-42.662h35.992
				c4.142,0,7.5-3.357,7.5-7.5s-3.358-7.5-7.5-7.5h-35.992v-7.587c0-1.438,1.17-2.609,2.609-2.609h86.666v17.696
				c0,4.143,3.358,7.5,7.5,7.5s7.5-3.357,7.5-7.5V17.609c0-1.438,1.17-2.609,2.609-2.609h65.249c1.438,0,2.609,1.171,2.609,2.609
				v83.323h-17.616c-4.143,0-7.5,3.357-7.5,7.5s3.357,7.5,7.5,7.5h119.281c1.438,0,2.609,1.171,2.609,2.609v65.249
				c0,1.438-1.171,2.609-2.609,2.609h-86.665v-17.615c0-4.143-3.357-7.5-7.5-7.5s-7.5,3.357-7.5,7.5v219.678
				c-14.52,3.692-26.241,15.764-30.927,31.45h-39.541v-77.759c0-4.143-3.358-7.5-7.5-7.5s-7.5,3.357-7.5,7.5v77.759H201.61v-8.373
				c0-6.936-5.642-12.577-12.577-12.577h-10.759v-6.584c4.08-1.172,7.829-3.345,10.945-6.409c4.984-4.9,7.729-11.448,7.729-18.438
				c0-15.014-10.086-30.586-18.549-41.007c-2.589-3.188-6.681-4.588-10.684-3.659c-3.979,0.925-7.018,3.972-7.929,7.95
				c-1.105,4.822-3.683,9.191-6.412,13.817c-3.138,5.317-6.382,10.815-7.625,17.443c-1.467,7.825,0.537,15.803,5.5,21.888
				c3.173,3.89,7.359,6.703,12.023,8.196v6.802h-8.985c-6.935,0-12.577,5.642-12.577,12.577v56.423h-16.714
				c-6.936,0-12.578,5.642-12.578,12.577v5.672c0,14.218,11.567,25.785,25.785,25.785h245.359c9.71,0,17.609-7.899,17.609-17.609
				v-8.815c0-7.749-5.038-14.331-12.005-16.679c3.363-3.777,6.189-8.205,8.288-13.164c1.614-3.814-0.17-8.216-3.984-9.83
				c-3.812-1.611-8.215,0.168-9.83,3.984c-4.298,10.157-12.487,16.791-21.788,17.9c6.859-8.965,11.093-21.166,11.093-34.602
				c0-11.338-3.016-21.797-8.078-30.176c8.028,2.046,14.94,8.306,18.776,17.342c1.213,2.856,3.987,4.571,6.906,4.571
				c0.978,0,1.972-0.192,2.928-0.599c3.813-1.618,5.592-6.021,3.973-9.834c-7.018-16.529-22.076-27.209-38.363-27.209
				c-2.888,0-5.749,0.34-8.539,0.979c-5.131-3.111-10.872-4.856-16.931-4.856c-5.879,0-11.456,1.653-16.47,4.592
				c-0.551-0.107-1.105-0.199-1.66-0.281V267.555c29.481-12.742,53.419-36.726,66.155-66.155h20.51
				c9.71,0,17.609-7.899,17.609-17.609v-65.249C419.764,108.832,411.864,100.933,402.154,100.933z M215.021,251
				c-21.333-10.774-38.823-28.278-49.593-49.599h49.593V251z M215.021,51.334v49.598h-49.593
				C176.198,79.612,193.689,62.108,215.021,51.334z M160.493,364.843c0.757-4.039,3.094-8,5.801-12.587
				c1.777-3.013,3.694-6.261,5.304-9.855c6.641,9.536,10.35,18.452,10.35,25.132c0,2.935-1.153,5.684-3.246,7.741
				c-2.092,2.057-4.874,3.178-7.802,3.112c-3.168-0.054-6.019-1.439-8.027-3.901C160.709,371.83,159.842,368.316,160.493,364.843z
				 M301.978,403.657c-4.827,8.267-7.688,18.479-7.688,29.524c0,13.283,4.14,25.358,10.862,34.294
				c-12.934-2.675-22.804-16.162-22.804-32.359C282.349,420.278,290.638,407.713,301.978,403.657z M267.353,434.913
				c0,0.068-0.005,0.136-0.005,0.204c0,12.71,4.434,24.269,11.641,32.846H201.61v-33.05H267.353z M156.711,413.963h29.898v54
				h-29.898V413.963z M127.419,486.212v-3.249h88.482v3.249c0,5.947-4.838,10.785-10.785,10.785h-66.912
				C132.258,496.997,127.419,492.159,127.419,486.212z M386.173,494.388c0,1.438-1.171,2.609-2.609,2.609H228.529
				c1.519-3.284,2.373-6.936,2.373-10.785v-3.249h152.662c1.438,0,2.609,1.171,2.609,2.609V494.388z M357.947,433.182
				c0,18.854-11.141,34.781-24.328,34.781s-24.328-15.928-24.328-34.781s11.141-34.781,24.328-34.781
				S357.947,414.328,357.947,433.182z M315.489,250.993V201.4h49.59C354.321,222.671,336.789,240.228,315.489,250.993z"/>
			<path d="M270.289,385.312c9.71,0,17.609-7.899,17.609-17.609V252.605c0-9.71-7.899-17.609-17.609-17.609h-10.068
				c-9.709,0-17.609,7.899-17.609,17.609v115.097c0,9.71,7.899,17.609,17.609,17.609H270.289z M257.611,367.702V252.605
				c0-1.438,1.171-2.609,2.609-2.609h10.068c1.438,0,2.609,1.171,2.609,2.609v115.097c0,1.438-1.171,2.609-2.609,2.609h-10.068
				C258.782,370.312,257.611,369.141,257.611,367.702z"/>
			<path d="M158.979,154.882c-4.142,0-7.5,3.357-7.5,7.5s3.358,7.5,7.5,7.5h15.237c4.142,0,7.5-3.357,7.5-7.5s-3.358-7.5-7.5-7.5
				H158.979z"/>
			<path d="M383.586,143.503c4.143,0,7.5-3.357,7.5-7.5s-3.357-7.5-7.5-7.5h-15.237c-4.143,0-7.5,3.357-7.5,7.5s3.357,7.5,7.5,7.5
				H383.586z"/>
			<path d="M328.119,162.382c0,4.143,3.357,7.5,7.5,7.5h32.729c4.143,0,7.5-3.357,7.5-7.5s-3.357-7.5-7.5-7.5h-32.729
				C331.477,154.882,328.119,158.239,328.119,162.382z"/>
			<path d="M156.058,274.857c0.108,0,0.217-0.002,0.326-0.007c4.139-0.177,7.35-3.675,7.173-7.813l-0.013-0.297
				c-0.177-4.138-3.66-7.331-7.813-7.173c-4.139,0.177-7.35,3.675-7.173,7.813l0.013,0.297
				C148.743,271.707,152.063,274.857,156.058,274.857z"/>
			<path d="M148.486,299.712c0.172,4.029,3.493,7.18,7.488,7.18c0.108,0,0.217-0.002,0.326-0.007
				c4.139-0.177,7.35-3.675,7.173-7.813l-0.013-0.297c-0.177-4.138-3.669-7.362-7.813-7.173c-4.139,0.177-7.35,3.675-7.173,7.813
				L148.486,299.712z"/>
			<path d="M171.553,290.769l0.278-0.013c4.138-0.189,7.339-3.696,7.15-7.835c-0.189-4.137-3.711-7.334-7.834-7.149l-0.278,0.013
				c-4.138,0.189-7.339,3.696-7.15,7.835c0.184,4.021,3.501,7.157,7.486,7.157C171.32,290.776,171.437,290.773,171.553,290.769z"/>
			<path d="M140.883,290.681l0.278-0.013c4.138-0.188,7.339-3.696,7.15-7.834s-3.7-7.34-7.834-7.15l-0.278,0.013
				c-4.138,0.188-7.339,3.696-7.15,7.834c0.184,4.021,3.501,7.158,7.486,7.158C140.651,290.688,140.767,290.686,140.883,290.681z"/>
			<path d="M115.25,340.881c0.108,0,0.217-0.002,0.326-0.007c4.139-0.177,7.35-3.675,7.173-7.813l-0.013-0.297
				c-0.177-4.138-3.673-7.343-7.813-7.173c-4.139,0.177-7.35,3.675-7.173,7.813l0.013,0.297
				C107.935,337.73,111.255,340.881,115.25,340.881z"/>
			<path d="M115.492,372.909c4.139-0.177,7.35-3.675,7.173-7.813l-0.013-0.297c-0.177-4.139-3.664-7.337-7.813-7.173
				c-4.139,0.177-7.35,3.675-7.173,7.813l0.013,0.297c0.172,4.029,3.493,7.18,7.488,7.18
				C115.274,372.916,115.383,372.914,115.492,372.909z"/>
			<path d="M130.034,341.81c-4.137,0.204-7.326,3.723-7.122,7.859c0.197,4.012,3.512,7.132,7.484,7.132
				c0.125,0,0.25-0.003,0.375-0.009l0.278-0.014c4.137-0.204,7.326-3.723,7.122-7.859c-0.203-4.138-3.728-7.322-7.859-7.123
				L130.034,341.81z"/>
			<path d="M99.643,341.708l-0.278,0.014c-4.137,0.204-7.326,3.723-7.122,7.859c0.197,4.012,3.512,7.132,7.484,7.132
				c0.125,0,0.25-0.003,0.375-0.009l0.278-0.014c4.137-0.204,7.326-3.723,7.122-7.859
				C107.299,344.694,103.771,341.532,99.643,341.708z"/>
		</g>
	</g>
</g>
<g>
</g>
<g>
</g>
<g>
</g>
<g>
</g>
<g>
</g>
<g>
</g>
<g>
</g>
<g>
</g>
<g>
</g>
<g>
</g>
<g>
</g>
<g>
</g>
<g>
</g>
<g>
</g>
<g>
</g>
</svg>
