<?xml version="1.0" encoding="iso-8859-1"?>
<!-- Generator: Adobe Illustrator 24.0.2, SVG Export Plug-In . SVG Version: 6.00 Build 0)  -->
<svg version="1.1" id="Capa_1" xmlns="http://www.w3.org/2000/svg" xmlns:xlink="http://www.w3.org/1999/xlink" x="0px" y="0px"
	 viewBox="0 0 512.01 512.01" style="enable-background:new 0 0 512.01 512.01;" xml:space="preserve">
<g>
	<g>
		<g>
			<path style="fill:#CBC5CB;" d="M504.328,452.006c-3.983-20.837-13.557-33.959-25.098-42.101
				c2.67-9.892,2.565-20.649-0.922-31.096c-9.197-27.556-38.471-42.747-66.125-34.758c-10.052-19.153-30.648-30.349-51.949-28.67
				c6.427-11.366,7.842-25.503,2.409-38.755c-8.417-20.533-31.188-31.745-52.6-25.917c-21.381,5.82-34.51,25.989-32.595,46.847
				c-4.719-0.021-9.519,0.703-14.244,2.28c-16.146,5.389-27.124,19.164-29.727,34.864c-17.862-17.331-44.521-24.357-69.759-15.934
				c-21.237,7.088-36.711,23.529-43.394,43.21c-11.602-4.825-24.925-5.656-37.779-1.366c-26.015,8.683-41.002,35.261-35.877,61.475
				c-20.604,3.668-31.872,16.317-37.807,26.775c-3.844,6.775,0.985,15.176,8.774,15.176h476.745
				C500.734,464.037,505.521,458.247,504.328,452.006z"/>
			<path style="fill:#B5ADB6;" d="M494.381,464.04h-31.62c-4.85-14.25-12.81-23.94-22.03-30.45c2.66-9.89,2.56-20.65-0.93-31.09
				c-9.19-27.56-38.47-42.75-66.12-34.76c-10.05-19.15-30.65-30.35-51.95-28.67c6.42-11.37,7.84-25.5,2.41-38.76
				c-7-17.08-23.94-27.71-41.76-27.44c5.51-10.47,15.18-18.76,27.66-22.16c21.41-5.83,44.18,5.38,52.6,25.92
				c5.43,13.25,4.02,27.38-2.41,38.75c21.3-1.68,41.9,9.52,51.95,28.67c27.66-7.99,56.93,7.2,66.13,34.76
				c3.48,10.45,3.59,21.2,0.92,31.1c11.54,8.14,21.11,21.26,25.1,42.1C505.521,458.25,500.731,464.04,494.381,464.04z"/>
		</g>
		<g>
			<path style="fill:#FCB44D;" d="M422.653,400.903c6.041-2.074,10.972,5.183,6.773,9.995
				c-20.111,23.049-45.061,42.559-74.271,56.84c-117.398,57.397-259.115,8.662-316.355-108.845
				C-18.245,241.788,31.018,99.455,148.234,42.64c28.976-14.045,59.427-21.645,89.708-23.343c6.386-0.358,9.1,7.987,3.746,11.486
				c-86.393,56.453-119.203,169.751-72.707,264.853C215.476,390.736,325.042,434.409,422.653,400.903z"/>
			<path style="fill:#FB9927;" d="M426.451,400.79c-31.63,19.15-68.73,30.17-108.409,30.17
				c-115.77,0-209.609-93.839-209.609-209.599c0-89.89,56.59-166.569,136.079-196.349c0.2,2.12-0.64,4.35-2.82,5.77
				c-86.4,56.45-119.209,169.749-72.71,264.849C215.472,390.74,325.042,434.41,422.651,400.9
				C424.001,400.44,425.301,400.44,426.451,400.79z"/>
		</g>
	</g>
	<g>
		
			<ellipse transform="matrix(0.0656 -0.9978 0.9978 0.0656 -171.0684 292.7104)" style="fill:#FEE7C9;" cx="70.759" cy="237.698" rx="40.306" ry="21.216"/>
		<path style="fill:#FFD496;" d="M91.933,239.091c-1.46,22.21-12.13,39.59-23.82,38.83c-3.91-0.26-7.43-2.51-10.34-6.22
			c7.18-6.28,12.65-19.4,13.67-34.87c0.97-14.79-2.38-27.99-8.18-35.39c3.13-2.75,6.59-4.19,10.14-3.96
			C85.093,198.251,93.393,216.881,91.933,239.091z"/>
	</g>
	<g>
		
			<ellipse transform="matrix(0.9454 -0.3259 0.3259 0.9454 -104.1271 45.5694)" style="fill:#FEE7C9;" cx="83.938" cy="333.551" rx="14.42" ry="27.393"/>
		<path style="fill:#FFD496;" d="M92.863,359.45c-4.68,1.61-10.36-1.45-15.16-7.43c2.84-5.83,2.81-15.48-0.62-25.42
			c-1.86-5.41-4.47-10.13-7.4-13.77c1.24-2.56,3.03-4.39,5.33-5.18c7.53-2.59,17.63,6.9,22.56,21.2
			C102.503,343.15,100.393,356.85,92.863,359.45z"/>
	</g>
	<g>
		<path d="M137.871,471.537c10.77,5.605,22.398,10.432,34.092,14.455c26.017,8.952,52.84,13.398,79.563,13.398
			c36.621,0,73.051-8.354,106.922-24.914c1.972-0.964,4.484-1.928,6.423-2.939h129.51c5.271,0,10.223-2.331,13.583-6.396
			c3.361-4.064,4.721-9.365,3.73-14.543c-3.578-18.724-11.676-33.407-24.098-43.724c1.854-10.143,1.121-20.567-2.174-30.439
			c-9.845-29.491-39.66-46.628-69.588-40.958c-10.045-15.371-26.373-25.336-44.422-27.375c3.294-11.188,2.72-23.219-1.831-34.321
			c-4.979-12.144-14.375-21.869-26.459-27.384c-3.772-1.721-8.218-0.059-9.938,3.708c-1.72,3.769-0.059,8.217,3.709,9.937
			c8.603,3.926,15.282,10.826,18.809,19.428c4.332,10.568,3.604,22.312-1.998,32.22c-1.365,2.414-1.287,5.384,0.204,7.722
			c1.49,2.339,4.152,3.658,6.913,3.446c18.548-1.468,36.084,8.226,44.72,24.679c1.653,3.154,5.296,4.708,8.723,3.72
			c24.006-6.936,49.013,6.21,56.93,29.926c2.9,8.691,3.175,17.947,0.794,26.768c-0.82,3.04,0.346,6.268,2.918,8.083
			c11.437,8.066,18.856,20.643,22.056,37.38c0.201,1.056-0.263,1.811-0.558,2.167s-0.949,0.954-2.023,0.954H389.28
			c16.908-11.557,32.238-25.168,45.797-40.708c4.14-4.744,4.558-11.445,1.041-16.674c-3.529-5.25-9.92-7.398-15.899-5.346
			c-34.711,11.915-72.064,13.987-108.024,5.995c-4.044-0.902-8.05,1.65-8.948,5.694s1.65,8.05,5.694,8.949
			c37.132,8.254,75.658,6.521,111.722-4.984c-19.439,21.385-42.563,38.71-68.802,51.539
			c-54.986,26.883-117.144,30.72-175.017,10.807c-57.87-19.911-104.501-61.178-131.303-116.199
			c-12.529-25.724-20.025-53.17-22.278-81.579c-0.327-4.128-3.928-7.212-8.069-6.883c-4.13,0.328-7.211,3.94-6.884,8.069
			c2.402,30.286,10.392,59.544,23.747,86.961c3.78,7.76,7.941,15.256,12.441,22.484c-4.838,9.845-6.956,20.809-6.154,31.671
			c-19.23,5.589-30.119,18.455-36.006,28.826c-3.147,5.547-3.114,12.142,0.088,17.641c3.187,5.471,8.872,8.737,15.21,8.737H137.871z
			 M17.635,456.537c-1.304,0-1.968-0.806-2.247-1.286c-0.29-0.497-0.675-1.507-0.005-2.689c7.243-12.762,18.211-20.531,32.6-23.093
			c1.98-0.353,3.735-1.485,4.872-3.145c1.137-1.659,1.56-3.705,1.174-5.679c-1.352-6.917-1.073-14.04,0.727-20.802
			c16.216,22.162,35.945,41.279,58.477,56.693H17.635z"/>
		<path d="M15.107,246.71c4.119,0.302,7.72-2.816,8.015-6.948c5.83-81.868,55.024-154.815,128.384-190.373
			c26.041-12.622,53.674-20.114,82.21-22.296c-87.563,59.953-118.356,175.941-71.472,271.836
			c23.198,47.448,62.872,84.584,111.715,104.568c0.93,0.38,1.891,0.561,2.837,0.561c2.955,0,5.757-1.758,6.944-4.662
			c1.568-3.833-0.268-8.213-4.102-9.781c-34.125-13.962-63.438-36.927-85.061-66.198c12.571,1.907,24.43,7.695,33.676,16.666
			c1.422,1.379,3.303,2.118,5.224,2.117c0.784,0,1.576-0.123,2.345-0.376c2.65-0.873,4.597-3.145,5.054-5.897
			c2.244-13.537,11.71-24.641,24.702-28.977c3.82-1.275,7.812-1.923,11.836-1.895c2.085,0.045,4.135-0.875,5.563-2.433
			c1.429-1.559,2.133-3.648,1.939-5.753c-1.46-15.897,7.82-31.266,22.566-37.373c3.827-1.584,5.645-5.972,4.061-9.799
			c-1.585-3.827-5.976-5.645-9.799-4.06c-18.696,7.742-30.851,25.237-31.912,44.947c-3.052,0.44-6.062,1.153-9.003,2.135
			c-14.335,4.784-25.618,15.422-31.342,28.97c-13.205-9.285-29.182-14.244-45.38-13.953c-3.005-4.99-5.809-10.124-8.388-15.398
			c-44.253-90.513-14.128-200.259,70.071-255.28c5.292-3.458,7.521-9.817,5.548-15.825c-1.97-5.992-7.526-9.781-13.815-9.428
			c-32.173,1.805-63.315,9.907-92.561,24.083c-39.192,18.997-72.602,48.238-96.613,84.563
			c-23.293,35.236-37.19,76.124-40.19,118.243C7.865,242.828,10.976,246.415,15.107,246.71z"/>
		<path d="M110.106,485.225h-66.13c-4.143,0-7.5,3.358-7.5,7.5s3.357,7.5,7.5,7.5h66.13c4.143,0,7.5-3.358,7.5-7.5
			S114.249,485.225,110.106,485.225z"/>
		<path d="M405.906,485.225h-24.16c-4.143,0-7.5,3.358-7.5,7.5s3.357,7.5,7.5,7.5h24.16c4.143,0,7.5-3.358,7.5-7.5
			S410.048,485.225,405.906,485.225z"/>
		<path d="M275.206,352.254c-1.203,3.963,1.034,8.152,4.998,9.355c3.963,1.201,8.151-1.035,9.355-4.998
			c2.825-9.307,11.266-15.561,21.001-15.561c9.736,0,18.177,6.253,21.002,15.561c0.983,3.238,3.957,5.323,7.174,5.323
			c0.722,0,1.456-0.105,2.182-0.325c3.964-1.204,6.201-5.392,4.998-9.355c-4.759-15.673-18.967-26.203-35.355-26.203
			S279.964,336.582,275.206,352.254z"/>
		<path d="M361.189,387.433c3.964,1.204,8.152-1.033,9.356-4.997c1.308-4.307,5.367-7.314,9.873-7.314s8.566,3.008,9.874,7.314
			c0.983,3.237,3.957,5.323,7.174,5.323c0.722,0,1.456-0.105,2.183-0.326c3.963-1.204,6.2-5.392,4.997-9.355
			c-3.262-10.74-12.998-17.956-24.228-17.956c-11.229,0-20.965,7.216-24.227,17.956
			C354.989,382.041,357.226,386.229,361.189,387.433z"/>
		<path d="M51.266,204.353c-5.124,8.352-8.377,19.525-9.161,31.461c-1.788,27.195,9.183,48.512,25.518,49.586
			c0.429,0.028,0.854,0.042,1.28,0.042c8.086,0,15.626-5.068,21.35-14.4c5.123-8.352,8.377-19.525,9.161-31.46c0,0,0,0,0,0
			c1.788-27.194-9.183-48.512-25.518-49.586C65.329,189.432,57.291,194.53,51.266,204.353z M72.678,204.955
			c0.078,0,0.156,0.003,0.233,0.008c5.58,0.367,12.848,13.652,11.535,33.635c-0.619,9.412-3.164,18.379-6.98,24.602
			c-2.842,4.633-6.238,7.403-8.859,7.233c-5.58-0.367-12.849-13.652-11.535-33.635c0.619-9.412,3.163-18.378,6.98-24.602
			C66.811,207.698,70.09,204.955,72.678,204.955z"/>
		<path d="M75.476,360.652c4.686,4.403,9.888,6.717,14.842,6.717c1.703,0,3.378-0.274,4.992-0.83
			c6.309-2.175,10.681-8.32,11.993-16.859c1.07-6.96,0.132-15.226-2.643-23.273v0c-6.484-18.807-20.284-29.917-32.095-25.844
			c-6.31,2.175-10.681,8.32-11.993,16.859c-1.07,6.961-0.132,15.226,2.643,23.273C65.99,348.743,70.344,355.83,75.476,360.652z
			 M75.398,319.702c0.526-3.423,1.691-4.832,2.057-4.958c0.082-0.028,0.178-0.042,0.287-0.042c2.06,0,8.765,5.069,12.737,16.595v0
			c1.967,5.704,2.695,11.573,1.999,16.104c-0.526,3.423-1.691,4.832-2.057,4.958c-0.369,0.128-2.15-0.267-4.674-2.637
			c-3.341-3.139-6.385-8.211-8.351-13.915C75.43,330.103,74.702,324.233,75.398,319.702z"/>
		<path d="M135.931,423.542c1.222,0.746,2.571,1.101,3.904,1.101c2.526,0,4.993-1.277,6.406-3.59
			c2.16-3.535,1.046-8.15-2.488-10.311c-16.271-9.942-29.712-24.194-29.846-24.337c-2.829-3.022-7.575-3.181-10.598-0.351
			c-3.025,2.83-3.184,7.576-0.354,10.601C103.556,397.297,117.873,412.506,135.931,423.542z"/>
		<path d="M119.528,363.192c-3.244,2.575-3.788,7.292-1.213,10.537l7.731,9.744c1.48,1.866,3.67,2.839,5.88,2.839
			c1.633,0,3.278-0.531,4.657-1.625c3.244-2.575,3.788-7.292,1.213-10.537l-7.731-9.744
			C127.491,361.16,122.774,360.617,119.528,363.192z"/>
		<path d="M98.221,108.224c-3.338-2.453-8.032-1.733-10.484,1.605c-20.701,28.185-28.86,54.816-29.198,55.936
			c-1.193,3.963,1.051,8.141,5.013,9.338c0.723,0.218,1.453,0.322,2.171,0.322c3.219,0,6.195-2.09,7.178-5.328
			c0.076-0.251,7.831-25.39,26.927-51.39C102.279,115.37,101.56,110.676,98.221,108.224z"/>
		<path d="M229.175,418.831c-4.137,0.197-7.332,3.71-7.135,7.848c0.19,4.017,3.507,7.144,7.485,7.144
			c0.12,0,0.241-0.003,0.362-0.008l0.277-0.013c4.137-0.197,7.332-3.71,7.135-7.848c-0.196-4.138-3.723-7.32-7.848-7.136
			L229.175,418.831z"/>
		<path d="M260.089,433.906l-0.278,0.013c-4.137,0.204-7.326,3.722-7.123,7.859c0.197,4.012,3.512,7.132,7.485,7.132
			c0.124,0,0.249-0.003,0.374-0.009l0.278-0.013c4.137-0.204,7.326-3.722,7.123-7.859S264.215,433.694,260.089,433.906z"/>
		<path d="M172.832,429.477c-4.138,0.204-7.326,3.723-7.122,7.86c0.198,4.012,3.513,7.131,7.485,7.131
			c0.124,0,0.25-0.003,0.375-0.009l0.277-0.014c4.138-0.204,7.326-3.723,7.122-7.86s-3.736-7.33-7.86-7.122L172.832,429.477z"/>
		<path d="M105.943,176.74l-0.278,0.013c-4.137,0.204-7.326,3.722-7.123,7.859c0.197,4.012,3.512,7.132,7.485,7.132
			c0.124,0,0.249-0.003,0.374-0.009l0.278-0.013c4.137-0.204,7.326-3.722,7.123-7.859
			C113.599,179.726,110.085,176.526,105.943,176.74z"/>
		<path d="M119.268,85.62l-0.278,0.013c-4.137,0.204-7.326,3.722-7.123,7.859c0.197,4.012,3.512,7.132,7.485,7.132
			c0.124,0,0.249-0.003,0.374-0.009l0.278-0.013c4.137-0.204,7.326-3.722,7.123-7.859S123.411,85.41,119.268,85.62z"/>
		<path d="M251.62,152.382c0.172,4.029,3.493,7.18,7.487,7.18c0.108,0,0.217-0.002,0.326-0.007c4.139-0.177,7.35-3.675,7.173-7.813
			l-0.013-0.297c-0.177-4.139-3.673-7.356-7.813-7.173c-4.139,0.177-7.35,3.675-7.173,7.813L251.62,152.382z"/>
		<path d="M258.696,176.307c-4.139,0.177-7.35,3.675-7.173,7.813l0.013,0.297c0.172,4.029,3.493,7.18,7.487,7.18
			c0.108,0,0.217-0.002,0.326-0.007c4.139-0.177,7.35-3.675,7.173-7.813l-0.013-0.297
			C266.332,179.34,262.846,176.115,258.696,176.307z"/>
		<path d="M274.254,175.482c0.124,0,0.25-0.003,0.375-0.009l0.277-0.014c4.138-0.204,7.326-3.723,7.122-7.86
			c-0.204-4.137-3.733-7.323-7.86-7.122l-0.277,0.014c-4.138,0.204-7.326,3.723-7.122,7.86
			C266.967,172.363,270.282,175.482,274.254,175.482z"/>
		<path d="M251.36,167.511c-0.204-4.137-3.741-7.332-7.86-7.122l-0.277,0.014c-4.138,0.204-7.326,3.723-7.122,7.86
			c0.198,4.012,3.513,7.131,7.485,7.131c0.124,0,0.25-0.003,0.375-0.009l0.277-0.014
			C248.375,175.168,251.564,171.649,251.36,167.511z"/>
		<path d="M420.278,259.38c0.116,0,0.233-0.002,0.351-0.008c4.138-0.191,7.338-3.7,7.147-7.837l-0.014-0.297
			c-0.19-4.137-3.695-7.339-7.837-7.147c-4.138,0.191-7.338,3.7-7.147,7.837l0.014,0.297
			C412.977,256.245,416.294,259.38,420.278,259.38z"/>
		<path d="M420.194,291.415c0.116,0,0.233-0.002,0.351-0.008c4.138-0.191,7.338-3.7,7.147-7.837l-0.014-0.297
			c-0.191-4.137-3.715-7.335-7.837-7.147c-4.138,0.191-7.338,3.7-7.147,7.837l0.014,0.297
			C412.893,288.28,416.21,291.415,420.194,291.415z"/>
		<path d="M435.424,275.3c0.124,0,0.249-0.003,0.374-0.009l0.278-0.013c4.137-0.204,7.326-3.722,7.123-7.859
			c-0.203-4.137-3.721-7.326-7.859-7.123l-0.278,0.013c-4.137,0.204-7.326,3.722-7.123,7.859
			C428.136,272.18,431.451,275.3,435.424,275.3z"/>
		<path d="M404.755,275.212c0.124,0,0.249-0.003,0.374-0.009l0.278-0.013c4.137-0.204,7.326-3.722,7.123-7.859
			s-3.735-7.334-7.859-7.123l-0.278,0.013c-4.137,0.204-7.326,3.722-7.123,7.859C397.467,272.092,400.782,275.212,404.755,275.212z"
			/>
		<path d="M232.76,217.592c-0.177-4.139-3.695-7.364-7.813-7.173c-4.139,0.177-7.35,3.675-7.173,7.813l0.013,0.297
			c0.172,4.029,3.493,7.18,7.487,7.18c0.108,0,0.217-0.002,0.326-0.007c4.139-0.177,7.35-3.675,7.173-7.813L232.76,217.592z"/>
		<path d="M224.837,242.455c-4.138,0.191-7.338,3.7-7.147,7.837l0.014,0.297c0.186,4.02,3.503,7.155,7.486,7.155
			c0.116,0,0.233-0.002,0.351-0.008c4.138-0.191,7.338-3.7,7.147-7.837l-0.014-0.297
			C232.484,245.465,228.974,242.262,224.837,242.455z"/>
		<path d="M240.072,226.637c-4.138,0.196-7.333,3.709-7.137,7.847c0.189,4.017,3.506,7.145,7.485,7.145
			c0.119,0,0.24-0.002,0.36-0.008l0.278-0.013c4.138-0.196,7.333-3.709,7.137-7.847c-0.194-4.137-3.707-7.308-7.846-7.137
			L240.072,226.637z"/>
		<path d="M209.403,226.549c-4.138,0.196-7.333,3.709-7.137,7.847c0.189,4.017,3.506,7.145,7.485,7.145
			c0.119,0,0.24-0.002,0.36-0.008l0.278-0.013c4.138-0.196,7.333-3.709,7.137-7.847c-0.194-4.137-3.71-7.32-7.846-7.137
			L209.403,226.549z"/>
	</g>
</g>
<g>
</g>
<g>
</g>
<g>
</g>
<g>
</g>
<g>
</g>
<g>
</g>
<g>
</g>
<g>
</g>
<g>
</g>
<g>
</g>
<g>
</g>
<g>
</g>
<g>
</g>
<g>
</g>
<g>
</g>
</svg>
