<?xml version="1.0" encoding="iso-8859-1"?>
<!-- Generator: Adobe Illustrator 24.0.2, SVG Export Plug-In . SVG Version: 6.00 Build 0)  -->
<svg version="1.1" id="Capa_1" xmlns="http://www.w3.org/2000/svg" xmlns:xlink="http://www.w3.org/1999/xlink" x="0px" y="0px"
	 viewBox="0 0 512 512" style="enable-background:new 0 0 512 512;" xml:space="preserve">
<g>
	<g>
		<g>
			<g>
				<path style="fill:#A176BD;" d="M195.46,175.78V423.2H96.88V175.78c0-4.32,3.5-7.82,7.82-7.82h82.94
					C191.96,167.96,195.46,171.46,195.46,175.78z"/>
				<path style="fill:#915EB2;" d="M118.73,194.11v43.35c0,7.65-6.2,13.85-13.85,13.85c-2.98,0-5.74-0.94-8-2.55v-63.62
					c1.21-0.54,2.54-0.83,3.95-0.83h8.1C114.34,184.31,118.73,188.69,118.73,194.11z"/>
				<path style="fill:#915EB2;" d="M195.461,175.775V423.2h-30.343V175.775c0-4.318-3.503-7.821-7.821-7.821h30.343
					C191.958,167.954,195.461,171.457,195.461,175.775z"/>
				<path style="fill:#FCC16D;" d="M173.561,117.822c0,15.774-12.922,28.53-28.757,28.261
					c-17.887-0.304-30.479-16.948-27.182-34.532c3.082-16.431,17.319-29.347,21.521-47.689c0.894-3.903,5.915-5.013,8.439-1.905
					C157.367,74.005,173.561,97.079,173.561,117.822z"/>
				<path style="fill:#FCA62F;" d="M173.568,117.827c0,15.762-12.932,28.522-28.757,28.256c-7.115-0.125-13.401-2.83-18.17-7.162
					c10.633-4.05,18.17-14.339,18.17-26.395c0-11.493-4.973-23.706-11.087-34.355c2.283-4.472,4.253-9.179,5.426-14.308
					c0.891-3.909,5.911-5.019,8.428-1.908C157.368,74.012,173.568,97.077,173.568,117.827z"/>
			</g>
		</g>
		<g>
			<g>
				<path style="fill:#FEE7C9;" d="M434.692,437.913h-98.579V190.49c0-4.318,3.5-7.819,7.819-7.819h82.942
					c4.318,0,7.819,3.5,7.819,7.819V437.913z"/>
				<path style="fill:#FFD496;" d="M366.378,182.666v68.348c0,6.94,5.626,12.566,12.566,12.566s12.566-5.626,12.566-12.566v-6.639
					c0-4.485,2.357-8.41,5.892-10.634v204.177h37.294V190.485c0-4.316-3.503-7.819-7.819-7.819H366.378z"/>
				<path style="fill:#FCC16D;" d="M412.793,132.537c0,15.774-12.922,28.53-28.757,28.261
					c-17.887-0.304-30.479-16.948-27.182-34.532c3.082-16.431,17.319-29.347,21.521-47.689c0.894-3.903,5.915-5.013,8.439-1.905
					C396.599,88.72,412.793,111.794,412.793,132.537z"/>
				<path style="fill:#FCA62F;" d="M412.8,132.542c0,15.762-12.932,28.522-28.757,28.256c-7.115-0.125-13.401-2.83-18.17-7.162
					c10.633-4.05,18.17-14.339,18.17-26.395c0-11.493-4.973-23.706-11.087-34.355c2.283-4.472,4.253-9.179,5.426-14.308
					c0.891-3.909,5.911-5.019,8.428-1.908C396.6,88.727,412.8,111.792,412.8,132.542z"/>
			</g>
			<g>
				<path style="fill:#17998C;" d="M451.643,474.966H319.166c-15.551,0-28.157-12.606-28.157-28.157v-3.827
					c0-4.318,3.5-7.819,7.819-7.819h173.154c4.318,0,7.819,3.5,7.819,7.819v3.827C479.8,462.36,467.194,474.966,451.643,474.966z"/>
				<path style="fill:#138B80;" d="M479.797,442.978v3.834c0,15.543-12.603,28.147-28.147,28.147h-37.68
					c15.543,0,28.147-12.603,28.147-28.147v-3.834c0-4.316-3.503-7.819-7.819-7.819h37.68
					C476.295,435.159,479.797,438.662,479.797,442.978z"/>
			</g>
			<path style="fill:#FEE7C9;" d="M429.21,482.188L429.21,482.188c-8.416,0-15.239-6.823-15.239-15.239v-32.152
				c0-5.42,4.394-9.813,9.813-9.813h10.851c5.42,0,9.813,4.394,9.813,9.813v32.152C444.449,475.365,437.626,482.188,429.21,482.188z
				"/>
			<path style="fill:#FFF1E2;" d="M366.378,189.54v39.978c0,6.94,5.626,12.566,12.566,12.566h0c6.94,0,12.566-5.626,12.566-12.566
				v-6.639c0-6.94,5.626-12.566,12.566-12.566l0,0c6.94,0,12.566,5.626,12.566,12.566v49.121c0,6.94,5.626,12.566,12.566,12.566h0
				c6.94,0,12.566-5.626,12.566-12.566v-82.46c0-5.42-4.394-9.813-9.813-9.813h-55.771
				C370.772,179.726,366.378,184.12,366.378,189.54z"/>
		</g>
		<g>
			<g>
				<path style="fill:#F82F40;" d="M294.039,370.541H195.46V123.118c0-4.318,3.5-7.819,7.819-7.819h82.942
					c4.318,0,7.819,3.5,7.819,7.819V370.541z"/>
				<path style="fill:#E22334;" d="M225.725,115.294v68.348c0,6.94,5.626,12.566,12.566,12.566s12.566-5.626,12.566-12.566v-6.639
					c0-4.485,2.357-8.41,5.892-10.634v204.177h37.294V123.112c0-4.316-3.503-7.819-7.819-7.819H225.725z"/>
				<path style="fill:#FCC16D;" d="M272.14,65.165c0,15.774-12.922,28.53-28.757,28.261c-17.887-0.304-30.479-16.948-27.182-34.532
					c3.082-16.431,17.319-29.347,21.521-47.689c0.894-3.903,5.915-5.013,8.439-1.905C255.946,21.348,272.14,44.422,272.14,65.165z"
					/>
				<path style="fill:#FCA62F;" d="M272.147,65.17c0,15.762-12.932,28.522-28.757,28.256c-7.115-0.125-13.401-2.83-18.17-7.162
					c10.633-4.05,18.17-14.339,18.17-26.395c0-11.493-4.973-23.706-11.087-34.355c2.283-4.472,4.253-9.179,5.426-14.308
					c0.891-3.909,5.911-5.019,8.428-1.908C255.947,21.355,272.147,44.42,272.147,65.17z"/>
			</g>
			<path style="fill:#FB6672;" d="M225.725,122.167v39.978c0,6.94,5.626,12.566,12.566,12.566h0c6.94,0,12.566-5.626,12.566-12.566
				v-6.639c0-6.94,5.626-12.566,12.566-12.566h0c6.94,0,12.566,5.626,12.566,12.566v98.188c0,6.94,5.626,12.566,12.566,12.566h0
				c6.94,0,12.566-5.626,12.566-12.566V122.167c0-5.42-4.394-9.813-9.813-9.813h-55.771
				C230.119,112.354,225.725,116.748,225.725,122.167z"/>
		</g>
		<g>
			<g>
				<ellipse style="fill:#F2671F;" cx="101.476" cy="373.146" rx="69.276" ry="109.137"/>
				<ellipse style="fill:#E25010;" cx="302.083" cy="373.146" rx="69.276" ry="109.137"/>
				<ellipse style="fill:#FB7722;" cx="145.954" cy="373.146" rx="79.418" ry="125.115"/>
				<ellipse style="fill:#FB7722;" cx="257.604" cy="373.146" rx="79.418" ry="125.115"/>
				<path style="fill:#F2671F;" d="M337.027,373.145c0,69.096-35.564,125.121-79.42,125.121c-4.828,0-9.549-0.677-14.141-1.973
					c37.114-10.51,65.279-61.657,65.279-123.148c0-61.491-28.164-112.628-65.279-123.138c4.593-1.295,9.313-1.973,14.141-1.973
					C301.464,248.034,337.027,304.049,337.027,373.145z"/>
				<ellipse style="fill:#FC9744;" cx="199.74" cy="373.146" rx="71.879" ry="131.354"/>
				<path style="fill:#FB8627;" d="M271.621,373.145c0,72.55-32.188,131.352-71.883,131.352c-5.486,0-10.834-1.128-15.976-3.258
					c32.011-13.268,55.907-65.583,55.907-128.094c0-62.511-23.896-114.816-55.907-128.094c5.142-2.13,10.491-3.258,15.976-3.258
					C239.433,241.793,271.621,300.604,271.621,373.145z"/>
			</g>
			<g>
				<g>
					<g>
						<circle style="fill:#FCB44D;" cx="139.417" cy="343.265" r="31.622"/>
						<path style="fill:#FB9927;" d="M171.036,343.264c0,17.467-14.156,31.624-31.618,31.624c-7.907,0-15.142-2.901-20.687-7.699
							c0.288,0.006,0.575,0.012,0.869,0.012c17.467,0,31.624-14.162,31.624-31.624c0-9.56-4.241-18.122-10.937-23.924
							C157.351,312.112,171.036,326.097,171.036,343.264z"/>
						<g>
							<path style="fill:#FCA62F;" d="M123.787,366.919c0.551,1.714,1.249,3.354,2.075,4.921c-2.583-1.23-4.976-2.797-7.112-4.651
								c0.282,0.006,0.563,0.012,0.851,0.012C121.021,367.201,122.416,367.109,123.787,366.919z"/>
						</g>
					</g>
					<g>
						<circle style="fill:#FCB44D;" cx="264.141" cy="343.265" r="31.622"/>
						<path style="fill:#FB9927;" d="M295.762,343.264c0,17.467-14.156,31.624-31.624,31.624c-7.907,0-15.136-2.901-20.681-7.699
							c0.288,0.006,0.575,0.012,0.869,0.012c17.461,0,31.618-14.162,31.618-31.624c0-9.56-4.241-18.122-10.937-23.924
							C282.077,312.112,295.762,326.097,295.762,343.264z"/>
					</g>
				</g>
				<g>
					<path style="fill:#FCB44D;" d="M300.4,399.18c-17.639,35.063-55.169,68.126-98.623,68.126
						c-43.448,0-80.984-33.063-98.623-68.126c-2.852-5.667,3.323-11.598,8.899-8.562c11.286,6.151,25.546,9.468,41.765,11.225
						c0.319,3.103,0.961,7.898,2.198,12.668c0.701,2.702,3.139,4.591,5.93,4.591h9.468c3.38,0,6.12-2.74,6.12-6.12v-9.566
						c7.822,0.263,15.931,0.343,24.243,0.343c36.03,0,68.26-1.438,89.724-13.14C297.077,387.582,303.259,393.513,300.4,399.18z"/>
					<path style="fill:#FB9927;" d="M300.401,399.18c-17.639,35.063-55.169,68.125-98.623,68.125c-3.795,0-7.546-0.251-11.243-0.741
						c32.413-9.242,58.229-34.133,68.756-65.983c12.29-1.946,23.196-5.049,32.211-9.964
						C297.078,387.582,303.26,393.512,300.401,399.18z"/>
				</g>
			</g>
		</g>
	</g>
	<g>
		<g>
			<path style="fill:#CDB4DB;" d="M104.88,231.618L104.88,231.618c-7.65,0-13.852-6.202-13.852-13.852v-43.354
				c0-5.412,4.388-9.8,9.8-9.8h22.757c5.412,0,9.8,4.388,9.8,9.8v9.644c0,4.027-3.3,7.273-7.326,7.206h0
				c-4.026-0.066-7.326,3.179-7.326,7.206v19.297C118.732,225.416,112.53,231.618,104.88,231.618z"/>
		</g>
		<path d="M471.98,427.66h-21.589c-1.67-3.671-4.582-6.651-8.2-8.417v-131.97c4.327-3.684,7.085-9.159,7.085-15.274v-82.46
			c0-9.547-7.767-17.313-17.313-17.313h-40.427v-4.605c6.777-1.338,13.019-4.618,18.064-9.579
			c6.895-6.779,10.692-15.837,10.692-25.505c0-23.091-17.328-47.875-27.656-60.592c-3.003-3.697-7.746-5.325-12.391-4.245
			c-4.607,1.071-8.126,4.597-9.182,9.203c-1.842,8.039-5.967,15.03-10.333,22.431c-4.653,7.887-9.466,16.043-11.248,25.551
			c-2.04,10.875,0.74,21.954,7.627,30.398c5.014,6.147,11.856,10.356,19.426,12.105v4.839h-0.345c-3.569,0-6.889,1.087-9.648,2.945
			h-22.613c-8.446,0-15.318,6.872-15.318,15.319v73.064c-6.406-3.532-13.206-5.81-20.266-6.661c0.169-1.053,0.274-2.121,0.274-3.203
			V122.17c0-9.55-7.765-17.32-17.31-17.32h-40.428v-4.602c6.777-1.338,13.02-4.618,18.065-9.579
			c6.896-6.779,10.692-15.837,10.692-25.505c0-23.088-17.327-47.873-27.656-60.592c-3.003-3.698-7.75-5.322-12.393-4.245
			c-4.608,1.072-8.126,4.599-9.18,9.203c-1.842,8.039-5.967,15.03-10.333,22.431c-4.654,7.887-9.467,16.043-11.249,25.551
			c-2.04,10.875,0.74,21.954,7.627,30.398c5.014,6.147,11.856,10.356,19.426,12.105v4.835h-0.343c-3.571,0-6.891,1.088-9.65,2.949
			h-22.611c-8.446,0-15.318,6.872-15.318,15.318v37.339h-35.656v-7.551c6.777-1.338,13.02-4.618,18.065-9.579
			c6.896-6.779,10.692-15.837,10.692-25.505c0-23.091-17.328-47.875-27.656-60.592c-3.003-3.697-7.746-5.323-12.391-4.245
			c-4.607,1.071-8.126,4.597-9.182,9.203c-1.842,8.04-5.967,15.03-10.334,22.432c-4.653,7.887-9.465,16.042-11.248,25.55
			c-2.04,10.875,0.74,21.954,7.627,30.398c5.014,6.147,11.856,10.356,19.426,12.105v7.784h-3.536
			c-2.861-2.093-6.374-3.345-10.183-3.345h-22.757c-9.539,0-17.3,7.761-17.3,17.3v43.354c0,5.669,2.236,10.816,5.854,14.643v25.507
			c-16.481,3.862-31.521,15.61-43.221,34.04c-13.839,21.8-21.46,50.636-21.46,81.194c0,30.555,7.621,59.387,21.461,81.186
			c14.51,22.856,34.156,35.444,55.319,35.444c0.86,0,1.756-0.031,2.679-0.077c12.609,10.491,26.872,16.057,41.791,16.057
			c7.745,0,15.383-1.527,22.755-4.535C178.324,508.238,188.832,512,199.74,512c11.383,0,22.407-4.174,32.445-11.919
			c8.194,3.767,16.727,5.679,25.415,5.679c14.922,0,29.188-5.566,41.798-16.057c0.924,0.046,1.822,0.078,2.683,0.078
			c9.491,0,18.599-2.57,27.016-7.31h83.518c4.152,4.437,10.054,7.218,16.596,7.218s12.444-2.781,16.596-7.218h5.834
			c19.663,0,35.66-15.997,35.66-35.66v-3.83C487.3,434.533,480.428,427.66,471.98,427.66z M368.734,145.801
			c-4.089-5.013-5.731-11.629-4.509-18.152c1.298-6.919,5.245-13.609,9.425-20.693c3.745-6.348,7.903-13.396,10.567-21.464
			c13.445,17.576,21.075,34.532,21.075,47.045c0,5.614-2.205,10.873-6.209,14.809c-4.001,3.935-9.285,6.042-14.92,5.953
			C378.073,153.195,372.594,150.532,368.734,145.801z M373.878,189.539c0-1.276,1.038-2.313,2.313-2.313h55.771
			c1.275,0,2.313,1.038,2.313,2.313v82.46c0,2.793-2.272,5.066-5.066,5.066s-5.066-2.273-5.066-5.066v-49.121
			c0-11.064-9.002-20.066-20.066-20.066s-20.066,9.002-20.066,20.066v6.639c0,2.793-2.272,5.066-5.066,5.066
			s-5.066-2.273-5.066-5.066V189.539z M228.081,78.429c-4.089-5.013-5.731-11.629-4.509-18.152
			c1.298-6.918,5.245-13.609,9.425-20.693c3.746-6.347,7.904-13.395,10.568-21.464c13.445,17.578,21.075,34.533,21.075,47.045
			c0,5.613-2.205,10.873-6.208,14.809c-4.002,3.935-9.313,6.059-14.922,5.954C237.42,85.823,231.94,83.16,228.081,78.429z
			 M233.23,122.17c0-1.279,1.036-2.32,2.31-2.32h55.771c1.273,0,2.31,1.041,2.31,2.32v130.037c-3.287-2.261-6.669-4.205-10.13-5.823
			V155.51c0-5.346-2.083-10.382-5.889-14.205c-3.799-3.782-8.835-5.865-14.182-5.865c-11.061,0-20.06,9.003-20.06,20.07v6.64
			c0,1.35-0.526,2.62-1.474,3.566c-0.967,0.963-2.244,1.494-3.597,1.494c-2.79,0-5.06-2.27-5.06-5.06V122.17z M129.502,131.086
			c-4.089-5.013-5.731-11.629-4.509-18.152c1.298-6.918,5.246-13.609,9.425-20.692c3.746-6.348,7.904-13.396,10.568-21.465
			c13.445,17.576,21.075,34.532,21.075,47.045c0,5.613-2.205,10.873-6.208,14.809c-4.002,3.935-9.327,6.043-14.922,5.954
			C138.841,138.48,133.361,135.817,129.502,131.086z M126.232,198.763c3.863-0.012,7.496-1.505,10.259-4.222
			c2.833-2.787,4.394-6.511,4.394-10.485v-8.599h47.075v12.304c0,4.142,3.357,7.5,7.5,7.5s7.5-3.358,7.5-7.5v-64.643
			c0-0.176,0.143-0.318,0.318-0.318h14.952v39.351c0,11.061,8.999,20.06,20.06,20.06c5.348,0,10.384-2.083,14.192-5.876
			c3.79-3.79,5.878-8.827,5.878-14.184v-6.64c0-2.795,2.27-5.07,5.06-5.07c1.353,0,2.631,0.531,3.575,1.472
			c0.964,0.968,1.495,2.246,1.495,3.598v86.026c-3.581-0.666-7.215-1.006-10.891-1.006c-8.69,0-17.222,1.915-25.414,5.69
			c-9.065-7.002-18.954-11.096-29.226-11.805v-11.259c0-4.142-3.357-7.5-7.5-7.5s-7.5,3.358-7.5,7.5v12.654
			c-6.66,1.709-13.095,4.85-19.177,9.29c-7.395-3.029-15.061-4.57-22.832-4.57c-14.832,0-29.015,5.506-41.569,15.88v-17.318
			c0.167,0.004,0.331,0.025,0.499,0.025c11.773,0,21.353-9.579,21.353-21.352V198.763z M225.019,343.265
			c0,21.499,17.433,38.999,38.906,39.117c-0.13,3.313-0.33,6.608-0.599,9.874c-18.313,3.583-40.142,4.003-61.548,4.003
			c-9.503,0-17.126-0.107-23.99-0.338c-2.035-0.066-4.004,0.691-5.465,2.104c-1.462,1.413-2.287,3.359-2.287,5.392v8.186h-7.015
			c-0.944-3.934-1.466-7.847-1.741-10.527c-0.362-3.52-3.136-6.308-6.653-6.689c-6.838-0.74-12.996-1.746-18.545-3.021
			c-0.238-3.036-0.415-6.096-0.533-9.17c1.273,0.126,2.563,0.193,3.869,0.193c21.572,0,39.122-17.55,39.122-39.122
			c0-19.229-13.948-35.25-32.256-38.506c12.052-34.411,32.157-55.466,53.457-55.466c21.476,0,41.734,21.414,53.751,56.335
			C237.08,310.279,225.019,325.385,225.019,343.265z M264.141,319.143c13.301,0,24.122,10.821,24.122,24.122
			s-10.821,24.122-24.122,24.122c-13.301,0-24.122-10.821-24.122-24.122S250.84,319.143,264.141,319.143z M115.295,343.265
			c0-13.301,10.821-24.122,24.122-24.122s24.122,10.821,24.122,24.122s-10.821,24.122-24.122,24.122
			S115.295,356.566,115.295,343.265z M98.527,174.411c0-1.268,1.031-2.3,2.3-2.3h22.757c1.269,0,2.301,1.032,2.301,2.3v9.35
			c-3.863,0.012-7.496,1.505-10.259,4.222c-2.833,2.787-4.394,6.511-4.394,10.485v19.297c0,3.502-2.85,6.352-6.353,6.352
			s-6.353-2.85-6.353-6.352V174.411z M58.824,446.296C46.492,426.871,39.7,400.893,39.7,373.15c0-27.748,6.792-53.729,19.124-73.155
			c8.299-13.072,18.364-21.959,29.189-26.001c-1.56,2.129-3.078,4.348-4.549,6.665c-15.75,24.818-24.425,57.666-24.425,92.491
			c0,34.825,8.675,67.671,24.426,92.487c1.469,2.314,2.986,4.531,4.544,6.658C77.186,468.253,67.122,459.366,58.824,446.296z
			 M145.95,490.76c-18.554,0-36.247-11.777-49.82-33.162c-14.245-22.442-22.09-52.434-22.09-84.448
			c0-32.016,7.845-62.008,22.09-84.454c13.573-21.388,31.267-33.167,49.82-33.167c3.429,0,6.84,0.414,10.211,1.216
			c-10.593,12.039-19.509,28.526-25.824,48.473c-17.206,4.107-30.042,19.601-30.042,38.047c0,14.677,8.129,27.486,20.117,34.179
			c0.052,3.02,0.153,6.037,0.314,9.043c-1.789-0.771-3.488-1.586-5.085-2.456c-5.407-2.943-12.01-2.047-16.43,2.232
			c-4.405,4.264-5.513,10.81-2.757,16.288c7.677,15.26,19.985,31.987,36.247,45.517c6.121,16.91,14.115,30.932,23.384,41.495
			C152.739,490.353,149.353,490.76,145.95,490.76z M199.74,497c-16.279,0-31.83-12.197-43.702-33.519
			c8.131,4.1,16.891,7.306,26.244,9.265c4.053,0.847,8.029-1.749,8.879-5.803c0.849-4.054-1.749-8.029-5.803-8.878
			c-29.083-6.092-57.82-29.238-74.005-59.371c9.531,4.652,21.313,7.908,35.789,9.888c0.394,2.441,0.918,5.126,1.614,7.813
			c1.56,6.009,6.984,10.207,13.19,10.207h9.468c7.51,0,13.62-6.11,13.62-13.62v-1.867c4.994,0.097,10.47,0.144,16.742,0.144
			c32.813,0,66.718-1.002,90.424-12.564c-16.287,30.331-45.212,53.519-74.48,59.471c-4.059,0.826-6.68,4.785-5.854,8.844
			c0.723,3.555,3.85,6.007,7.342,6.007c0.495,0,0.998-0.049,1.503-0.152c7.431-1.511,14.485-3.817,21.157-6.726
			C230.162,485.77,215.166,497,199.74,497z M257.6,490.76c-4.548,0-9.06-0.713-13.492-2.117c8.131-9.477,15.263-21.612,20.943-36
			c19.144-14.187,33.468-33.033,42.047-50.086c2.762-5.477,1.659-12.022-2.744-16.289c-4.42-4.284-11.025-5.184-16.44-2.236
			c-2.856,1.557-5.959,2.911-9.257,4.099c0.174-2.889,0.304-5.789,0.377-8.697c14.206-5.87,24.23-19.869,24.23-36.17
			c0-19.96-15.029-36.466-34.364-38.822c-6.142-19.109-14.688-34.992-24.801-46.788c4.434-1.41,8.951-2.125,13.502-2.125
			c18.558,0,36.254,11.779,49.829,33.167c14.245,22.445,22.091,52.438,22.091,84.454c0,32.016-7.846,62.006-22.091,84.448
			C293.854,478.983,276.158,490.76,257.6,490.76z M347.501,467.47c6.263-6.932,11.807-15.291,16.426-24.81h42.543v24.289
			c0,0.175,0.009,0.347,0.013,0.521H347.501z M408.028,427.66h-37.932c3.791-11.014,6.475-23.131,7.813-36.058
			c0.427-4.12-2.567-7.806-6.688-8.232c-4.123-0.424-7.806,2.568-8.232,6.688c-4.225,40.809-23.575,73.136-47.403,82.182
			c1.544-2.11,3.049-4.308,4.505-6.603c15.752-24.815,24.427-57.661,24.427-92.487c0-34.827-8.675-67.674-24.427-92.492
			c-1.458-2.297-2.964-4.498-4.51-6.611c23.83,9.042,43.182,41.362,47.407,82.165c0.399,3.858,3.656,6.728,7.451,6.728
			c0.258,0,0.519-0.013,0.781-0.041c4.12-0.427,7.114-4.112,6.688-8.232c-3.528-34.061-16.383-62.524-34.298-79.883V190.49
			c0-0.176,0.143-0.319,0.318-0.319h14.947v39.346c0,11.064,9.002,20.066,20.066,20.066s20.066-9.002,20.066-20.066v-6.639
			c0-2.793,2.272-5.066,5.066-5.066s5.066,2.273,5.066,5.066v49.121c0,10.383,7.928,18.948,18.048,19.964v125.52h-3.407
			C416.783,417.484,410.754,421.668,408.028,427.66z M436.949,466.949c0,4.267-3.472,7.739-7.739,7.739s-7.739-3.472-7.739-7.739
			v-32.152c0-1.275,1.038-2.313,2.313-2.313h10.852c1.275,0,2.313,1.038,2.313,2.313V466.949z M472.3,446.81
			c0,11.292-9.109,20.484-20.363,20.645c0.004-0.169,0.013-0.336,0.013-0.506V442.66h20.031c0.176,0,0.319,0.144,0.319,0.32V446.81z
			"/>
	</g>
</g>
<g>
</g>
<g>
</g>
<g>
</g>
<g>
</g>
<g>
</g>
<g>
</g>
<g>
</g>
<g>
</g>
<g>
</g>
<g>
</g>
<g>
</g>
<g>
</g>
<g>
</g>
<g>
</g>
<g>
</g>
</svg>
