<?xml version="1.0" encoding="iso-8859-1"?>
<!-- Generator: Adobe Illustrator 24.0.2, SVG Export Plug-In . SVG Version: 6.00 Build 0)  -->
<svg version="1.1" id="Capa_1" xmlns="http://www.w3.org/2000/svg" xmlns:xlink="http://www.w3.org/1999/xlink" x="0px" y="0px"
	 viewBox="0 0 512 512" style="enable-background:new 0 0 512 512;" xml:space="preserve">
<g>
	<path style="fill:#27E19D;" d="M180.537,127.114c0,0,40.889-17.196,56.878-67.934c9.981-31.675,24.738-44.265,34.173-49.235
		c4.719-2.486,10.548-1.017,13.535,3.401l3.932,5.816c1.924,2.845,2.334,6.448,1.082,9.646
		c-6.519,16.664-22.157,71.555,41.326,98.305v31.765H180.537V127.114z"/>
	<path style="fill:#20B69F;" d="M331.46,127.11v31.77H256c-2.99-107.59,34.14-130.07,34.14-130.07
		C283.62,45.47,267.98,100.36,331.46,127.11z"/>
	<g>
		<g>
			<g>
				<g>
					<ellipse style="fill:#E25010;" cx="109.017" cy="310.783" rx="101.517" ry="159.928"/>
					<ellipse style="fill:#F2671F;" cx="402.983" cy="310.783" rx="101.517" ry="159.928"/>
				</g>
				<ellipse style="fill:#F2671F;" cx="174.195" cy="310.783" rx="116.379" ry="183.342"/>
				<ellipse style="fill:#F2671F;" cx="337.805" cy="310.783" rx="116.379" ry="183.342"/>
				<path style="fill:#E25010;" d="M454.191,310.781c0,101.252-52.115,183.35-116.381,183.35c-7.075,0-13.992-0.992-20.722-2.891
					c54.387-15.401,95.658-90.352,95.658-180.459c0-90.108-41.272-165.044-95.658-180.445c6.73-1.898,13.647-2.891,20.722-2.891
					C402.076,127.445,454.191,209.528,454.191,310.781z"/>
				<g>
					<ellipse style="fill:#FB8627;" cx="253.012" cy="310.783" rx="105.33" ry="192.484"/>
					<path style="fill:#FB7722;" d="M358.345,310.781c0,106.314-47.168,192.481-105.336,192.481c-8.038,0-15.876-1.654-23.411-4.774
						c46.909-19.442,81.925-96.104,81.925-187.707c0-91.603-35.016-168.251-81.925-187.707c7.535-3.121,15.373-4.774,23.411-4.774
						C311.178,118.299,358.345,204.481,358.345,310.781z"/>
				</g>
			</g>
		</g>
	</g>
	<g>
		<g>
			<circle style="fill:#FFD496;" cx="154.107" cy="246.951" r="51.667"/>
			<path style="fill:#FCC16D;" d="M205.77,246.95c0,28.54-23.13,51.67-51.66,51.67c-12.92,0-24.74-4.74-33.8-12.58
				c0.47,0.01,0.94,0.02,1.42,0.02c28.54,0,51.67-23.14,51.67-51.67c0-15.62-6.93-29.61-17.87-39.09
				C183.41,196.05,205.77,218.9,205.77,246.95z"/>
			<path style="fill:#FCB44D;" d="M199.849,222.922c-6.705-3.183-14.213-4.967-22.136-4.967c-28.529,0-51.666,23.128-51.666,51.666
				c0,8.669,2.134,16.848,5.912,24.025c-17.452-8.292-29.521-26.083-29.521-46.689c0-28.539,23.137-51.676,51.666-51.676
				C173.964,195.28,191.208,206.49,199.849,222.922z"/>
			<g>
				<path style="fill:#FCA62F;" d="M128.57,285.6c0.9,2.8,2.04,5.48,3.39,8.04c-4.22-2.01-8.13-4.57-11.62-7.6
					c0.46,0.01,0.92,0.02,1.39,0.02C124.05,286.06,126.33,285.91,128.57,285.6z"/>
				<path style="fill:#FB9927;" d="M199.85,222.92c-6.71-3.18-14.21-4.97-22.14-4.97c-2.32,0-4.6,0.15-6.84,0.45
					c-2.94-9.06-8.31-17.01-15.34-23.1C174.79,195.82,191.42,206.89,199.85,222.92z"/>
			</g>
		</g>
		<g>
			<circle style="fill:#FFD496;" cx="357.893" cy="246.951" r="51.667"/>
			<path style="fill:#FCC16D;" d="M409.56,246.95c0,28.54-23.13,51.67-51.67,51.67c-12.92,0-24.73-4.74-33.79-12.58
				c0.47,0.01,0.94,0.02,1.42,0.02c28.53,0,51.66-23.14,51.66-51.67c0-15.62-6.93-29.61-17.87-39.09
				C387.2,196.05,409.56,218.9,409.56,246.95z"/>
			<path style="fill:#FCB44D;" d="M409.562,246.956c0,20.606-12.069,38.398-29.521,46.689c3.777-7.177,5.912-15.355,5.912-24.025
				c0-28.539-23.137-51.666-51.666-51.666c-7.923,0-15.431,1.785-22.136,4.967c8.641-16.432,25.885-27.642,45.745-27.642
				C386.425,195.28,409.562,218.417,409.562,246.956z"/>
			<path style="fill:#FB9927;" d="M409.56,246.96c0,20.6-12.07,38.39-29.52,46.68c3.78-7.17,5.91-15.35,5.91-24.02
				c0-10.88-3.36-20.98-9.11-29.31c0.23-1.94,0.34-3.92,0.34-5.92c0-15.62-6.93-29.61-17.87-39.09
				C387.19,196.05,409.56,218.89,409.56,246.96z"/>
		</g>
	</g>
	<g>
		<path style="fill:#FCB44D;" d="M417.138,338.311c-28.82,57.29-90.14,111.311-161.14,111.311
			c-70.99,0-132.32-54.021-161.14-111.311c-4.66-9.26,5.43-18.95,14.54-13.99c18.44,10.05,41.74,15.47,68.24,18.34
			c0.521,5.07,1.57,12.905,3.592,20.698c1.145,4.415,5.129,7.502,9.689,7.502h15.469c5.523,0,10-4.477,10-10v-15.63
			c12.78,0.43,26.03,0.56,39.61,0.56c58.87,0,111.53-2.35,146.6-21.47C411.708,319.361,421.808,329.051,417.138,338.311z"/>
		<path style="fill:#FB9927;" d="M417.14,338.31C388.32,395.6,327,449.62,256,449.62c-6.2,0-12.33-0.41-18.37-1.21
			c52.96-15.1,95.14-55.77,112.34-107.81c20.08-3.18,37.9-8.25,52.63-16.28C411.71,319.36,421.81,329.05,417.14,338.31z"/>
		<path style="fill:#FFD496;" d="M417.14,338.31C388.32,395.6,327,449.62,256,449.62c-70.99,0-132.32-54.02-161.14-111.31
			c-4.66-9.26,5.43-18.95,14.54-13.99c3.28,1.79,6.71,3.43,10.29,4.93c29.35,48.66,79.45,89.93,136.31,89.93
			s106.94-41.26,136.28-89.91h0.01c3.58-1.52,7.02-3.16,10.31-4.95C411.71,319.36,421.81,329.05,417.14,338.31z"/>
		<path style="fill:#FCC16D;" d="M417.14,338.31C388.32,395.6,327,449.62,256,449.62c-6.2,0-12.32-0.41-18.36-1.21
			c26.81-7.65,50.85-21.84,70.29-40.75c34.79-15.58,64.38-45.27,84.35-78.39h0.01c3.58-1.52,7.02-3.16,10.31-4.95
			C411.71,319.36,421.81,329.05,417.14,338.31z"/>
	</g>
	<path d="M481.098,193.675c-20.6-32.453-48.342-50.326-78.118-50.326c-1.712,0-3.428,0.079-5.132,0.2
		c-17.799-15.085-38.274-23.609-60.038-23.609c-1.273,0-2.544,0.039-3.813,0.098c-3.998-1.702-7.648-3.522-10.979-5.442
		c13.706-2.09,29.257-10.145,46.426-24.113c20.225-16.455,40.35-21.543,56.667-14.333c11.356,5.02,17.803,14.866,18.09,20.045
		c0.229,4.136,3.768,7.306,7.904,7.072c4.136-0.229,7.302-3.769,7.072-7.904c-0.594-10.697-10.06-25.444-27.003-32.932
		c-12.59-5.566-38.708-10.831-72.198,16.416c-24.08,19.591-39.132,22.276-47.53,21.071c-7.286-1.043-11.538-5.212-13.822-8.526
		c-0.082-0.119-0.173-0.228-0.261-0.34c-12.746-22.108-6.161-46.938-1.242-59.512c2.146-5.488,1.454-11.686-1.854-16.579
		l-3.932-5.816c-5.139-7.601-15.131-10.11-23.244-5.836c-11.451,6.033-27.31,20.231-37.831,53.616
		c-1.069,3.393-2.272,6.607-3.561,9.687c-1.315,2.592-4.065,6.59-8.843,7.623c-6.968,1.508-17.376-3.222-29.32-13.314
		c-3.165-2.674-7.897-2.276-10.569,0.888c-2.674,3.164-2.276,7.896,0.888,10.569c12.618,10.662,24.094,16.373,34.237,17.062
		c-3.033,2.179-9.604,5.524-20.435,4.473c-12.814-1.248-34.845-9.078-67.035-39.302c-21.536-20.22-48.997-19.209-64.993-7.762
		C45.914,57.383,41.637,74.663,49.469,91.947c5.832,12.87,15.471,20.177,26.548,20.176c0.289,0,0.581-0.005,0.872-0.015
		c10.547-0.363,20.161-7.388,23.922-17.481c3.708-9.951,0.783-20.658-7.824-28.64c-3.038-2.817-7.783-2.637-10.599,0.399
		c-2.817,3.037-2.638,7.783,0.399,10.599c4.177,3.874,5.549,8.163,3.969,12.404c-1.612,4.326-5.979,7.576-10.382,7.728
		c-5.137,0.164-9.841-3.857-13.241-11.362c-4.839-10.677-2.569-20.412,6.228-26.708c11.02-7.885,30.355-8.185,45.996,6.5
		c28.316,26.586,53.835,41.153,75.85,43.295c1.27,0.124,2.493,0.192,3.69,0.232c-8.462,6.831-15.292,10.209-16.905,10.96
		c-1.265-0.058-2.531-0.095-3.8-0.095c-20.481,0-40.736,7.763-58.576,22.45c-0.459,0.378-0.911,0.779-1.368,1.166
		c-1.734-0.125-3.483-0.206-5.227-0.206c-29.776,0-57.519,17.873-78.118,50.326C10.975,225.07,0,266.658,0,310.78
		c0,44.126,10.975,85.716,30.902,117.108c20.599,32.45,48.342,50.322,78.118,50.322c1.713,0,3.43-0.079,5.134-0.2
		c18.109,15.413,38.613,23.61,60.036,23.61c11.499,0,22.854-2.4,33.803-7.124c14.069,10.683,29.44,16.271,45.019,16.271
		c16.743,0,32.782-6.241,47.304-17.959c12.079,5.843,24.673,8.812,37.494,8.812c21.271,0,41.813-8.218,59.961-23.615
		c1.729,0.124,3.472,0.205,5.209,0.205c29.776,0,57.52-17.872,78.118-50.322C501.025,396.496,512,354.906,512,310.78
		C512,266.658,501.025,225.07,481.098,193.675z M357.894,291.119c-24.354,0-44.167-19.813-44.167-44.167
		c0-6.511,1.428-12.692,3.969-18.262c5.267-2.138,10.841-3.235,16.592-3.235c24.353,0,44.166,19.813,44.166,44.166
		c0,6.378-1.335,12.509-3.943,18.243C369.377,289.956,363.77,291.119,357.894,291.119z M334.287,210.454
		c-0.428,0-0.853,0.023-1.28,0.032c7.092-4.855,15.662-7.702,24.887-7.702c24.354,0,44.167,19.813,44.167,44.167
		c0,9.856-3.247,18.968-8.725,26.324c0.073-1.212,0.118-2.43,0.118-3.655C393.453,236.996,366.911,210.454,334.287,210.454z
		 M298.726,246.951c0,30.224,22.785,55.212,52.078,58.728c0.025,1.702,0.038,3.408,0.038,5.104c0,7.409-0.252,14.841-0.72,22.162
		c-22.656,3.731-47.348,4.805-70.485,5.175c-4.142,0.066-7.445,3.478-7.379,7.619c0.066,4.142,3.482,7.427,7.619,7.379
		c32.405-0.519,65.408-2.281,93.82-9.741C346.989,378.837,305.107,411.68,256,411.68c-49.135,0-91.026-32.856-117.75-68.354
		c9.808,2.566,20.658,4.592,32.651,6.098c0.652,4.698,1.627,10.258,3.069,15.817c2.003,7.724,8.973,13.119,16.949,13.119h15.469
		c9.649,0,17.5-7.851,17.5-17.5v-7.911c6.261,0.152,13.008,0.25,20.424,0.3c0.017,0,0.034,0,0.051,0c4.119,0,7.472-3.325,7.499-7.45
		c0.027-4.142-3.309-7.522-7.45-7.55c-10.439-0.069-19.523-0.237-27.771-0.515c-2.009-0.072-4.003,0.69-5.465,2.104
		c-1.461,1.413-2.287,3.359-2.287,5.392v15.63c0,1.378-1.122,2.5-2.5,2.5h-15.469c-1.143,0-2.142-0.775-2.43-1.884
		c-1.888-7.28-2.886-14.667-3.391-19.582c-0.362-3.521-3.135-6.309-6.653-6.69c-8.085-0.875-15.6-1.981-22.611-3.309
		c-0.425-6.979-0.653-14.061-0.653-21.112c0-1.56,0.015-3.127,0.036-4.692c32.112-0.597,58.057-26.887,58.057-59.139
		c0-24.14-14.539-44.937-35.315-54.128c18.651-42.082,46.436-67.024,75.053-67.024c29.218,0,57.468,25.876,76.126,69.468
		C311.015,205.391,298.726,224.759,298.726,246.951z M255.998,442.122c-69.439,0-127.602-53.832-154.44-107.183
		c-0.873-1.734-0.001-2.963,0.596-3.541c0.613-0.593,1.904-1.446,3.656-0.492c2.769,1.509,5.684,2.928,8.725,4.274
		c15.935,25.812,36.404,47.871,59.261,63.825C199.735,417.11,228.161,426.68,256,426.68c27.81,0,56.204-9.549,82.114-27.614
		c22.878-15.952,43.374-38.027,59.323-63.866c3.003-1.332,5.927-2.754,8.747-4.292c1.758-0.957,3.05-0.102,3.665,0.493
		c0.596,0.577,1.464,1.803,0.589,3.539C383.601,388.29,325.438,442.122,255.998,442.122z M178.995,210.488
		c-0.428-0.009-0.853-0.033-1.282-0.033c-32.624,0-59.166,26.542-59.166,59.166c0,1.226,0.045,2.444,0.118,3.656
		c-5.479-7.357-8.726-16.468-8.726-26.325c0-24.354,19.813-44.167,44.167-44.167C163.332,202.784,171.903,205.632,178.995,210.488z
		 M137.49,287.863c-2.608-5.735-3.943-11.865-3.943-18.243c0-24.353,19.813-44.166,44.166-44.166c5.758,0,11.328,1.094,16.591,3.231
		c2.542,5.571,3.97,11.753,3.97,18.266c0,24.354-19.813,44.167-44.167,44.167C148.23,291.119,142.623,289.956,137.49,287.863z
		 M300.23,128.788c-11.054-8.9-22.982-14.587-35.205-16.854c2.265-21.743,6.508-37.668,11.073-49.193
		c0.024,4.11,0.33,8.354,1.054,12.678c2.479,14.783,10.506,34.051,33.407,49.108C307.08,125.718,303.634,127.138,300.23,128.788z
		 M244.568,61.434c9.461-30.023,23.18-40.989,30.515-44.853c1.333-0.704,2.979-0.288,3.826,0.966l3.932,5.815
		c0.253,0.375,0.404,0.797,0.468,1.23c-7.552,6.41-27.307,28.429-33.252,86.282c-14.85,0.651-29.097,6.204-42.167,16.149
		c-2.564-1.104-5.151-2.083-7.757-2.93C214.439,113.632,234.285,94.067,244.568,61.434z M98.236,436.404
		C77.01,402.962,65.32,358.348,65.32,310.78c0-25.085,3.233-49.32,9.611-72.033c1.12-3.988-1.205-8.128-5.193-9.248
		c-3.986-1.122-8.129,1.205-9.248,5.193c-6.748,24.032-10.169,49.631-10.169,76.087c0,50.379,12.519,97.848,35.251,133.662
		c4.099,6.457,8.45,12.395,13.012,17.816c-20.577-3.734-39.814-18.457-55.018-42.408C25.145,390.83,15,352.095,15,310.78
		c0-41.311,10.145-80.045,28.566-109.066c15.222-23.981,34.487-38.712,55.092-42.425c-9.797,11.609-18.49,25.471-25.634,41.031
		c-1.729,3.764-0.078,8.217,3.687,9.945c1.014,0.465,2.078,0.686,3.125,0.686c2.84,0,5.558-1.622,6.821-4.373
		c20.598-44.858,53.32-71.639,87.534-71.639c7.126,0,14.199,1.155,21.133,3.387c-12.165,12.729-22.975,29.631-31.863,50.203
		c-3.048-0.486-6.171-0.747-9.354-0.747c-32.625,0-59.167,26.542-59.167,59.167c0,27.85,19.347,51.252,45.302,57.511
		c-0.036,2.107-0.06,4.219-0.06,6.321c0,5.886,0.153,11.796,0.438,17.655c-10.611-2.871-19.78-6.423-27.635-10.704
		c-7.108-3.87-15.456-2.737-21.265,2.888c-5.784,5.6-7.181,13.866-3.562,21.06c15.394,30.601,40.489,61.347,72.038,83.407
		c9.209,23.609,21.322,43.587,35.218,58.116c-6.968,2.252-14.073,3.416-21.225,3.416C145.765,486.62,118.79,468.786,98.236,436.404z
		 M182.684,438.684c22.318,11.479,47.052,18.438,73.314,18.438c23.152,0,45.114-5.412,65.283-14.557
		c-18.271,33.655-42.963,53.202-68.269,53.202C226.551,495.767,201.119,474.792,182.684,438.684z M468.434,419.849
		c-15.209,23.959-34.453,38.684-55.038,42.412c3.151-3.733,6.198-7.712,9.128-11.936c22.13-31.917,35.847-75.147,38.624-121.729
		c0.247-4.135-2.906-7.687-7.041-7.933c-4.147-0.234-7.687,2.906-7.933,7.041c-2.615,43.874-15.392,84.386-35.977,114.074
		c-20.051,28.917-45.758,44.842-72.387,44.842c-8.677,0-17.265-1.668-25.631-4.968c12.054-13.067,22.73-30.284,31.459-51.143
		c35.386-22.262,63.5-55.629,80.197-88.82c3.626-7.191,2.234-15.458-3.548-21.06c-5.812-5.631-14.163-6.767-21.279-2.893
		c-9.816,5.352-21.276,9.291-33.681,12.202c0.336-6.351,0.515-12.763,0.515-19.156c0-1.731-0.013-3.471-0.037-5.208
		c28.896-3.88,51.256-28.682,51.256-58.623c0-32.625-26.542-59.167-59.167-59.167c-5.123,0-10.096,0.656-14.84,1.886
		c-8.456-19.822-19.035-36.804-30.962-49.73c8.392-3.32,17.01-5,25.719-5c26.561,0,52.218,15.854,72.246,44.643
		c20.556,29.548,33.369,69.906,36.078,113.641c0.247,3.977,3.548,7.037,7.479,7.037c0.156,0,0.313-0.005,0.471-0.015
		c4.134-0.256,7.278-3.815,7.022-7.95c-3.388-54.68-21.31-101.868-47.601-132.978c20.543,3.76,39.747,18.477,54.929,42.396
		C486.855,230.735,497,269.469,497,310.78C497,352.095,486.855,390.83,468.434,419.849z"/>
</g>
<g>
</g>
<g>
</g>
<g>
</g>
<g>
</g>
<g>
</g>
<g>
</g>
<g>
</g>
<g>
</g>
<g>
</g>
<g>
</g>
<g>
</g>
<g>
</g>
<g>
</g>
<g>
</g>
<g>
</g>
</svg>
