<?xml version="1.0" encoding="iso-8859-1"?>
<!-- Generator: Adobe Illustrator 24.0.2, SVG Export Plug-In . SVG Version: 6.00 Build 0)  -->
<svg version="1.1" id="Capa_1" xmlns="http://www.w3.org/2000/svg" xmlns:xlink="http://www.w3.org/1999/xlink" x="0px" y="0px"
	 viewBox="0 0 512 512" style="enable-background:new 0 0 512 512;" xml:space="preserve">
<g>
	<g>
		<g>
			<path style="fill:#554E55;" d="M445.549,252.787c31.75-58.54,20.6-120.24,11.94-141.67c-1.12-2.78-4.51-3.82-6.99-2.15
				c-6.48,4.38-13.53,7.86-20.93,10.37c-30.63,10.41-53.46,20.17-70.75,29.83c-10.33-6.57-21.14-12.14-32.35-16.66
				c-22.62-9.13-46.33-13.75-70.47-13.75s-47.85,4.62-70.47,13.75c-11.21,4.52-22.02,10.09-32.35,16.66
				c-17.29-9.66-40.12-19.42-70.75-29.83c-7.4-2.51-14.45-5.99-20.93-10.37c-2.48-1.67-5.87-0.63-6.99,2.15
				c-8.66,21.43-19.8,83.13,11.94,141.67c-6.72,15.33-12.04,31.46-15.77,48.12c-10.14,45.25,9.7,102.93,86.69,102.93
				c46.06,0,98.49-90.85,118.63-90.85s72.57,90.85,118.63,90.85c76.99,0,96.83-57.68,86.69-102.93
				C457.589,284.247,452.269,268.117,445.549,252.787z M194.479,296.317c-130.49,0-96.73-91.14-96.73-91.14s23.98,6.34,57.42,13.05
				C198.549,226.947,194.479,296.317,194.479,296.317z M317.519,296.317c0,0-4.07-69.37,39.31-78.09
				c33.44-6.71,57.42-13.05,57.42-13.05S448.009,296.317,317.519,296.317z"/>
			<path style="fill:#433F43;" d="M445.549,252.787c31.75-58.54,20.6-120.24,11.94-141.67c-1.12-2.78-4.51-3.82-6.99-2.15
				c-6.48,4.38-13.53,7.86-20.93,10.37c-30.63,10.41-53.46,20.17-70.75,29.83c-10.33-6.57-21.14-12.14-32.35-16.66
				c-5.41-2.18-10.89-4.11-16.42-5.78c-14.82,14.42-27.233,43.391-31.033,89.041c-5.24,63.11-26.377,91.579-32.097,101.179
				c3.49-2.52,6.54-3.96,9.08-3.96c20.14,0,72.57,90.85,118.63,90.85c76.99,0,96.83-57.68,86.69-102.93
				C457.589,284.247,452.269,268.117,445.549,252.787z M317.519,296.317c0,0-4.07-69.37,39.31-78.09
				c33.44-6.71,57.42-13.05,57.42-13.05S448.009,296.317,317.519,296.317z"/>
			<g>
				<g>
					<path style="fill:#7A6E79;" d="M206.059,204.287c-8.36-20.32-21.47-37.57-52.88-55.13c-17.29-9.65-40.11-19.41-70.75-29.82
						c-7.41-2.51-14.45-5.99-20.93-10.37c-2.48-1.68-5.87-0.63-6.99,2.15c-8.65,21.44-19.8,83.14,11.94,141.68
						c-6.72,15.31-12.04,31.45-15.77,48.11c-10.14,45.25,9.7,102.93,86.69,102.93c31.69,0,66.4-43.02,91.53-69.85v-24.91
						C228.899,309.077,224.599,249.327,206.059,204.287z M194.479,296.317c-130.49,0-96.73-91.14-96.73-91.14
						s23.98,6.34,57.42,13.05C198.549,226.947,194.479,296.317,194.479,296.317z"/>
				</g>
				<g>
					<path style="fill:#685E67;" d="M228.899,309.077v24.91c-7.96,8.49-16.87,18.61-26.34,28.46l-3.97-39.6
						c0,0-0.98-13.6-4.02-32.71c-0.12-10.61-1.6-32.8-11.05-49.91c-2.26-7.56-4.84-15.05-7.77-22.17
						c-8.36-20.32-21.47-37.57-52.88-55.13c-17.29-9.65-40.11-19.41-70.75-29.82c-1.16-0.39-2.31-0.81-3.44-1.25
						c1.71-8.7,3.84-15.8,5.83-20.74c1.12-2.78,4.51-3.83,6.99-2.15c6.48,4.38,13.52,7.86,20.93,10.37
						c30.64,10.41,53.46,20.17,70.75,29.82c31.41,17.56,44.52,34.81,52.88,55.13C224.599,249.327,228.899,309.077,228.899,309.077z"
						/>
				</g>
				<g>
					<path style="fill:#7A6E79;" d="M445.549,252.798c31.74-58.54,20.6-120.24,11.94-141.68c-1.12-2.78-4.51-3.83-6.99-2.15
						c-6.48,4.38-13.52,7.86-20.93,10.37c-30.64,10.41-53.46,20.17-70.75,29.82c-31.41,17.56-44.52,34.81-52.88,55.13
						c-18.54,45.04-22.84,104.79-22.84,104.79v24.91c25.13,26.83,59.85,69.85,91.53,69.85c76.99,0,96.83-57.68,86.69-102.93
						C457.589,284.247,452.269,268.107,445.549,252.798z M317.519,296.317c0,0-4.07-69.37,39.31-78.09
						c33.44-6.71,57.42-13.05,57.42-13.05S448.009,296.317,317.519,296.317z"/>
				</g>
				<g>
					<path style="fill:#685E67;" d="M461.319,300.907c10.14,45.25-9.7,102.93-86.69,102.93c-3.87,0-7.79-0.64-11.73-1.82
						c58.48-10.12,73.43-60.6,64.35-101.11c-3.48-15.56-8.36-30.68-14.47-45.08c2.26-4.91,3.67-9.9,4.48-14.74
						c21.38-47.89,16.29-95.95,9.27-120.71c1-0.35,2.02-0.69,3.04-1.04c7.41-2.51,14.45-5.99,20.93-10.37
						c2.48-1.68,5.87-0.63,6.99,2.15c8.66,21.44,19.8,83.14-11.94,141.68C452.269,268.107,457.589,284.247,461.319,300.907z"/>
				</g>
			</g>
			<g>
				<path style="fill:#F8B1B2;" d="M280.742,309.079c8.385,0,14.396,8.081,12.006,16.119c-5.746,19.326-20.555,33.086-37.925,33.086
					c-17.37,0-32.179-13.76-37.925-33.086c-2.39-8.038,3.62-16.119,12.006-16.119L280.742,309.079z"/>
				<path style="fill:#F59697;" d="M292.742,325.198c2.393-8.038-3.618-16.121-12.001-16.114l-4.583,0.007
					c-7.137,14.51-19.891,24.148-34.445,24.152c-9.595,0.016-18.406-4.19-25.331-11.215c0.035,1.047,0.198,2.105,0.515,3.163
					c5.75,19.328,20.547,33.09,37.92,33.093C272.191,358.289,286.996,344.521,292.742,325.198z"/>
			</g>
		</g>
	</g>
	<g>
		<path d="M362.02,155.931c5.019-2.805,11.074-5.878,17.094-8.703c3.75-1.76,5.363-6.227,3.603-9.976
			c-1.76-3.75-6.228-5.361-9.976-3.603c-4.831,2.268-9.416,4.56-13.681,6.839c-9.58-5.807-19.58-10.824-29.783-14.938
			c-17.827-7.188-36.451-11.717-55.354-13.462c-4.126-0.373-7.777,2.654-8.158,6.779s2.654,7.777,6.779,8.158
			c17.45,1.611,34.651,5.795,51.124,12.438c6.952,2.803,13.802,6.068,20.476,9.738c-22.668,14.546-36.091,30.237-45.143,52.23
			c-15.159,36.828-21.041,83.457-22.751,100.15h-40.502c-1.71-16.693-7.593-63.322-22.751-100.15
			c-9.052-21.992-22.474-37.684-45.142-52.23c6.675-3.67,13.525-6.935,20.475-9.737c16.204-6.534,33.105-10.692,50.235-12.359
			c4.123-0.401,7.14-4.069,6.738-8.191s-4.061-7.135-8.191-6.738c-18.557,1.806-36.857,6.307-54.392,13.377
			c-10.201,4.114-20.2,9.13-29.781,14.938c-17.609-9.421-39.947-18.685-68.099-28.248c-6.82-2.316-13.259-5.506-19.139-9.481
			c-3.065-2.072-6.852-2.642-10.392-1.562c-3.542,1.081-6.369,3.671-7.757,7.108c-4.768,11.809-9.827,33.71-9.724,59.763
			c0.056,14.224,1.667,28.26,4.719,41.815c-10.294,1.887-19.79,6.832-27.32,14.362C5.408,234.065,0,247.117,0,260.999
			c0,24.784,17.654,45.899,41.306,50.853c-1.202,11.54-0.541,23.078,2,33.931c0.81,3.458,3.891,5.792,7.296,5.792
			c0.566,0,1.141-0.064,1.716-0.199c4.033-0.944,6.537-4.979,5.593-9.012c-2.955-12.62-2.926-26.388,0.083-39.817
			c3.588-16.016,8.745-31.742,15.327-46.741c0.931-2.121,0.83-4.553-0.275-6.589c-29.504-54.402-20.082-110.875-12.772-132.102
			c6.163,3.835,12.788,6.966,19.741,9.328c29.398,9.987,52.586,19.775,69.957,29.484c31.749,17.952,42.638,35.381,49.153,51.211
			c14.474,35.166,20.099,80.221,21.716,96.118c-3.117,1.367-5.866,3.533-7.986,6.375c-3.822,5.124-4.969,11.577-3.147,17.705
			c1.205,4.053,2.767,7.865,4.623,11.406c-0.295,0.324-0.582,0.637-0.879,0.962c-21.813,23.901-51.686,56.635-76.083,56.635
			c-29.186,0-51.18-8.51-65.374-25.293c-2.674-3.162-7.407-3.559-10.569-0.883c-3.163,2.674-3.559,7.407-0.884,10.57
			c16.933,20.023,43.5,30.606,76.827,30.606c30.465,0,61.039-32.91,85.822-60.056c8.576,9.125,19.752,14.501,31.632,14.501
			c12.428,0,24.084-5.886,32.799-15.789c24.997,27.398,56.059,61.344,87.008,61.344c43.279,0,66.388-17.515,78.152-32.208
			c14.154-17.677,20.523-42.138,17.909-67.269c9.818-2.053,18.896-6.934,26.078-14.117c9.822-9.809,15.23-22.859,15.23-36.747
			c0-13.661-5.257-26.564-14.804-36.331c-7.599-7.775-17.247-12.87-27.748-14.789c3.052-13.554,4.664-27.59,4.72-41.813
			c0.104-26.058-4.955-47.959-9.725-59.769c-1.386-3.428-4.209-6.014-7.746-7.096c-3.536-1.083-7.322-0.518-10.397,1.554
			c-5.892,3.982-12.331,7.172-19.142,9.482c-7.48,2.54-14.669,5.104-21.366,7.621c-3.877,1.457-5.839,5.781-4.382,9.659
			c1.457,3.878,5.781,5.839,9.659,4.382c6.548-2.46,13.584-4.97,20.91-7.458c6.949-2.356,13.578-5.49,19.746-9.328
			c7.311,21.228,16.731,77.692-12.777,132.1c-1.104,2.037-1.206,4.469-0.274,6.59c6.585,15,11.742,30.728,15.329,46.746
			c5.598,24.981,0.765,50.105-12.928,67.206c-13.925,17.391-36.901,26.583-66.443,26.583c-24.42,0-54.319-32.771-76.15-56.699
			c-0.784-0.859-1.559-1.708-2.329-2.552c1.491-3.067,2.767-6.324,3.786-9.753c1.822-6.128,0.676-12.581-3.146-17.705
			c-1.597-2.141-3.553-3.893-5.751-5.215c1.453-14.755,6.99-61.22,21.832-97.278C319.388,191.307,330.269,173.882,362.02,155.931z
			 M43.876,297.068C27.307,293.357,15,278.456,15,260.999c0-9.875,3.848-19.161,10.833-26.147
			c5.643-5.643,12.836-9.246,20.608-10.414c3.1,9.945,7.002,19.554,11.704,28.684C52.153,267.298,47.372,282.057,43.876,297.068z
			 M254.823,350.784c-13.454,0-25.806-11.142-30.736-27.724c-0.459-1.545-0.17-3.171,0.792-4.461c0.563-0.754,1.833-2.02,4.024-2.02
			h51.838c2.191,0,3.462,1.266,4.025,2.02c0.963,1.291,1.251,2.917,0.792,4.461C280.629,339.642,268.277,350.784,254.823,350.784z
			 M468.119,297.064c-3.494-15.011-8.276-29.769-14.27-43.945c4.701-9.126,8.602-18.733,11.701-28.674
			c17.713,2.71,31.45,18.22,31.45,36.554c0,9.877-3.846,19.158-10.834,26.137C481.177,292.126,474.905,295.546,468.119,297.064z"/>
		<path d="M201.966,296.76c0.182-3.098,3.888-75.993-45.318-85.881c-27.172-5.46-48.249-10.712-54.826-12.391l-5.649-7.52
			c-2.489-3.312-7.189-3.98-10.501-1.492c-3.312,2.488-3.979,7.189-1.492,10.501l5.195,6.915
			c-2.862,10.469-7.98,37.913,8.375,61.412c16.401,23.566,48.946,35.515,96.729,35.515
			C198.45,303.821,201.733,300.725,201.966,296.76z M110.131,259.837c-11.297-16.141-9.23-35.655-7.094-45.578
			c9.615,2.383,28.079,6.789,50.656,11.325c28.975,5.823,32.948,46.41,33.341,63.132
			C148.645,287.625,122.791,277.924,110.131,259.837z"/>
		<path d="M221.539,141.618c-4.015,1.021-6.442,5.102-5.422,9.116l5.045,19.854c0.863,3.395,3.914,5.655,7.264,5.655
			c0.611,0,1.233-0.076,1.853-0.233c4.015-1.021,6.442-5.102,5.422-9.116l-5.045-19.854
			C229.635,143.026,225.554,140.598,221.539,141.618z"/>
		<path d="M283.575,176.243c3.349,0,6.401-2.26,7.264-5.655l5.045-19.854c1.02-4.015-1.407-8.096-5.422-9.116
			c-4.016-1.019-8.096,1.408-9.116,5.422l-5.045,19.854c-1.02,4.015,1.407,8.096,5.422,9.116
			C282.342,176.168,282.963,176.243,283.575,176.243z"/>
		<path d="M256,176.242c4.142,0,7.5-3.358,7.5-7.5v-22.55c0-4.142-3.358-7.5-7.5-7.5s-7.5,3.358-7.5,7.5v22.55
			C248.5,172.884,251.858,176.242,256,176.242z"/>
		<path d="M426.048,189.476c-3.312-2.487-8.013-1.819-10.501,1.492l-5.715,7.608c-6.953,1.771-27.76,6.933-54.481,12.303
			c-49.206,9.888-45.5,82.783-45.318,85.881c0.233,3.965,3.516,7.061,7.487,7.061c47.783,0,80.327-11.949,96.729-35.515
			c16.496-23.702,11.147-51.423,8.301-61.685l4.99-6.643C430.027,196.666,429.359,191.964,426.048,189.476z M401.866,259.837
			c-12.659,18.086-38.513,27.788-76.902,28.88c0.393-16.723,4.367-57.31,33.341-63.132c22.574-4.536,41.039-8.941,50.655-11.325
			C411.098,224.191,413.161,243.701,401.866,259.837z"/>
		<path d="M414.037,304.091c-1.204-3.963-5.395-6.198-9.356-4.996l-38.355,11.653c-3.963,1.204-6.2,5.394-4.996,9.356
			c0.983,3.237,3.958,5.322,7.173,5.322c0.722,0,1.457-0.105,2.183-0.326l38.355-11.653
			C413.004,312.243,415.241,308.054,414.037,304.091z"/>
		<path d="M371.033,358.371c-4.061-0.839-8.023,1.776-8.859,5.833c-0.836,4.057,1.776,8.023,5.833,8.859l28.439,5.857
			c0.511,0.105,1.02,0.156,1.521,0.156c3.484,0,6.607-2.442,7.338-5.988c0.836-4.057-1.776-8.023-5.833-8.859L371.033,358.371z"/>
		<path d="M408.991,341.542c0-4.142-3.358-7.5-7.5-7.5h-29.108c-4.142,0-7.5,3.358-7.5,7.5s3.358,7.5,7.5,7.5h29.108
			C405.633,349.042,408.991,345.684,408.991,341.542z"/>
		<path d="M155.812,310.748l-38.355-11.653c-3.958-1.202-8.152,1.033-9.356,4.996c-1.204,3.963,1.033,8.152,4.996,9.356
			l38.355,11.653c0.727,0.221,1.46,0.326,2.183,0.326c3.215,0,6.19-2.085,7.173-5.322
			C162.012,316.142,159.775,311.952,155.812,310.748z"/>
		<path d="M124.171,379.076c0.501,0,1.01-0.051,1.521-0.156l28.439-5.857c4.057-0.835,6.668-4.802,5.833-8.859
			c-0.835-4.057-4.801-6.669-8.859-5.833l-28.439,5.857c-4.057,0.835-6.668,4.802-5.833,8.859
			C117.563,376.634,120.687,379.076,124.171,379.076z"/>
		<path d="M149.754,349.042c4.142,0,7.5-3.358,7.5-7.5s-3.358-7.5-7.5-7.5h-29.108c-4.142,0-7.5,3.358-7.5,7.5s3.358,7.5,7.5,7.5
			H149.754z"/>
	</g>
</g>
<g>
</g>
<g>
</g>
<g>
</g>
<g>
</g>
<g>
</g>
<g>
</g>
<g>
</g>
<g>
</g>
<g>
</g>
<g>
</g>
<g>
</g>
<g>
</g>
<g>
</g>
<g>
</g>
<g>
</g>
</svg>
