<?xml version="1.0" encoding="iso-8859-1"?>
<!-- Generator: Adobe Illustrator 24.0.2, SVG Export Plug-In . SVG Version: 6.00 Build 0)  -->
<svg version="1.1" id="Capa_1" xmlns="http://www.w3.org/2000/svg" xmlns:xlink="http://www.w3.org/1999/xlink" x="0px" y="0px"
	 viewBox="0 0 512 512" style="enable-background:new 0 0 512 512;" xml:space="preserve">
<g>
	<g>
		<g>
			<g>
				<rect x="422.018" y="261.75" style="fill:#685E67;" width="35.489" height="65.418"/>
				<g>
					<path style="fill:#CBC5CB;" d="M494.793,346.056h-30.831c-5.361,0-9.707-4.346-9.707-9.707v-83.78
						c0-5.361,4.346-9.707,9.707-9.707h30.831c5.361,0,9.707,4.346,9.707,9.707v83.78C504.5,341.71,500.154,346.056,494.793,346.056
						z"/>
					<path style="fill:#B5ADB6;" d="M504.5,252.566v83.78c0,5.36-4.35,9.71-9.71,9.71h-27.51c5.36,0,9.71-4.35,9.71-9.71v-83.78
						c0-5.36-4.35-9.7-9.71-9.7h27.51C500.15,242.866,504.5,247.206,504.5,252.566z"/>
				</g>
			</g>
			<g>
				
					<rect x="54.494" y="261.75" transform="matrix(-1 -4.484869e-11 4.484869e-11 -1 144.4757 588.9183)" style="fill:#685E67;" width="35.489" height="65.418"/>
				<g>
					<path style="fill:#CBC5CB;" d="M17.207,346.056h30.831c5.361,0,9.707-4.346,9.707-9.707v-83.78
						c0-5.361-4.346-9.707-9.707-9.707H17.207c-5.361,0-9.707,4.346-9.707,9.707v83.78C7.5,341.71,11.846,346.056,17.207,346.056z"
						/>
					<path style="fill:#B5ADB6;" d="M57.75,252.566v83.78c0,5.36-4.35,9.71-9.71,9.71h-27.5c5.36,0,9.71-4.35,9.71-9.71v-83.78
						c0-5.36-4.35-9.7-9.71-9.7h27.5C53.4,242.866,57.75,247.206,57.75,252.566z"/>
				</g>
			</g>
		</g>
		<g>
			<path style="fill:#23F1A8;" d="M84.75,147.966v230.85c0,12.84,5.2,24.46,13.61,32.88c8.42,8.41,20.04,13.61,32.88,13.61
				c9.48,0,18.74-2.9,26.52-8.32c23.91-16.66,59.06-27.18,98.24-27.18s74.33,10.52,98.24,27.18c3.89,2.71,8.15,4.79,12.62,6.19
				c4.48,1.4,9.16,2.13,13.9,2.13c25.68,0,46.49-20.81,46.49-46.49v-230.85H84.75z M213.48,326.846c0,23.79-19.28,43.08-43.08,43.08
				c-23.79,0-43.07-19.29-43.07-43.08v-20.3c0-5.88,4.77-10.65,10.65-10.65h64.85c5.88,0,10.65,4.77,10.65,10.65V326.846z
				 M384.67,326.846c0,23.79-19.28,43.08-43.07,43.08c-23.8,0-43.08-19.29-43.08-43.08v-20.3c0-5.88,4.77-10.65,10.65-10.65h64.85
				c5.88,0,10.65,4.77,10.65,10.65V326.846z"/>
			<path style="fill:#26D192;" d="M84.75,147.966v61.1c5.32,4.33,12.05,6.78,18.99,6.78c7.61,0,14.82-2.83,20.38-7.99
				c5.6,6.02,13.53,9.57,21.98,9.57c7.45,0,14.6-2.76,20.13-7.78l9.02-8.17c5.03,3.64,11.14,5.67,17.58,5.67
				c5.21,0,10.24-1.35,14.67-3.83l0.54,0.84c5.54,8.65,14.99,13.81,25.26,13.81c8.82,0,17.04-3.82,22.7-10.38
				c5.66,6.56,13.88,10.38,22.7,10.38c10.27,0,19.72-5.16,25.26-13.81l0.54-0.84c4.43,2.48,9.46,3.83,14.67,3.83
				c6.44,0,12.55-2.03,17.58-5.67l9.02,8.17c5.53,5.02,12.68,7.78,20.13,7.78c0.085,0,0.17,0,0.257-0.001
				c18.494-0.172,33.633,14.657,33.633,33.152v128.239c0,20.89-13.77,38.55-32.72,44.42c4.42,1.36,9.02,2.07,13.69,2.07
				c25.68,0,46.49-20.81,46.49-46.49v-230.85H84.75z"/>
		</g>
		<g>
			<path style="fill:#704545;" d="M419.65,86.693H92.35c-11.113,0-20.466,8.319-21.762,19.356l-5.925,50.451
				c-0.834,7.099,5.834,12.755,12.703,10.775l6.488-1.871c0,0,1.801,13.139,11.853,26.437c3.632,4.805,10.634,5.389,14.965,1.202
				l17.692-17.101l8.956,16.296c3.111,5.661,10.694,6.931,15.48,2.593l25-22.663l6.594,10.347c3.612,5.668,11.676,6.23,16.039,1.118
				l10.404-12.189l14.044,21.917c3.916,6.112,12.835,6.146,16.798,0.064L256,171.445l14.322,21.981
				c3.963,6.082,12.882,6.048,16.798-0.064l14.044-21.917l10.404,12.189c4.364,5.112,12.427,4.55,16.039-1.118l6.594-10.347
				l25,22.663c4.786,4.339,12.369,3.069,15.48-2.593l8.956-16.296l17.692,17.101c4.331,4.186,11.333,3.603,14.965-1.202
				c10.052-13.298,11.853-26.437,11.853-26.437l6.488,1.871c6.868,1.981,13.536-3.675,12.703-10.775l-5.925-50.451
				C440.116,95.012,430.763,86.693,419.65,86.693z"/>
			<path style="fill:#593637;" d="M434.63,167.276l-6.48-1.87c0,0-1.8,13.14-11.86,26.44c-3.63,4.8-10.63,5.38-14.96,1.2
				l-17.69-17.1l-8.96,16.29c-3.11,5.67-10.69,6.94-15.48,2.6l-25-22.67l-6.59,10.35c-3.61,5.67-11.68,6.23-16.04,1.12l-10.41-12.19
				l-14.04,21.92c-3.92,6.11-12.84,6.14-16.8,0.06L256,171.446l-14.32,21.98c-3.96,6.08-12.88,6.05-16.8-0.06l-14.04-21.92
				l-10.41,12.19c-4.36,5.11-12.43,4.55-16.04-1.12l-6.59-10.35l-25,22.67c-4.79,4.34-12.37,3.07-15.48-2.6l-8.96-16.29l-17.69,17.1
				c-4.33,4.18-11.33,3.6-14.96-1.2c-10.06-13.3-11.86-26.44-11.86-26.44l-6.48,1.87c-6.87,1.98-13.54-3.68-12.71-10.78l2.29-19.45
				c2.41,2.86,6.38,4.33,10.42,3.17h0c3.395-0.98,6.936,0.946,7.973,4.324c1.557,5.074,4.609,12.633,10.367,20.246
				c3.63,4.8,10.63,5.38,14.96,1.2l11.61-11.223c3.063-2.961,8.102-2.2,10.155,1.532l4.885,8.881c3.11,5.66,10.69,6.93,15.48,2.6
				l19.323-17.522c2.967-2.691,7.642-2.062,9.794,1.317l2.474,3.885c3.61,5.67,11.68,6.23,16.04,1.12l4.752-5.564
				c2.817-3.298,8.018-2.941,10.358,0.711l9.341,14.583c3.92,6.11,12.84,6.14,16.8,0.06l8.905-13.668
				c2.55-3.914,8.281-3.914,10.831,0l8.905,13.668c3.96,6.08,12.88,6.05,16.8-0.06l9.341-14.583
				c2.339-3.652,7.541-4.01,10.358-0.711l4.752,5.564c4.36,5.11,12.43,4.55,16.04-1.12l2.474-3.885
				c2.151-3.379,6.826-4.007,9.794-1.317l19.323,17.522c4.79,4.33,12.37,3.06,15.48-2.6l4.885-8.881
				c2.053-3.733,7.092-4.493,10.155-1.532l11.61,11.223c4.33,4.18,11.33,3.6,14.96-1.2c5.758-7.612,8.81-15.172,10.367-20.246
				c1.037-3.378,4.578-5.304,7.973-4.324l0,0c4.04,1.16,8.01-0.31,10.42-3.17l2.29,19.45
				C448.17,163.596,441.5,169.256,434.63,167.276z"/>
		</g>
		<g>
			<path d="M501.745,236.842c-2.586-26.259-24.792-46.844-51.72-46.844H434.75v-15.038c4.981,0.769,10.072-0.637,13.975-3.948
				c4.48-3.8,6.746-9.552,6.06-15.386l-5.925-50.452c-1.739-14.812-14.297-25.981-29.211-25.981h-47.088c-4.142,0-7.5,3.358-7.5,7.5
				s3.358,7.5,7.5,7.5h47.088c7.308,0,13.461,5.473,14.313,12.73l5.925,50.452c0.136,1.158-0.484,1.874-0.866,2.198
				c-0.381,0.324-1.189,0.818-2.311,0.495l-6.488-1.871c-2.081-0.599-4.321-0.253-6.142,0.919c-1.82,1.173-3.047,3.093-3.362,5.235
				c-0.017,0.114-1.773,11.541-10.41,22.968c-0.613,0.81-1.425,0.987-1.854,1.021c-0.511,0.043-1.252-0.048-1.915-0.688
				l-17.692-17.101c-1.681-1.625-4.023-2.371-6.333-2.023c-2.311,0.349-4.327,1.756-5.453,3.804l-8.956,16.296
				c-0.508,0.924-1.332,1.187-1.778,1.262c-0.445,0.075-1.312,0.094-2.092-0.613l-25-22.663c-1.637-1.484-3.844-2.171-6.035-1.876
				c-2.19,0.294-4.139,1.539-5.327,3.402l-6.594,10.346c-0.589,0.925-1.465,1.118-1.935,1.15c-0.47,0.032-1.364-0.038-2.075-0.871
				l-10.405-12.189c-1.542-1.807-3.854-2.773-6.217-2.613c-2.369,0.162-4.521,1.437-5.803,3.436l-14.044,21.917
				c-0.639,0.997-1.587,1.149-2.095,1.151c-0.55-0.025-1.458-0.143-2.104-1.135l-14.322-21.981
				c-1.384-2.125-3.748-3.406-6.284-3.406s-4.9,1.281-6.284,3.406l-14.322,21.981c-0.646,0.992-1.634,1.107-2.104,1.135
				c-0.508-0.002-1.457-0.154-2.095-1.151l-14.044-21.917c-1.281-2-3.434-3.274-5.803-3.436c-2.365-0.162-4.675,0.807-6.217,2.613
				l-10.405,12.189c-0.711,0.833-1.61,0.902-2.075,0.871c-0.47-0.033-1.346-0.226-1.935-1.15l-6.594-10.346
				c-1.188-1.863-3.136-3.108-5.327-3.402c-2.19-0.296-4.399,0.392-6.035,1.876l-25,22.663c-0.78,0.708-1.647,0.688-2.092,0.613
				c-0.446-0.075-1.271-0.338-1.778-1.262l-8.956-16.296c-1.125-2.048-3.142-3.455-5.453-3.804
				c-2.309-0.347-4.652,0.399-6.333,2.023l-17.692,17.101c-0.663,0.64-1.405,0.732-1.915,0.688c-0.43-0.033-1.242-0.21-1.854-1.021
				c-8.637-11.427-10.394-22.854-10.405-22.934c-0.296-2.157-1.515-4.08-3.34-5.268s-4.077-1.524-6.168-0.92l-6.489,1.871
				c-1.121,0.321-1.928-0.172-2.31-0.496c-0.382-0.324-1.001-1.04-0.866-2.198l5.925-50.452c0.852-7.257,7.006-12.73,14.313-12.73
				h244.815c4.142,0,7.5-3.358,7.5-7.5s-3.358-7.5-7.5-7.5H92.351c-14.914,0-27.472,11.169-29.211,25.981l-5.925,50.451
				c-0.686,5.834,1.58,11.586,6.06,15.387c3.904,3.311,8.994,4.717,13.975,3.948v15.038H61.975
				c-26.927,0-49.134,20.585-51.72,46.844C4.223,239.519,0,245.556,0,252.569v83.78c0,9.488,7.719,17.207,17.207,17.207h30.832
				c9.488,0,17.207-7.719,17.207-17.207v-1.681H77.25v44.152c0,29.768,24.218,53.986,53.986,53.986
				c11.083,0,21.738-3.342,30.81-9.664c23.563-16.419,57.808-25.836,93.954-25.836s70.39,9.417,93.953,25.836
				c9.073,6.322,19.727,9.664,30.811,9.664c29.768,0,53.986-24.218,53.986-53.986v-44.152h12.004v1.681
				c0,9.488,7.719,17.207,17.207,17.207h30.832c9.488,0,17.207-7.719,17.207-17.207v-83.78
				C512,245.556,507.777,239.519,501.745,236.842z M450.025,204.999c18.131,0,33.244,13.121,36.371,30.364h-22.435
				c-9.488,0-17.207,7.719-17.207,17.207v1.681H434.75v-49.251H450.025z M102.382,203.295c4.982,0.385,9.907-1.383,13.502-4.858
				l10.634-10.279l4.229,7.694c2.595,4.722,7.131,7.941,12.446,8.831c5.316,0.892,10.653-0.675,14.644-4.294l18.415-16.693
				l1.817,2.851c3.013,4.728,7.949,7.663,13.542,8.053c5.594,0.392,10.887-1.833,14.527-6.096l3.84-4.499l8.589,13.404
				c3.219,5.023,8.702,8.036,14.668,8.059c5.99,0.004,11.472-2.948,14.728-7.947L256,185.184l8.038,12.336
				c3.245,4.98,8.721,7.947,14.661,7.947c0.022,0,0.045,0,0.067,0c5.966-0.023,11.45-3.035,14.668-8.059l8.589-13.404l3.84,4.499
				c3.639,4.264,8.932,6.484,14.527,6.096c5.593-0.39,10.528-3.325,13.542-8.053l1.817-2.851l18.415,16.693
				c3.992,3.619,9.328,5.188,14.644,4.294c5.314-0.89,9.851-4.109,12.446-8.831l4.229-7.694l10.634,10.279
				c3.594,3.474,8.511,5.245,13.502,4.858c3.77-0.293,7.314-1.798,10.132-4.235v23.956h-20.42v-1.043c0-4.142-3.358-7.5-7.5-7.5
				s-7.5,3.358-7.5,7.5v1.043h-37.188v-1.043c0-4.142-3.358-7.5-7.5-7.5s-7.5,3.358-7.5,7.5v1.043h-97.32v-1.043
				c0-4.142-3.358-7.5-7.5-7.5s-7.5,3.358-7.5,7.5v1.043h-15.691v-1.043c0-4.142-3.358-7.5-7.5-7.5s-7.5,3.358-7.5,7.5v1.043
				h-55.814v-1.043c0-4.142-3.358-7.5-7.5-7.5s-7.5,3.358-7.5,7.5v1.043H92.25V199.06
				C95.068,201.498,98.612,203.003,102.382,203.295z M61.975,204.999H77.25v49.251H65.246v-1.681
				c0-9.488-7.719-17.207-17.207-17.207H25.604C28.731,218.12,43.844,204.999,61.975,204.999z M65.246,319.668v-10.206
				c0-4.142-3.358-7.5-7.5-7.5s-7.5,3.358-7.5,7.5v26.887c0,1.217-0.99,2.207-2.207,2.207H17.207c-1.217,0-2.207-0.99-2.207-2.207
				v-83.78c0-1.217,0.99-2.207,2.207-2.207h30.832c1.217,0,2.207,0.99,2.207,2.207v21.498c0,4.142,3.358,7.5,7.5,7.5
				s7.5-3.358,7.5-7.5v-4.817H77.25v50.418H65.246z M203.996,388.633c-19.038,4.864-36.551,12.465-50.525,22.203
				c-6.544,4.56-14.232,6.971-22.234,6.971c-21.497,0-38.986-17.489-38.986-38.986V238.017h26.067v4.845c0,4.142,3.358,7.5,7.5,7.5
				s7.5-3.358,7.5-7.5v-4.845h55.814v4.845c0,4.142,3.358,7.5,7.5,7.5s7.5-3.358,7.5-7.5v-4.845h15.691v4.845
				c0,4.142,3.358,7.5,7.5,7.5s7.5-3.358,7.5-7.5v-4.845h97.32v4.845c0,4.142,3.358,7.5,7.5,7.5s7.5-3.358,7.5-7.5v-4.845h37.188
				v4.845c0,4.142,3.358,7.5,7.5,7.5s7.5-3.358,7.5-7.5v-4.845h20.42V378.82c0,21.497-17.489,38.986-38.986,38.986
				c-8.002,0-15.69-2.411-22.235-6.971c-13.974-9.737-31.487-17.339-50.524-22.203c-36.635-11.688-31.131-77.68-31.044-78.657
				c0.383-4.125-2.649-7.779-6.773-8.162c-4.127-0.384-7.779,2.649-8.162,6.773c-0.227,2.448-4.022,46.883,15.404,74.767
				c-7.043-0.692-14.205-1.048-21.429-1.048c-7.224,0-14.386,0.357-21.429,1.048c19.426-27.884,15.631-72.319,15.404-74.767
				c-0.383-4.125-4.043-7.155-8.162-6.773c-4.124,0.383-7.157,4.038-6.773,8.162C235.102,310.644,240.82,376.884,203.996,388.633z
				 M434.75,319.668V269.25h12.004v50.418H434.75z M497,336.349c0,1.217-0.99,2.207-2.207,2.207h-30.832
				c-1.217,0-2.207-0.99-2.207-2.207v-83.78c0-1.217,0.99-2.207,2.207-2.207h30.832c1.217,0,2.207,0.99,2.207,2.207V336.349z"/>
			<path d="M227.515,268.533c-4.142,0-7.5,3.358-7.5,7.5c0,6.814-5.544,12.358-12.358,12.358c0,0-4.827,0-4.827,0s0,0,0,0h-67.973
				c-6.815,0-12.359-5.544-12.359-12.358c0-4.142-3.358-7.5-7.5-7.5s-7.5,3.358-7.5,7.5c0,10.102,5.508,18.937,13.675,23.675
				c-0.863,2.113-1.348,4.419-1.348,6.839v20.3c0,27.89,22.69,50.58,50.58,50.58c27.89,0,50.58-22.69,50.58-50.58v-20.3
				c0-2.131-0.388-4.168-1.065-6.069c8.943-4.505,15.096-13.767,15.096-24.445C235.015,271.891,231.657,268.533,227.515,268.533z
				 M205.985,326.847c0,19.619-15.961,35.58-35.58,35.58c-19.619,0-35.58-15.961-35.58-35.58v-20.3c0-1.74,1.415-3.155,3.155-3.155
				h64.85c1.74,0,3.155,1.416,3.155,3.155V326.847z"/>
			<path d="M397.002,268.533c-4.142,0-7.5,3.358-7.5,7.5c0,6.814-5.544,12.358-12.359,12.358h-72.8
				c-6.814,0-12.358-5.544-12.358-12.358c0-4.142-3.358-7.5-7.5-7.5s-7.5,3.358-7.5,7.5c0,10.678,6.153,19.94,15.096,24.445
				c-0.677,1.901-1.065,3.938-1.065,6.069v20.301c0,27.89,22.69,50.58,50.58,50.58c7.061,0,13.911-1.439,20.359-4.278
				c3.791-1.669,5.511-6.095,3.842-9.886s-6.096-5.51-9.886-3.842c-4.532,1.995-9.349,3.007-14.315,3.007
				c-19.619,0-35.58-15.961-35.58-35.58v-20.301c0-1.74,1.416-3.155,3.155-3.155h64.85c1.74,0,3.155,1.416,3.155,3.155v20.301
				c0,3.683-0.564,7.321-1.678,10.814c-1.258,3.947,0.922,8.166,4.869,9.423c3.948,1.257,8.165-0.923,9.423-4.869
				c1.583-4.968,2.386-10.139,2.386-15.369v-20.301c0-2.42-0.485-4.726-1.348-6.839c8.167-4.739,13.675-13.573,13.675-23.675
				C404.502,271.891,401.144,268.533,397.002,268.533z"/>
		</g>
	</g>
</g>
<g>
</g>
<g>
</g>
<g>
</g>
<g>
</g>
<g>
</g>
<g>
</g>
<g>
</g>
<g>
</g>
<g>
</g>
<g>
</g>
<g>
</g>
<g>
</g>
<g>
</g>
<g>
</g>
<g>
</g>
</svg>
