<?xml version="1.0" encoding="iso-8859-1"?>
<!-- Generator: Adobe Illustrator 24.0.2, SVG Export Plug-In . SVG Version: 6.00 Build 0)  -->
<svg version="1.1" id="Capa_1" xmlns="http://www.w3.org/2000/svg" xmlns:xlink="http://www.w3.org/1999/xlink" x="0px" y="0px"
	 viewBox="0 0 512 512" style="enable-background:new 0 0 512 512;" xml:space="preserve">
<g>
	<g>
		<g>
			<g>
				<g>
					<path style="fill:#E1DDE1;" d="M419.035,312.078V211.5l45.514-43.956c4.935-4.766,13.168-2.403,14.834,4.252
						C489.046,210.381,506.243,312.078,419.035,312.078z"/>
					<path style="fill:#CBC5CB;" d="M419.033,312.075v-3.792c54.422-17.833,44.043-94.281,35.536-131.103l9.979-9.634
						c4.938-4.77,13.165-2.404,14.833,4.249C489.043,210.378,506.242,312.075,419.033,312.075z"/>
					<path style="fill:#F17D7E;" d="M419.035,288.015v-28.751c8.829-14.309,23.569-47.937,39.891-44.034
						C480.879,220.469,458.548,283.169,419.035,288.015z"/>
				</g>
				<g>
					<path style="fill:#E1DDE1;" d="M92.965,312.078V211.5l-45.514-43.956c-4.935-4.766-13.168-2.403-14.834,4.252
						C22.954,210.381,5.757,312.078,92.965,312.078z"/>
					<path style="fill:#CBC5CB;" d="M92.967,211.496v100.58c-26.703,0-43.614-9.532-53.956-23.871
						c11.423-9.075,19.706-35.955,19.706-67.699c0-19.492-3.121-37.148-8.181-49.978L92.967,211.496z"/>
					<g>
						<path style="fill:#F17D7E;" d="M92.965,288.015v-28.751c-8.829-14.309-23.569-47.937-39.891-44.034
							C31.121,220.469,53.452,283.169,92.965,288.015z"/>
						<path style="fill:#FB6672;" d="M92.967,259.265v28.753c-16.724-2.05-30.374-14.47-38.89-28.511
							c2.935-11.19,4.64-24.588,4.64-39.002c0-1.761-0.028-3.503-0.075-5.227C72.711,218.81,85.15,246.603,92.967,259.265z"/>
					</g>
				</g>
			</g>
			<path style="fill:#685E67;" d="M440.37,245.963c-13.976-75.619-91.197-133.46-184.37-133.46
				c-92.306,0-168.959,56.761-183.96,131.345c-1.752,8.702-2.665,17.647-2.665,26.768c0,87.331,83.557,118.506,186.624,118.506
				s186.624-31.175,186.624-118.506C442.624,262.231,441.851,253.994,440.37,245.963z M189.484,343.356l-32.778-4.519
				c-21.104-2.907-39.142-16.65-47.546-36.216l-10.64-24.765c-3.112-7.24,2.199-15.308,10.081-15.308h27.495
				c26.712,0,50.294,17.442,58.112,42.98l7.267,23.74C203.823,336.927,197.432,344.446,189.484,343.356z M413.48,277.856
				l-10.64,24.765c-8.404,19.566-26.442,33.309-47.546,36.216l-32.778,4.519c-7.948,1.09-14.339-6.429-11.991-14.088l7.267-23.74
				c7.817-25.539,31.399-42.98,58.111-42.98h27.495C411.281,262.548,416.592,270.616,413.48,277.856z"/>
			<path style="fill:#554E55;" d="M442.624,270.616c0,62.985-43.456,96.76-106.356,110.689
				c34.586-15.606,58.894-40.856,66.46-78.432c0.037-0.084,0.075-0.168,0.112-0.252l10.64-24.765
				c2.953-6.876-1.696-14.507-8.926-15.252c-0.373-4.034-0.904-8.022-1.593-11.973c-12.178-69.646-72.367-125.019-149.281-138.119
				c0.773-0.009,1.547-0.009,2.32-0.009c93.172,0,170.394,57.841,184.37,133.46C441.851,253.994,442.624,262.231,442.624,270.616z"
				/>
			<path style="fill:#E1DDE1;" d="M440.36,245.963c-10.566-15.401-89.734-123.425-157.946-10.92
				c-5.674,9.364-15.858,15.075-26.806,15.075h-0.279c-11.041,0-21.197-5.833-26.936-15.262
				c-65.631-107.959-141.324-12.094-156.353,8.991c-1.752,8.702-2.665,17.647-2.665,26.768c0,87.331,83.548,118.506,186.624,118.506
				s186.624-31.175,186.624-118.506C442.624,262.231,441.851,253.994,440.36,245.963z M189.484,343.356l-32.778-4.519
				c-21.104-2.907-39.142-16.65-47.546-36.216l-10.64-24.765c-3.112-7.24,2.199-15.308,10.081-15.308h27.495
				c26.712,0,50.294,17.442,58.112,42.98l7.267,23.74C203.823,336.927,197.432,344.446,189.484,343.356z M413.48,277.856
				l-10.64,24.765c-8.404,19.566-26.442,33.309-47.546,36.216l-32.778,4.519c-7.948,1.09-14.339-6.429-11.991-14.088l7.267-23.74
				c7.817-25.539,31.399-42.98,58.111-42.98h27.495C411.281,262.548,416.592,270.616,413.48,277.856z"/>
			<path style="fill:#CBC5CB;" d="M442.624,270.616c0,62.985-43.456,96.76-106.356,110.689
				c34.586-15.606,58.894-40.856,66.46-78.432c0.037-0.084,0.075-0.168,0.112-0.252l10.64-24.765
				c2.926-6.811-1.603-14.367-8.721-15.224c-0.065-0.009-0.14-0.019-0.205-0.028c-0.373-4.034-0.904-8.022-1.593-11.973
				c-3.801-21.746-12.28-42.095-24.495-60.208c31.865,13.808,56.341,47.453,61.894,55.54
				C441.851,253.994,442.624,262.231,442.624,270.616z"/>
		</g>
		<g>
			<path style="fill:#F17D7E;" d="M286.038,363.483l-9.764-109.022c-0.94-10.499-9.738-18.544-20.279-18.544h0
				c-10.541,0-19.339,8.046-20.279,18.545l-9.76,109.022c-0.53,5.918,1.539,11.773,5.669,16.044l14.65,15.151
				c5.315,5.497,14.127,5.497,19.442,0l14.651-15.15C284.499,375.257,286.568,369.401,286.038,363.483z"/>
			<path style="fill:#FB6672;" d="M280.365,379.525l-14.647,15.15c-5.311,5.497-14.125,5.497-19.445,0l-10.501-10.864l14.47-14.964
				c4.137-4.267,6.205-10.128,5.674-16.044l-9.764-109.021c-0.149-1.649-0.494-3.233-1.006-4.742
				c3.149-1.975,6.876-3.121,10.845-3.121c10.547,0,19.343,8.041,20.284,18.541l9.764,109.021
				C286.57,369.398,284.501,375.258,280.365,379.525z"/>
		</g>
		<g>
			<path d="M512,177.532c0-28.656-23.318-51.97-51.98-51.97H349.644c-23.163-10.87-48.852-17.711-75.275-19.826
				c-4.147-0.325-7.744,2.75-8.075,6.877c-0.33,4.129,2.749,7.744,6.878,8.075c66.229,5.302,122.03,40.666,147.38,90.224
				c-17.921-17.446-42.953-34.819-71.029-33.929c-27.517,0.873-52.25,19.099-73.519,54.177c-0.732,1.211-1.584,2.329-2.511,3.38
				c-4.784-3.846-10.868-6.123-17.496-6.123c-6.904,0-13.219,2.469-18.087,6.609c-1.161-1.235-2.202-2.589-3.1-4.071
				c-21.042-34.608-45.483-52.756-72.645-53.941c-27.169-1.192-51.617,14.924-69.598,31.853
				c25.917-48.484,81.295-83.023,146.4-88.191c4.129-0.328,7.211-3.941,6.883-8.07c-0.328-4.129-3.95-7.21-8.07-6.883
				c-27.135,2.154-52.721,9.089-75.541,19.839H51.98c-13.881,0-26.934,5.407-36.75,15.223C5.409,150.594,0,163.644,0,177.532
				c0,15.038,6.364,29.073,17.558,38.951c-1.907,24.973,0.214,52.154,12.93,72.476c9.16,14.639,22.792,24.124,40.511,28.245
				c5.52,12.648,13.529,23.915,24.004,33.712c1.446,1.353,3.286,2.022,5.122,2.022c2.003,0,4.002-0.798,5.479-2.377
				c2.83-3.025,2.671-7.771-0.354-10.601c-18.828-17.608-28.374-40.938-28.374-69.342c0-8.001,0.76-16.009,2.242-23.833
				c0.155-0.174,0.305-0.355,0.446-0.547c9.651-13.141,44.082-55.891,81.947-54.238c21.852,0.953,42.201,16.681,60.476,46.738
				c2.056,3.393,4.57,6.393,7.485,8.982c-0.615,1.934-1.036,3.964-1.225,6.072l-9.76,109.022c-0.56,6.251,1.006,12.437,4.347,17.623
				c-36.464-2.699-66.742-9.998-90.168-21.759c-3.703-1.859-8.209-0.365-10.068,3.337c-1.858,3.702-0.364,8.209,3.337,10.068
				c28.516,14.316,66.011,22.443,111.439,24.176l3.511,3.631c3.996,4.133,9.363,6.409,15.111,6.409c0,0,0.001,0,0.001,0
				c5.749,0,11.115-2.276,15.112-6.408l3.508-3.627c51.945-1.979,93.295-12.257,122.903-30.559
				c20.464-12.649,35.004-28.885,43.539-48.516c17.69-4.129,31.302-13.609,40.452-28.232c12.719-20.326,14.838-47.512,12.93-72.488
				c0.808-0.715,1.59-1.443,2.332-2.185C506.593,204.465,512,191.413,512,177.532z M52.35,225.848
				c0.693-2.899,1.843-3.173,2.462-3.321c2.964-0.703,7.457,2.561,12.503,9c-1.01,3.569-1.892,7.182-2.628,10.84
				c-1.074,5.325-1.832,10.734-2.292,16.175C54.501,246.86,50.548,233.381,52.35,225.848z M15,177.532
				c0-9.877,3.846-19.158,10.833-26.137c6.986-6.986,16.272-10.833,26.147-10.833h83.789
				c-21.023,14.151-38.555,31.954-51.263,52.342L52.66,162.146c-4.265-4.119-10.215-5.602-15.918-3.968
				c-5.701,1.634-9.962,6.044-11.396,11.79c-1.847,7.37-3.804,16.308-5.365,26.113C16.754,190.528,15,184.17,15,177.532z
				 M43.204,281.001c-19.478-31.126-8.803-85.467-3.307-107.393c0.13-0.521,0.459-0.862,0.978-1.01
				c0.52-0.148,0.979-0.035,1.365,0.338l34.715,33.528c-1.435,2.916-2.775,5.876-4.018,8.876
				c-5.398-5.038-12.859-9.497-21.609-7.404c-6.919,1.652-11.737,6.773-13.566,14.421c-3.997,16.706,7.167,43.239,24.526,58.839
				c0.497,6.396,1.447,12.557,2.86,18.468C55.842,295.795,48.605,289.633,43.204,281.001z M449.603,258.544
				c-0.395-4.681-1.01-9.342-1.858-13.945c-0.812-4.393-1.84-8.75-3.069-13.061c5.051-6.447,9.549-9.716,12.512-9.01
				c0.617,0.147,1.768,0.422,2.461,3.321C461.452,233.382,457.498,246.861,449.603,258.544z M289.164,380.435
				c3.339-5.186,4.904-11.371,4.344-17.621l-2.909-32.485c-0.369-4.126-4.022-7.171-8.139-6.801
				c-4.126,0.37-7.171,4.014-6.801,8.139l2.909,32.486c0.336,3.75-0.973,7.455-3.591,10.162l-14.651,15.15
				c-1.145,1.184-2.683,1.836-4.329,1.836c-1.647,0-3.184-0.652-4.329-1.836l-14.65-15.15c-2.618-2.708-3.927-6.411-3.591-10.162
				l9.76-109.022c0.598-6.678,6.104-11.713,12.809-11.713s12.211,5.036,12.81,11.713l3.714,41.472
				c0.369,4.127,4.021,7.17,8.139,6.801c4.126-0.37,7.171-4.014,6.801-8.139l-3.714-41.472c-0.212-2.364-0.712-4.631-1.457-6.773
				c2.534-2.387,4.731-5.089,6.545-8.089c18.466-30.455,39.044-46.253,61.165-46.955c39.882-1.232,75.566,45.994,83.27,56.935
				c1.224,7.15,1.852,14.445,1.852,21.712C435.12,351.079,359.191,375.254,289.164,380.435z M468.796,281.001
				c-5.396,8.624-12.625,14.781-21.918,18.653c1.4-5.901,2.342-12.056,2.834-18.456c17.359-15.6,28.522-42.133,24.526-58.84
				c-1.83-7.648-6.648-12.769-13.566-14.421c-8.774-2.094-16.248,2.391-21.648,7.442c-1.243-2.987-2.59-5.942-4.032-8.863
				l34.767-33.578c0.388-0.373,0.847-0.487,1.367-0.339c0.518,0.148,0.847,0.489,0.979,1.017
				C477.599,195.534,488.273,249.875,468.796,281.001z M486.656,169.975c-1.436-5.753-5.696-10.163-11.397-11.797
				c-5.7-1.634-11.652-0.152-15.919,3.969l-31.894,30.803c-9.985-16.026-23.043-30.683-38.696-43.199
				c-4.029-3.222-8.218-6.285-12.543-9.189h83.813c20.391,0,36.98,16.584,36.98,36.97c0,6.619-1.737,12.969-4.981,18.544
				C490.459,186.276,488.503,177.341,486.656,169.975z"/>
			<path d="M418.823,263.359c-3.429-5.205-9.196-8.312-15.429-8.312H375.9c-30.204,0-56.439,19.404-65.282,48.286l-7.268,23.736
				c-1.856,6.061-0.512,12.56,3.598,17.387c3.55,4.17,8.661,6.502,14.035,6.502c0.847,0,1.7-0.058,2.555-0.176l32.781-4.516
				c23.559-3.246,44.025-18.835,53.412-40.685l10.641-24.764C422.831,275.09,422.253,268.563,418.823,263.359z M406.59,274.896
				l-10.64,24.764c-7.325,17.049-23.295,29.214-41.678,31.747l-32.781,4.516c-1.64,0.223-2.66-0.649-3.121-1.19
				c-0.462-0.542-1.162-1.687-0.678-3.271l7.268-23.736c6.9-22.536,27.372-37.677,50.94-37.677h27.494
				c1.63,0,2.519,0.98,2.903,1.564C406.683,272.196,407.232,273.399,406.59,274.896z"/>
			<path d="M108.605,255.047c-6.232,0-12,3.107-15.429,8.312c-3.429,5.205-4.007,11.731-1.547,17.458l10.639,24.763
				c9.387,21.85,29.854,37.439,53.413,40.685l32.781,4.516c0.854,0.118,1.708,0.176,2.554,0.176c5.374,0,10.486-2.333,14.036-6.502
				c4.109-4.826,5.454-11.326,3.599-17.387l-7.268-23.736c-8.843-28.881-35.078-48.286-65.283-48.286H108.605z M187.04,307.725
				l7.268,23.736c0.485,1.584-0.216,2.73-0.677,3.271s-1.481,1.417-3.122,1.19l-32.781-4.516
				c-18.383-2.533-34.353-14.697-41.677-31.747l-10.639-24.763c-0.644-1.498-0.094-2.701,0.291-3.285s1.273-1.564,2.903-1.564H136.1
				C159.668,270.047,180.14,285.188,187.04,307.725z"/>
			<path d="M195.568,271.554c0.792,3.479,3.883,5.836,7.306,5.836c0.551,0,1.112-0.061,1.672-0.189
				c4.039-0.919,6.567-4.939,5.647-8.978c-7.113-31.229-34.458-44.156-35.619-44.691c-3.75-1.729-8.18-0.094-9.924,3.65
				c-1.745,3.744-0.12,8.2,3.617,9.959C168.487,237.244,190.131,247.681,195.568,271.554z"/>
			<path d="M307.454,277.201c0.561,0.127,1.12,0.188,1.672,0.188c3.423,0,6.514-2.358,7.306-5.836
				c5.423-23.813,26.974-34.257,27.298-34.411c3.744-1.742,5.376-6.186,3.646-9.939c-1.734-3.761-6.189-5.404-9.951-3.671
				c-1.16,0.535-28.506,13.461-35.618,44.691C300.887,272.262,303.415,276.281,307.454,277.201z"/>
		</g>
	</g>
</g>
<g>
</g>
<g>
</g>
<g>
</g>
<g>
</g>
<g>
</g>
<g>
</g>
<g>
</g>
<g>
</g>
<g>
</g>
<g>
</g>
<g>
</g>
<g>
</g>
<g>
</g>
<g>
</g>
<g>
</g>
</svg>
