<?xml version="1.0" encoding="iso-8859-1"?>
<!-- Generator: Adobe Illustrator 24.0.2, SVG Export Plug-In . SVG Version: 6.00 Build 0)  -->
<svg version="1.1" id="Capa_1" xmlns="http://www.w3.org/2000/svg" xmlns:xlink="http://www.w3.org/1999/xlink" x="0px" y="0px"
	 viewBox="0 0 512 512" style="enable-background:new 0 0 512 512;" xml:space="preserve">
<g>
	<g>
		<path style="fill:#FB4A59;" d="M450.212,253.371l-14.341-30.119l-10.82-61.051c0,0-62.202-21.392-169.052-21.392
			S86.948,162.2,86.948,162.2l-10.82,61.051l-14.341,30.119c-13.031,27.342-17.266,58.046-12.149,87.898l10.969,63.858
			c5.99,34.909,38.132,59.108,73.339,55.21l36.794-4.066c17.772-1.974,33.283-12.922,41.078-28.998l3.749-7.726
			c7.517-15.491,23.217-25.319,40.433-25.319c8.608,0,16.84,2.46,23.851,6.853c7.021,4.393,12.823,10.721,16.582,18.466l3.749,7.726
			c7.795,16.076,23.306,27.025,41.078,28.998l36.794,4.066c35.207,3.898,67.349-20.301,73.339-55.21l10.969-63.858
			C467.478,311.417,463.244,280.713,450.212,253.371z M204.727,381.94c0,14.549-13.022,25.627-27.372,23.286l-48.625-7.904
			c-20.152-3.283-33.64-22.522-29.851-42.585c2.39-12.665,13.448-21.352,25.716-21.352c2.241,0,4.512,0.288,6.784,0.893
			l64.463,17.177c5.246,1.398,8.886,6.139,8.886,11.564V381.94z M383.27,397.322l-48.625,7.904
			c-14.35,2.34-27.372-8.737-27.372-23.286v-18.922c0-5.425,3.64-10.165,8.886-11.564l64.463-17.177
			c2.271-0.605,4.542-0.893,6.784-0.893c12.268,0,23.326,8.688,25.716,21.352C416.91,374.799,403.422,394.039,383.27,397.322z"/>
		<path style="fill:#F82F40;" d="M464.463,317.239l-1.964-0.069c-113.217-4.116-174.11-59.286-206.5-111.471
			c-32.39,52.185-93.283,107.356-206.5,111.471l-1.964,0.069c-0.129-21.987,4.701-43.835,14.251-63.868l14.341-30.119l10.82-61.051
			c0,0,62.202-21.392,169.052-21.392S425.052,162.2,425.052,162.2l10.82,61.051l14.341,30.119
			C459.763,273.404,464.592,295.252,464.463,317.239z"/>
		<path style="fill:#F82F40;" d="M462.361,341.269l-10.969,63.858c-5.99,34.909-38.132,59.108-73.339,55.21l-15.273-1.686
			c24.853-6.387,44.747-26.817,49.329-53.524l10.969-63.858c5.117-29.851,0.883-60.556-12.149-87.898l-14.34-30.119l-10.076-70.612
			c25.111,4.939,38.539,9.56,38.539,9.56l10.82,61.051l14.341,30.119C463.244,280.713,467.478,311.417,462.361,341.269z"/>
		<path style="fill:#554E55;" d="M463.224,297.345c-116.285-4.226-172.808-65.937-200.02-119.214c-2.99-5.854-11.418-5.854-14.408,0
			c-27.212,53.277-83.734,114.988-200.02,119.214c1.993-15.164,6.347-30.01,13.011-43.974l14.341-30.119l10.82-61.051
			c0,0,62.202-21.392,169.052-21.392S425.052,162.2,425.052,162.2l10.82,61.051l14.341,30.119
			C456.877,267.335,461.23,282.181,463.224,297.345z"/>
		<path style="fill:#433F43;" d="M443.944,240.201c-7.26,6.159-16.374,9.521-25.954,9.521c-2.797,0-5.594-0.298-8.331-0.883
			c-33.888-7.26-57.481-32.579-64.731-69.471c-2.33-11.861,1.418-23.772,9.422-32.073c45.64,6.288,70.701,14.906,70.701,14.906
			l10.82,61.051L443.944,240.201z"/>
		<path style="fill:#433F43;" d="M167.071,179.367c-7.25,36.893-30.843,62.212-64.731,69.471c-2.737,0.585-5.534,0.883-8.331,0.883
			c-9.58,0-18.694-3.362-25.954-9.521l8.073-16.949l10.82-61.051c0,0,25.061-8.618,70.701-14.906
			C165.653,155.595,169.401,167.506,167.071,179.367z"/>
		<path style="fill:#433F43;" d="M463.224,297.345c-14.152-0.516-27.431-1.884-39.868-3.997
			c-2.192-13.775-6.357-27.243-12.427-39.977l-14.34-30.119l-10.076-70.612c25.111,4.939,38.539,9.56,38.539,9.56l10.82,61.051
			l14.341,30.119C456.877,267.335,461.23,282.181,463.224,297.345z"/>
		<g>
			<path style="fill:#FB4A59;" d="M364.398,175.543c3.409,17.368,14.344,46.391,49.416,53.899
				c6.618,1.417,13.513-0.624,18.361-5.347c18.764-18.28,62.746-73.197,34.753-166.323c-2.639-8.779-15.151-8.66-17.631,0.165
				c-8.718,31.019-29.19,77.22-76.118,99.843C366.541,160.978,362.979,168.314,364.398,175.543z"/>
			<path style="fill:#F82F40;" d="M432.172,224.095c-4.85,4.721-11.742,6.764-18.357,5.345
				c-17.048-3.64-28.384-12.377-35.931-22.374c3.104,1.2,6.446,2.192,10.046,2.965c6.625,1.418,13.517-0.625,18.367-5.345
				c16.929-16.483,54.367-62.787,40.998-140.053c0.734-2.301,1.398-4.532,2.003-6.694c2.479-8.826,14.985-8.945,17.623-0.169
				C494.92,150.895,450.936,205.817,432.172,224.095z"/>
			<path style="fill:#FB4A59;" d="M147.602,175.543c-3.409,17.368-14.344,46.391-49.416,53.899
				c-6.618,1.417-13.513-0.624-18.361-5.347c-18.764-18.28-62.746-73.197-34.753-166.323c2.639-8.779,15.151-8.66,17.631,0.165
				c8.718,31.019,29.19,77.22,76.118,99.843C145.459,160.978,149.021,168.314,147.602,175.543z"/>
			<path style="fill:#F82F40;" d="M147.603,175.539c-2.132,10.85-7.19,26.231-19.23,38.093c1.864-4.959,3.094-9.709,3.897-13.815
				c1.418-7.23-2.152-14.559-8.787-17.762c-57.194-27.57-75.095-90.189-80.301-117.63c0.585-2.192,1.22-4.413,1.894-6.655
				c2.638-8.777,15.144-8.658,17.623,0.169c8.727,31.012,29.197,77.217,76.126,99.838
				C145.461,160.981,149.021,168.31,147.603,175.539z"/>
		</g>
		<g>
			<path d="M129.838,144.176c-34.996-22.402-51.854-59.594-59.914-88.269c-2.024-7.203-8.42-12.087-15.913-12.154
				c-0.053,0-0.104-0.001-0.157-0.001c-7.423,0-13.826,4.75-15.964,11.86c-22.156,73.708-1.076,124.547,19.326,153.411h-5.242
				C23.315,209.022,0,232.338,0,260.998c0,24.166,16.938,45.157,40.08,50.6c-0.313,10.275,0.4,20.627,2.17,30.936l10.962,63.861
				c6.183,36.018,37.559,61.856,73.334,61.854c2.718,0,5.466-0.149,8.226-0.455l36.798-4.072
				c20.448-2.262,38.018-14.664,46.999-33.175l3.748-7.726c6.218-12.816,19.439-21.097,33.684-21.097s27.466,8.281,33.684,21.097
				l3.749,7.726c8.979,18.511,26.55,30.912,46.998,33.175l36.798,4.072c2.763,0.306,5.506,0.455,8.227,0.455
				c35.772-0.001,67.152-25.839,73.333-61.854l3.025-17.624c0.701-4.083-2.04-7.96-6.123-8.661c-4.08-0.701-7.959,2.041-8.66,6.123
				l-3.025,17.625c-5.312,30.945-33.938,52.483-65.126,49.028l-36.798-4.072c-15.295-1.692-28.437-10.968-35.152-24.813
				l-3.749-7.727c-7.605-15.675-22.692-26.505-39.68-28.999v-51.651c0-4.142-3.357-7.5-7.5-7.5s-7.5,3.358-7.5,7.5v51.651
				c-16.988,2.494-32.074,13.324-39.68,29L205.072,424c-6.717,13.845-19.858,23.121-35.153,24.813l-36.798,4.072
				c-31.192,3.452-59.814-18.082-65.126-49.028l-10.962-63.861c-2.031-11.833-2.507-23.726-1.505-35.461
				c116.486-6.447,173.008-70.25,199.946-122.992c0.059-0.113,0.155-0.302,0.525-0.302s0.467,0.189,0.524,0.302
				c26.91,52.685,83.422,116.539,199.947,122.989c1.002,11.735,0.526,23.63-1.505,35.463l-1.925,11.212
				c-0.701,4.083,2.04,7.96,6.123,8.661c0.429,0.074,0.855,0.109,1.277,0.109c3.585,0,6.756-2.579,7.383-6.232l1.925-11.212
				c1.77-10.311,2.483-20.664,2.169-30.939C495.353,306.152,512,285.441,512,260.998c0-28.659-23.315-51.975-51.975-51.975h-5.242
				c20.402-28.864,41.482-79.703,19.326-153.41c-2.152-7.162-8.615-11.909-16.121-11.86c-7.493,0.067-13.889,4.952-15.913,12.154
				c-4.365,15.532-10.324,29.915-17.711,42.749c-2.066,3.59-0.831,8.175,2.759,10.241c3.589,2.066,8.175,0.832,10.241-2.759
				c8.007-13.91,14.45-29.445,19.152-46.173c0.083-0.297,0.338-1.202,1.606-1.213c0.009,0,0.017,0,0.024,0
				c1.242,0,1.5,0.855,1.597,1.179c9.926,33.023,10.488,60.959,6.322,83.96c-14.438-3.954-24.533-14.12-24.646-14.234
				c-2.881-2.961-7.617-3.037-10.59-0.16c-2.977,2.88-3.056,7.628-0.176,10.605c0.581,0.601,13.178,13.435,31.981,18.402
				c-8.814,30.365-25.505,50.29-35.696,60.218c-3.088,3.008-7.41,4.275-11.557,3.385c-29.509-6.317-40.012-29.594-43.627-48.009
				c-0.771-3.931,1.152-7.863,4.678-9.563c5.439-2.622,10.683-5.617,15.713-8.969c5.911,10.464,17.886,28.169,34.881,36.392
				c1.053,0.51,2.165,0.751,3.261,0.751c2.786,0,5.462-1.56,6.757-4.235c1.805-3.729,0.244-8.213-3.484-10.018
				c-14.38-6.959-24.94-23.964-29.306-32c3.826-3.234,7.498-6.7,11.003-10.392c2.851-3.004,2.727-7.751-0.277-10.603
				c-3.004-2.851-7.752-2.727-10.604,0.277c-6.759,7.122-14.218,13.272-22.251,18.427c-26.699-4.945-70.316-10.859-126.126-10.859
				C200.234,133.305,156.522,139.238,129.838,144.176z M52.256,59.93c0.097-0.323,0.354-1.178,1.596-1.178c0.009,0,0.017,0,0.025,0
				c1.269,0.012,1.523,0.917,1.607,1.214c6.222,22.138,17.333,48.955,37.053,71.561c-2.888,4.903-9.364,13.361-22.395,20.507
				c-3.632,1.992-4.961,6.55-2.97,10.183c1.364,2.488,3.933,3.895,6.583,3.895c1.219,0,2.455-0.298,3.6-0.925
				c13.372-7.333,21.342-15.984,25.918-22.617c9.178,8.447,19.853,15.969,32.293,21.967c3.525,1.7,5.448,5.632,4.677,9.563
				c-3.615,18.415-14.118,41.692-43.627,48.009c-4.15,0.889-8.47-0.378-11.557-3.385c-1.556-1.516-3.266-3.27-5.073-5.253
				c10.997-4.106,27.255-13.626,41.512-35.655c2.251-3.478,1.257-8.121-2.221-10.372c-3.478-2.25-8.121-1.256-10.371,2.221
				c-14.883,22.995-31.827,29.482-39.031,31.265c-9.852-13.811-19.967-33.367-24.258-58.86c6.586-1.269,16.102-3.802,23.319-8.607
				c3.448-2.295,4.383-6.951,2.088-10.399s-6.951-4.383-10.398-2.087c-4.834,3.217-11.721,5.109-16.763,6.146
				C42.534,107.681,44.627,85.31,52.256,59.93z M15,260.998c0-20.388,16.587-36.975,36.975-36.975h15.482l-12.441,26.118
				c-7.039,14.775-11.627,30.349-13.712,46.259C25.984,291.768,15,277.415,15,260.998z M269.883,174.719
				c-2.671-5.23-7.99-8.479-13.883-8.479s-11.212,3.249-13.883,8.479c-24.911,48.773-77.07,107.683-184.439,114.658
				c2.236-11.24,5.855-22.24,10.879-32.785l11.068-23.234c4.336,2.632,9.293,4.03,14.35,4.03c1.922,0,3.859-0.202,5.781-0.613
				c39.48-8.452,51.534-41.087,55.205-59.788c1.511-7.697-0.867-15.41-5.961-20.855c26.082-4.019,62.535-7.828,106.999-7.828
				c44.457,0,80.908,3.808,107,7.829c-5.094,5.445-7.473,13.157-5.962,20.855c3.671,18.701,15.725,51.336,55.205,59.788
				c1.922,0.411,3.858,0.613,5.781,0.613c5.056,0,10.015-1.399,14.351-4.031l11.069,23.235c5.024,10.547,8.643,21.549,10.879,32.791
				C346.914,282.411,294.769,223.442,269.883,174.719z M470.699,296.417c-2.084-15.915-6.672-31.496-13.713-46.276l-12.442-26.118
				h15.482c20.388,0,36.975,16.587,36.975,36.975C497,277.614,486.196,291.81,470.699,296.417z"/>
			<path d="M299.77,381.944c0,9.134,3.991,17.767,10.949,23.685c5.669,4.821,12.8,7.408,20.124,7.408
				c1.665,0,3.341-0.134,5.011-0.405l48.619-7.911c11.76-1.914,22.003-8.34,28.843-18.096s9.389-21.576,7.179-33.282
				c-1.535-8.131-6.052-15.426-12.558-20.445c6.15-4.523,10.032-11.786,10.032-19.737c0-4.142-3.357-7.5-7.5-7.5s-7.5,3.358-7.5,7.5
				c0,4.269-2.876,8.037-6.994,9.162l-81.204,21.739v-20.799c0-11.843-7-22.587-17.833-27.372l-10.609-4.686
				c-3.788-1.675-8.217,0.041-9.891,3.83c-1.674,3.789,0.041,8.217,3.83,9.891l10.609,4.686c5.402,2.387,8.894,7.745,8.894,13.651
				V381.944z M383.046,341.406c1.457-0.348,2.925-0.53,4.382-0.53c3.471,0,6.878,0.979,9.912,2.889
				c4.451,2.802,7.439,7.191,8.414,12.36c1.454,7.699-0.223,15.473-4.721,21.889s-11.235,10.643-18.969,11.901l-48.619,7.911
				c-4.675,0.761-9.409-0.562-13.009-3.624c-3.602-3.063-5.667-7.53-5.667-12.258v-18.927c0-2.021,1.364-3.795,3.316-4.316
				L383.046,341.406z"/>
			<path d="M129.11,341.449l64.804,17.253c1.952,0.521,3.316,2.295,3.316,4.316v18.927c0,4.728-2.065,9.195-5.667,12.258
				c-3.601,3.062-8.343,4.383-13.009,3.624l-17.663-2.874c-4.094-0.669-7.941,2.11-8.606,6.199s2.109,7.942,6.198,8.607
				l17.663,2.874c1.67,0.271,3.346,0.405,5.011,0.405c7.323,0,14.455-2.587,20.124-7.408c6.958-5.917,10.949-14.55,10.949-23.685
				v-58.682c0-5.906,3.491-11.265,8.894-13.651l10.609-4.686c3.789-1.673,5.504-6.102,3.83-9.891c-1.674-3.789-6.1-5.505-9.891-3.83
				l-10.609,4.686c-10.833,4.785-17.833,15.529-17.833,27.372v20.799l-81.204-21.739c-4.118-1.125-6.994-4.893-6.994-9.162
				c0-4.142-3.357-7.5-7.5-7.5s-7.5,3.358-7.5,7.5c0,7.952,3.882,15.214,10.032,19.738c-6.506,5.019-11.024,12.313-12.558,20.444
				c-4.215,22.326,9.639,44.468,31.539,50.409c4,1.083,8.117-1.277,9.202-5.274s-1.277-8.118-5.274-9.202
				c-14.395-3.905-23.499-18.466-20.727-33.15c0.976-5.168,3.964-9.558,8.415-12.36C119.015,341.023,124.135,340.215,129.11,341.449
				z"/>
			<path d="M174.368,323c1.148,0.633,2.39,0.933,3.613,0.933c2.645,0,5.209-1.402,6.575-3.881c1.999-3.628,0.68-8.189-2.948-10.188
				L162.2,299.168c-3.631-2-8.189-0.678-10.188,2.948c-1.999,3.628-0.68,8.189,2.948,10.188L174.368,323z"/>
			<path d="M334.019,323.934c1.224,0,2.466-0.3,3.613-0.933l19.408-10.696c3.628-1.999,4.947-6.561,2.948-10.188
				c-1.998-3.627-6.562-4.949-10.188-2.948l-19.408,10.696c-3.628,1.999-4.947,6.561-2.948,10.188
				C328.81,322.532,331.374,323.934,334.019,323.934z"/>
		</g>
	</g>
</g>
<g>
</g>
<g>
</g>
<g>
</g>
<g>
</g>
<g>
</g>
<g>
</g>
<g>
</g>
<g>
</g>
<g>
</g>
<g>
</g>
<g>
</g>
<g>
</g>
<g>
</g>
<g>
</g>
<g>
</g>
</svg>
