<?xml version="1.0" encoding="iso-8859-1"?>
<!-- Generator: Adobe Illustrator 24.0.2, SVG Export Plug-In . SVG Version: 6.00 Build 0)  -->
<svg version="1.1" id="Capa_1" xmlns="http://www.w3.org/2000/svg" xmlns:xlink="http://www.w3.org/1999/xlink" x="0px" y="0px"
	 viewBox="0 0 512 512" style="enable-background:new 0 0 512 512;" xml:space="preserve">
<g>
	<g>
		<path style="fill:#FFF1E2;" d="M436.46,122.64c-13.8-18.61-33.42-32.88-56.73-39.97C339.4,70.43,297.7,64.3,256,64.3
			s-83.4,6.13-123.73,18.37c-46.62,14.15-78.5,57.15-78.5,105.86v129.76c0,20.66,8.2,40.47,22.81,55.09l18.76,18.74
			c10.58,10.58,26.74,13.21,40.13,6.53l9.18-4.58c21.22-10.6,45.74,6.51,43.13,30.08c-0.09,0.8-0.13,1.61-0.13,2.38
			c0,11.54,9.38,21.17,21.21,21.17h94.27c12.64,0,22.48-10.99,21.08-23.55c-0.13-1.17-0.19-2.32-0.19-3.45
			c0-21.75,23.15-36.71,43.32-26.63l9.18,4.58c13.39,6.68,29.55,4.05,40.13-6.53l18.76-18.74c14.61-14.62,22.82-34.43,22.82-55.09
			V188.53C458.23,164.17,450.26,141.24,436.46,122.64z M153.699,341.265c-36.45-4.471-62.858-33.587-59.006-65.019
			c3.862-31.43,36.536-53.279,72.975-48.8c36.449,4.471,62.869,33.579,59.008,65.009S190.138,345.734,153.699,341.265z
			 M417.602,274.981c4.41,31.358-21.496,60.932-57.862,66.038c-36.356,5.104-69.407-16.171-73.817-47.529
			c-4.4-31.36,21.498-60.922,57.864-66.029C380.142,222.347,413.193,243.623,417.602,274.981z"/>
		<path style="fill:#FEE7C9;" d="M458.23,188.53v129.76c0,20.66-8.21,40.47-22.82,55.09l-18.76,18.74
			c-10.58,10.58-26.74,13.21-40.13,6.53l-9.18-4.58c-0.45-0.23-0.91-0.44-1.37-0.64c0.48-0.42,0.94-0.86,1.39-1.31l18.76-18.74
			c14.61-14.62,22.82-34.43,22.82-55.09v-6.96c7.13-10.74,10.48-23.39,8.66-36.35c-1.13-8.07-4.16-15.47-8.66-21.92v-64.53
			c0-24.36-7.97-47.29-21.77-65.89c-13.8-18.61-33.42-32.88-56.73-39.97c-32.38-9.83-65.64-15.72-99.08-17.65
			c8.21-0.48,16.42-0.72,24.64-0.72c41.7,0,83.4,6.13,123.73,18.37c23.31,7.09,42.93,21.36,56.73,39.97
			C450.26,141.24,458.23,164.17,458.23,188.53z"/>
		<path style="fill:#7A6E79;" d="M300.8,66.674l-12.18,43.35l-13.809-6.045c-2.934-1.285-5.076-3.897-5.759-7.026l-7.122-32.599
			C274.91,64.524,287.88,65.304,300.8,66.674z"/>
		<path style="fill:#FEE7C9;" d="M324.21,424.15c1.4,12.56-8.44,23.55-21.08,23.55h-49.29c12.64,0,22.48-10.99,21.08-23.55
			c-0.13-1.17-0.19-2.32-0.19-3.45c0-21.75,23.15-36.71,43.32-26.63l9.18,4.58c1.53,0.76,3.1,1.4,4.69,1.92
			c-4.85,5.24-7.9,12.24-7.9,20.13C324.02,421.83,324.08,422.98,324.21,424.15z"/>
		<g>
			<path style="fill:#7A6E79;" d="M282.271,385.22l-17.538-29.098c-3.964-6.578-13.502-6.578-17.466,0l-17.538,29.098
				c-4.096,6.796,0.798,15.461,8.733,15.461h35.076C281.473,400.68,286.368,392.016,282.271,385.22z"/>
			<path style="fill:#685E67;" d="M273.54,400.68h-26.42c7.94,0,12.83-8.66,8.74-15.46l-13.06-21.68l4.47-7.42
				c3.96-6.58,13.5-6.58,17.46,0l17.54,29.1C286.37,392.02,281.47,400.68,273.54,400.68z"/>
		</g>
	</g>
	<g>
		<path d="M512,211c0-27.994-22.249-50.877-49.992-51.925c-1.8-6.971-4.242-13.792-7.335-20.425
			c-1.75-3.754-6.213-5.376-9.967-3.627c-3.754,1.751-5.378,6.213-3.627,9.967c6.404,13.733,9.651,28.383,9.651,43.542v129.764
			c0,18.804-7.323,36.481-20.621,49.776l-18.755,18.752c-8.313,8.311-20.964,10.368-31.481,5.118l-9.18-4.583
			c-12.459-6.22-26.718-5.176-38.139,2.792c-11.422,7.967-17.324,20.987-15.79,34.828c0.435,3.927-0.777,7.71-3.412,10.654
			c-2.636,2.943-6.263,4.564-10.213,4.564h-40.917c-4.143,0-7.5,3.358-7.5,7.5s3.357,7.5,7.5,7.5h40.917
			c8.153,0,15.949-3.484,21.388-9.559c5.439-6.075,8.044-14.207,7.146-22.312c-0.919-8.295,2.618-16.098,9.464-20.873
			c6.844-4.774,15.389-5.402,22.857-1.673l9.18,4.583c16.299,8.136,35.905,4.949,48.786-7.931l18.755-18.752
			c16.132-16.127,25.016-37.572,25.016-60.383v-55.641C491.714,259.805,512,237.731,512,211z M465.73,247.534v-59.001
			c0-4.774-0.292-9.503-0.852-14.179C482.98,176.739,497,192.258,497,211C497,229.448,483.419,244.782,465.73,247.534z"/>
		<path d="M226.827,440.197H208.86c-3.95,0-7.577-1.621-10.213-4.564c-2.635-2.944-3.847-6.728-3.412-10.654
			c1.534-13.841-4.368-26.86-15.79-34.828c-11.42-7.967-25.679-9.011-38.139-2.792l-9.18,4.583
			c-10.518,5.251-23.168,3.193-31.481-5.118L81.89,368.072c-13.297-13.295-20.62-30.972-20.62-49.775v-97.506
			c0-4.142-3.357-7.5-7.5-7.5s-7.5,3.358-7.5,7.5v26.743C28.581,244.782,15,229.448,15,211c0-18.754,14.039-34.281,32.157-36.651
			c-0.429,3.573-0.717,7.184-0.82,10.836c-0.116,4.141,3.146,7.592,7.286,7.708c0.071,0.002,0.144,0.003,0.215,0.003
			c4.044,0,7.379-3.22,7.493-7.289c0.748-26.547,11.568-50.977,29.23-69.089l21.082,13.121c3.653,2.273,7.859,3.475,12.162,3.475
			h3.3l2.886,11.075c0.88,3.374,3.921,5.61,7.253,5.61c0.626,0,1.263-0.079,1.896-0.245c4.008-1.044,6.41-5.141,5.366-9.149
			l-1.901-7.292h12.038c4.143,0,7.5-3.358,7.5-7.5s-3.357-7.5-7.5-7.5h-30.84c-1.499,0-2.965-0.419-4.237-1.211l-17.252-10.737
			c9.478-7.14,20.294-12.724,32.131-16.317c39.42-11.964,80.275-18.034,121.435-18.046l5.838,26.748
			c1.192,5.461,4.961,10.059,10.083,12.3l43.454,19.011c0.91,0.398,1.499,1.297,1.499,2.291v7.826c0,0.777-0.37,1.521-0.988,1.991
			l-13.598,10.325c-3.299,2.505-3.943,7.21-1.438,10.509c1.475,1.943,3.713,2.965,5.979,2.965c1.58,0,3.174-0.498,4.529-1.527
			l6.043-4.588l2.531,5.719c1.239,2.802,3.984,4.467,6.862,4.467c1.014,0,2.044-0.207,3.031-0.644
			c3.787-1.676,5.499-6.105,3.823-9.893l-4.292-9.7c-0.051-0.116-0.113-0.224-0.169-0.336c1.725-2.759,2.687-5.98,2.687-9.288
			v-7.826c0-6.952-4.116-13.245-10.486-16.033l-23.664-10.353l8.687-30.916c24.099,2.918,47.931,7.917,71.258,14.997
			c17.128,5.203,32.674,14.82,44.958,27.813c2.848,3.011,7.595,3.143,10.603,0.297c3.01-2.846,3.144-7.592,0.298-10.602
			c-14.072-14.884-31.881-25.901-51.501-31.861C341.039,63.092,298.677,56.803,256,56.803s-85.039,6.29-125.909,18.693
			c-40.09,12.168-69.976,44.236-80.07,83.578C22.265,160.107,0,182.996,0,211c0,26.731,20.286,48.805,46.27,51.655v55.641
			c0,22.811,8.884,44.255,25.015,60.383l18.756,18.752c12.882,12.88,32.489,16.067,48.786,7.931l9.18-4.583
			c7.468-3.729,16.013-3.102,22.857,1.673c6.846,4.775,10.383,12.578,9.464,20.874c-0.898,8.104,1.706,16.236,7.146,22.311
			c5.438,6.075,13.234,9.559,21.388,9.559h17.967c4.143,0,7.5-3.358,7.5-7.5S230.97,440.197,226.827,440.197z M283.731,99.698
			l-5.914-2.588c-0.732-0.32-1.271-0.978-1.441-1.757l-5.079-23.27c6.631,0.242,13.249,0.658,19.852,1.215L283.731,99.698z"/>
		<path d="M304.309,236.008c-3.252,2.57-8.131,3.941-12.078,2.856c-3.831-1.053-6.847-3.792-8.272-7.516
			c-1.958-5.114-0.381-10.853,3.926-14.281c13.127-10.448,29.057-17.678,46.069-20.91c1.669-0.318,3.439-0.609,5.26-0.866
			c25.292-3.557,50.513,1.749,71.012,14.947c3.48,2.242,8.122,1.236,10.365-2.246c2.243-3.483,1.237-8.124-2.246-10.366
			c-23.522-15.144-52.369-21.249-81.224-17.188c-2.058,0.29-4.066,0.621-5.968,0.982c-19.394,3.684-37.585,11.952-52.61,23.91
			c-9.447,7.521-12.9,20.132-8.592,31.381c3.141,8.201,9.779,14.241,18.219,16.589c-8.007,12.178-11.789,26.538-9.721,41.249
			c2.439,17.36,12.487,32.525,28.293,42.702c12.28,7.907,26.91,12.044,42.119,12.044c3.93,0,7.899-0.276,11.876-0.835
			c40.398-5.678,69.216-39.1,64.24-74.504c-2.439-17.36-12.487-32.525-28.293-42.702c-15.453-9.949-34.627-13.929-53.995-11.209
			C328.006,222.109,314.866,227.85,304.309,236.008z M358.649,333.606c-15.807,2.222-31.357-0.963-43.787-8.966
			c-12.08-7.777-19.736-19.205-21.56-32.178c-3.824-27.213,19.267-53.036,51.475-57.562c3.285-0.462,6.558-0.69,9.795-0.69
			c12.339,0,24.146,3.316,33.992,9.656c12.08,7.777,19.736,19.205,21.56,32.178C413.948,303.257,390.857,329.08,358.649,333.606z"/>
		<path d="M207.183,235.281c-10.697-7.97-23.934-13.48-38.649-15.287c-19.409-2.384-38.514,1.931-53.791,12.149
			c-15.625,10.451-25.407,25.789-27.544,43.189s3.645,34.649,16.277,48.569c12.352,13.611,29.844,22.419,49.254,24.802
			c3.491,0.429,6.971,0.641,10.422,0.641c15.735,0,30.841-4.41,43.37-12.79c15.625-10.451,25.407-25.789,27.544-43.189c0,0,0,0,0,0
			c1.81-14.743-2.222-29.034-10.44-41.07c8.401-2.495,14.934-8.651,17.93-16.907c4.109-11.324,0.437-23.872-9.14-31.226
			c-15.231-11.694-33.564-19.643-53.02-22.988c-1.918-0.33-3.932-0.625-5.987-0.878c-28.928-3.56-57.665,3.05-80.91,18.604
			c-3.442,2.304-4.366,6.962-2.063,10.404c2.304,3.443,6.963,4.367,10.404,2.063c20.255-13.554,45.37-19.303,70.736-16.183
			c1.818,0.224,3.594,0.484,5.278,0.774c17.064,2.934,33.118,9.885,46.426,20.103c4.365,3.352,6.043,9.063,4.175,14.211
			c-1.36,3.748-4.327,6.54-8.14,7.659C215.393,239.084,210.481,237.795,207.183,235.281z M219.178,291.537
			c-1.597,13.002-9.053,24.562-20.994,32.549c-12.29,8.22-27.784,11.676-43.625,9.729c-15.842-1.945-30.039-9.045-39.975-19.994
			c-9.655-10.639-14.093-23.658-12.496-36.661s9.053-24.562,20.994-32.549c10.053-6.724,22.246-10.259,35.023-10.259
			c2.844,0,5.717,0.175,8.601,0.529C198.987,238.846,222.526,264.261,219.178,291.537z"/>
		<path d="M288.946,399.188c3.181-5.631,3.087-12.3-0.251-17.839l-17.539-29.099c-3.23-5.361-8.897-8.561-15.156-8.561
			s-11.926,3.2-15.157,8.562l-17.538,29.098c-3.338,5.54-3.432,12.208-0.251,17.839c3.181,5.631,8.94,8.993,15.408,8.993h35.076
			C280.006,408.18,285.766,404.818,288.946,399.188z M236.114,391.81c-0.29-0.512-0.669-1.546,0.038-2.719l17.537-29.098
			c0.685-1.136,1.741-1.305,2.311-1.305s1.626,0.169,2.31,1.305l17.538,29.098c0.707,1.173,0.328,2.207,0.038,2.719
			c-0.289,0.512-0.979,1.37-2.348,1.37h-35.076C237.093,393.18,236.403,392.322,236.114,391.81z"/>
		<path d="M96.982,345.02c-3.406,2.356-4.258,7.028-1.901,10.435l7.973,11.526c1.456,2.105,3.795,3.234,6.175,3.234
			c1.471,0,2.958-0.432,4.26-1.332c3.406-2.356,4.258-7.028,1.901-10.435l-7.973-11.526
			C105.062,343.516,100.391,342.664,96.982,345.02z"/>
		<path d="M404.583,346.922l-7.973,11.526c-2.356,3.407-1.505,8.079,1.901,10.435c1.302,0.9,2.788,1.332,4.26,1.332
			c2.379,0,4.719-1.129,6.175-3.234l7.973-11.526c2.356-3.407,1.505-8.079-1.901-10.435
			C411.612,342.664,406.939,343.515,404.583,346.922z"/>
	</g>
</g>
<g>
</g>
<g>
</g>
<g>
</g>
<g>
</g>
<g>
</g>
<g>
</g>
<g>
</g>
<g>
</g>
<g>
</g>
<g>
</g>
<g>
</g>
<g>
</g>
<g>
</g>
<g>
</g>
<g>
</g>
</svg>
