<?xml version="1.0" encoding="iso-8859-1"?>
<!-- Generator: Adobe Illustrator 24.0.2, SVG Export Plug-In . SVG Version: 6.00 Build 0)  -->
<svg version="1.1" id="Capa_1" xmlns="http://www.w3.org/2000/svg" xmlns:xlink="http://www.w3.org/1999/xlink" x="0px" y="0px"
	 viewBox="0 0 512.006 512.006" style="enable-background:new 0 0 512.006 512.006;" xml:space="preserve">
<g>
	<g>
		<path style="fill:#685E67;" d="M502.034,343.469c-53.434-27.901-109.153-51.947-134.392-61.57
			c-32.993-12.58-64.782-15.071-93.669-7.569c-11.958,3.106-24.708,1.509-35.422-4.643c-0.179-0.103-0.357-0.206-0.536-0.309
			c-10.685-6.202-18.442-16.446-21.732-28.355c-7.946-28.768-25.998-55.053-53.389-77.336
			C141.94,146.641,93.256,110.41,42.376,78.085c-4.445-2.824-9.982,3.242-6.838,7.494C45.91,99.603,56.501,116.6,55.717,126.665
			c-1.145,14.703-18.169,16.243-33.047,14.717c-4.769-0.489-7.804,5.686-4.334,8.808c8.888,7.998,17.33,18.69,15.35,29.349
			c-1.658,8.926-11.926,12.472-21.522,13.81c-4.587,0.64-6.377,6.771-2.67,9.167c12.596,8.142,29.011,21.119,31.702,34.795
			c5.532,28.112,20.287,68.853,50.813,86.477c36.601,21.132,61.419,22.649,83.525,8.559c11.325-7.218,21.132-16.186,28.693-24.147
			c3.32-3.496,8.61-4.237,12.786-1.827h0c4.175,2.411,6.178,7.363,4.811,11.986c-3.114,10.528-5.977,23.505-6.566,36.922
			c-1.149,26.19,12.574,46.924,49.175,68.055c30.526,17.624,73.186,10.031,100.298,0.766c13.189-4.507,32.635,3.22,45.985,10.058
			c3.929,2.013,8.344-2.604,6.604-6.896c-3.639-8.98-5.702-19.645,1.199-25.544c8.241-7.045,21.722-5.079,33.092-1.381
			c4.438,1.444,8.268-4.272,5.46-8.158c-8.761-12.121-15.939-27.635-3.778-35.978c8.324-5.711,28.34-5.037,45.671-3.068
			C504.217,353.735,506.702,345.906,502.034,343.469z"/>
		<path style="fill:#554E55;" d="M498.966,353.141c-17.329-1.976-37.35-2.642-45.674,3.07c-12.161,8.333-4.985,23.847,3.784,35.971
			c2.803,3.893-1.029,9.596-5.467,8.164c-11.371-3.7-24.85-5.665-33.087,1.378c-6.911,5.898-4.841,16.567-1.202,25.542
			c1.741,4.297-2.68,8.907-6.605,6.892c-13.348-6.827-32.793-14.561-45.988-10.053c-27.11,9.264-69.77,16.863-100.293-0.76
			c-6.474-3.738-12.237-7.467-17.326-11.209c29.174,10.775,65.376,3.87,89.386-4.331c13.194-4.507,32.64,3.227,45.988,10.053
			c3.925,2.015,8.346-2.595,6.605-6.892c-3.639-8.974-5.71-19.643,1.202-25.542c8.238-7.042,21.716-5.078,33.087-1.378
			c4.438,1.432,8.271-4.271,5.468-8.164c-8.769-12.124-15.945-27.638-3.784-35.971c8.323-5.711,28.344-5.046,45.674-3.07
			c3.729,0.419,6.054-3.391,5.422-6.519c8.593,4.245,17.27,8.651,25.882,13.147C506.699,345.907,504.216,353.734,498.966,353.141z"
			/>
		<g>
			<g>
				<g>
					<path style="fill:#FCA62F;" d="M72.583,230.843c0.338,13.564,2.367,29.928,7.889,40.642
						c6.749,13.095,14.849,22.436,24.073,27.762c31.613,18.252,45.595,14.634,55.995,8.004c6.953-4.431,14.38-12.083,20.347-19.016
						c8.973-10.425,12.54-24.449,9.535-37.871c-5.355-23.915-19.857-45.912-42.758-64.542c-8.994-7.317-28.192-25.33-50.856-29.188
						C79.558,153.697,72.067,210.144,72.583,230.843z"/>
				</g>
			</g>
			<g>
				<g>
					<path style="fill:#F98824;" d="M180.883,288.233c-5.964,6.935-13.385,14.587-20.339,19.016
						c-10.402,6.635-24.386,10.246-56.002-8.007c-3.534-2.04-6.91-4.681-10.105-7.895c18.411,6.458,28.791,2.45,37.143-3.333
						c7.326-5.094,15.295-13.673,21.721-21.409c9.674-11.641,13.969-26.915,11.485-41.241c-2.267-13.07-7.006-25.493-14.151-37.057
						c21.193,18.091,34.664,39.199,39.785,62.059C193.427,263.786,189.865,277.812,180.883,288.233z"/>
				</g>
			</g>
			<g>
				<g>
					<path style="fill:#FCA62F;" d="M354.639,393.688c-11.916,6.489-27.102,12.914-39.142,13.489
						c-14.716,0.702-26.854-1.641-36.079-6.967c-31.613-18.252-35.47-32.169-34.93-44.491c0.361-8.237,3.274-18.495,6.295-27.129
						c4.542-12.983,14.903-23.084,28.03-27.193c23.388-7.32,49.689-5.759,77.274,4.758c10.834,4.131,36.032,11.75,50.706,29.449
						C417.961,349.074,372.823,383.785,354.639,393.688z"/>
				</g>
			</g>
			<g>
				<g>
					<path style="fill:#F98824;" d="M354.634,393.687c-11.914,6.49-27.096,12.916-39.138,13.49
						c-14.716,0.701-26.855-1.646-36.072-6.967c-7.332-4.233-13.166-8.23-17.808-12.028c7.262,2.069,15.695,2.892,25.204,2.439
						c12.042-0.574,27.223-7,39.147-13.484c18.184-9.907,63.314-44.614,52.154-58.081c-2.204-2.667-4.657-5.101-7.262-7.334
						c11.744,4.795,26.169,12.106,35.929,23.885C417.958,349.078,372.827,383.785,354.634,393.687z"/>
				</g>
			</g>
		</g>
		<g>
			<g>
				<g>
					<g>
						<path d="M310.52,414.798c-13.831,0-25.536-2.715-34.852-8.093c-35.172-20.306-39.286-37.335-38.673-51.315
							c0.337-7.667,2.594-17.518,6.709-29.277c5.31-15.178,17.597-27.094,32.868-31.874c25.262-7.906,52.913-6.254,82.186,4.908
							c1.169,0.445,2.509,0.932,3.988,1.47c12.397,4.507,35.474,12.896,49.819,30.2c2.652,3.199,3.825,7.207,3.392,11.592
							c-1.021,10.309-11.313,23.464-30.593,39.099c-3.216,2.61-7.94,2.116-10.549-1.101c-2.609-3.217-2.116-7.94,1.102-10.549
							c20.472-16.603,25.813-27.192,25.105-29.474c-11.752-14.164-31.564-21.366-43.401-25.669
							c-1.561-0.567-2.974-1.082-4.207-1.552c-26.051-9.933-50.396-11.484-72.361-4.608c-10.769,3.371-19.438,11.786-23.19,22.512
							c-3.579,10.229-5.613,18.867-5.881,24.981c-0.295,6.702-0.842,19.175,31.187,37.667c7.958,4.595,18.709,6.606,31.972,5.971
							c8.222-0.393,19.807-4.245,32.622-10.847c3.682-1.898,8.205-0.45,10.102,3.232c1.897,3.682,0.45,8.205-3.232,10.102
							c-10.388,5.352-25.547,11.864-38.776,12.496C314.044,414.755,312.264,414.798,310.52,414.798z"/>
					</g>
				</g>
			</g>
		</g>
	</g>
	<g>
		<g>
			<g>
				<path d="M143.023,320.122c-10.286,0-23.711-3.69-42.228-14.381c-10.49-6.056-19.571-16.425-26.99-30.82
					c-6.972-13.526-8.456-33.305-8.721-43.891c-0.326-13.092,3.624-63.781,19.828-77.809c4.962-4.296,9.891-4.537,13.154-3.981
					c13.486,2.296,27.51,9.275,42.87,21.336c3.258,2.558,3.825,7.273,1.267,10.531c-2.559,3.258-7.272,3.824-10.53,1.267
					c-13.346-10.48-25.162-16.481-36.124-18.347c-1.157,0.256-6.404,5.334-10.866,25.361c-3.325,14.924-4.832,32.057-4.603,41.268
					c0.396,15.828,2.968,29.457,7.059,37.393c6.079,11.797,13.197,20.107,21.156,24.702c32.026,18.492,42.558,11.78,48.214,8.175
					c5.159-3.288,11.623-9.368,18.693-17.583c7.412-8.613,10.366-20.329,7.901-31.34c-3.77-16.831-12.446-32.63-25.789-46.958
					c-2.823-3.031-2.654-7.777,0.377-10.6c3.033-2.822,7.776-2.653,10.6,0.377c15.183,16.303,25.091,34.439,29.449,53.903
					c3.496,15.616-0.68,32.215-11.169,44.403c-8.129,9.445-15.531,16.325-22.001,20.448
					C158.984,317.137,152.273,320.121,143.023,320.122z"/>
			</g>
		</g>
	</g>
	<g>
		<path d="M412.681,442.142c-1.833,0-3.673-0.429-5.385-1.305c-17.379-8.902-32.009-12.415-40.141-9.636
			c-19.663,6.719-69.397,20.037-106.474-1.369c-10.36-5.981-18.861-11.872-25.989-18.008c-3.14-2.702-3.494-7.438-0.791-10.577
			c2.702-3.141,7.439-3.493,10.576-0.791c6.41,5.518,14.164,10.878,23.704,16.386c32.638,18.844,80.293,4.891,94.123,0.165
			c11.386-3.891,26.889-1.301,46.139,7.691c-4.814-15.704-0.019-24.215,5.201-28.677c7.83-6.693,19.188-8.254,33.816-4.665
			c-6.5-10.354-9.118-19.459-7.788-27.122c1.002-5.778,4.245-10.693,9.376-14.213c7.102-4.872,19.856-6.665,38.816-5.422
			c-50.078-25.542-100.132-47.011-122.896-55.691c-31.53-12.023-61.51-14.487-89.112-7.317c-14.046,3.648-28.625,1.731-41.041-5.398
			l-0.575-0.332c-12.373-7.182-21.321-18.846-25.188-32.838c-7.592-27.484-24.715-52.219-50.894-73.515
			c-18.896-15.373-62.515-47.985-109.678-78.586c10.557,15.801,15.382,27.742,14.713,36.328c-0.483,6.204-3.118,11.468-7.62,15.226
			c-5.972,4.984-15.181,7.27-27.383,6.816c10.423,10.876,14.749,21.492,12.868,31.619c-1.255,6.751-6.229,15.16-22.234,18.842
			c17.412,12.175,27.406,24.307,29.729,36.112c2.822,14.338,14.565,62.586,47.204,81.43c32.896,18.992,55.55,21.602,75.744,8.73
			c9.168-5.842,18.348-13.577,27.286-22.988c5.722-6.026,14.756-7.323,21.974-3.157c7.217,4.167,10.61,12.642,8.252,20.61
			c-3.681,12.443-5.788,24.26-6.264,35.122c-0.311,7.077,0.605,13.443,2.801,19.463c1.419,3.891-0.585,8.196-4.476,9.616
			c-3.898,1.422-8.197-0.586-9.616-4.476c-2.885-7.91-4.094-16.172-3.695-25.26c0.529-12.08,2.84-25.107,6.866-38.721
			c0.384-1.294-0.18-2.677-1.368-3.364c-1.189-0.687-2.668-0.482-3.596,0.496c-9.779,10.296-19.906,18.811-30.102,25.308
			c-25.237,16.084-53.398,13.498-91.307-8.389c-37.074-21.405-50.409-71.136-54.421-91.524
			c-1.659-8.431-12.017-19.345-28.415-29.945c-4.226-2.732-6.234-7.757-5.118-12.804c1.171-5.296,5.521-9.351,10.823-10.09
			c4.243-0.591,14.215-2.531,15.185-7.752c1.1-5.917-3.515-13.874-12.993-22.404c-3.969-3.571-5.091-9.131-2.858-14.165
			c2.286-5.154,7.49-8.241,12.976-7.678c10.737,1.102,18.95,0.021,22.528-2.965c0.944-0.788,2.056-2.054,2.275-4.874
			c0.178-2.274-0.649-11.594-18.731-36.044c-3.586-4.85-3.11-11.436,1.157-16.018c4.225-4.535,10.695-5.467,15.732-2.266
			c51.495,32.716,100.711,69.423,121.229,86.115c28.645,23.303,47.447,50.608,55.886,81.157c2.813,10.185,9.302,18.66,18.269,23.865
			l0.502,0.29c8.995,5.165,19.579,6.545,29.805,3.889c30.675-7.967,63.725-5.335,98.226,7.82
			c24.717,9.424,81.117,33.694,135.192,61.93c5.291,2.763,7.719,8.832,5.903,14.757c-1.834,5.986-7.299,9.687-13.293,9.012
			c-30.213-3.434-38.699,0.51-40.58,1.8c-2.333,1.6-2.873,3.197-3.084,4.409c-0.797,4.591,2.373,12.242,8.696,20.992
			c3.225,4.459,3.16,10.518-0.16,15.075c-3.241,4.451-8.619,6.26-13.697,4.608c-12.127-3.945-21.323-3.962-25.899-0.051
			c-4.037,3.451-0.73,13.057,0.879,17.026c2.011,4.961,0.675,10.755-3.325,14.418C418.59,441.023,415.644,442.142,412.681,442.142z"
			/>
	</g>
</g>
<g>
</g>
<g>
</g>
<g>
</g>
<g>
</g>
<g>
</g>
<g>
</g>
<g>
</g>
<g>
</g>
<g>
</g>
<g>
</g>
<g>
</g>
<g>
</g>
<g>
</g>
<g>
</g>
<g>
</g>
</svg>
