<?xml version="1.0" encoding="iso-8859-1"?>
<!-- Generator: Adobe Illustrator 24.0.2, SVG Export Plug-In . SVG Version: 6.00 Build 0)  -->
<svg version="1.1" id="Capa_1" xmlns="http://www.w3.org/2000/svg" xmlns:xlink="http://www.w3.org/1999/xlink" x="0px" y="0px"
	 viewBox="0 0 511.997 511.997" style="enable-background:new 0 0 511.997 511.997;" xml:space="preserve">
<g>
	<g>
		<path style="fill:#804EA0;" d="M450.994,456.688L265.664,13.93c-3.589-8.575-15.739-8.575-19.329,0L61.004,456.688
			c-2.067,4.938-0.092,10.658,4.607,13.221c19.465,10.616,76.077,34.59,190.388,34.59s170.923-23.974,190.388-34.59
			C451.087,467.346,453.061,461.625,450.994,456.688z"/>
	</g>
	<g>
		<path style="fill:#6E4189;" d="M446.389,469.909c-6.57,3.58-17.36,8.69-33.18,13.88c4.24-2.85,5.92-8.37,3.91-13.17
			l-180.97-432.35l10.19-24.34c3.59-8.57,15.73-8.57,19.32,0l185.34,442.76C453.059,461.629,451.089,467.349,446.389,469.909z"/>
	</g>
	<g>
		<g>
			
				<ellipse transform="matrix(0.1615 -0.9869 0.9869 0.1615 -136.5554 587.0291)" style="fill:#FB8627;" cx="277.174" cy="373.874" rx="38.071" ry="33.041"/>
			
				<ellipse transform="matrix(0.1615 -0.9869 0.9869 0.1615 -105.5214 638.5576)" style="fill:#FB7722;" cx="323.014" cy="381.375" rx="38.071" ry="33.041"/>
		</g>
		
			<ellipse transform="matrix(0.1615 -0.9869 0.9869 0.1615 -119.5475 610.6754)" style="fill:#FC9744;" cx="299.593" cy="375.688" rx="39.901" ry="30.037"/>
		<path style="fill:#FB8627;" d="M329.236,380.534c-3.56,21.752-19.718,37.21-36.086,34.532c-3.909-0.64-7.472-2.252-10.593-4.646
			c11.844-4.042,21.849-16.954,24.558-33.506c2.708-16.546-2.66-31.973-12.597-39.579c3.722-1.274,7.613-1.667,11.522-1.027
			C322.407,338.986,332.795,358.789,329.236,380.534z"/>
	</g>
	<g>
		<g>
			
				<ellipse transform="matrix(0.4412 -0.8974 0.8974 0.4412 -51.9414 327.2385)" style="fill:#FB8627;" cx="236.81" cy="205.329" rx="26.493" ry="30.526"/>
			
				<ellipse transform="matrix(0.4412 -0.8974 0.8974 0.4412 -12.7655 323.3111)" style="fill:#FB7722;" cx="253.244" cy="171.907" rx="26.493" ry="30.526"/>
		</g>
		
			<ellipse transform="matrix(0.4412 -0.8974 0.8974 0.4412 -33.1888 323.7996)" style="fill:#FC9744;" cx="243.425" cy="188.551" rx="24.084" ry="31.994"/>
		<path style="fill:#FB8627;" d="M254.048,166.936c15.86,7.798,23.956,23.797,18.088,35.731c-1.401,2.85-3.469,5.208-6.032,7.045
			c-0.342-10.028-7.918-20.713-19.986-26.647c-12.064-5.932-25.151-5.407-33.301,0.445c-0.11-3.152,0.495-6.229,1.896-9.079
			C220.58,162.498,238.193,159.141,254.048,166.936z"/>
	</g>
	<g>
		<g>
			<path style="fill:#FB8627;" d="M128.099,391.839c-11.84,8.58-27.37,9.02-41.05,2.62l32.87-78.52c5.11,3.38,9.79,7.81,13.69,13.2
				C149.019,350.398,146.549,378.469,128.099,391.839z"/>
			<path style="fill:#FB7722;" d="M175.059,357.809c-18.45,13.37-45.89,6.97-61.29-14.28c-1.2-1.66-2.29-3.35-3.27-5.08l26.96-64.41
				c15.44-1.5,32.27,6.1,43.12,21.07C195.979,316.369,193.509,344.439,175.059,357.809z"/>
		</g>
		<path style="fill:#FC9744;" d="M150.769,375.419c-14.29,10.35-35.78,5.92-51.81-9.41l30.26-72.3c8.36,4.02,16.33,10.6,22.68,19.36
			C168.049,335.349,167.539,363.259,150.769,375.419z"/>
		<path style="fill:#FB8627;" d="M150.769,375.419c-4.01,2.9-8.57,4.64-13.44,5.3c6.84-14.05,4.19-34.27-8.09-51.23
			c-3.09-4.27-6.58-8.02-10.3-11.21l10.28-24.57c8.36,4.02,16.34,10.61,22.68,19.36
			C168.049,335.349,167.539,363.259,150.769,375.419z"/>
	</g>
	<g>
		
			<ellipse transform="matrix(0.8886 -0.4587 0.4587 0.8886 -81.7263 176.003)" style="fill:#FB8627;" cx="321.506" cy="256.266" rx="33.041" ry="38.071"/>
		<path style="fill:#FC9744;" d="M370.929,265.409c-2.24,6.32-6.31,11.46-12.04,14.41c-14.74,7.6-34.89-2.1-44.99-21.68
			c-10.11-19.59-6.35-41.63,8.39-49.24c7.76-4.01,17.02-3.21,25.53,1.31L370.929,265.409z"/>
		<path style="fill:#FB8627;" d="M370.929,265.409c-2.24,6.32-6.31,11.46-12.04,14.41c-6.52,3.36-14.09,3.34-21.39,0.57
			l-25.54-61.01c2.37-4.51,5.84-8.17,10.33-10.48c7.76-4.01,17.02-3.21,25.53,1.31L370.929,265.409z"/>
		<path style="fill:#FB7722;" d="M370.929,265.409c-2.25,6.32-6.32,11.46-12.04,14.41c-3.52,1.81-7.34,2.64-11.28,2.58
			c7.1-10.31,7.44-26.64-0.25-41.54s-21.2-24.08-33.71-24.27c2.23-3.24,5.12-5.87,8.64-7.69c7.76-4.01,17.02-3.21,25.53,1.31
			L370.929,265.409z"/>
	</g>
	<g>
		<path d="M222.183,236.009c3.028,1.947,14.225,10.293,25.339,31.802c8.01,15.502,5.893,28.598,0.536,34.206
			c-4.885,5.114-11.39,3.668-15.986,1.553c-4.032-1.854-6.348-4.203-6.523-6.615c-0.135-1.856,0.985-3.891,2.788-5.062
			c1.623-1.055,3.284-1.141,4.938-0.257c3.654,1.953,8.197,0.574,10.15-3.08c1.952-3.653,0.573-8.198-3.08-10.15
			c-6.454-3.449-13.998-3.11-20.181,0.909c-6.344,4.123-10.103,11.474-9.575,18.727c0.341,4.697,2.772,13.431,15.215,19.155
			c4.783,2.2,9.56,3.283,14.105,3.282c7.235,0,13.879-2.747,18.996-8.103c11.074-11.593,11.855-32.27,1.943-51.453
			c-4.65-8.998-9.335-16.019-13.638-21.453c10.225-1.928,19.113-7.988,23.717-17.361c1.413-2.869,2.356-5.926,2.826-9.107
			c2.065-2.021,3.802-4.364,5.112-7.027c1.41-2.867,2.231-5.899,2.52-8.999c2.431-2.403,4.443-5.176,5.985-8.294
			c8.264-16.823-0.318-38.036-19.13-47.286c-8.934-4.396-18.881-5.488-28.012-3.081c-9.514,2.511-17.01,8.48-21.107,16.808
			c-0.911,1.85-1.625,3.79-2.15,5.788c-3.874,2.643-6.971,6.109-8.988,10.211c-2.006,4.08-2.821,8.495-2.597,12.962
			c-1.009,1.391-1.916,2.879-2.697,4.46c-4.099,8.331-4.25,17.913-0.428,26.983C205.929,224.231,213.241,231.612,222.183,236.009z
			 M221.445,177.744c2.394-4.868,7.667-6.532,10.597-7.09c1.462-0.279,2.992-0.416,4.562-0.416c4.612,0,9.567,1.183,14.139,3.431
			c11.915,5.858,18.629,17.623,14.663,25.69c-3.965,8.068-17.382,9.934-29.298,4.075
			C224.193,197.575,217.478,185.811,221.445,177.744z M244.055,152.822c5.635-1.489,11.872-0.765,17.564,2.037
			c9.009,4.43,14.336,12.989,13.895,21.016c-4.174-6.286-10.377-11.843-18.153-15.667c-6.103-3.001-12.595-4.668-18.925-4.933
			C240.098,154.206,241.98,153.369,244.055,152.822z M214.887,205.839c3.865,4.372,8.792,8.198,14.601,11.055
			c6.778,3.333,13.87,4.92,20.563,4.92c0.625,0,1.244-0.025,1.862-0.052c-6.15,4.147-15.237,4.667-23.485,0.615
			c-5.697-2.801-10.081-7.302-12.345-12.674C215.543,208.421,215.148,207.127,214.887,205.839z"/>
		<path d="M236.956,368.819c-2.747,11.435-13.69,38.661-53.484,36.552c-13.126-0.69-24.494-7.608-33.89-20.553
			c1.94-0.935,3.81-2.039,5.59-3.329c4.022-2.916,7.276-6.568,9.78-10.733c5.249-1.391,10.121-3.697,14.508-6.876
			c6.337-4.592,11.386-10.909,14.599-18.267c1.658-3.796-0.076-8.217-3.872-9.875c-3.795-1.658-8.217,0.075-9.875,3.872
			c-2.129,4.873-5.293,8.879-9.396,11.923c1.141-13.782-3.124-29.317-12.946-42.868c-5.355-7.387-11.954-13.61-19.25-18.227
			l3.792-9.058c11.966,0.407,24.096,7.232,31.992,18.126c2.349,3.243,4.268,6.754,5.704,10.436c1.156,2.964,3.989,4.776,6.989,4.776
			c0.906,0,1.829-0.166,2.724-0.515c3.859-1.505,5.767-5.854,4.262-9.713c-1.9-4.87-4.433-9.507-7.532-13.785
			c-9.553-13.18-23.366-21.676-38.078-23.805l16.617-39.697c4.217,15.229,13.706,28.199,30.973,32.942
			c0.665,0.183,1.333,0.27,1.991,0.27c3.293,0,6.313-2.186,7.228-5.515c1.097-3.994-1.251-8.122-5.245-9.219
			c-24.647-6.771-23.188-39.403-22.167-49.008l21.393-51.106c1.599-3.821-0.202-8.215-4.022-9.814
			c-3.82-1.599-8.214,0.202-9.814,4.022L54.077,453.801c-3.558,8.532-0.142,18.288,7.941,22.69
			c19.572,10.676,77.652,35.506,193.981,35.506s174.41-24.83,193.978-35.503c8.086-4.405,11.502-14.161,7.94-22.703l-32.364-77.314
			c-1.6-3.821-5.994-5.62-9.814-4.022c-3.821,1.6-5.622,5.994-4.022,9.814l32.36,77.304c0.591,1.418,0.043,3.03-1.279,3.75
			c-18.562,10.125-73.922,33.674-186.799,33.674S87.763,473.448,69.197,463.321c-1.319-0.718-1.867-2.329-1.279-3.738l23.244-55.527
			c4.945,1.507,9.953,2.254,14.866,2.254c9.581,0,18.799-2.837,26.473-8.398c1.765-1.279,3.415-2.696,4.963-4.215
			c12.123,16.752,27.297,25.712,45.22,26.655c1.785,0.094,3.54,0.141,5.267,0.141c19.811,0,35.809-6.176,47.608-18.396
			c1.983-2.054,3.727-4.168,5.271-6.289c0.759,1.647,1.605,3.253,2.557,4.798c6.156,9.982,15.542,16.461,26.443,18.247
			c1.953,0.316,3.916,0.475,5.88,0.475c2.017,0,4.034-0.171,6.042-0.504c3.127,1.791,6.538,3.047,10.185,3.644
			c1.622,0.266,3.242,0.395,4.851,0.395c2.29,0,4.559-0.265,6.786-0.768c3.777,2.13,7.831,3.563,12.082,4.256
			c1.99,0.326,3.98,0.487,5.962,0.487c8.862,0,17.531-3.225,24.901-9.356c3.116-2.592,5.86-5.607,8.197-8.943
			c4.859,0.616,10.047,1.032,15.484,1.216c13.655,0.46,22.174,9.202,23.532,17.6c0.598,3.701,0.263,10.405-8.708,13.723
			c-2.58,0.955-7.264,2.171-9.638-0.402c-1.457-1.579-1.828-4.336-0.863-6.416c0.918-1.981,2.91-2.929,5.915-2.788
			c4.155,0.16,7.638-3.031,7.818-7.168c0.179-4.138-3.03-7.639-7.168-7.818c-9.13-0.385-16.659,3.89-20.171,11.462
			c-3.54,7.629-2.154,16.833,3.447,22.902c2.083,2.257,7.008,6.376,15.193,6.375c3.086,0,6.637-0.586,10.672-2.079
			c13.293-4.917,20.48-16.766,18.311-30.186c-2.337-14.451-16.083-29.464-37.834-30.197c-3.147-0.106-6.186-0.301-9.118-0.565
			c0.601-2.042,1.084-4.137,1.433-6.277c1.937-11.819-0.272-23.637-6.219-33.279c-6.157-9.982-15.545-16.458-26.418-18.233
			c-2.633-0.436-5.292-0.574-7.935-0.419c-2.396-2.021-5.004-3.668-7.794-4.891c1.957-5.506,3.854-9.107,3.913-9.218
			c1.957-3.645,0.592-8.188-3.052-10.15c-3.646-1.965-8.196-0.6-10.159,3.047c-0.132,0.245-3.058,5.721-5.709,13.862
			c-2.898,0.264-5.746,0.953-8.502,2.001c-2.12-0.78-4.335-1.367-6.618-1.744C262.458,325.291,241.006,344.029,236.956,368.819z
			 M294.36,407.664c-12.056-1.973-19.844-18.283-17.008-35.615c2.645-16.162,13.761-28.535,25.024-28.535
			c0.816,0,1.635,0.065,2.449,0.198c5.537,0.906,10.382,4.829,13.643,11.046c3.63,6.921,4.826,15.647,3.366,24.569
			C318.997,396.661,306.409,409.638,294.36,407.664z M344.035,362.517c4.05,6.566,5.535,14.727,4.183,22.982
			c-1.348,8.252-5.358,15.516-11.291,20.451c-4.608,3.834-9.933,5.858-15.301,5.876c7.458-7.343,13.012-17.861,15.011-30.076
			c1.628-9.951,0.744-19.863-2.467-28.51C338.081,355.207,341.475,358.368,344.035,362.517z M273.564,344.022
			c-5.424,6.891-9.392,15.688-11.015,25.605c-1.966,12.012-0.153,23.568,4.404,32.828c-4.306-1.919-8.038-5.246-10.799-9.723
			c-4.05-6.567-5.536-14.728-4.183-22.983C254.123,356.579,263.046,346.517,273.564,344.022z M97.001,390.106L102,378.164
			c6.271,4.385,12.893,7.415,19.487,9.032C114.434,391.358,105.693,392.377,97.001,390.106z M145.826,317.47
			c13.694,18.891,13.936,42.163,0.543,51.874c-9.88,7.157-25.394,4.869-38.404-5.432l24.862-59.393
			C137.688,307.95,142.115,312.351,145.826,317.47z"/>
		<path d="M203.297,116.75c3.821,1.6,8.215-0.201,9.814-4.022l11.4-27.233c3.944,10.019,10.676,21.578,22.128,30.369
			c11.659,8.949,26.037,13.443,42.917,13.443c5.034,0,10.293-0.404,15.766-1.204l29.633,70.789
			c-5.683-0.296-11.199,0.804-16.107,3.341c-4.948,2.555-8.933,6.357-11.894,10.992c-2.187,0.651-4.319,1.496-6.35,2.544
			c-9.803,5.06-16.727,14.123-19.495,25.519c-2.674,11.007-1.122,22.93,4.371,33.571c5.492,10.641,14.311,18.813,24.832,23.01
			c5.012,1.999,10.13,2.995,15.151,2.995c5.892,0,11.65-1.372,16.943-4.104c3.567-1.841,6.775-4.234,9.561-7.125
			c3.58-0.425,7.069-1.456,10.354-3.15c2.636-1.357,5.027-3.083,7.156-5.124l10.265,24.522c-0.049,0.272-0.086,0.549-0.105,0.832
			c-0.324,4.897-1.958,16.456-10.115,18.014c-4.069,0.777-6.737,4.705-5.96,8.773c0.686,3.594,3.83,6.095,7.358,6.095
			c0.466,0,0.94-0.044,1.415-0.135c6.987-1.334,12.629-5.499,16.51-11.832l9.125,21.798c1.204,2.875,3.989,4.606,6.921,4.606
			c0.965,0,1.947-0.188,2.893-0.583c3.821-1.6,5.622-5.994,4.022-9.814L272.577,11.029C269.77,4.329,263.263,0,255.999,0
			c-7.264,0-13.771,4.329-16.579,11.031l-40.146,95.905C197.676,110.757,199.476,115.151,203.297,116.75z M315.871,283.938
			c-7.166-2.858-13.225-8.525-17.061-15.957s-4.945-15.653-3.125-23.15c0.974-4.006,2.73-7.529,5.13-10.384
			c-0.248,8.769,1.808,18.199,6.418,27.131c5.579,10.815,13.92,19.01,23.098,23.729
			C325.733,286.332,320.754,285.885,315.871,283.938z M355.452,273.152c-10.862,5.602-26.839-2.849-34.888-18.453
			c-8.056-15.61-5.69-33.532,5.168-39.138c4.657-2.407,10.386-2.327,16.276,0.181l20.792,49.669
			C361.069,268.898,358.554,271.556,355.452,273.152z M270.293,44.42c1.153,4.767,6.404,29.77-6.591,35.381
			c-3.803,1.642-5.554,6.056-3.913,9.859c1.224,2.834,3.987,4.529,6.889,4.529c0.992,0,2.001-0.198,2.97-0.616
			c7.668-3.311,12.2-8.974,14.764-15.424l14.902,35.599c-17.852,1.939-32.44-1.309-43.441-9.706
			c-18.319-13.983-21.506-38.336-21.83-41.316l19.214-45.9c0.666-1.588,2.004-1.825,2.743-1.825c0.739,0,2.077,0.237,2.742,1.823
			L270.293,44.42z"/>
	</g>
</g>
<g>
</g>
<g>
</g>
<g>
</g>
<g>
</g>
<g>
</g>
<g>
</g>
<g>
</g>
<g>
</g>
<g>
</g>
<g>
</g>
<g>
</g>
<g>
</g>
<g>
</g>
<g>
</g>
<g>
</g>
</svg>
