<?xml version="1.0" encoding="iso-8859-1"?>
<!-- Generator: Adobe Illustrator 24.0.2, SVG Export Plug-In . SVG Version: 6.00 Build 0)  -->
<svg version="1.1" id="Capa_1" xmlns="http://www.w3.org/2000/svg" xmlns:xlink="http://www.w3.org/1999/xlink" x="0px" y="0px"
	 viewBox="0 0 512.002 512.002" style="enable-background:new 0 0 512.002 512.002;" xml:space="preserve">
<g>
	<g>
		<g>
			<path style="fill:#915EB2;" d="M286.39,212.755l89.393,96.349c3.279,3.534,9.177,1.953,10.248-2.748l29.206-128.146
				c1.004-4.406-3.039-8.299-7.404-7.129l-118.599,31.797C284.869,204.049,283.316,209.442,286.39,212.755z"/>
			<path style="fill:#804EA0;" d="M415.241,178.209l-29.21,128.15c-1.07,4.7-6.97,6.28-10.25,2.74l-11.27-12.14l25.92-113.74
				c0.65-2.83-0.79-5.45-3.06-6.65l20.46-5.49C412.201,169.909,416.241,173.809,415.241,178.209z"/>
			<g>
				<path style="fill:#FB8627;" d="M225.612,212.755l-89.393,96.349c-3.279,3.534-9.177,1.953-10.248-2.748L96.765,178.211
					c-1.004-4.406,3.039-8.299,7.404-7.129l118.599,31.797C227.133,204.049,228.686,209.442,225.612,212.755z"/>
			</g>
			<g>
				<path style="fill:#F2671F;" d="M225.611,212.759l-89.39,96.34c-3.28,3.54-9.18,1.96-10.25-2.74l-4.5-19.74l76.6-82.56
					c2.1-2.26,2.04-5.5,0.39-7.7l24.31,6.52C227.131,204.049,228.681,209.439,225.611,212.759z"/>
			</g>
		</g>
		<g>
			<g>
				<path style="fill:#554E55;" d="M189.302,157.418l61.394,116.211c2.252,4.263,8.358,4.263,10.61,0L322.7,157.418
					c2.111-3.996-0.786-8.803-5.305-8.803H194.607C190.088,148.615,187.191,153.422,189.302,157.418z"/>
			</g>
			<g>
				<path style="fill:#433F43;" d="M322.701,157.419l-61.39,116.21c-2.26,4.26-8.36,4.26-10.62,0l-10.88-20.6l50.51-95.61
					c2.11-4-0.78-8.8-5.3-8.8h32.37C321.911,148.619,324.811,153.419,322.701,157.419z"/>
			</g>
			<path style="fill:#FB8627;" d="M356.459,152.935l89.393,96.349c3.279,3.534,9.177,1.953,10.248-2.748l29.206-128.146
				c1.004-4.406-3.039-8.299-7.404-7.129l-118.599,31.797C354.939,144.229,353.386,149.622,356.459,152.935z"/>
			<path style="fill:#F2671F;" d="M485.311,118.389l-29.21,128.15c-1.07,4.7-6.97,6.28-10.25,2.74l-11.27-12.15l25.92-113.73
				c0.64-2.84-0.8-5.46-3.07-6.65l20.47-5.49C482.271,110.089,486.311,113.989,485.311,118.389z"/>
			<g>
				<path style="fill:#915EB2;" d="M159.912,152.935l-89.393,96.349c-3.279,3.534-9.177,1.953-10.248-2.748L31.065,118.39
					c-1.004-4.406,3.039-8.299,7.404-7.129l118.599,31.797C161.433,144.229,162.986,149.622,159.912,152.935z"/>
			</g>
			<g>
				<path style="fill:#804EA0;" d="M159.911,152.939l-89.39,96.34c-3.28,3.54-9.18,1.96-10.25-2.74l-4.5-19.74l76.6-82.56
					c2.1-2.27,2.04-5.51,0.39-7.7l24.31,6.52C161.431,144.229,162.981,149.619,159.911,152.939z"/>
			</g>
		</g>
		<g>
			<g>
				<path style="fill:#FB8627;" d="M189.302,321.063l61.394,116.211c2.252,4.263,8.358,4.263,10.61,0L322.7,321.063
					c2.111-3.996-0.786-8.803-5.305-8.803H194.607C190.088,312.26,187.191,317.067,189.302,321.063z"/>
			</g>
			<g>
				<path style="fill:#F2671F;" d="M322.701,321.059l-61.39,116.22c-2.26,4.26-8.36,4.26-10.62,0l-10.88-20.6l50.51-95.62
					c2.11-3.99-0.78-8.8-5.3-8.8h32.37C321.911,312.259,324.811,317.069,322.701,321.059z"/>
			</g>
			<path style="fill:#554E55;" d="M356.459,316.579l89.393,96.349c3.279,3.534,9.177,1.953,10.248-2.748l29.206-128.146
				c1.004-4.406-3.039-8.299-7.404-7.129l-118.599,31.797C354.939,307.873,353.386,313.266,356.459,316.579z"/>
			<path style="fill:#433F43;" d="M485.311,282.039l-29.21,128.14c-1.07,4.7-6.97,6.28-10.25,2.75l-11.27-12.15l25.92-113.73
				c0.64-2.84-0.8-5.46-3.07-6.65l20.47-5.49C482.271,273.739,486.311,277.629,485.311,282.039z"/>
			<g>
				<path style="fill:#554E55;" d="M159.912,316.579l-89.393,96.349c-3.279,3.534-9.177,1.953-10.248-2.748L31.065,282.035
					c-1.004-4.406,3.039-8.299,7.404-7.129l118.599,31.797C161.433,307.873,162.986,313.266,159.912,316.579z"/>
			</g>
			<g>
				<path style="fill:#433F43;" d="M159.911,316.579l-89.39,96.35c-3.28,3.53-9.18,1.95-10.25-2.75l-4.5-19.74l76.6-82.56
					c2.1-2.27,2.04-5.51,0.38-7.7l24.32,6.52C161.431,307.869,162.981,313.269,159.911,316.579z"/>
			</g>
		</g>
	</g>
	<g>
		<path d="M440.355,254.385c2.595,2.796,6.182,4.321,9.882,4.321c1.168,0,2.348-0.152,3.511-0.464
			c4.847-1.3,8.551-5.146,9.666-10.04l15.149-66.467c11.07-4.672,21.108-9.724,29.833-15.024c3.54-2.15,4.667-6.764,2.517-10.304
			c-2.151-3.541-6.767-4.666-10.304-2.517c-5.411,3.287-11.402,6.481-17.876,9.549l8.539-37.466
			c6.119-2.972,11.885-6.08,17.124-9.262c3.54-2.15,4.667-6.764,2.517-10.304c-2.15-3.541-6.764-4.666-10.304-2.517
			c-3.122,1.896-6.47,3.766-9.968,5.601c-0.524-0.769-1.13-1.495-1.821-2.16c-3.44-3.312-8.244-4.55-12.858-3.314l-118.599,31.797
			c-4.612,1.236-8.155,4.713-9.477,9.301c-0.32,1.111-0.492,2.235-0.528,3.352c-5.666,0.688-11.409,1.307-17.179,1.865
			c-0.312-0.922-0.704-1.826-1.222-2.685c-2.465-4.09-6.787-6.531-11.563-6.531h-47.491c-4.143,0-7.5,3.358-7.5,7.5
			s3.357,7.5,7.5,7.5h45.003l-58.906,111.5l-58.904-111.5h37.412c4.142,0,7.5-3.358,7.5-7.5s-3.358-7.5-7.5-7.5h-39.901
			c-4.775,0-9.098,2.442-11.563,6.532c-0.519,0.861-0.911,1.767-1.224,2.691c-4.292-0.415-8.57-0.866-12.804-1.353
			c0.009-1.286-0.161-2.587-0.53-3.869c-1.322-4.588-4.865-8.066-9.477-9.302L40.411,104.018c-4.614-1.237-9.419,0.002-12.859,3.314
			c-1.192,1.147-2.135,2.471-2.823,3.901c-4.751-2.383-9.214-4.839-13.335-7.341c-3.541-2.151-8.154-1.023-10.304,2.517
			c-2.15,3.541-1.023,8.153,2.517,10.304c6.621,4.021,14.025,7.911,22.022,11.584l8.521,37.386
			c-8.369-3.743-16.002-7.687-22.756-11.79c-3.541-2.151-8.154-1.024-10.304,2.517c-2.15,3.54-1.023,8.153,2.517,10.304
			c9.979,6.061,21.639,11.772,34.652,16.999l14.699,64.492c1.115,4.893,4.819,8.74,9.666,10.04c1.164,0.312,2.342,0.464,3.511,0.464
			c3.7,0,7.288-1.525,9.882-4.321l24.413-26.312l13.519,59.305l-73.538-19.716c-4.612-1.236-9.418,0.002-12.859,3.314
			c-1.192,1.147-2.135,2.471-2.822,3.901c-4.752-2.384-9.215-4.839-13.335-7.341c-3.541-2.152-8.154-1.023-10.304,2.517
			c-2.15,3.541-1.023,8.153,2.517,10.304c6.62,4.021,14.024,7.91,22.022,11.583l27.329,119.908c1.115,4.893,4.819,8.74,9.666,10.04
			c1.164,0.312,2.342,0.464,3.511,0.464c3.7,0,7.288-1.525,9.882-4.321l26.609-28.68c2.817-3.037,2.64-7.782-0.397-10.599
			c-3.035-2.817-7.782-2.639-10.599,0.397l-24.678,26.598L38.93,282.795l113.791,30.508l-37.068,39.952
			c-2.817,3.037-2.64,7.782,0.397,10.599c3.037,2.818,7.783,2.64,10.599-0.397l34.07-36.721c8.028,1,16.234,1.878,24.482,2.62
			l58.863,111.421c2.344,4.438,6.917,7.194,11.936,7.194c0.001,0,0.001,0,0.001,0c5.018,0,9.592-2.756,11.937-7.194l58.863-111.421
			c9.578-0.862,19.114-1.904,28.393-3.114l20.558,22.157c2.816,3.037,7.562,3.214,10.6,0.397c3.036-2.817,3.214-7.563,0.396-10.599
			l-23.098-24.896l113.791-30.508l-28.022,122.95l-38.582-41.584c-2.817-3.037-7.562-3.214-10.6-0.397
			c-3.036,2.817-3.214,7.563-0.396,10.599l40.514,43.667c2.595,2.796,6.182,4.321,9.882,4.321c1.168,0,2.348-0.152,3.511-0.464
			c4.847-1.3,8.551-5.146,9.666-10.04l27.856-122.224c6.112-2.969,11.877-6.08,17.125-9.267c3.54-2.15,4.667-6.763,2.517-10.304
			c-2.15-3.542-6.763-4.666-10.304-2.518c-3.124,1.898-6.472,3.768-9.967,5.601c-0.524-0.769-1.13-1.495-1.821-2.16
			c-3.44-3.312-8.244-4.55-12.858-3.314l-78.197,20.965l14.668-64.337L440.355,254.385z M477.441,119.15l-28.022,122.95
			l-85.769-92.442L477.441,119.15z M326.799,165.716c9.573-0.861,19.1-1.912,28.39-3.122l11.021,11.879l-51.307,13.76
			L326.799,165.716z M256.001,284.327c5.019,0,9.592-2.756,11.937-7.194l24.655-46.669l64.192,69.19
			c-4.324,1.365-7.635,4.715-8.899,9.106c-0.32,1.11-0.492,2.233-0.528,3.349c-5.664,0.688-11.404,1.313-17.177,1.871
			c-0.312-0.923-0.705-1.829-1.224-2.69c-2.465-4.09-6.787-6.531-11.563-6.531H194.607c-4.775,0-9.098,2.442-11.563,6.532
			c-0.519,0.862-0.912,1.768-1.224,2.692c-4.296-0.415-8.567-0.874-12.803-1.36c0.008-1.284-0.161-2.583-0.53-3.863
			c-1.322-4.588-4.865-8.066-9.477-9.302l-2.894-0.776l63.293-68.22l24.655,46.669C246.408,281.57,250.982,284.327,256.001,284.327z
			 M195.934,317.559L195.934,317.559c0.001,0.001,0.001,0.003,0.002,0.005L195.934,317.559z M197.099,188.232l-47.809-12.821
			l11.423-12.312c8.018,0.999,16.252,1.877,24.492,2.618L197.099,188.232z M66.952,242.101L38.93,119.15l113.791,30.508
			L66.952,242.101z M112.78,214.761l24.971-26.914l68.906,18.479l5.328,10.085l-72.255,77.88l-9.395-2.519L112.78,214.761z
			 M256.001,431.26l-58.905-111.5h117.81L256.001,431.26z M381.377,293.021l-8.236,2.208l-73.124-78.818l5.328-10.085l72.404-19.418
			l22.333,24.071L381.377,293.021z"/>
		<path d="M234.423,184.687v13.376c0,11.773,9.579,21.352,21.353,21.352c11.773,0,21.353-9.579,21.353-21.352v-13.376
			c0-11.774-9.579-21.353-21.353-21.353C244.002,163.335,234.423,172.913,234.423,184.687z M249.423,184.687
			c0-3.503,2.85-6.353,6.353-6.353c3.503,0,6.353,2.85,6.353,6.353v13.376c0,3.502-2.85,6.352-6.353,6.352
			c-3.503,0-6.353-2.85-6.353-6.352V184.687z"/>
		<path d="M452.977,171.871l-2.66-13.109c-2.342-11.538-13.64-19.022-25.172-16.68c-5.589,1.134-10.402,4.376-13.554,9.131
			c-3.15,4.754-4.261,10.451-3.127,16.041l2.659,13.109c2.053,10.112,10.978,17.108,20.92,17.108c1.402,0,2.826-0.139,4.252-0.429
			C447.833,194.703,455.316,183.411,452.977,171.871z M433.313,182.343c-3.441,0.695-6.792-1.531-7.488-4.962l-2.659-13.109
			c-0.338-1.663-0.008-3.357,0.93-4.771s2.369-2.379,4.032-2.717c3.428-0.697,6.791,1.53,7.488,4.963l2.66,13.108
			C438.972,178.287,436.745,181.646,433.313,182.343z"/>
		<path d="M105.365,150.492c-2.501-4.334-6.541-7.434-11.374-8.73l-10.85-2.909c-3.999-1.07-8.113,1.301-9.186,5.302l-5.818,21.7
			c0,0.001,0,0.002-0.001,0.002l-5.817,21.698c-1.073,4,1.301,8.113,5.302,9.186l14.626,3.921h0
			c1.619,0.434,3.245,0.641,4.846,0.641c8.27,0,15.858-5.526,18.099-13.885c1.296-4.833,0.632-9.881-1.869-14.215
			c-0.131-0.227-0.283-0.436-0.422-0.656c1.997-2.158,3.52-4.81,4.333-7.841C108.53,159.874,107.867,154.826,105.365,150.492z
			 M90.108,156.25c1.299,0.349,1.978,1.24,2.266,1.74c0.289,0.5,0.721,1.533,0.373,2.833c-0.532,1.987-2.578,3.172-4.569,2.64
			l-3.609-0.968l1.933-7.212L90.108,156.25z M90.705,183.535c-0.533,1.988-2.582,3.174-4.573,2.639h0l-7.382-1.979l1.934-7.212
			l3.605,0.967c0,0,0,0,0,0c0.001,0,0.003,0.001,0.004,0.001l3.772,1.011C90.054,179.496,91.238,181.547,90.705,183.535z"/>
		<path d="M255.775,383.025c11.773,0,21.353-9.579,21.353-21.353v-13.375c0-11.774-9.579-21.353-21.353-21.353
			c-11.774,0-21.353,9.579-21.353,21.353v13.375C234.423,373.447,244.002,383.025,255.775,383.025z M249.423,348.297
			c0-3.503,2.85-6.353,6.353-6.353c3.503,0,6.353,2.85,6.353,6.353v13.375c0,3.503-2.85,6.353-6.353,6.353
			c-3.503,0-6.353-2.85-6.353-6.353V348.297z"/>
		<path d="M432.043,361.082c1.402,0,2.826-0.139,4.252-0.429c11.538-2.34,19.021-13.632,16.682-25.172l-2.66-13.109
			c-2.342-11.538-13.64-19.021-25.172-16.68c-5.589,1.134-10.402,4.376-13.554,9.131c-3.15,4.754-4.261,10.451-3.127,16.041
			l2.659,13.109C413.176,354.086,422.101,361.082,432.043,361.082z M424.095,323.11c0.938-1.415,2.369-2.379,4.032-2.717
			c3.428-0.699,6.791,1.53,7.488,4.963l2.66,13.108c0.696,3.433-1.53,6.792-4.963,7.489c-3.441,0.693-6.792-1.531-7.488-4.962
			l-2.659-13.109C422.827,326.219,423.157,324.524,424.095,323.11z"/>
		<path d="M93.991,305.372l-10.85-2.909c-3.999-1.07-8.113,1.301-9.186,5.302l-5.818,21.7c0,0.001,0,0.002-0.001,0.002
			l-5.817,21.698c-1.073,4,1.301,8.113,5.302,9.186l14.626,3.921h0c1.619,0.434,3.245,0.641,4.846,0.641
			c8.27,0,15.858-5.526,18.099-13.885c1.296-4.833,0.632-9.881-1.869-14.215c-0.131-0.227-0.283-0.436-0.422-0.656
			c1.997-2.158,3.52-4.81,4.333-7.841c1.296-4.833,0.632-9.882-1.869-14.216S98.825,306.668,93.991,305.372z M90.108,319.86
			c1.299,0.349,1.978,1.24,2.266,1.74c0.289,0.5,0.721,1.533,0.373,2.833c-0.532,1.987-2.578,3.172-4.569,2.64l-3.609-0.968
			l1.933-7.212L90.108,319.86z M90.705,347.146c-0.533,1.988-2.582,3.174-4.573,2.639h0l-7.382-1.979l1.934-7.212l3.605,0.967
			c0,0,0,0,0,0c0.001,0,0.003,0.001,0.004,0.001l3.772,1.011C90.054,343.106,91.238,345.157,90.705,347.146z"/>
		<path d="M344.736,63.164c0.108,0,0.217-0.002,0.326-0.007c4.139-0.177,7.35-3.675,7.173-7.813l-0.013-0.297
			c-0.177-4.139-3.678-7.372-7.813-7.173c-4.139,0.177-7.35,3.675-7.173,7.813l0.013,0.297
			C337.421,60.013,340.742,63.164,344.736,63.164z"/>
		<path d="M344.652,95.199c0.108,0,0.217-0.002,0.326-0.007c4.139-0.177,7.35-3.675,7.173-7.813l-0.013-0.297
			c-0.177-4.139-3.687-7.363-7.813-7.173c-4.139,0.177-7.35,3.675-7.173,7.813l0.013,0.297
			C337.337,92.048,340.658,95.199,344.652,95.199z"/>
		<path d="M359.884,79.084c0.124,0,0.25-0.003,0.375-0.009l0.277-0.014c4.138-0.204,7.326-3.723,7.122-7.86
			c-0.204-4.137-3.72-7.329-7.86-7.122l-0.277,0.014c-4.138,0.204-7.326,3.723-7.122,7.86
			C352.597,75.964,355.911,79.084,359.884,79.084z"/>
		<path d="M329.214,78.996c0.124,0,0.249-0.003,0.374-0.009l0.278-0.013c4.137-0.204,7.326-3.722,7.123-7.859
			c-0.203-4.137-3.725-7.334-7.859-7.123l-0.278,0.013c-4.137,0.204-7.326,3.722-7.123,7.859
			C321.926,75.876,325.24,78.996,329.214,78.996z"/>
		<path d="M324.264,416.812c-4.139,0.177-7.35,3.675-7.173,7.813l0.013,0.297c0.172,4.029,3.493,7.18,7.487,7.18
			c0.108,0,0.217-0.002,0.326-0.007c4.139-0.177,7.35-3.675,7.173-7.813l-0.013-0.297
			C331.9,419.846,328.401,416.626,324.264,416.812z"/>
		<path d="M324.18,448.847c-4.139,0.177-7.35,3.675-7.173,7.813l0.013,0.297c0.172,4.029,3.493,7.18,7.487,7.18
			c0.108,0,0.217-0.002,0.326-0.007c4.139-0.177,7.35-3.675,7.173-7.813l-0.013-0.297
			C331.816,451.881,328.31,448.651,324.18,448.847z"/>
		<path d="M339.654,433.018l-0.278,0.013c-4.137,0.204-7.326,3.722-7.123,7.859c0.197,4.012,3.512,7.132,7.485,7.132
			c0.124,0,0.249-0.003,0.374-0.009l0.278-0.013c4.137-0.204,7.326-3.722,7.123-7.859
			C347.311,436.003,343.783,432.811,339.654,433.018z"/>
		<path d="M308.983,432.93l-0.277,0.014c-4.138,0.204-7.326,3.723-7.122,7.86c0.198,4.012,3.513,7.131,7.485,7.131
			c0.124,0,0.25-0.003,0.375-0.009l0.277-0.014c4.138-0.204,7.326-3.723,7.122-7.86S313.117,432.718,308.983,432.93z"/>
		<path d="M283.104,86.09c0.108,0,0.217-0.002,0.326-0.007c4.139-0.177,7.35-3.675,7.173-7.813l-0.013-0.297
			c-0.177-4.139-3.676-7.365-7.813-7.173c-4.139,0.177-7.35,3.675-7.173,7.813l0.013,0.297
			C275.788,82.94,279.109,86.09,283.104,86.09z"/>
		<path d="M283.02,118.125c0.108,0,0.217-0.002,0.326-0.007c4.139-0.177,7.35-3.675,7.173-7.813l-0.013-0.297
			c-0.177-4.139-3.685-7.355-7.813-7.173c-4.139,0.177-7.35,3.675-7.173,7.813l0.013,0.297
			C275.704,114.975,279.025,118.125,283.02,118.125z"/>
		<path d="M298.251,102.01c0.12,0,0.241-0.003,0.362-0.008l0.277-0.013c4.137-0.197,7.332-3.71,7.135-7.848
			c-0.196-4.138-3.723-7.326-7.848-7.136l-0.277,0.013c-4.137,0.197-7.332,3.71-7.135,7.848
			C290.956,98.882,294.273,102.01,298.251,102.01z"/>
		<path d="M267.582,101.922c0.12,0,0.241-0.003,0.362-0.008l0.277-0.013c4.137-0.197,7.332-3.71,7.135-7.848
			c-0.196-4.138-3.71-7.321-7.848-7.136l-0.277,0.013c-4.137,0.197-7.332,3.71-7.135,7.848
			C260.287,98.794,263.604,101.922,267.582,101.922z"/>
		<path d="M170.194,378.389c-4.138,0.184-7.344,3.688-7.16,7.825l0.013,0.297c0.179,4.025,3.498,7.167,7.487,7.167
			c0.112,0,0.226-0.002,0.338-0.007c4.138-0.184,7.344-3.688,7.16-7.825l-0.013-0.297
			C177.836,381.411,174.307,378.214,170.194,378.389z"/>
		<path d="M170.11,410.424c-4.138,0.184-7.344,3.688-7.16,7.825l0.013,0.297c0.179,4.025,3.498,7.167,7.487,7.167
			c0.112,0,0.226-0.002,0.338-0.007c4.138-0.184,7.344-3.688,7.16-7.825l-0.013-0.297
			C177.752,413.446,174.218,410.242,170.11,410.424z"/>
		<path d="M185.596,394.594l-0.278,0.014c-4.137,0.203-7.326,3.722-7.122,7.859c0.197,4.012,3.512,7.131,7.484,7.131
			c0.125,0,0.25-0.003,0.375-0.009l0.278-0.014c4.137-0.203,7.326-3.722,7.122-7.859S189.733,394.389,185.596,394.594z"/>
		<path d="M154.927,394.506l-0.278,0.014c-4.137,0.203-7.326,3.722-7.122,7.859c0.197,4.012,3.512,7.131,7.484,7.131
			c0.125,0,0.25-0.003,0.375-0.009l0.278-0.014c4.137-0.203,7.326-3.722,7.122-7.859
			C162.583,397.491,159.061,394.309,154.927,394.506z"/>
	</g>
</g>
<g>
</g>
<g>
</g>
<g>
</g>
<g>
</g>
<g>
</g>
<g>
</g>
<g>
</g>
<g>
</g>
<g>
</g>
<g>
</g>
<g>
</g>
<g>
</g>
<g>
</g>
<g>
</g>
<g>
</g>
</svg>
