<?xml version="1.0" encoding="iso-8859-1"?>
<!-- Generator: Adobe Illustrator 24.0.2, SVG Export Plug-In . SVG Version: 6.00 Build 0)  -->
<svg version="1.1" id="Capa_1" xmlns="http://www.w3.org/2000/svg" xmlns:xlink="http://www.w3.org/1999/xlink" x="0px" y="0px"
	 viewBox="0 0 512 512" style="enable-background:new 0 0 512 512;" xml:space="preserve">
<g>
	<g>
		<path style="fill:#F82F40;" d="M7.5,357.667c0-137.243,111.257-248.5,248.5-248.5s248.5,111.257,248.5,248.5
			c0,52.457-24.476,88.02-47.328,109.792c-8.756,8.342-22.648-1.019-18.439-12.356c7.505-20.213,11.752-42.009,12.1-64.752
			c1.645-107.681-86.813-197.714-194.506-197.89c-107.765-0.176-195.181,87.131-195.181,194.855
			c0,23.902,4.307,46.797,12.185,67.954c4.188,11.248-9.802,20.476-18.493,12.197C31.982,445.696,7.5,410.131,7.5,357.667z"/>
		<path style="fill:#E22334;" d="M504.5,357.666c0,52.46-24.48,88.02-47.33,109.79c-8.75,8.34-22.65-1.02-18.44-12.35
			c4.95-13.33,8.48-27.34,10.42-41.86c6.28-15.9,10.29-34.35,10.29-55.58c0-129.65-99.29-236.11-225.97-247.5
			c7.42-0.66,14.94-1,22.53-1C393.24,109.166,504.5,220.426,504.5,357.666z"/>
		<g>
			<g>
				<path style="fill:#FB4A59;" d="M372.376,155.966c11.015,16.675,34.736,46.297,71.959,61.449
					c5.098,2.075,10.964,0.296,13.934-4.338c12.424-19.378,40.632-75.821,18.36-163.188c-2.709-10.626-17.447-11.62-21.569-1.458
					c-12.146,29.942-35.958,72.251-77.904,90.878C370.75,142.154,368.512,150.116,372.376,155.966z"/>
				<path style="fill:#F82F40;" d="M458.27,213.076c-2.97,4.63-8.84,6.41-13.93,4.34c-10.33-4.21-19.62-9.52-27.88-15.37
					c4.6,1.04,9.47-0.83,12.09-4.91c11.33-17.67,35.77-66.14,23.13-140.76c1.22-2.72,2.34-5.38,3.38-7.94
					c4.12-10.17,18.86-9.17,21.57,1.45C498.9,137.256,470.69,193.696,458.27,213.076z"/>
			</g>
			<g>
				<path style="fill:#FB4A59;" d="M139.624,155.966c-11.015,16.675-34.736,46.297-71.959,61.449
					c-5.098,2.075-10.964,0.296-13.934-4.338c-12.424-19.378-40.632-75.821-18.36-163.188c2.709-10.626,17.447-11.62,21.569-1.458
					c12.146,29.942,35.958,72.251,77.904,90.878C141.25,142.154,143.488,150.116,139.624,155.966z"/>
				<path style="fill:#F82F40;" d="M139.62,155.966c-4.31,6.53-10.58,15.05-18.85,23.91c2.82-5.68,0.48-12.76-5.49-15.41
					c-41.95-18.63-65.76-60.94-77.91-90.88c-1.22-3.02-3.39-5.05-5.89-6.14c1.07-5.71,2.36-11.56,3.89-17.56
					c2.71-10.62,17.45-11.62,21.57-1.45c12.14,29.94,35.96,72.25,77.9,90.87C141.25,142.156,143.49,150.116,139.62,155.966z"/>
			</g>
		</g>
	</g>
	<g>
		<path d="M467.165,212.923c8.249-13.972,20.171-39.626,24.018-75.83c0.438-4.119-2.546-7.813-6.666-8.251
			c-4.114-0.43-7.813,2.547-8.25,6.665c-3.946,37.13-16.926,62.001-24.312,73.522c-0.999,1.558-3.013,2.16-4.792,1.438
			c-35.46-14.435-58.156-42.934-68.529-58.637c-0.881-1.334-0.691-2.635-0.499-3.291c0.183-0.626,0.695-1.769,2.065-2.377
			c43.66-19.388,68.587-62.315,81.81-94.913c0.949-2.341,3.015-2.457,3.861-2.402c0.842,0.057,2.868,0.453,3.49,2.894
			c4.281,16.792,6.887,33.467,7.746,49.563c0.22,4.137,3.74,7.317,7.889,7.09c4.136-0.221,7.311-3.753,7.09-7.889
			c-0.911-17.075-3.666-34.729-8.189-52.47c-2.048-8.035-8.725-13.592-17.008-14.154c-8.299-0.573-15.66,4.04-18.778,11.729
			c-11.977,29.527-34.155,68.133-72.031,85.924c-31.368-16.692-65.279-26.505-100.814-29.15c-4.134-0.304-7.729,2.792-8.036,6.923
			c-0.307,4.131,2.792,7.729,6.923,8.036c31.712,2.36,62.05,10.781,90.273,25.038c-0.263,0.632-0.493,1.282-0.687,1.948
			c-1.567,5.359-0.7,11.107,2.38,15.77c11.329,17.15,36.187,48.304,75.39,64.262c2.345,0.955,4.784,1.412,7.19,1.412
			c2.739,0,5.433-0.594,7.896-1.719c2.577,3.859,5.035,7.78,7.374,11.758c-0.861,1.582-1.939,2.185-2.919,2.539
			c-7.023,2.543-21.424-3.609-27.298-6.984c-3.585-2.067-8.169-0.84-10.24,2.745c-2.073,3.586-0.845,8.173,2.741,10.246
			c2.003,1.157,17.013,9.552,30.878,9.552c3.106,0,6.158-0.422,8.99-1.441c1.97-0.709,3.746-1.691,5.345-2.886
			C488.241,282.921,497,319.712,497,357.667c0,50.82-24.472,84.803-45.001,104.362c-1.9,1.812-3.755,1.045-4.693,0.428
			c-0.798-0.525-2.545-2.04-1.542-4.743c7.987-21.51,12.215-44.135,12.568-67.248c0.827-54.122-19.925-105.498-58.434-144.664
			c-38.488-39.146-89.472-60.752-143.559-60.841c-0.112,0-0.219,0-0.331,0c-35.674,0-70.733,9.412-101.438,27.233
			c-0.256,0.131-0.507,0.277-0.752,0.441c-3.447,2.298-4.378,6.954-2.08,10.4c0.148,0.223,0.314,0.445,0.485,0.65
			c2.344,2.813,6.377,3.523,9.54,1.677c28.5-16.622,61.081-25.402,94.245-25.402c0.102,0,0.206,0,0.307,0
			c50.042,0.082,97.236,20.097,132.888,56.357c35.672,36.281,54.896,83.841,54.131,133.919c-0.327,21.403-4.24,42.349-11.632,62.256
			c-3.148,8.48-0.194,17.519,7.353,22.49c3.237,2.132,6.831,3.181,10.393,3.181c4.646,0,9.235-1.784,12.899-5.275
			C484.998,451.307,512,413.799,512,357.667C512,305.62,496.498,255.628,467.165,212.923z"/>
		<path d="M147.579,142.394c5.304-2.679,10.686-5.14,16.133-7.405c0.072,0.006,0.143,0.018,0.216,0.021
			c1.595,0.076,3.38,0.509,3.773,1.306c0.122,0.246,2.813,6.277-11.852,27.469c-2.357,3.405-1.506,8.078,1.899,10.435
			c1.302,0.901,2.789,1.334,4.261,1.334c2.378,0,4.718-1.129,6.174-3.233c13.549-19.578,17.669-33.13,12.966-42.649
			c-0.164-0.331-0.341-0.653-0.525-0.969c19.046-6.272,38.834-10.131,59.186-11.481c4.133-0.274,7.261-3.847,6.987-7.979
			c-0.273-4.134-3.836-7.274-7.98-6.987c-36.279,2.407-70.888,12.266-102.884,29.288C98.05,113.753,75.868,75.142,63.89,45.612
			c-3.119-7.688-10.484-12.293-18.778-11.729c-8.284,0.563-14.96,6.119-17.008,14.154c-21.5,84.335,2.606,140.989,16.733,164.892
			C15.502,255.63,0,305.621,0,357.667c0,56.137,27.007,93.648,49.664,115.231c3.66,3.486,8.248,5.268,12.899,5.268
			c3.587,0,7.212-1.06,10.479-3.214c7.5-4.946,10.44-13.907,7.316-22.299c-7.773-20.874-11.714-42.856-11.714-65.337
			c0-54.779,23.889-106.661,65.541-142.342c3.146-2.695,3.511-7.43,0.816-10.575c-2.695-3.147-7.429-3.51-10.575-0.817
			c-44.983,38.535-70.782,94.568-70.782,153.734c0,24.273,4.258,48.017,12.656,70.571c0.956,2.566-0.743,4.032-1.518,4.543
			c-0.775,0.512-2.791,1.495-4.773-0.394C39.477,442.476,15,408.492,15,357.667c0-38.77,9.131-76.328,26.621-110.231
			c0.689,0.524,1.405,1.02,2.177,1.452c3.454,1.931,7.599,2.897,12.487,2.897c6.742,0,14.897-1.84,24.599-5.528
			c3.872-1.473,5.817-5.804,4.345-9.676c-1.472-3.873-5.805-5.816-9.675-4.346c-17.012,6.468-23.006,4.357-24.438,3.559
			c-0.649-0.363-1.348-0.935-1.642-2.389c1.904-3.154,3.879-6.272,5.935-9.35c2.462,1.125,5.155,1.718,7.893,1.718
			c2.405,0,4.845-0.457,7.19-1.412c39.203-15.958,64.061-47.111,75.39-64.262c3.08-4.662,3.947-10.41,2.38-15.77
			C148.068,143.668,147.84,143.023,147.579,142.394z M133.366,151.832c-10.373,15.703-33.069,44.202-68.529,58.637
			c-1.78,0.721-3.794,0.119-4.793-1.439c-12.371-19.295-38.831-73.245-17.406-157.287c0.622-2.44,2.648-2.837,3.49-2.894
			c0.086-0.006,0.186-0.011,0.294-0.011c0.961,0,2.714,0.312,3.566,2.413c13.223,32.598,38.15,75.525,81.811,94.913
			c1.37,0.608,1.882,1.751,2.065,2.377C134.057,149.197,134.248,150.498,133.366,151.832z"/>
		<path d="M362.646,201.791c1.412,1.201,3.139,1.789,4.858,1.789c2.122,0,4.23-0.896,5.714-2.638
			c2.686-3.154,2.305-7.888-0.849-10.573c-21.024-17.899-23.78-41.112-23.817-41.445c-0.421-4.107-4.08-7.1-8.198-6.697
			c-4.122,0.407-7.133,4.079-6.727,8.201C333.746,151.616,336.8,179.786,362.646,201.791z"/>
	</g>
</g>
<g>
</g>
<g>
</g>
<g>
</g>
<g>
</g>
<g>
</g>
<g>
</g>
<g>
</g>
<g>
</g>
<g>
</g>
<g>
</g>
<g>
</g>
<g>
</g>
<g>
</g>
<g>
</g>
<g>
</g>
</svg>
