<?xml version="1.0" encoding="iso-8859-1"?>
<!-- Generator: Adobe Illustrator 24.0.2, SVG Export Plug-In . SVG Version: 6.00 Build 0)  -->
<svg version="1.1" id="Capa_1" xmlns="http://www.w3.org/2000/svg" xmlns:xlink="http://www.w3.org/1999/xlink" x="0px" y="0px"
	 viewBox="0 0 512 512" style="enable-background:new 0 0 512 512;" xml:space="preserve">
<g>
	<path style="fill:#554E55;" d="M349.408,504.5H162.596c-5.022,0-9.359-3.513-10.401-8.425l-46.858-220.786h301.33l-46.858,220.786
		C358.767,500.987,354.429,504.5,349.408,504.5z"/>
	<path style="fill:#433F43;" d="M259.855,275.288H137.279l46.858,220.786c1.043,4.912,5.38,8.425,10.401,8.425h65.318V275.288z"/>
	<path style="fill:#433F43;" d="M406.664,275.284l-46.859,220.793c-1.042,4.912-5.38,8.421-10.399,8.421h-31.335
		c5.019,0,9.357-3.509,10.399-8.421l46.859-220.793H406.664z"/>
	<g>
		<path style="fill:#7A6E79;" d="M285.61,504.5h-59.217c-5.022,0-9.359-3.513-10.401-8.425l-46.858-220.786h173.735l-46.858,220.786
			C294.969,500.987,290.632,504.5,285.61,504.5z"/>
		<path style="fill:#685E67;" d="M342.867,275.284l-46.859,220.793c-1.042,4.912-5.38,8.421-10.399,8.421h-32.877
			c5.019,0,9.357-3.509,10.399-8.421l46.859-220.793H342.867z"/>
	</g>
	<path style="fill:#FC9744;" d="M426.782,239.752c-28.153-106.092-123.724-119.715-170.784-119.715
		c-47.059,0-142.628,13.622-170.781,119.715c-4.158,15.669-5.246,30.033-4.964,41.922c0.44,18.552,15.505,33.401,34.062,33.401
		h283.369c18.557,0,33.622-14.849,34.062-33.401C432.028,269.785,430.94,255.42,426.782,239.752z"/>
	<path style="fill:#FB8627;" d="M430.675,260.138c0.007-0.003,0.013-0.004,0.02-0.007c-0.776-6.454-2.031-13.281-3.913-20.383
		c-28.156-106.085-123.725-119.716-170.786-119.716c-47.168,0-143.094,13.699-170.984,120.508c0.002,0.006,0.004,0.01,0.006,0.016
		c11.048,6.975,22.404,10.505,33.845,10.505c10.505,0,26.168-3.137,41.149-18.118c1.638-1.638,3.03-2.892,4.168-3.849
		c2.19,2.892,4.742,6.699,6.688,9.591c11.866,17.714,31.718,47.349,70.337,47.349c43.701,0,63.829-17.917,77.142-29.772
		c8.368-7.454,9.729-8.102,12.908-8.102c2.988,0,8.666,0.851,18.714,4.881c10.572,4.24,20.921,7.28,30.957,9.106
		c9.319,1.696,16.102,9.896,15.884,19.366c-0.001,0.054-0.003,0.108-0.004,0.162c-0.436,18.554-15.503,33.398-34.057,33.398h34.929
		c18.565,0,33.632-14.844,34.068-33.398C431.898,275.178,431.62,267.925,430.675,260.138z"/>
	<path style="fill:#F82F40;" d="M430.543,214.402c3.657,9.071-1.714,19.292-11.251,21.455c-15.214,3.451-35.068,2.272-59.426-7.495
		c-64.828-25.99-46.694,31.084-118.661,31.084c-54.425,0-50.878-94.422-99.993-45.295c-16.634,16.634-33.916,10.386-46.531,0.775
		c-6.302-4.802-8.17-13.52-4.301-20.435c41.386-73.962,122.305-84.619,165.32-84.619
		C302.322,109.872,393.445,122.384,430.543,214.402z"/>
	<path style="fill:#E22334;" d="M419.296,235.857c-6.773,1.542-14.45,2.158-23.052,1.51c2.967-4.232,3.87-9.857,1.754-15.088
		C360.9,130.261,269.786,117.746,223.161,117.746c-11.515,0-25.732,0.766-41.192,3.296c27.539-9.027,54.441-11.175,73.729-11.175
		c46.625,0,137.75,12.515,174.848,104.532C434.204,223.469,428.834,233.698,419.296,235.857z"/>
	<g>
		<g>
			<circle style="fill:#F2EFF2;" cx="302.673" cy="91.764" r="84.264"/>
			<path style="fill:#E1DDE1;" d="M386.938,91.759c0,46.54-37.726,84.266-84.266,84.266c-13.185,0-25.668-3.03-36.779-8.432
				c2.467,0.234,4.966,0.34,7.496,0.34c46.53,0,84.266-37.726,84.266-84.266c0-33.345-19.384-62.171-47.497-75.834
				C353.189,11.619,386.938,47.749,386.938,91.759z"/>
		</g>
		<g>
			<g>
				<circle style="fill:#804EA0;" cx="296.507" cy="86.112" r="44.187"/>
				<path style="fill:#6E4189;" d="M340.695,86.113c0,24.403-19.788,44.19-44.19,44.19c-20.383,0-37.534-13.802-42.628-32.569
					c6.975,9.229,18.055,15.195,30.517,15.195c21.128,0,38.247-17.119,38.247-38.236c0-13.281-6.763-24.977-17.034-31.835
					C325.65,47.058,340.695,64.837,340.695,86.113z"/>
			</g>
			<g>
				<circle style="fill:#433F43;" cx="296.507" cy="86.112" r="16.145"/>
			</g>
		</g>
	</g>
	<g>
		<path style="fill:#F82F40;" d="M360.611,190.503c-10.818-17.188-32.693-28.95-57.938-28.95c-25.245,0-47.121,11.762-57.938,28.95
			H360.611z"/>
	</g>
	<g>
		<path d="M434.026,237.816c-0.192-0.718-0.396-1.415-0.592-2.125c1.188-1.369,2.231-2.879,3.089-4.52
			c3.183-6.088,3.537-13.224,0.974-19.576c-12.2-30.255-31.057-54.713-56.093-72.789c4.971-8.286,8.657-17.368,10.796-26.93
			c0.904-4.042-1.64-8.052-5.682-8.956c-4.039-0.901-8.052,1.64-8.957,5.683c-5.067,22.653-20.511,42.095-41.422,52.253
			c-10.143-4.396-21.57-6.803-33.466-6.803c-11.896,0-23.322,2.406-33.464,6.802c-26.34-12.783-43.298-39.762-43.298-69.096
			c0-42.325,34.434-76.76,76.76-76.76c36.335,0,67.97,25.797,75.222,61.339c0.829,4.059,4.79,6.681,8.848,5.85
			c4.059-0.828,6.678-4.789,5.85-8.848C383.919,30.844,346.103,0,302.67,0c-50.597,0-91.76,41.163-91.76,91.76
			c0,4.807,0.393,9.558,1.132,14.223c-42.054,7.137-96.316,27.856-128.208,84.847c-4.467,7.987-3.684,17.739,1.411,24.96
			c-2.793,7.027-5.249,14.41-7.273,22.036c-3.813,14.361-5.568,29.172-5.219,44.022c0.487,20.536,15.306,37.062,34.844,40.183
			l15.538,73.226c0.748,3.527,3.862,5.945,7.329,5.945c0.516,0,1.039-0.054,1.564-0.165c4.052-0.86,6.64-4.842,5.78-8.894
			l-14.763-69.573H171.5L208.521,497h-45.924c-1.471,0-2.759-1.044-3.065-2.482l-14.394-67.82c-0.86-4.052-4.839-6.64-8.894-5.78
			c-4.052,0.86-6.639,4.842-5.779,8.894l14.394,67.82c1.767,8.326,9.227,14.369,17.738,14.369H349.41
			c8.517,0,15.977-6.047,17.736-14.373l37.268-175.598c19.533-3.126,34.347-19.65,34.834-40.183
			C439.597,266.997,437.841,252.187,434.026,237.816z M96.925,198.152c29.277-52.317,79.785-71.135,118.674-77.552
			c6.703,20.124,20.268,37.594,38.503,49.01c-6.281,4.729-11.632,10.412-15.714,16.897c-2.207,3.506-1.153,8.136,2.352,10.343
			c3.507,2.207,8.136,1.152,10.342-2.353c9.878-15.694,29.647-25.444,51.591-25.444s41.713,9.75,51.59,25.444
			c1.426,2.265,3.863,3.506,6.355,3.506c1.365,0,2.747-0.373,3.988-1.153c3.505-2.206,4.559-6.837,2.353-10.343
			c-4.082-6.486-9.434-12.17-15.716-16.899c8.09-5.075,15.314-11.375,21.429-18.605c22.685,16.4,39.801,38.645,50.913,66.203
			c0.931,2.306,0.804,4.797-0.355,7.015c-1.15,2.2-3.193,3.777-5.599,4.324c-15.529,3.521-34.536,1.051-54.97-7.146
			c-38.891-15.591-52.529-3.45-66.97,9.403c-11.68,10.396-23.758,21.147-54.481,21.147c-20.43,0-31.41-16.386-42.028-32.232
			c-8.883-13.257-17.273-25.778-31.021-27.123c-9.941-0.966-20.197,4.192-32.254,16.252c-6.836,6.838-18.076,14.286-36.676,0.121
			C95.893,206.42,94.902,201.77,96.925,198.152z M352.472,494.52c-0.304,1.438-1.592,2.48-3.062,2.48h-45.931l37.02-174.43h48.466
			L352.472,494.52z M424.252,281.492c-0.347,14.623-12.018,26.078-26.572,26.078H246.41c-4.142,0-7.5,3.357-7.5,7.5
			s3.358,7.5,7.5,7.5h78.756L288.672,494.52c-0.304,1.438-1.591,2.48-3.062,2.48h-59.22c-1.47,0-2.758-1.043-3.063-2.486
			L186.834,322.57h24.186c4.142,0,7.5-3.357,7.5-7.5s-3.358-7.5-7.5-7.5h-96.7c-14.554,0-26.225-11.455-26.572-26.077
			c-0.316-13.431,1.272-26.828,4.721-39.819c1.447-5.453,3.135-10.761,5.008-15.888c17.592,10.062,34.77,7.933,49.036-6.333
			c8.284-8.285,15.27-12.419,20.188-11.93c6.692,0.654,13.166,10.315,20.02,20.545c11.607,17.322,26.053,38.882,54.489,38.882
			c36.432,0,51.97-13.83,64.455-24.943c13.186-11.735,21.147-18.819,51.413-6.686c23.189,9.303,44.329,12.001,62.873,8.055
			C423.094,255.835,424.555,268.647,424.252,281.492z"/>
		<path d="M244.82,86.112c0,28.501,23.187,51.688,51.687,51.688s51.688-23.187,51.688-51.688s-23.187-51.688-51.688-51.688
			S244.82,57.611,244.82,86.112z M333.194,86.112c0,20.229-16.458,36.688-36.688,36.688s-36.687-16.458-36.687-36.688
			s16.458-36.688,36.687-36.688S333.194,65.883,333.194,86.112z"/>
		<path d="M272.862,86.112c0,13.038,10.607,23.645,23.645,23.645c13.038,0,23.645-10.606,23.645-23.645
			s-10.607-23.645-23.645-23.645C283.469,62.468,272.862,73.074,272.862,86.112z M305.152,86.112c0,4.767-3.878,8.645-8.645,8.645
			c-4.767,0-8.645-3.878-8.645-8.645s3.878-8.645,8.645-8.645C301.274,77.468,305.152,81.346,305.152,86.112z"/>
		<path d="M138.388,257.16h-6.68c-4.142,0-7.5,3.357-7.5,7.5s3.358,7.5,7.5,7.5h6.68c4.142,0,7.5-3.357,7.5-7.5
			S142.53,257.16,138.388,257.16z"/>
		<path d="M169.135,236.864h-6.68c-4.142,0-7.5,3.357-7.5,7.5s3.358,7.5,7.5,7.5h6.68c4.142,0,7.5-3.357,7.5-7.5
			S173.277,236.864,169.135,236.864z"/>
		<path d="M198.567,273.858h-6.679c-4.142,0-7.5,3.357-7.5,7.5s3.358,7.5,7.5,7.5h6.679c4.142,0,7.5-3.357,7.5-7.5
			S202.709,273.858,198.567,273.858z"/>
		<path d="M379.62,257.16h-6.679c-4.142,0-7.5,3.357-7.5,7.5s3.358,7.5,7.5,7.5h6.679c4.142,0,7.5-3.357,7.5-7.5
			S383.762,257.16,379.62,257.16z"/>
	</g>
</g>
<g>
</g>
<g>
</g>
<g>
</g>
<g>
</g>
<g>
</g>
<g>
</g>
<g>
</g>
<g>
</g>
<g>
</g>
<g>
</g>
<g>
</g>
<g>
</g>
<g>
</g>
<g>
</g>
<g>
</g>
</svg>
