<?xml version="1.0" encoding="iso-8859-1"?>
<!-- Generator: Adobe Illustrator 24.0.2, SVG Export Plug-In . SVG Version: 6.00 Build 0)  -->
<svg version="1.1" id="Capa_1" xmlns="http://www.w3.org/2000/svg" xmlns:xlink="http://www.w3.org/1999/xlink" x="0px" y="0px"
	 viewBox="0 0 512 512" style="enable-background:new 0 0 512 512;" xml:space="preserve">
<g>
	<g>
		<path style="fill:#A176BD;" d="M27.207,317.198l29.526,78.135c4.284,11.338,15.139,18.84,27.259,18.84h344.016
			c12.12,0,22.975-7.502,27.259-18.84l29.526-78.135H27.207z"/>
		<path style="fill:#915EB2;" d="M484.79,317.201l-29.52,78.13c-4.29,11.34-15.14,18.84-27.26,18.84h-37.13
			c12.12,0,22.98-7.5,27.26-18.84l2.777-7.345c2.979-7.879-2.045-16.444-10.353-17.829c-0.034-0.006-0.067-0.011-0.099-0.017
			c-17.964-3.191-28.493-14.239-35.194-21.28c-6.35-6.66-6.87-6.66-9.38-6.66s-3.03,0-9.37,6.66c-7.91,8.29-21.13,22.17-45.58,22.17
			s-37.67-13.88-45.57-22.17c-6.35-6.66-6.87-6.66-9.38-6.66c-2.5,0-3.02,0-9.37,6.66c-7.9,8.29-21.13,22.17-45.58,22.17
			c-24.44,0-37.67-13.88-45.57-22.17c-6.35-6.66-6.87-6.66-9.37-6.66c-2.51,0-3.03,0-9.38,6.66c-7.9,8.29-21.12,22.17-45.57,22.17
			c-24.45,0-37.68-13.88-45.58-22.17c-5.93-6.23-6.78-6.63-8.91-6.65l-9.45-25.01H484.79z"/>
		<path style="fill:#FCB44D;" d="M7.5,307.491c0,5.361,4.346,9.707,9.707,9.707H36.2c27.474,0,27.474,28.839,54.947,28.839
			c27.475,0,27.475-28.839,54.95-28.839c27.473,0,27.473,28.839,54.946,28.839c27.474,0,27.474-28.839,54.947-28.839
			c27.475,0,27.475,28.839,54.95,28.839c27.474,0,27.474-28.839,54.948-28.839c27.478,0,27.478,28.839,54.956,28.839
			c27.478,0,27.478-28.839,54.956-28.839h18.993c5.361,0,9.707-4.346,9.707-9.707v0c0-45.12-36.577-81.697-81.697-81.697H89.197
			C44.077,225.793,7.5,262.37,7.5,307.491L7.5,307.491z"/>
		<path style="fill:#FB9927;" d="M501.38,285.051c-0.01,0.009-0.021,0.017-0.031,0.026c-3.852-13.549-11.087-25.671-20.779-35.356
			c-14.79-14.78-35.21-23.93-57.77-23.93h-32.19c22.56,0,42.99,9.15,57.77,23.93c1.716,1.716,3.355,3.508,4.912,5.371
			c10.763,12.876,9.927,31.93-1.916,43.82c-8.052,8.085-14.781,17.559-30.537,17.559c-27.47,0-27.47-28.84-54.95-28.84
			c-27.48,0-27.48,28.84-54.95,28.84c-27.47,0-27.47-28.84-54.95-28.84c-27.47,0-27.47,28.84-54.95,28.84
			c-27.47,0-27.47-28.84-54.94-28.84c-27.48,0-27.48,28.84-54.95,28.84c-27.48,0-27.48-28.84-54.95-28.84H17.21
			c-2.54,0-4.86-0.98-6.59-2.58c-2.02,7.095-3.109,14.587-3.12,22.327c-0.007,5.403,4.307,9.823,9.71,9.823H36.2
			c27.47,0,27.47,28.84,54.95,28.84c27.47,0,27.47-28.84,54.95-28.84c27.47,0,27.47,28.84,54.94,28.84
			c27.48,0,27.48-28.84,54.95-28.84c27.48,0,27.48,28.84,54.95,28.84c27.47,0,27.47-28.84,54.95-28.84
			c27.48,0,27.48,28.84,54.95,28.84c27.48,0,27.48-28.84,54.96-28.84h18.99c5.403,0,9.717-4.421,9.71-9.823
			C504.489,299.638,503.4,292.146,501.38,285.051z"/>
		<ellipse style="fill:#FCA62F;" cx="256" cy="254.524" rx="141.314" ry="22.07"/>
		<g>
			<g>
				<g>
					<circle style="fill:#F2EFF2;" cx="189.537" cy="173.786" r="75.958"/>
					<path style="fill:#E1DDE1;" d="M265.496,173.782c0,41.953-34.007,75.96-75.96,75.96c-11.885,0-23.138-2.732-33.154-7.601
						c2.224,0.211,4.476,0.307,6.757,0.307c41.943,0,75.96-34.007,75.96-75.96c0-30.058-17.473-56.043-42.816-68.359
						C235.074,101.54,265.496,134.11,265.496,173.782z"/>
					<g>
						<path style="fill:#FCA62F;" d="M272.283,258.644c-9.803-10.361-36.512-17.799-67.963-17.799s-58.159,7.438-67.963,17.799
							H272.283z"/>
					</g>
				</g>
				<g>
					<g>
						<circle style="fill:#804EA0;" cx="183.979" cy="168.691" r="39.832"/>
						<path style="fill:#6E4189;" d="M223.812,168.692c0,21.997-17.838,39.835-39.835,39.835c-18.374,0-33.835-12.441-38.426-29.359
							c6.288,8.32,16.275,13.697,27.509,13.697c19.045,0,34.477-15.432,34.477-34.467c0-11.972-6.096-22.515-15.355-28.697
							C210.249,133.487,223.812,149.513,223.812,168.692z"/>
					</g>
					<g>
						<circle style="fill:#433F43;" cx="183.979" cy="168.691" r="14.553"/>
					</g>
				</g>
			</g>
			<g>
				<path style="fill:#FFF1E2;" d="M350.609,204.678c3.336-5.099,5.715-10.604,6.31-16.334
					c1.777-17.016-18.241-24.559-18.241-24.559c2.111-4.294,3.75-9.371,4.577-15.362c2.055-14.901-7.029-26.406-13.901-32.8
					c-2.758-2.566-7.178-1.189-8.147,2.451c-8.256,31.011-64.058,33.218-75.737,60.812c-3.532,8.341-0.399,15.949,4.947,22.223
					c-0.457,0.232-19.619,9.951-19.663,30.992c-0.022,9.075,3.806,15.137,8.215,19.107c5.06,4.557,11.726,6.916,18.536,6.916h82.161
					c6.809,0,13.476-2.359,18.536-6.916c4.409-3.971,8.236-10.032,8.215-19.107C366.391,218.495,356.854,209.168,350.609,204.678z"
					/>
				<path style="fill:#FEE7C9;" d="M366.415,232.101c0.02,9.08-3.81,15.14-8.22,19.11c-5.06,4.56-11.72,6.91-18.53,6.91h-29.96
					c6.81,0,13.47-2.35,18.53-6.91c4.41-3.97,8.24-10.03,8.22-19.11c-0.016-11.153-6.426-19.426-12.179-24.52
					c-1.946-1.723-2.5-4.563-1.286-6.861c2.088-3.951,3.525-8.104,3.965-12.379c1.227-11.729-7.91-18.96-13.702-22.319
					c-2.408-1.397-3.506-4.285-2.56-6.902c1.154-3.193,2.054-6.748,2.602-10.698c0.76-5.54-0.01-10.6-1.65-15.11
					c4.54-4.25,7.95-9.2,9.56-15.24c0.97-3.64,5.39-5.01,8.15-2.45c6.87,6.4,15.95,17.9,13.9,32.8c-0.83,5.99-2.47,11.07-4.58,15.36
					c0,0,20.02,7.55,18.24,24.56c-0.59,5.73-2.97,11.24-6.31,16.34C356.855,209.171,366.395,218.491,366.415,232.101z"/>
			</g>
		</g>
	</g>
	<g>
		<path style="fill:#FCA62F;" d="M363.774,267.02c-9.803-10.361-36.512-17.799-67.963-17.799s-58.159,7.438-67.963,17.799H363.774z"
			/>
	</g>
	<g>
		<path d="M363.148,256.844c6.731-6.062,10.469-14.225,10.742-23.551h48.912c40.913,0,74.197,33.285,74.197,74.197
			c0,1.217-0.99,2.207-2.207,2.207H475.8c-16.952,0-25.799,9.285-32.907,16.746c-6.438,6.756-11.522,12.093-22.048,12.093
			s-15.61-5.337-22.048-12.093c-7.108-7.461-15.955-16.746-32.907-16.746c-16.951,0-25.796,9.285-32.904,16.746
			c-6.437,6.756-11.521,12.093-22.044,12.093s-15.608-5.337-22.044-12.093c-7.108-7.461-15.954-16.746-32.905-16.746
			c-16.951,0-25.796,9.285-32.904,16.746c-6.437,6.756-11.52,12.093-22.043,12.093c-10.523,0-15.606-5.336-22.043-12.093
			c-7.107-7.461-15.953-16.746-32.904-16.746s-25.797,9.285-32.905,16.746c-6.437,6.756-11.521,12.093-22.044,12.093
			c-10.523,0-15.607-5.337-22.043-12.093c-7.107-7.461-15.953-16.746-32.904-16.746H17.207c-1.217,0-2.207-0.99-2.207-2.207
			c0-21.035,8.994-41.169,24.676-55.239c3.083-2.766,3.34-7.508,0.574-10.591c-2.767-3.084-7.508-3.34-10.591-0.573
			C10.81,257.997,0,282.2,0,307.49c0,9.488,7.719,17.207,17.207,17.207h4.817l27.694,73.287
			c5.354,14.168,19.128,23.688,34.274,23.688h258.973c4.142,0,7.5-3.357,7.5-7.5s-3.358-7.5-7.5-7.5H83.992
			c-8.946,0-17.081-5.622-20.243-13.99l-25.667-67.924c9.272,0.603,14.122,5.692,20.162,12.032
			c7.107,7.461,15.953,16.746,32.904,16.746s25.797-9.285,32.905-16.746c6.437-6.756,11.521-12.093,22.044-12.093
			c10.523,0,15.607,5.337,22.043,12.093c7.107,7.461,15.953,16.746,32.903,16.746c16.951,0,25.796-9.285,32.904-16.746
			c6.437-6.756,11.521-12.093,22.043-12.093c10.524,0,15.608,5.337,22.045,12.093c7.108,7.461,15.954,16.746,32.905,16.746
			s25.796-9.285,32.904-16.746c6.437-6.756,11.521-12.093,22.044-12.093c10.525,0,15.61,5.337,22.048,12.093
			c7.108,7.461,15.955,16.746,32.908,16.746c16.952,0,25.799-9.285,32.908-16.746c6.042-6.34,10.893-11.43,20.167-12.032
			l-25.667,67.924c-3.163,8.368-11.297,13.99-20.243,13.99H378.36c-4.142,0-7.5,3.357-7.5,7.5s3.358,7.5,7.5,7.5h49.648
			c15.146,0,28.92-9.52,34.274-23.688l27.694-73.287h4.817c9.488,0,17.207-7.719,17.207-17.207
			c0-49.184-40.014-89.197-89.197-89.197h-51.652c-2.749-6.655-7.093-11.806-10.909-15.383c2.27-4.616,3.664-9.22,4.14-13.791
			c1.177-11.295-4.828-21.823-16.19-28.841c1.083-3.292,1.947-6.882,2.492-10.83c1.911-13.844-3.849-27.805-16.22-39.311
			c-3.244-3.019-7.724-4.082-11.985-2.836c-4.216,1.229-7.39,4.489-8.491,8.723c-3.388,13.034-18.813,20.395-35.143,28.186
			c-3.216,1.534-6.452,3.08-9.629,4.688c-2.844-9.138-7.224-17.657-13.078-25.4c-2.499-3.303-7.202-3.957-10.506-1.459
			s-3.957,7.202-1.459,10.506c5.486,7.255,9.378,15.345,11.627,24.064c-7.532,5.1-13.792,11.213-17.238,19.357
			c-2.096,4.955-3.841,13.323,1.406,23.117c-7.082,5.627-16.685,16.329-16.719,33.006c-0.001,0.728,0.024,1.447,0.063,2.161
			c-6.17-0.596-12.525-0.905-18.992-0.905c-14.397,0-27.995,1.505-39.714,4.215c-26.049-10.195-43.528-35.774-43.528-63.774
			c0-37.748,30.71-68.458,68.458-68.458c10.544,0,20.666,2.341,30.083,6.956c3.717,1.82,8.211,0.286,10.035-3.434
			c1.823-3.719,0.286-8.212-3.434-10.035c-11.489-5.632-23.832-8.487-36.685-8.487c-46.019,0-83.458,37.439-83.458,83.458
			c0,15.888,4.44,31.19,12.857,44.507H89.197c-8.789,0-17.5,1.289-25.891,3.831c-3.964,1.201-6.204,5.388-5.003,9.353
			c0.981,3.239,3.957,5.327,7.175,5.327c0.72,0,1.453-0.104,2.178-0.324c6.979-2.114,14.227-3.187,21.542-3.187h41.808
			c4.168,4.108,8.753,7.747,13.679,10.886c-5.785,2.698-10.479,5.828-13.774,9.31c-2.847,3.009-2.716,7.756,0.293,10.603
			c1.45,1.372,3.303,2.053,5.153,2.053c1.989,0,3.974-0.786,5.449-2.345c7.043-7.443,29.61-15.454,62.515-15.454
			c8.227,0,16.229,0.545,23.843,1.58c1.072,1.708,2.317,3.319,3.726,4.827c-3.843,2.159-7.051,4.54-9.488,7.115
			c-2.847,3.009-2.716,7.755,0.293,10.603c3.01,2.848,7.756,2.716,10.603-0.294c7.042-7.442,29.609-15.453,62.515-15.453
			s55.473,8.011,62.514,15.453c1.476,1.56,3.46,2.346,5.45,2.346c1.85,0,3.704-0.681,5.153-2.052
			c3.009-2.847,3.14-7.594,0.293-10.603C367.548,260.097,365.503,258.421,363.148,256.844z M295.812,241.722
			c-18.008,0-34.757,2.356-48.15,6.48c-1.332-0.715-2.568-1.567-3.675-2.563c-3.872-3.487-5.749-7.909-5.737-13.519
			c0.022-10.617,6.393-17.617,11.12-21.353c0.815,0.749,1.663,1.5,2.575,2.254c9.313,7.703,19.747,12.321,20.186,12.514
			c0.98,0.43,2.001,0.634,3.007,0.634c2.883,0,5.63-1.674,6.866-4.482c1.667-3.788-0.053-8.212-3.839-9.884
			c-0.324-0.144-32.136-14.991-25.788-29.991c4.428-10.466,18.271-17.07,32.928-24.063c17.323-8.266,35.193-16.792,41.83-33.721
			c5.225,5.717,10.015,13.771,8.69,23.37c-3.438,24.906-23.179,30.832-23.964,31.058c-3.999,1.079-6.366,5.195-5.288,9.194
			c1.078,3.999,5.192,6.367,9.195,5.288c0.866-0.234,15.507-4.393,25.74-19.13c4.019,2.758,8.622,7.366,7.955,13.757
			c-0.807,7.745-6.371,16.598-16.089,25.601c-3.039,2.814-3.22,7.561-0.405,10.599c1.478,1.596,3.488,2.403,5.504,2.403
			c1.823,0,3.652-0.661,5.095-1.998c3.063-2.838,5.789-5.683,8.188-8.529c3.572,3.848,7.146,9.446,7.161,16.48
			c0.012,5.609-1.865,10.031-5.737,13.519c-1.736,1.564-3.756,2.76-5.996,3.608C333.306,244.476,315.292,241.722,295.812,241.722z"
			/>
		<path d="M183.979,121.359c-26.099,0-47.332,21.233-47.332,47.332s21.233,47.332,47.332,47.332
			c26.099,0,47.332-21.233,47.332-47.332S210.078,121.359,183.979,121.359z M183.979,201.023c-17.828,0-32.332-14.504-32.332-32.332
			s14.504-32.332,32.332-32.332c17.828,0,32.332,14.504,32.332,32.332S201.807,201.023,183.979,201.023z"/>
		<path d="M183.979,146.638c-12.16,0-22.053,9.894-22.053,22.054s9.893,22.053,22.053,22.053s22.053-9.893,22.053-22.053
			S196.139,146.638,183.979,146.638z M183.979,175.744c-3.889,0-7.053-3.164-7.053-7.053c0-3.89,3.164-7.054,7.053-7.054
			s7.053,3.164,7.053,7.054C191.032,172.58,187.868,175.744,183.979,175.744z"/>
		<path d="M87.516,293.415c2.277,0,4.527-1.033,6.001-2.993l14.014-18.642c2.489-3.312,1.822-8.013-1.488-10.502
			c-3.311-2.487-8.013-1.822-10.502,1.488l-14.014,18.642c-2.489,3.312-1.822,8.013,1.488,10.502
			C84.366,292.925,85.947,293.415,87.516,293.415z"/>
		<path d="M424.484,293.415c1.568,0,3.15-0.49,4.501-1.505c3.311-2.489,3.977-7.19,1.488-10.502l-14.014-18.642
			c-2.49-3.312-7.19-3.978-10.502-1.488c-3.311,2.489-3.977,7.19-1.488,10.502l14.014,18.642
			C419.957,292.383,422.206,293.415,424.484,293.415z"/>
		<path d="M197.49,307.737c3.33,0,6.371-2.234,7.252-5.607l4.867-18.642c1.046-4.008-1.354-8.104-5.362-9.151
			c-4.009-1.049-8.105,1.354-9.151,5.362l-4.867,18.642c-1.046,4.008,1.354,8.104,5.362,9.151
			C196.226,307.658,196.863,307.737,197.49,307.737z"/>
		<path d="M314.51,307.737c0.627,0,1.265-0.079,1.899-0.245c4.008-1.047,6.409-5.144,5.362-9.151l-4.867-18.642
			c-1.046-4.008-5.145-6.408-9.151-5.362c-4.008,1.047-6.409,5.144-5.362,9.151l4.867,18.642
			C308.139,305.503,311.179,307.737,314.51,307.737z"/>
	</g>
</g>
<g>
</g>
<g>
</g>
<g>
</g>
<g>
</g>
<g>
</g>
<g>
</g>
<g>
</g>
<g>
</g>
<g>
</g>
<g>
</g>
<g>
</g>
<g>
</g>
<g>
</g>
<g>
</g>
<g>
</g>
</svg>
