<?xml version="1.0" encoding="iso-8859-1"?>
<!-- Generator: Adobe Illustrator 24.0.2, SVG Export Plug-In . SVG Version: 6.00 Build 0)  -->
<svg version="1.1" id="Capa_1" xmlns="http://www.w3.org/2000/svg" xmlns:xlink="http://www.w3.org/1999/xlink" x="0px" y="0px"
	 viewBox="0 0 512 512" style="enable-background:new 0 0 512 512;" xml:space="preserve">
<g>
	<path style="fill:#138B80;" d="M287.833,186.223V72.995h-63.666v113.228c0,0.4-0.241,0.758-0.61,0.913
		c-28.539,11.974-48.586,40.175-48.586,73.063v231.159c0,7.258,5.884,13.142,13.142,13.142h135.775
		c7.258,0,13.142-5.884,13.142-13.142V260.199c0-32.888-20.047-61.089-48.586-73.063
		C288.074,186.981,287.833,186.623,287.833,186.223z"/>
	<path style="fill:#127E73;" d="M287.83,186.22V72.99l-63.663,0.005v32.617h21.751c8.777,0,15.891,7.115,15.891,15.891v44.028
		h-37.64v20.687c0,0.401-0.242,0.76-0.611,0.915c-8.888,3.729-16.946,9.036-23.839,15.556l43.73,16.81
		c4.02,1.54,8.24,2.33,12.55,2.33s8.53-0.79,12.55-2.33l8.866-3.408c5.646-2.17,12.067-0.49,15.881,4.204
		C304.364,233.916,311,251.282,311,270.2v139.365H174.971v26.57h123.777c6.767,0,12.252,5.485,12.252,12.252v42.973
		c0,7.26-5.88,13.14-13.14,13.14h26.03c7.257,0,13.14-5.883,13.14-13.14V260.2c0-32.886-20.044-61.089-48.59-73.067
		C288.071,186.978,287.83,186.62,287.83,186.22z"/>
	<rect x="174.971" y="261.209" style="fill:#F82F40;" width="162.058" height="34.792"/>
	<path style="fill:#E22334;" d="M337.03,261.21V296H311v-25.8c0-3.04-0.17-6.04-0.51-8.99H337.03z"/>
	<path style="fill:#FCB44D;" d="M224.167,186.883l28.246,10.854c2.309,0.887,4.865,0.887,7.174,0l28.246-10.854v-42.275h-63.666
		V186.883z"/>
	<polygon style="fill:#FB9927;" points="287.83,144.61 287.83,186.88 261.82,196.88 261.81,196.88 261.81,144.61 	"/>
	<rect x="174.971" y="291.893" style="fill:#804EA0;" width="162.058" height="123.221"/>
	<rect x="311" y="291.89" style="fill:#6E4189;" width="26.03" height="123.22"/>
	<g>
		<path style="fill:#FCA863;" d="M285.333,59.944l3.792-41.535c0.535-5.857-4.077-10.909-9.959-10.909h-46.332
			c-5.882,0-10.493,5.052-9.959,10.909l3.792,41.535H285.333z"/>
		<path style="fill:#FC9744;" d="M289.12,18.41l-3.79,41.53h-23.19l3.79-41.53c0.53-5.86-4.08-10.91-9.96-10.91h23.2
			C285.05,7.5,289.66,12.55,289.12,18.41z"/>
	</g>
	<g>
		<ellipse style="fill:#FCB44D;" cx="256" cy="316.663" rx="39.06" ry="60.663"/>
		<path style="fill:#FB9927;" d="M295.06,316.66c0,33.51-17.49,60.67-39.06,60.67c-4.04,0-7.93-0.95-11.59-2.72
			c15.9-7.67,27.46-30.71,27.46-57.95c0-27.23-11.56-50.27-27.46-57.94c3.66-1.77,7.55-2.72,11.59-2.72
			C277.57,256,295.06,283.16,295.06,316.66z"/>
	</g>
	<g>
		<path style="fill:#20B69F;" d="M285.581,83.856h-59.357c-6.455,0-11.688-5.233-11.688-11.688V57.687
			c0-6.455,5.233-11.688,11.688-11.688h59.357c6.455,0,11.688,5.233,11.688,11.688v14.481
			C297.269,78.623,292.036,83.856,285.581,83.856z"/>
		<path style="fill:#17998C;" d="M297.27,57.69v14.48c0,6.45-5.23,11.69-11.69,11.69h-23.92c6.46,0,11.69-5.24,11.69-11.69V57.69
			c0-6.46-5.23-11.69-11.69-11.69h23.92C292.04,46,297.27,51.23,297.27,57.69z"/>
		<g>
			<path d="M311.003,396.763c4.142,0,7.5-3.357,7.5-7.5s-3.358-7.5-7.5-7.5h-8.698c-4.142,0-7.5,3.357-7.5,7.5s3.358,7.5,7.5,7.5
				H311.003z"/>
			<path d="M209.695,396.763c4.142,0,7.5-3.357,7.5-7.5s-3.358-7.5-7.5-7.5h-8.698c-4.142,0-7.5,3.357-7.5,7.5s3.358,7.5,7.5,7.5
				H209.695z"/>
			<path d="M295.333,182.012V88.663c5.638-3.346,9.437-9.479,9.437-16.496v-14.48c0-7.316-4.119-13.685-10.157-16.921l1.977-21.667
				c0.451-4.888-1.188-9.77-4.494-13.395C288.789,2.079,284.078,0,279.17,0h-46.34c-4.903,0-9.611,2.076-12.918,5.696
				c-3.309,3.622-4.953,8.502-4.51,13.398l1.978,21.581c-6.138,3.205-10.344,9.621-10.344,17.011v14.48
				c0,7.099,3.885,13.296,9.631,16.615v93.23c-30.029,14.393-49.196,44.62-49.196,78.188v75.607c0,4.143,3.358,7.5,7.5,7.5
				s7.5-3.357,7.5-7.5V299.39h28.419c-0.947,5.499-1.45,11.284-1.45,17.273c0,38.223,20.452,68.163,46.56,68.163
				s46.56-29.94,46.56-68.163c0-5.989-0.503-11.774-1.45-17.273h28.419v108.225H182.471v-36.413c0-4.143-3.358-7.5-7.5-7.5
				s-7.5,3.357-7.5,7.5v120.157c0,11.382,9.26,20.642,20.642,20.642h56.975c4.142,0,7.5-3.357,7.5-7.5s-3.358-7.5-7.5-7.5h-56.975
				c-3.111,0-5.642-2.531-5.642-5.642v-68.744h147.058v68.744c0,3.11-2.531,5.642-5.642,5.642h-43.405c-4.142,0-7.5,3.357-7.5,7.5
				s3.358,7.5,7.5,7.5h43.405c11.382,0,20.642-9.26,20.642-20.642V260.199C344.529,226.63,325.359,196.4,295.333,182.012z
				 M230.986,15.813c0.277-0.304,0.886-0.813,1.844-0.813h46.34c0.958,0,1.565,0.509,1.842,0.813
				c0.276,0.304,0.728,0.955,0.639,1.916l-1.895,20.77h-47.514l-1.903-20.764C230.253,16.773,230.708,16.118,230.986,15.813z
				 M222.036,57.687c0-2.31,1.879-4.188,4.188-4.188h59.357c2.31,0,4.188,1.879,4.188,4.188v14.48c0,2.31-1.879,4.188-4.188,4.188
				h-12.347c-4.142,0-7.5,3.357-7.5,7.5s3.358,7.5,7.5,7.5h7.099v45.752h-48.666V91.355h6.172c4.142,0,7.5-3.357,7.5-7.5
				s-3.358-7.5-7.5-7.5h-11.615c-2.309,0-4.188-1.879-4.188-4.188V57.687z M280.333,152.107v29.623l-23.435,9.005
				c-0.58,0.222-1.217,0.225-1.795,0.001l-23.437-9.006v-29.623H280.333z M224.345,194.986l25.38,9.753
				c2.023,0.776,4.148,1.165,6.275,1.165s4.253-0.389,6.278-1.166l25.378-9.752c23.538,10.766,39.275,33.174,41.571,58.724h-55.052
				c-5.559-3.36-11.691-5.21-18.174-5.21s-12.615,1.85-18.174,5.21h-55.052C185.07,228.161,200.806,205.754,224.345,194.986z
				 M274.229,253.741c-0.002-0.001-0.005-0.002-0.007-0.004C274.239,253.739,274.245,253.74,274.229,253.741z M237.777,253.738
				c-0.002,0.001-0.004,0.002-0.007,0.004C237.755,253.74,237.761,253.739,237.777,253.738z M214.817,284.39h-32.346v-15.68h40.158
				C219.536,273.325,216.9,278.596,214.817,284.39z M256,369.826c-17.107,0-31.56-24.346-31.56-53.163S238.893,263.5,256,263.5
				s31.56,24.346,31.56,53.163S273.107,369.826,256,369.826z M329.529,284.39h-32.346c-2.083-5.793-4.719-11.065-7.812-15.68h40.158
				V284.39z"/>
		</g>
	</g>
</g>
<g>
</g>
<g>
</g>
<g>
</g>
<g>
</g>
<g>
</g>
<g>
</g>
<g>
</g>
<g>
</g>
<g>
</g>
<g>
</g>
<g>
</g>
<g>
</g>
<g>
</g>
<g>
</g>
<g>
</g>
</svg>
