<?xml version="1.0" encoding="iso-8859-1"?>
<!-- Generator: Adobe Illustrator 24.0.2, SVG Export Plug-In . SVG Version: 6.00 Build 0)  -->
<svg version="1.1" id="Capa_1" xmlns="http://www.w3.org/2000/svg" xmlns:xlink="http://www.w3.org/1999/xlink" x="0px" y="0px"
	 viewBox="0 0 511.995 511.995" style="enable-background:new 0 0 511.995 511.995;" xml:space="preserve">
<g>
	<g>
		<path style="fill:#E5D8EC;" d="M351.261,7.5H138.055c-5.692,0-10.306,4.614-10.306,10.306v162.047
			c0,45.554,26.055,85.019,64.075,104.312c22.734,11.536,37.375,34.52,37.375,60.014v122.862c0,8.324,6.397,15.487,14.712,15.878
			c8.878,0.418,16.207-6.656,16.207-15.442V344.179c0-25.493,14.641-48.477,37.375-60.014
			c38.02-19.293,64.075-58.758,64.075-104.312V17.806C361.567,12.114,356.953,7.5,351.261,7.5z"/>
		<path style="fill:#D9C7E4;" d="M361.57,17.807v162.044c0,45.557-26.062,85.017-64.08,104.316
			c-22.734,11.534-37.37,34.514-37.37,60.016v123.29c0,8.785-7.333,15.863-16.206,15.451c-8.324-0.393-14.714-7.558-14.714-15.883
			V344.183c0-7.205-1.168-14.214-3.357-20.82c5.556-16.756,17.708-30.921,34.013-39.196c38.018-19.299,64.07-58.759,64.07-104.316
			V17.807c0-5.693-4.614-10.307-10.297-10.307h37.635C356.957,7.5,361.57,12.114,361.57,17.807z"/>
		<path style="fill:#CDB4DB;" d="M135.192,220.963c10.324,27.475,30.688,50.037,56.631,63.202
			c22.734,11.536,37.375,34.52,37.375,60.014v122.863c0,8.324,6.397,15.487,14.712,15.878c8.878,0.418,16.207-6.656,16.207-15.442
			V344.179c0-25.493,14.641-48.477,37.375-60.014c25.944-13.165,46.307-35.727,56.632-63.202H135.192z"/>
		<path style="fill:#B18BC8;" d="M274.07,303.495c-8.854,11.465-13.949,25.64-13.949,40.688v1.845h-0.187
			c-4.81,0-9.659-1.09-14.008-3.161c-4.584-2.189-10.572-4.064-17.07-5.379c-1.266-12.545-6.086-24.246-13.615-33.993H274.07z"/>
		<path style="fill:#FC9744;" d="M361.57,166.177v13.674c0,45.557-26.062,85.017-64.08,104.316
			c-9.315,4.721-17.267,11.377-23.411,19.328h-58.838c-6.155-7.951-14.106-14.607-23.421-19.328
			c-38.018-19.299-64.07-58.759-64.07-104.316v-13.674H361.57z"/>
		<circle style="fill:#FEE7C9;" cx="205.377" cy="166.177" r="30.832"/>
		<path style="fill:#FFD496;" d="M236.208,166.18c0,17.03-13.8,30.83-30.83,30.83c-6.2,0-11.96-1.83-16.79-4.97
			c13.69-3.15,23.89-15.41,23.89-30.05c0-10.84-5.59-20.37-14.04-25.86c2.23-0.51,4.55-0.78,6.94-0.78
			C222.408,135.35,236.208,149.15,236.208,166.18z"/>
		<path style="fill:#FCC16D;" d="M236.209,166.177c0,17.028-13.804,30.832-30.832,30.832s-30.832-13.804-30.832-30.832H236.209z"/>
		<path style="fill:#FCA62F;" d="M236.208,166.18c0,17.03-13.8,30.83-30.83,30.83c-6.2,0-11.96-1.83-16.79-4.97
			c12.36-2.84,21.88-13.12,23.61-25.86H236.208z"/>
		<path style="fill:#F98824;" d="M361.57,166.177v13.674c0,45.557-26.062,85.017-64.08,104.316
			c-9.315,4.721-17.267,11.377-23.411,19.328h-37.635c6.145-7.951,14.096-14.607,23.411-19.328
			c38.018-19.299,64.07-58.759,64.07-104.316v-13.674H361.57z"/>
		<path style="fill:#915EB2;" d="M350.174,230.208c-11.122,23.274-29.713,42.298-52.683,53.959
			c-9.315,4.721-17.267,11.377-23.411,19.328h-58.838c-6.155-7.951-14.106-14.607-23.421-19.328
			c-22.96-11.662-41.552-30.685-52.683-53.959H350.174z"/>
		<path style="fill:#6E4189;" d="M350.174,230.208c-11.122,23.274-29.713,42.298-52.683,53.959
			c-9.315,4.721-17.267,11.377-23.411,19.328h-37.635c6.145-7.951,14.096-14.607,23.411-19.328
			c22.97-11.662,41.571-30.685,52.693-53.959H350.174z"/>
		<path style="fill:#E5D8EC;" d="M319,504.495H170.257c-5.692,0-10.306-4.614-10.306-10.306v-2.72
			c0-12.981,10.523-23.504,23.504-23.504h122.347c12.981,0,23.504,10.523,23.504,23.504v2.72
			C329.306,499.881,324.692,504.495,319,504.495z"/>
		<path style="fill:#D9C7E4;" d="M329.305,491.474v2.719c0,5.683-4.614,10.307-10.307,10.307h-32.197
			c5.693,0,10.307-4.623,10.307-10.307v-2.719c0-12.987-10.523-23.51-23.51-23.51h32.207
			C318.782,467.964,329.305,478.487,329.305,491.474z"/>
		<g>
			<g>
				<g>
					<g>
						<g>
							<path style="fill:#E1DDE1;" d="M365.932,219.071l-20.597-13.634c-3.842-2.543-8.685-2.361-12.278,0.075
								c-1.504,1.019-2.414,2.706-2.558,4.517c-0.888,11.174-6.2,22.477-15.641,31.113c-7.848,7.191-17.296,11.364-26.7,12.51
								c-0.898,0.109-1.754,0.438-2.47,0.99l-0.011,0.008c-4.818,3.739-5.703,10.668-1.964,15.486l14.717,18.939
								c3.676,4.726,10.414,5.635,15.256,2.123l0.19-0.137c2.286-1.655,3.766-4.166,4.235-6.949
								c1.668-9.901,6.792-19.665,15.165-27.327c7.214-6.607,15.772-10.669,24.408-12.169c2.885-0.501,5.492-2.039,7.22-4.403
								c1.534-2.097,2.888-4.028,4.065-5.76C372.422,229.374,371.045,222.456,365.932,219.071z"/>
							<path style="fill:#CBC5CB;" d="M368.973,234.458c-1.178,1.728-2.533,3.661-4.064,5.752c-1.728,2.366-4.339,3.907-7.225,4.407
								c-8.638,1.502-17.188,5.566-24.403,12.172c-8.373,7.657-13.497,17.424-15.166,27.328c-0.471,2.778-1.953,5.291-4.241,6.94
								l-0.187,0.138c-4.839,3.514-11.583,2.611-15.254-2.12l-4.996-6.43c2.336,0.049,4.702-0.648,6.734-2.12l0.187-0.137
								c2.287-1.649,3.769-4.162,4.241-6.95c1.659-9.895,6.793-19.662,15.156-27.328c7.215-6.606,15.775-10.66,24.413-12.162
								c2.886-0.501,5.487-2.042,7.225-4.407c1.531-2.091,2.886-4.025,4.064-5.762c2.327-3.426,2.454-7.706,0.717-11.161
								l9.757,6.459C371.044,222.452,372.418,229.373,368.973,234.458z"/>
						</g>
						<g>
							<path style="fill:#E1DDE1;" d="M377.821,189.889l-28.103-6.612c-2.576-0.606-4.294-3.039-3.995-5.668
								c0.807-7.118,2.175-21.307,1.927-33.924c-0.116-5.903,4.647-10.75,10.552-10.802h0c3.393-0.03,6.588,1.561,8.624,4.276
								c5.181,6.908,14.378,22.244,17.383,47.013C384.646,187.777,381.356,190.72,377.821,189.889z"/>
							<path style="fill:#CBC5CB;" d="M377.826,189.893l-12.879-3.033c0-0.078-0.01-0.147-0.02-0.226
								c-2.896-23.893-11.554-39.009-16.815-46.244c1.315-4.319,5.33-7.47,10.091-7.509h0.088c3.357,0,6.518,1.59,8.53,4.28
								c5.183,6.911,14.381,22.243,17.384,47.009C384.648,187.773,381.36,190.718,377.826,189.893z"/>
						</g>
					</g>
				</g>
			</g>
			<g>
				<path style="fill:#E1DDE1;" d="M188.591,265.594l-13.008,23.198c-2.112,3.766-0.902,8.523,2.753,10.823
					c3.854,2.425,9.198,5.645,15.377,8.976c3.168,1.707,6.741,2.502,10.336,2.352c6.4-0.266,13.423,0.038,20.738,0.995
					c12.312,1.614,23.361,4.798,31.699,8.772c2.126,1.013,4.601,1.045,6.745,0.068c6.243-2.845,10.688-6.67,13.715-10.076
					c3.406-3.833,2.394-9.835-2.054-12.386l-26.355-15.114c-1.369-0.785-2.933-1.144-4.509-1.059
					c-5.823,0.315-22.421-0.702-43.049-18.695C197.106,260.071,191.104,261.112,188.591,265.594z"/>
				<path style="fill:#CBC5CB;" d="M276.946,310.7c-2.376,2.68-5.625,5.615-9.944,8.128c-0.609-1.777-1.845-3.367-3.632-4.388
					l-26.356-15.107c-1.364-0.785-2.925-1.149-4.506-1.06c-5.821,0.314-22.42-0.707-43.044-18.7
					c-2.258-1.963-5.222-2.434-7.814-1.59l6.94-12.388c2.513-4.486,8.511-5.526,12.388-2.15
					c20.624,17.993,37.223,19.014,43.044,18.7c1.58-0.088,3.141,0.275,4.515,1.06l26.356,15.107
					C279.341,300.865,280.352,306.872,276.946,310.7z"/>
			</g>
		</g>
	</g>
	<g>
		<path d="M127.749,88.166c4.143,0,7.5-3.357,7.5-7.5V17.807c0-1.548,1.259-2.807,2.806-2.807h137.551c4.143,0,7.5-3.357,7.5-7.5
			s-3.357-7.5-7.5-7.5H138.055c-9.818,0-17.806,7.988-17.806,17.807v62.859C120.249,84.809,123.606,88.166,127.749,88.166z"/>
		<path d="M391.653,183.269c-3.211-26.472-13.175-43.07-18.828-50.609c-1.074-1.432-2.345-2.681-3.759-3.721V17.807
			C369.066,7.988,361.079,0,351.261,0H311c-4.143,0-7.5,3.357-7.5,7.5s3.357,7.5,7.5,7.5h40.261c1.547,0,2.806,1.259,2.806,2.807
			v108.085c-3.322,0.788-6.363,2.486-8.803,4.997c-3.393,3.49-5.208,8.087-5.113,12.942c0.096,4.871-0.061,9.994-0.333,14.847
			h-96.85c-3.497-17.557-19.021-30.832-37.591-30.832c-18.569,0-34.092,13.275-37.59,30.832h-32.538v-42.616
			c0-4.143-3.357-7.5-7.5-7.5s-7.5,3.357-7.5,7.5v63.792c0,39.992,19.116,77.287,51.357,100.696l-2.565,4.574
			c-4.068,7.255-1.74,16.408,5.299,20.839c5.192,3.268,10.514,6.373,15.815,9.231c4.32,2.328,9.22,3.458,14.205,3.242
			c3.695-0.153,7.529-0.077,11.439,0.176c3.849,7.962,5.899,16.749,5.899,25.567v116.286h-38.244
			c-17.096,0-31.004,13.908-31.004,31.004v2.721c0,9.818,7.988,17.806,17.807,17.806H319c9.818,0,17.806-7.987,17.806-17.806v-2.721
			c0-16.718-13.598-30.619-30.311-30.988c-4.181-0.071-7.573,3.192-7.664,7.332c-0.092,4.142,3.191,7.573,7.332,7.664
			c8.626,0.19,15.643,7.364,15.643,15.992v2.721c0,1.547-1.259,2.806-2.806,2.806H170.257c-1.548,0-2.807-1.259-2.807-2.806v-2.721
			c0-8.824,7.18-16.004,16.004-16.004h87.479c4.143,0,7.5-3.357,7.5-7.5s-3.357-7.5-7.5-7.5h-3.316V344.179
			c0-6.441,1.06-12.776,3.128-18.855c4.446-2.584,8.405-5.811,11.807-9.641c3.121-3.514,4.476-8.192,3.717-12.837
			c-0.077-0.472-0.189-0.931-0.307-1.389c2.413-2.323,5.012-4.452,7.779-6.357c3.589,3.775,8.448,5.753,13.382,5.753
			c3.8,0,7.641-1.17,10.974-3.587l0.18-0.13c3.854-2.792,6.422-6.974,7.23-11.775c1.452-8.614,6.01-16.797,12.835-23.043
			c5.931-5.432,13.063-8.997,20.626-10.311c4.879-0.848,9.138-3.463,11.992-7.366c1.462-2,2.879-4.008,4.216-5.973
			c2.801-4.124,3.812-9.091,2.847-13.984c-0.967-4.896-3.79-9.111-7.95-11.866h-0.001l-4.627-3.063
			c1.17-4.744,2.063-9.576,2.668-14.445l7.99,1.88c0.964,0.227,1.94,0.338,2.91,0.338c3.099,0,6.135-1.134,8.493-3.246
			C390.604,191.509,392.154,187.392,391.653,183.269z M205.377,142.846c10.242,0,18.957,6.636,22.088,15.832H183.29
			C186.421,149.482,195.135,142.846,205.377,142.846z M227.465,173.678c-3.131,9.196-11.846,15.831-22.088,15.831
			s-18.956-6.635-22.087-15.831H227.465z M151.794,237.713h155.522c-5.908,4.638-12.924,7.624-20.064,8.494
			c-2.229,0.272-4.328,1.116-6.074,2.444c-0.032,0.024-0.065,0.049-0.097,0.074c-8.079,6.27-9.556,17.938-3.288,26.013l6.656,8.565
			c-2.999,2.121-5.837,4.453-8.496,6.976l-23.685-13.583c-2.614-1.501-5.599-2.209-8.646-2.043
			c-4.057,0.224-18.786-0.348-37.714-16.857c-3.555-3.102-8.259-4.416-12.91-3.614c-4.651,0.805-8.643,3.627-10.95,7.743
			L179,267.363C168.038,259.132,158.863,249.053,151.794,237.713z M208.578,303.35c-1.631,0-3.245,0.033-4.841,0.1
			c-2.272,0.084-4.517-0.41-6.466-1.46c-6.235-3.361-11.567-6.599-14.941-8.723c-0.272-0.171-0.363-0.525-0.205-0.807l13.008-23.198
			c0,0,0,0,0-0.001c0.038-0.067,0.14-0.249,0.423-0.298c0.284-0.047,0.435,0.086,0.493,0.138
			c22.553,19.672,41.348,20.917,48.383,20.532c0.093-0.007,0.246,0.003,0.372,0.075l26.356,15.114
			c0.063,0.037,0.258,0.148,0.306,0.441c0.043,0.266-0.077,0.4-0.127,0.457c-3.091,3.479-6.865,6.249-11.218,8.232
			c-0.119,0.056-0.277,0.049-0.409-0.014c-9.311-4.438-21.367-7.789-33.951-9.438C219.906,303.735,214.148,303.35,208.578,303.35z
			 M236.698,460.465V344.179c0-7.892-1.299-15.767-3.79-23.26c7.616,1.59,14.642,3.841,20.353,6.563
			c0.384,0.183,0.778,0.33,1.171,0.479c-1.2,5.307-1.814,10.732-1.814,16.218v116.286H236.698z M362.771,230.237
			c-1.238,1.82-2.557,3.688-3.918,5.55c-0.548,0.75-1.419,1.262-2.45,1.44c-10.394,1.806-20.142,6.656-28.188,14.026
			c-9.278,8.491-15.492,19.718-17.497,31.613c-0.151,0.898-0.592,1.651-1.248,2.128l-0.184,0.133
			c-1.586,1.149-3.753,0.86-4.932-0.654l-14.714-18.936c-0.779-1.005-0.78-2.063-0.712-2.604c0.058-0.45,0.25-1.232,0.889-1.934
			c11.125-1.515,21.521-6.459,30.104-14.325c10.368-9.482,16.737-21.993,17.99-35.304c1.072-0.44,2.296-0.334,3.285,0.319
			l20.596,13.634c1.069,0.707,1.408,1.721,1.515,2.262C363.413,228.125,363.483,229.187,362.771,230.237z M352.044,200.884
			l-2.568-1.7c-6.286-4.161-14.382-4.114-20.626,0.12c-3.374,2.287-5.497,5.98-5.826,10.131c-0.365,4.595-1.604,9.078-3.608,13.278
			H143.982c-5.684-13.353-8.733-27.891-8.733-42.859v-6.176h32.538c3.497,17.557,19.02,30.831,37.589,30.831
			c18.57,0,34.093-13.274,37.59-30.831h95.638c-0.117,1.126-0.23,2.163-0.334,3.084c-0.728,6.399,3.455,12.339,9.729,13.816
			l5.41,1.273C353.079,194.881,352.625,197.897,352.044,200.884z M353.397,176.438c0.843-7.859,1.983-21,1.751-32.901
			c-0.022-1.105,0.536-1.85,0.871-2.193c0.345-0.354,1.095-0.951,2.246-0.961c1.019-0.034,1.953,0.468,2.56,1.276
			c4.526,6.035,12.351,19.081,15.499,40.173L353.397,176.438z"/>
		<path d="M250.85,198.126h-0.102c-4.143,0-7.5,3.357-7.5,7.5s3.357,7.5,7.5,7.5h0.102c4.143,0,7.5-3.357,7.5-7.5
			S254.992,198.126,250.85,198.126z"/>
		<path d="M279.025,183.58h-0.102c-4.143,0-7.5,3.357-7.5,7.5s3.357,7.5,7.5,7.5h0.102c4.143,0,7.5-3.357,7.5-7.5
			S283.168,183.58,279.025,183.58z"/>
	</g>
</g>
<g>
</g>
<g>
</g>
<g>
</g>
<g>
</g>
<g>
</g>
<g>
</g>
<g>
</g>
<g>
</g>
<g>
</g>
<g>
</g>
<g>
</g>
<g>
</g>
<g>
</g>
<g>
</g>
<g>
</g>
</svg>
