<?xml version="1.0" encoding="iso-8859-1"?>
<!-- Generator: Adobe Illustrator 24.0.2, SVG Export Plug-In . SVG Version: 6.00 Build 0)  -->
<svg version="1.1" id="Capa_1" xmlns="http://www.w3.org/2000/svg" xmlns:xlink="http://www.w3.org/1999/xlink" x="0px" y="0px"
	 viewBox="0 0 511.997 511.997" style="enable-background:new 0 0 511.997 511.997;" xml:space="preserve">
<g>
	<g>
		<g>
			<g>
				<g>
					<g>
						<path style="fill:#138B80;" d="M31.083,478.012l149.769-149.769l-19.57-19.57L11.513,458.442c-5.35,5.35-5.35,14.024,0,19.374
							c0.065,0.065,0.13,0.13,0.196,0.196C17.059,483.362,25.733,483.362,31.083,478.012z"/>
						<path style="fill:#127E73;" d="M180.852,328.243l-21.788,21.788l-16.037-16.037c-1.194-1.194-2.296-2.452-3.313-3.751
							l21.569-21.569L180.852,328.243z"/>
					</g>
				</g>
				<path style="fill:#915EB2;" d="M473.039,140.092L239.341,373.79c-5.85,5.85-15.338,5.857-21.194,0l-57.458-57.458
					c-5.857-5.857-5.85-15.345,0-21.194L394.386,61.439L473.039,140.092z"/>
				<path style="fill:#804EA0;" d="M394.386,61.439l-31.467,31.467c8.732,11.205,20.742,24.995,37.203,41.456
					c0.054,0.054,0.109,0.109,0.163,0.163c8.292,8.286,8.327,21.711,0.038,30L215.201,349.649c-5.85,5.85-15.345,5.85-21.194,0
					l24.141,24.141c5.853,5.853,15.342,5.853,21.194,0l233.698-233.698L394.386,61.439z"/>
				<g>
					<path style="fill:#FEE7C9;" d="M393.44,142.462c-4.93,21.05-17.65,38.05-37.82,50.54c-22.82,14.12-40.78,14.05-58.14,14.03
						c-14.53-0.04-29.56-0.09-52.33,7.5c-1.57,0.53-3.16,0.82-4.74,0.89l43.24-43.24c5-0.18,9.61-0.16,13.93-0.15
						c15.78,0.04,25.31,0.06,39.62-8.79c18.68-11.57,26.09-28.23,22.63-50.93c-0.71-4.65-1.81-9.13-3.08-13.23l27.08-27.08
						C390.91,87.852,399.83,115.162,393.44,142.462z"/>
				</g>
				<g>
					<path style="fill:#FFD496;" d="M395.38,129.572c-14.05-14.36-24.58-26.56-32.46-36.66l20.91-20.91
						C389.79,85.352,397.06,106.822,395.38,129.572z"/>
				</g>
				<g>
					<path style="fill:#FEE7C9;" d="M327.68,248.452c-22.42-9.29-52.72-10.22-90.05-2.75c-11.4,2.28-21.29,2.83-29.78,2.29h-0.01
						l-29.81,29.81c16.59,5.33,38.55,7.8,66.47,2.22c62.67-12.54,78.96,6.12,80.1,7.56c0.12,0.2,0.24,0.39,0.37,0.58l24.86-24.86
						C345.63,258.762,338.65,253.002,327.68,248.452z"/>
				</g>
				<g>
					<path style="fill:#FFD496;" d="M327.68,248.452c-2.66-1.1-5.44-2.09-8.33-2.95L289,275.841c26.54,1.24,34.8,10.73,35.6,11.74
						c0.12,0.2,0.24,0.39,0.37,0.58l24.86-24.86C345.63,258.762,338.65,253.002,327.68,248.452z"/>
				</g>
				<g>
					<path style="fill:#FEE7C9;" d="M302.99,310.142l-31.7,31.7c-3.54-0.06-7.28,0.01-11.16,0.27c-21.01,1.4-39.52,7.55-55.29,18.37
						l-25.05-25.05c22.41-16.91,49.41-26.6,79.48-28.34C277.62,306.032,293.29,308.202,302.99,310.142z"/>
				</g>
				<g>
					<path style="fill:#FFD496;" d="M302.99,310.142l-31.7,31.7c-3.54-0.06-7.28,0.01-11.16,0.27c-21.01,1.4-39.52,7.55-55.29,18.37
						l-10.83-10.83c5.85,5.85,15.34,5.85,21.19,0l42.45-42.45c0.54-0.04,1.08-0.08,1.62-0.11
						C277.62,306.032,293.29,308.202,302.99,310.142z"/>
				</g>
				<g>
					<path style="fill:#FFD496;" d="M473.04,140.092l-87.17,87.17c17.24-26.53,30.46-59.11,37.21-85.85
						c6.46-25.53,5.61-42.89,5.6-43.06c-0.06-0.88-0.05-1.75,0.01-2.61L473.04,140.092z"/>
				</g>
			</g>
		</g>
		<g>
			<path style="fill:#FB8627;" d="M485.12,162.611l19.322-126.883c0.507-3.33-2.36-6.198-5.691-5.691L371.867,49.359
				c-3.474,0.529-5.343,4.386-3.581,7.426c5.493,9.478,19.075,29.498,49.492,59.915c30.417,30.417,50.437,43.999,59.915,49.492
				C480.734,167.954,484.591,166.085,485.12,162.611z"/>
			<path style="fill:#F2671F;" d="M477.695,166.197c-5.73-3.328-15.317-9.608-28.719-20.778c2.812,0.876,5.913-0.94,6.387-4.027
				L471.69,34.155l27.065-4.119c3.327-0.502,6.189,2.36,5.687,5.687L485.12,162.615C484.59,166.084,480.733,167.949,477.695,166.197
				z"/>
			<path d="M508.338,26.139c-2.799-2.797-6.806-4.111-10.716-3.516l-32.102,4.887c-4.095,0.624-6.909,4.449-6.286,8.544
				c0.624,4.096,4.454,6.913,8.543,6.285l28.736-4.375l-18.246,119.818c-9.987-6.231-28.394-19.594-55.187-46.386
				c-26.793-26.793-40.155-45.199-46.386-55.187l56.323-8.577c4.095-0.623,6.909-4.448,6.286-8.543
				c-0.624-4.096-4.449-6.91-8.543-6.285l-60.023,9.14c-4.092,0.623-7.604,3.224-9.394,6.957c-1.785,3.723-1.615,8.076,0.453,11.644
				c1.909,3.294,4.814,7.907,9.072,13.809l-39.462,39.453c-2.929,2.929-2.93,7.677-0.001,10.606
				c1.464,1.465,3.384,2.197,5.304,2.197c1.919,0,3.838-0.732,5.303-2.196l10.473-10.47c2.818,19.401-3.3,33.05-19.23,42.918
				c-11.274,6.973-18.695,7.643-31.362,7.673l15.091-15.091c2.929-2.93,2.929-7.678,0-10.607c-2.929-2.928-7.678-2.928-10.606,0
				L155.382,289.833c-5.492,5.502-7.537,13.163-6.14,20.272L6.209,453.138C2.206,457.142,0,462.466,0,468.129
				s2.206,10.986,6.209,14.99l0.196,0.197c4.133,4.132,9.562,6.198,14.99,6.198s10.857-2.066,14.99-6.198l140.34-140.341
				l16.523,16.523c-22.28,12.235-36.571,27.915-41.483,45.635c-0.02,0.071-0.039,0.144-0.056,0.215
				c-2,8.144,0.308,16.563,6.5,23.704c4.292,4.949,10.081,8.845,15.783,10.922c0.68,5.555,2.237,11.007,4.858,15.959
				c6.651,12.567,18.716,19.373,34.181,19.372c1.009,0,2.033-0.028,3.07-0.087c4.135-0.232,7.3-3.772,7.068-7.908
				c-0.232-4.136-3.779-7.284-7.909-7.068c-11.058,0.634-18.847-3.188-23.152-11.325c-1.345-2.542-2.278-5.345-2.852-8.265
				c16.772-4.336,27.74-21.007,28.458-32.542c0.507-8.151-3.896-14.489-11.218-16.147c-8.636-1.959-17.156,1.578-23.371,9.696
				c-4.166,5.441-7.331,13.245-8.738,21.796c-1.672-1.108-3.358-2.514-4.845-4.229c-2.968-3.424-4.075-6.856-3.29-10.203
				c5.126-18.262,23.161-30.86,38.094-38.426l8.499,8.499c4.383,4.383,10.141,6.574,15.898,6.574c5.757,0,11.515-2.191,15.898-6.574
				l215.484-215.484c5.901,4.256,10.511,7.16,13.804,9.069c1.929,1.118,4.087,1.682,6.251,1.682c1.84,0,3.684-0.407,5.394-1.228
				c3.733-1.789,6.334-5.301,6.958-9.395l19.322-126.882C512.452,32.945,511.137,28.938,508.338,26.139z M195.036,410.776
				c2.8-3.657,5.213-4.349,6.782-4.349c0.358,0,0.672,0.036,0.937,0.081c0.072,1.261-0.417,4.303-2.876,8.27
				c-2.247,3.624-5.922,7.552-10.535,9.873C190.392,419.167,192.411,414.204,195.036,410.776z M418.388,127.833
				c-0.732,3.901-1.592,7.84-2.58,11.743c-7.065,27.987-20.333,58.814-35.492,82.461c-0.084,0.131-0.155,0.267-0.23,0.402
				l-30.425,30.425c-5.416-4.505-11.812-8.313-19.11-11.34c-23.827-9.872-55.584-10.94-94.392-3.176
				c-3.268,0.653-6.476,1.163-9.621,1.542l17.321-17.321c1.245-0.216,2.475-0.521,3.663-0.922c21.578-7.193,35.324-7.15,49.95-7.115
				h0.183c17.499,0.023,37.354,0.044,61.914-15.154c21.92-13.573,35.773-32.147,41.174-55.207
				c2.385-10.191,2.995-20.994,1.842-32.306c3.09,3.249,6.376,6.624,9.891,10.14C414.491,124.02,416.46,125.96,418.388,127.833z
				 M382.464,89.293c5.979,18.645,7.26,36.132,3.674,51.459c-4.459,19.038-16.055,34.473-34.464,45.872
				c-20.923,12.946-37.009,12.938-54.002,12.908h-0.225c-9.955-0.028-20.15-0.04-32.77,2.219l22.154-22.154
				c3.522-0.077,6.866-0.074,10.105-0.067l0.625,0.002c15.935,0.054,27.445,0.069,43.588-9.914
				c21.222-13.146,30.002-32.806,26.095-58.438c-0.495-3.241-1.197-6.566-2.077-9.914l14.906-14.903
				C380.847,87.321,381.638,88.293,382.464,89.293z M165.993,300.435l14.187-14.187c10.645,2.947,21.93,4.439,33.792,4.439
				c10.261,0,20.948-1.104,32-3.313c6.071-1.215,11.979-2.179,17.559-2.866c4.111-0.506,7.033-4.249,6.527-8.36
				s-4.252-7.043-8.36-6.526c-5.951,0.732-12.231,1.757-18.667,3.044c-18.105,3.62-34.992,3.98-50.368,1.1l18.146-18.145
				c8.899,0.265,18.402-0.587,28.294-2.565c35.84-7.173,64.677-6.39,85.705,2.323c5.413,2.246,10.156,4.98,14.19,8.148
				l-14.325,14.325c-4.852-3.236-12.876-6.898-25.642-8.636c-4.107-0.561-7.885,2.316-8.444,6.42
				c-0.559,4.104,2.315,7.884,6.419,8.443c7.999,1.089,13.317,3.027,16.697,4.742l-13.223,13.223
				c-10.051-1.76-24.746-3.417-41.643-2.44c-29.282,1.695-55.576,10.458-78.24,26.028l-14.604-14.604
				C163.075,308.11,163.077,303.356,165.993,300.435z M268.179,334.346c-2.885,0.018-5.757,0.096-8.548,0.282
				c-20.027,1.335-38.092,6.808-53.763,16.275l-14.46-14.459c19.858-13.027,42.793-20.389,68.294-21.865
				c10.276-0.592,19.661-0.121,27.511,0.732L268.179,334.346z M25.78,472.709c-2.417,2.417-6.351,2.418-8.768,0l-0.196-0.197
				c-1.171-1.171-1.816-2.728-1.816-4.383s0.645-3.212,1.816-4.383l140.34-140.341l8.963,8.963L25.78,472.709z M234.037,368.488
				c-2.918,2.918-7.666,2.918-10.583,0l-6.601-6.601c10.548-5.806,22.333-9.622,35.189-11.404L234.037,368.488z M415.373,187.152
				c6.189-14.538,11.362-29.574,14.979-43.9c0.286-1.129,0.56-2.261,0.826-3.395c6.232,5.653,11.878,10.462,16.94,14.551
				L415.373,187.152z"/>
		</g>
	</g>
</g>
<g>
</g>
<g>
</g>
<g>
</g>
<g>
</g>
<g>
</g>
<g>
</g>
<g>
</g>
<g>
</g>
<g>
</g>
<g>
</g>
<g>
</g>
<g>
</g>
<g>
</g>
<g>
</g>
<g>
</g>
</svg>
