<?xml version="1.0" encoding="iso-8859-1"?>
<!-- Generator: Adobe Illustrator 24.0.2, SVG Export Plug-In . SVG Version: 6.00 Build 0)  -->
<svg version="1.1" id="Capa_1" xmlns="http://www.w3.org/2000/svg" xmlns:xlink="http://www.w3.org/1999/xlink" x="0px" y="0px"
	 viewBox="0 0 511.997 511.997" style="enable-background:new 0 0 511.997 511.997;" xml:space="preserve">
<g>
	<g>
		<path style="fill:#554E55;" d="M504.414,430.848L458.757,74.096c-0.653-5.103-4.997-8.926-10.142-8.926H66.295
			c-6.162,0-10.924,5.41-10.142,11.522l45.657,356.751c0.653,5.103,4.997,8.926,10.142,8.926h382.321
			C500.434,442.37,505.196,436.96,504.414,430.848z"/>
		<path style="fill:#433F43;" d="M494.272,442.368H452.69c6.155,0,10.92-5.409,10.142-11.523L417.171,74.092
			c-0.654-5.102-5-8.926-10.142-8.926h41.592c5.143,0,9.488,3.824,10.132,8.926l45.661,356.754
			C505.192,436.96,500.437,442.368,494.272,442.368z"/>
		<path style="fill:#FC9744;" d="M400.053,475.042H17.724c-6.149,0-10.907-5.388-10.146-11.49L56.149,74.129
			c0.638-5.118,4.988-8.959,10.146-8.959h382.329c6.149,0,10.907,5.388,10.146,11.49l-48.571,389.423
			C409.561,471.201,405.211,475.042,400.053,475.042z"/>
		<path style="fill:#FB8627;" d="M448.621,65.166h-43.903c0.024,0,0.048,0.004,0.072,0.004H66.295
			c-5.157,0-9.507,3.841-10.146,8.959l-11.225,90.002h322.362c19.47,0,34.535,17.062,32.126,36.382l-33.126,265.566
			c-0.634,5.122-4.989,8.967-10.142,8.967h43.913c5.153,0,9.509-3.844,10.142-8.967l48.575-389.42
			C459.53,70.554,454.776,65.166,448.621,65.166z"/>
		<path style="fill:#20B69F;" d="M458.774,76.658l-7.402,59.311H48.435l7.719-61.836c0.634-5.122,4.979-8.967,10.142-8.967h382.325
			C454.776,65.166,459.53,70.554,458.774,76.658z"/>
		<path style="fill:#17998C;" d="M458.774,76.658l-7.402,59.311h-43.913l7.402-59.311c0.757-6.104-3.998-11.492-10.142-11.492
			h43.903C454.776,65.166,459.53,70.554,458.774,76.658z"/>
		<g>
			<g>
				<path style="fill:#E22334;" d="M178.968,173.949c-31.787-0.088-61.186,25.879-65.484,57.717
					c-1.357,10.049,5.663,18.195,15.675,18.212c10.009,0.017,19.245-8.098,20.634-18.141c1.614-11.667,12.398-21.156,24.032-21.129
					c11.631,0.026,19.738,9.551,18.08,21.211c-1.655,11.635-12.422,21.066-24.009,21.047c-9.998-0.016-19.229,8.082-20.613,18.071
					c-1.382,9.971,5.579,18.049,15.544,18.06c11.549,0.013,19.609,9.391,17.975,20.883c-1.631,11.469-12.313,20.775-23.818,20.769
					c-11.509-0.006-19.585-9.328-17.998-20.803c1.372-9.918-5.594-17.98-15.565-17.991l-17.189-0.018
					c-9.979-0.011-19.145,8.04-20.469,17.966c-1.322,9.907,5.673,17.93,15.619,17.935l2.049,0.001
					c4.504,22.4,23.579,38.526,48.556,38.526c31.212,0,60.253-25.208,64.787-56.355c2.182-14.99-1.707-28.674-9.81-38.89
					c11.065-10.209,18.96-23.964,21.167-39.13C232.759,200.104,210.727,174.037,178.968,173.949z"/>
				<path style="fill:#E22334;" d="M298.144,330.721l-3.879-0.002l20.33-132.837c1.14-7.45-2.317-14.177-8.743-16.997
					c-6.434-2.82-14.543-1.161-20.494,4.192l-24.31,21.868c-8.033,7.226-9.548,18.758-3.399,25.756
					c3.646,4.151,9.167,5.779,14.733,4.908l-13.938,93.092l-3.882-0.002c-9.899-0.005-19.106,7.975-20.558,17.807
					c-1.45,9.815,5.378,17.758,15.246,17.758h43.441c9.852,0,19.067-7.934,20.587-17.737
					C314.802,338.705,308.028,330.726,298.144,330.721z"/>
				<g>
					<path d="M511.854,429.896L466.197,73.145c-0.018-0.138-0.048-0.271-0.073-0.406c-0.507-3.336-1.938-6.498-4.214-9.076
						c-3.363-3.809-8.205-5.992-13.285-5.992h-1.534c-2.58-16.308-13.453-28.215-26.861-28.215c-7.936,0-14.979,4.178-19.946,10.964
						c-4.967-6.786-12.01-10.964-19.945-10.964c-7.936,0-14.979,4.178-19.946,10.964c-4.967-6.786-12.01-10.964-19.946-10.964
						s-14.979,4.178-19.946,10.964c-4.967-6.786-12.01-10.964-19.945-10.964c-7.936,0-14.979,4.178-19.946,10.964
						c-4.967-6.786-12.01-10.964-19.946-10.964c-7.936,0-14.979,4.178-19.946,10.964c-4.967-6.786-12.01-10.964-19.946-10.964
						c-7.936,0-14.979,4.178-19.946,10.964c-4.967-6.786-12.01-10.964-19.946-10.964c-7.936,0-14.979,4.178-19.946,10.964
						c-4.967-6.786-12.01-10.964-19.946-10.964c-7.936,0-14.979,4.178-19.946,10.964c-4.967-6.786-12.01-10.964-19.946-10.964
						c-13.407,0-24.28,11.907-26.86,28.215h-7.938c-8.923,0-16.484,6.677-17.588,15.53L36.186,173.592
						c-0.513,4.109,2.404,7.857,6.514,8.37c4.117,0.511,7.858-2.403,8.371-6.514l3.988-31.979h387.82l-40.123,321.686
						c-0.17,1.36-1.332,2.387-2.703,2.387h-83.279c-4.143,0-7.5,3.357-7.5,7.5s3.357,7.5,7.5,7.5h83.279
						c8.924,0,16.484-6.677,17.588-15.53l2.138-17.142h74.494c5.092,0,9.94-2.192,13.305-6.014
						C510.942,440.034,512.5,434.946,511.854,429.896z M420.23,44.455c4.583,0,9.56,5.17,11.545,13.215h-23.091
						C410.67,49.625,415.647,44.455,420.23,44.455z M380.338,44.455c4.583,0,9.559,5.17,11.544,13.215h-23.09
						C370.779,49.625,375.755,44.455,380.338,44.455z M340.446,44.455c4.583,0,9.56,5.17,11.545,13.215H328.9
						C330.886,49.625,335.863,44.455,340.446,44.455z M300.554,44.455c4.583,0,9.559,5.17,11.544,13.215h-23.09
						C290.995,49.625,295.971,44.455,300.554,44.455z M260.661,44.455c4.583,0,9.56,5.17,11.545,13.215h-23.09
						C251.102,49.625,256.078,44.455,260.661,44.455z M220.769,44.455c4.583,0,9.56,5.17,11.545,13.215h-23.09
						C211.21,49.625,216.186,44.455,220.769,44.455z M180.877,44.455c4.583,0,9.56,5.17,11.545,13.215h-23.09
						C171.318,49.625,176.294,44.455,180.877,44.455z M140.985,44.455c4.583,0,9.56,5.17,11.545,13.215h-23.09
						C131.426,49.625,136.402,44.455,140.985,44.455z M101.093,44.455c4.583,0,9.56,5.17,11.545,13.215h-23.09
						C91.534,49.625,96.51,44.455,101.093,44.455z M56.93,128.47l6.662-53.413c0.169-1.36,1.332-2.387,2.703-2.387h7.938
						c2.581,16.308,13.453,28.216,26.86,28.216c4.142,0,7.5-3.357,7.5-7.5s-3.358-7.5-7.5-7.5c-4.583,0-9.559-5.171-11.545-13.216
						h24.577c2.581,16.308,13.453,28.216,26.86,28.216c4.142,0,7.5-3.357,7.5-7.5s-3.358-7.5-7.5-7.5
						c-4.583,0-9.559-5.171-11.545-13.216h24.577c2.581,16.308,13.453,28.216,26.86,28.216c4.142,0,7.5-3.357,7.5-7.5
						s-3.358-7.5-7.5-7.5c-4.583,0-9.559-5.171-11.545-13.216h24.577c2.581,16.308,13.453,28.216,26.86,28.216
						c4.142,0,7.5-3.357,7.5-7.5s-3.358-7.5-7.5-7.5c-4.583,0-9.559-5.171-11.545-13.216h24.577
						c2.581,16.308,13.453,28.216,26.86,28.216c4.143,0,7.5-3.357,7.5-7.5s-3.357-7.5-7.5-7.5c-4.583,0-9.559-5.171-11.545-13.216
						h24.577c2.581,16.308,13.454,28.216,26.861,28.216c4.143,0,7.5-3.357,7.5-7.5s-3.357-7.5-7.5-7.5
						c-4.583,0-9.56-5.171-11.545-13.216h24.576c2.581,16.308,13.454,28.216,26.861,28.216c4.143,0,7.5-3.357,7.5-7.5
						s-3.357-7.5-7.5-7.5c-4.583,0-9.56-5.171-11.545-13.216h24.577c2.58,16.308,13.453,28.216,26.861,28.216
						c4.143,0,7.5-3.357,7.5-7.5s-3.357-7.5-7.5-7.5c-4.583,0-9.56-5.171-11.545-13.216h24.576
						c2.58,16.308,13.453,28.216,26.861,28.216c4.143,0,7.5-3.357,7.5-7.5s-3.357-7.5-7.5-7.5c-4.583,0-9.56-5.171-11.545-13.216
						h39.94c1.068,0,1.737,0.577,2.042,0.921c0.22,0.249,0.534,0.706,0.642,1.34c0.004,0.04,0.004,0.078,0.009,0.118l0.022,0.169
						c0.01,0.163,0.011,0.331-0.012,0.513l-6.578,52.738H56.93z M496.318,433.946c-0.304,0.345-0.974,0.924-2.045,0.924H421.65
						l37.371-299.628L496.975,431.8C497.111,432.862,496.621,433.601,496.318,433.946z"/>
					<path d="M281.378,467.542H17.724c-1.069,0-1.738-0.577-2.042-0.921c-0.304-0.344-0.794-1.08-0.662-2.14l31.704-254.188
						c0.513-4.11-2.404-7.858-6.514-8.371c-4.115-0.506-7.858,2.403-8.371,6.514L0.136,462.625
						c-0.628,5.041,0.939,10.116,4.303,13.925c3.363,3.808,8.205,5.992,13.285,5.992h263.654c4.143,0,7.5-3.357,7.5-7.5
						S285.521,467.542,281.378,467.542z"/>
					<path d="M156.995,323.149c-3.347-0.002-6.274-1.24-8.23-3.487c-1.983-2.277-2.817-5.398-2.349-8.789
						c0.968-6.994-0.925-13.634-5.33-18.695c-4.383-5.037-10.653-7.814-17.656-7.822l-17.189-0.019c-0.01,0-0.019,0-0.029,0
						c-13.806,0-26.051,10.745-27.883,24.474c-0.931,6.977,0.984,13.595,5.394,18.635c3.57,4.081,8.379,6.673,13.81,7.503
						c7.236,23.451,28.435,38.816,54.455,38.816c34.777,0,67.17-28.161,72.209-62.775c2.058-14.135-0.599-27.781-7.505-39.111
						c10.162-11.074,16.791-24.676,18.862-38.908c2.581-17.73-2.017-34.475-12.946-47.146c-10.734-12.445-26.406-19.326-43.8-19.375
						c-35.354,0-67.972,28.769-72.757,64.214c-0.955,7.072,0.971,13.776,5.421,18.877c4.4,5.043,10.677,7.826,17.674,7.838
						c0.016,0,0.029,0,0.044,0c13.813-0.001,26.122-10.804,28.032-24.612c1.1-7.953,8.677-14.658,16.555-14.658
						c3.366,0.008,6.337,1.268,8.312,3.548c2.042,2.358,2.891,5.593,2.391,9.106c-1.127,7.922-8.769,14.604-16.615,14.604
						c-13.802,0-26.102,10.771-28.01,24.54c-0.975,7.031,0.92,13.699,5.337,18.775c4.378,5.032,10.638,7.808,17.628,7.815
						c3.354,0.004,6.277,1.247,8.231,3.501c1.984,2.289,2.811,5.424,2.327,8.825C172.272,316.59,164.772,323.149,156.995,323.149z
						 M156.995,338.149c15.343-0.001,29.062-11.951,31.232-27.213c1.105-7.769-0.97-15.143-5.843-20.764
						c-4.842-5.586-11.785-8.667-19.548-8.676c-2.59-0.003-4.837-0.947-6.328-2.66c-1.529-1.758-2.167-4.197-1.796-6.87
						c0.873-6.293,6.893-11.601,13.154-11.601c0.022,0,0.044,0,0.065,0c15.417,0,29.205-12.067,31.399-27.492
						c1.104-7.763-1.047-15.431-5.902-21.037c-4.859-5.611-11.882-8.712-19.654-8.729c-15.478,0-29.268,12.112-31.411,27.602
						c-0.876,6.33-6.906,11.669-13.174,11.669c-0.006,0-0.013,0-0.019,0c-2.609-0.004-4.881-0.963-6.396-2.7
						c-1.566-1.794-2.226-4.283-1.858-7.008c3.817-28.274,29.767-51.221,57.888-51.221c12.979,0.036,24.594,5.069,32.445,14.172
						c8.046,9.329,11.406,21.825,9.46,35.188c-1.878,12.903-8.566,25.226-18.831,34.697c-2.885,2.661-3.229,7.097-0.791,10.172
						c7.132,8.993,10.067,20.767,8.265,33.15c-4.008,27.534-29.742,49.936-57.366,49.936c-20.736,0-37.294-13.063-41.203-32.504
						c-0.704-3.501-3.778-6.02-7.35-6.021l-2.048-0.001c-2.605-0.002-4.87-0.95-6.375-2.67c-1.521-1.739-2.166-4.145-1.815-6.773
						c0.829-6.214,6.788-11.458,13.015-11.458c0.004,0,0.008,0,0.012,0l17.189,0.019c2.604,0.003,4.861,0.951,6.357,2.669
						c1.517,1.744,2.152,4.156,1.787,6.794c-1.072,7.748,1.021,15.098,5.895,20.694
						C142.298,335.077,149.249,338.145,156.995,338.149z"/>
					<path d="M320.691,349.675c1.065-6.869-0.772-13.668-5.041-18.652c-3.292-3.845-7.703-6.37-12.719-7.347l5.712-37.321
						c0.626-4.095-2.185-7.922-6.279-8.549c-4.087-0.618-7.922,2.185-8.549,6.279l-6.963,45.499c-0.33,2.161,0.299,4.359,1.723,6.02
						c1.424,1.659,3.501,2.614,5.688,2.615l3.877,0.002c2.534,0.002,4.706,0.91,6.118,2.559c1.438,1.68,2.011,4.022,1.611,6.598
						c-0.958,6.172-6.991,11.387-13.177,11.387H249.25c-2.545,0-4.735-0.913-6.167-2.572c-1.45-1.68-2.04-4.021-1.66-6.59
						c0.913-6.183,6.925-11.403,13.129-11.403c0.001,0,0.004,0,0.005,0l3.882,0.002c0.002,0,0.003,0,0.004,0
						c3.713,0,6.867-2.717,7.417-6.39l13.938-93.092c0.354-2.36-0.438-4.749-2.131-6.432s-4.083-2.461-6.445-2.089
						c-3.238,0.512-6.128-0.386-7.94-2.448c-3.386-3.854-2.111-10.828,2.781-15.229l24.311-21.867
						c3.74-3.364,8.751-4.526,12.466-2.9c3.306,1.45,4.97,4.896,4.342,8.994l-8.008,52.324c-0.626,4.095,2.185,7.922,6.279,8.549
						s7.922-2.184,8.549-6.279l8.008-52.324c1.65-10.78-3.632-20.827-13.146-25.001c-9.16-4.013-20.354-1.862-28.521,5.485
						l-24.311,21.867c-11.055,9.946-12.857,26.222-4.018,36.282c3.085,3.512,7.177,5.909,11.729,7.005l-11.778,78.67
						c-12.61,1.236-23.502,11.368-25.38,24.085c-1.027,6.95,0.8,13.55,5.144,18.582c4.325,5.012,10.548,7.771,17.521,7.771h43.441
						C306.297,373.764,318.596,363.183,320.691,349.675z"/>
					<path d="M146.486,392.868c-11.292,0-21.217,8.579-22.597,19.53l-1.577,12.521c-0.699,5.547,0.892,10.842,4.479,14.91
						c3.641,4.128,9.053,6.495,14.851,6.495c11.292,0,21.217-8.579,22.597-19.53l1.577-12.521c0.699-5.547-0.892-10.842-4.479-14.91
						C157.696,395.235,152.283,392.868,146.486,392.868z M150.933,412.399l-1.577,12.521c-0.43,3.412-4.035,6.405-7.714,6.405
						c-1.516,0-2.795-0.503-3.601-1.417c-0.709-0.805-1.002-1.881-0.847-3.113l1.577-12.521c0.43-3.412,4.035-6.405,7.714-6.405
						c1.516,0,2.794,0.503,3.601,1.417C150.796,410.09,151.088,411.166,150.933,412.399z"/>
					<path d="M188.382,414.272c0.43-3.411,4.038-6.403,7.722-6.403c1.483,0,2.74,0.481,3.549,1.369
						c0.223,0.242,0.402,0.502,0.531,0.771c1.803,3.729,6.288,5.292,10.017,3.487c3.729-1.803,5.291-6.287,3.488-10.017
						c-0.766-1.584-1.768-3.057-2.968-4.365c-3.675-4.027-8.867-6.245-14.618-6.245c-11.296,0-21.225,8.578-22.604,19.528
						l-1.578,12.525c-0.698,5.544,0.893,10.837,4.48,14.904c3.643,4.13,9.058,6.499,14.858,6.499c7.206,0,14.11-3.52,18.47-9.416
						c2.463-3.33,1.759-8.026-1.571-10.489c-3.331-2.464-8.027-1.76-10.489,1.571c-1.521,2.057-3.977,3.334-6.409,3.334
						c-1.519,0-2.8-0.505-3.608-1.421c-0.709-0.804-1.002-1.879-0.847-3.107L188.382,414.272z"/>
					<path d="M233.204,446.267c0.318,0.04,0.634,0.06,0.947,0.06c3.725,0,6.955-2.772,7.432-6.563l4.017-31.895h5.532
						c4.142,0,7.5-3.357,7.5-7.5s-3.357-7.5-7.5-7.5H226.84c-4.142,0-7.5,3.357-7.5,7.5s3.358,7.5,7.5,7.5h3.642l-3.781,30.02
						C226.183,441.997,229.095,445.749,233.204,446.267z"/>
					<path d="M399.344,188.962c4.143,0,7.5-3.357,7.5-7.5s-3.357-7.5-7.5-7.5h-15.537c-4.143,0-7.5,3.357-7.5,7.5s3.357,7.5,7.5,7.5
						H399.344z"/>
					<path d="M373.015,209.137c0,4.143,3.357,7.5,7.5,7.5h15.537c4.143,0,7.5-3.357,7.5-7.5s-3.357-7.5-7.5-7.5h-15.537
						C376.372,201.637,373.015,204.994,373.015,209.137z"/>
					<path d="M369.724,236.813c0,4.143,3.357,7.5,7.5,7.5h15.537c4.143,0,7.5-3.357,7.5-7.5s-3.357-7.5-7.5-7.5h-15.537
						C373.081,229.313,369.724,232.67,369.724,236.813z"/>
					<path d="M366.432,264.487c0,4.143,3.357,7.5,7.5,7.5h15.537c4.143,0,7.5-3.357,7.5-7.5s-3.357-7.5-7.5-7.5h-15.537
						C369.789,256.987,366.432,260.345,366.432,264.487z"/>
					<path d="M363.14,292.162c0,4.143,3.357,7.5,7.5,7.5h15.537c4.143,0,7.5-3.357,7.5-7.5s-3.357-7.5-7.5-7.5H370.64
						C366.497,284.662,363.14,288.02,363.14,292.162z"/>
					<path d="M359.848,319.838c0,4.143,3.357,7.5,7.5,7.5h15.537c4.143,0,7.5-3.357,7.5-7.5s-3.357-7.5-7.5-7.5h-15.537
						C363.205,312.338,359.848,315.695,359.848,319.838z"/>
					<path d="M356.556,347.513c0,4.143,3.357,7.5,7.5,7.5h15.537c4.143,0,7.5-3.357,7.5-7.5s-3.357-7.5-7.5-7.5h-15.537
						C359.913,340.013,356.556,343.37,356.556,347.513z"/>
					<path d="M353.265,375.188c0,4.143,3.357,7.5,7.5,7.5h15.537c4.143,0,7.5-3.357,7.5-7.5s-3.357-7.5-7.5-7.5h-15.537
						C356.622,367.688,353.265,371.045,353.265,375.188z"/>
					<path d="M349.973,402.863c0,4.143,3.357,7.5,7.5,7.5h15.537c4.143,0,7.5-3.357,7.5-7.5s-3.357-7.5-7.5-7.5h-15.537
						C353.33,395.363,349.973,398.721,349.973,402.863z"/>
					<path d="M346.681,430.538c0,4.143,3.357,7.5,7.5,7.5h15.537c4.143,0,7.5-3.357,7.5-7.5s-3.357-7.5-7.5-7.5h-15.537
						C350.038,423.038,346.681,426.396,346.681,430.538z"/>
				</g>
			</g>
		</g>
	</g>
</g>
<g>
</g>
<g>
</g>
<g>
</g>
<g>
</g>
<g>
</g>
<g>
</g>
<g>
</g>
<g>
</g>
<g>
</g>
<g>
</g>
<g>
</g>
<g>
</g>
<g>
</g>
<g>
</g>
<g>
</g>
</svg>
