<?xml version="1.0" encoding="iso-8859-1"?>
<!-- Generator: Adobe Illustrator 24.0.2, SVG Export Plug-In . SVG Version: 6.00 Build 0)  -->
<svg version="1.1" id="Capa_1" xmlns="http://www.w3.org/2000/svg" xmlns:xlink="http://www.w3.org/1999/xlink" x="0px" y="0px"
	 viewBox="0 0 512 512" style="enable-background:new 0 0 512 512;" xml:space="preserve">
<g>
	<g>
		<path style="fill:#554E55;" d="M484.5,481.216h-457c-11.046,0-20-8.954-20-20V82.923c0-11.046,8.954-20,20-20h457
			c11.046,0,20,8.954,20,20v378.293C504.5,472.262,495.546,481.216,484.5,481.216z"/>
		<path style="fill:#433F43;" d="M504.5,82.919v378.3c0,11.04-8.95,20-20,20H441c11.04,0,20-8.96,20-20v-378.3
			c0-11.04-8.96-20-20-20h43.5C495.55,62.919,504.5,71.879,504.5,82.919z"/>
	</g>
	<g>
		<path style="fill:#FB7722;" d="M504.5,82.919v48.21H7.5v-48.21c0-11.04,8.95-20,20-20h457
			C495.55,62.919,504.5,71.879,504.5,82.919z"/>
		<g>
			<path style="fill:#F2671F;" d="M55.463,62.751v39.744c0,9.861,7.994,17.856,17.856,17.856s17.856-7.994,17.856-17.856V62.751
				H55.463z"/>
			<path style="fill:#F2671F;" d="M174.137,62.751v39.744c0,9.861,7.994,17.856,17.856,17.856c9.862,0,17.856-7.994,17.856-17.856
				V62.751H174.137z"/>
			<path style="fill:#F2671F;" d="M292.811,62.751v39.744c0,9.861,7.994,17.856,17.856,17.856h0c9.861,0,17.856-7.994,17.856-17.856
				V62.751H292.811z"/>
			<path style="fill:#F2671F;" d="M411.485,62.751v39.744c0,9.861,7.994,17.856,17.856,17.856h0c9.861,0,17.856-7.994,17.856-17.856
				V62.751H411.485z"/>
		</g>
		<path style="fill:#F2671F;" d="M504.5,82.919v48.21H461v-48.21c0-11.04-8.96-20-20-20h43.5
			C495.55,62.919,504.5,71.879,504.5,82.919z"/>
	</g>
	<g>
		<g>
			<path style="fill:#CBC5CB;" d="M73.318,94.717L73.318,94.717c-9.861,0-17.856-7.994-17.856-17.856V48.64
				c0-9.861,7.994-17.856,17.856-17.856h0c9.861,0,17.856,7.994,17.856,17.856v28.221C91.174,86.723,83.18,94.717,73.318,94.717z"/>
		</g>
		<g>
			<path style="fill:#CBC5CB;" d="M191.993,94.717L191.993,94.717c-9.861,0-17.856-7.994-17.856-17.856V48.64
				c0-9.861,7.994-17.856,17.856-17.856h0c9.861,0,17.856,7.994,17.856,17.856v28.221C209.848,86.723,201.854,94.717,191.993,94.717
				z"/>
		</g>
		<g>
			<path style="fill:#CBC5CB;" d="M310.667,94.717L310.667,94.717c-9.861,0-17.856-7.994-17.856-17.856V48.64
				c0-9.861,7.994-17.856,17.856-17.856h0c9.861,0,17.856,7.994,17.856,17.856v28.221C328.522,86.723,320.528,94.717,310.667,94.717
				z"/>
		</g>
		<g>
			<path style="fill:#CBC5CB;" d="M429.341,94.717L429.341,94.717c-9.862,0-17.856-7.994-17.856-17.856V48.64
				c0-9.861,7.994-17.856,17.856-17.856h0c9.861,0,17.856,7.994,17.856,17.856v28.221C447.197,86.723,439.202,94.717,429.341,94.717
				z"/>
		</g>
	</g>
	<g>
		<g>
			<g>
				<ellipse style="fill:#F2671F;" cx="145.075" cy="334.381" rx="61.15" ry="96.335"/>
				<ellipse style="fill:#E25010;" cx="322.15" cy="334.381" rx="61.15" ry="96.335"/>
				<ellipse style="fill:#FB7722;" cx="184.336" cy="334.381" rx="70.103" ry="110.439"/>
				<ellipse style="fill:#FB7722;" cx="282.889" cy="334.381" rx="70.103" ry="110.439"/>
				<path style="fill:#F2671F;" d="M352.996,334.379c0,60.991-31.392,110.444-70.104,110.444c-4.262,0-8.428-0.598-12.482-1.741
					c32.761-9.277,57.621-54.425,57.621-108.702c0-54.278-24.861-99.417-57.621-108.694c4.054-1.143,8.22-1.741,12.482-1.741
					C321.604,223.944,352.996,273.388,352.996,334.379z"/>
				<ellipse style="fill:#FC9744;" cx="231.812" cy="334.381" rx="63.447" ry="115.946"/>
				<path style="fill:#FB8627;" d="M295.262,334.379c0,64.04-28.412,115.944-63.451,115.944c-4.842,0-9.563-0.996-14.102-2.876
					c28.256-11.711,49.349-57.89,49.349-113.068c0-55.179-21.093-101.348-49.349-113.069c4.539-1.88,9.26-2.876,14.102-2.876
					C266.85,218.435,295.262,270.348,295.262,334.379z"/>
			</g>
			<g>
				<g>
					<g>
						<circle style="fill:#FCB44D;" cx="178.565" cy="308.005" r="27.913"/>
						<path style="fill:#FB9927;" d="M206.476,308.004c0,15.418-12.496,27.914-27.909,27.914c-6.98,0-13.366-2.561-18.26-6.796
							c0.254,0.005,0.508,0.011,0.767,0.011c15.418,0,27.914-12.501,27.914-27.914c0-8.439-3.744-15.997-9.654-21.118
							C194.396,280.506,206.476,292.85,206.476,308.004z"/>
						<g>
							<path style="fill:#FCA62F;" d="M164.769,328.884c0.486,1.513,1.102,2.961,1.831,4.344c-2.28-1.086-4.392-2.469-6.278-4.106
								c0.248,0.005,0.497,0.011,0.751,0.011C162.327,329.133,163.559,329.052,164.769,328.884z"/>
						</g>
					</g>
					<g>
						<circle style="fill:#FCB44D;" cx="288.659" cy="308.005" r="27.913"/>
						<path style="fill:#FB9927;" d="M316.571,308.004c0,15.418-12.496,27.914-27.914,27.914c-6.98,0-13.36-2.561-18.255-6.796
							c0.254,0.005,0.508,0.011,0.767,0.011c15.413,0,27.909-12.501,27.909-27.914c0-8.439-3.744-15.997-9.654-21.118
							C304.492,280.506,316.571,292.85,316.571,308.004z"/>
					</g>
				</g>
				<g>
					<path style="fill:#FCB44D;" d="M320.665,357.361c-15.57,30.95-48.697,60.135-87.054,60.135
						c-38.352,0-71.485-29.184-87.054-60.135c-2.518-5.003,2.934-10.238,7.855-7.558c9.962,5.429,22.55,8.358,36.866,9.908
						c0.281,2.739,0.848,6.972,1.94,11.182c0.619,2.385,2.771,4.053,5.235,4.053h8.357c2.984,0,5.402-2.419,5.402-5.402v-8.444
						c6.904,0.232,14.062,0.303,21.399,0.303c31.804,0,60.253-1.27,79.199-11.599C317.732,347.123,323.188,352.358,320.665,357.361z
						"/>
					<path style="fill:#FB9927;" d="M320.666,357.36c-15.57,30.95-48.697,60.134-87.054,60.134c-3.349,0-6.661-0.222-9.924-0.654
						c28.611-8.158,51.398-30.129,60.691-58.243c10.848-1.718,20.475-4.457,28.433-8.795
						C317.733,347.123,323.189,352.358,320.666,357.36z"/>
					<g>
						<path d="M484.5,55.423h-29.804v-6.782c0-13.981-11.374-25.356-25.355-25.356s-25.355,11.375-25.355,25.356v6.782h-17.118
							c-4.143,0-7.5,3.357-7.5,7.5s3.357,7.5,7.5,7.5h17.118v6.438c0,13.981,11.374,25.355,25.355,25.355
							s25.355-11.374,25.355-25.355v-6.438H484.5c6.893,0,12.5,5.607,12.5,12.5v40.704H15V82.923c0-6.893,5.607-12.5,12.5-12.5
							h20.463v6.438c0,13.981,11.374,25.355,25.355,25.355s25.355-11.374,25.355-25.355v-6.438h67.963v6.438
							c0,13.981,11.374,25.355,25.355,25.355s25.356-11.374,25.356-25.355v-6.438h67.962v6.438
							c0,13.981,11.375,25.355,25.356,25.355s25.355-11.374,25.355-25.355v-6.438h15.45c4.143,0,7.5-3.357,7.5-7.5
							s-3.357-7.5-7.5-7.5h-15.45v-6.782c0-13.981-11.374-25.356-25.355-25.356s-25.356,11.375-25.356,25.356v6.782h-67.962v-6.782
							c0-13.981-11.375-25.356-25.356-25.356s-25.355,11.375-25.355,25.356v6.782H98.674v-6.782
							c0-13.981-11.374-25.356-25.355-25.356S47.963,34.659,47.963,48.641v6.782H27.5C12.337,55.423,0,67.76,0,82.923v150.392
							c0,4.143,3.357,7.5,7.5,7.5s7.5-3.357,7.5-7.5v-94.688h482v322.589c0,6.893-5.607,12.5-12.5,12.5h-457
							c-6.893,0-12.5-5.607-12.5-12.5V268.709c0-4.143-3.357-7.5-7.5-7.5s-7.5,3.357-7.5,7.5v192.507
							c0,15.163,12.336,27.5,27.5,27.5h457c15.164,0,27.5-12.337,27.5-27.5V82.923C512,67.76,499.664,55.423,484.5,55.423z
							 M439.696,76.861c0,5.71-4.646,10.355-10.355,10.355s-10.355-4.646-10.355-10.355V48.641c0-5.711,4.646-10.356,10.355-10.356
							s10.355,4.646,10.355,10.356V76.861z M300.311,48.641c0-5.711,4.646-10.356,10.356-10.356c5.71,0,10.355,4.646,10.355,10.356
							v28.221c0,5.71-4.646,10.355-10.355,10.355c-5.711,0-10.356-4.646-10.356-10.355V48.641z M181.637,48.641
							c0-5.711,4.646-10.356,10.355-10.356c5.711,0,10.356,4.646,10.356,10.356v28.221c0,5.71-4.646,10.355-10.356,10.355
							c-5.71,0-10.355-4.646-10.355-10.355V48.641z M62.963,48.641c0-5.711,4.646-10.356,10.355-10.356s10.355,4.646,10.355,10.356
							v28.221c0,5.71-4.646,10.355-10.355,10.355s-10.355-4.646-10.355-10.355V48.641z"/>
						<path d="M95.499,406.517c12.976,20.439,30.58,31.695,49.571,31.695c0.731,0,1.415-0.02,2.08-0.051
							c11.223,9.251,23.911,14.162,37.19,14.162c6.79,0,13.499-1.311,19.987-3.894c8.534,6.117,17.84,9.397,27.486,9.397
							c10.081,0,19.843-3.636,28.743-10.383c7.207,3.238,14.704,4.879,22.334,4.879c13.423,0,26.087-5.094,37.142-14.165
							c0.678,0.033,1.374,0.054,2.119,0.054c18.991,0,36.596-11.256,49.57-31.695c12.304-19.382,19.079-45,19.079-72.135
							c0-27.14-6.775-52.76-19.079-72.143c-12.975-20.44-30.579-31.697-49.57-31.697c-0.739,0-1.429,0.021-2.099,0.052
							c-11.054-9.064-23.722-14.152-37.161-14.152c-7.628,0-15.126,1.642-22.334,4.882c-8.877-6.738-18.63-10.39-28.743-10.39
							c-9.608,0-18.897,3.307-27.419,9.425c-6.509-2.601-13.24-3.918-20.054-3.918c-13.274,0-25.958,4.907-37.178,14.152
							c-0.67-0.031-1.358-0.052-2.091-0.052c-18.992,0-36.597,11.257-49.571,31.697c-12.304,19.382-19.079,45.003-19.079,72.143
							C76.42,361.518,83.195,387.135,95.499,406.517z M195.392,416.09c11.738,5.57,24.604,8.905,38.219,8.905
							c11.71,0,22.867-2.468,33.229-6.699c-9.941,15.64-22.335,24.531-35.028,24.531
							C218.425,442.826,205.522,433.129,195.392,416.09z M184.622,366.442c0.337,2.001,0.773,4.165,1.336,6.335
							c1.479,5.692,6.616,9.668,12.495,9.668h8.356c7.114,0,12.902-5.788,12.902-12.902v-0.751
							c4.174,0.074,8.732,0.109,13.899,0.109c27.953,0,56.806-0.823,77.736-10.036c-14.959,26.187-43.794,51.13-77.736,51.13
							c-33.943,0-62.777-24.94-77.736-51.129C163.764,362.343,173.254,364.843,184.622,366.442z M288.659,287.592
							c11.255,0,20.412,9.157,20.412,20.413c0,11.255-9.157,20.412-20.412,20.412c-11.256,0-20.413-9.157-20.413-20.412
							C268.246,296.749,277.403,287.592,288.659,287.592z M344.658,317.666c0.39,3.864,3.649,6.747,7.453,6.747
							c0.252,0,0.506-0.013,0.763-0.039c4.121-0.416,7.124-4.094,6.708-8.216c-2.689-26.629-10.992-49.887-22.94-67.232
							c8.267,3.92,15.95,11.167,22.414,21.351c10.797,17.01,16.743,39.776,16.743,64.104c0,24.324-5.946,47.087-16.743,64.096
							c-6.473,10.197-14.167,17.448-22.446,21.364c11.889-17.247,20.179-40.339,22.92-66.767c0.428-4.12-2.566-7.807-6.687-8.233
							c-4.104-0.43-7.807,2.566-8.233,6.687c-5.071,48.91-31.605,85.794-61.721,85.794c-3.486,0-6.949-0.501-10.364-1.46
							c6.866-8.267,12.892-18.684,17.73-30.924c16.174-12.077,29.045-28.177,37.109-44.208c2.607-5.178,1.564-11.364-2.599-15.398
							c-4.182-4.051-10.429-4.9-15.546-2.114c-2.115,1.153-4.388,2.178-6.788,3.097c0.104-1.927,0.183-3.859,0.236-5.793
							c12.577-5.44,21.403-17.965,21.403-32.517c0-17.875-13.315-32.69-30.545-35.07c-5.262-16.179-12.481-29.751-21.011-40.028
							c3.419-0.962,6.885-1.465,10.375-1.465C313.14,231.442,339.694,268.511,344.658,317.666z M278.126,274.191
							c-14.399,4.495-24.88,17.954-24.88,33.813c0,19.157,15.294,34.799,34.311,35.384c-0.104,2.391-0.25,4.77-0.436,7.126
							c-15.949,3.03-34.911,3.386-53.51,3.386c-8.372,0-15.093-0.095-21.148-0.298c-2.02-0.061-4.003,0.691-5.465,2.104
							c-1.461,1.413-2.286,3.358-2.286,5.392v6.346h-4.613c-0.726-3.199-1.137-6.319-1.36-8.501
							c-0.361-3.521-3.135-6.309-6.653-6.689c-5.745-0.623-10.939-1.456-15.638-2.505c-0.16-2.131-0.292-4.275-0.385-6.431
							c0.828,0.058,1.661,0.098,2.503,0.098c19.526,0,35.412-15.886,35.412-35.412c0-17.046-12.107-31.315-28.172-34.667
							c10.544-29.417,27.827-47.404,46.007-47.404C250.188,225.935,267.615,244.257,278.126,274.191z M178.565,287.592
							c11.255,0,20.412,9.157,20.412,20.413c0,11.255-9.157,20.412-20.412,20.412c-11.256,0-20.413-9.157-20.413-20.412
							C158.152,296.749,167.31,287.592,178.565,287.592z M191.733,232.189c-8.932,10.515-16.465,24.6-21.87,41.488
							c-15.332,3.889-26.711,17.804-26.711,34.328c0,13.102,7.158,24.557,17.764,30.681c0.039,2.031,0.1,4.062,0.195,6.087
							c-1.08-0.497-2.119-1.016-3.113-1.558c-5.112-2.785-11.356-1.935-15.536,2.111c-4.165,4.033-5.212,10.225-2.605,15.403
							c7.191,14.295,18.213,28.639,31.982,40.142c0.028,0.086,0.048,0.172,0.079,0.257c5.207,14.289,11.947,26.255,19.742,35.459
							c-2.425,0.478-4.869,0.733-7.32,0.733c-16.068,0-31.425-10.252-43.242-28.868c-12.489-19.674-19.367-45.979-19.367-74.072
							c0-28.092,6.878-54.398,19.367-74.071c11.817-18.616,27.175-28.869,43.242-28.869
							C186.816,231.441,189.284,231.701,191.733,232.189z M108.163,270.277c6.492-10.228,14.213-17.49,22.521-21.399
							c-0.762,1.107-1.515,2.233-2.251,3.393c-13.995,22.047-21.703,51.207-21.703,82.11s7.708,60.064,21.703,82.111
							c0.733,1.154,1.482,2.275,2.24,3.378c-8.304-3.909-16.021-11.17-22.511-21.393c-10.797-17.009-16.743-39.771-16.743-64.096
							C91.42,310.053,97.366,287.287,108.163,270.277z"/>
						<path d="M59.884,161.893c-11.129,0-20.184,9.055-20.184,20.184v12.247c0,11.129,9.055,20.184,20.184,20.184
							s20.184-9.055,20.184-20.184v-12.247C80.067,170.947,71.013,161.893,59.884,161.893z M65.067,194.323
							c0,2.858-2.325,5.184-5.184,5.184s-5.184-2.325-5.184-5.184v-12.247c0-2.858,2.325-5.184,5.184-5.184s5.184,2.325,5.184,5.184
							V194.323z"/>
						<path d="M106.424,176.893c1.384,0,2.681,0.536,3.66,1.521c0.311,0.31,0.572,0.646,0.777,0.997
							c2.089,3.576,6.681,4.783,10.259,2.694c3.577-2.089,4.783-6.682,2.694-10.259c-0.854-1.461-1.904-2.82-3.113-4.029
							c-3.806-3.82-8.876-5.924-14.277-5.924c-11.133,0-20.19,9.053-20.19,20.181v12.251c0,11.128,9.058,20.182,20.19,20.182
							c7.116,0,13.775-3.807,17.379-9.934c2.1-3.57,0.907-8.167-2.663-10.267s-8.167-0.907-10.267,2.663
							c-0.935,1.589-2.598,2.537-4.449,2.537c-2.862,0-5.19-2.324-5.19-5.182v-12.251
							C101.233,179.217,103.562,176.893,106.424,176.893z"/>
						<path d="M146.646,214.506c4.143,0,7.5-3.357,7.5-7.5v-30.113h3.894c4.143,0,7.5-3.357,7.5-7.5s-3.357-7.5-7.5-7.5h-22.786
							c-4.143,0-7.5,3.357-7.5,7.5s3.357,7.5,7.5,7.5h3.893v30.113C139.146,211.148,142.504,214.506,146.646,214.506z"/>
						<path d="M474.764,169.393c0-4.143-3.357-7.5-7.5-7.5H200.952c-4.143,0-7.5,3.357-7.5,7.5s3.357,7.5,7.5,7.5h266.312
							C471.406,176.893,474.764,173.535,474.764,169.393z"/>
						<path d="M452.042,203.284h-15.221c-4.143,0-7.5,3.357-7.5,7.5s3.357,7.5,7.5,7.5h15.221c4.143,0,7.5-3.357,7.5-7.5
							S456.185,203.284,452.042,203.284z"/>
						<path d="M452.042,230.775h-15.221c-4.143,0-7.5,3.357-7.5,7.5s3.357,7.5,7.5,7.5h15.221c4.143,0,7.5-3.357,7.5-7.5
							S456.185,230.775,452.042,230.775z"/>
						<path d="M452.042,258.267h-15.221c-4.143,0-7.5,3.357-7.5,7.5s3.357,7.5,7.5,7.5h15.221c4.143,0,7.5-3.357,7.5-7.5
							S456.185,258.267,452.042,258.267z"/>
						<path d="M452.042,285.759h-15.221c-4.143,0-7.5,3.357-7.5,7.5s3.357,7.5,7.5,7.5h15.221c4.143,0,7.5-3.357,7.5-7.5
							S456.185,285.759,452.042,285.759z"/>
						<path d="M452.042,313.25h-15.221c-4.143,0-7.5,3.357-7.5,7.5s3.357,7.5,7.5,7.5h15.221c4.143,0,7.5-3.357,7.5-7.5
							S456.185,313.25,452.042,313.25z"/>
						<path d="M452.042,340.741h-15.221c-4.143,0-7.5,3.357-7.5,7.5s3.357,7.5,7.5,7.5h15.221c4.143,0,7.5-3.357,7.5-7.5
							S456.185,340.741,452.042,340.741z"/>
						<path d="M452.042,368.233h-15.221c-4.143,0-7.5,3.357-7.5,7.5s3.357,7.5,7.5,7.5h15.221c4.143,0,7.5-3.357,7.5-7.5
							S456.185,368.233,452.042,368.233z"/>
						<path d="M452.042,395.725h-15.221c-4.143,0-7.5,3.357-7.5,7.5s3.357,7.5,7.5,7.5h15.221c4.143,0,7.5-3.357,7.5-7.5
							S456.185,395.725,452.042,395.725z"/>
						<path d="M452.042,423.216h-15.221c-4.143,0-7.5,3.357-7.5,7.5s3.357,7.5,7.5,7.5h15.221c4.143,0,7.5-3.357,7.5-7.5
							S456.185,423.216,452.042,423.216z"/>
					</g>
				</g>
			</g>
		</g>
	</g>
</g>
<g>
</g>
<g>
</g>
<g>
</g>
<g>
</g>
<g>
</g>
<g>
</g>
<g>
</g>
<g>
</g>
<g>
</g>
<g>
</g>
<g>
</g>
<g>
</g>
<g>
</g>
<g>
</g>
<g>
</g>
</svg>
