<?xml version="1.0" encoding="iso-8859-1"?>
<!-- Generator: Adobe Illustrator 24.0.2, SVG Export Plug-In . SVG Version: 6.00 Build 0)  -->
<svg version="1.1" id="Capa_1" xmlns="http://www.w3.org/2000/svg" xmlns:xlink="http://www.w3.org/1999/xlink" x="0px" y="0px"
	 viewBox="0 0 512 512" style="enable-background:new 0 0 512 512;" xml:space="preserve">
<g>
	<g>
		<path style="fill:#FEE7C9;" d="M460.237,400.696h-44.899V285.611c0-2.804,2.273-5.077,5.077-5.077h34.744
			c2.804,0,5.077,2.273,5.077,5.077V400.696z"/>
		<path style="fill:#FFD496;" d="M460.241,285.608v115.091h-24.219V285.608c0-2.803-2.275-5.077-5.077-5.077h24.219
			C457.966,280.53,460.241,282.805,460.241,285.608z"/>
		<path style="fill:#FCC16D;" d="M455.576,241.604c0,10.244-8.391,18.528-18.675,18.353c-11.616-0.198-19.793-11.006-17.652-22.425
			c2.001-10.67,11.247-19.058,13.976-30.969c0.581-2.535,3.841-3.255,5.48-1.237C445.059,213.149,455.576,228.133,455.576,241.604z"
			/>
		<path style="fill:#FCA62F;" d="M455.58,241.607c0,10.236-8.398,18.522-18.674,18.35c-4.62-0.081-8.703-1.838-11.8-4.651
			c6.905-2.63,11.8-9.312,11.8-17.141c0-7.464-3.229-15.395-7.2-22.31c1.483-2.904,2.762-5.961,3.524-9.292
			c0.579-2.539,3.839-3.26,5.473-1.239C445.06,213.154,455.58,228.132,455.58,241.607z"/>
	</g>
	<g>
		<g>
			<path style="fill:#E1DDE1;" d="M390.917,430.913H121.086V142.415C121.086,67.904,181.49,7.5,256.001,7.5h0
				c74.512,0,134.915,60.404,134.915,134.915V430.913z"/>
			<path style="fill:#CBC5CB;" d="M390.921,142.42v288.49h-36.25V142.42c0-37.26-15.1-70.99-39.51-95.4
				c-20.39-20.39-47.27-34.29-77.28-38.31c5.92-0.8,11.97-1.21,18.12-1.21c37.26,0,70.98,15.1,95.4,39.52
				C375.821,71.43,390.921,105.16,390.921,142.42z"/>
		</g>
		<g>
			<g>
				<g>
					<path style="fill:#918291;" d="M459.701,437.53v46.43H52.3v-46.43c0-5.59,4.52-10.11,10.11-10.11h387.18
						C455.181,427.42,459.701,431.94,459.701,437.53z"/>
					<path style="fill:#7A6E79;" d="M459.701,437.53v46.43h-113.92c-12.37-11.98-20.18-29.44-20.18-48.84c0-2.61,0.14-5.18,0.42-7.7
						h123.57C455.181,427.42,459.701,431.94,459.701,437.53z"/>
				</g>
				<g>
					<g>
						<g>
							<g>
								<g>
									<g>
										<g>
											<ellipse style="fill:#F2671F;" cx="385.245" cy="430.16" rx="39.319" ry="45.306"/>
											<ellipse style="fill:#E25010;" cx="440.521" cy="430.16" rx="39.319" ry="45.306"/>
										</g>
										<ellipse style="fill:#FB8627;" cx="411.923" cy="427.983" rx="35.744" ry="47.483"/>
										<path style="fill:#FB7722;" d="M447.667,427.976c0,26.23-16.006,47.49-35.744,47.49c-4.713,0-9.208-1.209-13.334-3.42
											c13.132-7.023,22.401-24.109,22.401-44.069c0-19.952-9.269-37.038-22.401-44.061c4.126-2.211,8.621-3.421,13.334-3.421
											C431.661,380.494,447.667,401.755,447.667,427.976z"/>
									</g>
								</g>
							</g>
						</g>
					</g>
				</g>
				<g>
					<path style="fill:#B5ADB6;" d="M474.308,504.5H37.692c-5.583,0-10.109-4.526-10.109-10.109v-8.815
						c0-5.583,4.526-10.109,10.109-10.109h436.617c5.583,0,10.109,4.526,10.109,10.109v8.815
						C484.418,499.974,479.892,504.5,474.308,504.5z"/>
					<path style="fill:#A69CA7;" d="M484.421,485.58v8.81c0,5.58-4.53,10.11-10.11,10.11h-30.93c5.58,0,10.11-4.53,10.11-10.11
						v-8.81c0-5.59-4.53-10.11-10.11-10.11h30.93C479.891,475.47,484.421,479.99,484.421,485.58z"/>
				</g>
			</g>
		</g>
		<g>
			<path style="fill:#FEE7C9;" d="M144.444,399.543H99.545v-65.084c0-2.804,2.273-5.077,5.077-5.077h34.744
				c2.804,0,5.077,2.273,5.077,5.077V399.543z"/>
			<path style="fill:#FFD496;" d="M144.447,334.456v65.091h-24.219v-65.091c0-2.803-2.275-5.077-5.077-5.077h24.219
				C142.173,329.378,144.447,331.653,144.447,334.456z"/>
			<path style="fill:#17998C;" d="M155.45,427.417H88.539c-10.099,0-18.285-8.187-18.285-18.285v-5.672
				c0-2.804,2.273-5.077,5.077-5.077h93.327c2.804,0,5.077,2.273,5.077,5.077v5.672C173.735,419.23,165.549,427.417,155.45,427.417z
				"/>
			<path style="fill:#138B80;" d="M173.733,403.457v5.676c0,10.094-8.185,18.278-18.278,18.278h-34.028
				c10.094,0,18.278-8.185,18.278-18.278v-5.676c0-2.803-2.275-5.077-5.077-5.077h34.028
				C171.459,398.379,173.733,400.654,173.733,403.457z"/>
			<path style="fill:#FCC16D;" d="M139.782,290.452c0,10.244-8.391,18.528-18.675,18.353c-11.616-0.198-19.793-11.006-17.652-22.425
				c2.001-10.67,11.247-19.058,13.976-30.969c0.581-2.535,3.841-3.255,5.48-1.237C129.265,261.997,139.782,276.981,139.782,290.452z
				"/>
			<path style="fill:#FCA62F;" d="M139.786,290.455c0,10.236-8.398,18.522-18.674,18.35c-4.62-0.081-8.703-1.838-11.8-4.651
				c6.905-2.63,11.8-9.312,11.8-17.141c0-7.464-3.229-15.395-7.2-22.31c1.483-2.904,2.762-5.961,3.524-9.292
				c0.579-2.539,3.838-3.26,5.473-1.239C129.266,262.002,139.786,276.98,139.786,290.455z"/>
		</g>
		<g>
			<g>
				<g>
					<g>
						<g>
							<g>
								<g>
									<ellipse style="fill:#F2671F;" cx="157.261" cy="464.118" rx="35.011" ry="40.342"/>
									<ellipse style="fill:#E25010;" cx="206.482" cy="464.118" rx="35.011" ry="40.342"/>
								</g>
								<ellipse style="fill:#FB8627;" cx="181.016" cy="462.178" rx="31.828" ry="42.281"/>
								<path style="fill:#FB7722;" d="M212.845,462.173c0,23.356-14.252,42.287-31.827,42.287c-4.197,0-8.199-1.077-11.873-3.046
									c11.693-6.254,19.947-21.468,19.947-39.241c0-17.766-8.253-32.98-19.947-39.234c3.674-1.969,7.676-3.046,11.873-3.046
									C198.593,419.893,212.845,438.824,212.845,462.173z"/>
							</g>
						</g>
					</g>
				</g>
			</g>
		</g>
		<g>
			<path style="fill:#FCC16D;" d="M296.839,83.354h-27.375V55.979c0-2.761-2.239-5-5-5h-16.925c-2.761,0-5,2.239-5,5v27.375h-27.375
				c-2.761,0-5,2.239-5,5v16.925c0,2.761,2.239,5,5,5h27.375v62.569c0,2.761,2.239,5,5,5h16.925c2.761,0,5-2.239,5-5v-62.569h27.375
				c2.761,0,5-2.239,5-5V88.354C301.839,85.593,299.6,83.354,296.839,83.354z"/>
		</g>
		<g>
			<path style="fill:#918291;" d="M321.808,326.481H190.195c-5.523,0-10-4.477-10-10v-98.995c0-5.523,4.477-10,10-10h131.613
				c5.523,0,10,4.477,10,10v98.995C331.808,322.004,327.331,326.481,321.808,326.481z"/>
			<path style="fill:#7A6E79;" d="M331.811,217.49v98.99c0,5.52-4.48,10-10,10h-27.16c5.52,0,10-4.48,10-10v-98.99
				c0-5.53-4.48-10-10-10h27.16C327.331,207.49,331.811,211.96,331.811,217.49z"/>
			<g>
				<path d="M121.086,177.511c4.143,0,7.5-3.357,7.5-7.5v-27.596C128.586,72.158,185.745,15,256.001,15
					c30.921,0,60.741,11.219,83.969,31.59c3.114,2.731,7.853,2.42,10.584-0.693c2.731-3.114,2.421-7.853-0.693-10.584
					C323.896,12.541,290.563,0,256.001,0c-78.528,0-142.415,63.887-142.415,142.415v27.596
					C113.586,174.153,116.944,177.511,121.086,177.511z"/>
				<path d="M474.308,467.966h-1.143c8.736-9.599,14.177-22.996,14.177-37.806c0-17.676-7.747-33.34-19.604-42.93V285.611
					c0-6.936-5.643-12.577-12.578-12.577h-10.759v-6.583c4.08-1.172,7.828-3.345,10.944-6.408c4.985-4.901,7.73-11.449,7.73-18.439
					c0-15.015-10.087-30.587-18.549-41.006c-2.589-3.188-6.683-4.592-10.685-3.659c-3.979,0.926-7.018,3.972-7.928,7.949
					c-1.105,4.822-3.683,9.191-6.411,13.816c-3.138,5.318-6.383,10.817-7.625,17.445c-1.468,7.825,0.537,15.802,5.499,21.887
					c3.173,3.89,7.36,6.703,12.023,8.196v6.802h-8.984c-6.936,0-12.578,5.642-12.578,12.577v87.64
					c-3.259,0.39-6.412,1.247-9.422,2.508V142.415c0-28.242-8.258-55.543-23.88-78.953c-2.299-3.445-6.956-4.376-10.401-2.075
					c-3.445,2.299-4.375,6.956-2.075,10.401c13.972,20.937,21.356,45.358,21.356,70.627v234.987
					c-21.894,0.953-39.977,18.935-44.103,42.514H222.721c-5.006-2.338-10.49-3.636-16.239-3.636c-2.883,0-5.741,0.339-8.53,0.977
					c-5.131-3.112-10.874-4.859-16.933-4.859c0.14-1.078,0.217-2.168,0.217-3.267v-5.671c0-6.936-5.643-12.577-12.578-12.577
					h-16.714v-56.424c0-6.936-5.642-12.577-12.577-12.577h-10.78v-6.577c4.088-1.171,7.844-3.346,10.966-6.415
					c4.984-4.9,7.729-11.448,7.729-18.438c0-15.016-10.087-30.588-18.549-41.007c-0.046-0.056-0.1-0.102-0.146-0.157v-43.883
					c0-4.143-3.357-7.5-7.5-7.5s-7.5,3.357-7.5,7.5v42.642c-1.701,1.445-2.942,3.403-3.466,5.688
					c-1.104,4.824-3.683,9.193-6.412,13.819c-3.138,5.316-6.382,10.815-7.624,17.442c-1.468,7.824,0.536,15.802,5.499,21.887
					c3.168,3.885,7.347,6.695,12.003,8.19v6.808h-8.964c-6.936,0-12.577,5.642-12.577,12.577v56.424H75.331
					c-6.936,0-12.577,5.642-12.577,12.577v5.671c0,3.849,0.854,7.501,2.373,10.785h-2.72c-9.71,0-17.609,7.899-17.609,17.609v30.44
					h-7.104c-9.71,0-17.609,7.899-17.609,17.609v8.815c0,9.71,7.899,17.609,17.609,17.609h436.616
					c9.71,0,17.609-7.899,17.609-17.609v-8.815C491.917,475.865,484.018,467.966,474.308,467.966z M426.621,238.914
					c0.758-4.039,3.095-8.001,5.802-12.588c1.777-3.013,3.693-6.26,5.303-9.854c6.641,9.535,10.351,18.451,10.351,25.132
					c0,2.935-1.153,5.685-3.246,7.742c-2.093,2.056-4.818,3.155-7.802,3.111c-3.167-0.054-6.018-1.439-8.026-3.901
					C426.837,245.901,425.969,242.388,426.621,238.914z M110.827,287.763c0.758-4.039,3.095-8,5.801-12.586
					c1.778-3.014,3.694-6.262,5.305-9.856c6.641,9.535,10.35,18.451,10.35,25.132c0,2.935-1.152,5.684-3.246,7.741
					c-2.092,2.057-4.884,3.161-7.801,3.112c-3.168-0.054-6.019-1.44-8.027-3.902C111.043,294.749,110.175,291.235,110.827,287.763z
					 M383.678,427.982c0-22.047,12.67-39.983,28.244-39.983s28.244,17.937,28.244,39.983c0,11.066-3.182,21.389-8.961,29.065
					c-5.3,7.04-12.148,10.918-19.283,10.918C396.348,467.966,383.678,450.029,383.678,427.982z M472.341,430.16
					c0,20.373-13.633,37.024-30.627,37.773c0.501-0.605,0.994-1.225,1.476-1.864c7.724-10.261,11.978-23.787,11.977-38.087
					c0-13.399-3.793-25.688-10.08-35.238C460.476,395.384,472.341,411.154,472.341,430.16z M452.738,288.034v91.151
					c-3.897-1.189-7.99-1.835-12.217-1.835c-3.285,0-6.547,0.407-9.733,1.167c-2.523-1.562-5.182-2.821-7.949-3.74v-86.743H452.738z
					 M378.442,393.228c-6.098,9.479-9.764,21.582-9.764,34.755c0,15.65,5.177,29.782,13.459,39.805
					c-16.094-1.861-28.716-18.023-28.716-37.627C353.421,412.085,364.153,396.939,378.442,393.228z M212.277,432.02
					c12.395,3.186,21.715,16.365,21.715,32.1c0,16.997-10.873,31.018-24.752,32.675c6.866-8.966,11.105-21.173,11.105-34.616
					C220.344,450.848,217.332,440.396,212.277,432.02z M205.344,462.179c0,18.853-11.141,34.78-24.328,34.781
					c-13.188,0-24.328-15.928-24.328-34.781s11.141-34.781,24.328-34.781S205.344,443.325,205.344,462.179z M152.545,496.467
					c-12.929-2.679-22.794-16.159-22.794-32.347c0-14.835,8.284-27.397,19.619-31.456c-4.824,8.265-7.682,18.474-7.682,29.515
					C141.688,475.459,145.826,487.532,152.545,496.467z M107.045,336.882h29.898v54.001h-29.898V336.882z M77.753,405.883h88.482
					v3.248c0,2.905-1.142,5.6-3.158,7.612c-1.925-0.297-3.87-0.462-5.816-0.462c-5.759,0-11.25,1.301-16.263,3.646
					c-0.071-0.002-52.459-0.011-52.459-0.011c-5.947,0-10.785-4.838-10.785-10.785V405.883z M59.796,437.525
					c0-1.438,1.171-2.609,2.609-2.609h61.22c-5.557,8.086-8.875,18.215-8.875,29.204c0,1.296,0.059,2.576,0.149,3.846H59.796
					V437.525z M35.083,494.391v-8.815c0-1.438,1.171-2.609,2.609-2.609h80.503c1.997,5.224,4.803,9.964,8.232,14.034H37.692
					C36.253,497,35.083,495.829,35.083,494.391z M476.917,494.391c0,1.438-1.171,2.609-2.609,2.609H237.317
					c3.429-4.071,6.234-8.81,8.232-14.034h42.089c4.143,0,7.5-3.357,7.5-7.5s-3.357-7.5-7.5-7.5h-38.795
					c0.09-1.27,0.149-2.55,0.149-3.846c0-10.99-3.318-21.118-8.875-29.204h98.503c1.027,12.91,6.187,24.49,13.977,33.05h-29.565
					c-4.143,0-7.5,3.357-7.5,7.5s3.357,7.5,7.5,7.5h151.275c1.438,0,2.609,1.171,2.609,2.609V494.391z"/>
				<path d="M264.463,43.479H247.54c-6.893,0-12.5,5.607-12.5,12.5v19.876h-19.876c-6.893,0-12.5,5.607-12.5,12.5v16.925
					c0,6.893,5.607,12.5,12.5,12.5h19.876v55.069c0,6.893,5.607,12.5,12.5,12.5h16.924c6.893,0,12.5-5.607,12.5-12.5v-55.069h19.876
					c6.893,0,12.5-5.607,12.5-12.5V88.354c0-6.893-5.607-12.5-12.5-12.5h-19.876V55.979
					C276.963,49.086,271.356,43.479,264.463,43.479z M294.339,90.854v11.925h-24.876c-4.143,0-7.5,3.357-7.5,7.5v60.069H250.04
					v-60.069c0-4.143-3.357-7.5-7.5-7.5h-24.876V90.854h24.876c4.143,0,7.5-3.357,7.5-7.5V58.479h11.924v24.876
					c0,4.143,3.357,7.5,7.5,7.5H294.339z"/>
				<path d="M339.308,316.481v-98.995c0-9.649-7.851-17.5-17.5-17.5H190.195c-9.649,0-17.5,7.851-17.5,17.5v98.995
					c0,9.649,7.851,17.5,17.5,17.5h131.613C331.458,333.981,339.308,326.131,339.308,316.481z M187.695,316.481v-98.995
					c0-1.379,1.121-2.5,2.5-2.5h131.613c1.379,0,2.5,1.121,2.5,2.5v98.995c0,1.379-1.121,2.5-2.5,2.5H190.195
					C188.816,318.981,187.695,317.86,187.695,316.481z"/>
				<path d="M299.402,230.98h-86.801c-4.143,0-7.5,3.357-7.5,7.5s3.357,7.5,7.5,7.5h86.801c4.143,0,7.5-3.357,7.5-7.5
					S303.544,230.98,299.402,230.98z"/>
				<path d="M283.161,265.474h-54.318c-4.143,0-7.5,3.357-7.5,7.5s3.357,7.5,7.5,7.5h54.318c4.143,0,7.5-3.357,7.5-7.5
					S287.303,265.474,283.161,265.474z"/>
				<path d="M283.161,289.021h-54.318c-4.143,0-7.5,3.357-7.5,7.5s3.357,7.5,7.5,7.5h54.318c4.143,0,7.5-3.357,7.5-7.5
					S287.303,289.021,283.161,289.021z"/>
				<path d="M212.743,379.854v7.739c0,4.143,3.357,7.5,7.5,7.5s7.5-3.357,7.5-7.5v-7.739c0-4.143-3.357-7.5-7.5-7.5
					S212.743,375.712,212.743,379.854z"/>
				<path d="M248.501,379.854v7.739c0,4.143,3.357,7.5,7.5,7.5s7.5-3.357,7.5-7.5v-7.739c0-4.143-3.357-7.5-7.5-7.5
					S248.501,375.712,248.501,379.854z"/>
				<path d="M284.26,379.854v7.739c0,4.143,3.357,7.5,7.5,7.5s7.5-3.357,7.5-7.5v-7.739c0-4.143-3.357-7.5-7.5-7.5
					S284.26,375.712,284.26,379.854z"/>
				<path d="M165.918,152.72c0.106,4.074,3.442,7.304,7.493,7.304c0.066,0,0.134-0.001,0.2-0.003l9.808-0.257
					c2.826,2.739,6.06,5.337,9.789,7.714c1.249,0.797,2.645,1.177,4.024,1.177c2.477,0,4.901-1.227,6.331-3.47
					c2.227-3.493,1.2-8.129-2.293-10.355c-2.328-1.484-4.4-3.083-6.262-4.762l2.229-6.728c1.303-3.932-0.828-8.176-4.76-9.479
					c-2.89-0.958-5.941-0.056-7.876,2.046c-0.352-0.766-0.676-1.533-0.979-2.302l5.006-5.427c2.809-3.044,2.617-7.789-0.428-10.598
					c-2.268-2.094-5.482-2.517-8.135-1.337c-0.059-1.355-0.072-2.655-0.05-3.885l6.544-3.096c3.744-1.771,5.344-6.242,3.572-9.986
					c-1.2-2.537-3.64-4.084-6.252-4.271c0.593-1.377,1.267-2.753,2.051-4.073c2.113-3.563,0.938-8.164-2.623-10.277
					c-3.563-2.111-8.163-0.938-10.277,2.623c-1.88,3.168-3.318,6.495-4.419,9.639c-2.946-2.781-7.586-2.731-10.46,0.16
					c-2.921,2.937-2.908,7.686,0.028,10.606l6.887,6.851c-0.088,2.553-0.062,5.61,0.22,9.003c-3.622-1.089-7.558,0.707-9.061,4.271
					c-1.608,3.816,0.181,8.216,3.998,9.824l8.851,3.731c0.918,2.563,2.039,5.15,3.384,7.722
					C168.687,145.565,165.817,148.836,165.918,152.72z"/>
				<path d="M343.39,92.916c-1.1-3.144-2.539-6.47-4.419-9.639c-2.113-3.562-6.715-4.734-10.277-2.623
					c-3.562,2.113-4.736,6.715-2.623,10.277c0.783,1.32,1.458,2.696,2.05,4.073c-2.612,0.187-5.052,1.735-6.251,4.271
					c-1.771,3.744-0.172,8.215,3.572,9.986l6.544,3.096c0.022,1.23,0.01,2.529-0.049,3.884c-2.652-1.179-5.866-0.755-8.135,1.339
					c-3.045,2.809-3.236,7.554-0.428,10.598l5.006,5.427c-0.303,0.768-0.627,1.535-0.978,2.301
					c-1.934-2.102-4.985-3.004-7.877-2.045c-3.932,1.303-6.063,5.547-4.76,9.479l2.23,6.728c-1.862,1.679-3.934,3.278-6.262,4.762
					c-3.493,2.227-4.52,6.862-2.293,10.355c1.43,2.244,3.854,3.47,6.331,3.47c1.38,0,2.775-0.38,4.024-1.177
					c3.729-2.377,6.962-4.975,9.789-7.714l9.808,0.257c0.067,0.002,0.134,0.003,0.2,0.003c4.051,0,7.387-3.23,7.493-7.304
					c0.102-3.884-2.768-7.155-6.542-7.635c1.345-2.572,2.466-5.159,3.384-7.722l8.851-3.731c3.817-1.608,5.606-6.008,3.998-9.824
					c-1.503-3.566-5.439-5.36-9.061-4.271c0.282-3.394,0.308-6.45,0.22-9.003l6.887-6.851c2.937-2.921,2.949-7.67,0.028-10.606
					C350.974,90.185,346.334,90.135,343.39,92.916z"/>
				<path d="M60.509,288.152c0.108,0,0.217-0.002,0.326-0.007c4.139-0.177,7.35-3.675,7.173-7.813l-0.013-0.297
					c-0.177-4.139-3.672-7.372-7.813-7.173c-4.139,0.177-7.35,3.675-7.173,7.813l0.013,0.297
					C53.194,285.002,56.515,288.152,60.509,288.152z"/>
				<path d="M60.425,320.188c0.108,0,0.217-0.002,0.326-0.007c4.139-0.177,7.35-3.675,7.173-7.813l-0.013-0.297
					c-0.177-4.139-3.662-7.363-7.813-7.173c-4.139,0.177-7.35,3.675-7.173,7.813l0.013,0.297
					C53.11,317.037,56.431,320.188,60.425,320.188z"/>
				<path d="M75.293,289.081c-4.137,0.203-7.326,3.722-7.123,7.859c0.197,4.012,3.512,7.132,7.485,7.132
					c0.124,0,0.249-0.003,0.374-0.009l0.278-0.014c4.137-0.203,7.326-3.722,7.123-7.859c-0.203-4.137-3.719-7.324-7.859-7.123
					L75.293,289.081z"/>
				<path d="M44.987,303.984c0.124,0,0.249-0.003,0.374-0.009l0.278-0.014c4.137-0.203,7.326-3.722,7.123-7.859
					c-0.203-4.137-3.733-7.301-7.859-7.123l-0.278,0.014c-4.137,0.203-7.326,3.722-7.123,7.859
					C37.699,300.864,41.013,303.984,44.987,303.984z"/>
				<path d="M79.507,230.111c0.108,0,0.217-0.002,0.326-0.007c4.139-0.177,7.35-3.675,7.173-7.813l-0.013-0.297
					c-0.177-4.139-3.673-7.358-7.813-7.173c-4.139,0.177-7.35,3.675-7.173,7.813l0.013,0.297
					C72.192,226.961,75.513,230.111,79.507,230.111z"/>
				<path d="M79.423,262.146c0.108,0,0.217-0.002,0.326-0.007c4.139-0.177,7.35-3.675,7.173-7.813l-0.013-0.297
					c-0.177-4.139-3.662-7.349-7.813-7.173c-4.139,0.177-7.35,3.675-7.173,7.813l0.013,0.297
					C72.108,258.996,75.429,262.146,79.423,262.146z"/>
				<path d="M94.655,246.031c0.124,0,0.25-0.003,0.375-0.009l0.277-0.014c4.138-0.204,7.326-3.724,7.122-7.86
					s-3.722-7.295-7.86-7.122l-0.277,0.014c-4.138,0.204-7.326,3.724-7.122,7.86C87.368,242.912,90.682,246.031,94.655,246.031z"/>
				<path d="M63.986,245.943c0.124,0,0.25-0.003,0.375-0.009l0.277-0.014c4.138-0.204,7.326-3.724,7.122-7.86
					c-0.205-4.137-3.729-7.304-7.86-7.122l-0.277,0.014c-4.138,0.204-7.326,3.724-7.122,7.86
					C56.699,242.824,60.013,245.943,63.986,245.943z"/>
				<path d="M447.709,152.784c0.108,0,0.217-0.002,0.326-0.007c4.139-0.177,7.35-3.675,7.173-7.813l-0.013-0.297
					c-0.177-4.139-3.681-7.351-7.813-7.173c-4.139,0.177-7.35,3.675-7.173,7.813l0.013,0.297
					C440.394,149.634,443.715,152.784,447.709,152.784z"/>
				<path d="M447.625,184.819c0.108,0,0.217-0.002,0.326-0.007c4.139-0.177,7.35-3.675,7.173-7.813l-0.013-0.297
					c-0.177-4.14-3.671-7.379-7.813-7.173c-4.139,0.177-7.35,3.675-7.173,7.813l0.013,0.297
					C440.31,181.669,443.631,184.819,447.625,184.819z"/>
				<path d="M462.857,168.704c0.124,0,0.249-0.003,0.374-0.009l0.278-0.014c4.137-0.203,7.326-3.722,7.123-7.859
					c-0.203-4.136-3.708-7.308-7.859-7.123l-0.278,0.014c-4.137,0.203-7.326,3.722-7.123,7.859
					C455.569,165.584,458.883,168.704,462.857,168.704z"/>
				<path d="M432.188,168.616c0.124,0,0.249-0.003,0.374-0.009l0.278-0.014c4.137-0.203,7.326-3.722,7.123-7.859
					c-0.203-4.137-3.723-7.316-7.859-7.123l-0.278,0.014c-4.137,0.203-7.326,3.722-7.123,7.859
					C424.9,165.496,428.214,168.616,432.188,168.616z"/>
			</g>
		</g>
	</g>
</g>
<g>
</g>
<g>
</g>
<g>
</g>
<g>
</g>
<g>
</g>
<g>
</g>
<g>
</g>
<g>
</g>
<g>
</g>
<g>
</g>
<g>
</g>
<g>
</g>
<g>
</g>
<g>
</g>
<g>
</g>
</svg>
