<?xml version="1.0" encoding="iso-8859-1"?>
<!-- Generator: Adobe Illustrator 24.0.2, SVG Export Plug-In . SVG Version: 6.00 Build 0)  -->
<svg version="1.1" id="Capa_1" xmlns="http://www.w3.org/2000/svg" xmlns:xlink="http://www.w3.org/1999/xlink" x="0px" y="0px"
	 viewBox="0 0 511.993 511.993" style="enable-background:new 0 0 511.993 511.993;" xml:space="preserve">
<g>
	<g>
		<g>
			<circle style="fill:#C0A2D3;" cx="256.351" cy="225.869" r="218.369"/>
			<path style="fill:#B18BC8;" d="M474.721,225.87c0,120.6-97.77,218.37-218.37,218.37c-74.74,0-140.71-37.55-180.07-94.81
				c36.6,37.43,87.66,60.66,144.14,60.66c111.33,0,201.59-90.25,201.59-201.58c0-104.23-79.12-189.99-180.57-200.51
				c4.92-0.33,9.9-0.5,14.91-0.5C376.951,7.5,474.721,105.27,474.721,225.87z"/>
			<g>
				<path style="fill:#17998C;" d="M406.866,428.191H105.843c-13.79,0-26.264,8.186-31.752,20.837l-17.264,39.799
					c-3.21,7.4,2.214,15.666,10.281,15.666h378.494c8.066,0,13.491-8.266,10.281-15.666l-17.264-39.799
					C433.13,436.377,420.656,428.191,406.866,428.191z"/>
				<path style="fill:#915EB2;" d="M337.989,504.496H174.721v-29.374c0-6.189,5.017-11.206,11.206-11.206h140.855
					c6.189,0,11.206,5.017,11.206,11.206V504.496z"/>
				<path style="fill:#804EA0;" d="M337.994,475.117V504.5h-33.037v-29.383c0-6.186-5.02-11.206-11.206-11.206h33.037
					C332.973,463.91,337.994,468.931,337.994,475.117z"/>
				<path style="fill:#138B80;" d="M455.881,488.829l-17.258-39.805c-5.491-12.652-17.964-20.833-31.759-20.833h-49.667
					c13.795,0,26.268,8.181,31.759,20.833l17.258,39.805c3.216,7.396-2.208,15.667-10.276,15.667h49.667
					C453.662,504.496,459.097,496.225,455.881,488.829z"/>
			</g>
		</g>
		<g>
			<path style="fill:#FCB44D;" d="M183.359,183.467c-9.19-20.961-26.209-37.706-47.363-46.529c-4.442-1.853-4.442-8.104,0-9.956
				c21.153-8.823,38.172-25.569,47.363-46.53c1.86-4.242,7.958-4.242,9.818,0c9.19,20.961,26.209,37.706,47.362,46.529
				c4.442,1.853,4.442,8.104,0,9.956c-21.153,8.823-38.172,25.569-47.362,46.529C191.318,187.709,185.219,187.709,183.359,183.467z"
				/>
			<path style="fill:#FB9927;" d="M240.541,136.94c-21.15,8.82-38.17,25.57-47.36,46.53c-1.86,4.24-7.96,4.24-9.82,0
				c-3.7-8.45-8.68-16.22-14.7-23.05c23.11-6.88,41.08-25.7,46.76-49.3c7.37,6.61,15.85,11.99,25.12,15.86
				C244.981,128.83,244.981,135.08,240.541,136.94z"/>
		</g>
		<g>
			<path style="fill:#FCB44D;" d="M115.516,254.284c-6.686-15.25-19.068-27.432-34.458-33.852c-3.231-1.348-3.231-5.896,0-7.244
				c15.39-6.419,27.772-18.602,34.458-33.852c1.353-3.086,5.79-3.086,7.143,0c6.686,15.25,19.068,27.432,34.458,33.852
				c3.231,1.348,3.231,5.896,0,7.244c-15.39,6.419-27.771,18.602-34.458,33.852C121.305,257.37,116.869,257.37,115.516,254.284z"/>
			<path style="fill:#FB9927;" d="M157.121,220.43c-15.39,6.42-27.78,18.6-34.46,33.85c-1.36,3.09-5.79,3.09-7.15,0
				c-3.3-7.52-7.97-14.3-13.73-20.01c17.09-4.27,30.49-17.83,34.55-34.99c5.91,5.89,12.96,10.64,20.79,13.91
				C160.351,214.54,160.351,219.08,157.121,220.43z"/>
		</g>
		<g>
			<path style="fill:#FCB44D;" d="M260.482,361.076c-6.686-15.25-19.068-27.432-34.458-33.852c-3.231-1.348-3.231-5.896,0-7.243
				c15.39-6.419,27.771-18.602,34.458-33.852c1.353-3.086,5.79-3.086,7.143,0c6.686,15.25,19.068,27.432,34.458,33.852
				c3.231,1.348,3.231,5.896,0,7.243c-15.39,6.419-27.771,18.602-34.458,33.852C266.272,364.162,261.835,364.162,260.482,361.076z"
				/>
			<path style="fill:#FB9927;" d="M302.087,327.222c-15.39,6.42-27.78,18.6-34.46,33.85c-1.36,3.09-5.79,3.09-7.15,0
				c-3.3-7.52-7.97-14.3-13.73-20.01c17.09-4.27,30.49-17.83,34.55-34.99c5.91,5.89,12.96,10.64,20.79,13.91
				C305.317,321.332,305.317,325.872,302.087,327.222z"/>
			<g>
				<path d="M175.354,420.691C96.958,387.664,45.481,310.94,45.481,225.87C45.481,109.596,140.077,15,256.351,15
					c52.786,0,103.297,19.603,142.229,55.195c3.056,2.795,7.801,2.583,10.596-0.475c2.795-3.057,2.583-7.801-0.475-10.596
					C366.998,20.998,312.892,0,256.351,0C196.02,0,139.299,23.495,96.638,66.156c-42.662,42.662-66.157,99.383-66.157,159.714
					c0,81.029,42.908,154.635,111.459,194.821h-36.096c-16.788,0-31.952,9.951-38.634,25.353l-17.264,39.799
					c-2.517,5.802-1.947,12.421,1.522,17.708c3.469,5.286,9.315,8.442,15.639,8.442h378.494c6.323,0,12.17-3.156,15.64-8.443
					c3.47-5.286,4.038-11.906,1.522-17.707l-17.265-39.799c-6.68-15.401-21.845-25.353-38.634-25.353h-36.167
					c26.434-15.544,49.569-36.392,67.875-61.347c24.707-33.677,39.539-73.465,42.894-115.063c0.333-4.128-2.744-7.745-6.873-8.078
					c-4.128-0.342-7.745,2.744-8.078,6.873c-6.34,78.609-56.338,146.921-129.167,177.614h-87.581c-4.143,0-7.5,3.357-7.5,7.5
					s3.357,7.5,7.5,7.5h157.097c10.809,0,20.572,6.406,24.872,16.321l17.265,39.799c0.693,1.598,0.108,2.884-0.302,3.509
					c-0.409,0.625-1.357,1.673-3.099,1.673H345.489v-21.872c0-10.314-8.392-18.706-18.707-18.706H185.927
					c-10.314,0-18.706,8.392-18.706,18.706v21.872H67.107c-1.741,0-2.688-1.048-3.099-1.673c-0.409-0.624-0.994-1.911-0.301-3.509
					l17.264-39.799c4.301-9.915,14.063-16.321,24.872-16.321h108.53c4.143,0,7.5-3.357,7.5-7.5s-3.357-7.5-7.5-7.5H175.354z
					 M182.221,475.121c0-2.044,1.662-3.706,3.706-3.706h140.854c2.044,0,3.707,1.662,3.707,3.706v21.872H182.221V475.121z"/>
				<path d="M466.535,208.884c0.313,3.927,3.597,6.904,7.469,6.904c0.199,0,0.401-0.008,0.604-0.023
					c4.129-0.329,7.21-3.943,6.881-8.072c-3.55-44.547-20.088-86.646-47.826-121.749c-2.569-3.25-7.285-3.804-10.535-1.234
					c-3.25,2.568-3.803,7.285-1.234,10.535C447.785,128.01,463.221,167.306,466.535,208.884z"/>
				<path d="M243.426,143.859c4.826-2.013,7.945-6.684,7.945-11.899c0-5.217-3.119-9.888-7.944-11.9
					c-19.489-8.129-34.896-23.265-43.381-42.617c-2.042-4.66-6.665-7.672-11.776-7.673c-0.001,0-0.001,0-0.002,0
					c-5.111,0-9.735,3.012-11.778,7.671c-8.484,19.354-23.891,34.49-43.38,42.619c-4.826,2.013-7.944,6.684-7.944,11.9
					c0,5.216,3.118,9.887,7.943,11.899c19.49,8.129,34.896,23.265,43.381,42.619c0,0,0,0,0.001,0c2.043,4.66,6.667,7.67,11.779,7.67
					c5.111,0,9.734-3.012,11.776-7.67C208.532,167.124,223.938,151.988,243.426,143.859z M188.268,176.257
					c-9.654-19.472-25.41-34.972-45.024-44.297c19.614-9.326,35.37-24.826,45.024-44.298c9.655,19.472,25.411,34.973,45.025,44.297
					C213.679,141.284,197.924,156.784,188.268,176.257z"/>
				<path d="M129.527,176.324c-1.813-4.132-5.91-6.802-10.44-6.802c-4.529,0-8.627,2.67-10.44,6.803
					c-5.961,13.598-16.783,24.23-30.477,29.941c-4.273,1.784-7.035,5.923-7.035,10.544s2.762,8.76,7.037,10.544
					c13.691,5.711,24.514,16.344,30.475,29.941c0,0,0.001,0,0.001,0.001c1.813,4.132,5.91,6.802,10.439,6.802
					c4.53,0,8.628-2.67,10.441-6.803c5.962-13.598,16.785-24.231,30.477-29.941c4.273-1.784,7.035-5.923,7.035-10.544
					s-2.762-8.76-7.037-10.544C146.313,200.557,135.49,189.923,129.527,176.324z M119.088,244.674
					c-6.648-11.78-16.396-21.391-28.261-27.863c11.865-6.474,21.612-16.083,28.261-27.863c6.648,11.78,16.396,21.391,28.261,27.863
					C135.482,223.284,125.736,232.893,119.088,244.674z"/>
				<path d="M223.136,334.146c13.69,5.711,24.514,16.344,30.477,29.939c1.811,4.134,5.908,6.805,10.438,6.806
					c0.001,0,0.001,0,0.002,0c4.529,0,8.628-2.671,10.44-6.804c5.962-13.597,16.785-24.229,30.476-29.941
					c4.274-1.782,7.037-5.921,7.037-10.543c0-4.623-2.763-8.762-7.037-10.544c-13.69-5.711-24.514-16.344-30.476-29.941
					c-1.813-4.134-5.911-6.804-10.442-6.804c-4.53,0.001-8.628,2.672-10.438,6.804c-5.962,13.598-16.785,24.23-30.476,29.941
					c-4.274,1.782-7.037,5.921-7.037,10.544C216.1,328.225,218.863,332.363,223.136,334.146z M264.053,295.739
					c6.648,11.78,16.397,21.39,28.261,27.863c-11.865,6.474-21.611,16.082-28.261,27.862c-6.648-11.779-16.396-21.389-28.261-27.862
					C247.656,317.129,257.404,307.521,264.053,295.739z"/>
				<path d="M283.093,159.146c0.108,0,0.217-0.002,0.326-0.007c4.139-0.177,7.35-3.675,7.173-7.813l-0.013-0.297
					c-0.177-4.139-3.667-7.356-7.813-7.173c-4.139,0.177-7.35,3.675-7.173,7.813l0.013,0.297
					C275.778,155.996,279.099,159.146,283.093,159.146z"/>
				<path d="M275.522,184.002c0.172,4.029,3.493,7.18,7.487,7.18c0.108,0,0.217-0.002,0.326-0.007
					c4.139-0.177,7.35-3.675,7.173-7.813l-0.013-0.297c-0.177-4.139-3.694-7.347-7.813-7.173c-4.139,0.177-7.35,3.675-7.173,7.813
					L275.522,184.002z"/>
				<path d="M298.614,175.058l0.278-0.014c4.137-0.203,7.326-3.722,7.123-7.859c-0.203-4.137-3.727-7.313-7.859-7.123l-0.278,0.014
					c-4.137,0.203-7.326,3.722-7.123,7.859c0.197,4.012,3.512,7.132,7.485,7.132C298.364,175.066,298.489,175.063,298.614,175.058z"
					/>
				<path d="M267.945,174.97l0.278-0.014c4.137-0.203,7.326-3.722,7.123-7.859c-0.203-4.137-3.709-7.322-7.859-7.123l-0.278,0.014
					c-4.137,0.203-7.326,3.722-7.123,7.859c0.197,4.012,3.512,7.132,7.485,7.132C267.695,174.979,267.82,174.976,267.945,174.97z"/>
				<path d="M207.725,232.783c-0.176-4.139-3.677-7.354-7.813-7.173c-4.139,0.177-7.35,3.675-7.173,7.813l0.013,0.297
					c0.172,4.029,3.493,7.18,7.487,7.18c0.108,0,0.217-0.002,0.326-0.007c4.139-0.177,7.35-3.675,7.173-7.813L207.725,232.783z"/>
				<path d="M199.802,257.646c-4.138,0.19-7.338,3.699-7.147,7.837l0.014,0.297c0.186,4.021,3.503,7.155,7.486,7.155
					c0.116,0,0.233-0.003,0.351-0.008c4.138-0.19,7.338-3.699,7.147-7.837l-0.014-0.297
					C207.449,260.655,203.941,257.467,199.802,257.646z"/>
				<path d="M215.385,256.82c0.124,0,0.249-0.003,0.374-0.009l0.278-0.014c4.137-0.203,7.326-3.722,7.123-7.859
					c-0.204-4.136-3.729-7.308-7.859-7.123l-0.278,0.014c-4.137,0.203-7.326,3.722-7.123,7.859
					C208.097,253.7,211.412,256.82,215.385,256.82z"/>
				<path d="M184.381,241.739c-4.138,0.188-7.339,3.696-7.15,7.834c0.184,4.021,3.501,7.158,7.486,7.158
					c0.115,0,0.231-0.003,0.348-0.008l0.278-0.013c4.138-0.188,7.339-3.696,7.15-7.834c-0.189-4.138-3.71-7.331-7.834-7.15
					L184.381,241.739z"/>
				<path d="M367.845,277.025c-0.177-4.139-3.688-7.356-7.813-7.173c-4.139,0.177-7.35,3.675-7.173,7.813l0.013,0.297
					c0.172,4.029,3.493,7.18,7.487,7.18c0.108,0,0.217-0.002,0.326-0.007c4.139-0.177,7.35-3.675,7.173-7.813L367.845,277.025z"/>
				<path d="M359.923,301.888c-4.138,0.19-7.338,3.699-7.147,7.837l0.014,0.297c0.186,4.021,3.503,7.155,7.486,7.155
					c0.116,0,0.233-0.003,0.351-0.008c4.138-0.19,7.338-3.699,7.147-7.837l-0.014-0.297
					C367.569,304.897,364.067,301.701,359.923,301.888z"/>
				<path d="M375.17,286.069c-4.138,0.188-7.339,3.696-7.15,7.834c0.184,4.021,3.501,7.158,7.486,7.158
					c0.115,0,0.231-0.003,0.348-0.008l0.278-0.013c4.138-0.188,7.339-3.696,7.15-7.834c-0.189-4.139-3.718-7.319-7.834-7.15
					L375.17,286.069z"/>
				<path d="M344.501,285.981c-4.138,0.188-7.339,3.696-7.15,7.834c0.184,4.021,3.501,7.158,7.486,7.158
					c0.115,0,0.231-0.003,0.348-0.008l0.278-0.013c4.138-0.188,7.339-3.696,7.15-7.834s-3.698-7.336-7.834-7.15L344.501,285.981z"/>
			</g>
		</g>
	</g>
</g>
<g>
</g>
<g>
</g>
<g>
</g>
<g>
</g>
<g>
</g>
<g>
</g>
<g>
</g>
<g>
</g>
<g>
</g>
<g>
</g>
<g>
</g>
<g>
</g>
<g>
</g>
<g>
</g>
<g>
</g>
</svg>
