<?xml version="1.0" encoding="iso-8859-1"?>
<!-- Generator: Adobe Illustrator 24.0.2, SVG Export Plug-In . SVG Version: 6.00 Build 0)  -->
<svg version="1.1" id="Capa_1" xmlns="http://www.w3.org/2000/svg" xmlns:xlink="http://www.w3.org/1999/xlink" x="0px" y="0px"
	 viewBox="0 0 511.998 511.998" style="enable-background:new 0 0 511.998 511.998;" xml:space="preserve">
<g>
	<g>
		<g>
			<g>
				<g>
					<path style="fill:#554E55;" d="M442.07,94.08v147.809c0,20.45-9.84,39.89-26.31,52.01l-70.54,51.89l-41.35-56.21l68.42-50.32
						V94.08H442.07z"/>
				</g>
				<path style="fill:#433F43;" d="M372.291,94.08v29.79c9.22,1.71,20.45,2.95,33.61,2.95c0.039,0,0.079,0,0.118,0
					c6.138-0.004,11.132,4.928,11.132,11.066v95.783c0,20.45-9.83,39.89-26.3,52l-58.31,42.89l12.68,17.23l70.54-51.89
					c16.47-12.12,26.31-31.56,26.31-52.01V94.08H372.291z"/>
				<g>
					<path style="fill:#7A6E79;" d="M469.1,213.399v53.75c0,8.04-6.4,14.57-14.3,14.57h-12.3c-7.9,0-14.31-6.53-14.31-14.57v-53.75
						H469.1z"/>
					<path style="fill:#685E67;" d="M469.1,213.399v37.69c-8.24,1.06-16.45,1.6-24.44,1.6c-5.66,0-11.17-0.28-16.47-0.83v-38.46
						H469.1z"/>
					<g>
						<path style="fill:#17998C;" d="M438.271,149.55l35.655,65.638c2.426,4.465-0.283,10.025-5.244,10.738
							c-10.281,1.478-27.052,2.937-43.823,0.309v-73.16C424.859,145.553,434.695,142.967,438.271,149.55z"/>
						<path style="fill:#138B80;" d="M468.68,225.929c-4.83,0.69-11.09,1.38-18.12,1.64c2.54-2.12,3.47-5.92,1.72-9.16l-27.42-50.47
							v-14.86c0-7.53,9.83-10.11,13.41-3.53l35.66,65.64C476.35,219.649,473.64,225.209,468.68,225.929z"/>
					</g>
				</g>
				<path style="fill:#127E73;" d="M455.945,80.851L414.307,12.23c-3.826-6.306-12.977-6.306-16.803,0l-41.638,68.621
					c-3.248,5.353-0.743,12.369,5.186,14.385c9.138,3.108,24.019,6.586,44.854,6.586c20.835,0,35.716-3.478,44.854-6.586
					C456.688,93.22,459.193,86.204,455.945,80.851z"/>
				<path style="fill:#0C6E65;" d="M450.76,95.24c-4.95,1.68-11.58,3.47-19.92,4.75c3.96-2.9,5.27-8.54,2.55-13.02l-40.62-66.95
					l4.73-7.79c3.83-6.31,12.98-6.31,16.81,0l41.63,68.62C459.19,86.2,456.69,93.22,450.76,95.24z"/>
			</g>
			<g>
				<g>
					<path style="fill:#7A6E79;" d="M195.731,299.149l-61.34,56.21l-70.55-51.9c-16.47-12.11-26.3-31.55-26.3-52v-79.02h89.769
						v76.38L195.731,299.149z"/>
				</g>
				<path style="fill:#685E67;" d="M127.312,248.819v-76.38H37.542v26.91c10.81,2.99,26.27,5.83,46.16,5.83
					c1.797,0,3.557-0.023,5.28-0.068c8.487-0.22,15.46,6.658,15.46,15.148v32.434c0,3.852,1.832,7.474,4.935,9.757l70.124,51.579
					l16.23-14.88L127.312,248.819z"/>
				<path style="fill:#17998C;" d="M33.661,159.209L75.3,90.588c3.826-6.306,12.977-6.306,16.803,0l41.638,68.621
					c3.248,5.353,0.743,12.369-5.186,14.385c-9.138,3.108-24.019,6.586-44.854,6.586s-35.716-3.478-44.854-6.586
					C32.919,171.578,30.413,164.563,33.661,159.209z"/>
				<path style="fill:#138B80;" d="M128.552,173.599c-4.48,1.52-10.33,3.13-17.6,4.37c2.33-3.08,2.75-7.45,0.57-11.05l-41.27-68.01
					l5.05-8.32c3.82-6.31,12.97-6.31,16.8,0l41.64,68.62C136.992,164.56,134.482,171.58,128.552,173.599z"/>
			</g>
		</g>
		<g>
			<path style="fill:#7A6E79;" d="M329.901,136.01v141.989c0,5.43-4.4,9.83-9.83,9.83H194.091c-5.43,0-9.83-4.4-9.83-9.83V136.01
				c0-5.43,4.4-9.83,9.83-9.83h125.979C325.501,126.18,329.901,130.58,329.901,136.01z"/>
			<path style="fill:#685E67;" d="M320.071,126.18H194.091c-5.429,0-9.83,4.401-9.83,9.83v26.57c17.48,4.11,41.65,7.68,72.82,7.68
				c7.274,0,14.163-0.196,20.674-0.547c10.669-0.576,19.615,7.956,19.615,18.64v89.647c0,5.43-4.4,9.83-9.83,9.83h32.53
				c5.429,0,9.83-4.401,9.83-9.83V136.01C329.901,130.581,325.5,126.18,320.071,126.18z"/>
			<path style="fill:#FCB44D;" d="M469.947,504.498H44.216c-5.427,0-9.827-4.4-9.827-9.827V349.072c0-3.991,2.413-7.585,6.107-9.096
				l212.862-87.052c2.384-0.975,5.056-0.975,7.44,0l212.868,87.052c3.694,1.511,6.107,5.105,6.107,9.096V494.67
				C479.774,500.098,475.374,504.498,469.947,504.498z"/>
			<path style="fill:#FB9927;" d="M479.77,349.069v145.599c0,5.43-4.4,9.83-9.82,9.83h-31.07c5.43,0,9.83-4.4,9.83-9.83V335.589
				c0-2.7-1.11-5.22-2.98-7.04l27.94,11.43C477.36,341.489,479.77,345.079,479.77,349.069z"/>
			<path style="fill:#7A6E79;" d="M469.947,504.498H44.216c-5.427,0-9.827-4.4-9.827-9.827V385.5c0-3.991,2.413-7.585,6.107-9.096
				l212.862-87.052c2.384-0.975,5.056-0.975,7.44,0l212.868,87.052c3.694,1.511,6.107,5.105,6.107,9.096v109.17
				C479.774,500.098,475.374,504.498,469.947,504.498z"/>
			<path style="fill:#685E67;" d="M473.67,376.408l-212.869-87.06c-2.39-0.97-5.06-0.97-7.44,0l-212.869,87.06
				c-3.69,1.51-6.1,5.1-6.1,9.09v24.77c0-3.99,2.41-7.58,6.1-9.09l212.869-87.059c2.38-0.97,5.05-0.97,7.44,0l170.173,69.597
				c10.728,4.387,17.737,14.826,17.737,26.416v84.535c0,5.43-4.4,9.83-9.83,9.83h31.07c5.42,0,9.82-4.4,9.82-9.83V385.498
				C479.77,381.508,477.36,377.918,473.67,376.408z"/>
			<path style="fill:#D68A5A;" d="M317.418,504.498H194.584v-97.109c0-33.919,27.497-61.417,61.417-61.417h0
				c33.92,0,61.417,27.497,61.417,61.417V504.498z"/>
			<path style="fill:#C47A4A;" d="M317.421,407.388v97.109h-29.99v-97.109c0-16.96-6.87-32.31-17.99-43.43
				c-7.73-7.73-17.5-13.4-28.43-16.15c4.8-1.2,9.82-1.84,14.99-1.84c16.96,0,32.32,6.87,43.43,17.99
				C310.541,375.078,317.421,390.428,317.421,407.388z"/>
			<path style="fill:#17998C;" d="M343.56,119.082L265.009,11.848c-3.926-5.36-11.929-5.36-15.856,0l-78.551,107.234
				c-3.958,5.403-1.478,13.095,4.894,15.156c14.412,4.661,41.429,11.019,81.584,11.019s67.172-6.358,81.584-11.019
				C345.038,132.177,347.517,124.485,343.56,119.082z"/>
			<path style="fill:#138B80;" d="M338.671,134.24c-6.39,2.06-15.24,4.46-26.62,6.49c2.94-3.31,3.45-8.42,0.58-12.33L238.201,26.79
				l10.95-14.94c3.93-5.36,11.93-5.36,15.86,0l78.55,107.23C347.521,124.49,345.041,132.18,338.671,134.24z"/>
		</g>
	</g>
	<path style="fill:#FB8627;" d="M91.26,247.192H73.906c-2.761,0-5-2.239-5-5v-22.098c0-7.554,6.123-13.677,13.677-13.677h0
		c7.554,0,13.677,6.123,13.677,13.677v22.098C96.26,244.954,94.022,247.192,91.26,247.192z"/>
	<g>
		<g>
			<path style="fill:#FB8627;" d="M273.959,224.72h-35.916c-2.761,0-5-2.239-5-5v-25.019c0-12.679,10.279-22.958,22.958-22.958h0
				c12.679,0,22.958,10.279,22.958,22.958v25.019C278.959,222.481,276.721,224.72,273.959,224.72z"/>
			<path style="fill:#F2671F;" d="M278.961,194.699v25.02c0,2.76-2.24,5-5,5h-20.78c2.76,0,5-2.24,5-5v-25.02
				c0-6.34-2.57-12.08-6.72-16.24c-1.71-1.7-3.68-3.14-5.85-4.24c3.12-1.59,6.65-2.48,10.39-2.48c6.34,0,12.08,2.57,16.24,6.72
				C276.391,182.619,278.961,188.359,278.961,194.699z"/>
		</g>
	</g>
	<g>
		<g>
			<g>
				<path style="fill:#FB8627;" d="M123.671,468.803h36.005c2.761,0,5-2.239,5-5v-67.551c0-12.704-10.299-23.002-23.002-23.002h0
					c-12.704,0-23.002,10.299-23.002,23.002v67.551C118.671,466.564,120.909,468.803,123.671,468.803z"/>
				<path style="fill:#FB7722;" d="M164.672,396.248v67.55c0,2.77-2.23,5-5,5h-22.91c2.76,0,5-2.23,5-5v-67.55
					c0-8.52-4.64-15.97-11.54-19.94c3.37-1.95,7.28-3.06,11.45-3.06C154.382,373.248,164.672,383.548,164.672,396.248z"/>
			</g>
			<g>
				<path style="fill:#433F43;" d="M58.851,504.498h36.904v-38.199c0-10.191-8.261-18.452-18.452-18.452h0
					c-10.191,0-18.452,8.261-18.452,18.452V504.498z"/>
				<path style="fill:#353435;" d="M95.752,466.298v38.2h-21.31v-38.2c0-6.22-3.08-11.72-7.79-15.06c3-2.13,6.68-3.39,10.65-3.39
					C87.492,447.848,95.752,456.108,95.752,466.298z"/>
			</g>
		</g>
		<g>
			<g>
				<path style="fill:#FB8627;" d="M388.331,468.803h-36.005c-2.761,0-5-2.239-5-5v-67.551c0-12.704,10.299-23.002,23.002-23.002h0
					c12.704,0,23.002,10.299,23.002,23.002v67.551C393.331,466.564,391.093,468.803,388.331,468.803z"/>
				<path style="fill:#FB7722;" d="M393.33,396.248v67.55c0,2.77-2.24,5-5,5h-22.92c2.76,0,5-2.23,5-5v-67.55
					c0-6.35-2.57-12.1-6.74-16.26c-1.43-1.43-3.04-2.67-4.8-3.68c3.37-1.95,7.29-3.06,11.46-3.06c6.35,0,12.1,2.57,16.26,6.74
					C390.76,384.148,393.33,389.898,393.33,396.248z"/>
			</g>
			<g>
				<path style="fill:#433F43;" d="M453.152,504.498h-36.904v-38.199c0-10.191,8.261-18.452,18.452-18.452h0
					c10.191,0,18.452,8.261,18.452,18.452V504.498z"/>
				<path style="fill:#353435;" d="M453.15,466.298v38.2h-21.31v-38.2c0-5.1-2.06-9.71-5.4-13.05c-0.74-0.73-1.54-1.41-2.39-2.01
					c3-2.13,6.68-3.39,10.65-3.39c5.1,0,9.71,2.07,13.05,5.4C451.08,456.588,453.15,461.198,453.15,466.298z"/>
			</g>
		</g>
	</g>
	<g>
		<path d="M476.505,333.034l-65.097-26.622l8.798-6.473c4.96-3.65,9.402-7.918,13.271-12.71c2.752,1.272,5.806,1.986,9.024,1.986
			h12.295c12.023,0,21.806-9.9,21.806-22.069v-36.735c1.706-1.326,3.139-3.016,4.139-5.008c2.187-4.356,2.103-9.513-0.224-13.796
			l-30.995-57.059c0.026-0.253,0.039-0.51,0.039-0.771V103.49c1.293-0.388,2.502-0.775,3.614-1.153
			c4.973-1.692,8.856-5.499,10.654-10.444c1.807-4.97,1.271-10.413-1.472-14.933l-11.354-18.711l5.092-3.73
			c1.928-1.413,3.068-3.66,3.068-6.05V24.995c0-4.142-3.358-7.5-7.5-7.5s-7.5,3.358-7.5,7.5v19.67l-0.971,0.711L420.718,8.338
			C417.55,3.117,412.012,0,405.904,0c-6.107,0-11.645,3.118-14.813,8.339L349.453,76.96c-2.743,4.521-3.279,9.963-1.472,14.933
			c1.798,4.945,5.682,8.752,10.655,10.443c1.81,0.615,3.866,1.253,6.155,1.883v131.245l-27.393,20.149V142.48
			c1.252-0.374,2.46-0.745,3.575-1.106c5.274-1.706,9.441-5.873,11.146-11.147c1.708-5.278,0.769-11.102-2.51-15.577L271.06,7.416
			c-3.3-4.504-8.395-7.088-13.979-7.088c-5.583,0-10.679,2.583-13.978,7.088l-78.55,107.234c-3.279,4.476-4.217,10.3-2.51,15.578
			c1.706,5.273,5.873,9.44,11.146,11.146c1.115,0.361,2.324,0.732,3.575,1.106v133.401l-41.953-30.856v-66.209
			c3.108-2.016,5.513-4.985,6.814-8.564c1.807-4.97,1.271-10.413-1.472-14.933L98.515,86.697c-3.168-5.221-8.707-8.338-14.814-8.338
			c-6.107,0-11.645,3.118-14.813,8.339l-11.445,18.861l-6.062-4.556V80.529c0-4.142-3.358-7.5-7.5-7.5s-7.5,3.358-7.5,7.5v24.219
			c0,2.358,1.109,4.579,2.994,5.996l10.248,7.702l-22.374,36.873c-2.743,4.52-3.279,9.963-1.472,14.933
			c0.919,2.528,2.389,4.751,4.264,6.554v74.654c0,22.828,10.975,44.526,29.356,58.042l12.794,9.41l-34.534,14.123
			c-6.541,2.675-10.768,8.971-10.768,16.038V494.67c0,9.554,7.773,17.327,17.328,17.327h425.73c9.554,0,17.327-7.773,17.327-17.327
			v-48.242c0-4.142-3.358-7.5-7.5-7.5s-7.5,3.358-7.5,7.5v48.242c0,1.283-1.044,2.327-2.327,2.327h-9.295v-30.699
			c0-14.31-11.642-25.952-25.952-25.952c-14.31,0-25.952,11.642-25.952,25.952v30.699h-83.83v-89.609
			c0-38-30.916-68.917-68.917-68.917s-68.917,30.916-68.917,68.917v89.609h-83.83v-30.699c0-14.31-11.642-25.952-25.952-25.952
			c-14.31,0-25.952,11.642-25.952,25.952v30.699h-7.134c-1.284,0-2.328-1.044-2.328-2.327v-60.877
			c0.234,0.022,0.471,0.036,0.71,0.036h7.087c4.142,0,7.5-3.358,7.5-7.5s-3.358-7.5-7.5-7.5h-7.087c-0.24,0-0.476,0.014-0.71,0.036
			V385.5c0-0.949,0.568-1.795,1.446-2.154l212.862-87.052c0.569-0.233,1.194-0.232,1.762,0l212.868,87.052
			c0.878,0.359,1.446,1.205,1.446,2.154v25.533c0,4.142,3.358,7.5,7.5,7.5s7.5-3.358,7.5-7.5v-61.961
			C487.274,342.004,483.047,335.708,476.505,333.034z M263.498,354.005c5.276,0.738,10.307,2.242,14.982,4.396v138.597h-14.982
			V354.005z M248.498,496.998h-14.982V358.404c4.675-2.155,9.706-3.66,14.982-4.398V496.998z M423.748,466.299
			c0-6.039,4.913-10.952,10.952-10.952c6.039,0,10.952,4.913,10.952,10.952v30.699h-21.904V466.299z M309.918,407.389v89.609H293.48
			V368.682C303.606,378.49,309.918,392.212,309.918,407.389z M202.084,407.389c0-15.173,6.31-28.893,16.432-38.7v128.309h-16.432
			V407.389z M66.351,466.299c0-6.039,4.913-10.952,10.952-10.952c6.039,0,10.952,4.913,10.952,10.952v30.699H66.351V466.299z
			 M454.796,274.216h-12.295c-3.753,0-6.806-3.171-6.806-7.069V234.92c3.052,0.185,6.059,0.272,8.984,0.272
			c6.088,0,11.824-0.353,16.923-0.856v32.811C461.602,271.045,458.548,274.216,454.796,274.216z M432.359,219.624v-65.245
			l34.863,64.18C458.267,219.825,445.546,220.897,432.359,219.624z M362.078,86.767c-0.144-0.396-0.31-1.187,0.199-2.026
			l41.639-68.621c0.591-0.974,1.5-1.12,1.989-1.12c0.489,0,1.398,0.146,1.99,1.12l23.151,38.154l-10.619,7.78
			c-3.342,2.448-4.066,7.141-1.618,10.482c1.469,2.006,3.747,3.068,6.056,3.068c1.538,0,3.091-0.472,4.426-1.45l9.566-7.008
			l10.676,17.594c0,0,0,0,0,0c0.509,0.839,0.343,1.629,0.199,2.025c-0.17,0.467-0.549,1.083-1.388,1.369
			c-8.299,2.822-22.399,6.186-42.44,6.186c-20.041,0-34.14-3.364-42.439-6.186C362.626,87.85,362.248,87.234,362.078,86.767z
			 M376.735,245.3c1.921-1.413,3.056-3.656,3.056-6.042v-67.686c0.142,0.008,0.283,0.021,0.427,0.021h7.087
			c4.142,0,7.5-3.358,7.5-7.5s-3.358-7.5-7.5-7.5h-7.087c-0.144,0-0.285,0.013-0.427,0.021v-49.224
			c7.412,1.148,16.112,1.93,26.114,1.93c11.166,0,20.721-0.972,28.656-2.343v31.502c-1.974-0.339-4.051-0.27-6.125,0.258
			c-6.626,1.684-11.078,7.445-11.078,14.337v73.16c0,2.574,1.308,4.878,3.335,6.234v34.677c0,3.371,0.753,6.567,2.095,9.427
			c-3.28,4.3-7.131,8.089-11.472,11.284l-16.177,11.901l-57.741-23.613v-1.911L376.735,245.3z M238.919,152.316
			c4.125,0.198,7.657-2.983,7.861-7.12s-2.983-7.657-7.12-7.861c-29.482-1.458-49.91-6.369-61.854-10.233
			c-0.98-0.317-1.354-1.07-1.491-1.49c-0.137-0.424-0.275-1.259,0.339-2.097l78.55-107.234c0.607-0.828,1.437-0.952,1.877-0.952
			c0.441,0,1.271,0.124,1.878,0.952l78.551,107.235c0.614,0.838,0.476,1.673,0.338,2.096c-0.136,0.421-0.511,1.174-1.491,1.491
			c-11.976,3.874-32.46,8.794-62.04,10.24c-4.137,0.203-7.327,3.72-7.125,7.857c0.196,4.013,3.511,7.134,7.485,7.134
			c0.123,0,0.248-0.003,0.372-0.009c19.357-0.946,35.107-3.333,47.348-5.999v24.143h-4.587c-4.142,0-7.5,3.358-7.5,7.5
			s3.358,7.5,7.5,7.5h4.587v84.543l-58.761-24.03c-4.229-1.729-8.888-1.729-13.118,0l-58.755,24.029V146.326
			C203.964,148.984,219.65,151.364,238.919,152.316z M40.073,163.1l41.639-68.621c0.591-0.974,1.5-1.12,1.989-1.12
			c0.489,0,1.398,0.146,1.99,1.12l41.638,68.621c0.509,0.839,0.344,1.629,0.2,2.025c-0.17,0.467-0.549,1.083-1.388,1.369
			c-8.299,2.822-22.399,6.186-42.44,6.186c-20.041,0-34.141-3.364-42.439-6.186c-0.84-0.286-1.219-0.902-1.389-1.369
			C39.73,164.729,39.564,163.939,40.073,163.1z M263.637,282.41c-4.229-1.729-8.888-1.729-13.118,0L41.889,367.732v-18.66
			c0-0.949,0.568-1.795,1.446-2.154l74.776-30.58c3.834-1.568,5.671-5.947,4.103-9.781c-1.567-3.833-5.945-5.67-9.781-4.103
			l-23.973,9.804l-20.176-14.841c-14.554-10.701-23.243-27.881-23.243-45.958v-68.236c9.405,2.374,22.306,4.457,38.66,4.457
			c14.924,0,26.969-1.735,36.11-3.842v64.981c0,2.385,1.135,4.628,3.056,6.042l37.857,27.844l-15.712,6.426
			c-3.834,1.568-5.671,5.947-4.103,9.781c1.568,3.834,5.946,5.671,9.781,4.103l105.507-43.148c0.569-0.233,1.194-0.232,1.762,0
			l212.868,87.052c0.878,0.359,1.446,1.205,1.446,2.154v18.66L263.637,282.41z"/>
		<path d="M103.76,220.094c0-11.677-9.5-21.177-21.177-21.177c-11.677,0-21.177,9.5-21.177,21.177v22.098
			c0,6.893,5.607,12.5,12.5,12.5H91.26c6.893,0,12.5-5.607,12.5-12.5V220.094z M88.76,239.692H76.406v-19.598
			c0-3.406,2.771-6.177,6.177-6.177c3.406,0,6.177,2.771,6.177,6.177V239.692z"/>
		<path d="M238.043,232.22h35.916c6.893,0,12.5-5.607,12.5-12.5v-25.019c0-16.794-13.664-30.458-30.458-30.458
			s-30.458,13.664-30.458,30.458v25.019C225.543,226.612,231.151,232.22,238.043,232.22z M240.543,194.701
			c0-8.523,6.935-15.458,15.458-15.458c8.523,0,15.458,6.935,15.458,15.458v22.519h-30.916V194.701z"/>
		<path d="M223.001,102.145h-7.087c-4.142,0-7.5,3.358-7.5,7.5s3.358,7.5,7.5,7.5h7.087c4.142,0,7.5-3.358,7.5-7.5
			S227.143,102.145,223.001,102.145z"/>
		<path d="M208.826,247.775h7.087c4.142,0,7.5-3.358,7.5-7.5s-3.358-7.5-7.5-7.5h-7.087c-4.142,0-7.5,3.358-7.5,7.5
			S204.684,247.775,208.826,247.775z"/>
		<path d="M300.329,208.776h7.087c4.142,0,7.5-3.358,7.5-7.5s-3.358-7.5-7.5-7.5h-7.087c-4.142,0-7.5,3.358-7.5,7.5
			S296.187,208.776,300.329,208.776z"/>
		<path d="M116.637,274.219h-7.087c-4.142,0-7.5,3.358-7.5,7.5s3.358,7.5,7.5,7.5h7.087c4.142,0,7.5-3.358,7.5-7.5
			S120.779,274.219,116.637,274.219z"/>
		<path d="M90.789,263.701h-7.087c-4.142,0-7.5,3.358-7.5,7.5s3.358,7.5,7.5,7.5h7.087c4.142,0,7.5-3.358,7.5-7.5
			S94.931,263.701,90.789,263.701z"/>
		<path d="M396.798,260.189h7.087c4.142,0,7.5-3.358,7.5-7.5s-3.358-7.5-7.5-7.5h-7.087c-4.142,0-7.5,3.358-7.5,7.5
			S392.656,260.189,396.798,260.189z"/>
		<path d="M400.341,144.85h7.087c4.142,0,7.5-3.358,7.5-7.5s-3.358-7.5-7.5-7.5h-7.087c-4.142,0-7.5,3.358-7.5,7.5
			S396.199,144.85,400.341,144.85z"/>
		<path d="M256.655,87.739c0-4.142-3.358-7.5-7.5-7.5h-7.087c-4.142,0-7.5,3.358-7.5,7.5s3.358,7.5,7.5,7.5h7.087
			C253.297,95.239,256.655,91.881,256.655,87.739z"/>
		<path d="M70.252,161.279h7.087c4.142,0,7.5-3.358,7.5-7.5s-3.358-7.5-7.5-7.5h-7.087c-4.142,0-7.5,3.358-7.5,7.5
			S66.11,161.279,70.252,161.279z"/>
		<path d="M80.158,140.52h7.087c4.142,0,7.5-3.358,7.5-7.5s-3.358-7.5-7.5-7.5h-7.087c-4.142,0-7.5,3.358-7.5,7.5
			S76.016,140.52,80.158,140.52z"/>
		<path d="M294.194,117.145h7.087c4.142,0,7.5-3.358,7.5-7.5s-3.358-7.5-7.5-7.5h-7.087c-4.142,0-7.5,3.358-7.5,7.5
			S290.052,117.145,294.194,117.145z"/>
		<path d="M396.314,69.043h-7.087c-4.142,0-7.5,3.358-7.5,7.5s3.358,7.5,7.5,7.5h7.087c4.142,0,7.5-3.358,7.5-7.5
			S400.456,69.043,396.314,69.043z"/>
		<path d="M111.171,396.251v67.551c0,6.893,5.607,12.5,12.5,12.5h36.005c6.893,0,12.5-5.607,12.5-12.5v-67.551
			c0-16.819-13.683-30.502-30.502-30.502S111.171,379.432,111.171,396.251z M157.176,396.251v65.051h-31.005v-65.051
			c0-8.548,6.955-15.502,15.502-15.502S157.176,387.704,157.176,396.251z"/>
		<path d="M352.326,476.303h36.005c6.893,0,12.5-5.607,12.5-12.5v-44.485h7.074c4.142,0,7.5-3.358,7.5-7.5s-3.358-7.5-7.5-7.5
			h-7.074v-8.066c0-16.819-13.683-30.502-30.502-30.502s-30.502,13.683-30.502,30.502v67.551
			C339.826,470.695,345.434,476.303,352.326,476.303z M354.826,396.251c0-8.548,6.955-15.502,15.502-15.502
			s15.502,6.955,15.502,15.502v65.051h-31.005V396.251z"/>
		<path d="M431.156,389.059c-4.142,0-7.5,3.358-7.5,7.5s3.358,7.5,7.5,7.5h7.087c4.142,0,7.5-3.358,7.5-7.5s-3.358-7.5-7.5-7.5
			H431.156z"/>
		<path d="M332.541,344.398h-7.087c-4.142,0-7.5,3.358-7.5,7.5s3.358,7.5,7.5,7.5h7.087c4.142,0,7.5-3.358,7.5-7.5
			S336.683,344.398,332.541,344.398z"/>
		<path d="M56.774,395.62c-4.142,0-7.5,3.358-7.5,7.5s3.358,7.5,7.5,7.5h7.087c4.142,0,7.5-3.358,7.5-7.5s-3.358-7.5-7.5-7.5H56.774
			z"/>
		<path d="M87.245,413.523c-4.142,0-7.5,3.358-7.5,7.5s3.358,7.5,7.5,7.5h7.087c4.142,0,7.5-3.358,7.5-7.5s-3.358-7.5-7.5-7.5
			H87.245z"/>
	</g>
</g>
<g>
</g>
<g>
</g>
<g>
</g>
<g>
</g>
<g>
</g>
<g>
</g>
<g>
</g>
<g>
</g>
<g>
</g>
<g>
</g>
<g>
</g>
<g>
</g>
<g>
</g>
<g>
</g>
<g>
</g>
</svg>
