<?xml version="1.0" encoding="iso-8859-1"?>
<!-- Generator: Adobe Illustrator 24.0.2, SVG Export Plug-In . SVG Version: 6.00 Build 0)  -->
<svg version="1.1" id="Capa_1" xmlns="http://www.w3.org/2000/svg" xmlns:xlink="http://www.w3.org/1999/xlink" x="0px" y="0px"
	 viewBox="0 0 511.996 511.996" style="enable-background:new 0 0 511.996 511.996;" xml:space="preserve">
<g>
	<g>
		<g>
			<g>
				<g>
					<path style="fill:#9A5E5F;" d="M136.22,489.316l-14.079-5.741c-5.035-2.053-7.452-7.799-5.399-12.834l28.841-70.733
						c2.053-5.035,7.799-7.452,12.834-5.399l14.079,5.741c5.035,2.053,7.452,7.799,5.399,12.834l-28.841,70.733
						C147.001,488.951,141.255,491.369,136.22,489.316z"/>
					<path style="fill:#845152;" d="M177.898,413.179l-18.115,44.432c-10.525-5.612-20.469-12.179-29.674-19.642l15.477-37.964
						c2.048-5.031,7.798-7.453,12.829-5.395l14.079,5.74C177.533,402.398,179.946,408.148,177.898,413.179z"/>
				</g>
				<g>
					<path style="fill:#9A5E5F;" d="M375.782,489.316l14.079-5.741c5.035-2.053,7.452-7.799,5.399-12.834l-28.841-70.733
						c-2.053-5.035-7.799-7.452-12.834-5.399l-14.079,5.741c-5.035,2.053-7.452,7.799-5.399,12.834l28.841,70.733
						C365.001,488.951,370.747,491.369,375.782,489.316z"/>
					<path style="fill:#845152;" d="M381.894,437.959c-9.205,7.473-19.149,14.039-29.674,19.642l-18.115-44.422
						c-2.048-5.031,0.364-10.781,5.405-12.829l14.079-5.74c5.031-2.058,10.781,0.364,12.829,5.395L381.894,437.959z"/>
				</g>
			</g>
			<g>
				<path style="fill:#554E55;" d="M400.688,215.982c13.013-15.501,10.742-31.665,10.742-31.665H100.563
					c0,0-2.271,16.163,10.741,31.664c9.355,11.144,10.587,26.883,2.908,39.242c-11.897,19.145-18.638,40.986-18.638,64.173
					c0,75.698,71.824,137.063,160.424,137.063s160.424-61.365,160.424-137.063c0-23.189-6.742-45.031-18.641-64.177
					C390.102,242.862,391.334,227.124,400.688,215.982z"/>
				<path style="fill:#433F43;" d="M416.418,319.4c0,75.691-71.822,137.057-160.42,137.057c-6.399,0-12.71-0.325-18.913-0.945
					c79.698-7.994,141.517-65.885,141.517-136.112c0-23.196-6.744-45.033-18.647-64.182c-7.679-12.356-6.439-28.099,2.914-39.234
					c13.006-15.506,10.741-31.663,10.741-31.663h37.816c0,0,2.274,16.156-10.741,31.663c-9.353,11.135-10.584,26.878-2.904,39.234
					C409.684,274.367,416.418,296.204,416.418,319.4z"/>
			</g>
			<ellipse style="fill:#6E4189;" cx="255.998" cy="184.317" rx="155.434" ry="26.568"/>
			<path style="fill:#804EA0;" d="M411.428,184.316c0,4.31-6,8.38-16.65,11.98c-25.62-8.66-78.14-14.6-138.78-14.6
				s-113.16,5.94-138.78,14.6c-10.65-3.6-16.65-7.67-16.65-11.98c0-14.67,69.59-26.57,155.43-26.57S411.428,169.646,411.428,184.316
				z"/>
			<path style="fill:#B88081;" d="M263.603,504.496h-15.204c-5.437,0-9.845-4.408-9.845-9.845v-76.387
				c0-5.437,4.408-9.845,9.845-9.845h15.204c5.437,0,9.845,4.408,9.845,9.845v76.387
				C273.449,500.088,269.041,504.496,263.603,504.496z"/>
		</g>
		<g>
			<path style="fill:#9A5E5F;" d="M408.466,28.047l-85.034,180.219c-10.338,0.847-21.315,1.506-32.775,1.959L382.406,15.75
				c3.397-7.187,11.982-10.269,19.179-6.872C408.782,12.265,411.863,20.85,408.466,28.047z"/>
		</g>
		<path style="fill:#845152;" d="M334.258,185.306l-10.83,22.96c-10.33,0.85-21.31,1.51-32.77,1.96l12.86-27.27
			C314.328,183.556,324.628,184.346,334.258,185.306z"/>
	</g>
	<g>
		<path d="M169.693,154.665c-5.997-9.864-8-21.778-5.21-32.877c3.738-14.865,19.098-23.856,34.236-20.053
			c9.395,2.363,15.156,11.771,12.842,20.973c-0.633,2.517-2.23,4.638-4.496,5.971c-2.303,1.355-5.014,1.737-7.637,1.078
			c-2.558-0.644-4.135-3.171-3.516-5.635c1.01-4.017-1.428-8.092-5.445-9.102c-4.014-1.013-8.092,1.428-9.102,5.445
			c-2.636,10.485,3.826,21.179,14.405,23.839c6.47,1.627,13.182,0.669,18.901-2.696c5.755-3.386,9.817-8.799,11.437-15.242
			c4.331-17.223-6.314-34.798-23.73-39.178c-23.163-5.826-46.687,8.057-52.441,30.942c-3.282,13.051-1.911,26.543,3.813,38.594
			c-3.061,0.45-6.039,0.921-8.924,1.414c-14.804,2.531-26.531,5.52-34.857,8.884c-4.095,1.655-16.376,6.625-16.881,16.659
			c-0.314,2.933-1.504,20.471,12.472,37.122c5.837,6.953,7.576,16.184,5.002,24.482c-7.82-7.651-18.328-12.019-29.624-12.019
			c-23.418,0-42.47,19.052-42.47,42.47s19.052,42.47,42.47,42.47c2.426,0,4.818-0.213,7.169-0.612
			c-0.009,0.601-0.032,1.201-0.032,1.802c0,15.27,2.762,30.328,8.209,44.757c1.134,3.003,3.987,4.854,7.018,4.853
			c0.88,0,1.775-0.156,2.647-0.485c3.875-1.463,5.831-5.79,4.368-9.666c-4.806-12.73-7.242-26.006-7.242-39.459
			c0-20.96,6.054-41.782,17.508-60.215c9.357-15.058,7.938-34.356-3.533-48.021c-2.567-3.058-4.421-6.127-5.761-9.031
			c8.229,3.154,19.496,5.967,33.537,8.368c29.762,5.087,69.244,7.889,111.172,7.889s81.41-2.802,111.172-7.889
			c14.023-2.397,25.281-5.206,33.507-8.356c-1.336,2.909-3.181,5.977-5.734,9.019c-11.47,13.665-12.89,32.961-3.532,48.018
			c2.409,3.877,4.645,7.993,6.645,12.233c1.279,2.713,3.976,4.303,6.788,4.303c1.072,0,2.161-0.231,3.194-0.719
			c3.747-1.767,5.351-6.236,3.584-9.982c-0.872-1.848-1.795-3.668-2.743-5.468c5.169-7.097,13.297-11.277,22.179-11.277
			c15.147,0,27.47,12.323,27.47,27.47s-12.323,27.47-27.47,27.47c-2.883,0-5.688-0.443-8.371-1.303c-0.046-0.333-0.08-0.668-0.129-1
			c-0.604-4.098-4.407-6.93-8.513-6.327c-4.098,0.604-6.93,4.415-6.327,8.513c0.796,5.403,1.2,10.889,1.2,16.307
			c0,63.66-54.56,117.651-127.969,127.844v-28.976c0-9.564-7.781-17.345-17.346-17.345h-15.204c-9.564,0-17.345,7.781-17.345,17.345
			v28.96c-43.219-5.988-81.099-27.277-104.66-59.064c-2.466-3.327-7.163-4.025-10.492-1.559c-3.328,2.467-4.025,7.164-1.559,10.492
			c4.992,6.734,10.563,13.035,16.633,18.875l-21.183,51.948c-1.748,4.288-1.72,9.001,0.077,13.273
			c1.798,4.271,5.149,7.585,9.437,9.333l14.084,5.742c2.133,0.868,4.341,1.278,6.515,1.278c6.846,0,13.351-4.077,16.097-10.794
			l16.964-41.607c17.755,8.686,37.386,14.58,58.086,17.224v32.286c0,9.564,7.781,17.345,17.345,17.345h15.204
			c9.564,0,17.346-7.781,17.346-17.345v-32.282c20.946-2.68,40.532-8.648,58.085-17.25l16.968,41.624
			c1.747,4.295,5.063,7.65,9.338,9.447c2.164,0.91,4.441,1.365,6.721,1.365c2.217,0,4.435-0.431,6.549-1.293l14.075-5.737
			c4.295-1.747,7.65-5.064,9.447-9.339c1.794-4.269,1.82-8.981,0.072-13.27l-21.187-51.967
			c26.775-25.722,42.902-59.671,42.902-96.551c0-0.6-0.025-1.202-0.033-1.803c2.353,0.4,4.746,0.613,7.174,0.613
			c23.418,0,42.47-19.052,42.47-42.47s-19.052-42.47-42.47-42.47c-11.296,0-21.805,4.368-29.625,12.02
			c-2.576-8.298-0.838-17.529,4.999-24.482c13.922-16.584,12.797-34.045,12.478-37.083c-0.473-10.321-13.101-15.661-22.652-18.793
			c-9.952-3.264-23.7-6.171-40.075-8.497l59.066-125.183c2.499-5.296,2.785-11.247,0.805-16.756
			c-1.979-5.506-5.984-9.91-11.269-12.396c-10.922-5.157-24.001-0.466-29.163,10.454L355.077,56.1
			c-1.767,3.746-0.163,8.216,3.583,9.983c3.748,1.768,8.216,0.163,9.983-3.583l20.543-43.545c1.627-3.442,5.752-4.919,9.205-3.291
			c1.665,0.784,2.925,2.169,3.547,3.901c0.624,1.736,0.534,3.611-0.254,5.281L318.51,201.122c-5.133,0.39-10.391,0.729-15.747,1.02
			L353.527,94.54c1.767-3.746,0.163-8.216-3.583-9.983c-3.746-1.767-8.215-0.163-9.983,3.583l-30.072,63.742
			c-17.24-1.08-35.343-1.634-53.891-1.634C224.891,150.248,195.136,151.792,169.693,154.665z M89.313,301.902
			c-2.684,0.861-5.491,1.304-8.375,1.304c-15.147,0-27.47-12.323-27.47-27.47s12.323-27.47,27.47-27.47
			c8.877,0,17,4.175,22.169,11.264C96.044,272.921,91.385,287.249,89.313,301.902z M153.068,196.638
			c-30.752-4.741-40.914-10.055-44.012-12.321c3.097-2.267,13.26-7.581,44.012-12.322c3.182-0.491,6.485-0.953,9.87-1.393
			c7.8,8.794,18.073,15.069,29.762,18.008c0.614,0.154,1.229,0.229,1.834,0.229c3.356,0,6.413-2.27,7.268-5.673
			c1.01-4.017-1.427-8.093-5.444-9.103c-4.745-1.193-9.172-3.127-13.165-5.688c22.177-2.036,47.122-3.126,72.805-3.126
			c16.109,0,31.866,0.425,46.993,1.254l-17.164,36.382c-9.75,0.328-19.73,0.5-29.829,0.5
			C217.841,203.385,181.286,200.989,153.068,196.638z M358.928,196.638c-7.194,1.109-14.936,2.09-23.102,2.937l13.647-28.923
			c35.13,4.601,49.393,10.597,53.509,13.634C399.935,186.534,389.822,191.875,358.928,196.638z M142.116,481.078
			c-0.491,1.201-1.869,1.78-3.067,1.293l-14.08-5.74c-0.78-0.318-1.132-0.927-1.273-1.262s-0.33-1.013-0.013-1.791l19.255-47.221
			c5.312,4.173,10.91,8.039,16.771,11.572L142.116,481.078z M265.949,494.651c0,1.293-1.052,2.345-2.346,2.345h-15.204
			c-1.293,0-2.345-1.052-2.345-2.345v-76.387c0-1.293,1.052-2.345,2.345-2.345h15.204c1.293,0,2.346,1.052,2.346,2.345V494.651z
			 M388.312,473.577c0.319,0.782,0.131,1.46-0.01,1.795c-0.171,0.407-0.531,0.956-1.276,1.259l-14.08,5.74
			c-0.783,0.32-1.461,0.131-1.795-0.01c-0.407-0.171-0.955-0.53-1.258-1.276l-17.607-43.192c5.881-3.549,11.48-7.409,16.765-11.558
			L388.312,473.577z"/>
		<path d="M251.047,91.981c-3.66,14.556,5.33,29.407,20.039,33.106c2.97,0.747,5.974,1.116,8.956,1.116
			c6.386,0,12.671-1.693,18.289-4.999c8.277-4.87,14.119-12.652,16.447-21.912c3.188-12.675,0.923-26.286-6.214-37.342
			c-2.247-3.481-6.89-4.479-10.369-2.234c-3.48,2.247-4.48,6.889-2.233,10.369c4.963,7.688,6.48,16.762,4.27,25.549
			c-1.341,5.335-4.717,9.825-9.506,12.642c-4.824,2.839-10.5,3.642-15.98,2.264c-6.688-1.682-10.793-8.367-9.15-14.901
			c0.848-3.371,4.368-5.402,7.846-4.527c1.232,0.31,1.998,1.503,1.708,2.659c-1.01,4.018,1.427,8.093,5.445,9.103
			c4.017,1.012,8.092-1.427,9.102-5.444c2.308-9.177-3.343-18.537-12.596-20.864C265.597,73.668,253.912,80.588,251.047,91.981z"/>
		<path d="M129.259,79.277c2.969,0.747,5.974,1.116,8.956,1.116c6.386,0,12.671-1.693,18.289-4.999
			c8.277-4.87,14.119-12.652,16.447-21.912c3.188-12.676,0.922-26.287-6.214-37.342c-2.247-3.481-6.89-4.479-10.369-2.234
			c-3.48,2.247-4.48,6.889-2.233,10.369c4.963,7.688,6.479,16.761,4.27,25.549c-1.341,5.335-4.717,9.825-9.506,12.642
			c-4.824,2.838-10.5,3.643-15.98,2.264c-6.688-1.682-10.793-8.367-9.15-14.901c0.848-3.371,4.368-5.401,7.846-4.527
			c1.232,0.31,1.999,1.503,1.708,2.659c-1.01,4.017,1.427,8.093,5.444,9.103c4.022,1.01,8.093-1.427,9.103-5.444
			c2.309-9.177-3.342-18.537-12.596-20.865c-11.5-2.89-23.187,4.024-26.051,15.416C105.56,60.726,114.55,75.578,129.259,79.277z"/>
		<path d="M405.929,109.666l-0.013,0.297c-0.177,4.138,3.034,7.637,7.173,7.813c0.109,0.005,0.217,0.007,0.326,0.007
			c3.995,0,7.315-3.15,7.488-7.18l0.013-0.297c0.177-4.138-3.034-7.637-7.173-7.813
			C409.606,102.311,406.106,105.528,405.929,109.666z"/>
		<path d="M413.839,134.529c-4.127-0.182-7.642,3.021-7.825,7.16l-0.013,0.297c-0.184,4.138,3.022,7.642,7.16,7.825
			c0.113,0.005,0.226,0.007,0.338,0.007c3.989,0,7.308-3.143,7.487-7.167l0.013-0.297
			C421.183,138.217,417.977,134.713,413.839,134.529z"/>
		<path d="M398.352,118.699c-4.123-0.208-7.656,2.986-7.859,7.123c-0.204,4.137,2.986,7.656,7.123,7.859l0.278,0.013
			c0.125,0.006,0.25,0.009,0.375,0.009c3.973,0,7.288-3.121,7.484-7.132c0.204-4.137-2.986-7.656-7.123-7.859L398.352,118.699z"/>
		<path d="M428.285,133.593l0.278,0.014c0.126,0.006,0.25,0.009,0.375,0.009c3.972,0,7.287-3.12,7.484-7.131
			c0.204-4.137-2.985-7.656-7.122-7.859l-0.278-0.014c-4.129-0.202-7.656,2.984-7.859,7.122
			C420.959,129.87,424.148,133.389,428.285,133.593z"/>
		<path d="M234.669,32.781c0.113,0.005,0.226,0.007,0.338,0.007c3.989,0,7.308-3.143,7.487-7.167l0.013-0.297
			c0.184-4.138-3.022-7.642-7.16-7.825c-4.133-0.179-7.642,3.021-7.825,7.16l-0.013,0.297
			C227.325,29.094,230.531,32.597,234.669,32.781z"/>
		<path d="M235.431,49.533c-4.128-0.182-7.642,3.021-7.825,7.16l-0.013,0.297c-0.184,4.138,3.022,7.642,7.16,7.825
			c0.113,0.005,0.226,0.007,0.338,0.007c3.989,0,7.308-3.143,7.487-7.167l0.013-0.297C242.775,53.221,239.569,49.717,235.431,49.533
			z"/>
		<path d="M219.221,48.686l0.278,0.013c0.121,0.006,0.241,0.008,0.361,0.008c3.979,0,7.295-3.128,7.486-7.145
			c0.196-4.138-2.999-7.651-7.136-7.847l-0.278-0.013c-4.132-0.202-7.65,2.999-7.847,7.136
			C211.889,44.977,215.083,48.49,219.221,48.686z"/>
		<path d="M249.877,48.597l0.278,0.014c0.126,0.006,0.25,0.009,0.375,0.009c3.972,0,7.287-3.12,7.484-7.131
			c0.204-4.137-2.985-7.656-7.122-7.859l-0.278-0.014c-4.124-0.207-7.656,2.984-7.859,7.122
			C242.551,44.875,245.74,48.394,249.877,48.597z"/>
		<path d="M102.632,128.97c0.113,0.005,0.226,0.007,0.338,0.007c3.989,0,7.308-3.143,7.487-7.167l0.013-0.297
			c0.184-4.138-3.022-7.642-7.16-7.825c-4.127-0.186-7.642,3.021-7.825,7.16l-0.013,0.297
			C95.288,125.282,98.494,128.786,102.632,128.97z"/>
		<path d="M103.382,145.722c-4.127-0.181-7.636,3.034-7.813,7.173l-0.013,0.297c-0.177,4.138,3.034,7.637,7.173,7.813
			c0.109,0.005,0.217,0.007,0.326,0.007c3.995,0,7.315-3.15,7.488-7.18l0.013-0.297C110.731,149.398,107.52,145.899,103.382,145.722
			z"/>
		<path d="M87.171,144.874l0.278,0.014c0.126,0.006,0.25,0.009,0.375,0.009c3.972,0,7.287-3.12,7.484-7.131
			c0.204-4.137-2.985-7.656-7.122-7.859l-0.278-0.014c-4.136-0.201-7.656,2.984-7.859,7.122
			C79.845,141.152,83.034,144.671,87.171,144.874z"/>
		<path d="M118.577,129.805c-4.127-0.211-7.656,2.986-7.859,7.123c-0.204,4.137,2.986,7.656,7.123,7.859l0.278,0.013
			c0.125,0.006,0.25,0.009,0.375,0.009c3.973,0,7.288-3.121,7.484-7.132c0.204-4.137-2.986-7.656-7.123-7.859L118.577,129.805z"/>
	</g>
</g>
<g>
</g>
<g>
</g>
<g>
</g>
<g>
</g>
<g>
</g>
<g>
</g>
<g>
</g>
<g>
</g>
<g>
</g>
<g>
</g>
<g>
</g>
<g>
</g>
<g>
</g>
<g>
</g>
<g>
</g>
</svg>
