<?xml version="1.0" encoding="iso-8859-1"?>
<!-- Generator: Adobe Illustrator 24.0.2, SVG Export Plug-In . SVG Version: 6.00 Build 0)  -->
<svg version="1.1" id="Capa_1" xmlns="http://www.w3.org/2000/svg" xmlns:xlink="http://www.w3.org/1999/xlink" x="0px" y="0px"
	 viewBox="0 0 511.994 511.994" style="enable-background:new 0 0 511.994 511.994;" xml:space="preserve">
<g>
	<g>
		<path style="fill:#23F1A8;" d="M393.399,150.868c1.65-6.112,1.585-12.759-0.57-19.214c-5.683-17.026-23.771-26.413-40.858-21.476
			c-6.211-11.834-18.937-18.752-32.099-17.715c3.686-6.519,4.704-14.513,2.146-22.177c-4.793-14.36-20.32-22.116-34.68-17.323
			c-12.307,4.108-19.755,16.1-18.618,28.485c-2.916-0.013-5.882,0.435-8.801,1.409c-9.976,3.33-16.759,11.841-18.368,21.542
			c-11.036-10.708-27.509-15.05-43.103-9.845c-13.122,4.38-22.683,14.538-26.812,26.699c-7.168-2.981-15.401-3.495-23.343-0.844
			c-16.074,5.365-25.335,21.787-22.168,37.984c-22.803,4.06-27.099,25.921-27.099,25.921s33.246,58.372,155.433,58.372
			s155.427-58.372,155.427-58.372C408.538,167.028,401.816,156.805,393.399,150.868z"/>
		<path style="fill:#26D192;" d="M409.888,184.314c0,0-10.46,18.36-41.2,34.49c10.26-9.14,14.24-16.13,14.24-16.13
			c-1.35-17.28-8.07-27.51-16.49-33.44c1.65-6.12,1.58-12.76-0.57-19.22c-5.68-17.02-23.77-26.41-40.86-21.47
			c-6.21-11.84-18.93-18.76-32.1-17.72c3.69-6.52,4.71-14.51,2.15-22.18c-3.71-11.11-13.85-18.27-24.91-18.72
			c2.7-7.73,8.82-14.16,17.19-16.96c14.36-4.79,29.89,2.96,34.68,17.32c2.56,7.67,1.54,15.66-2.14,22.18
			c13.16-1.04,25.88,5.88,32.09,17.71c17.09-4.93,35.18,4.45,40.86,21.48c2.16,6.45,2.22,13.1,0.57,19.21
			C401.818,156.804,408.538,167.024,409.888,184.314z"/>
		<g>
			<g>
				<path style="fill:#9A5E5F;" d="M400.045,8.876c-7.197-3.397-15.782-0.315-19.179,6.872l-68.651,145.515h31.854l62.858-133.219
					C410.323,20.848,407.241,12.263,400.045,8.876z"/>
			</g>
		</g>
		<g>
			<g>
				<g>
					<path style="fill:#9A5E5F;" d="M134.68,489.314l-14.079-5.741c-5.035-2.053-7.452-7.799-5.399-12.834l28.841-70.733
						c2.053-5.035,7.799-7.452,12.834-5.399l14.079,5.741c5.035,2.053,7.452,7.799,5.399,12.834l-28.841,70.733
						C145.461,488.95,139.715,491.367,134.68,489.314z"/>
					<path style="fill:#845152;" d="M176.358,413.177l-18.115,44.432c-10.525-5.612-20.469-12.179-29.674-19.642l15.477-37.964
						c2.048-5.031,7.798-7.453,12.829-5.395l14.079,5.74C175.993,402.396,178.406,408.146,176.358,413.177z"/>
				</g>
				<g>
					<path style="fill:#9A5E5F;" d="M374.242,489.314l14.079-5.741c5.035-2.053,7.452-7.799,5.399-12.834l-28.841-70.733
						c-2.053-5.035-7.799-7.452-12.834-5.399l-14.079,5.741c-5.035,2.053-7.452,7.799-5.399,12.834l28.841,70.733
						C363.461,488.95,369.207,491.367,374.242,489.314z"/>
					<path style="fill:#845152;" d="M380.354,437.958c-9.205,7.473-19.149,14.04-29.674,19.642l-18.115-44.422
						c-2.048-5.031,0.364-10.781,5.405-12.829l14.079-5.74c5.031-2.058,10.781,0.364,12.829,5.395L380.354,437.958z"/>
				</g>
			</g>
			<g>
				<path style="fill:#554E55;" d="M414.878,319.394c0,75.7-71.82,137.06-160.42,137.06s-160.42-61.36-160.42-137.06
					c0-23.19,6.74-45.03,18.63-64.17c7.68-12.36,6.45-28.1-2.9-39.25c-13.02-15.5-10.74-31.66-10.74-31.66
					c0,14.67,69.59,26.57,155.43,26.57s155.43-11.9,155.43-26.57c0,0,2.27,16.16-10.74,31.67c-9.35,11.14-10.59,26.88-2.91,39.23
					C408.138,274.364,414.878,296.204,414.878,319.394z"/>
				<circle style="fill:#433F43;" cx="205.591" cy="401.032" r="14.912"/>
				<path style="fill:#433F43;" d="M275.483,370.034c2.058-3.688,3.235-7.934,3.235-12.457c0-14.144-11.466-25.611-25.611-25.611
					c-14.144,0-25.611,11.466-25.611,25.611c0,13.351,10.218,24.311,23.26,25.499c0.964,7.305,7.2,12.949,14.769,12.949
					c8.236,0,14.913-6.677,14.913-14.913C280.437,376.709,278.517,372.764,275.483,370.034z"/>
				<path style="fill:#433F43;" d="M264.148,276.704c0,16.01-12.98,28.99-29,28.99c-2.24,0-4.42-0.26-6.52-0.74
					c-0.38,11.41-9.72,20.55-21.22,20.55c-11.75,0-21.27-9.52-21.27-21.26c0-5.01,1.75-9.61,4.65-13.24
					c-7.29-0.96-24.48-4.87-27.12-28.7c-10.86-4.18-18.57-14.72-18.57-27.05c0-14.51,10.66-26.53,24.56-28.67h0.01
					c20.74,2.32,44.91,3.8,70.93,4.19c8.09,5.14,13.45,14.18,13.45,24.48c0,5.94-1.79,11.47-4.86,16.07
					C258.108,256.274,264.148,265.774,264.148,276.704z"/>
				<path style="fill:#433F43;" d="M414.878,319.394c0,75.7-71.82,137.06-160.42,137.06c-6.39,0-12.7-0.32-18.9-0.94
					c79.7-8,141.5-65.89,141.5-136.12c0-23.19-6.74-45.03-18.64-64.18c-7.68-12.35-6.44-28.1,2.91-39.23
					c3.93-4.69,6.47-9.44,8.09-13.78c25.14-4.73,40.47-11,40.47-17.89c0,0,2.27,16.16-10.74,31.67
					c-9.35,11.14-10.59,26.88-2.91,39.23C408.138,274.364,414.878,296.204,414.878,319.394z"/>
			</g>
			<path style="fill:#B88081;" d="M262.063,504.494h-15.204c-5.437,0-9.845-4.408-9.845-9.845v-76.387
				c0-5.437,4.408-9.845,9.845-9.845h15.204c5.437,0,9.845,4.408,9.845,9.845v76.387
				C271.908,500.086,267.501,504.494,262.063,504.494z"/>
		</g>
		<path style="fill:#23F1A8;" d="M356.264,173.775c-2.201-17.449-17.084-30.947-35.131-30.947
			c-18.046,0-32.929,13.498-35.131,30.947H356.264z"/>
		<circle style="fill:#23F1A8;" cx="204.622" cy="378.963" r="14.912"/>
		<path style="fill:#23F1A8;" d="M274.514,347.965c2.058-3.688,3.235-7.934,3.235-12.457c0-14.144-11.466-25.611-25.611-25.611
			c-14.144,0-25.611,11.466-25.611,25.611c0,13.351,10.218,24.311,23.26,25.499c0.964,7.305,7.2,12.949,14.768,12.949
			c8.236,0,14.913-6.677,14.913-14.913C279.468,354.64,277.549,350.695,274.514,347.965z"/>
		<path style="fill:#26D192;" d="M279.235,361.709c-1.09,6.247-6.202,11.193-12.48,12.089c-4.729,0.674-9.126-0.869-12.257-3.763
			c2.5-2.66,4.03-6.25,4.03-10.19c0-3.457-1.185-6.636-3.163-9.164c-0.982-1.255-1.173-2.97-0.554-4.438
			c1.287-3.051,1.997-6.407,1.997-9.927c0-10.77-6.64-19.98-16.04-23.75c3.864-1.932,8.289-2.907,12.974-2.621
			c13.047,0.795,23.551,11.614,23.991,24.678c0.164,4.862-1.032,9.414-3.215,13.343
			C278.149,351.236,280.186,356.259,279.235,361.709z"/>
		<path style="fill:#23F1A8;" d="M259.585,222.818c3.072-4.601,4.866-10.129,4.866-16.077c0-16.012-12.981-28.993-28.993-28.993
			h-50.965c-16.013,0-28.993,12.981-28.993,28.993c0,12.338,7.711,22.869,18.573,27.056c2.634,23.828,19.827,27.736,27.112,28.696
			c-2.898,3.634-4.642,8.23-4.642,13.239c0,11.742,9.519,21.262,21.262,21.262c11.503,0,20.848-9.141,21.226-20.551
			c2.097,0.483,4.28,0.74,6.524,0.74c16.013,0,28.993-12.981,28.993-28.993C274.547,237.268,268.505,227.761,259.585,222.818z"/>
		<path style="fill:#26D192;" d="M274.548,248.194c0,16.01-12.98,28.99-28.99,28.99c-2.25,0-4.43-0.26-6.53-0.74
			c-0.38,11.41-9.72,20.55-21.22,20.55c-7.46,0-14.02-3.83-17.81-9.64c6.32-2.39,11.19-7.71,12.99-14.3
			c0.71-2.63,3.24-4.29,5.97-4.17c1.8,0.08,3.63-0.01,5.5-0.27c13.06-1.86,23.33-12.61,24.63-25.74
			c1.01-10.26-3.33-19.56-10.56-25.44c-2.2-1.8-2.92-4.81-1.78-7.42c1.63-3.76,2.49-7.93,2.38-12.31
			c-0.21-7.87-3.61-14.89-8.94-19.96h5.27c16.01,0,28.99,12.98,28.99,29c0,5.94-1.79,11.47-4.86,16.07
			C268.508,227.764,274.548,237.264,274.548,248.194z"/>
	</g>
	<g>
		<path d="M429.521,233.264c-11.297,0-21.807,4.369-29.629,12.019c-2.575-8.294-0.834-17.523,5.005-24.479
			c14.687-17.51,12.624-35.983,12.431-37.453c-1.271-15.373-6.534-27.284-15.675-35.482c0.876-6.22,0.302-12.561-1.71-18.59
			c-3.518-10.538-11.266-19.184-21.196-23.93l34.968-74.11c2.493-5.294,2.777-11.241,0.8-16.745
			c-1.979-5.507-5.984-9.913-11.275-12.404c-10.916-5.147-23.994-0.461-29.162,10.454L338.42,88.133
			c-2.622-1.109-5.352-1.954-8.14-2.501c1.137-5.852,0.774-11.963-1.146-17.72c-6.094-18.26-25.908-28.159-44.168-22.063
			c-13.051,4.356-22.035,15.679-23.614,28.858c-1.283,0.273-2.554,0.618-3.805,1.036c-8.54,2.85-15.469,8.783-19.621,16.43
			c-4.96-3.014-10.439-5.157-16.223-6.318c-4.061-0.81-8.014,1.816-8.83,5.877c-0.815,4.061,1.816,8.014,5.877,8.83
			c6.663,1.337,12.742,4.525,17.58,9.22c1.422,1.379,3.303,2.118,5.224,2.117c0.785,0,1.576-0.123,2.345-0.376
			c2.65-0.873,4.597-3.145,5.053-5.897c1.213-7.314,6.326-13.312,13.344-15.655c2.034-0.679,4.155-1.023,6.306-1.023
			c0.04,0,0.079,0,0.12,0c2.103,0,4.108-0.882,5.529-2.433c1.429-1.559,2.133-3.648,1.939-5.753
			c-0.849-9.238,4.713-17.744,13.523-20.685c10.417-3.477,21.716,2.168,25.191,12.583c1.78,5.335,1.212,11.207-1.561,16.11
			c-1.365,2.414-1.287,5.384,0.203,7.723c1.49,2.338,4.145,3.658,6.914,3.446c3.912-0.308,7.886,0.325,11.55,1.779l-16.005,33.927
			c-19.284,2.318-34.966,17.526-37.445,37.192c-0.518,4.11,2.394,7.861,6.503,8.379c0.318,0.041,0.635,0.06,0.948,0.06
			c3.724,0,6.953-2.771,7.432-6.563c1.753-13.902,13.656-24.386,27.688-24.386s25.937,10.484,27.689,24.386
			c0.519,4.11,4.279,7.021,8.38,6.502c4.109-0.518,7.021-4.27,6.503-8.379c-0.912-7.23-3.613-13.855-7.617-19.463l16.265-34.471
			c6.32,3.001,11.106,8.366,13.363,15.126c1.613,4.833,1.767,9.981,0.442,14.885c-0.82,3.04,0.346,6.268,2.918,8.083
			c7.573,5.342,12.007,14.303,13.211,26.626c-2.954,3.064-19.143,10.725-66.314,15.775c-4.118,0.441-7.1,4.137-6.658,8.256
			c0.44,4.119,4.131,7.097,8.256,6.659c22.396-2.398,41.203-5.768,54.39-9.747c2.291-0.691,4.741-1.488,7.182-2.419
			c-1.336,2.907-3.185,5.977-5.734,9.017c-11.473,13.667-12.894,32.962-3.536,48.01c11.455,18.434,17.51,39.257,17.51,60.221
			c0,63.713-54.54,117.66-127.973,127.842v-28.975c0-9.564-7.781-17.345-17.345-17.345h-15.205c-9.564,0-17.345,7.781-17.345,17.345
			v28.959c-45.607-6.368-85.86-30.237-108.632-64.756c-2.281-3.458-6.934-4.413-10.39-2.13c-3.458,2.281-4.412,6.933-2.13,10.39
			c6.004,9.102,13.104,17.522,21.097,25.176l-21.202,52.013c-3.609,8.855,0.659,18.996,9.514,22.606l14.08,5.74
			c2.114,0.862,4.332,1.292,6.549,1.292c2.279,0,4.557-0.455,6.721-1.365c4.275-1.797,7.592-5.152,9.337-9.442l17.006-41.718
			c17.794,8.728,37.45,14.687,58.051,17.335v32.286c0,9.564,7.781,17.345,17.345,17.345h15.205c9.563,0,17.345-7.781,17.345-17.345
			v-32.288c20.951-2.678,40.539-8.639,58.092-17.235l16.964,41.614c1.747,4.295,5.063,7.65,9.338,9.447
			c2.165,0.91,4.442,1.365,6.722,1.365c2.216,0,4.435-0.431,6.549-1.292l14.08-5.74c8.855-3.609,13.124-13.75,9.515-22.606
			l-21.176-51.948c26.771-25.714,42.89-59.662,42.89-96.571c0-0.602-0.024-1.203-0.032-1.804c2.354,0.401,4.748,0.614,7.173,0.614
			c23.418,0,42.47-19.052,42.47-42.47S452.939,233.264,429.521,233.264z M332.068,136.755L387.64,18.954
			c1.631-3.442,5.758-4.92,9.206-3.294c1.669,0.785,2.931,2.173,3.554,3.907c0.623,1.735,0.533,3.611-0.252,5.277l-55.465,117.55
			C340.849,139.871,336.597,137.953,332.068,136.755z M140.564,481.088c-0.301,0.74-0.85,1.1-1.257,1.271
			c-0.335,0.141-1.012,0.329-1.795,0.01l-14.08-5.74c-1.196-0.488-1.773-1.858-1.286-3.054l19.285-47.31
			c5.309,4.155,10.911,8.013,16.774,11.546L140.564,481.088z M264.408,494.649c0,1.293-1.052,2.345-2.345,2.345h-15.205
			c-1.293,0-2.345-1.052-2.345-2.345v-76.387c0-1.293,1.052-2.345,2.345-2.345h15.205c1.293,0,2.345,1.052,2.345,2.345V494.649z
			 M386.776,473.575c0.487,1.196-0.089,2.566-1.286,3.054l-14.08,5.74c-0.782,0.319-1.461,0.131-1.795-0.01
			c-0.407-0.171-0.956-0.53-1.259-1.276l-17.601-43.177c5.883-3.548,11.483-7.408,16.77-11.556L386.776,473.575z M429.521,303.204
			c-2.88,0-5.688-0.444-8.38-1.307c-2.072-14.652-6.731-28.98-13.794-42.372c5.171-7.087,13.296-11.261,22.173-11.261
			c15.146,0,27.47,12.323,27.47,27.47S444.668,303.204,429.521,303.204z"/>
		<path d="M109.749,202.133c9.145,3.346,22.924,6.734,38.554,9.181c1.497,11.645,8.613,22.016,18.953,27.587
			c2.699,14.184,10.666,24.039,22.995,28.614c-0.795,2.655-1.209,5.426-1.209,8.217c0,15.859,12.902,28.762,28.762,28.762
			c12.801,0,23.598-8.235,27.336-19.813c0.138,0.001,0.276,0.002,0.414,0.002c20.122,0,36.493-16.371,36.493-36.493
			c0-10.771-4.759-20.865-12.769-27.725c0.297-0.732,0.561-1.475,0.81-2.224c10.771-0.183,21.428-0.547,31.716-1.103
			c4.136-0.224,7.308-3.758,7.084-7.895s-3.771-7.297-7.895-7.084c-9.486,0.514-19.294,0.859-29.218,1.049
			c-1.783-18.471-17.388-32.961-36.319-32.961c-4.142,0-7.5,3.358-7.5,7.5s3.358,7.5,7.5,7.5c11.852,0,21.493,9.642,21.493,21.493
			c0,4.262-1.246,8.381-3.603,11.913c-1.164,1.744-1.545,3.895-1.051,5.933c0.495,2.038,1.819,3.775,3.653,4.792
			c6.846,3.794,11.098,11.002,11.098,18.813c0,11.852-9.642,21.493-21.493,21.493c-1.631,0-3.259-0.185-4.839-0.549
			c-2.187-0.505-4.48-0.004-6.257,1.363c-1.777,1.367-2.85,3.457-2.924,5.697c-0.247,7.458-6.278,13.299-13.73,13.299
			c-7.588,0-13.762-6.173-13.762-13.762c0-3.137,1.039-6.098,3.005-8.563c1.687-2.114,2.104-4.973,1.093-7.481
			c-1.012-2.508-3.295-4.278-5.977-4.631c-12.424-1.636-19.175-8.86-20.637-22.084c-0.308-2.785-2.143-5.166-4.757-6.174
			c-8.237-3.175-13.771-11.235-13.771-20.058c0-11.852,9.642-21.493,21.494-21.493c4.142,0,7.5-3.358,7.5-7.5s-3.358-7.5-7.5-7.5
			c-16.501,0-30.472,11.012-34.969,26.07c-31.476-5.021-40.391-10.597-42.594-12.47c1.494-4.5,6.54-15.584,20.512-18.071
			c1.98-0.353,3.735-1.485,4.873-3.144c1.137-1.659,1.56-3.705,1.174-5.679c-2.48-12.682,4.907-25.334,17.182-29.431
			c5.906-1.973,12.33-1.74,18.088,0.654c1.916,0.797,4.078,0.763,5.97-0.091c1.892-0.855,3.344-2.457,4.011-4.422
			c2.202-6.485,6.208-12.139,11.584-16.35c3.261-2.554,3.834-7.268,1.28-10.529c-2.555-3.262-7.269-3.833-10.529-1.28
			c-5.748,4.502-10.397,10.156-13.69,16.595c-7.091-1.518-14.503-1.129-21.464,1.194c-17.116,5.712-28.217,21.957-27.903,39.475
			c-21.658,7.521-26.152,29.097-26.349,30.099c-0.013,0.066-0.017,0.131-0.029,0.197c-0.011,0.068-0.029,0.133-0.038,0.201
			c-0.112,0.795-2.575,19.677,12.42,37.527c5.832,6.955,7.57,16.186,4.999,24.485c-7.821-7.648-18.331-12.014-29.629-12.014
			c-23.413,0-42.46,19.052-42.46,42.47s19.047,42.47,42.46,42.47c2.428,0,4.824-0.214,7.179-0.614
			c-0.009,0.601-0.032,1.202-0.032,1.804c0,12.691,1.921,25.307,5.71,37.498c0.999,3.214,3.962,5.276,7.16,5.276
			c0.737,0,1.487-0.109,2.229-0.34c3.956-1.229,6.166-5.433,4.936-9.388c-3.34-10.748-5.034-21.866-5.034-33.045
			c0-20.961,6.052-41.782,17.5-60.211c9.356-15.057,7.94-34.357-3.527-48.032C112.946,208.097,111.09,205.031,109.749,202.133z
			 M79.391,303.204c-15.142,0-27.46-12.323-27.46-27.47s12.318-27.47,27.46-27.47c8.881,0,17.007,4.174,22.177,11.261
			c-7.062,13.391-11.72,27.72-13.792,42.374C85.085,302.761,82.275,303.204,79.391,303.204z"/>
		<path d="M182.21,378.963c0,12.358,10.054,22.412,22.412,22.412c12.358,0,22.413-10.054,22.413-22.412
			c0-12.358-10.054-22.413-22.413-22.413C192.264,356.551,182.21,366.605,182.21,378.963z M212.035,378.963
			c0,4.087-3.325,7.412-7.413,7.412c-4.087,0-7.412-3.325-7.412-7.412c0-4.087,3.325-7.413,7.412-7.413
			C208.709,371.551,212.035,374.876,212.035,378.963z"/>
		<path d="M243.846,367.576c3.389,8.203,11.49,13.88,20.71,13.88c12.358,0,22.413-10.054,22.413-22.413
			c0-4.396-1.308-8.667-3.689-12.29c1.297-3.593,1.97-7.405,1.97-11.245c0-18.257-14.854-33.111-33.111-33.111
			c-18.257,0-33.11,14.854-33.11,33.111C219.027,350.928,229.382,363.899,243.846,367.576z M252.138,317.397
			c9.986,0,18.111,8.125,18.111,18.111c0,3.08-0.79,6.124-2.285,8.803c-1.706,3.058-1.069,6.889,1.534,9.23
			c1.594,1.433,2.471,3.387,2.471,5.502c0,4.087-3.325,7.413-7.413,7.413c-3.697,0-6.849-2.764-7.332-6.429
			c-0.459-3.476-3.264-6.171-6.756-6.489c-9.373-0.853-16.44-8.604-16.44-18.03C234.027,325.522,242.152,317.397,252.138,317.397z"
			/>
		<path d="M281.607,122.383c0.934-2.606,3.421-4.357,6.19-4.357c2.769,0,5.256,1.751,6.189,4.357
			c1.098,3.064,3.982,4.973,7.061,4.973c0.84,0,1.693-0.142,2.529-0.441c3.899-1.397,5.928-5.69,4.531-9.59
			c-3.063-8.553-11.226-14.299-20.311-14.299c-9.086,0-17.249,5.747-20.312,14.299c-1.396,3.899,0.632,8.193,4.531,9.59
			C275.916,128.308,280.212,126.283,281.607,122.383z"/>
		<path d="M214.127,148.68c3.902,1.399,8.193-0.633,9.589-4.533c1.29-3.603,4.729-6.023,8.557-6.023s7.267,2.42,8.557,6.023
			c1.097,3.064,3.983,4.974,7.062,4.974c0.839,0,1.693-0.142,2.528-0.441c3.9-1.396,5.929-5.689,4.533-9.589
			c-3.419-9.55-12.534-15.967-22.679-15.967s-19.259,6.417-22.679,15.967C208.198,142.99,210.227,147.283,214.127,148.68z"/>
		<path d="M220.369,236.742c3.547,0,7.114-0.864,10.353-2.641c3.631-1.992,4.96-6.551,2.968-10.183
			c-1.993-3.632-6.554-4.962-10.183-2.968c-2.566,1.407-5.802,0.942-7.872-1.127c-2.07-2.07-2.534-5.307-1.127-7.872
			c1.993-3.631,0.664-8.19-2.968-10.183c-3.632-1.993-8.191-0.663-10.183,2.968c-4.594,8.373-3.084,18.938,3.671,25.693
			C209.171,234.573,214.746,236.742,220.369,236.742z"/>
		<path d="M130.148,86.469c2.975,0.748,5.957,1.106,8.891,1.106c16.096,0,30.745-10.766,34.802-26.9
			c3.188-12.676,0.922-26.287-6.215-37.342c-2.247-3.481-6.889-4.479-10.369-2.234c-3.48,2.247-4.48,6.889-2.233,10.369
			c4.963,7.688,6.48,16.762,4.271,25.549c-2.78,11.054-14.211,17.741-25.487,14.906c-6.688-1.682-10.793-8.367-9.15-14.901
			c0.848-3.371,4.368-5.401,7.846-4.527c1.232,0.31,1.998,1.503,1.708,2.659c-1.01,4.018,1.427,8.093,5.445,9.103
			c4.018,1.012,8.093-1.428,9.102-5.444c2.308-9.177-3.343-18.537-12.596-20.864c-11.5-2.896-23.187,4.023-26.052,15.416
			C106.449,67.919,115.438,82.771,130.148,86.469z"/>
		<path d="M470.064,95.415c-4.87-8.277-12.652-14.119-21.912-16.447c-12.677-3.189-26.288-0.922-37.342,6.215
			c-3.48,2.247-4.48,6.889-2.233,10.369s6.891,4.479,10.368,2.233c7.688-4.963,16.763-6.48,25.549-4.27
			c5.335,1.341,9.824,4.718,12.643,9.506c2.838,4.824,3.642,10.5,2.264,15.98c-1.683,6.689-8.365,10.795-14.901,9.151
			c-1.613-0.406-2.974-1.431-3.83-2.888c-0.878-1.492-1.125-3.253-0.696-4.958c0.209-0.832,0.753-1.268,1.059-1.454
			c0.348-0.211,0.904-0.427,1.6-0.253c4.022,1.011,8.093-1.428,9.103-5.444c1.011-4.017-1.428-8.092-5.444-9.103
			c-4.467-1.125-9.101-0.419-13.052,1.984c-3.915,2.381-6.689,6.149-7.812,10.611c-1.396,5.551-0.574,11.313,2.314,16.223
			c2.909,4.946,7.563,8.437,13.101,9.829c2.197,0.553,4.399,0.817,6.57,0.816c12.213,0,23.395-8.366,26.536-20.855
			C476.293,113.333,474.914,103.657,470.064,95.415z"/>
		<path d="M82.833,158.934c0.532,0.115,1.063,0.169,1.586,0.169c3.458,0,6.567-2.405,7.325-5.922
			c0.872-4.049-1.704-8.039-5.753-8.911c-8.946-1.927-16.434-7.27-21.085-15.046c-5.851-9.781-2.494-22.594,7.482-28.562
			c2.885-1.726,6.251-2.242,9.48-1.456c3.188,0.777,5.861,2.738,7.526,5.522c0.854,1.427,1.091,3.114,0.667,4.75
			c-0.435,1.676-1.504,3.096-3.014,3.999c-0.736,0.44-1.429,0.363-1.776,0.28c-0.396-0.097-0.945-0.34-1.311-0.953
			c-2.126-3.554-6.73-4.712-10.287-2.586c-3.555,2.126-4.712,6.732-2.586,10.287c2.364,3.952,6.14,6.731,10.632,7.826
			c4.453,1.085,9.079,0.382,13.028-1.98c4.912-2.938,8.404-7.594,9.833-13.108c1.44-5.555,0.618-11.313-2.313-16.214
			c-3.743-6.257-9.726-10.659-16.847-12.395c-7.081-1.727-14.444-0.605-20.732,3.156c-17.074,10.213-22.751,32.255-12.655,49.135
			C58.742,148.14,69.969,156.163,82.833,158.934z"/>
		<path d="M226.146,31.646c0.113,0.005,0.226,0.007,0.338,0.007c3.989,0,7.308-3.143,7.487-7.167l0.013-0.297
			c0.184-4.138-3.022-7.642-7.16-7.825c-4.126-0.182-7.642,3.021-7.825,7.16l-0.013,0.297
			C218.802,27.959,222.008,31.463,226.146,31.646z"/>
		<path d="M226.896,48.399c-4.125-0.186-7.636,3.035-7.813,7.173l-0.013,0.297c-0.177,4.138,3.034,7.637,7.173,7.813
			c0.109,0.005,0.217,0.007,0.326,0.007c3.995,0,7.315-3.15,7.488-7.18l0.013-0.297C234.246,52.074,231.035,48.575,226.896,48.399z"
			/>
		<path d="M210.685,47.551l0.278,0.014c0.126,0.006,0.25,0.009,0.375,0.009c3.972,0,7.287-3.12,7.484-7.131
			c0.204-4.137-2.985-7.656-7.122-7.859l-0.278-0.014c-4.126-0.202-7.656,2.984-7.859,7.122
			C203.359,43.828,206.548,47.347,210.685,47.551z"/>
		<path d="M241.354,47.463l0.278,0.013c0.125,0.006,0.25,0.009,0.375,0.009c3.973,0,7.288-3.121,7.484-7.132
			c0.204-4.137-2.986-7.656-7.123-7.859l-0.278-0.013c-4.118-0.209-7.656,2.986-7.859,7.123
			C234.028,43.741,237.218,47.26,241.354,47.463z"/>
	</g>
</g>
<g>
</g>
<g>
</g>
<g>
</g>
<g>
</g>
<g>
</g>
<g>
</g>
<g>
</g>
<g>
</g>
<g>
</g>
<g>
</g>
<g>
</g>
<g>
</g>
<g>
</g>
<g>
</g>
<g>
</g>
</svg>
