<?xml version="1.0" encoding="iso-8859-1"?>
<!-- Generator: Adobe Illustrator 24.0.2, SVG Export Plug-In . SVG Version: 6.00 Build 0)  -->
<svg version="1.1" id="Capa_1" xmlns="http://www.w3.org/2000/svg" xmlns:xlink="http://www.w3.org/1999/xlink" x="0px" y="0px"
	 viewBox="0 0 511.999 511.999" style="enable-background:new 0 0 511.999 511.999;" xml:space="preserve">
<g>
	<g>
		<path style="fill:#9A5E5F;" d="M155.402,298.853l50.138-42.071c1.338-1.123,2.471-2.469,3.349-3.979l31.65-54.46
			c1.207-2.077,2.892-3.835,4.914-5.13l82.552-52.837c1.448-0.927,2.728-2.095,3.783-3.452l96.034-123.59
			c5.901-7.595,17.305-7.809,23.487-0.441l13.423,15.997c15.45,18.413,13.861,45.68-3.625,62.173l-93.268,87.973
			c-1.485,1.401-3.239,2.486-5.155,3.189l-89.111,32.723c-3.446,1.265-6.313,3.743-8.065,6.97l-23.762,43.776
			c-0.904,1.665-2.113,3.145-3.564,4.363l-62.757,52.659L155.402,298.853z"/>
		<path style="fill:#845152;" d="M461.109,91.059l-93.27,87.98c-1.48,1.4-3.24,2.48-5.15,3.18l-89.12,32.73
			c-3.44,1.26-6.31,3.74-8.06,6.97l-23.76,43.77c-0.91,1.67-2.12,3.15-3.57,4.37l-62.75,52.66l-15.31-18.24l64.4-53.58
			c1.45-1.22,2.66-2.7,3.56-4.36l23.76-43.78c1.76-3.22,4.62-5.7,8.07-6.97l89.11-32.72c1.92-0.7,3.67-1.79,5.15-3.19l93.27-87.97
			c14.25-13.44,17.94-34.03,10.47-51.15l6.82,8.13C480.179,47.299,478.589,74.569,461.109,91.059z"/>
		<g>
			<path style="fill:#FCC16D;" d="M38.24,360.986c17.617-29.764,56.246-39.403,85.826-21.208
				c33.412,20.552,38.583,66.02,12.723,95.516c-24.165,27.562-65.455,36.032-93.87,65.949c-6.047,6.366-16.76,2.853-18.051-5.832
				C19.861,461.751,15.074,400.125,38.24,360.986z"/>
			<path style="fill:#FCA62F;" d="M42.92,501.243c-6.047,6.368-16.763,2.852-18.051-5.834c-0.638-4.266-1.268-8.985-1.841-14.058
				c0.659-0.435,1.293-0.955,1.878-1.576c28.415-29.915,69.703-38.389,93.868-65.95c17.983-20.514,20.964-48.738,9.873-70.944
				c29.258,21.742,32.774,64.329,8.141,92.413C112.623,462.854,71.336,471.328,42.92,501.243z"/>
			
				<ellipse transform="matrix(0.7071 -0.7071 0.7071 0.7071 -187.8127 199.1291)" style="fill:#FCC16D;" cx="146.464" cy="326.275" rx="36.964" ry="36.964"/>
			<path style="fill:#FCA62F;" d="M170.223,354.592c-15.64,13.124-38.949,11.078-52.073-4.562
				c-8.054-9.598-10.396-22.094-7.377-33.347c1.434,3.868,3.542,7.559,6.347,10.901c13.124,15.64,36.44,17.68,52.073,4.562
				c6.035-5.064,10.048-11.655,11.94-18.726C186.406,327.657,182.521,344.273,170.223,354.592z"/>
		</g>
	</g>
	<g>
		<g>
			
				<ellipse transform="matrix(0.9819 -0.1896 0.1896 0.9819 -32.1805 84.9928)" style="fill:#FB8627;" cx="428.018" cy="210.647" rx="26.493" ry="30.526"/>
			
				<ellipse transform="matrix(0.9819 -0.1896 0.1896 0.9819 -30.1774 91.7996)" style="fill:#FB7722;" cx="464.587" cy="203.584" rx="26.493" ry="30.526"/>
		</g>
		
			<ellipse transform="matrix(0.9819 -0.1896 0.1896 0.9819 -30.9455 88.1991)" style="fill:#FC9744;" cx="445.389" cy="205.798" rx="24.084" ry="31.994"/>
		<path style="fill:#FB8627;" d="M469.035,201.226c3.352,17.352-4.521,33.463-17.578,35.985c-3.118,0.602-6.246,0.377-9.258-0.559
			c7.79-6.324,11.739-18.812,9.189-32.017c-2.549-13.199-10.865-23.318-20.45-26.287c2.447-1.99,5.266-3.364,8.384-3.967
			C452.379,171.859,465.685,183.879,469.035,201.226z"/>
		<g>
			<path d="M301.93,164.571c1.384,0,2.784-0.383,4.036-1.184l26.084-16.695c2.174-1.392,4.079-3.131,5.66-5.167l56.858-73.172
				c2.542-3.271,1.951-7.983-1.32-10.524c-3.27-2.54-7.982-1.951-10.523,1.32l-56.859,73.174c-0.532,0.685-1.172,1.269-1.902,1.736
				l-26.083,16.694c-3.489,2.233-4.507,6.871-2.274,10.36C297.038,163.35,299.458,164.571,301.93,164.571z"/>
			<path d="M497.963,197.135c-3.979-20.582-22.186-34.441-40.603-30.887c-2.044,0.399-4.028,1.004-5.928,1.793
				c-2.068-0.706-4.191-1.168-6.342-1.365c-6.23-13.681-9.162-27.768-10.272-40.508l31.436-29.652
				c20.351-19.195,22.206-51.019,4.224-72.449L457.055,8.071c-4.41-5.255-10.854-8.18-17.734-8.068
				c-6.86,0.129-13.209,3.31-17.42,8.728l-17.422,22.421c-2.542,3.271-1.951,7.983,1.32,10.524c3.27,2.54,7.983,1.951,10.523-1.32
				l17.422-22.42c1.416-1.822,3.551-2.892,5.857-2.935c2.295-0.045,4.479,0.945,5.963,2.712l13.423,15.997
				c12.88,15.351,11.551,38.146-3.026,51.896l-21.556,20.333c0.495-11.345,2.06-19.999,2.862-23.803l8.782-9.451
				c2.819-3.035,2.646-7.78-0.389-10.6c-3.034-2.82-7.779-2.645-10.6,0.389l-31.204,33.581c-2.819,3.035-2.646,7.78,0.389,10.6
				c1.444,1.342,3.276,2.006,5.104,2.006c2.012,0,4.019-0.805,5.496-2.395l4.84-5.209c-0.376,5.665-0.527,12.081-0.239,18.992
				l-56.752,53.531c-0.752,0.709-1.625,1.249-2.595,1.605l-89.112,32.724c-5.159,1.895-9.446,5.599-12.07,10.432l-23.761,43.775
				c-0.457,0.842-1.062,1.582-1.795,2.197l-48.06,40.327c-1.348-2.418-2.933-4.747-4.777-6.945c-1.702-2.029-3.555-3.855-5.518-5.5
				l35.357-29.667c2.009-1.687,3.695-3.691,5.01-5.956l31.649-54.459c0.605-1.041,1.461-1.934,2.475-2.583l26.69-17.083
				c3.489-2.233,4.507-6.871,2.274-10.36c-2.234-3.489-6.871-4.506-10.36-2.274l-26.691,17.083c-3.014,1.93-5.557,4.584-7.355,7.678
				l-31.652,54.462c-0.441,0.761-1.008,1.434-1.683,2l-39.641,33.262c-14.301-4.952-30.782-2.501-43.196,7.915
				c-9.098,7.634-14.679,18.354-15.714,30.186c-0.043,0.489-0.065,0.976-0.092,1.464c-27.696-4.241-55.737,8.713-70.291,33.302
				c-24.38,41.191-19.447,104.986-14.337,139.348c1.029,6.919,5.813,12.527,12.485,14.635c1.811,0.572,3.653,0.851,5.476,0.851
				c4.824,0,9.492-1.955,12.947-5.592c13.409-14.119,30.344-23.442,46.721-32.459c16.914-9.313,34.402-18.942,47.351-33.71
				c4.156-4.741,7.699-10.01,10.529-15.66c1.855-3.704,0.357-8.209-3.346-10.065c-3.702-1.854-8.21-0.357-10.065,3.346
				c-2.258,4.508-5.084,8.711-8.397,12.491c-11.211,12.787-26.801,21.371-43.306,30.458c-17.379,9.569-35.351,19.464-50.362,35.27
				c-1.098,1.156-2.368,0.977-3.028,0.769c-0.564-0.178-1.906-0.783-2.168-2.538c-4.817-32.395-9.611-92.296,12.409-129.501
				c12.148-20.524,36.273-30.714,59.294-25.312c0.324,1.041,0.695,2.066,1.096,3.08c-13.146,3.525-35.418,12.908-50.268,37.43
				c-2.146,3.543-1.013,8.155,2.53,10.301c1.215,0.735,2.554,1.085,3.878,1.085c2.536,0,5.012-1.288,6.422-3.616
				c13.013-21.487,32.936-28.796,43.262-31.214l-11.354,22.694c-1.854,3.704-0.353,8.209,3.352,10.063
				c1.077,0.539,2.222,0.794,3.35,0.794c2.75,0,5.399-1.519,6.713-4.146l9.487-18.964c0.875,4.39,2.45,17.562-6.454,30.487
				c-2.351,3.411-1.49,8.081,1.921,10.431c1.3,0.895,2.781,1.324,4.248,1.324c2.384,0,4.729-1.134,6.183-3.246
				c9.367-13.596,10.268-27.464,9.577-36.121c1.081,0.21,2.167,0.384,3.26,0.514c2.26,5.243,3.675,10.824,4.211,16.625
				c0.358,3.89,3.628,6.811,7.459,6.811c0.23,0,0.464-0.011,0.698-0.032c4.125-0.381,7.16-4.033,6.778-8.158
				c-0.513-5.559-1.678-10.962-3.448-16.153c6.483-1.553,12.712-4.58,18.156-9.147v0c12.211-10.246,17.514-25.708,15.404-40.435
				l52.555-44.099c2.181-1.83,3.975-4.026,5.335-6.53l23.761-43.776c0.883-1.625,2.324-2.871,4.059-3.508l89.111-32.723
				c2.885-1.06,5.48-2.666,7.717-4.774l48.345-45.601c1.625,10.059,4.385,20.593,8.788,31.005c-1.458,0.82-2.849,1.783-4.163,2.875
				c-1.72,0.038-3.446,0.216-5.148,0.545c-9.116,1.757-16.849,7.418-21.772,15.94c-4.723,8.173-6.282,18.06-4.392,27.833
				c1.885,9.783,7.014,18.381,14.442,24.209c6.077,4.767,13.102,7.255,20.242,7.255c1.959,0,3.928-0.188,5.887-0.566
				c3.148-0.601,6.154-1.691,8.963-3.236c1.282,0.188,2.569,0.286,3.854,0.286c1.624,0,3.244-0.152,4.846-0.462
				c3.138-0.606,6.053-1.782,8.699-3.422c1.47,0.213,2.943,0.328,4.414,0.328c1.945,0,3.887-0.186,5.813-0.558
				C490.207,237.36,501.941,217.717,497.963,197.135z M123.915,345.195c-0.854-2.43,2.986-13.458,17.155-25.348
				c14.178-11.898,25.711-13.756,27.942-12.493c0.853,2.43-2.986,13.458-17.156,25.348
				C137.685,344.593,126.156,346.458,123.915,345.195z M127.525,303.704c5.51-4.624,12.229-6.88,18.915-6.88
				c0.798,0,1.595,0.043,2.39,0.107c-6.042,2.927-12.055,6.939-17.403,11.426c-5.304,4.451-10.344,9.767-14.314,15.337
				C117.803,315.858,121.5,308.76,127.525,303.704z M165.402,348.845L165.402,348.845c-6.177,5.182-13.877,7.388-21.343,6.777
				c6.069-2.931,12.101-6.95,17.44-11.429c5.351-4.49,10.348-9.719,14.281-15.164C175.081,336.478,171.573,343.667,165.402,348.845z
				 M409.372,214.245c-1.205-6.231-0.263-12.441,2.652-17.487c0.678-1.174,1.445-2.248,2.288-3.213
				c-1.137,5.807-1.133,12.036,0.065,18.242c1.522,7.879,4.849,15.071,9.534,20.78c-1.933-0.679-3.811-1.695-5.566-3.072
				C413.761,225.899,410.574,220.485,409.372,214.245z M450.034,229.847c-5.324,1.028-9.834-2.172-12.048-4.172
				c-4.349-3.929-7.585-10.027-8.88-16.732c-1.296-6.705-0.563-13.57,2.01-18.835c1.31-2.68,4.302-7.33,9.627-8.359
				c0.687-0.132,1.376-0.197,2.067-0.197c8.205,0,16.539,9.078,18.861,21.101C464.189,215.688,458.86,228.142,450.034,229.847z
				 M474.861,223.736c2.494-7.121,3.182-15.42,1.539-23.928c-1.324-6.855-4.005-13.019-7.592-18.128
				c6.92,2.475,12.702,9.378,14.428,18.303C485.141,209.834,481.533,219.241,474.861,223.736z"/>
		</g>
	</g>
</g>
<g>
</g>
<g>
</g>
<g>
</g>
<g>
</g>
<g>
</g>
<g>
</g>
<g>
</g>
<g>
</g>
<g>
</g>
<g>
</g>
<g>
</g>
<g>
</g>
<g>
</g>
<g>
</g>
<g>
</g>
</svg>
